<svg xmlns="http://www.w3.org/2000/svg" width="512" height="512"><path d="M286.948 434.214c-5.378 0-10.755-1.979-14.842-5.928-8.125-7.889-8.091-20.613.1-28.438l140.038-133.695c18.729-17.988 28.982-42.111 28.849-67.911-.135-25.332-10.336-48.811-28.733-66.123-37.575-36.105-103.565-35.992-140.774-.145L88.745 307.732c-8.175 7.827-21.411 7.827-29.585 0-8.158-7.858-8.158-20.581 0-28.44l182.841-175.758c26.536-25.492 62.002-39.535 99.881-39.535 37.894 0 73.362 14.043 99.897 39.535 26.269 24.735 40.945 58.36 41.13 94.498.2 36.621-14.408 70.922-41.144 96.608L301.692 428.383c-4.088 3.882-9.416 5.829-14.743 5.829z"/><path d="M131.466 448h-.821c-27.424-.209-52.888-10.581-71.703-29.229-39.838-38.295-39.838-100.955.218-139.476 8.175-7.827 21.411-7.827 29.586 0 8.158 7.858 8.158 20.582 0 28.44-23.773 22.835-23.773 59.987 0 82.822 11.174 11.079 26.085 17.118 42.218 17.247 17.238.322 32.233-6.007 43.942-17.247l167.26-160.815c8.175-7.827 21.411-7.827 29.586 0 8.157 7.858 8.157 20.581 0 28.44L204.475 418.997c-19.501 18.729-45.4 29.003-73.01 29.003z"/><path d="M218.873 281.824c-5.344 0-10.706-1.965-14.793-5.877-8.158-7.858-8.158-20.581 0-28.439l77.8-74.787c23.94-22.947 65.973-22.947 89.879 0 11.526 10.419 18.261 25.299 18.512 41.468.251 16.394-6.501 32.433-18.512 43.995-8.175 7.827-21.411 7.827-29.586 0-8.158-7.858-8.158-20.582 0-28.44 4.089-3.913 6.366-9.357 6.283-14.961-.084-5.186-2.145-9.887-5.813-13.204-8.997-8.615-23.085-8.213-31.178-.418l-77.8 74.787c-4.089 3.913-9.448 5.877-14.793 5.877z"/></svg>