<svg width="16" height="16" viewBox="0 0 16 16" fill="none" xmlns="http://www.w3.org/2000/svg">
<path d="M6.60329 9.9808C6.39811 9.9808 6.19292 9.8992 6.03556 9.7376C4.56842 8.216 4.56842 5.7392 6.03556 4.216L8.99761 1.144C9.70881 0.4064 10.6545 0 11.6604 0C12.6662 0 13.6104 0.4064 14.3216 1.144C15.7887 2.6656 15.7887 5.1424 14.3216 6.6656L12.9671 8.0704C12.6539 8.3952 12.1463 8.3952 11.8332 8.0704C11.52 7.7456 11.52 7.2192 11.8332 6.8944L13.1877 5.4896C14.03 4.616 14.03 3.1952 13.1877 2.3216C12.7804 1.8992 12.2374 1.6656 11.6604 1.6656C11.0834 1.6656 10.5403 1.8992 10.1331 2.3216L7.17102 5.3936C6.32868 6.2672 6.32868 7.688 7.17102 8.5616C7.48419 8.8864 7.48419 9.4128 7.17102 9.7376C7.0152 9.8992 6.80847 9.9808 6.60329 9.9808ZM3.76157 16C2.75571 16 1.81156 15.5936 1.10036 14.856C-0.366785 13.3344 -0.366785 10.8576 1.10036 9.3344L2.45488 7.9296C2.76805 7.6048 3.27561 7.6048 3.58879 7.9296C3.90196 8.2544 3.90196 8.7808 3.58879 9.1056L2.23427 10.512C1.39193 11.3856 1.39193 12.8064 2.23427 13.68C2.64155 14.1024 3.18459 14.336 3.76157 14.336C4.33856 14.336 4.8816 14.1024 5.28888 13.68L8.25093 10.608C9.09326 9.7344 9.09326 8.3136 8.25093 7.44C7.93776 7.1152 7.93776 6.5888 8.25093 6.264C8.56411 5.9392 9.07167 5.9392 9.38484 6.264C10.852 7.7856 10.852 10.2624 9.38484 11.7856L6.42279 14.8576C5.71313 15.5936 4.76744 16 3.76157 16Z" fill="black"/>
</svg>
