<svg width="26" height="25" viewBox="0 0 26 25" version="1.1" xmlns="http://www.w3.org/2000/svg" xmlns:xlink="http://www.w3.org/1999/xlink">
<title>Vector</title>
<desc>Created using Figma</desc>
<g id="Canvas" transform="translate(8769 1699)">
<g id="Vector">
<use xlink:href="#path0_stroke" transform="translate(-8766.53 -1697.33)" fill="#27AE60"/>
</g>
</g>
<defs>
<path id="path0_stroke" d="M 1.12439 14.5719C 0.576048 13.9509 -0.371872 13.892 -0.992853 14.4403C -1.61383 14.9887 -1.67272 15.9366 -1.12439 16.5576L 1.12439 14.5719ZM 5.23578 21.4941L 4.11139 22.487C 4.40947 22.8245 4.84344 23.0103 5.29345 22.993C 5.74345 22.9757 6.16187 22.7571 6.43313 22.3976L 5.23578 21.4941ZM 22.6527 0.903523C 23.1517 0.242246 23.0201 -0.698347 22.3588 -1.19735C 21.6975 -1.69635 20.757 -1.5648 20.258 -0.903523L 22.6527 0.903523ZM -1.12439 16.5576L 4.11139 22.487L 6.36016 20.5013L 1.12439 14.5719L -1.12439 16.5576ZM 6.43313 22.3976L 22.6527 0.903523L 20.258 -0.903523L 4.03843 20.5906L 6.43313 22.3976Z"/>
</defs>
</svg>
