<svg xmlns="http://www.w3.org/2000/svg" width="512" height="512"><path d="M256 32C132.486 32 32 132.486 32 256s100.486 224 224 224 224-100.486 224-224S379.514 32 256 32zm0 400.842c-97.511 0-176.843-79.332-176.843-176.842S158.489 79.157 256 79.157 432.842 158.489 432.842 256 353.51 432.842 256 432.842z"/><path d="M376.267 249.081h-87.474a38.705 38.705 0 0 0-12.728-12.728V131.195c0-11.07-8.973-20.043-20.042-20.043s-20.042 8.973-20.042 20.043v105.158c-11.017 6.764-18.383 18.922-18.383 32.771 0 21.188 17.238 38.426 38.426 38.426 13.848 0 26.007-7.366 32.77-18.384h87.475c11.07 0 20.043-8.973 20.043-20.042s-8.974-20.042-20.043-20.042z"/></svg>