<svg xmlns="http://www.w3.org/2000/svg" width="448" height="512"><path d="M406.349 453.149c-6.438 6.443-14.07 9.663-22.887 9.663H155.599c-8.815 0-16.438-3.219-22.887-9.663-6.439-6.44-9.657-14.07-9.657-22.887s3.219-16.45 9.657-22.887l73.229-73.24L37.082 165.274c-3.388-3.395-5.084-7.292-5.084-11.698s1.697-8.31 5.084-11.698l57.99-57.983c3.388-3.39 7.279-5.082 11.692-5.082s8.303 1.692 11.692 5.082l168.873 168.861 73.226-73.234c6.449-6.441 14.082-9.669 22.899-9.669s16.442 3.228 22.887 9.669c6.438 6.438 9.658 14.071 9.658 22.887V430.27c.005 8.824-3.195 16.44-9.651 22.882z"/></svg>