<svg width="13" height="13" viewBox="0 0 13 13" version="1.1" xmlns="http://www.w3.org/2000/svg" xmlns:xlink="http://www.w3.org/1999/xlink">
<g id="Canvas" fill="none">
<g id="Indonesia Central Ba">
<path d="M 2.46064 13C 2.32998 13 2.21385 12.9578 2.11223 12.8734C 2.02513 12.789 1.98883 12.6834 2.00335 12.5568L 2.35176 10.2565L 0.500838 10.2565C 0.355667 10.2565 0.232272 10.2143 0.130653 10.1299C 0.0435511 10.0314 0 9.9118 0 9.7711L 0 8.58929C 0 8.44859 0.0435511 8.33604 0.130653 8.25162C 0.232272 8.15314 0.355667 8.1039 0.500838 8.1039L 2.67839 8.1039L 3.17923 4.8961L 1.067 4.8961C 0.921831 4.8961 0.798437 4.8539 0.696818 4.76948C 0.609715 4.671 0.566164 4.55141 0.566164 4.41071L 0.566164 3.2289C 0.566164 3.0882 0.609715 2.97565 0.696818 2.89123C 0.798437 2.79275 0.921831 2.74351 1.067 2.74351L 3.50586 2.74351L 3.87605 0.443181C 3.90508 0.316557 3.96315 0.211039 4.05025 0.126623C 4.13735 0.0422079 4.24623 0 4.37688 0L 5.63987 0C 5.77052 0 5.8794 0.0422079 5.9665 0.126623C 6.0536 0.211039 6.08989 0.316557 6.07538 0.443181L 5.72697 2.74351L 8.44891 2.74351L 8.8191 0.443181C 8.84813 0.316557 8.9062 0.211039 8.9933 0.126623C 9.0804 0.0422079 9.18928 0 9.31993 0L 10.5829 0C 10.7136 0 10.8224 0.0422079 10.9095 0.126623C 10.9966 0.211039 11.0329 0.316557 11.0184 0.443181L 10.67 2.74351L 12.4992 2.74351C 12.6443 2.74351 12.7605 2.79275 12.8476 2.89123C 12.9492 2.97565 13 3.0882 13 3.2289L 13 4.41071C 13 4.55141 12.9492 4.671 12.8476 4.76948C 12.7605 4.8539 12.6443 4.8961 12.4992 4.8961L 10.3434 4.8961L 9.86432 8.1039L 11.933 8.1039C 12.0782 8.1039 12.1943 8.15314 12.2814 8.25162C 12.383 8.33604 12.4338 8.44859 12.4338 8.58929L 12.4338 9.7711C 12.4338 9.9118 12.383 10.0314 12.2814 10.1299C 12.1943 10.2143 12.0782 10.2565 11.933 10.2565L 9.51591 10.2565L 9.1675 12.5568C 9.13847 12.6834 9.0804 12.789 8.9933 12.8734C 8.9062 12.9578 8.79732 13 8.66667 13L 7.40368 13C 7.27303 13 7.1569 12.9578 7.05528 12.8734C 6.96817 12.789 6.93188 12.6834 6.9464 12.5568L 7.29481 10.2565L 4.57286 10.2565L 4.22445 12.5568C 4.19542 12.6834 4.13735 12.789 4.05025 12.8734C 3.96315 12.9578 3.85427 13 3.72362 13L 2.46064 13ZM 7.62144 8.1039L 8.12228 4.8961L 5.40033 4.8961L 4.92127 8.1039L 7.62144 8.1039Z" fill="white"/>
</g>
</g>
</svg>

