<svg width="14" height="15" viewBox="0 0 14 15" version="1.1" xmlns="http://www.w3.org/2000/svg" xmlns:xlink="http://www.w3.org/1999/xlink">
<g id="Canvas" fill="none">
<path id="Union" fill-rule="evenodd" clip-rule="evenodd" d="M 6 13C 6 13.5522 6.44775 14 7 14C 7.55225 14 8 13.5522 8 13L 8 8L 13 8C 13.5522 8 14 7.55225 14 7C 14 6.44775 13.5522 6 13 6L 8 6L 8 1C 8 0.447754 7.55225 0 7 0C 6.44775 0 6 0.447754 6 1L 6 6L 1 6C 0.447754 6 0 6.44775 0 7C 0 7.55225 0.447754 8 1 8L 6 8L 6 13Z" transform="translate(0 0.800049)" fill="#BBBBBB"/>
</g>
</svg>
