<svg width="23" height="19" xmlns="http://www.w3.org/2000/svg"><g fill="none"><path d="M22 19a1 1 0 0 0 1-1v-7.5a1 1 0 0 0-1-1h-4.345c-.552 0-1.008-.45-.921-.996a6.354 6.354 0 0 1 5.27-5.26c.545-.086.996-.525.996-1.077V1c0-.552-.45-1.006-.998-.948-4.78.5-8.52 4.546-8.52 9.448V18a1 1 0 0 0 1 1H22zM8.517 19a1 1 0 0 0 1-1v-7.5a1 1 0 0 0-1-1H4.172c-.552 0-1.008-.45-.921-.996a6.354 6.354 0 0 1 5.27-5.26c.545-.086.996-.525.996-1.077V1c0-.552-.449-1.006-.998-.948-4.78.5-8.52 4.546-8.52 9.448V18a1 1 0 0 0 1 1h7.518z" fill="#433099"/></g></svg>