<svg xmlns="http://www.w3.org/2000/svg" width="512" height="512"><path d="M314.31 450.709c23.046-5.406 39.73-11.2 56.115-19.487 51-25.795 82.927-68.618 82.927-111.225 0-12.88.276-13.48 11.012-23.873 8.522-8.248 11.853-13.578 14.736-23.555 3.431-11.884 3.442-13.861.142-25.219-9.262-31.863-42.395-46.219-72.046-31.214l-11.459 5.799-11.81-7.267c-22.714-13.975-63.11-27.664-89.156-30.208-7.135-.699-16.134-1.742-19.994-2.322l-7.019-1.053 3.015-15.087c1.658-8.298 5.112-24.674 7.676-36.391s5.776-27.611 7.139-35.321c1.97-11.144 3.312-14.017 6.553-14.017 2.241 0 18.274 3.028 35.63 6.728s31.909 6.728 32.346 6.728c.437 0 1.415 3.316 2.176 7.365 1.922 10.25 6.916 16.614 17.116 21.82 24.481 12.49 52.039-4.15 52.039-31.427 0-33.792-41.666-48.55-62.841-22.258-4.092 5.082-6.146 6.013-10.092 4.579-2.724-.99-21.445-5.176-41.601-9.3-26.695-5.463-37.642-6.87-40.319-5.182-4.086 2.578-3.559.674-14.813 53.468-13.387 62.797-14.197 66.355-15.35 67.509-.612.612-10.29 2.059-21.514 3.221-34.048 3.523-71.464 15.544-96.689 31.065l-11.664 7.177-11.454-5.708c-29.9-14.9-63.089-.539-72.346 31.306-3.303 11.359-3.291 13.335.142 25.219 2.883 9.976 6.215 15.306 14.736 23.555 10.736 10.392 11.012 10.99 11.012 23.873 0 58.854 60.489 115.022 141.286 131.189 26.766 5.356 28.584 5.493 62.795 4.724 22.358-.502 38.474-2.127 51.582-5.201zm-94.319-42.744c-18.555-4.178-39.542-13.498-45.692-20.293-4.905-5.418-2.808-13.625 3.48-13.625 2.448 0 8.185 2.547 12.743 5.659 30.79 21.019 100.274 20.943 131.168-.144 9.95-6.791 18.093-6.603 19.098.439.471 3.315-1.644 6.613-6.731 10.493-24.701 18.841-74.262 26.433-114.067 17.471zm-56.593-83.33c-11.553-6.269-17.266-16.269-17.277-30.239-.012-16.014 7.428-26.377 22.539-31.396 10.756-3.572 12.039-3.572 21.397.002 25.186 9.618 30.339 41.038 9.486 57.829-10.869 8.753-24.404 10.176-36.145 3.805zm156.518 1.033c-10.707-5.569-16.69-12.339-19.224-21.745-4.687-17.402 4.136-34.387 21.253-40.925 9.36-3.574 10.644-3.574 21.397-.002 15.111 5.019 22.551 15.382 22.539 31.396-.012 14.225-5.838 24.144-17.755 30.225-10.72 5.469-19.111 5.781-28.21 1.05z"/></svg>