<svg xmlns="http://www.w3.org/2000/svg" width="512" height="512"><path d="M208.084 495.058c-15.4 12.834-38.781 1.884-38.781-18.164v-70.933H98.37c-30.468 0-55.169-24.701-55.169-55.169V98.585c0-30.468 24.701-55.169 55.169-55.169h315.259c30.468 0 55.169 24.701 55.169 55.169v252.207c0 30.468-24.701 55.169-55.169 55.169h-98.627l-106.915 89.097zm83.22-130.904a23.64 23.64 0 0 1 15.137-5.479h107.186a7.881 7.881 0 0 0 7.88-7.88V98.588a7.88 7.88 0 0 0-7.88-7.88H98.368a7.88 7.88 0 0 0-7.88 7.88v252.207a7.88 7.88 0 0 0 7.88 7.88h94.577c13.058 0 23.644 10.586 23.644 23.644v44.096l74.712-62.26zm-98.356-194.636c30.468 0 55.169 24.701 55.169 55.169s-24.701 55.169-55.169 55.169c-30.468 0-55.169-24.701-55.169-55.169s24.701-55.169 55.169-55.169zm126.105 0c30.468 0 55.169 24.701 55.169 55.169s-24.701 55.169-55.169 55.169c-30.468 0-55.169-24.701-55.169-55.169s24.701-55.169 55.169-55.169z"/></svg>