<svg width="9" height="11" viewBox="0 0 9 11" xmlns="http://www.w3.org/2000/svg" xmlns:xlink="http://www.w3.org/1999/xlink"><use xlink:href="#path0_fill" fill="#DDD"/><use xlink:href="#path1_fill" transform="translate(1.52 1.56)" fill="#DDD"/><defs><path id="path0_fill" fill-rule="evenodd" d="M7.043 0c-1.08 0-1.956.884-1.956 1.964s.876 1.964 1.956 1.964A1.963 1.963 0 0 0 9 1.964C9 .884 8.124 0 7.043 0zM1.956 3.928C.876 3.928 0 4.812 0 5.893c0 1.08.876 1.964 1.956 1.964.469 0 .9-.167 1.236-.443l1.942 1.193A1.963 1.963 0 0 0 7.044 11a1.963 1.963 0 0 0 1.956-1.964c0-1.08-.876-1.964-1.957-1.964-.509 0-.972.195-1.32.515L3.84 6.43a1.963 1.963 0 0 0-1.883-2.5z"/><path id="path1_fill" d="M.706 4.824L0 3.883 5.141 0l.706.942L.706 4.824z"/></defs></svg>
