<?xml version="1.0" encoding="UTF-8"?>
<svg width="16px" height="15px" viewBox="0 0 16 15" version="1.1" xmlns="http://www.w3.org/2000/svg" xmlns:xlink="http://www.w3.org/1999/xlink">
    <!-- Generator: Sketch 48.2 (47327) - http://www.bohemiancoding.com/sketch -->
    <title>Star</title>
    <desc>Created with Sketch.</desc>
    <defs></defs>
    <g id="Mobile-Copy-35" stroke="none" stroke-width="1" fill="none" fill-rule="evenodd" transform="translate(-22.000000, -2478.000000)" stroke-linecap="round" stroke-linejoin="round">
        <g id="Group-25" transform="translate(0.000000, 2454.000000)" stroke="#DB0E0E" stroke-width="1.5">
            <g id="Group-11">
                <g id="Group-10-Copy" transform="translate(16.000000, 18.000000)">
                    <g id="Group-30">
                        <path d="M13.9968616,17.2400475 L10.6654139,19.3745706 C10.432903,19.5235448 10.1236483,19.4558249 9.97467409,19.2233141 C9.89937934,19.1057981 9.87662931,18.9621601 9.91192445,18.8271284 L10.9125026,14.9991295 L7.85297656,12.4903384 C7.63944386,12.315243 7.60828427,12.0001977 7.78337967,11.786665 C7.87187664,11.678741 8.00145436,11.6127179 8.14078391,11.6045584 L12.0906229,11.3732481 L13.5311795,7.68820682 C13.6317199,7.43101771 13.9217169,7.30402882 14.178906,7.40456921 C14.3088949,7.45538447 14.4117284,7.55821794 14.4625437,7.68820682 L15.9031003,11.3732481 L19.8529392,11.6045584 C20.1286093,11.6207022 20.3389969,11.8572641 20.3228531,12.1329342 C20.3146937,12.2722637 20.2486706,12.4018414 20.1407466,12.4903384 L17.0812206,14.9991295 L18.0817987,18.8271284 C18.1516318,19.094295 17.9916614,19.3674871 17.7244949,19.4373202 C17.5894632,19.4726153 17.4458252,19.4498653 17.3283092,19.3745706 L13.9968616,17.2400475 Z" id="Star"></path>
                    </g>
                </g>
            </g>
        </g>
    </g>
</svg>