<?xml version="1.0" encoding="UTF-8"?>
<svg width="16px" height="14px" viewBox="0 0 16 14" version="1.1" xmlns="http://www.w3.org/2000/svg" xmlns:xlink="http://www.w3.org/1999/xlink">
    <!-- Generator: Sketch 48.2 (47327) - http://www.bohemiancoding.com/sketch -->
    <title>Path</title>
    <desc>Created with Sketch.</desc>
    <defs></defs>
    <g id="Page-1" stroke="none" stroke-width="1" fill="none" fill-rule="evenodd">
        <g id="Group-9" transform="translate(-121.000000, -121.000000)" fill="#5C29C7">
            <g id="Group-25" transform="translate(34.000000, 121.000000)">
                <path d="M100.526291,12.622613 L102.941102,1.25533124 C103.058898,0.784148578 103,0.430761581 102.764409,0.195170249 C102.528817,-0.0404210821 102.293226,-0.0404210821 101.939839,0.0773745836 L87.7454613,5.55487304 C87.4509721,5.67266871 87.2153808,5.79046437 87.0975851,5.96715787 C86.9797895,6.14385137 86.9797895,6.26164704 87.0386873,6.3794427 C87.0975851,6.49723837 87.2742786,6.61503403 87.5687678,6.67393187 L91.2204334,7.79299069 L99.6428235,2.49218573 C99.8784149,2.31549223 100.055108,2.31549223 100.172904,2.37439007 C100.231802,2.4332879 100.231802,2.49218573 100.114006,2.6099814 L93.2818576,8.85315168 L92.9873684,12.622613 C93.2229597,12.622613 93.4585511,12.5048173 93.7530402,12.269226 L95.5199752,10.5611888 L99.1716409,13.2704891 C99.9373127,13.682774 100.349598,13.4471826 100.526291,12.622613 Z" id="Path"></path>
            </g>
        </g>
    </g>
</svg>