<?xml version="1.0" encoding="UTF-8"?>
<svg width="14px" height="12px" viewBox="0 0 14 12" version="1.1" xmlns="http://www.w3.org/2000/svg" xmlns:xlink="http://www.w3.org/1999/xlink">
    <!-- Generator: Sketch 48.2 (47327) - http://www.bohemiancoding.com/sketch -->
    <title>Path 6 Copy</title>
    <desc>Created with Sketch.</desc>
    <defs></defs>
    <g id="Page-1" stroke="none" stroke-width="1" fill="none" fill-rule="evenodd">
        <g id="Group-9" transform="translate(-49.000000, -122.000000)" fill="#5C29C7">
            <g id="Group-25" transform="translate(34.000000, 121.000000)">
                <path d="M21.6688362,4.01927782 L21.6986077,4.51019734 L21.2024146,4.45008474 C19.3962715,4.21965313 17.8183772,3.4381894 16.4786556,2.12573108 L15.8236807,1.4745113 L15.654975,1.95541206 C15.2977159,3.02742 15.5259648,4.15954054 16.2702545,4.92096674 C16.667209,5.3417549 16.5778943,5.4018675 15.8931477,5.15139835 C15.654975,5.07124822 15.4465738,5.01113563 15.4267261,5.04119193 C15.3572591,5.11132329 15.5954318,6.02303097 15.7839852,6.38370654 C16.0420056,6.88464483 16.5679704,7.37556436 17.1435545,7.66610857 L17.6298238,7.89654018 L17.0542397,7.90655894 C16.4985034,7.90655894 16.4786556,7.91657771 16.5381988,8.12697179 C16.7366761,8.77819157 17.5206613,9.46948641 18.3939613,9.77004938 L19.0092408,9.98044347 L18.4733522,10.301044 C17.6794431,10.7619072 16.7465999,11.0223951 15.8137568,11.0424326 C15.3671829,11.0524514 15,11.0925265 15,11.1225828 C15,11.2227704 16.2107113,11.7838213 16.9153056,12.0042342 C19.0290885,12.6554539 21.5398259,12.3749285 23.42536,11.2628455 C24.7650815,10.471363 26.1048031,8.89841676 26.7300064,7.37556436 C27.0674178,6.56404433 27.4048291,5.08126699 27.4048291,4.36993462 C27.4048291,3.90907139 27.4346007,3.8489588 27.9903371,3.29792668 C28.3178246,2.97732617 28.6254643,2.62666937 28.6850075,2.52648171 C28.7842461,2.33612516 28.7743223,2.33612516 28.2682053,2.50644418 C27.4246769,2.80700715 27.3055905,2.76693209 27.7223928,2.31608763 C28.0300325,1.99548712 28.3972155,1.41439871 28.3972155,1.24407969 C28.3972155,1.21402339 28.2483575,1.26411722 28.0796519,1.35428611 C27.9010223,1.45447377 27.5040678,1.60475526 27.2063519,1.69492415 L26.6704633,1.86524317 L26.184194,1.5346239 C25.9162497,1.35428611 25.5391428,1.1539108 25.3406656,1.0937982 C24.8345485,0.953535481 24.0604872,0.973573013 23.6039895,1.13387327 C22.3635066,1.58471773 21.5795214,2.74689456 21.6688362,4.01927782 Z" id="Path-6-Copy"></path>
            </g>
        </g>
    </g>
</svg>