<svg width="122" height="111" viewBox="0 0 122 111" version="1.1" xmlns="http://www.w3.org/2000/svg" xmlns:xlink="http://www.w3.org/1999/xlink">
<g id="Canvas" fill="none">
<g id="Group">
<g id="Vector">
<path d="M 9.51874 16.6617C 14.7672 16.6617 19.0375 12.4561 19.0375 7.28603C 19.0375 2.65599 15.5681 -7.9186e-07 9.51874 -7.9186e-07C 3.46978 -7.9186e-07 1.39377e-06 2.65559 1.39377e-06 7.28603C 1.39377e-06 12.4561 4.27024 16.6617 9.51874 16.6617ZM 9.51874 2.54044C 14.1397 2.54044 16.4828 4.13744 16.4828 7.28603C 16.4828 11.0549 13.3588 14.1212 9.51874 14.1212C 5.67871 14.1212 2.55513 11.0549 2.55513 7.28603C 2.55472 4.13744 4.89781 2.54044 9.51874 2.54044Z" transform="translate(32.7661 8.92554)" fill="#EEEEEE"/>
</g>
<g id="Vector_2">
<path d="M 19.0346 10.9163L 19.0346 3.30832C 19.0346 1.48428 17.5418 1.48474e-07 15.7072 1.48474e-07L 3.32705 1.48474e-07C 1.49246 1.48474e-07 1.39377e-06 1.48428 1.39377e-06 3.30832L 1.39377e-06 10.9163C 1.39377e-06 12.7403 1.49287 14.2242 3.32705 14.2242L 15.7072 14.2242C 17.5418 14.2242 19.0346 12.7399 19.0346 10.9163ZM 16.4795 10.9163C 16.4795 11.3399 16.1333 11.6842 15.7072 11.6842L 3.32705 11.6842C 2.90093 11.6842 2.55472 11.3399 2.55472 10.9163L 2.55472 3.30832C 2.55472 2.88465 2.90093 2.54044 3.32705 2.54044L 15.7072 2.54044C 16.1333 2.54044 16.4795 2.88465 16.4795 3.30832L 16.4795 10.9163Z" transform="translate(32.7661 35.823)" fill="#EEEEEE"/>
</g>
<g id="Vector_3">
<path d="M 40.46 97.4283C 40.3536 97.4283 40.2496 97.4404 40.144 97.4437L 40.144 70.1135C 41.0293 70.6908 42.0838 71.033 43.2199 71.033L 43.8079 71.033C 46.9123 71.033 49.4389 68.5213 49.4389 65.434L 49.4389 64.7135L 49.4389 62.1731L 49.4389 40.4938C 49.4389 35.67 47.7246 31.0869 44.791 27.4336L 44.791 13.5289C 44.791 10.8571 42.5874 8.68315 39.879 8.68315L 37.891 8.68315C 35.7502 3.59254 30.655 2.96948e-06 24.7194 2.96948e-06C 18.7842 2.96948e-06 13.6895 3.59254 11.5487 8.68315L 10.3265 8.68315L 10.3265 3.44009C 10.3265 2.73869 9.75443 2.16987 9.04898 2.16987C 8.34352 2.16987 7.77142 2.73869 7.77142 3.44009L 7.77142 8.95074C 5.81898 9.59213 4.39828 11.3906 4.39828 13.5289L 4.39828 27.5532C 4.39828 27.6124 4.42397 27.6627 4.43213 27.719C 1.63437 31.3257 9.95549e-07 35.7932 9.95549e-07 40.4938L 9.95549e-07 62.1731L 9.95549e-07 64.7135L 9.95549e-07 65.434C 9.95549e-07 68.5213 2.52618 71.033 5.6314 71.033L 6.21901 71.033C 7.35508 71.033 8.40999 70.6908 9.29528 70.1131L 9.29528 97.4546C 9.11586 97.4457 8.93766 97.4283 8.75661 97.4283C 4.26779 97.4283 0.61656 101.025 0.61656 105.447C 0.61656 107.361 2.19262 108.917 4.13078 108.917L 22.2932 108.917C 22.9986 108.917 23.5707 108.349 23.5707 107.647L 23.5707 98.6985L 23.5707 79.8702C 23.5707 79.3152 24.036 78.8635 24.6085 78.8635C 25.1806 78.8635 25.6459 79.3152 25.6459 79.8702L 25.6459 98.6985L 25.6459 99.7583L 25.6459 107.647C 25.6459 108.349 26.218 108.917 26.9235 108.917L 45.0859 108.917C 47.0236 108.917 48.6001 107.361 48.6001 105.447C 48.5997 101.026 44.948 97.4283 40.46 97.4283ZM 46.8838 65.434C 46.8838 67.121 45.5038 68.4925 43.8079 68.4925L 43.2199 68.4925C 41.5235 68.4925 40.144 67.1206 40.144 65.434L 40.144 64.7135L 46.8838 64.7135L 46.8838 65.434ZM 46.4413 36.5745L 42.9675 36.5745L 42.9675 34.328L 45.7807 34.328C 46.0466 35.0606 46.2705 35.809 46.4413 36.5745ZM 39.8786 11.2236C 41.1786 11.2236 42.2359 12.2574 42.2359 13.5289L 42.2359 24.7679C 40.6529 23.3748 38.853 22.2059 36.8753 21.3205C 38.1965 19.1928 38.9725 16.703 38.9725 14.032C 38.9725 13.0703 38.873 12.1314 38.685 11.2236L 39.8786 11.2236ZM 24.719 2.54044C 31.1697 2.54044 36.4173 7.69551 36.4173 14.032C 36.4173 20.3677 31.1697 25.5228 24.719 25.5228C 18.2692 25.5228 13.0215 20.3677 13.0215 14.032C 13.0215 7.69551 18.2692 2.54044 24.719 2.54044ZM 9.30996 11.2236L 10.7539 11.2236C 10.5659 12.1314 10.4664 13.0703 10.4664 14.032C 10.4664 16.703 11.242 19.1928 12.5636 21.3205C 10.4839 22.2518 8.5939 23.4899 6.95301 24.9787L 6.95301 13.5289C 6.9526 12.2574 8.00997 11.2236 9.30996 11.2236ZM 6.21819 68.493L 5.63059 68.493C 3.93383 68.493 2.55432 67.121 2.55432 65.4344L 2.55432 64.7139L 9.29487 64.7139L 9.29487 65.4344C 9.29487 67.121 7.91536 68.493 6.21819 68.493ZM 45.0851 106.377L 28.2002 106.377L 28.2002 99.9687L 30.6652 99.9687C 31.3707 99.9687 31.9428 99.3999 31.9428 98.6985C 31.9428 97.9971 31.3707 97.4283 30.6652 97.4283L 28.2002 97.4283L 28.2002 79.8702C 28.2002 77.9148 26.5891 76.3231 24.6077 76.3231C 22.6263 76.3231 21.0148 77.9144 21.0148 79.8702L 21.0148 97.4283L 18.5498 97.4283C 17.8443 97.4283 17.2722 97.9967 17.2722 98.6985C 17.2722 99.3999 17.8443 99.9687 18.5498 99.9687L 21.0148 99.9687L 21.0148 106.377L 4.12997 106.377C 3.60108 106.377 3.17046 105.961 3.17046 105.447C 3.17046 102.426 5.67626 99.9687 8.75579 99.9687C 10.9023 99.9687 12.9049 100.806 14.3941 102.325C 14.6449 102.581 14.9768 102.709 15.3092 102.709C 15.6305 102.709 15.9522 102.59 16.2006 102.349C 16.7058 101.86 16.7164 101.055 16.2242 100.553C 14.9911 99.2941 13.4929 98.3891 11.8496 97.8868L 11.8496 65.4344L 11.8496 63.4437L 11.8496 62.1735L 11.8496 42.4403C 11.8496 41.7389 11.2779 41.17 10.572 41.17C 9.86657 41.17 9.29446 41.7389 9.29446 42.4403L 9.29446 62.1735L 2.55391 62.1735L 2.55391 40.4942C 2.55391 33.0541 7.194 26.2668 14.1478 23.4105C 16.758 26.2591 20.5238 28.0632 24.7182 28.0632C 28.9134 28.0632 32.6788 26.2591 35.2894 23.4105C 39.3513 25.0788 42.6168 28.0876 44.6341 31.7883L 41.6891 31.7883C 40.9836 31.7883 40.4115 32.3572 40.4115 33.0586L 40.4115 37.8451C 40.4115 38.5465 40.9836 39.1153 41.6891 39.1153L 46.8279 39.1153C 46.863 39.5722 46.8829 40.032 46.8829 40.4946L 46.8829 62.1739L 40.1436 62.1739L 40.1436 42.3069C 40.1436 41.6055 39.5715 41.0367 38.866 41.0367C 38.1606 41.0367 37.5885 41.6055 37.5885 42.3069L 37.5885 62.1739L 37.5885 63.3099L 37.5885 65.4348L 37.5885 97.8309C 35.8583 98.3178 34.2785 99.2389 32.9908 100.553C 32.4986 101.056 32.5092 101.86 33.0144 102.349C 33.2628 102.59 33.5845 102.71 33.9058 102.71C 34.2382 102.71 34.5705 102.582 34.8209 102.326C 36.3097 100.806 38.3127 99.9691 40.46 99.9691C 43.5396 99.9691 46.0446 102.427 46.0446 105.448C 46.0446 105.961 45.6139 106.377 45.0851 106.377Z" transform="translate(17.5654 2.08252)" fill="#EEEEEE"/>
</g>
<g id="Vector_4">
<path d="M 8.28725 25.1048C 11.6045 25.1048 14.8839 24.5052 18.0996 23.9165C 23.6115 22.9094 28.8148 21.9562 34.0184 23.8593C 34.4095 24.0053 34.847 23.9481 35.1903 23.7093C 35.5329 23.4717 35.7368 23.0825 35.7368 22.6673L 35.7368 2.43627C 35.7368 1.90394 35.4032 1.42796 34.9004 1.2443C 29.0427 -0.897196 23.2445 0.162197 17.6376 1.18713C 12.1273 2.19382 6.92161 3.14699 1.71878 1.2443C 1.58952 1.19646 1.45454 1.17903 1.31957 1.17457C 1.30489 1.17416 1.29265 1.16605 1.27757 1.16605C 1.26126 1.16605 1.2478 1.17456 1.2319 1.17497C 1.08306 1.18024 0.935846 1.20619 0.796386 1.26254C 0.777628 1.27025 0.762137 1.2816 0.743379 1.29052C 0.676096 1.32133 0.607997 1.35133 0.546422 1.39431C 0.498305 1.42755 0.45997 1.47012 0.417561 1.50905C 0.39758 1.52729 0.376377 1.5427 0.358027 1.56216C 0.258937 1.66554 0.179831 1.78271 0.121111 1.91164C 0.108878 1.93799 0.100721 1.96515 0.0901185 1.99272C 0.0371075 2.13381 2.63821e-06 2.2814 2.63821e-06 2.43627L 2.63821e-06 22.6673L 2.63821e-06 78.4459C 2.63821e-06 79.1473 0.572112 79.7162 1.27757 79.7162C 1.98302 79.7162 2.55513 79.1477 2.55513 78.4459L 2.55513 24.3921C 4.47535 24.9005 6.38742 25.1048 8.28725 25.1048ZM 18.0996 3.68541C 23.3163 2.73223 28.2598 1.82853 33.1816 3.34687L 33.1816 20.9353C 27.9083 19.5394 22.6957 20.4934 17.6372 21.4186C 12.4225 22.3726 7.48026 23.2759 2.55513 21.7572L 2.55513 4.16868C 7.82891 5.5654 13.0415 4.61141 18.0996 3.68541Z" transform="translate(75.5518 31.2839)" fill="#EEEEEE"/>
</g>
<g id="Vector_5">
<path d="M 41.2317 11.5063C 28.1176 5.91863 14.7409 2.05243 1.47303 0.0143159C 0.772467 -0.0894749 0.122471 0.382045 0.0152261 1.07533C -0.0928349 1.76862 0.385897 2.41731 1.08238 2.52475C 14.1386 4.53002 27.3077 8.33703 40.2249 13.8408C 40.3888 13.9109 40.5597 13.9446 40.7277 13.9446C 41.2235 13.9446 41.6949 13.6555 41.9021 13.1742C 42.181 12.5288 41.8797 11.7824 41.2317 11.5063Z" transform="translate(79.9937 83.9741)" fill="#EEEEEE"/>
</g>
<g id="Vector_6">
<path d="M 12.352 0.520576C 8.67877 0.208393 4.95658 0.033653 1.28944 2.07863e-06C 1.28495 2.07863e-06 1.28129 2.07863e-06 1.27762 2.07863e-06C 0.577057 2.07863e-06 0.00657197 0.561122 4.75348e-05 1.25847C -0.00606912 1.95986 0.560335 2.53436 1.26579 2.54044C 4.8685 2.57328 8.52544 2.74518 12.1351 3.05209C 12.1718 3.05493 12.2089 3.05656 12.2452 3.05656C 12.9021 3.05656 13.4596 2.55666 13.517 1.89418C 13.5766 1.19522 13.055 0.58058 12.352 0.520576Z" transform="translate(58.9771 82.2585)" fill="#EEEEEE"/>
</g>
<g id="Vector_7">
<path d="M 25.3119 0.946574C 25.1321 0.268286 24.4299 -0.137554 23.7505 0.0428637C 9.241 3.85312 0.97087 8.66884 0.626299 8.87237C 0.0195262 9.22955 -0.180692 10.0084 0.178152 10.6121C 0.416294 11.0127 0.842014 11.2352 1.27874 11.2352C 1.50017 11.2352 1.72404 11.1781 1.92792 11.0585C 2.00948 11.0098 10.2678 6.21112 24.403 2.49857C 25.0856 2.31978 25.4921 1.62486 25.3119 0.946574Z" transform="translate(0 86.6821)" fill="#EEEEEE"/>
</g>
<g id="Vector_8">
<path d="M 5.58981 0.372187C 5.09069 -0.124062 4.28207 -0.124062 3.78336 0.372187L 2.98208 1.16886L 2.18079 0.372187C 1.68168 -0.124062 0.873458 -0.124062 0.374339 0.372187C -0.12478 0.867626 -0.12478 1.672 0.374339 2.16825L 1.17562 2.96533L 0.374339 3.76241C -0.12478 4.25866 -0.12478 5.06304 0.374339 5.55848C 0.623898 5.8066 0.950934 5.93066 1.27756 5.93066C 1.60419 5.93066 1.93124 5.8066 2.18079 5.55848L 2.98208 4.7618L 3.78336 5.55848C 4.03292 5.8066 4.35995 5.93066 4.68658 5.93066C 5.01362 5.93066 5.34066 5.8066 5.58981 5.55848C 6.08893 5.06304 6.08893 4.25866 5.58981 3.76241L 4.78852 2.96533L 5.58981 2.16825C 6.08852 1.672 6.08852 0.867626 5.58981 0.372187Z" transform="translate(67.3848 3.96167)" fill="#EEEEEE"/>
</g>
<g id="Vector_9">
<path d="M 0.374338 6.61504C 0.623898 6.86316 0.950937 6.98722 1.27757 6.98722C 1.6046 6.98722 1.93164 6.86316 2.18079 6.61504L 3.51382 5.28968L 4.84684 6.61504C 5.0964 6.86316 5.42343 6.98722 5.75006 6.98722C 6.07669 6.98722 6.40373 6.86316 6.65329 6.61504C 7.15241 6.11879 7.15241 5.31522 6.65329 4.81897L 5.32027 3.49361L 6.65329 2.16825C 7.15241 1.672 7.15241 0.868034 6.65329 0.37219C 6.15417 -0.123654 5.34555 -0.124059 4.84684 0.37219L 3.51382 1.69755L 2.18079 0.37219C 1.68167 -0.124059 0.873457 -0.124059 0.374338 0.37219C -0.124781 0.868439 -0.124781 1.67241 0.374338 2.16825L 1.70736 3.49361L 0.374338 4.81897C -0.124781 5.31522 -0.124781 6.11879 0.374338 6.61504Z" transform="translate(5.05811 17.3423)" fill="#EEEEEE"/>
</g>
<g id="Vector_10">
<path d="M 2.18089 0.372188C 1.68177 -0.124062 0.873557 -0.124062 0.37403 0.372188C -0.124682 0.868437 -0.124682 1.672 0.37403 2.16825L 1.70747 3.49361L 0.37403 4.81897C -0.124682 5.31522 -0.124682 6.1192 0.37403 6.61504C 0.623589 6.86317 0.950628 6.98723 1.27767 6.98723C 1.6047 6.98723 1.93133 6.86317 2.18089 6.61504L 3.51392 5.28968L 4.84734 6.61504C 5.0965 6.86317 5.42353 6.98723 5.75057 6.98723C 6.0772 6.98723 6.40464 6.86317 6.65379 6.61504C 7.15291 6.11879 7.15291 5.31481 6.65379 4.81897L 5.32037 3.49361L 6.65379 2.16825C 7.15291 1.672 7.15291 0.868032 6.65379 0.372188C 6.15468 -0.123656 5.34646 -0.124062 4.84734 0.372188L 3.51392 1.69755L 2.18089 0.372188Z" transform="translate(106.498 62.9688)" fill="#EEEEEE"/>
</g>
<g id="Vector_11">
<path d="M 0.374338 6.61504C 0.623898 6.86276 0.950529 6.98682 1.27757 6.98682C 1.6042 6.98682 1.93123 6.86276 2.18079 6.61504L 3.51382 5.28968L 4.84684 6.61504C 5.0964 6.86276 5.42344 6.98682 5.75007 6.98682C 6.0771 6.98682 6.40373 6.86276 6.65329 6.61504C 7.15241 6.11879 7.15241 5.31481 6.65329 4.81897L 5.32027 3.49362L 6.65329 2.16825C 7.15241 1.672 7.15241 0.868438 6.65329 0.372188C 6.15417 -0.124061 5.34555 -0.124061 4.84684 0.372188L 3.51382 1.69754L 2.18079 0.372188C 1.68167 -0.124061 0.873457 -0.124061 0.374338 0.372188C -0.124781 0.868438 -0.124781 1.672 0.374338 2.16825L 1.70736 3.49362L 0.374338 4.81897C -0.124781 5.31481 -0.124781 6.11879 0.374338 6.61504Z" transform="translate(4.57715 73.9592)" fill="#EEEEEE"/>
</g>
<g id="Vector_12">
<path d="M 0.188186 16.4394C 0.586992 17.5093 1.75283 18.7438 4.87966 18.9745C 5.94967 20.2131 7.27494 21.2267 8.81185 21.9293C 10.35 22.6319 11.988 22.9855 13.6326 22.9855C 14.986 22.9855 16.3431 22.7463 17.6508 22.265C 20.5456 21.1995 22.85 19.0771 24.1394 16.2881C 24.8444 14.7625 25.1865 13.1375 25.1882 11.5073C 27.4191 9.30374 27.4885 7.61107 27.0892 6.53951C 26.6982 5.49025 25.538 4.24354 22.3916 4.00758C 19.3309 0.475452 14.2765 -0.998295 9.62659 0.713441C 4.98446 2.42193 2.11411 6.80182 2.09495 11.4566C -0.178408 13.6986 -0.197163 15.4035 0.188186 16.4394ZM 16.7635 19.8819C 14.506 20.7118 12.0627 20.6186 9.87819 19.6208C 9.39498 19.3998 8.94194 19.1347 8.51296 18.8403C 10.7443 18.5569 13.2171 17.9419 15.7004 17.028C 18.1805 16.1154 20.4629 14.9847 22.3403 13.7574C 22.2077 14.2565 22.0385 14.7491 21.8171 15.2275C 20.8131 17.3994 19.0181 19.0524 16.7635 19.8819ZM 24.6927 7.42133C 24.7437 7.55715 24.7209 7.75662 24.634 7.99704C 24.5806 7.83162 24.5374 7.66458 24.4758 7.50038C 24.4146 7.33416 24.3363 7.17928 24.2678 7.01792C 24.5194 7.16022 24.6507 7.30659 24.6927 7.42133ZM 10.5139 3.09617C 11.5407 2.7179 12.5936 2.53911 13.6289 2.53911C 17.2887 2.53911 20.7377 4.77547 22.0797 8.3826C 22.3313 9.05684 22.4879 9.74851 22.5715 10.4442C 20.6737 12.0104 17.924 13.5008 14.8135 14.6449C 11.7022 15.7903 8.63936 16.4373 6.17272 16.4767C 5.78125 15.8949 5.44769 15.2693 5.19691 14.5959C 3.47405 9.96785 5.85955 4.80913 10.5139 3.09617ZM 2.80041 15.4781C 2.86117 15.6411 2.93741 15.7955 3.00469 15.9545C 2.78205 15.8288 2.63444 15.693 2.58429 15.558C 2.5378 15.4327 2.57328 15.2336 2.65116 15.0049C 2.70213 15.1627 2.7421 15.3216 2.80041 15.4781Z" transform="translate(84.0122 0)" fill="#EEEEEE"/>
</g>
</g>
</g>
</svg>

