<svg width="9" height="9" viewBox="0 0 9 9" version="1.1" xmlns="http://www.w3.org/2000/svg" xmlns:xlink="http://www.w3.org/1999/xlink">
<g id="Canvas" fill="none">
<g id="clock">
<g id="Group">
<g id="Vector">
<path d="M 4.5 0C 2.01868 0 0 2.01868 0 4.5C 0 6.98132 2.01868 9 4.5 9C 6.98132 9 9 6.98132 9 4.5C 9 2.01868 6.98132 0 4.5 0ZM 4.5 8.05263C 2.54108 8.05263 0.947368 6.45892 0.947368 4.5C 0.947368 2.54108 2.54108 0.947368 4.5 0.947368C 6.45892 0.947368 8.05263 2.54108 8.05263 4.5C 8.05263 6.45892 6.45892 8.05263 4.5 8.05263Z" fill="#DDDDDD"/>
</g>
<g id="Vector_2">
<path d="M 3.18756 2.77089L 1.43027 2.77089C 1.36641 2.66684 1.27862 2.57904 1.17457 2.51519L 1.17457 0.402632C 1.17457 0.180261 0.99431 -1.44557e-09 0.771939 -1.44557e-09C 0.549568 -1.44557e-09 0.369308 0.180261 0.369308 0.402632L 0.369308 2.51519C 0.147979 2.65107 -5.49316e-08 2.89532 -5.49316e-08 3.17352C -5.49316e-08 3.59917 0.34631 3.94546 0.771939 3.94546C 1.05013 3.94546 1.29439 3.79748 1.43027 3.57615L 3.18756 3.57615C 3.40993 3.57615 3.5902 3.39589 3.5902 3.17352C 3.5902 2.95115 3.40993 2.77089 3.18756 2.77089Z" transform="translate(3.72852 1.59009)" fill="#DDDDDD"/>
</g>
</g>
</g>
</g>
</svg>

