<svg width="302" height="58" xmlns="http://www.w3.org/2000/svg" xmlns:xlink="http://www.w3.org/1999/xlink"><defs><path id="a" d="M0 0h302v58H0z"/></defs><g fill="none" fill-rule="evenodd"><mask id="b" fill="#fff"><use xlink:href="#a"/></mask><use fill="#B05E01" fill-rule="nonzero" xlink:href="#a"/><g opacity=".8" mask="url(#b)" fill-rule="nonzero"><path d="M1.942 50.854c5.798-1.697 2.333-1.768 1.555-5.233.637-.778 8.839 4.455 9.688 4.88 4.525 2.12 5.94 2.403 5.656-3.96 1.556 1.13-1.343 11.384 5.516 6.929 2.97-1.98-2.334-8.273 4.101-5.091 2.546 1.273 1.91 9.546 4.384 10.182h1.414c1.768-.353 3.253-1.838 5.162-1.485 1.132.283 2.263.849 3.182 1.485h23.335c.141-.283.212-.495.283-.707 1.909-4.455 2.828-6.788 2.757-11.102-.141 3.819 9.193 1.839 2.334-4.171-1.839-1.556-10.678-.495-8.486-5.233.99-2.121 7.354-.99 5.799-5.233-.142-.424-2.192-1.343-3.89-2.05 1.84-1.132 2.193 1.485 3.748-.92.778-1.202-2.05-1.767-2.05-2.05-.142-1.273-.212-4.455-.778-6.293-.354-1.344-2.9-2.05-2.404-3.677 1.202-4.03 5.162.212 2.404-6.081 1.909 2.474 4.384-1.415 4.95-3.677-.425 5.798 7 .353 4.737.212 5.516-1.132-.778-3.465-1.06-4.03-.354-.779.282-3.82-.283-4.243-.354-.354-.99-.566-1.697-.566.141 0 .212-.07.353-.07-3.04.07-6.08.14-9.121.353C42.176-.13 20.538 1.144-.675-2.533c.849 3.677.92 7.708-.353 10.677 0 .142-1.132 2.829-1.485 4.172-.071 1.91-.212 3.89-.212 5.87V32.61c2.262.425.353 4.03 1.555 5.374-.283-.565-.919-.919-1.555-1.272a725.495 725.495 0 0 1-.425 17.536c.425.141.92.212 1.627.353 4.95.849 4.03.495 3.465-3.747zm59.82-21.213c.354-.495.99-.283 1.627.07-.566-.141-.92-.212-.99-.141-.424.283-.636.919-.636 1.626-.071-.778-.142-1.414 0-1.555zM111.26 10.407c-.07-2.758-4.384-13.293-7.354-5.94.495-2.05-1.697-5.515-3.252-4.95.424-.706.495-1.06.353-1.343l-16.051.212c-2.9 2.051 1.838 8.769 3.889 9.405-5.374.424-3.748 3.04-4.95 7.92-5.94-5.092-4.95 8.626-3.252 11.03 2.404 3.394 5.02.92 7.707 1.061 2.9.07 2.828 2.121 6.435-.778-2.122 3.677 1.485 4.314 4.384 3.394-2.334.92 4.525 5.94 4.737 6.01 7.778.566 3.04-6.717 3.182-6.858.142-.142 2.617 1.485 2.758.495.424-3.112.92-1.768.141-5.374-.919-4.03-1.98-6.081-6.646-4.667 5.727-1.91 8.131-2.9 7.92-9.617z" fill="#4C4C4C"/><path d="M-.038 39.257c.565-.283-.283-6.647-1.202-7.424-.495-.354-.99-.566-1.273-.708v2.263c0 1.556 0 3.111-.071 4.738 1.344.495 2.616 1.06 2.546 1.131zM68.834 58.632c.566-3.253-2.9-1.06-5.586-1.202.283.424.424.848.424 1.131 1.697 0 3.465.07 5.162.07zM3.497 59.905c.142 0 .212-.071.354-.071.636-1.06 0-1.839.778-3.182.495.778.636 1.768.707 2.687 1.838-.566 3.747-.778 5.656-.707 11.031 0 22.062 0 33.022.07-1.414-1.272-2.474-2.616-2.828-3.11-.92 2.333-2.334-.778-3.182-1.486-.707 2.687-2.616 2.9-5.02 3.607-.778-1.202-.425-2.122.848-2.829-.354-.919-.848-1.555-1.697-1.98.283.707-3.536-4.667-2.475-3.889-1.697-1.414-2.758-3.606-5.232-1.555-2.546 2.12.212 3.889.07 4.03-4.667 5.374-3.04-2.475-3.747-4.03-2.97-6.223-2.475.919-3.536 3.96-2.616-.354-3.536-1.273-2.687-2.829-5.162 1.485-8.485-6.647-13.364-3.89 1.131 1.274 2.192 2.476 3.323 3.749-3.111 3.535-2.263-1.698-3.535 2.687.141-.283.424 1.272.565 2.97-1.697-1.698-2.757-2.334-4.101.424-.212-.212-.354-.354-.495-.637l-.212 6.152c2.263-.283 4.455-.353 6.788-.141zm9.688-4.455c.282.707-.213 1.485-.425 2.263-1.06-2.475-2.404-4.526-3.535-5.092 2.687-1.838 3.252 1.273 3.96 2.829zm-11.526.212c0 1.697-.495 2.9-2.05 1.485.777-.212 1.484-.778 2.05-1.485z" fill="#3F3F3F"/><path d="M140.18-2.533c-.777.07-1.555 0-2.333.07-14.071.496-28.142.567-42.143.708-.142.283-.283.566-.283.99 1.768 1.202 3.394-1.839 5.374-.142-1.06.071-1.626.637-1.697 1.698 1.06.636 1.98.424 2.758-.778-.212 1.06.99 5.94 2.262 6.505 1.698.849 3.324-7.283 6.718.495.707 1.697-1.202 13.364-2.687 12.728 1.131.424 4.101-1.556 5.374-1.838 2.616-.495 4.879.353 7.637-.566 3.182-1.06 8.414-5.586 1.626-7 10.112 2.474-.707-10.324 5.798-12.163 2.405-.707 6.364 4.95 7.566 5.162 4.03.637 6.506-2.828 5.587-5.727a6.94 6.94 0 0 0-1.556-.142z" fill="#595959"/><path d="M172-1.543c-9.757.142-19.586.07-29.344-.778-.142 2.122 1.202 4.455 2.121 5.799-.424.707-2.333.212-1.838 1.555-.99-2.404-4.172-.636-4.95.424-1.06 1.485-1.06 7.142 1.768 4.88-2.192 4.596-6.223 4.95-9.193 2.404-1.06-.92-3.747-9.83-3.606-9.83-1.202-.07-.636 7.567-.707 8.062-.92 2.758-3.394 3.111-4.313 5.02-.354.778-2.334.637-2.122 1.839 1.414 2.545 7.283-2.475 8.698-2.334-.637-.07 4.667 3.96 5.374 3.819-.637.495-4.597 2.192-5.233 3.394-2.05 4.172 1.91 3.889 3.606 6.152.283.424 1.132 3.535 1.415 3.96.848 1.98 1.343 2.757 1.555 3.11-.141 0-.212.354-.141 1.698 0 1.273-3.253 7.637.636 8.98-.212-.07 4.95-3.394 5.162-3.606.92-1.06-.566-3.536 1.06-4.314 1.203-.636 3.89 2.758 5.87 2.475 1.909-.353 4.313-9.121 8.131-4.454-.495-.637 1.344 11.384 3.182 2.192-.282 1.555-.282 2.828 1.839 1.414-5.728 11.384 8.839 5.02 5.869-3.04-.424-1.274-2.121-3.253-3.748-5.021.92-.354.849-1.273.495-2.334 3.748 6.294 3.606-3.464 2.758-5.727-.566-1.697-1.91-2.334-2.475-4.172-.424-1.273.354-3.182-.212-4.88 4.737.496 2.828 1.415 5.162-2.757.919-1.626 1.626-4.172 2.616-6.01.849-1.556 4.95-2.546 2.333-4.738 2.263-.424 2.475-1.626 1.839-3.111-1.485-.07-2.546-.142-3.606-.07zm-12.586 29.981c-.565-.707-2.263-1.13-2.545-1.697-.849-1.272-.425-3.96-1.061-4.596.848.707 2.687 1.839 3.606.495-1.485 2.758-.141 3.536.849 5.94.07.212.141.566.141.99-.353-.354-.707-.849-.99-1.132z" fill="#676767"/><path d="M304.3-2.038c-.141-.283-.141-.566-.141-.848L292.35-3.1c-3.747.213-7.566.354-11.313.566-1.768.07-3.607.212-5.445.212.141 0 .353.071.495.071 2.899.07 5.445-.495 8.697-.212 3.253.283 6.435-.212 9.405 1.202 3.96 1.838 3.535 5.091 5.727 7.566.637.636 2.829 2.404 4.95 3.96-.283-4.243-.495-8.273-.566-12.304zM254.45-2.109c1.272 3.253-.778 1.91-2.546 2.405.565-.142-1.202.353-2.192.777 0-1.555-.707-2.828-2.546-2.545-3.04.495-1.414 4.525-1.273 6.788.142 2.121-.919 13.789.99 15.132 2.334 1.768 1.485-2.05 2.829-2.687.353-.212 4.172-1.768 4.384-1.98 3.323-3.04.919-4.879-1.273-9.616 3.111-1.556 7.071.141 9.758-3.395 1.626-2.05.849-3.535 1.697-4.808-3.253 0-6.576-.07-9.829-.07z" fill="#898989"/><path d="M304.3-2.038c-.141-.283-.141-.566-.141-.848h-1.839c.495 1.343 1.273 2.545 2.122 3.11-.07-.777-.142-1.555-.142-2.262z" fill="#919191"/><path d="M41.469-.27c-5.798.141-11.597.141-17.395 0 1.91.636 4.738 1.485 6.223 2.97-.92-.212-1.698-.425-2.546-.566.283.99.212 1.91-.283 2.828-.848 0-1.556-.282-2.192-.919-1.273 3.677-2.828 3.96-1.556 6.788 1.344 3.041 6.364 2.122 6.789 2.97.707 1.415-2.97 2.546.282 3.536 1.061.353 6.435.07 7.284-.637 2.192-1.767.636.071.565-2.687-.07-3.182-2.545-4.95-2.828-7.636 1.343-.212 7.849 2.192 7.92.707.07-1.344-1.91-.637-2.051-1.768-.141-.99 2.828-.283 2.263-1.98 0-.424-1.91-2.333-2.475-3.606zM127.453 29.146c1.91-1.91-2.9-2.758-4.313-2.9.848-2.97 5.374-3.394 2.262-7.07-.565-.566-8.414-2.9-8.273-.778.212.212.424.424.707.565-2.616-.212-3.606 1.202-3.323 4.03-.424-2.403-2.829 3.536-2.546 5.94-.212-1.767.92-7.566-2.616-7.283-1.556.142.92 6.576 1.202 6.152-1.273 2.404-4.95.141-4.313 3.182 3.606-1.91 1.697 4.243-2.05 4.596 1.767-2.758-2.97-3.394-4.526-4.242.636-.637 1.343-1.061 2.262-1.132-1.909-.212-4.808-.141-6.364-.848-1.414-.566 1.768-1.627 1.061-2.758-1.202-.495-2.545-.707-3.818-.424 1.273 2.121.636 2.757-1.91 1.909 2.334-5.162-2.474-.354-3.181-.495-1.697-.142-3.536-.142-5.657-.566.707-1.838-.707-7.92-1.697-8.344-.142.142 3.889-6.717 2.475-1.202 4.171.495 2.192-5.869 3.464-7.283 1.98-2.263 2.334-.636 5.728-1.485-.141-2.687-10.465-6.364-4.384-10.465-2.687 0-5.374.141-8.061.141.212 1.344-.637 2.617-2.334 2.9-1.202.212-3.11-1.415-5.232-2.687-2.192.07-4.384.14-6.576.212-.283.282-.425.565-.637.919 2.334 1.343 6.223-1.414 8.91 0-.778 5.727-.212 3.606 2.97 5.374-.142 1.414-.99 1.98-2.546 1.556.283.707.707 1.272 1.414 1.697-4.384 3.252-2.404-3.96-5.162-4.03 0 .14-1.697 5.09-.919 6.01-1.202-.213-3.111-.849-3.747-1.203.212 1.202.212 5.304.141 5.657-.141.566-2.404.707-2.758 2.617-.283 1.414 1.98 4.1 2.05 4.879.142.848-.423 3.677-.211 4.313.919 2.475.848.424 3.182 2.475-2.758 1.06-6.86-2.758-7.99 1.485 2.12.848 1.626 1.343 1.767 3.747 2.05-1.202.142-2.828 1.132-4.1.141.423 2.333 3.181 1.484 2.757 1.98.848 1.768-1.06 3.819.283-.283-.142 1.414 2.404 1.909 2.757 5.162 3.607 8.061 0 13.152 1.132 1.06.92 2.122 1.697 3.324 2.192l2.757-1.06c1.627.07 2.97.848 4.597.636.495-.637.848-1.273 1.202-1.91.919-1.626 2.12-1.414 3.535.708 2.192.353 3.182.919 5.091 1.98 3.748 2.191 5.091 3.818 8.132 6.293 3.606 2.899 5.233 4.95 9.9 3.11 4.737-1.908 2.545-2.969 5.515-6.929 1.273-1.697 2.333.071 3.677-1.131.283-.99.424-1.98.495-3.04.848-.425 1.768-.637 2.758-.354.99-2.687.636-2.192.07-5.303-2.616-2.9-2.475-4.597-7-3.182z" fill="#595959"/><path d="M69.753 10.62c.07-.071.212-.071.283-.142.141.141 0 .141-.283.141zM83.612 36.5c-2.404-1.273-6.93-2.829-7.566.919-1.555-.566-5.232-.99-4.879-3.324-1.485 1.627-2.616 1.344-3.111-.848-.07.07-5.515 4.242-4.667 4.667-.99 0-.778.353-.778 1.06-.141 3.536 3.394 1.273 4.314 1.627-.283-.142 5.586 3.04 5.798 2.545-.07-.778-.354-1.626-.566-2.404.424 1.131.566 5.233 1.768 5.87 1.768.211 1.273-2.83 3.536-2.688 1.626.07 4.242 2.404 5.656 1.414-.495 2.192 1.415 7.778 4.314 4.455 2.05-2.475-.849-2.121-1.132-4.384-.212-2.333 1.839-2.121.212-4.738-.565-.848-7.424-4.313-6.576-1.06-.707-1.98-2.616-.778-3.606-.637 1.839-.141 7.637 0 7.283-2.475" fill="#595959"/><path d="M73.784 46.328c-.142-1.131-.566-8.202-2.687-7.354-.425.142.07 3.465-.92 4.597.212 2.333 1.768 1.767 2.829 3.676 1.626 3.041-4.526-1.272-5.162-1.909 2.05 6.152-2.616 6.435-2.192 12.233 2.05-.919 3.323 1.627 4.95.707 2.404-1.272.424-1.272 1.131-2.687-.212.495-.495-4.313-.424-4.525.283-.849 6.647-2.687 2.475-4.738zM98.25 10.407c-1.485-1.06-4.243-1.697-5.092.849.495-.212.99-.566 1.415-.707 0 2.12-1.91 2.616-3.536 3.252 1.768 6.01 5.94.99 8.556 4.88-.07-.354-1.839-8.627-1.344-8.274z" fill="#595959"/><path d="M108.997 22.145c4.243 1.556.425 7.778 3.253 9.051 0-1.555-1.06-8.132 1.485-8.132-.141 6.93 1.344-1.626 1.344-1.626 1.555-1.697 4.808-.99 6.151-2.475-1.13 0-2.192-.353-3.182-.778 1.415.283 2.405-.141 2.617-1.343-2.687.566-5.02-.07-7.566.353.07 4.172.99 3.253-2.97 3.677 1.697-.141-7.283-1.909-4.95-.848 1.697.283 2.97.141 3.818 2.121" fill="#626262"/><path d="M63.743 36.287c-1.273.99-1.485 1.91-2.263.707-3.253 3.96 7.425 5.587 9.546 5.587-.424-1.132-2.192-3.748-2.9-4.738-3.252 3.818-4.949 2.546-4.383-1.556z" fill="#595959"/><path d="M73.43-1.401c2.9 6.01 6.505 2.687 6.364-.142-2.121 0-4.243.142-6.364.142z" fill="#909090"/><path d="M93.724 7.579c2.333 4.03 6.01-2.334 5.02-3.04-2.404 2.828-1.909 2.474-5.02 3.04zM58.651 6.165c-.99-1.132-.07-2.051 0-3.253-3.181.07-2.474 2.475 0 3.253zM102.068 3.195c-2.475-2.758-1.627 2.475-1.485 2.192.141 0 3.465-.071 1.485-2.192zM101.36 19.6c.142 1.98 2.9.777 3.748.495.142-1.556-1.131-1.697-3.747-.495zM45.358 6.306c.92-1.202 2.263-1.131 3.465-1.91-3.04-1.06-4.384-1.555-3.465 1.91zM23.791 1.568c-.212-.07-3.889 3.748-1.768 5.445-.707.849 3.89-4.879 1.768-5.445z" fill="#595959"/><path d="M42.53 28.368c-.99-.283-1.344.07-1.132.99.92.353 1.273 0 1.131-.99" fill="#D8D8D8"/><path d="M86.582 58.561c2.687 0 5.374 0 7.99.07.071-.494-.282-.848-1.343-.777 1.344-.353 1.06-.92.07-2.758-1.343-2.616-3.747-1.343-4.595-2.192.99.99 5.727-8.131 5.374-10.465 3.464.354 9.05 3.536 10.535 4.03 3.041 1.061 5.445 3.465 8.556 5.304 1.061.636 8.415 4.879 7.99 2.9.779 1.201 2.193 2.757 3.748 4.312 4.95 0 9.97.071 14.991 0 .07-.07.07-.212-.07-.07 3.535-1.697 7.212-3.112 9.899-5.374.778-.637-.212-3.607.848-3.819 1.556-.283 3.394 2.546 3.465 3.607.354 3.182-4.101 3.394-2.687 5.798h12.021c.212-.637.566-1.273.99-1.98 1.131-1.697 2.192-2.475 3.04-3.748 2.263-3.111 2.405-2.545.849-5.94-3.606-7.424-4.879-.212-7.425 3.607-1.414-2.546 2.263-9.475.071-11.102.354.354-.141.566-1.556.425 0-1.132.354-2.193 1.132-3.112-2.192-.07-2.121 4.667-4.243 3.677 2.192-8.556-7-7.849-9.404-2.192 1.485.07 1.909.637 1.343 1.627-3.323 2.616-4.101-4.95-8.414-.778.495 1.06.424 2.121.141 3.252-.353.778-.848.849-1.556.283.849-1.273-2.687 2.687-2.899 2.9-.778-3.041-.07-5.587 0-7.072.071-.636 1.98 0 1.697-1.697-.283-2.121-1.626-3.04-3.182-4.313.283 5.374-5.02 3.323-4.172 7.707-.848 0-1.414-.424-1.909-1.06-2.475 2.05-2.192 6.01-4.313 8.273.212-.212-5.233 1.838-4.455 1.909-3.535-.283-8.839-4.313-7.637-7.637-.848-1.272-2.97.99-4.172.354 0 0-1.414-2.546-1.767-2.758-2.9-2.192-6.647-3.394-9.83-5.586-3.888 3.89-1.201 3.323-6.434 3.606-3.535.142-10.536-1.909-13.223 1.344-.07-.071 4.667 3.818 5.304 2.616.212-.495-.707-1.697-.92-2.05.495.07 5.728 2.191 5.87 2.616.777 1.626-4.385 5.232.565 6.505-.848 5.374-4.172-3.606-4.03-5.02-1.698 2.828-5.374-2.122-8.556 1.06-1.627 1.627.141 3.96-.778 5.586-.778 1.485-2.617.071-3.324 1.768-.495 1.202 1.697 6.223 1.344 6.435-1.06.778-1.556-1.131-2.758-.637-.707 0-1.343.354-1.768 1.061 6.647-.424 13.153-.424 19.587-.495zM76.4 57.713c-.212.07-.354.212-.495.353.07-.353.283-.565.495-.353z" fill="#626262"/><path d="M3.497 59.905c.707-.283 1.485-.495 2.263-.707.07-1.768.353-3.324.566-4.243-3.041.92-3.253 2.687-2.829 4.95zM11.7 58.49h2.828c-.566-.282-.92-.495-.99-.707-.99-2.262 2.334-3.464-1.131-5.94-1.202-.919-5.94-1.555-5.374 1.415 1.414.283 3.252 2.545 4.667 5.232z" fill="#606060"/><path d="M74.561 58.561h2.829c.141-.424.212-.92 0-1.131-.92-1.627-2.616-1.768-3.89-.07.708.423.99.848 1.061 1.201z" fill="#6B6B6B"/><path d="M2.224 54.814c-1.272.848-2.828 1.272-4.384 1.272-.212 1.485 2.263 2.97 2.9 3.607 1.13-1.273 1.626-3.182 1.484-4.88" fill="#4C4C4C"/><path d="M27.468 48.237c-3.394-3.11-.566 5.657 0 0" fill="#B5B5B5"/><path d="M239.6 38.338c-4.172-4.172-4.313-2.758-9.334-5.374 4.102-.424 3.253-3.253.99-4.95-.919-.636-4.101-1.131-5.162-1.768-.919-.495-.212-2.333-1.202-3.04-1.06-.778-7.354-4.243-8.697-4.314-1.06-.07-5.586 2.475-5.87 2.9-1.201 1.767.496 2.899.213 3.889-1.06 3.04-.495 4.172-4.101.707-2.758-2.616-3.182-8.132-6.506-10.324-3.747-2.475-4.313 1.202-8.556.212-.212-.07-6.293-6.717-8.202-6.647 2.263-3.252-1.697-6.364-3.606-7.707 1.768-.778 1.555-2.121.848-3.677-2.475.07-4.95.141-7.354.141.425 1.697-1.626.778-1.767 3.607.424.424.99.707 1.626.777-.424 1.132-7 9.97-7.778 10.324.707.283 1.273.566 1.98.849.212 4.03-5.87-2.9-6.223.848-.141 1.414 2.475 1.06 2.05 2.9-.706 3.252.566 3.535 1.98 7.212.496 1.343 2.617 8.839-1.272 4.95-.07-1.627 4.384-.566-1.839-1.415 1.627 2.051 1.344 3.182-.919 3.324.707-1.414-.99-6.364-.99-6.364-1.273-2.404 1.06-2.9-2.263-2.687-2.192.07-4.1 1.697-2.757 4.172.848 1.697 3.747.778 4.808 1.98-2.192 3.889 4.384 7.07 6.859 9.97-1.556 1.273-2.758 8.273-6.293 8.273-.495.636-1.414 6.505.495 6.01 4.172-.919-1.344-10.677 6.505-7.353.424.141 0 2.12 1.839 2.687 2.616.919-.213.636 3.04-.071 4.243-.849 9.97-7.283 14-6.788 2.122.282 3.112 4.667 6.577 2.474 2.546-1.555 2.475-4.879.283-6.505 3.252 1.697 6.364-4.101 2.616-4.879 2.687.141 2.475-2.616 5.94-1.838.707.141 1.555 1.838 2.757 2.192 1.627.495 3.465-.213 4.738.07-.636.071-1.202.354-1.768.637-.141 1.98 6.223 1.98 7.425 2.333 1.414 1.414-2.263 1.839 1.343 2.758 1.698.424 3.182-2.9 4.95-2.97 1.91-.07 9.334 8.768 12.233 3.182 1.485 1.768 12.092 10.394 13.86 7.637 1.414-1.98-6.365-7.354-7.496-8.344z" fill="#747474"/><path d="M143.363 1.215c.07-1.202 2.05-.495 1.98-1.98 0-.142-.212-.636-.424-1.414-1.556-.142-3.041-.212-4.526-.425.354 1.627.778 3.182-.92 4.455-4.03 3.04-2.616-1.909-4.666-2.687-.92-.353-4.384.283-5.233-1.414-1.06.07-2.05.07-3.182.07-.141.284-.283.708-.495 1.203-1.838 3.818-.707 1.414.425 6.222.212-2.05 6.293 3.89 8.06 3.96-1.98.849-5.444-1.202-5.798 3.394.071-.495 3.819 3.677 2.9 3.324 3.252 1.131 12.727-3.677 9.545-7.566-1.272.848-2.687 2.262-3.323.212 1.626-.778.707-4.95 3.394-3.253 1.273.849 1.273.424 1.132 2.546 1.98-1.839 1.697-2.546 4.525-3.394-.141-2.263-1.344-3.324-3.394-3.253zM125.19 14.155c1.06-1.202 1.556-2.546 1.344-4.172-1.98 1.273-3.253-1.273-5.304-1.202.495 1.626-.848 1.414 0 2.828.99 1.697 3.536-1.273 3.96 2.546" fill="#626262"/><path d="M108.715 19.175c.07 2.9 4.667 4.384 5.374 1.132.919-3.748-3.536-4.667-5.374-1.132" fill="#A8A8A8"/><path d="M126.604 10.054c-.07-.778-.141-1.697-.282-2.546-.778.92-.707 1.697.282 2.546M120.806 16.7c.707-.424 1.414-.707 2.05-1.202-.918-.07-1.626.213-2.05 1.202M125.402 19.882c.92 3.324-2.828 3.819-3.606 7.425.566 0 5.091 0 5.091 1.273-.636.212-1.343.353-1.98.566 2.192 1.484 4.88 1.06 6.93-.142-.212.495-.354.92-.636 1.344 1.485 1.202 2.404.848 2.899-.92-3.04-1.485-4.172-2.757-6.01-5.02-.354-.495-.778-6.01-2.688-4.526" fill="#626262"/><path d="M128.584 12.6c1.91-.637 3.253-1.98 4.667-2.97.99-.708 3.394 2.686 3.253-.85 0 0-8.91-4.525-9.334-4.383.707 2.97.637 5.586 1.414 8.202" fill="#595959"/><path d="M139.05 20.519c-.778-.212-1.415 0-1.768.636.919 1.768 2.333 3.04 4.242 3.677.071-.92-.141-1.838-.353-2.758 9.404 1.344-6.576-10.253-2.121-1.555m-10.89 2.97c-.283 0 4.88-2.475 4.667-2.263 1.06-.778 4.738-2.192 1.343-3.606-2.192-.92-9.121 3.182-6.01 5.869M157.717 3.83c-4.525-1.697-1.98-.424-5.727-.212.282 1.414 11.384 8.415 5.727.212" fill="#626262"/><path d="M153.687 10.831c-.92.354-1.627.637-2.546.99 4.667 2.97 7.354-4.525 3.111-4.525-1.343.07-.777 3.182-.565 3.535" fill="#747474"/><path d="M151.848 18.185c-1.343 1.768-.707 2.405 1.91 1.91-.142-8.627-6.435-.92-1.91-1.91" fill="#626262"/><path d="M127.877 20.943c1.627-1.626 3.819-4.101 1.06-5.727-5.161-2.9-5.727 5.586-1.696 4.666.92-1.06-.99-2.262.424-2.97.142.425-.778 5.162.212 4.031" fill="#A6A6A6"/><path d="M150.858 30.348c.566-.283 4.88 2.333 4.314-.637-.495-2.475-6.718-3.04-4.314.637" fill="#626262"/><path d="M163.091 2.275c2.334 3.465 4.101-.14 3.677-2.545-1.202.778-2.404 1.697-3.677 2.545" fill="#747474"/><path d="M127.877 20.943c-.636-.636-.778-1.06-.424-1.414-2.121-.142-2.828-1.131-2.546-3.394-3.677 2.828-.353 1.343.425 3.677.212.495 2.475 4.596 2.687 4.525.141-1.131.07-2.192-.142-3.394z" fill="#828282"/><path d="M127.524 10.549c1.06-.637 2.05-1.344 2.475-2.9-1.203.92-2.051.495-2.546-1.272 0 1.414.07 2.757.07 4.172m17.042 3.747c-.566-3.394-5.091-.424 0 0M125.19 19.67c-1.131-1.697-1.555-2.121-3.677-1.838.99 1.131 2.192 1.768 3.677 1.838M155.808 22.852c.212.92.07-3.747-1.06-2.05-.496 1.06-.071 1.767 1.06 2.05" fill="#626262"/><path d="M157.364 20.731c.707-.566.141-2.263-.99-1.98-1.202.495.848 1.98.99 1.98" fill="#747474"/><path d="M130.07 17.62l-1.698 2.97c1.768-.637 2.475-1.91 1.697-2.97z" fill="#828282"/><path d="M143.646 11.256c.212 1.343-.425-2.687-1.06-1.344-.637 1.202-.284 1.556 1.06 1.344zm2.404 10.748c-1.344.353-.92 1.768-1.485 2.475.99-.425 1.131-.707 1.485-2.475zm14.778 17.748c.778-.212 1.91-2.05.637-1.768-.637.495-.778 1.061-.637 1.768z" fill="#626262"/><path d="M150.434 10.831c.92.071 1.343-.353 1.202-1.202-.92-.212-1.343.213-1.202 1.202" fill="#747474"/><path d="M159.91 28.792c-.779-1.485-2.264 0-1.84.849.779-.071 1.344-.354 1.84-.849M149.444 1.356l1.273.283c.141-.707-.212-.778-1.273-.283m-18.031 20.436c-.778.353-1.06.919-.849 1.697.849-.283 1.132-.849.849-1.697m27.86.848c.848.283 1.273.142 1.485-.636-.92-.637-1.344-.495-1.485.636m.848 12.021c-.353-.354-.565-.707-.848-1.131-.495 1.06-.283 1.414.848 1.131" fill="#626262"/><path d="M307.2 35.65c-.071-1.343-.142-2.545-.283-3.817-.495-5.728-1.132-11.456-1.627-17.183-2.899-.92-5.09-1.839-8.344-5.374-.777-.778-3.676-5.091-4.242-5.233-2.121-.848-4.243.849-5.87.495-2.333-.495-4.878-5.586-8.484-1.697-.071-2.475-1.768-4.172-3.89-5.162l-8.697.212c-1.626 1.485-1.91 4.03-3.535 5.799-.92 1.06-3.465 2.333-3.96 2.97-1.132 1.414-1.273.99-1.91 2.474.354-.919.354 6.435 0 5.657 1.273 2.97 2.688 1.556 3.819 3.253-.283 2.404-5.94-.566-7.213.424-.141.142-.707 6.081-.141 6.788 2.263 3.112 3.323-.353 5.02-.07 1.91.212 3.96 1.555 5.728 2.192 4.313 1.343 6.223 2.545 9.051-.142.92-.919 4.101-6.364 2.687-7.778-2.475-2.475-4.667 2.97-7.849 1.06-3.465-1.908-3.253-7.919-6.647-10.747.212-.778 6.152-2.758 7.354-4.101.778-.778 2.404-5.374 3.819-4.102 1.272 1.273-.566 3.394 0 4.384.424.708 1.06 1.485 1.555 2.405 1.91 3.04 4.667 2.545 6.647 4.666-5.445-2.192-8.344 5.092-2.121 7.072-3.253 3.96-2.05.07-1.414 6.364.07.494 2.192 1.343 1.98 1.98-.566 1.555-4.526.565-4.243 2.545 0-.141 6.717 4.738 7 4.738 4.03.212 2.758.353 2.687-3.112 1.132-1.131 3.536 1.556 4.313.212 1.768-3.323.354-3.323-1.414-4.808-.707-.707-2.475 1.344-3.818-.141-.849-.99.92-1.768.424-2.829 1.414 1.415 1.414-1.414 3.182-.212s.92 2.616 2.121 4.243c2.475 3.323.708 2.404 4.95 3.253 2.05.353 6.223-2.546 6.293 1.909-2.899 2.333-2.404 2.121.99 5.94 1.344 1.484 3.041 2.191 4.102 3.96.636.918-.99 2.828-.213 3.464.849.707 1.485 1.202 1.98 1.414.142-4.525.142-8.91.213-13.364z" fill="#7A7A7A"/><path d="M255.864-2.109c-3.819 0-7.637-.141-11.526-.353-12.304-.566-24.749-1.98-37.053-1.556-2.545.142-5.02.354-7.495.707 0 .283.07.637.07 1.061.566 4.667 3.041 4.596 6.223 6.93.495.353 2.404 2.545 3.465 2.899 1.131.424 2.334-1.627 3.748-1.202 1.697.424 3.96 4.95 7 3.747-1.98.99-4.95-1.555-4.172 3.89.566 4.525 7.495 1.697 7.071-.283.778 1.485 2.97 2.262 4.172 1.767-.424 1.556.92 1.485 1.485 1.061-4.172 2.475 3.182 6.576 4.88 7.142 1.272.424 1.625 3.04 3.464 1.909 1.06-.636 1.768-2.192.778-3.182 2.757 1.626 6.293-7.566 6.505-8.627.778 1.202-.424 5.374 1.414 5.799 1.627.07.92-17.607.778-20.012 2.9-.495 2.334 1.485.707 2.546 1.627.778 2.758.212 3.394-1.556 2.97 2.97 5.516 1.839 5.233-2.262-.141-.142-.141-.283-.141-.425z" fill="#999"/><path d="M262.51-2.109c-1.626 2.475-1.697 6.223-6.08 7.496-1.415.424-4.526-1.414-5.658.283-1.131 1.697 1.132.848 1.273 1.838.07.636 3.677 6.788 2.97 7.213-2.333 1.484-5.586-1.627-6.576 4.171-.283 1.698 2.05 7.142 4.172 5.162 1.131-1.838 1.838-5.232-1.344-5.162 2.051-2.616 4.384-1.414 5.728-4.737.707-1.98-1.06-5.162-.92-5.586.708-1.697 6.082-5.233 7.92-7.778.99-1.415 1.98-2.405 3.182-2.9-1.697 0-3.182.071-4.667 0zM304.725 7.72c-.212-.212-.495-.353-.637-.495-.778-.495-5.657-.565-2.475-4.03-2.192-1.202-3.818-3.253-6.01-4.455-3.253-1.839-4.101-1.414-7.354-1.697-2.404.141-4.879.212-7.283.353-2.97.142-6.01.213-8.98.354.777.212 1.697.566 2.616.92 4.03 1.484 4.313 1.201 8.627 1.413 1.131 0 2.474-1.343 3.535-.565.778.495-.212 3.747.07 3.889 1.84.99 2.759-.637 5.021.07 4.95 1.698 2.05 1.203 5.233 4.526.99.99 2.404 0 3.535.99 1.273.99 1.839 2.828 3.041 3.89.141.14.778.635 1.485 1.201-.07-2.05-.283-4.242-.424-6.364z" fill="#818181"/><path d="M251.126 21.72c-1.98.284-2.616-1.06-4.172-1.908-3.394 2.121 6.859 12.091 9.97 11.95-5.657.283-4.737 7.142-2.97 5.091-.777 2.192-6.505 4.95-6.364 6.364-1.98-9.9-10.606-11.88-19.586-10.253-.354 2.899 2.05.778 2.616 1.06 3.465 1.485 4.313 1.485 7.212 3.96 1.839 1.556 4.88 3.607 6.364 5.233.92 1.06 2.829 8.202 3.394 8.344-.848-.142 7.566-9.122 8.203-9.9 1.273-1.697 2.121-5.374 3.253-6.646.919-.92 5.94-3.253 6.01-3.465.636-2.617-3.96-.849-5.798-1.415-2.546-.848-2.617-1.909-4.384-3.818-.283-.283-4.95-4.808-3.748-4.596" fill="#8A8A8A"/><path d="M247.025 22.145c0-8.627-1.768 3.89-1.98 4.808-.495 1.91-4.172 2.334-2.616 4.88 1.202 2.05 3.747-.92 4.384-1.98 2.757 8.273-.566.99-2.334 2.616-2.121 1.98-2.263-1.98-1.202 2.758 1.556 1.131 2.687 2.545 3.465 4.313-.142 1.98.212 3.89.99 5.798 2.333-7 2.192-11.808 11.172-13.152-1.202-.636-2.545-.141-3.677-.566-1.555-.565-1.273-.99-2.687-1.98-2.687-2.12-4.525-4.242-5.515-7.495" fill="#DBDBDB"/><path d="M242.287 12.458c.92 3.747-4.172 9.121-4.313 7.99-2.829 1.414 1.131 3.96-3.04 3.04-2.476-.494-2.617-3.606-4.031-4.737l-1.415 1.414c-1.909-1.06 1.556-4.242.425-5.515-1.768 1.343-1.839 1.414-1.202-.92-.707 0-7.566-.919-7.284-1.484-.424.565.495.919.637 1.343-1.556 1.273-3.324 1.91-5.303 2.05-.566-2.97 3.677-3.393.777-5.02.495-1.626 4.384 1.273 3.324-1.767-1.556.565-4.384-.99-5.87-1.627-.211-1.768-1.201-2.616-3.04-2.616-.353.92-1.06 1.485-2.05 1.768-.566-.425-1.768-3.607-1.91-4.455-3.323 3.889-6.364-.283-7.212-3.818-.141-.566-.283-1.132-.354-1.627-3.677.424-7.283 1.06-10.96 1.202-.636.071-1.273 0-1.909.071.212.354.495.778.636 1.485.637 3.182 1.768 7.849 5.02 10.96 3.395 3.111 2.688.141 6.223 1.556 3.182 1.202 2.829 3.818 5.092 5.657 1.343 1.06 4.313.919 5.869 1.202.99.282.848 1.697 2.262 1.838 1.202.07 2.263-1.414 3.394-1.273 1.203.071 1.627.92 2.829.99.283 0 2.05-.212 3.535-.283-.565.425-.919 1.061-.424 2.122 1.132 2.545 8.203 2.262 9.829 3.465 1.556 1.272 1.556 1.272 2.475 2.474 2.404 2.97-3.677 3.395 1.626 4.597 5.162 1.06 3.536-2.687 4.101-4.102.566-1.414 5.657-3.11 6.01-5.869.142-3.677 1.698-11.172-3.747-10.111zM224.468 20.236l.07.07-.07-.07z" fill="#898989"/><path d="M219.023 19.317c-.283-4.809-3.747.495-6.293.495 0-.849-.141-1.697-.424-2.546-1.202-1.343-1.91-1.06-2.404.707-.99-.424-4.597-.919-5.445-1.626-.849-.707-5.162-10.395-8.768-4.526-.495-1.909-2.758-4.172-3.677-5.374-1.202-1.626-1.06-3.04-3.253-4.242 1.98-2.687-.283-3.253-1.06-4.314-2.829.142-5.516.283-8.344.283 0 .142.07.354 0 .566-.142 2.121 1.202 1.343-1.556 2.828 1.626 2.334 3.182 1.768 4.101 3.96.849 2.121-.353 5.586 1.839 6.506.848-3.536 6.222 4.666 7 5.161 6.152 3.182 6.93-5.374 11.95 3.465 2.616 4.596 7.071 15.132 9.405 4.596.495-2.05-1.839-2.687 1.909-4.171 3.535-1.556 8.485 4.384 10.748 2.404-.778-.92-1.414-1.839-2.192-2.758 1.06-.212 4.03.212 3.465-2.05-.849.565-6.294.777-7 .636z" fill="#828282"/><path d="M231.398 58.985c-1.485-.353-2.9-.495-3.96 0 1.273 0 2.616.071 3.96 0zM190.598 58.915h4.95c.706-.142 5.232-.142 5.515 0 5.586.07 11.172 0 16.758.07 2.829 0 5.657 0 8.556.071-.565-1.697-.565-3.111-1.909-4.596.849.848-6.152-2.475-4.95-2.121-1.767-.637-1.131-2.122-3.323-2.192-1.485-.071-3.465 4.03-5.445 3.889-3.818-.283-2.687-5.516-5.515-5.091-3.89.636-.99 3.818-.637 5.444-.495-1.626-2.687-1.131-3.889-1.909 2.617 1.202 2.829-2.263 1.697-3.677-3.747-4.738-6.293 1.344-7.566 3.465-1.131 1.838-3.96 3.677-2.475 6.152-.212-.071-.424-.142-.707-.142-.353.071-.707.283-1.06.637zM186.92 58.915c0-4.101-8.131-2.334-9.757 0 3.323-.071 6.505 0 9.758 0zM176.385 58.844c-1.98-3.677-5.516-10.89-7.99-7.425-.566.99-3.819 2.263-4.526 2.97-.707.849-1.131 2.546-1.626 4.455h14.142z" fill="#585858"/><path d="M69.046 10.054c.424.848.92 1.626 1.485 2.616.566-1.98.141-2.546-1.485-2.616z" fill="#4C4C4C"/><path d="M126.958 35.156c.07 1.343.495 1.626 1.556.707-.566-.283-1.061-.495-1.556-.707m-3.748-6.152c-.777-.495-1.485-.495-2.05.212.778.495 1.414.425 2.05-.212" fill="#626262"/><path d="M79.37 23.206c.707-.424.707-.99.212-1.627-.637.495-.707.99-.212 1.627" fill="#4C4C4C"/><path d="M126.604 31.691c1.061.354 1.415.142 1.061-.636-.707-.283-1.06-.071-1.06.636m-6.011.778c-.354.778-.07 1.202.92 1.202 0-1.131-.284-1.556-.92-1.202m-4.525 10.607h-1.98c.99.707.99.707 1.98 0" fill="#626262"/><path d="M83.754 30.135c0-.707-.283-.99-.99-.707-.142.707.212.92.99.707m-18.81-11.879c-.14-.424-.353-.778-.494-1.202-.495.636-.425 1.273.495 1.202M30.72 8.64c-.142-.424-.212-.919-.354-1.343.07.212-2.192 1.485.354 1.343" fill="#4C4C4C"/><path d="M63.53 37.914c-1.767 4.596 5.445-2.617 0 0" fill="#C9C9C9"/><path d="M74.703 50.5c.636-1.06.353-1.909-.707-2.545-1.485 1.767-3.182 2.616-4.596 4.596.636.212 4.666-1.273 5.303-2.05zM72.723 58.561c-.354-1.909-1.839-1.273-3.748-1.06.495.353.92.777 1.273.99a9.763 9.763 0 0 0 2.475.07z" fill="#595959"/><path d="M70.884 51.632c-.424.282-.919.636-1.343.919.141.424 1.98 2.121 2.404 1.131.07-.92-.212-1.626-1.06-2.05" fill="#6B6B6B"/><path d="M75.834-1.401c-.141.848-.141 1.697-.141 1.697s4.596.495 3.323-1.768c-.99 0-2.121 0-3.182.07z" fill="#E6E6E6"/><path d="M98.108 58.632c2.828 0 5.728.07 8.556.07-1.06-.919-2.546-1.838-2.475-2.899 0-1.13 2.546-1.697 1.839-2.97 1.838 1.556 2.97 3.819 4.454 5.87 4.809 0 9.617 0 14.496.07-.566-.848-1.131-1.555-1.91-2.192-.989-.707-2.12-.283-3.11-.99-.99-.707-2.334-2.475-3.677-3.11-1.98-.99-3.819-.85-5.445-1.769.283.142-.636-2.616-1.06-2.899-.566-.424-2.122 0-2.476-.353-2.05-1.485-6.717-4.88-5.444-.354.141.283-2.97-3.394-2.475-3.182-4.596-1.485-.707 2.263-2.546 2.828-3.323.92-4.03-1.484-5.374 1.415-.495 1.202.99 5.374 1.697 6.364 1.344 1.767 3.677 2.404 4.95 4.1zM149.656 58.844c.566-1.556-.141-2.263-1.838-3.111-2.687-1.414-5.02.636-6.718 3.04 2.829 0 5.657 0 8.556.071z" fill="#6F6F6F"/><path d="M168.394 51.42c1.698.565 4.385-1.98 5.304-1.486 1.768.92.848 4.667 1.768 5.445 2.404 2.122 8.343 2.122 10.323.142 3.96-3.96-1.767-7 2.192-8.415.071-.07 13.93 4.596 9.476-1.838 3.677 1.13 7.566 7.707 7-.213 3.394.99 1.556-1.414.778-2.333 1.485-1.06 2.475 1.626 3.323.92-.707.565 3.111-2.405 1.91-2.193-.779.07 2.828-.565 2.403-.424.566-.141 4.95-.424 4.88-.495 4.1.566 2.262 1.838 5.232 4.525.566.566 1.06 3.465 2.334 3.465 2.333.071 3.04-5.444 3.677-6.788.424.141 4.03 3.606 3.818.424.141 4.809 15.627 7.566 9.9 2.263-.566-.566-2.546.141-2.97-.283-.708-.565-1.344-2.616-1.556-2.828-.636-.495-5.02-4.172-5.516-4.243 0 4.95-7 .92-9.263-.07-.848-.425-1.06-2.758-1.909-2.758-2.333.07-3.747 2.899-5.869 3.747 2.192-6.293-3.606-2.192-7.142-4.172 1.202-.212 2.192-.636 3.041-1.484-.636-.92-3.182.212-4.03-.071-.708-.283-2.475.07-3.395-.283-.565-.283-.848-1.839-1.06-1.91-4.384-1.413-2.404-.99-5.728.354-.212.071-3.323.778-3.253.707-.848 1.415 3.465 2.192 2.758 3.748-.778.495-1.485.636-2.475.354.283.707.283 1.272 0 1.98-.99.282-2.97-2.405-3.606-1.061-1.06 2.05 7 5.02.283 7.354-1.556.565-3.04-3.04-4.243-3.253-7.354-1.414 7.213-1.273-2.545.707-.707.142-4.102 1.839-4.95 2.263-.99.566-10.536 4.738-10.96 5.445 1.273 1.131.495 1.485.07 2.757" fill="#696969"/><path d="M141.454 58.703c.848-1.273 1.838-2.405 3.182-2.758 2.828-.707 3.464 1.626 4.242 2.828 1.415 0 2.9.071 4.384 0-.565-.141-.99-.424-1.343-1.202 5.586-1.343 3.748-10.96-1.98-10.465-1.202.07-.141 5.374-2.9 6.293.213.495.425.849.637 1.344-2.475-.637-5.444.212-7.07 1.414 0 0-2.759 2.616-2.546 1.98-.142.283-.071.495 0 .566 1.06.07 2.192.07 3.394 0zM110.129 51.278c.141.707.212 1.343.353 2.05 1.132 0 2.122 0 3.182-.07 2.192 1.202 5.02 1.626 7.213 3.111.566.424 1.343 1.344 2.263 2.404h6.08c-3.676-.283-6.363-2.687-7.353-6.08-1.344.211-.778 2.191-2.334 2.05.637-2.334-9.475-7.92-11.808-7.425-.425-.424 3.182 4.738 2.404 3.96zM90.471 54.672c.425-.283.778-.495 1.132-.707.283 2.546 1.98 2.263 1.555 4.101l.212.637a22799473113563132 22799473113563132 0 0 0 4.597-1.768c-.92-.92-1.98-1.132-2.829-1.98-1.06-1.06-1.98-4.667-2.475-5.02-4.667-2.546-4.242 1.838-5.798 3.96 1.344-.213 2.546-.425 3.818-.566 0 .424-.07.919-.212 1.343zM91.39 48.945c.778-.354.99-.99.496-2.051 2.899 1.626 4.171.495 6.505 1.556.778-2.051-2.404-3.536 1.273-4.526-.566-3.535-8.061-4.243-9.334-.424 1.91.636 2.475-1.627 3.748.353-1.556 1.415-6.294 2.192-2.687 5.092M99.664 44.348c-.283 1.839 2.404 3.96 3.535 4.95.07-1.485-.212-2.758-.99-3.96 1.485-.212 3.536 1.98 5.233 2.263-.566-3.394-4.596-3.465-7.778-3.253" fill="#6B6B6B"/><path d="M80.643 54.884c-.425-1.273-.92-1.343-1.485-.353-.425 1.697 3.606 2.192 4.525 2.404.212-1.768-1.131-3.111-3.04-2.05" fill="#595959"/><path d="M92.168 58.632c.283-.142.707-.283 1.061-.637-1.414-.848-2.616-.777-3.606.213.141.141.424.282.636.353.637.07 1.202.07 1.91.07zM88.138 41.308c1.06.212 1.414-.283 1.06-1.344-.99-.424-1.272 0-1.06 1.344M74.703 50.5c-1.414.566-1.768.637-.212 1.768 0-.566.141-1.131.212-1.768M79.299 51.42c.707.14.99-.142.849-.85-.566-.282-.849 0-.849.85" fill="#6B6B6B"/><path d="M243.49 50.854c1.696 2.97 0 2.97 3.888 3.182 1.556.141 5.799-2.122 7-3.04 5.304-3.89 5.587-10.82 8.98-15.062 1.203-1.627 12.305-7.213 8.84-1.627-.92 1.485-9.475-1.697-5.091 6.223.212.495 4.171.495 4.313.636 1.98 2.263.424 4.667 1.838 6.506.637.778 4.526 3.535 5.445 3.889 5.374 2.121 3.04.07 8.061-.849 1.06.354 1.06 2.758 2.404 2.122-2.192 1.485-5.374 2.262-5.303 5.303 0 .283 0 .566.07.778 7.567-.071 15.133-.283 22.84-.212v-.142-.283c0-.565.071-1.202.071-1.767-.92-.071-1.768-.071-2.758-.071.566-1.132 1.627-1.91 2.758-2.475 0-1.98.07-3.89.07-5.869-.282-.141-.565-.424-.777-.778 2.899-5.445-6.293-7.283-7.213-12.02 1.91 1.06 3.607 1.343 2.405-1.698-1.91-5.02-5.233-2.121-8.274-2.616-3.535-.566-1.202.07-3.747-4.172-1.273-2.121-2.334-5.303-5.233-2.404-.07-.778 0-1.556-.07-2.334-2.475 1.203-3.324 5.728-.85 7.213 2.334 1.485 7.496-2.97 4.385 2.828-1.768-1.343-2.758-1.343-4.95-.707 1.06 1.202 1.344 2.475.92 3.89-.92.494-6.082-4.102-8.203-4.243 2.687-2.829 4.596.212 4.313-4.738.071 1.344-3.606-3.465-3.677-3.535.354-2.475 3.607.212 3.819-2.122.141-1.98-3.111-2.262-4.526-2.687l1.485-4.455c1.06-.353 2.05-.212 2.829.425.99-.707 1.414 2.404 2.333.07.636-1.767-6.293-5.02-7.425-6.576-2.333-3.323.99-7.92-4.313-7 .283 0-4.525 6.505-4.596 6.576-.778-.353-6.647 1.131-6.647 2.121-.07 1.202 3.253 2.97 3.89 4.03 1.13 1.84.706 4.244 1.696 5.8.566.99 3.89 3.605 4.95 3.535 1.131 0 4.243-4.526 5.233-2.687-.142.99-.849 1.555-1.98 1.697 1.343 2.616-.283 5.94-3.394 6.222-3.465.354-6.718-6.152-8.769-2.404-.707-.424-2.899-2.616-3.818-2.121-4.596 2.616 6.647 7.92 7.566 7.99-6.152 1.91-4.596 1.485-7.637 7.213-2.828 5.232-7.07 5.94-8.485 11.879-2.333-1.485-1.626-7.425-6.717-6.293 1.909 1.343.848 4.667 2.05 6.859z" fill="#727272"/><path d="M234.226 32.257c3.677-9.051-3.606-6.718-9.404-10.395-1.132 5.657 1.838 4.95 5.303 7.425-.142-.141 2.333.354 2.545.566-1.909-1.202.071 5.727 1.556 2.404" fill="#828282"/><path d="M158.424 24.337c-1.909-1.909-1.98 1.132-2.475 1.344-.848.707 5.445 1.626 2.475-1.344" fill="#B0B0B0"/><path d="M245.398 46.682l.283 1.98c.495-.637.637-2.05-.283-1.98" fill="#696969"/><path d="M110.553 18.61c-2.758 3.323 3.111 1.98 2.616 1.485-.636-.495-.636-3.748-2.616-1.485" fill="#EAEAEA"/><path d="M127.524 19.6c5.727-4.172-5.87-4.455 0 0" fill="#E7E7E7"/><path d="M165.707 1.64c-.848-.284-1.202.07-1.13.848.918.495 1.343.212 1.13-.849" fill="#C9C9C9"/><path d="M305.007 11.68c-1.697-1.838-4.666-5.94-7-3.89-.495-2.05-.707-4.666-2.828-5.656-1.415-.707-6.152 2.192-6.93.283-.424-.99 2.616-2.05 1.131-2.687-2.687-1.131-2.12-.849-5.444-.778-2.122 0-7.708-1.06-9.263-.353 1.909 2.192 1.485 4.454 3.535 5.232.92.354 4.243-1.273 5.87-.92.353.072.211 2.334.565 2.405.566.141 2.404.283 2.545.283 1.273.424 3.041-1.06 5.162.07 5.162 2.758 6.506 8.486 12.657 10.254.142 0 .213.07.425.141-.142-1.414-.283-2.97-.425-4.384zM264.632-2.109c-.425.283-.849.566-1.132.99-.99.99-.919 3.465-1.98 4.809-1.13 1.414-7.141 2.616-7.353 3.252-1.061 2.758 4.95 4.243 1.202 8.84-.425.423-8.556 3.181-5.445 5.02 1.131.707 1.768-1.485 2.687-.707.141.141.636 2.757.636 2.757.566-1.414 1.414-2.262.707-3.96 1.91.637 5.092 2.263 6.86.637 2.828-2.546-1.273-2.97-1.344-3.182-1.344.778-2.05.353-2.05-1.202.282-1.414.494-2.9.636-4.314.212-2.05-1.273-1.697-.495-3.606 1.131.142 2.192.07 3.252-.283l2.758-4.454c1.91-3.041-.212-2.192 2.758-4.03.424-.284 7-1.627 8.344 0-.213-.354-.425-.708-.637-.92-3.111.283-6.293.353-9.404.353zM260.743 30.913c.141-2.404-3.819-5.94-5.162-4.879-3.748 2.9 3.111 4.95 5.162 4.88" fill="#7F7F7F"/><path d="M290.3 9.276c.495-.212.99-.566 1.485-.778-1.061-1.768-1.768-1.91-3.89-1.626-1.98 3.96 4.172 5.727 6.364 4.95-.424-1.698-4.03-.496-3.96-2.546" fill="#727272"/><path d="M286.623 17.903c1.838 1.414 1.626-1.203 1.838-1.415.566-.565-4.525-.99-1.838 1.415" fill="#E0E0E0"/><path d="M277.289 17.761c3.748-.778.566-3.535 0 0" fill="#C9C9C9"/><path d="M252.964 25.398c.142.566.213 1.06.354 1.768 1.485-1.91.707-2.829-1.485-2.9l1.131 1.132M263.359 21.226c.07-.778-.142-.99-.707-.707-.142.707.07.92.707.707" fill="#7F7F7F"/><path d="M252.964 25.398c-1.202-1.202-1.06-2.192-1.838-3.677.141 1.697 0 2.97 1.838 3.677" fill="#898989"/><path d="M255.44 32.398c-6.577.212-7.637 6.081-7.567 11.667 2.475-4.596 7.354-2.687 7-9.404l-1.696 1.697c-.071-2.192.424-2.97 2.262-3.96" fill="#A4A4A4"/><path d="M247.025 22.145c.283 3.96 3.323 10.819 8.202 9.193-1.485-.071-6.647-7.637-8.202-9.193" fill="#B3B3B3"/><path d="M246.742 39.257c.07-2.758-4.101-9.192-7.495-6.222.212 1.909 6.93 6.08 7.495 6.222" fill="#AEAEAE"/><path d="M239.317 33.105c1.273 0 2.617-.07 3.89-.07.282-3.96-7.567-.071-7.567-.354.849.99 2.05 1.06 3.677.424" fill="#DBDBDB"/><path d="M236.065 33.105c-.142-1.697-3.182-1.06-3.819 0a8.697 8.697 0 0 0 3.819 0m2.545-1.131c6.081.283 7.637-3.96 7.566-9.263.07-.07-8.273 6.576-8.202 5.657-.07.778 3.747 2.333.636 3.606" fill="#AEAEAE"/><path d="M242.924 31.903c.565 2.263 3.747 4.596 6.08 2.546 3.465-2.9-1.272-4.243-1.909-6.435-1.343 1.627-2.333 3.182-4.171 3.89" fill="#FEFEFE"/><path d="M192.648-2.391c-.353.07-.778.07-1.131.141.212 1.202.424 2.546.778 3.748 1.343-1.91 2.333-3.324.353-3.89z" fill="#828282"/><path d="M213.366 7.862c-.777-1.061-1.626-1.202-2.687-.566.566 1.414 1.415 1.556 2.687.566" fill="#999"/><path d="M173.91 55.238c.353.495-.283 1.98.212 2.757.07.213.354.495.566.849h3.818c1.556-1.131 6.152-2.192 7.566.07 5.445.071 10.89 0 16.334.071-.919-4.03-8.839-.212-8.556-.07-2.687-1.132.849-4.95 1.061-5.586 0 0 2.121-4.526 2.475-4.597 3.606-1.343 7.212 4.384 1.909 2.051.495 2.192 6.223 7.354 7.213 4.667.494-1.202-6.223-4.101-1.061-5.87 1.202 11.385 8.132 1.344 12.091 2.193-.353-.07 4.384 3.677 4.102 3.394 2.05 1.91 2.757 1.485 3.394 3.818 10.606 0 21.142.071 31.749.071-1.414-.848-3.748-1.909-4.03-2.05-3.678-1.98-3.96-2.829-4.526.99-.354-2.758-4.526-2.829-5.728-5.021-.424-.848.99-3.818.212-5.162-.212-.353-5.94-4.101-6.646-4.525-1.627-.778-7.779-3.112-9.051-2.687.353.636-.495 6.717-1.556 6.788l-5.515-9.334c-1.98 0-2.617 2.192-4.809 2.263-1.131 0-3.535-1.98-3.747-1.91-2.687.99-2.97 7.779-7.99 4.88-.284 1.697.07 3.323.777 4.879-3.323 1.767-3.253-2.97-3.96-4.667-1.555 1.273-1.838 1.131-3.252-.283-2.758 3.323 1.697 4.95-4.597 4.172-2.262-.283-5.02-2.758-7-2.616-1.131 3.11 1.344 6.01-.212 8.556-1.91 3.04-.92 1.343-4.172 1.626-1.91.212-3.182.778-4.667-.424-3.889-2.9.566-9.617-7.354-3.112 1.768 1.91 3.394 1.697 4.95 3.819z" fill="#626262"/><path d="M112.957 58.632c-2.757-3.324-5.657-6.788-6.222-7.92-4.455 1.485-3.253 4.95-1.627 7.85 2.617.07 5.233.14 7.85.07z" fill="#7E7E7E"/><path d="M106.664 49.369c1.344-.07.212-1.344 0 0" fill="#6B6B6B"/><path d="M206.366 43.712c.566-.141 1.202-.354 1.839-.424.282-3.819-5.587-1.202-1.839.424m.707-6.788c.142.141 2.687.99 2.616-.212-.14-1.839-2.192-.213-2.616.212m-28.213 11.95c.99.707 2.121.707 3.11-.142-1.06-.495-2.05-.495-3.11.142M232.6 42.51c4.737-.07-3.394-3.536 0 0M197.952 34.166c2.192.636.99-.424 0 0M201.628 39.399c0 .424.071.919.071 1.485 0-.566-.07-1.061-.07-1.485" fill="#747474"/><path d="M179.991 44.49c-.07 1.485 1.344.353 0 0" fill="#626262"/><path d="M244.833 57.006c1.697-1.273 2.192.353 2.545 2.12h1.415c-.071-1.767-.071-3.605 1.343-3.464-1.131-.141 2.192 2.758 2.758 3.182.141.141.353.212.424.283 10.112.07 20.223 0 30.406-.142h1.13c-.706-4.384 8.203-4.1 5.658-8.91-.566-.14-1.485 1.486-1.768 1.769-.283-.142-.92-2.475-.636-2.617-.849.283-2.9 1.344-3.253 1.415-3.465.495-.495 2.899-4.95 1.13-.636-.211-2.263-2.827-2.758-3.322-.919-1.061-2.192.212-3.11-1.132-.708-1.131.848-2.263.282-3.111-2.97-4.95-2.546-2.829-6.788-4.384.848-2.121.141-3.677 1.343-4.88.425-.423 4.95 2.688 5.586-1.484.142-.99-2.899-3.748-4.525-3.818-4.172-.071-7.707 5.586-8.91 8.202-.424.99-.848 2.97-1.414 3.96-.424.707-2.121.848-2.263 1.273-1.626 3.323-.212 4.879-3.818 7.07-.07.071-6.222 2.829-5.94 2.829-4.454-.354-1.98-1.556-5.02-4.596.07 2.192-.636 3.182-1.626 5.162 1.909.495 3.182 1.626 3.889 3.465zM293.694 58.915c1.06-.071 2.121 0 3.182-.071.283-.283.424-.707.353-1.343-.141-.566-4.596-3.748-4.95-3.536-.07 1.202-.14 2.263-.282 3.818.495-.636.919-1.202 1.485-1.767.777.212.353 1.485.212 2.899z" fill="#696969"/><path d="M274.32 36.004c.918 2.9 1.696 1.698.706 5.233 7-.07.778-7.142-.707-5.233zM277.36 47.247c.848.142 3.182-.212 2.12-1.697-.211-.212-2.05 1.627-2.12 1.697" fill="#696969"/><path d="M158 26.034c.354-1.343-.07-1.768-1.202-1.485-.495 1.202-.07 1.627 1.202 1.485" fill="#F4F4F4"/><path d="M258.621 27.802c-2.333.636 1.273 2.121 0 0" fill="#727272"/><path d="M230.903 56.652c3.747 2.758 7.99-3.465 6.364-6.93-.142-.424-6.152-4.737-6.506-2.545-.283 2.262 3.324.636 1.556 3.96.495.07.92.212 1.485.353-2.05 1.06-3.04 2.9-2.9 5.162" fill="#696969"/><path d="M213.65 42.368c-2.193.213-3.607 4.738-4.385 7.071 1.485-.212 5.162 1.91 5.586 1.485 1.344-1.202-1.202-6.434-1.202-8.556M226.448 53.611c8.556-2.192-.99-4.95 0 0M194.487 50.783c-.849 0-1.132.283-.99.99.778.07 1.06-.212.99-.99" fill="#585858"/><path d="M218.74 41.944c.213.495.495 1.06.92 1.768.141-1.273.141-1.273-.92-1.768m.495 3.324c.071-.778-.212-.92-.848-.425-.142.566.212.778.848.425" fill="#696969"/><path d="M206.013 43.076c.495-.071.99-.142 1.414-.283.07-.354.07-.637-.142-.99-1.202-.212-1.697.141-1.272 1.273" fill="#CACACA"/></g><path fill="#B05E01" fill-rule="nonzero" style="mix-blend-mode:color" mask="url(#b)" d="M302 58H0V0h302v58"/></g></svg>