<svg width="296" height="58" xmlns="http://www.w3.org/2000/svg" xmlns:xlink="http://www.w3.org/1999/xlink"><defs><path id="a" d="M0 0h296v58H0z"/></defs><g fill="none" fill-rule="evenodd"><path fill="#C7293D" fill-rule="nonzero" d="M0 0h296v58H0z"/><mask id="b" fill="#fff"><use xlink:href="#a"/></mask><g opacity=".8" mask="url(#b)" fill-rule="nonzero"><path d="M67.951 53.706c-1.5 1.7-2 3.4-1.9 5 7.9.2 15.9.6 23.9.8 3.1.1 6.2.2 9.4.3-1.9-.9-4.2-2-4.8-1.7.2-1 .9-2.3 1.3-2.8 1.3-2.3 2.7-.5 3.7-4.7.5-2.2 1.4-7.3-.9-8 3.4 1.2 4.7-6.6 3.8-8.4 3.7 3.1 4.3.5 8.2-1.9.6 7 8.6-2.3 9.1-4.9.6-3.6-2.6-3.8-4.2-5.5-1.7-1.9-.5-3.2-4.6-3.6 3.8-1 1.7-3.8-.8-5 2.4 1.5 1.1-6.5 1-6.7-4.5-5.3-6.2 2.3-6.4 2.3-.1 0-.7-2.6-1.4-2-2.3 1.7-1.7.5-3.5 3.3-2 3.2-2.6 5.1 1.2 7.1-4.8-2.5-7-3.3-11.1 1-1.7 1.8-5.6 11.2.9 8.4-1.6.9-2.4 4.5-1.1 5.2-3.1.6.8 2.9 1.2 3.3-.2-.1-1.3-.5-1.6-.3-1.6 1.3 1.5 5.5-1.5 6.8-1.3.5-3.5-1.7-4.7-1.7-5 .2-5.5 10.7.7 6.3-.7.7.4 3.6.9 4.1 1.7 1.7 3.1-.1 5.2.6-4.5-.7.9 4.1 2 4.7-2.6-.6-3.1 4.2-7 2.3-4.1-2-.5-2.9-1.8-5.4-1.3-2.6-3.1-3-4.5-4.1-1.2-1-4.7-7.5-7.2-3.8 1.2-1.7-1.6-4.1-3.6-3.9-2.4.1-2.8 3.6-2 3.2-1.6 1 .4 10.3 2.1 9.7z" fill="#4C4C4C"/><path d="M102.551 59.906c2.1.1 4.2.1 6.3.2 16.2-.6 32.4-1.3 48.6-1.8 6.9-.2 13.8-.2 20.7-.2-.4-1.6-.7-2.9-.8-3.2-1.5-4.2-2.2-5.3-6.1-1.1-.3-1.7 8.1-6.4.9-7.9-3.1-.6-3.8 6.8-5.8.6-.8-2.4 4.9-7.3 3.6-9.2-1.3-1.9-3.9-1.4-5.1-3.2-1.1-1.8-1.2-4.2-1.9-6.2-.6-1.8-.2-2.7-1.5-4-.9-.2-1.8-.2-2.8 0-.6-1-1-2.1-1.1-3.3-.7-1.1-1.4-5.5-3.1-5.9-1.9-.4-4.7 1.2-6.2 1.8-4 1.6-6.1 2.5-8.7 5.2 2.5-2.4-4.6-7-4.1 1.1.1 2.2 6.5 7.1 2.1 8.7-2 .7-5.2-4-7-.3-.2.3.5 2.2 1.2 3.7-1.9-.5-.4-2.4-2.9-1.8-1.2.3.2 2.4 0 2.6-.7.9-2.7 3-3.5 4.5-.6 1 .6 3.1-.8 3.9-3.3 1.8-3.1-3.4-5.3 2.3.4-2.8-3.7-1.9-5.5-.8 3.9-3.4-4.2-4.7-2.9-3.1-4.2-2.8-1.7 2.7-1.8 3.2-.2.7-2.6 2.3-2.5 2.9 0 .4.3.9.7 1.5-1.8-1.2-3.8-1.5-5.1 1.4-1 2.2.6 5.6.4 8.4zm30.5-22.8c.5.1 1-.2 1.4-.6-.4.5-.8.9-1 1-.5 0-.8-.5-1-1 .3.3.4.6.6.6z" fill="#4C4C4C"/><path d="M296.351 58.406c.1-1.4.2-2.9.3-4.3l.3-4.5c-.4 1.2-1 2.4-2.2 3.3-1.4 1.2-7.2 4-9 4.3-3.3.6-5.6-1.4-8.6-.2-.3.1-1.5.7-2.9 1.3.5-.5 0-.9-2.6-1.3s-4.5.5-6 2.2c10.4-.3 20.6-.8 30.7-.8zM209.851 58.806c-1.1-2.4-3.3-4.8-5-4.5-.8.1-3.1 2.6-4.1 4.3 3 0 6.1.1 9.1.2zM150.151 18.906c.4-1.4 1.2-1.6 2.3-.5-.2-.7-.1-4.3 1.8-2.8 1.6 1.4-.9 2.6 2.6 3.1-.8 1.7-.7 3.3.6 5 2.5 3.1 3.3-.2 4.4 1.1 1.4 1.7 1.2 8 1 9.3 2-.9 1 2 1 3 2.1-1.3 3.5-.1 5.4.9-.3 1.2-1 1.6-2.3 1.2-.4.8-.4 1.5-.1 2.3.3-.6-.7 5.2-.9 4 .2 2-.5 4 2.3 4.3 3 .3 2.3-2.6 2.5-2.6 6.3-.5.4 3.5-.1 4.9-2.1 5.9 2.2 1 4.8-.3 1.4 1.8 1.4 3-.1 3.5 1.2.7 1.8 1.7 2.1 2.9 3.9 0 7.7.1 11.5.1.4-.2.7-.2.9 0 2.6 0 5.3.1 7.9.2 1.8-.8 2.8-1.9-.2-2.2 1.5-4 3.9-6.3-2.7-6-2.1.1 0-1.6-2.8.3-.9.7-3.9 3.7-1.8 4.4-2.3-.2-2 1.1-3.7 1.6.9-3.4 6.4-5 6.6-9 0 0-2.6-4.6-2.8-4.7-2.5-1.2-5.4 2.1-7.3 5.9-.2-.8-.8-2-.8-2.6-.1-.9-1-.8-1.2-1.6-.1-.5 1.3-2.6 1.2-2.8-1.8-2.9-5-3.5-7.3-1.1.4-.9 4.7-8.4.3-7 2.5-3.2-2.2-1.6-4.4-3.3-1.6-1.2.9-2.1-1.6-3.3.3.1-4.3.7-4.2.3.3-.9 2.4-1.1 2.5-3.1.2-2.9-3.6-6.3-6.5-4.2 0-1 0-2 .1-3 1.6.3 2.7 3 4.3 2.1 2.6-1.5-.2-3.8-1.1-5.2-.9-1.4-.7-2.7-2.7-3.2-2.1-.6-4.1 1.7-3.4 2.2-1.7-.3-7.9.2-8.9.6-5.9 2.4-1.2 3.2.8 5.3zm30.4 33c.2-.6 1-.8 1.7-1.1-.9 2.3-1.3 4.4-1 5.5-2.8-.7-1.2-3-.7-4.4z" fill="#3F3F3F"/><path d="M67.551 58.806c-.2-1.6.1-3.3 1.2-5.7-2.7-.4-2.5-8.1-1.2-8.9-4.1-3.5 1.8-2.5 4.1-.1 5.6 1.2 4.3 4.2 6.7 6.8.6.6 1.4-2.6 2.9-.3 1.7 2.4-.9 4.8.2 6.3 1.2 1.5 4.9 2.9 7.3 2.2 3.5-.9.2-2.6 4.1-2 0-3-3.2-2.6-3.4-3.3-.7-3.3 1.7-.7 2.3-2.8.5-2.1-6-.4-6-.5-1.7-1.3 0-5.8-.8-6.3-1.2-.8-3.1 3.5-4.6 2.1-.8-.8.6-3.5.9-3.8 1.5-2-.6-1.1 2.5-1.5 2.8-.3 3.4 2.9 5.8.1 2.5-2.9-.5-3.8.6-5.8.9.9 1.9 1 3 .3-.3-1.8-3.3-1-3.5-3.3.7.6 1.4.6 2.2 0-.3-1.1-1-1.5-2.2-1.2.8-.5 3.1-4.4 2.7-5.5-.5-1.6-6.7 2.5-3.9-4.5.6-1.5 9.2-7.7 9.8-6.4-.4-1-3.6-1.6-4.6-2.3-2-1.3-2.9-3.3-5.2-4.5-2.7-1.4-8.8-1.8-5.4 3.4-4.8-8-6.1 7-11.4 4.1-2-1.1-.9-7.1-1.5-8.1-3-4.2-9.2-1.3-7.2 3.8-1.5 2-8.7 2.1-10.6 3.5-.7.5-.1 2-.5 2.7-1.1 1.9-3.9 1.2-1.2 4-1.9-1.5-5.5 1.6-6.3 2.7-3 4-2.3 6.4.1 10.3l2.3 2.3c-.3.9-.1 1.7.5 2.4.1.1.3.2.4.3-2.4.6-5.8 3.9-6.1 5.5-.2 1.2 2.7 1.7 2.6 1.9-.5 2.8-2 1-3.2 2.8-.2.3.8 6.3 1.4 9.4 8.2-.5 16.7-.4 25.2-.1zm-14.1-19.2c1.6 1.1 2.5 4.8 4.7 4.8-6.5-.2 1.8 4.7.6 7.4.4-2.2-4.6-1.3-5.7-4.5-.5-1.5 1.1-3.1.7-4.6-.2-.8-1.5-3.1-2.7-3.8.8 0 1.6.2 2.4.7zm-4.7-.8c.3.2.7.2 1.1.1-.2.1-.3.4-.5.7-.2-.4-.6-.6-1-.7.2.1.3 0 .4-.1zM41.251 58.606c-1.8-1.4-3.9-1.1-5 .2 1.7-.1 3.3-.1 5-.2z" fill="#595959"/><path d="M82.351 4.206c.3.3 0-2.4-.4-4.2-2.2 0-4.3 0-6.5-.1 2.2.4 3.6 2.3 3.8 4.7.1 1.2-3.8 8.6-3.9 8.5.7.8 5.2-4.4 5.6-4.6 2.4-1.2 4.1.2 5.9-.5.7-.2 1.8 1.1 2.5.2.6-2.5-6.2-3-7-4zM-4.649 50.206c0 1.8 0 3.7.1 5.5 0 .7 0 1.4.1 2.1 2.2 0 4.4 0 6.6.2-.1 0-.3-.1-.4-.1-.1 0-3.6-8.3-6.4-7.7zM-4.649 37.706c.1.2.2.4.2.7 0 .3-.1.6-.2.8v10.5c.5-1.1.9-2.5 2-2.7 1.2 2.7 3.7 0 3-1.7 2.7 3.4 2-3 2.2-3.5-.6 7.3 13.7-2.7 8.4-5.3 2 .1 4.2-.7 5.4-2 2.3-2.7 1.8-4.5 1.6-6.9-.1-1-2.8-1.9-2.7-3.1.2-1 1.9-.7 2.1-1.4.2-.8-.6-5.6 1.4-6.3.9-.3 1.5 1.3 2.2 1.4.8 0 3.4.5 4.2.7 1.5.3 4.3-.1 5.7 1.7 1.2 1.6-.6 5.9 2.5 6.6 1.6.4 4-3.6 5.8-4.2-1.1 2.3-3.4 1-3.3 4.9.1 2.8 2.1 4.2 4.8 2.2 3.7-2.8-.6-6 1.8-8.8 0 0 7.2-2.3 5.5-3.6 3.1.7 2.4-7.5 3.5-9.9.4-.9 1.5-4 2.4-5.9.6 1.6 3 3.5 4.4 2.1-2.5 3.4-1.7 4 1.8 3.4 2.6-.5 3.6-3.9 4-5.8.7-.2 1.6 1.4 2.2.2-.9 2.1 2.3 3.1 3.4 2.9 1.6-.2 5.2-3.9 2-4.2.6-.2 1.2-.3 1.7-.4-14.8-.3-29.7-1.3-44.5-1.8-1.1 1.4-2.9 1-3.7 3.8-1.1 3.7 2.1 3.8 2.4 7.3.4 3.8-1 3.1-2.9 3.5.4-.1-4.9-.9-4.4-.6-1.9-1.1-1.1-.3-2.4-3.3-.6-1.4-.2-8.3-4.8-4.7-.1.1-1 6.4-1.2 7.1-.8 2.5-2.1 4.9-3 7.3-1.3 3.3-.3 2.8.4 6.6.5 2.9.3 3.8-1.7 5.2-.6.4-2.4-1.3-2.8-1.1-2 1.1-.6 2.3-1.3 2.9-1.6 1.3 1 2.5-3 .8-2.9-1.2-3.3-3-5.2-2.6.2 2.2.2 4.7.1 7.2z" fill="#676767"/><path d="M-4.449 8.106c2.5-.7 3.7-.1 5.5-3.3.4-.7.3-3 .8-4 .4-.9 1.5-2.1 2.1-3l.1-.1c-2.5 0-4.9.1-7.4.2-.4 0-.9 0-1.3.1.2 3.4.2 6.7.2 10.1z" fill="#919191"/><path d="M-4.549 23.606c.1.3.2.4.4.6 4.9 5.6 9-4.1 5.4-4.3 4.8-1.2 1.3-4.4-1-6.1 1.5 1.1 3.9-4.8 4.1-5.5.8-2.3 1.1-4.7 2.2-7.2.2-.6 1.3-2.3 1.5-3.4-1.9 0-3.9 0-5.8.1-1.6 2.5-2.9 5.1-3.6 6 1.3 1.1 2.7 1.4-.1 2.8-2.4 1.2-1.4.2-3-.2.1 5.7-.1 11.4-.1 17.2z" fill="#848484"/><path d="M91.251 9.506c0-.3 0-.5-.1-.8 1.5 1.8 3.1 1.5 4.7-.4-1.2 1.8 4-.4 5.4-2.1-.9 1.2-5.4 4.2-2.9 6.3 1.1.9 3.6-4.8 3.1-4.6 2.3-.7 3.2 3 4.8.7-3.5-1.1 1.6-3.7 4.2-1.6-2.9.6-.3 4 .2 5.5-.8 0-1.5-.2-2.2-.7 1.1 1.3 2.9 3.1 3.5 4.5.5 1.2-2.1-.1-2.4 1.1.4 1.1 1.1 2 2.1 2.7.6-2.2 1.4-2.1 2.5 0-4.7 1.7 1.3 1.8 1.7 2.3 1 1.2 2.2 2.3 3.2 3.9-1.6.7-4.5 5.4-4.2 6.4.1 0-6.7 1.8-2.3-.8-2.3-3-5.1 2.3-6.8 2.4-2.7.2-1.9-1.1-4.6-2.7-1.6 1.7 2.6 10.6-3.8 9.4-.3.5 1.8 5.9 1.7 7.1-.1.9-.7 4.3-1.2 4.9-.8.8-3.7.5-4 1.1-.4 1-.4 4.6 1.2 5.4h1l-1.4-1.4s1.1.6 2.5 1.5c2.1.1 4.1.1 6.2.2.1-2.2-1-4.5-.4-6.2.1-.5 2.3-5 3.1-4.7-1.1-.4-3.1 1.2-3.6-.5-.8-2.6 1.6-4 3.5-2.7 1.9 1.3.4 10.4 6.9 8.9-.6-2.3-4.9-3.1-5.7-5.6 4.1-3.2 2.5-2.2 1.5-5.3 1-.8 1.8-.6 2.6.6.3-.6.4-1.3.2-2 4.8.7-1 4 .7 5.8.1-.1 4.3-2.1 4.4-3.2.6.9 1.4 2.5 1.6 3.1.6-.9 3.2-3.5 3.5-3.7.4-.3 2 1.1 3.4.1 1.1-.7 1.3-3.9 1.7-4.4.4-.6 2.6-2.1 2.8-2.6.9-2.2-.3-.8-.4-3.6 2.4 1.1 2.6 6.1 6 4.1-.8-1.9-.2-1.9 1.2-3.5-2.1-.6-1.9 1.7-3.4 1.9.1-.4.5-3.5.8-2.7-.7-1.8-1.7-.4-2.3-2.6.1.3.6-2.4.5-3-.9-5.5-5.1-5.1-7.6-9-.1-1.2-.3-2.4-.7-3.5-.8-.3-1.6-.7-2.4-1.1-1-1.1-1.3-2.4-2.5-3.3-.7.1-1.3.3-2 .5-1.6.4-2.3-.5-1.7-2.7-1.1-1.6-1.4-2.6-2-4.5-.6-2.2-.8-3.8-.9-5.4-6.9.5-13.9.9-20.8 1 .2.3.4.6.6.8-2.5 1.3-5.6-1.3-5.9 3 .4.6 3.9 7.1 5.2 5.7z" fill="#595959"/><path d="M116.351 44.506c-.1 0-.2-.1-.3-.1 0-.2.1-.1.3.1zM124.051 19.206c.7 2.3 2.6 6.2 5.4 4.2.6 1.3 2.7 4 .9 5.2 2-.1 2.5.8 1.4 2.5.1 0 6.2.8 5.9 0 .6.6.7.3 1.1-.2 2.3-2.2-1.3-2.9-1.7-3.8.1.2-1.6-5.5-2-5.3-.5.6-.8 1.2-1.1 1.9.5-.9 3-3.7 2.6-4.8-.9-1.2-2.6 1-3.9-.5-1-1.1-1.1-4.2-2.7-4.5 1.7-1 4-5.8.1-5.5-2.9.2-.8 1.9-2.1 3.5s-2.5.2-3.1 2.8c-.2.9 2 7.4 3.5 4.8-.8 1.7 1.2 2.1 1.9 2.7-1.4-1-4.9-4.8-6.2-3" fill="#595959"/><path d="M133.451 25.606c.4.2 2.1-2.3 3.5-2.4 1.3-1.6 0-2.2.6-4.1.9-2.9 2 3.6 2 4.5 2.6-5.2 5.8-2.4 9.1-6.4-1.9-.7-1.1-3.1-2.7-3.6-2.3-.7-1 .6-2.4 1 .5-.2-2.5 3-2.6 3.1-.6.5-5.9-2.5-4.5 1.5-.6.8-4.8 5.5-3 6.4zM108.251 60.106c0-.5 0-1-.3-1.7.9.3 1.5.9 1.7 1.7.5 0 1 0 1.5-.1 2.8-2.9-3.6-7.9-5.8-2.8-.5 1.1-.4 2.1-.2 2.8 1 0 2.1 0 3.1.1zM101.951 29.206c-.5-.1-.9-.3-1.4-.4 1.3-1.4 2.8-.5 4.3.2 2.7-4.9-3.1-4.4-2.3-8.5-.2.3-4.3 6.6-4.4 6.1.3 1.5 1.7 3.7 3.8 2.6z" fill="#595959"/><path d="M98.851 12.306c-1.7-3.7 4.6-5.2 3.7-7.8-1 .9-4.5 5.9-6.1 4.2 4.5-4.3-1.8.2-1.8.2-2.1.1-3.7-2.5-5.5-2.3.7.7 1.2 1.6 1.5 2.5-.7-1.1-1.6-1.4-2.5-.8 2 1.3 3.1 3.3 5 4.6 2.6-2.7 1.4-2.7 4.2-.4-1.2-.9 3.4 5.8 2.6 3.6-1-1.3-1.9-2-1.1-3.8" fill="#626262"/><path d="M136.451 32.006c1.4.2 2.2-.3 1.9.9 4.6-.4-1.1-8.2-2.5-9.6-.4.9-.9 3.7-1.1 4.8 4.4-.2 4.6 1.6 1.7 3.9z" fill="#595959"/><path d="M106.351 49.906c2.9-7.8-6.5-5.5-4.5-1.3 1.1 2.1 2.7 0 4.5 1.3" fill="#909090"/><path d="M94.051 30.006c3.3-.3 2.9-.3 5.1 1.2 1.1-4-5.2-2.4-5.1-1.2zM74.451 55.406c-.6.3 1.3-5.3 1-5.8-.7 1.3-1.8 2-3.3 2-.8 1.8.1 4.8 2.3 3.8z" fill="#595959"/><path d="M144.851 50.406c.4.8.9.8 1.3.1-.3-.7-.7-.7-1.3-.1" fill="#D8D8D8"/><path d="M146.951 8.106c-.3 0-.8.3-1.4.7.5-1 .8-2.1.7-3.1-.2-3.6-2.8-2.5-3.9-3.6-2.9-3-2.3-3.6-6.8-4.1-1.6-.2-6.5-.3-4.2 1.8-1-.6-1.3-.1-1.8 1.7-.8 2.5 1.5 3.2 1.5 4.3 0-1.2-8.8 1.5-10.1 3.3-2-2.4-3.5-8-4.1-9.2-.2-.4-.3-.7-.5-1.1-2.2.2-4.3.3-6.5.5.7.6 2.3.7 2.5 1.5 0 0-.7 2.5-.6 2.8.4 3.2 2.1 6.4 2.7 9.8 4.9 0 2.9-1.4 6.4 1.7 2.4 2.2 5.4 7.9 9.2 7.5 0 .1-.6-5.3-1.7-5-.5.2-.6 1.5-.7 1.9-.2-.3-2.2-5-2.1-5.4.5-1.5 6.1-.5 3.7-4.4 3.9-2.8.4 4.9-.6 5.7 2.9-.7 2 4.8 6.1 4.7 2.1 0 2.4-2.6 4.1-3.1 1.4-.4 1.7 1.6 3.2.9 1-.5 2.9-5 3.2-4.9 1.1.2.3 1.7 1.3 2.2 2.2 2.1 7-2.5 6-5-.3-.9-5.2-2.2-5.6-2.1zm-5 2.3c.2.1.4.1.5.1-.2.1-.4.1-.5-.1z" fill="#626262"/><path d="M206.851 53.706c2.1 1.2 2.2 3.5 3.4 5.1l25.5.6c-.1-2.3-1.3-5.6-2.5-5.9-2.1-.6-4.6 3.7-6.9 3.2-1.7-.4-1.9-3-3.4-3.8-5.1-2.9-3.3 3-7.8 3-.9-2.8 1.5-2.5-1.2-4.9-2.5-2.3-2.3-.5-5.4-.3-.2 0-9.1-1.8-5.5 2.6 1.5 2 1.9-.8 3.8.4zM245.551 59.506c6.6.1 13.2-.1 19.7-.3.4-1.5 1.2-3.5 1.1-4.9-.1-1.4-.3-2.5-1.8-3.6-2.4-1.7-4.1.7-6.2.7-1.3 0-3.1-1.7-4.1-1.2-1.5.7-.9 3.2-2.2 4.1-.6.5-2.4.7-2.6.9.5-.5-2 .3-2 .3s-1.5 3.3-1.6 3.4c-.1.1-.2.3-.4.5 0 .1.1.1.1.1z" fill="#4C4A4A"/><path d="M156.151 14.306c2.3 0 2-3.6 4.7-3.1 1.6.3 3.3 3.8 3.4 4.4 1.5 5.3.6-.3-2.6.1-1.9.3-2.4 3.8-1.6 5.8 2.1-.8 4.8-1.8 6.3.8 1.7 3.2-1 3.5-2.8 5.3 2.7 1.5 3.9 1.6 6.4.1.3 1.2-.1 2.3-1 3.1 1.9 1.3 4.2 2 6.4 1.4-.7 1-1.7 5.1.6 2.2.8 1.3-3.3 7.8-.7 8.1 1 .1 1.6-2.4 2.9-2.5 1.4 0 2.8 1.5 4.2 1.6-3.5.2-.1 7.7-.4 8.5-.8 2.1-3.6.7-3 4.4.2 1.4 2.8 4.7 4.3 2.5-1.9-2.6 2.5-14.5 6.8-13.6-.1 0 2.5 3.9 2.4 4.8-.2 2.2-5.8 7-7.7 8.1 5 2.8 5.1-4.1 9.1-6.1 1.7 2.9 3.6-.5 4.6.7 2 2.3-1 3.7-1.8 6.5.8-.5 1.5-.4 2.2.1.1.4 0 .7-.2.8.8 0 1.7 0 2.5.1.7-2 4.6-3.5 5.9-2.9 1.5.6 2.2 1.8 2.5 3.1.8 0 1.5 0 2.3.1-.1 0-.1-.1-.2-.1-1.8-1.2-.1-2.4-1.5-3.7-2.1-2-4.9-1.2-6.2-2.3-2.1-1.7 2.6-1.7-1.1-3.8-3.1-1.7-6.9 1.8-9-2.7-1.3-2.9 1.7-4.2-1.8-5.3-1.2-.4-3.2 1.3-4.6 1.1-1.9-.3-1.9-2.9-4.2-2.9-.3-1.4 3-2.3 1.9-3.6-.7-.8-2.7-.3-3.8-1-2.5-1.5-6.9-3.5-8.7-5.8-2.2-2.8-.6-7.2-.1-9.1-1.6-.4-1.9-1.2-.9-2.6 0-.9.5-1.3 1.5-1.2.9-1.5 1.2-1.5 2.1-2.6 1.8-2.1 1.9-1.6 2.2-4.6.4-4.1-.9-6.2-5.3-5.5-3.7.6-3.8 3.9-7.1 5.5 1.1-.3-14.9 3.8-8.9 5.8zM217.851 59.006c-.6-.5-1.2-1-2-1.2-.4-.1-1 .7-1.9 1.1 1.3 0 2.6 0 3.9.1z" fill="#606060"/><path d="M268.151 59.106c1.5-1.3 2.1-2 5.9-.7-.1.1-.6.3-1.2.5.9 0 1.8-.1 2.7-.1 1.6-.6 3-1.2 4.3-1.3 2.3-.1 4.4 1 5.8.8 2.8-.3 8.9-4.1 10.8-6 .2-.2.3-.4.5-.6.2-2.7.4-5.4.5-8.1-.8.7-2 .8-2.6 1.7-.8 1.2-.2 3.3-1.1 4.5-2.4 3-2.4.7-5.2 1.1-2.3.3-2.6.2-5.1 1.4-3.3 1.6-6.5 2.7-10.9 1.8-2.3-.5-3.8-2.2-5.8-.6-.5.4-1.3 3.4-1.6 5.5.8.2 1.9.1 3 .1z" fill="#707070"/><path d="M156.151 14.306c4.8-1.9 1.4-15.6-6.6-10.1-.8-2-1.7-5.6-5.2-.8-.4.5 1.6 4.5 1.5 4.4-1.1.6-4.4 1-4.7 2-.4 1.6.5 2.8 2.4 2.5-.2-2.4 1.4-2.1 3.1-2.9 1.1-.5 3.6-.3 5.9 1.5 2.8 2.4-1.5 3.4 3.6 3.4" fill="#6B6B6B"/><path d="M191.251 58.306c-.1-.5-.2-1-.2-1.3-1.1.1-2.1.6-2.9 1.3h3.1z" fill="#4C4C4C"/><path d="M167.051 47.406c.1 4.1 3.8-3.2 0 0" fill="#B5B5B5"/><path d="M190.351 54.606c-.9.9 2.1 2 2.2.6-.6-.8-1.3-1-2.2-.6m-32.1-42c-.7.5-.4 1 .7 1.6.9-.2 1.2-.8 1-1.7-.6 0-1.2 0-1.7.1" fill="#4C4C4C"/><path d="M-4.549 21.406V31.506c.7-.3 1.3-.6 1.9-.5 1 .3 2.6 2.9 3.4 3.3 3.4 1.5 6-3.3 3.5-2.7 0-2.2 5.5.6 6.7-3.3 1.3-4.5-3.4-5.3-2.3-9 2.9 1.6 3.4-5.2 4.4-7.5 1.1-2.7 1.9-4.5 1.1-7.2 4.8-.2 2.2 1.3 2.8 4 .3 1.1 1.1 3.1.9 4.5 2.6.7 3 1.3 4.4-1.2 1.7 1.5 1.4 2.5 3.8 2.2 3.9-.5 2.2-3.5 3.9-4.3-1-1.4-.7-2.3-1.4-3.5-1.6-2.8-4.4-1.5-1.7-5.5.6-.8 1.6-.8 1.7-1 .1-.1.5-.9 1-1.8-6.9-.3-13.8-.4-20.7-.4-.4.9-.8 1.8-1.1 2.7-.1.4-1.4 2.1-1.4 2.3 0 .5 1 1.7 1 1.5 0 .4 1.5 1.7 1.3 3.8-.2 1.9-1.2 3.9-1.8 6.6-.3 1.4-.7 7.1-1.3 7.7-1.7 1.7-2.4-.3-4 .4 1.2 4.9-7.7 3.6-5.9-1.5 0 .3-.1.3-.2.3z" fill="#747474"/><path d="M36.551 52.306c-2.4.2-4.3 4-2.8 6.7 1.2-.1 2.3-.1 3.5-.2v-.7c.8.2 1.3.4 1.7.6 1.4-.1 2.8-.1 4.2-.1.2-3-.9-7.1-1.6-8.8.6-.6 1.3-.3 2 .9-.2-2.4 3.1-3.2 1.1-5.5-1.1-1.3-4.9-.4-6.1.2 0 0-5.5 5-5.5 4.9-1.2 3.1 1.8 1.7 3.5 2z" fill="#626262"/><path d="M-4.649 51.806c.2-.1.5-.3.8-.3 2.4-.3 1 2.1 1.2 2.2 2.5 2.1 2.6 2.5 2.6 4.2 5 .2 10.1.6 15.1 1.2-.1-.4-.3-.8-.4-1.2.2.1.7.2 1.3.3-.2.2-.5.5-.7 1 1.1.1 2.2.2 3.3.4-.4-.5-.8-.9-1.2-1.2 1.3.1 2.6.2 2.8.2 2.3-1.3 2.9-4.7.1-5.7 1.5-.8 3.2-.6 4.7-1.5.7-.4-1.9-1.9-.3-2.8-1.6.9 9.6.3 4.8-2.3 3.9-.1 3.5-11.9 8.4-8.8 2.1 1.3-2.1 2.7-2 4.2.1 2.7 4.9 5.1 4.1 1.4 2.4 4.3 6.5-6.5 9.8-1.4.1-.7.3-1.3.4-2 3.7 1.4 1.6 7.2 1.9 10.3l.9-1c1.2 1.3 2.2 2.6 3.1 4.1 1.6-5.4 0-.3 1.9-2-.5.9-.6 1.8-.4 2.9 4.1-2.4 1.5-5.1-1.2-8.5.7-1.6 3.7.3 2-2.7l-.5 1.2c-.6-.6-.7-1.3-.3-2.1-1 .4-4.5-3.7-6.5-4.4-.9-.3-2.9 1.4-3.2 1.2-1-.8-.4-2.5-.1-2.3.5-.4.6-.8.4-1.4-1.2 0-2.3-.4-3.2-1.1-1.3-1.9-1.4-1.6-1.8-3.7-.3-1.8-.4-6.4 2.5-4.1 1.1-5.7 4.6-1.6 6.3-4.1-4.6-3 2-2.8.5-6.6 2.6-.3 3.4-.7 5.9-1.5-.5.2 4-1.2 3.6-.8 2.9-2.9.1-2.9 1-4.2.9-1.4 1.6-3 3.7-2.7 4.5.6.4 2.8 1.2 4.7.4 1 4.1 3.4 1.6 5.2 2.7 1.7 1.8 1.2 3.9.5 3.6-1.2 1.3-.4 3.7-4.2-1.4 1.2-1.5-6.4-2.6-7.6 1.8.7 2.7 4.2 5.8 1.5-.4.3-.1-4.7.3-4-.3-.7-1.2-1.4-2.3-2-2.7 0-5.5-.1-8.2-.2-.2.3-.3.6-.3 1 1.4.3 3.1.2 2.3 2-1.5-.5-3.6 2.7-4.2-.1-.3-1.3-.5-1.1.9-2.3-2.4-.1-2.7.5-5-.7-1.3 1.4-1.3 2.8.1 4.1-.8.7-1.6-1-2.5 0-.3.3-1.9 4.7-3.3 3.1-1.6-1.8 3.9-3 0-4.7-.6 2.8-3.1-.2-3.6-1.8-2.1 1-.2 1.7-1.4 3.7-.5.8-2.3 2.3-2.5 2.6-1.5 3.1-1.5 5.9-.6 9.5-1.3 1-2.5-.1-4.3 1.3 1.5-.3 2.2.1 1.8 1.2-1.3 1.6-2.7-1.2-5.1 1.8-1.1 1.4-1.2 2-1.4 3.4-.2 1.2 1.8 1.6 1.2 3.5-.5 1.8-3.4 2.1-4.9 2.4.8-1.2.2-3.7.7-5.2.5-1.4 3.2-2 2.4-3.9-2 1.7-4.8 3.2-6.3 5.3-2.5-.5-1.1-4.8-1.9-6.2-1.2-2.2-3-1.1-4.2-3.6-5.9 3.2-5-2.1-9.4-.9-2.4.7-.3.9-1.1 2.6-1.1 2.4-3.3 1.9.2 3.7-.2 1.3-2.9.7-3.2 3-.4 3 2.9 2.7 3.2 5.5.2 1.4-2.4 3.9-3.4 4.4-3.1 1.6-4.5-.3-7.6-.3 0 4.1 7.7 3.1 2 7.5-4.8 3.7-3.5-2.6-6.4-2-1.7.3-.2 4.5.2 5.2-1.3-.2-2.1-.9-2.5-2.2-1.4 1.1.2 3.1-1.4 4.7-1.3-3.5-2.5.3-3.2 1.1v3z" fill="#626262"/><path d="M15.951 59.206c.1-.3.2-.7.3-1.1.1.4.2.8.2 1.2 2.1.2 4.2.5 6.3.7 3.2-.4 6.4-.8 9.6-.8.7-.1 1.5-.1 2.2-.1-.3-1.1-.3-2.2-.1-3.3.7-2.8 2.6-2.3 3.2-4.7-1.3.9-2.8 1.1-4.3.6.3-1.6 8.2-4.9 8.1-7.4-.6-.4-.9-2.9-1.4-3-2-.6-.8 2.2-.9 2.9-1.6-.5-2.6-1.6-2.9-3.3 3.6 1.1 3.2-8.4-2.9-2.9-1.9 1.7-1.5 3.1-2.5 4.7-.2.3.7 1.2.1 2-.7 1.1-2.7 1-3.8 1.6 0 .8.6.9 1.8.5-.6.7-1.2 1.3-1.8 2-2.3-3-5.8-2.1-3.5 2-1.6-.2-2.5 1.6-3.9 0-.8 1.7-1.8 4.8 1.3 3.2-.2 1.5-.7 2.9-1.7 4.1-1.5-1-4.7-2.6-6.4-1.3-.2.1.1 1.3.5 2.2 1 0 1.7.1 2.5.2z" fill="#676767"/><path d="M83.451 7.106c-1.4.1-2.6.6-3.5 1.7 2.1.4 1.2 2.8 2.6 4.1.7-1.4 1.4-.4 1.8-1.7.5-1.7-3-1.5-.9-4.1" fill="#626262"/><path d="M97.051 14.306c1.7-1.9-.2-5.7-2.7-4.1-2.9 1.8-.7 5.2 2.7 4.1" fill="#A8A8A8"/><path d="M79.951 8.806c-.5.6-1 1.1-1.4 1.7 1.1 0 1.5-.6 1.4-1.7" fill="#626262"/><path d="M84.351 49.606c-.6-.9-1.1-1-1.5-.1.3.8.9.8 1.5.1" fill="#E6E6E6"/><path d="M87.851 8.206c-.7-.2-1.3-.4-2-.6.5.8 1.1 1 2 .6M91.651-.094c-1.4 0-2.9 0-4.3.1-.8 1.3-1.9 3.1-.4 3.3 1.5-2.7 4.2-.6 7-2.4-.1-.1-.5-.5-.9-1h-1.4z" fill="#626262"/><path d="M80.251 5.906c-1.6-.8-3.3-.8-4.9-1.1-1.1-.2-.5-3.8-2.6-1.5 0 0 2.8 8.5 3.1 8.7 1.7-2.4 3.3-3.9 4.4-6.1" fill="#595959"/><path d="M80.651.006c1.8 1.4 6.1 2.2 6.7 0h-6.7z" fill="#626262"/><path d="M86.051 1.006c-2 0-5 .2-4.3 3 1.4 5.1 7.2.1 4.1-1.9-1.2.1-.8 2.1-2.1 1.6 0-.3 3.7-2.7 2.3-2.7" fill="#A6A6A6"/><path d="M86.951 3.306c.1-.3.6-2 .9-3.3h-1c-.3.3-.6.7-.8 1 0 .8-.2 1.1-.6 1.1 1.2 1.4 1 2.5-.5 3.8 4.2.6 1.1-.6 2-2.6z" fill="#828282"/><path d="M32.251 3.206c-.7-.4-1.5-.8-2.2-1.2-1.4 1.5-1.6 2.6-.6 3.3.9-.7 1.8-1.4 2.8-2.1" fill="#747474"/><path d="M79.651 7.906c-1.1-.3-2.1-.4-3.4.2 1.3.2 1.6 1 .8 2.4.9-.8 1.8-1.7 2.6-2.6" fill="#626262"/><path d="M36.351 11.406c.3.7-1.2-3.7-2.3-2.7-.6.6 1.7 3.1 2.3 2.7m-.3-6.5c-1.9 0-2.8.7-2.7 2.1 1.4 0 2.4-.7 2.7-2.1" fill="#747474"/><path d="M86.951 3.606c-.4 1.8-.3 2.4 1.1 3.5.2-1.4-.2-2.6-1.1-3.5" fill="#626262"/><path d="M37.251 20.406c.1-2.7-2.3-.4-2.4-.4-.2-.1 2.3 3.1 2.4.4" fill="#989898"/><path d="M39.851 25.606c-.3.3-.5.6-.8 1 .3 2.3 3.1-1 .8-1" fill="#B9B9B9"/><path d="M82.551 1.806c1-.3 2-.5 3-.8-1.6-.7-2.8-.4-3 .8z" fill="#828282"/><path d="M16.151 13.306c-.6-.6-1-.6-1.1.2.2 1.7 1.5-.4 1.1-.2" fill="#747474"/><path d="M8.351 4.306c-1.6-.7-1 .7-2.2 1.4.5-.2 2.8-5.1 4.2-8h-3.4c1.2 1.7-2.8 4.4-3.9 6.8-1.2 2.7 1.8 2.8-1.6 5 2 1.1.9 5.2 2.7 5.5 1.7.3 3.5-4.3 3.9-5.5.2-.9 2.1-4.5.3-5.2z" fill="#828282"/><path d="M-4.549 23.606v.9c.5.4.8 1 .1 2.2 3.4-.1 5.5.4 6.6-3.3 3.6 3.4 4.6-3.4 5-5.2.6-3-.1-7.7 3.2-7.7-1-2.7 1.7-7.9-3.4-6.8-.6.5-.8 1.2-.6 2 3.2-3.7-.1 9.7-2.3 8.5.7-1 .5-1.8-.5-2.6.9-.1 1.4-.7 1.5-1.7-2 1.1-2.2-1-3.9 0 1-.5-1.4 4-2.1 4.8 2.6-.8 2.8 2.2 4 4.1-1.8.2-3-.3-4 1.5 7.5 1.1-2.5 8.6-3.4 1.2-.1.1-.2.2-.2.3v1.8z" fill="#797979"/><path d="M297.451 40.506c.1-1.8.1-3.6.1-5.4-2-.9-2.2 3.5-.1 5.4zM297.651 21.806c.3 1.5-1.4 3.6-1.4 5.3 0 1.1.7 2.3.7 3.4 0 .4-.2 3.2-.5 2.6.1.3.6.9 1.1 1.6l.3-19.1c-1.4-.1-2.9.8-3.2 2.4-.1 1.2 2.7 2.5 3 3.8z" fill="#717171"/><path d="M116.451 45.306c.2-.8.4-1.6.7-2.6-1.6.9-1.7 1.5-.7 2.6zM118.251 30.406c-.7-.1-1.1.2-1.2.9.7.1 1.1-.2 1.2-.9" fill="#4C4C4C"/><path d="M137.651 31.106c3.9-1.8-5.1-1.8 0 0" fill="#C9C9C9"/><path d="M129.751 21.806c.6 1.3 1.6.6 2.3-.4-.8.2-1.6.3-2.3.4m-2-8.1l-.9-.9c0 .5 0 .9.1 1.7l.8-.8m10.7 2.4c-1 .3-1.4 1-1.1 2 2.1-.2 3.7.4 5.8 0-.3-.6-3.8-2.2-4.7-2m8.2-.9c-.2-1.6 0-2.4-1.3-3.6-1.8 1.9-.3 2.3 1.3 3.6" fill="#595959"/><path d="M141.651 17.806c.5.1 1 .2 1.4.3.2-.3.1-2.6-.8-2.2-.7.4-.9 1-.6 1.9" fill="#6B6B6B"/><path d="M102.551 47.306c-.1 3.5 3.5 0 3.4 0 0-.1-3.2-4.2-3.4 0" fill="#E6E6E6"/><path d="M116.051-1.294c.5 2.4 1.3 5.2 2.9 2.2.1-.2-.2 4-.4 3.6 2 3.9 1.9-1 3.4-.1 2.7 1.5 1.6 3.5 4.3 2.5 1.1-.4 2.8-4 3-5.1.3-1.4-.3-2.8-.5-4.3-4.2.4-8.4.8-12.7 1.2zM164.151 2.906c-.6 0-7.1 0-7.9-.9.6-2 2.2-3.7-.5-5.4-.5-.3-1.4-.9-2.6-1.5-4.3.3-8.6.7-13 1.2-.4 0-.8.1-1.2.1.1.3.2.5.2.6.6 2.2 2.6 5.3 4.6 6l.9.4c1.3.1 2.7-.4 4-.3-.2 1.3-.5 2.5-.9 3.8 2.3-.5 3.7-1.6 6.1-1.8 1.9-2.3 2.1 2.5 3 3.1 2.9 2.1 2 1.8 5.6 1 3.1-.6 3-.5 5.1-2.1.9-.7 1-2.7 2.5-3.5.7-.4 2.2.8 2.6-.3.4-.1.7-.4.8-.8-1.5-3.4-8.1.3-9.3.4z" fill="#6F6F6F"/><path d="M140.051-3.794c-4.1.5-8.2 1-12.3 1.4.1 1 .5 1.7.5 2.7 0 1.3-1.7 4.2-1.6 4.7 1.4 4.5 3.8 1.5 6.2 1.2-.9-.7-1.8-1.4-2.8-2.1.4-.2.7-.4 1.1-.7l-1.2-.3c1.4-1.7.2-2.7 1.6-3.6.7-2.5 4.8-1.5 6.9-1.1 1.6 1.5 2.2 1.9 1.2 3.9 1.3.7 2.7.7 4.1.1-1.1-2.1-2.7-3.2-3.4-5.5-.2-.2-.2-.5-.3-.7zM126.851 6.506c-.7-.3-1.2 0-1.6 1-.8-2.9-2.3-3-3.2-5.1-1.7.8-.7 3.7-3.6 2.1-1.9 2.6 2.5 7.8 5.7 6.2-.8-1.6-2.6-.5-2.2-2.6 1.9 0 5.4 2.5 4.9-1.6M117.751 1.906c-.8-.6-.9-2.1-1.3-3.3-.4 0-.8.1-1.2.1-.1 1.9 1.8 3.9 3.5 5.4 1.3-1 1-4 .9-5.4-.9 1-1.5 2-1.9 3.2z" fill="#6B6B6B"/><path d="M137.551 9.506c-.5 1-.3 1.4.7 1.1 1.3-.8-.9-3.6-1.3-4.4-1.3 1.1-1.3 2.8.6 3.3" fill="#595959"/><path d="M131.551-.494c.4 1.4 1.2 2.2 2.4 2.1-.2-1.1-1-1.8-2.4-2.1zm7.9 7.6c1.2.9 2.2 0 1.1-1.1-.4.4-.8.7-1.1 1.1zm-7.2 9.5s1.6-2.7.6-2.5c-1 .4-1.2 1.2-.6 2.5zM124.151 13.406c-.6-.8-1.1-.7-1.5.2.3.8.8.7 1.5-.2m14.3 2.7c1.2.5 1.5.7 1.3-.9-.4.2-.8.5-1.3.9" fill="#6B6B6B"/><path d="M136.351 2.906c1.8 1.7.3-2.5 0 0" fill="#595959"/><path d="M136.151 12.506c-.3-.6-.7-.6-1.1 0 .2.6.6.6 1.1 0" fill="#6B6B6B"/><path d="M202.251 49.406c2.7.2 2.5-.7 3.3-3 2.3.9 2.4 5.2 5.7 2.9.3-.2.6-.4.7-.6 1.2 1.7 2.6 3 3.5 2-.8 1.2 1.8 3.3 2.8 3.5 1.7.4.6-2.7 3.2-2 1.8.5 2.1 4.3 3.4 5.2 2.4 1.5 5.3-.9 7.9-3 1.2.8 0 2.4.6 3.4 0 0 1.5.9 2 1.7 3.4.1 6.8.1 10.2.1h1.4c.8-1.4 1.5-3 1.4-3.6 3.8.1 1.6 1.8 4.5-.8 1.1-1 .9-3.6 2.2-4.3 1.7 3.3 1.2 1.7 4.1 1.4.1 0 5-1.4 5.1-2 .2-1.7-3.9-2.6-4.9-3-.2-.2-3.5-2.8-2-2-4.2-2.1-2.1-3.3-5.8.7-1.6 1.8-13.1 9.8-12.3 11.2-.4-.8-.3-1.5.3-2.3-2.4-1.8-8-6-11.1-6.6-3.7-.8-6-.2-10.2-2.3-1.6-.7-3.7-.8-4.9-2.4-1-1.4 1.4-3-.5-4.8-2.9-2.7-7.1 4.1-9.7 5.3-1.2-.9.4-3.1-.8-3.6-.2-.1-3.9 2.7-3.9 2.7-.7 1.2-.3 3.6-.2 3.6-.4.7-3.5-8.7-5.3-2.9-1.8 5.4 7.9 4 9.3 5.5zm7.4-4.2c-.3-.3-.5-.6-.7-1 .3.3.5.6.7 1z" fill="#7B7B7B"/><path d="M210.851 38.406c2.8 1.8 2.1 3.2.5 5.7 4.9-.4 12.6 10 16 4.5 3.8 5 10.6 3.2 11 10.5.6-1 1.5-1.6 2.7-1.8.3-1.5-1.2-.4-1.5-1.4.9-.8 3.1-1.6 4.3-2.3 1.5 1 2.5.4 2.9-1.6 1.4-.4 2.2-1.2 2.5-2.5 3.2-2.6 2.8-1.7 5-5.9 1.7.1 2.5 3.6 3.7 4.4 2 1.2 9.6 5.2 11.6 4.3.5-1-3.2-3.5-4.2-3.5 1.5 0 3.9 3.6 5.5 2.4 1.1-.9-1.3-4.5-2.1-5.1-3-2-3.8.2-6.3-.2-3.1-.5-2.2-1.6-3.7-3.1-3.3-3.2-4.3-3.9-7.6.1-1.8 2.2-3.3 6-5.9 7.5-1.9 1.1-5.2.3-6.3 2 1.3-3.2 2.2-2.4-.5-3.9 3.3 1.3.7-1.8 2.3-2.9.4-.3 3.6-.5 3.6-.6 2-1.9 4.6-5.6 2.4-8.4-.4-.5-2.5 1.3-3.3.8-1.8-1.2-1.4-2.7-3.9-3.3-2.8-.7-4.5.9-5.8 2.8-.9 1.4-.2 6.3-.9 7-2.5 2.8-5.6-1.5-8.9-1.8-1.5-.1-3 2.1-3.9 1.9-1-.2-3.7-3-4.4-3.5-.6-.4-5.4-5.5-4.8-2.1" fill="#929292"/><path d="M212.951 50.206c.5-.9.7-1.9.8-3-1.1.4-1.7.3-1.7-.2-2.3 7-6.2-6.7-7.7-.3l-1.2-.3c1.4 1.5 1.2 2.5-.6 2.9 1 .4 1.2 1.3 2.1 1.7 1.1.5.9-.9 1.8-.8.7.1 1.1 1.5 2.2 1.5 2.7.1.8-3.1 3.4-.3.8-.2-.4-1.4.9-1.2M219.351 53.406c-6.1.5.5-6.7-5.8-2 2.3 1.7 1.5 3.1.3 5.3 1.5 2.3 4.9-2.3 5.5-3.3" fill="#717171"/><path d="M265.851 59.206c.8-2.1 1.7-4.9.6-5.8-1.3 1.5-2.1 3.7-2.8 5.8h2.2z" fill="#595959"/><path d="M266.451 53.406c0 .6 2.5.3 3.5.3 1.2-1.8-4.9-2.4-6.1-2.6.6 1.1 1.5 1.9 2.6 2.3" fill="#7B7B7B"/><path d="M222.451 53.106c-.5-1.7-1.6-2.9-3.3-3.5-1.8 2.7 2.4 3.2 3.3 3.5M223.351 54.606c.7-.9.5-1.3-.6-1.1.2.3.4.7.6 1.1M202.251 49.406c-.4-2.8-8.5-.3-8.9-4.5-.2-2.9 3.1-.3 3.7-1.7 1-2.5-1.5-2.5-1.7-4.3-.1-.7 1.5-3.2 1.4-3.4-1.4-4.1-3.6.6-7 .4-2.1-.1-4.2-1.7-6.2-2.4-2.7-1-4.3-1.3-6.3-2.9-4.9-4-2.5-7-2.9-12.2-.4-4.7-.4-2.8-4.2-3.1.8 1.5.5 2.6-1 3.4 1.1.8 2.2 1.6 3.3 2.5-7.8 4.3 5.5 14.6 11.8 15.1-.2 2.7-2.5 1.4-1.1 4.3-.7-1.4 3.8 2.5 2.7 2.2 1.3.4 3.2-.6 4.7-.4 5.1.7.3 0 2.3 3.5 2.3 4.3 5.2 2 9.4 3.5" fill="#717171"/><path d="M172.951 2.406c-.3 1.1 3.8 2.6 4.3 4.4.5 1.9-2.1 4.7-2 5.9 1.8 3.3 13.7-5.3 10.4-10.4-1.6-2.2-13.7-1-12.7.1m-6.9 6.7c-2.2-1.5-1.7-2.2-3.7-.3-.5-.6-3.7-2.2-3.4 0 .2 1.6 3.8 1.1 5.4 2.1.2-.9.7-1.5 1.7-1.8m6.6-5.8c-4.8.2-4.9.9-5.8 5.5.6-1 5.8-5.4 5.8-5.5" fill="#6B6B6B"/><path d="M200.451 48.806c-1.7-.5-3.5-.1-5.2 0 1.9 1.5 2.9 1.5 5.2 0" fill="#707070"/><path d="M172.951 14.906c.9-.5 2.9-.2 2.3-2.3-1.6 0-2.2.7-2.3 2.3" fill="#6B6B6B"/><path d="M201.251 56.906c-.2-.8-.7-1-1.5-.7-.6.1.6 1.1 1.5.7" fill="#595959"/><path d="M195.251 48.506c.1-1.3-.6-2-2-2 .4.9 1.1 1.5 2 2" fill="#707070"/><path d="M181.651 44.406c.6.2 1 0 1.2-.7-.4.2-.8.4-1.2.7zm.3-2.6c.4.2.8.4 1.3.6.1-1.3-.5-1.2-1.3-.6z" fill="#595959"/><path d="M269.151 52.006c-1.4 6.5 18.8 1.8 16.4-4.5-1.3-3.4-10.1 5.7-11.8 5.7-2.8 0-6.7-4.8-10.1-5.4-.4 1.5 4.4 3.7 5.5 4.2" fill="#9E9E9E"/><path d="M297.351 42.306c-1.4.8-2.6 1.7-2.9 2-1.3 1.5-.8 4.5-3.2 5.1-2.2.5-3.1-2.2-5.3-1.7-.5.1-5.2 6.6-5.6 6.1 2.7 1.9 2.7-1.3 5.2-2 2.3-.6 5.1 1.7 7.4.4 2-1.1 1.4-5.2 2.7-6.7.3-.4.9-.7 1.7-1.1v-2.1z" fill="#868686"/><path d="M280.351 53.706c.8-.7 4.5-4.7 5.6-4.9 2.3-.3 1.6 2.4 3.5 2.2 2.4-.2 6.8-7 5.4-7.4-1.1-.3-3 2.8-4.2 3.2-1.8.6-3.3-1.3-5.5-.1-1 .6-2.4 4.4-3.7 5.4-2.4 1.8-5.5 2.4-8.3 2.9 2.2 1.7 5.6.2 7.2-1.3" fill="#8F8F8F"/><path d="M282.451 54.606l-1.2-.3c.3.8.7 1.4 1.2.3" fill="#8F8F8F"/><path d="M155.251 13.506c3.8-.2-.1-2.7-.1-3 0 .2-3.8 3.1.1 3" fill="#9B9B9B"/><path d="M9.651 1.906c-1.7-1.8 1.5.1-1.2-2.4-1.6.7-1.8 1.8-1.4 3.5.6-.9 1.6-1.2 2.6-1.1zM1.551 28.806c-.5.5-.5.9 0 1.1.7-.4.7-.8 0-1.1m.5 1.8c-.2.4-.4.7-.6 1.1.7 0 1.4-.6.6-1.1" fill="#797979"/><path d="M26.651 28.506c3.9 2.2 3.6-3.6 1-2.1-.6-7-5-.2-1 2.1zM35.951 34.206c-.4-.5-1.4-4.2-2.6-3.8.2 1.4.6 4.9 2.6 3.8z" fill="#676767"/><path d="M44.251 38.506c3.4-1.6.8-5.8 0 0M41.751 36.806c-.4 1.3-.1 2.2 1 2.5.3-.6 0-2.8-1-2.5" fill="#595959"/><path d="M38.451 30.906c-.3 1 0 1.3 1.1 1.2 1.8 2.4-1.3-1.4-1.1-1.2z" fill="#676767"/><path d="M95.551 13.506c3.9-.3-.7-3.2-.7-2.6.1.8-1.9 2.8.7 2.6" fill="#EAEAEA"/><path d="M85.451 2.206c-6.3-1.1.9 6.5 0 0" fill="#E7E7E7"/><path d="M36.051 19.406c-.7.7-.7 1.1.2 1.4.7-.4.6-.9-.2-1.4" fill="#E9E9E9"/><path d="M6.451 5.606c-1.3.1-1.4.2-.9 1.5.3-.6.6-1 .9-1.5zm.3 2.2c.3-.5.6-.9 1-1.5-1.3.3-1.3.3-1 1.5z" fill="#797979"/><path d="M4.351 20.006c-.1.1-1.7 3.5.3 2.6-.1-.9-.2-1.7-.3-2.6" fill="#747474"/><path d="M297.351-5.794c-1.7-.1-3.4-.3-5.1-.4-.2 2.1.1 4.2.6 6 1 3 3.7 7.5 2.4 11.3-1.1 3.4.6.9-3.9 2.7-1.8.7-3.4.3-4.6 2.2-2.8 4.3 3.6 4.6 7.2 5-2.6-.2-4.3 1.5-3.7 4.1.4 2.1 3.2 2 3.9 3.7.9 2 .3 3.1.2 5.2-.1 2.8-1.4 7.8 2.8 7.8 0-1.1.1-2.3.1-3.4-.2-.7-.2-1.6-.1-2.6 0-.2.1-.5.2-.8 0-2.1.1-4.2.1-6.2-.4-.7-.7-1.5-.7-2.3-.1-2 .5-3.1.8-4v-1.5c-.2-.8-.9-1.7-2.2-3.1-.5.2 1-.8 2.3-1.6 0-1.1.1-2.1.1-3.2-.2-.6-.2-1.3 0-2.4 0-.1 0-.1.1-.2.2-5.4.4-10.9.8-16.3-.3.1-.8 0-1.3 0z" fill="#868686"/><path d="M172.951 2.406c1.6-1.9 11.7.3 12.3 1.2 1.7 2.2-5.2 7.1-6.3 7.9-5.5 3.8-6.8 5.3-6.6 12 .1 2.8 2.4 7.7 5.6 8.7 3.4 1 3.8-2.8 6.5-2.1 6.7 1.8 12 2.7 10.2-4.3-.9-3.3-1.1-3.8 1.3-6.1 1.6-1.5 7-1.8 7.2-2.9.2-.9-3-3.6-4.5-3.6-2.6 0-.3.7-2.1 1.6-2.6 1.3-6.2 3.7-9 5.3-2 1.2-4.1 1.3-5.7 2.1.2-.1-5.2 4.1-4 4-.9.1 1.5-6 1.8-6.2 1.7-1.5 2.4-.3 3.7-1 1.7-.9 5.7-2.8 7.7-4.5-2.8 3.6 7.3-2.1 6.6-1.9 1.2-.3 2.5-1.3 3.8-.8 2 .8-.6 3.8 2.2 4 .6-2.5 2.2-8.6.1-10.9-.6-.7-9.4-.7-9.2.7-.3-2.2.8-1-.7-2.8-2.7-3-8.1-6-11.5-5.3-1.1.2-17.9 2.3-17.9 1.9-.3 2.2 6.1 3.8 8.5 3" fill="#818181"/><path d="M160.651-5.294c-4.3.1-8.7.4-13 .8.1.6.4 1.1 2.5 2 1.4.5 4.1-1.2 5.4.1 1.2 1.1.4 2.1.9 2.9.4.6-4.7-.8-.8 3 2.7 2.6 2.4-.6 4 0 1.2.5 3.8 1.6 5.9 1-.9-2.8 1.6-2.1 3.9-2.2-1.4-1.7-6.2-5.5-8.8-7.6z" fill="gray"/><path d="M166.051 7.006c-.7.5-.7 1 .1 1.3.7-.3.6-.8-.1-1.3" fill="#E6E6E6"/><path d="M210.851 38.406c1.1-.7 4.9 3.1 6 4 2 1.5 1.6 2.5 3.9 2.5 1.8 0 2.4-2.2 5.1-1.2 2.9 1 2.3 3.1 5.2 2.6 3.5-.6 2.3-4 3.7-7.5.8-2.1-.3-2.8 2.6-4 .1 0 2.2.1 2.5.1 1.3.1 5 1.5 6.1 2.3 2 1.4 2.5 4.5 5.5 4.7 1.4.1 2-2.5 4.1-2.1 2 .4 2.1 2.8 3 3.8 1.9 2 4.2 5.4 7.4 1.2 2.9-3.8-4.1-1.6-4.1-1.6-2-2.2 10.1-7.8 8.6-11-1-2.3-3.6-.6-4.7-.6-.8 0-2.5-.1-3.4 0-1.8.2-2.9 2.2-4.9.2-1.5-1.4.6-.9-.2-2.7-.8-1.6 2.9-5.4-3.2-6.2-2.9-.4-5.3.7-5.3 4.1 0 3.8.4 1.2 2.4 2.2-2.4 2-4.2-2.6-5.4-.1-1.5 3.2 2.3 2.7 3.6 3.4 3.2 1.8 3.4 1.8 7.2 2 2.1.1 6 .6 6.1 2.1.1 2.7-2.2 2.3-3.2 2 .1 0 1.3-2 .4-2.5-1-.6-1.8 0-2.3-.2-.5-.1-4 .6-5.1.4-3.1-.6-5.3-2.7-8.5-3.9-.7-.3-4.9-1.4-5.3-1.4-1.4 0-2.3 1-3.9 1.2-1.7.2-6.6-1.6-9.2-.3-1.7.9 1.3 4-2.6 4.5-.6.1-4.2-3.6-4.9-4.1-3.8-2.4-2.3-2.2-4.9 1.2-.6.7-4.1 4.6-3.2 5.2.1.1.5-.1.9-.3" fill="#ADADAD"/><path d="M210.351 38.706c-3.9-.1-5.4-4-7.3-6.4-5.9-7.3-10.8-.6-10.8-.6s-6.4-3.2-7.1-3.2c-2.6.2-2.6 3.8-6.2 3.1.7 2.1 6.1 3.1 8.1 3.4 2.3.4 2.4 1.1 4.7.7 1.1-.2 3.8-3.3 5-1.9 1.2 1.5-2.5 7.5.6 9.2 2.4 1.3 3.5-2.9 4.7-2.7 1 .2-.6 3.2 1.5 3.6 2 .5 6.7-4.4 6.8-5.2" fill="#929292"/><path d="M203.951 43.906c-1.6-.9-.3-4.7-1.6-4.8-1.6-.2-.7 2.4-1.7 2.5-3.5.1-2.9 1.4-3.5-3.1-.2-1.6.1-3.6 1.3-5-1.5-1.8-6.7 1.9-9 1.7-2.5-.2-5.5-1.2-8.3-1.6.4.5 6.2 3.2 7.1 3.4 3.4.8 4.4-2.2 8.1-2.3.2 1.4-2.2 2.6-2.1 4.8.1 1.2 2.3 1.5 2.4 3.4 0 1.2-2.6.6-2 2 .6 1.4 3.6 3 5 1.8-4-.5 1.2-4.6 2.4-5.1.1 2.2.1 2.8 2.1 3.7-.2-.6-.2-1-.2-1.4z" fill="#818181"/><path d="M200.151 44.406s1 3 1.7 1.7c.5-.8-1.8-1.7-1.7-1.7M212.051 47.006c-1-10.8-9 1.6 0 0" fill="#717171"/><path d="M269.851 50.906c.4 5.2 6.6 2.2 9 .4 2.6-1.8 7.6-4.5 4.3-7 7.2.9 10.2-1.7 8-8.7-.6-2.2-1-6-4.6-5.1-4.1 1-.9 4-3.2 5.5-1.5-2.1-1.8-2.3-4.6-2.8-1.3-.2-4.2 1.4-4.5-1.1-.1-1.2 3.4-1.7 3.4-2.2 0-2.2-1.6-4.2-5.3-4.2-3.5.1-2.7 1.5-2.4 4.3.2 1.5 1.8 2.8 1.5 4.3-.3 1.4-1.5.5-2 1.5-1.1 2.3-4.6 8.9-3.1 11.1.8.3 1.6.3 2.5 0-.2 1.7-.2 2.3.9 3.6" fill="#8F8F8F"/><path d="M267.051 45.906c1.3-1.3.3-3.7.8-5.3.5-1.6 1.3-2 1.6-3.9 5.4 0 .7-3.4 1.2-6.8 1-6.7 4.2 1 6.3-1 1.1-1.1-1.2-4.7-2.5-5.3-1.2-.6-3.4-.3-4.8-.1-.7 1-1.7 1.7-3 2-.9-.1-1.5-.5-1.8-1.1-.2-.6-.7-1-1.4-1.2-.8.4-1.3 1-1.5 1.8 0 0-3.9 2-4 2.1-2.9 3.1-1.9 4.8 2.3 5.6 1.3.3 4.5-1.6 6.2-1.1 6.8 2.2.1 4.4-.7 2.6-1 1.3.4 2.2-1.1 3.8-1 1.1-1.4 1.4-2.3 2.7-.7 1-5 1.4-1.4 3.4 1.5.8 4-1.1 4.5-.4 1.2 2-3.3 2.3-4.1 2.2-2.9-.5-2.1-3.5-3.8-5-4-3.6-8.3 3-9.4-3.2-2.4.7-.8 2.8-2.1 4.3-1.6 2-3.2 1.5-3.4 1.6-1.1.7-5.4 4.6-5.6 6.5.7-.7 1.5-.8 2.3-.3-.8-.5-1.3 4-1.4 4.8 3.3-1.3 7.3-2.7 9.8-5.4 1.1-1.2 6.8-7.4 6.8-8.6 3.5 1.4 2.4 3.2 4.7 5.1 3.1 2.1 4.7-.8 7.8.2m-20.5-8.7c-2-1.3-4.2-3.7-6.7-2.4 2.3.1 2.4 4.9 4.2 4.5.1.1 2.2-2 2.5-2.1" fill="#9E9E9E"/><path d="M217.251 55.306c-.3-.8-.6-1.5-1-2.3-1.1.6-1 2.9 1 2.3" fill="#7B7B7B"/><path d="M186.351 38.306h-1.6c.5 1.1 1 1.1 1.6 0" fill="#606060"/><path d="M196.151 43.606c1.2 2.2.5-.9.3-1.4-.1.4-.2.9-.3 1.4" fill="#7B7B7B"/><path d="M181.551 4.806c-.1-.1-3.6-.1-3 1 .6 1.2 3.1-.4 3-1" fill="#606060"/><path d="M173.551 14.906c1.6.4 2.3-1.2 2.9-2.3-1.7-.3-1.7.6-2.9 2.3" fill="#717171"/><path d="M178.351 8.906c-.8.5-.7 1 .2 1.4.7-.3.6-.8-.2-1.4" fill="#606060"/><path d="M297.451 40.606c-.9-.2-1.7-.7-2.3-1.8-1.3-2.6 1.6-6.4 1.4-8-.6-3.2-5.3-4.1-5.6-6.2-.7-5 6.1-1.6 6.3-2.6.7-3.4-9.5-.7-10.2-3.9-.9-3.8 8.2-3.5 7.6-4.7-1.7-3.7-7.4 1-8.5 2.5-5.1 6.9 4.1 3.2 2.5 7.7-.2.5-6.4 6.1-7 6.3-2.3.9-2.4-.3-4.7-1.1-.4 2.9-5.6 0-3.5 4.1 1.4 2.7 3.7.2 5.8.9 4.7 1.7.9 1.6 3.5 3.9 2.8-1.4 1.8-8.8 6.4-5.7 1.3.8 2.6 8.2 2.1 9.2-1.5 2.9-8.7.9-9.4 2.4-1.1 2.2 4.2 2.4 1.6 6.6 2-.8 2-2.5 4-3.2 1.8-.7 1.6 1.5 3.2 1.2 2.4-.5 2.9-2.8 4.7-4.1.7-.4 1.4-.8 2.2-1.1-.2-.8-.1-1.6-.1-2.4z" fill="#9A9A9A"/><path d="M155.151 11.206c-.9.4-1.1.9-.7 1.6 1.1 1.2 2.6-1.5.7-1.6" fill="#F1F1F1"/><path d="M292.951-6.194c-1.5-.1-3.1-.2-4.6-.3-.1 2.8-.4 5.4.4 6.4 1.2.8 2.5 1.1 3.9 1 .7 1.3.9 2.7.5 4.3-.2-.3 2.2 4.2 2.9 1.7-1.1-3.3-3.2-8.1-3.4-11.1 0-.4.1-1.2.3-2z" fill="#A4A4A4"/><path d="M285.251 14.206c1.4.8 5.6-.8 7.7-1 .9-.1 1.5 1.9 2.6 1.3 1.8-1 .5-5.4.5-7.4l-10.8 7.1z" fill="#A4A4A4"/><path d="M190.251-2.794c-1-.6-6.1-1.7-7.3-1.9-4.1-.6-4 1.1-7.3 1.9-1.3.3-6.2.8-7.5.7-3-.4-2.8-2-4.1-3.3-2 0-4 .1-6 .2 0 1.6-.1 3.5 1.8 5 2.9 2.4 5.7 1.4 9.2.8 4.2-.7 8 .2 12.1-1.2 2.6-.8 2.5-2 5.1-1 .8 1.7 2 2.7 3.5 3.7 1.6.6 3.2 1.3 4.8 1.8-.3 1.1-.8 2.1-1.7 2.8 2.3 0 7.7-2.8 9.7-1.3 1.3.9 1.7 8.8.8 10-1.8 2.5-16.5 3.9-9.3 11.2 1.9 0 .6-2.3 1.4-2.9 1.5-1.3 2.6-2.7 4.3-4 1.5-1.1 2.4.4 3.8-.9 1.4-1.4 1.2-3.6 1.5-5.2.4-2.1 1-5.2.6-7.2-1.1-5-13.5-8.1-15.4-9.2z" fill="#8E8E8E"/><path d="M203.051 16.306c1.5-3.2-.9-5.4-3.3-5.5-3.3 0-4.9 3.8-8.1 4.5.6-.9.6-1.7-.1-2.5 0 0-4.9 2.1-4 1.3-1.5 1.1-2 3.4-3.2 4.4l-3-1.2c-1 .4-1.8 1-2.2 2-1.5 1.4-2.1 4.1-3.5 5.8 1.1 1.2 1.5 2.3 2.9 3.3 1.3-1.5-.1-4 2.5-5.5.9-.5 1.6 1.5 2.6 1.1 1.4-.6 2.6-2.1 3.9-2.8 2.7-1.4 5.3-2.1 7.8-3.8.8-.5 2-2.8 2.3-2.9 1.8-.4 3.3 1.7 5.4 1.8" fill="#6D6D6D"/><path d="M204.251 15.506c-1.7 4.4-1.2 1.7-3.8 3.4-2.8 1.7-3.7 1-5.4 4.1-.8 1.5-.2 4.4-1.1 5.8-.3 1.1-.9 2-1.8 2.7-1.2-.2-2.4-.3-3.5-.3-3.7 5.3 8-.6 8-.6 4.3-.9 5.4 1.1 7.7 4.9 4.2-.9-6.7-12.8-7.2-11.8-1 2.2 13.4-8.7 7.1-8.2" fill="#A6A6A6"/><path d="M288.251 13.106s9.5-2.7 6.3-4.3c.8.6 1.3 0 1.5-1.8-3-1.5-1.2-8-4.6-6.1 0 1.4 0 2.9.1 4.3-1.4.5-2.4 1.5-3 2.9-1.6 1.7-2.6 3.2-5.1 3.8-6 1.4-11.8-3.6-19.3-.2-.5.2-.9 1.7-1.8 2.3-1 .6-3.6.8-4.4 1-1.1.3-3.6.6-5.3 1.4-2.3 1-2.7 3.7-5.3 4-3.2.3-7.2-5.2-10.2-3.9-3.9 1.8-1.2 8 3 8.4-3.5-.5-6.9 1-10.3.7-1.5 4.9 8.2 1.2 9.6 3 .6-.4-7.8 3.5-4.2 4.2 3.6 0 2.4-.5 5.7.3 3.1.8 5.9 2.9 8.9 3.8 1.7.5 10.1 1.3 9.4-.6.7 1.7-2.4 4.6 1.6 3.8 1.8-.3 2.4-3.5 4.2-4.4-1.4-2.3-7.7-2.1-10.1-2.8-.8-.2-2.5.1-3.1-.1.8.2-1.8-1.7-1.2-1.4-1.8-1-5.6-2.6-4-5.5.9-1.7 4.7-2.8 6.9-2.5 1.8.2 2.7 2.8 4.8 2.5 3.2-.4.7-.9 3.2-3.2 3.2-2.8 4.3-2.7 8.4-1.8 1.1.2 2.7 2.3 3.8 2.1 3-.5 2.5-3.1 4.4-4.3 2.3-1.5 4.6-1.5 7-3 .6-.1 2.3-2.6 3.1-2.6" fill="#B5B5B5"/><path d="M235.251 27.306c-3.9-.2-4-.1-6.2-2.9-1.2-1.5-3.1-7.5-4.6-8.2-1.6-.8-6.6 4-7.7 6.1-2-1-2.4-5.8-1.6-7.2 1.8-3.2 1.6-.3 3.8-2.6.7-.7 2.6-5 2.9-5.2 2-1 3.3 1.4 4.3 1.1 2.8-.8 3.3-6.3.4-7.1.5.1-3 1.8-2.8 1.8-3.2 1.3-4.1.2-5.9 4-3-5.4 19.5-8.6 28.8-12.9-3 .2-6.1.4-9.1.6-.3 0-.7 0-1 .1-1.8 1.1-2.8 2-5.5 2.4-3.6.5-5.5-1.5-8.9 2.3.3-.7.9-3 .3-4.1-1 0-2 .1-3 .1-1.9 1.3-.8 3.8.1 3.4-2 1.8-1.9-.4-3.7.3-1.5.6-1.3.6-2.9 1.8-3.6 2.7-3.7 7.4-3.4 11 .1 1 2.6 4.8 1.3 6.2-1.3 1.4-1.8-1-2.6-.9-2.1.2-.4 1.1-1.3 1.9-1.4-.7-.5-5.4-.5-6.3.7-.5 1.3-1.2 1.8-1.9-.7-.7-1.1-1.6-1.4-2.5.6-2.5 2.5-9.7-1.5-4.1-2.2 3 .2 9.8-1.2 13.2-1.6 4-3.7 3.2-6.8 5.4-1.4 1-2.5 3.9.5 1 .2.3 0 3-.6 2.7.8.5 3.1 1.2 3.6 1.7 1.9 2.1 2 5.5 3.6 7.3.4 0 1.7-1.2 2.7-1.2 1.8-.1 1.9-.6 3.7-1.6 3.3-2 3.9-1.3 0-2.8-.8-.3-6.5-1.8-6-.7-.8-1.5.8-2.4.9-3.8.1-1.3-1.2-2.8-.9-4 .8-.3 1.7 1.5 2.2 1.2.6-.4 2.2-1.7 2.8-1.7 1.9 0 3.4-2 4.5 1.8.3 1.1.6 3-.5 3.8-1.7 1.1-2.6-2.8-4.7-.6-3 3.1 1.4 3.2 2.9 4 2.3 1.2 5.3 2 7.8 3.4 2.9 1.6 1.2 2.8 3.8 1.2 1.7-1-2.1-3.3 1.9-4.4 1.8-.5 2.8 1 4.3 1.6 1.1.4 3.6 2.1 5 1 1.5-3.2 1.4-3.1 5.1-2.8 3.1-3.1-3.7-2.9-4.7-2.9z" fill="#BABABA"/><path d="M288.251 13.106c-.2 0-7.3 3-8 3.4-1.7.8-4.5 5.4-5.5 5.6-2.5.4-1.5-.9-3.8-1.6-3.2-1-7.3-.8-10.6 1.1-1.5.8-4.2 6.2-3.7 7.4 1.7-2.5 2.2-.3 4.2-1.6.9-.6 2.3-3.3 2.9-3.5 1.8 1.2 1.9 2.6 4.7 2.5 1.6 0 1.9-4.7 4.2-1.1 2.5-2 3.5 3.3 5.9 4.8 3.7 2.5 4.8-.5 7.9-3.4 1.1-1 2.4-.8 3.3-2.8 2.4-5.1-.7-1.4-2.2-3.6-.8-1.1-2.6 1-2.1-2.5-.2-.2 3.1-2.8 2.8-4.7" fill="#A6A6A6"/><path d="M234.651 33.106c-1.3-1.1-5.1-6.5-3.8-2.1-1.8.4-2.8-2.7-5.8-1.6-3.9 1.3-.9 2.9-2.4 5-.4.1-4.9-2.3-5.5-2.8-4.9-4-9.2-3.3-9.2-3.3l-.4 1.5s1.7 7.9 6.1 4.4c2.2-1.7-1.1-1.6 2-1.8 4.2-.2 3.5 4.4 5.9 5.1 1.2.3 3.4-.9 4.2-1.6 1.2-1.1-.4-2.8.3-3.3 1.7-1.2 7.6 2.4 8.6.5" fill="#B5B5B5"/><path d="M250.251 23.906c-2.5-.3-3.8-1.3-4.7 1.2-.7 1.9 1.4 4.3 2.9 4.9 6.2 2.6 4-4.4 1.3-.9-1.5-2.4 1-2.7.5-5.2" fill="#A6A6A6"/><path d="M211.451 36.606c.2-2.1 1.5-3.6 1.3-5.6-.8.5-2.7 1.4-3.5 1.4 1.4-.1-3.7 1.8-2.5 1-1.2.8-1.2-1.5-2.1 1.2-1.1 3.3 2.3 1 3.6 1-1.1 0-2 .4-2.8 1.2 3.5 1.7 2.9 3.4 6-.2" fill="#C4C4C4"/><path d="M267.051 31.406c-4.2-.7-7 .6-11-1.1-.8 4.3 9 2.1 11 1.1" fill="#A6A6A6"/><path d="M255.551 27.406c-1.8-.2-2.2.4-1.1 1.7.4-.6.7-1.1 1.1-1.7" fill="#B5B5B5"/><path d="M199.651 40.006c.7-.3.7-.6.2-1.1-.7.3-.8.7-.2 1.1" fill="#D7D7D7"/><path d="M203.651 41.906c-.6.6-.5 1 .2 1.2.6-.4.6-.8-.2-1.2" fill="#D1D1D1"/><path d="M276.051 32.806c.7.5 1.3.5 1.9-.2-.5-.5-1.9-1.1-1.9.2" fill="#A6A6A6"/><path d="M284.351-2.294c-1.5-.7-2.7-2.1-4.4-2.3-5.4-.9-4.1 4.6-5.9 5.2-4 1.3-1.4-1.7-1.4-2.4 0-1.6.3-3.3 1.1-4.9-2.1 0-4.2 0-6.3.1-.5.9-1.1 1.8-1.6 2.9-1.1 2.5-3.1 5.1-3.9 7.6-.8 2.6-1.4 7.9 2.2 7.4 1.5-.2 2.7-3.3 4.4-3.9 2.3-.8 1.4-.6 3.7.2 3.7 1.4 4.3 5.2 8.9 5 4.5-.3 5.8-5.2 9.3-5.7 2.6-1 2.7-4.6 1-6.8-1.3-1.9-5.3-1.6-7.1-2.4z" fill="#979797"/><path d="M264.251-6.594v.1c-.1.6-.1 6.6-.1 6.6 1.4-.2 3.5-4.1 4.3-6.8-1.4 0-2.8.1-4.2.1z" fill="#A6A6A6"/><path d="M232.051-4.794c-7 .3-14 .5-20.9.4v.4c0 1.8 1.6 1.9 3 .5-2.2 3.5-4.1.1-6.8 1.7-.6.4-3.4 5.3-1.6 6.3.3-.9.9-1.4 1.9-1.4.5.2-.5 1.9-.8 4.2-.7 3.8-1.1 9-.7 9.9.9-.7 1.1-3.2 2.3-3.4-.1-.1.7 1.9.8 2.7-.2-.4-1.6-1.1-2-.6-.6.6-.1 2.4-.7 2.5-.4 1-.1 1.9.9 2.5.5-.8.7-1.7.7-2.7 1.4-.5 2.1 2.1 3.9-.3.1-.1-.2-5-.1-4.9-2.1-.6-2.5-2-1.3-4 .3-1.3.4-2.7.4-4 1.2-2.3 4.6-2.1 4-4.5 4.4 1 3.6 1.6 6.7-2.9-.8.1-1.6.4-2.3.8-.6-1.1 4.7-4.7 1.8 2 2.7-.2 3.8-2.4 6.1-2.8 1.6-.3 5.7 2 6.8-.1-.2-.6-1.9-2-2.1-2.3z" fill="#A8A8A8"/><path d="M194.951-.494c-1.3-.9.1-2.2-2.9-3.2-1.5-.5-4.6-.4-6.4-.8-5.3-1.2-9.6 1.4-14.6.3-.3-.1-.5-.8-.7-1.3h-4.5c-.2.1-.4.1-.7 0h-1.8c.8 1.5.7 3.1 3.1 4 2.2.8 1.2-.3 3.7-.3.8 0 5.6.2 6.2.1 1.7-.6 1.4-2.3 3.8-2.8 2.1-.4 7 1.3 8.8 2.3 1.1.6 2.4 2.1 3.3 2.6 2.1 1.2 2.3 1 5.4 1.7-.8.9-1 1.8-.6 2.8.4.5 4.8-.9 2.4-3.8-1-.9-3.6-1-4.5-1.6z" fill="#9F9F9F"/><path d="M205.251-2.394c-1.9.6-.7 3.7-3.3 4.2-.8.1-4.1-2.1-4.4-2.8.4-2 1.3-2.7-.6-3.7-2.1-.1-4.1-.2-6.2-.3-1.6.3-3.2.7-4.1 1 2 1.3 4.9-.4 6.5.7 1.8 1.2.5 2.6 1.8 3.8 1.1 0 2.1.2 3.1.5.8.8 1.6 1.7 2.5 2.5 4.3 2.5 3.9-1.2 4.6 4.3.5-3 4.7-11.7.1-10.2z" fill="#A0A0A0"/><path d="M204.251 15.206c.9-2.2.7-4.6.8-7-1 1.6-.7 5.3-.8 7" fill="#A6A6A6"/><path d="M264.151.106c.3-1.7 1.9-2.1 1.4-3.8-1.8-.5-7.5 6.7-9.7 8-5.7 3.5-6.7 2.3-11.7-1.6-2.6-2.1-4.4-5.3-8.1-1.6-.5.5-1.9 5.9-2 6.9-.2 1.5.9 5.4.2 6.6-.9.3-3.6-10.3-5.5-2.3-.5 2 1.6 6.7 3.8 7.5-1.8 2.4-3.6-1.8-5.3-.2-2.3 2.1 2.6 7 4.9 7 0 0 9.3-.5 9-.2 1.9-1.7-.9-1.8-1.3-2.6-1-1.5-7.3-4.2-2.4-6.6.7-.3 6.5 3 7.1 3.2 4.5.9 3.5-.2 7.3-2.5 2.3-1.4 4.5-2.4 6.9-.4l-.3-2.1c1.4 0 3.6.6 4.9 0 .4.5.9.6 1.5.2.3-1 .2-2.1-.2-3.1 4.1-3 9.7-.7 14.1-.4-2.5-2-5.4-7.2-9.1-6.7-2.7.3-4.5 5.5-6.6 5.5-1.5-3 1-8 1.1-10.8" fill="#AAA"/><path d="M273.451 11.806c-2.5 1-4.1 6-.5 6.3 3.5.2 5.5-6.1.5-6.3" fill="#CFCFCF"/><path d="M290.551 6.806c-2.6-.4-8.7 4.6-11.9 5.2 2.3 5.9 10.3-3.9 11.9-5.2" fill="#AAA"/><path d="M294.851 9.006c0-.9-.4-1.4-1.3-1.4-2.3 1.4 1.4 1.5 1.3 1.4" fill="#F0F0F0"/><path d="M243.751-5.594c-3.3 1.7-7.3 3.2-9.7 3.8-2 .5-4.3-.3-6.2.3-2.4.6-2.9 2.6-4.7 3.4-2.4 1.1-10.9 3-4.9 7.5.6-1.4.9-4 2.4-4.9 2.2-1.3 3.3.7 5 0 .9-.4 2.1-4.1 4-3.6 4.2 1-.5 8.5 3.3 8.3 3.2-.2 2.3-7.9 4.4-9.3 3.1-2.2 5.3.5 7.7 1.9 2.7 1.6 3 2 6.9 1.7 4.5-.3 4.4.7 4.6-3.9 0-.2-.5-3.3-.9-5.9-4.1.3-8 .5-11.9.7z" fill="#C6C6C6"/><path d="M230.551 1.006c-4.8-3.7-3.1 6.6-3.9 7-3.6-4-3.6-2.7-5.9.4-1 1.4-1.4 2.6-2.7 3.9-.5.5-1.3-.8-2-.1-1.6 1.8-3.9 8.4-.2 10.1 4.5 2 5.4-5.4 7.5-6.1 2 3.9 3.6 6.2 6.2 9.7-4.1-9-.5-2.4 4.4-5.8-1-.7-2.5-3.3-3.5-1.9 1.5-1.3-2.6-4.9-.8-7.1 2.6-3.1 2.9 4.6 3.8 5.6 3.3-1.5.7-5.7 1-8.7-1.2-.8-1 3.4-2.9.3 0 0 1-7.5-1.2-5.5-.7.6.2 1.8-.4 2.6-1.4-2.5 1.7-3.2.6-4.4" fill="#B5B5B5"/><path d="M208.551 28.506c3.2-5.3 3 1.6 6.4-1.1 2.6-2.1-1.2-7.6-2.4-9.4-1.1 1-3 2.7-4.5 3.1-.9.2-3.1-1.2-3-1.3-3 2.6.5 2.6.4 5-.1 1.7-3.6 5.5-.6 6.4 1.6.4 3.2-1.5 3.7-2.7zm7.6.1c-.1 5.3 5.7.3 6.9-.1 3-1 6.3.9 4.8-3.6-1-3.1-4-4-6.1-3.5-3.9.9-4.2 4-5.6 7.2z" fill="#C4C4C4"/><path d="M206.251 18.406c.9 1.2.6-1.1.9-1.6 1.3-.4 2.4 2 3.4.6-1.3-1-.4-4.9-2.1-5-2.4-.3-2.6 4.5-2.2 6" fill="#A1A1A1"/><path d="M286.751 23.206c.3-.8.2-1.3-.5-1.6-1.1.3-.9.9.5 1.6" fill="#9A9A9A"/><path d="M205.451 36.906c.4 0 5.7-.3 4.8-2.3-.9-1.8-4.5 1.4-4.8 2.3" fill="#E3E3E3"/><path d="M281.951-5.694c-.1-.3-.2-.7-.2-1-2.9-.1-5.9-.1-8.8-.1-.7 1.7-1.3 3.7-1.3 4.3 0 1.1-2.9 2.8.6 4.3 4.2 1.7 2.4-4.1 5.4-5.3 2.8-1.1 7.2 1.5 10 2.4-2.1-2.1-4.5-1.4-5.7-4.6z" fill="#A4A4A4"/><path d="M254.751-6.194c.5 2.3.7 4.7.7 5.8-.1 3.9-1.6 6-7.1 4.6-2.4-.6-10.6-10.7-12.6-2.7-.1-.2 3.9-.9 3.5-1 2.6.8 3.6 1.5 6.4 4.2 3.5 3.4 5.3 3.4 9.7 1.2 3.4-1.7 8.2-5.1 9.5-8.8.4-1.1.4-2.3.2-3.6-3.5 0-6.9.1-10.3.3z" fill="#B8B8B8"/><path d="M212.651-4.394c-.9.7-1.9 1.4-3.2 1.3-.9-.1-1.6-.7-2.2-1.3-2.6 0-5.2-.1-7.8-.2 0 .3.1.6.3 1 .4.9 5 1.4 6.5 1.1 1.4 1.3 4 3.6 6 2.6.5-.2 2.6-2.9 2.9-4.4-.8-.1-1.6-.1-2.5-.1z" fill="#BABABA"/><path d="M210.351-.194c-3.6 1.6.6 3.4.6 3.2 0-.5 0-2.9-.6-3.2" fill="#A0A0A0"/><path d="M210.851 3.006c-.9 0-1.5-.5-2-1.2.2 1.3.7 2 2 1.2" fill="#A1A1A1"/><path d="M208.051 8.006c-.5.3-.6.6-.1.9.5-.2.5-.5.1-.9" fill="#BABABA"/><path d="M210.351-.194c.1.6.2 1.1.3 1.7.6-1.1.6-1.1-.3-1.7" fill="#A1A1A1"/><path d="M203.051-4.494c-.7.6-1.5 1.1-2.4 1.6.1-.6.1-1.2.2-1.6-.7 0-1.5-.1-2.2-.1 0 .3 0 .5-.1.7-.1.4-2.8 2.7-2.8 3 .1.4 4.3 3.6 4.3 3.6 5.2 1.1 3.8-2.5 6.2-5.1-.6-.6-1.1-1.2-1.5-2-.6-.1-1.1-.1-1.7-.1z" fill="#ADADAD"/><path d="M240.951 3.806c.1.6.3 1.2.4 1.9-3.4.7-2.7-4.8-5.1 1.1-1 2.3-.4 4.2 1.3 6 1.4 1.4 5.2 1.1 6.9 3.2 1.2 1.5-1.4 2.4 1.1 3.5.9.4 10-6.3 10-6.6 0-3-6.9-3.2-8.4-4.1-1.6-.9-4.3-5.7-6.2-5" fill="#9A9A9A"/><path d="M236.051 1.606c-.6 1.5-1.5 7.8-4.3 6.7.1.8.4 1.4.9 2 2.4-1.8 4-5.9 3.4-8.7m0-1.2c5.4-2.3 7 .6 11.3 3.3 2 1.2 2.2 2.5 4.1 2.3-.3 0 3-2 3.1-2.3-2.1-1-4.2 0-4.5-.1-2-.5-1.7-1.4-3.3-2.1-1.8-.8-10.4-5.9-10.7-1.1m-5.5.6c0 2.2 1.2 3.6 1.2 6.7.8-2.5.8-4.8-1.2-6.7m-2.6.6c.5-.7 1.1-1.1 2-1.1-1.3-.8-1.6-.6-2 1.1m-3.8 6.9c-.5 3.8 2.2 8.9 3.2 2.8.5.2 1.1.4 1.6.6 1.5-.6-.3-3.7-.8-4 1 .5-3.7.6-4 .6M230.851 16.606c-3.4 4.5 3 4.1 0 0" fill="#BABABA"/><path d="M216.251 21.406c8.4-5-6-8.9 0 0" fill="#A5A5A5"/><path d="M231.151 2.706c-1.6-3.2-4.1 2.3-.6 4.3.9-1.2 1.1-2.7.6-4.3m-4 11.8c.4.7.7.8 1.1.2-.3-.8-.6-.8-1.1-.2" fill="#AAA"/></g><path fill="#DB0E0E" fill-rule="nonzero" style="mix-blend-mode:color" d="M0 0h296v58H0z"/></g></svg>