<svg width="320" height="72" xmlns="http://www.w3.org/2000/svg" xmlns:xlink="http://www.w3.org/1999/xlink"><defs><path id="a" d="M0 0h320v72H0z"/></defs><g fill="none" fill-rule="evenodd"><path fill="#5C29C7" fill-rule="nonzero" d="M0 0h320v72H0z"/><g opacity=".8"><mask id="b" fill="#fff"><use xlink:href="#a"/></mask><g mask="url(#b)" fill-rule="nonzero"><path d="M9.652-1.147c.973 1.285 1.86 2.621 1.587 2.548 2.299.982 2.825-.707 2.89-2.593-1.612.007-3.088.051-4.477.045zM43.723-1.535c-6.896.056-13.842.025-20.688.167-.943-.033-1.923.07-2.865.038.1.173.063.31.026.446-.062 2.692-2.655-.2-3.5 2.137-.846 2.335 4.093 8.49 5.053 9.553 0 0 4.819 4.146 4.682 4.11 2.532.385.91-2.027 1.042-2.796.422-2.669-.924-4.201-1.974-6.02-.25-.433-4.996-4.852-1.138-4.77-2.174 1.833-.122 3.188 1.308 3.864-1.107-.516 2.749 1.762 2.089 1.219-.237-.21 1.982-.567 2.492-.284 1.156.602-1.36 1.246-1.31 1.333-.705.177-.902.636-.675 1.43.56.369 1.156.602 1.79.698.8 1.386 4.402 5.426 4.057.429.26 2.851 2.806 3.46 2.938-.311 1.183 1.049 7.283.414 8.222-.36 1.15-1.009 2.13-6.31 1.84-7.412-.853-2.279-2.452-2.048-3.389-3.47zM101.37 25.112c.925-.996-.577-1.399-.977-2.092 2.804-2.543 4.883-.74 6.938-4.583 1.132-2.039.39-6.923-1.366-8.565-2.516-2.357-2.782-.818-4.904-1.094-.63.71-1.372 1.023-2.315.99-.87-.306-1.306-.862-1.396-1.618-1.69-.526-.617-2.07-3.742-1.882-2.542.198-3.571.215-3.087 3.053-1.066.154-2.86-1.352-3.895.055-.58.796.174 2.901-.332 3.424-4.83 4.636-1.7-2.944-.764-4.523.283-.51 2.115-1.337 2.138-1.697.386-2.532-1.677-3.304-.745-5.69.503-1.33 1.592-1.843 2.331-2.962-6.35.202-12.8.23-19.199.346l.05.086c-.1-.173 1.562 8.105 3.02 7.032-.515 1.106-.039 2.332-.468 3.388-.54 1.466-1.888 2.13-2.537 4.006-.773 2.062-1.678 4.894.885 6.532-3.402-.691-4.383 4.61-4.955 7.018-.939 3.775-1.641 4.758 2.724 7.319 2.972 1.748 2.418-.011 3.959 3.256.713 1.436-.532 3.079 1.147 4.188 2.476 1.688 2.548-1.587 4.63-1.98.505 4.673 2.103 1.441 4.548 1.877 0 0 2.323 3.624 3.363 3.024.14.843 2.985 1.971 3.618 2.067 5.078.995 1.219-2.089 5.376-4.489 2.685-1.55 6.603 1.038 9.034-1.752.876-1.083.914-6.416-.045-7.479 1.929 1.542 4.885-5.938 4.585-6.458.087-.05-7.063-1.233-7.62-.797zM86.94 43.72l.183-.683c-.073.273.25.433.697.406-.397.113-.707.177-.88.277zM323.077 15.12c-.535-5.927-.797-11.78-.066-17.514-.063-.31-.177-.706-.24-1.016l-.2-.346c-.98.104-2.009.12-3.075.274.363.83.627 1.486.69 1.796.33 1.772-1.183 10.15 1.332 9.507-2.465.73-.148 5.744 1.559 7.299zM308.172-3.295c-.136-.037-.36-.023-.446.027 1.186 1.855 2.743 3.15 4.119 2.933.223-.013 5.519-2.84 5.1-2.367 1.092.293 1.835-.02 2.191-.803-3.708.178-7.379.219-10.964.21z" fill="#3A3A3A"/><path d="M139.817-.896c.176.706.563 1.176 1.21 1.496 2.772 1.401 3.82.218 4.346-1.47-1.922.07-3.67.04-5.556-.026zM99.758-2.479c-3.794.228-7.502.406-11.26.497-1.84 4.411-5.67 2.58-1.736 8.393-4.274 1.197.042 6.672 2.756 3.373.25.433.377 1.053.23 1.6 1.929-1.46 1.52-6.767 6.145-4.357 1.157.603.598 3.235 2.56 3.834 3.415.915 3.001-3.003 6.196-1.268 4.352 2.337 2.066 9.777-.606 11.55-.779.45-2.818-.682-4.337.888-1.272 1.196-.512 1.912 1.09 2.488-.792.227-1.075.737-.985 1.493.377 1.053 7.146.378 8.445-.372.177.706-3.086 6.054-3.396 6.117.468-3.388-.856 2.919-.889 3.862-.208 3.238 1.344 3.727-2.62 4.861-2.242.717-2.04-1.132-2.932-1.078-1.426.13-1.359 1.246-2.808 1.736-4.224 1.284-2.705-.285-3.4 5.312-1.456-1.122-3.158-1.871-4.957-1.987.829-.364 1.622-.59 2.365-.904-.05-.087-2.603-2.308-2.84-2.518-.77 5.064-2.099-.635-2.458-.659-.583-.01-4.338.888-4.474.851-1.097-1.099 1.838-2.216-.038-2.865-1.962-.599-4.29.168-4.28 2.587-2.345-.262-2.056-2.162-1.94-3.96-.883-.53-2.918 2.146-3.252-.433-.347-2.801 2.082-.393 2.812-.93-.758-2.911-3.919-2.587-6.481-4.226-1.68-1.108-1.498-4.793-4.862-2.62-4.143 2.623 2.7 4.677 3.473 5.616l-.589 1.38c-.612 1.739-.099 2.828 1.677 3.304 1.06 1.235 3.601 1.038 4.898 2.483.286.297-.413 2.086.037 2.865-.15-.26 2.52 3.164 1.96 2.795 1.53.849 5.147-.085 6.76-.092 2.145-.084 3.664-1.654 6.296-1.095 2.136.499 3.456 4.586 6.477 3.42 2.935-1.118 1.861-5.578 3.816-6.592 1.819-1.05 4.668.885 7.07-.155 2.884-1.204 2.714-3.3 3.75-4.705-.037.136 1.464-2.463 1.97-2.986 2.099-2.366 1.38.59 2.845-1.873.493-.747-.164-3.485.698-4.791 1.109-1.68 2.885-1.204 3.834-2.56.912-1.22.632-2.905 1.408-4.161.98-.104 1.809-.467 2.588-.917.096-.633.106-1.216.166-1.713.556-.436-.454-1.585 1.219-2.089 1.189-.34.744 2.688 1.463 2.735 1.886.066 2.732.732 3.7-1.79 1.166-2.983-1.236-1.942-1.506-4.211.793 2.775 6.113-.412 7.248-1.645 1.556-1.706 2.015-4.511 2.414-6.82.239-1.986.924-3.998 1.3-5.947-6.996-.118-13.992-.236-20.865-.54-5.397-.348-10.844-.783-16.155-1.18zM323.554 19.347c-.243-1.822-.437-3.557-.544-5.343a6.626 6.626 0 0 1-1.114-2.129c-.657-2.738.04-2.332.562-4.827-3.248.374-1.522-7.435-2.216-10.037-.05-.087-.063-.31-.213-.57l-4.018.241c-1.709.64-5.783 2.184-5.92 2.148-1.092-.293-1.902-1.096-2.315-2.012-8.645.026-17.04.486-25.732 1.231-1.426.13-2.938.311-4.414.355.353 1.412 2.509.745 4.128 2.35 2.753 2.568 1.201 5.08 6.339 5.579 2.432.212 3.827-1.17 5.763-1.018 4.367.365 3.256 4.24 5.865 5.158 2.932 1.079 6.284-6.515 9.609-6.356 4.044.205 1.844 4.594 2.51 6.749 1.802 6.12 2.616-.47 5.488 1.104.646.32 2.654 5.396 2.794 6.24.347 2.8-.835 4.753.146 7.652.78 2.551.657 2.738 1.626 3.217.196-3.461.814-6.59 1.656-9.732zM166.782-.991c.536.73 1.036 1.595 1.683 1.915 2.585 1.279 1.149-1.01 3.824 1.025 1.033.79 2.092 7.222 5.186 5.782.916-.414 1.854-4.189 1.564-5.291-.844-2.862.53-.883-2.935-1.885-.421-2.528 3.27-.734 3.22-.82 0 0 1.474 2.151 2.084 2.607-.014-.223 3.525.506 2.782.82 1.486-.628-.034-2.06.919-2.61.952-.55 4.174 1.631 5.443-.371.37-.56.38-1.143.303-1.676-8.05.259-16.061.381-24.073.504zM256.685-.473c.71.629 6.252 5.628 6.785 5.551 1.462-.267.902-.637 1.868-.963-.293-1.91.596-2.77 2.682-2.357.396-.113.742-.313 1.139-.426 1.039-.6 3.764-1.48 5.929-2.73-6.113.41-12.276.736-18.403.925zM253.237-.446c-8.732.076-17.467-.654-26.043-1.707-6.673.042-13.296.17-19.919.3.04.67-.439 1.639.084 2.145.847.666 2.52.162 3.489.642 2.635 1.365 2.43 2.408 5.58 2.667 4.368.365 3.022-1.167 5.56-5.173 1.4 2.425 4.297 1.445 6.273 2.267 2.386.932 2.913 2.244 4.979 3.823 1.083.876 4.092 2.487 5.53 2.58 1.03-.017 2.116-1.337 3.145-1.354.447-.026 2.956.72 2.473.883 1.808-.467 2.717-2.493 4.982-3.57 2.489-1.09 3.279.878 4.208.688 3.012-.584 3.424-2.67 2.697-4.328-.98.103-2.009.12-3.038.137z" fill="#424242"/><path d="M87.965-1.905c.054.893.294 1.909.397 2.888-2.245-.09-3.445-2.168-5.697-.868-1.299.75-2.82 4.515-.418 3.475 1.676 3.305-2.639.83-3.335.424-.32.647-1.721 3.419.497 3.062 8.912-1.565-.546-.147 4.084-2.127 2.315-.99 5.64-.831 5.676-3.97 1.142.38 1.816 1.146 1.933 2.349 1.585-.454 2.08-3.396 2.816-5.322a63.979 63.979 0 0 0-5.953.089z" fill="#424242"/><path d="M-1.068 31.485c-.143 1.352-.322 2.842-.465 4.194.743-.313 1.659-.727 2.734-1.463 1.04-.6 1.666-2.116 2.618-2.666 1.04-.6 2.636 1.365 3.958.255 2.125-1.92-1.329-8.701-2.493-2.718-.88.277-1.943-1.765-2.462-1.465-1.436.714-2.518 2.84-3.89 3.863z" fill="#646464"/><path d="M-1.211 32.837c.94-.773.995-2.075 2.481-2.702 4.11-1.68 3.429 1.138 6.522-3.304.616-.933 2.95-3.089 2.45-3.955-1.45-2.512-3.837 1.754-5.409 2.43-1.659.727-3.534.078-5.43.595-.126 2.382-.352 4.591-.614 6.936z" fill="#5B5B5B"/><path d="M36.053 16.98c.036-3.137-3.872-3.306-5.79-2.43-3.232 1.404-.096 3.635-5.014 2.318 1.446-1.297-.031-4.255-1.424-5.067-3.259-2.044-3.194 1.267-5.95.895-2.122-.276-2.096-2.831-3.895-2.947-2.519-.163-6.709 3.18-4.316 5.725-2.99-2.778 1.348-3.666.481-6.167-.853-2.279-2.782-.819-4.794-1.504-6.038-2.057-2.91-4.44-4.48-8.96l-.05-.087c-.447.026-.944-.033-1.44-.093C.173 6.635.47 14.547-.165 22.649a60.337 60.337 0 0 1-.461 5.001c.283-.51.516-1.106 1.035-1.406.953-.55 2.026.909 2.51.745 2.241-.717 3.57-3.216 5.688-3.746.483-.163 13.074 2.844 10.104-1.1 1.187 1.856 7.193-.341 9.625-.13.496.06 3.501.866 3.675.766.123-.187.21-.237.333-.423 1.19 2.661 5.92.854 7.222-2.091.552-1.243 1.859-.38 1.318-1.916-.176-.707-4.275-1.805-4.83-1.368zm-3.876 4.087c-.15-.26-.264-.657.07-1.08-.11.41-.134.77-.07 1.08z" fill="#4E4E4E"/><path d="M46.456 2.2c-3.085.856-.392 3.92-1.227 5.673-1.439 2.909-7.109 2.488-8.113-.05-1.339.08-.92 4.804-2.5 3.868-1.157-.603.815-3.588-.438-3.558-2.159-.14.314 3.745-1.794 3.692-1.973-.016.232-3.598-3.5-3.06.18-1.49 5.464-1.538 1.262-3.616-2.449-1.241-1.872.158-3.84.948.402-1.503.048-2.915-.925-4.2-.22.819-.776 1.255-1.582 1.259-.03-1.253.686-2.013 2.185-2.416-6.344-1.187-2.028 4.288-1.051 6.38.677 1.572 2.254 4.703 1.991 7.049-2.136-.5-1.25-2.165-2.67-3.424-.733-.27-1.452-.316-2.122-.276-1.102.29-1.452-.316-.863-1.695-.287-.297-3.97-5.676-3.897-5.95.36-2.978 3.785.356 4.03-3.019a1.997 1.997 0 0 0-.276-.88c-2.592.112-5.147.086-7.79.11-.382.336-.975.91-1.864 1.77a33.544 33.544 0 0 1-.64-1.71A274.49 274.49 0 0 1 .2-1.117c.89 2.142-.053 2.11-.596 2.77.104.979.12 2.008.224 2.987.514 1.09 1.364 2.562 1.687 2.722 1.793 1.505 6.563.367 7.523 1.43 1.683 1.915-4.086 4.322-.068 7.083 2.9 2.02 1.906-1.1 1.856-1.187.566-1.02-2.036-.326.482-3.165 2.357-2.516 3.357-.784 3.928 2.004 2.105-.753 3.492 1.448 3.492 1.448.396-.113 1.965-1.596 1.432-1.52 2.182-.22-.238-3.21 3.258-.957 3.495 2.255.147 2.456.168 4.291.04.67 3.318 1.548 3.988 1.508 1.872-.157.233-.596 2.388-1.263 1.45-.49-.12-2.009 2.472-2.12 2.418-.01 3.022 1.835 4.072 3.654.196-.46.406-.697.552-1.243 2.667 5.62 7.898-3.52 8.857-5.46.64-1.293 3.802-6.814 3.34-7.817-.364-.83-1.35-2.338-2.8-1.848z" fill="#4B4B4B"/><path d="M45.199-1.578c.34 1.189.73 2.465 1.207 3.69 1.2 2.079 1.159-1.592 1.075-3.738-.756.09-1.476.044-2.282.048zM71.358-1.67c-1.613.007-3.362-.022-4.974-.015.883.53 1.643 1.245 2.256 2.508.763 1.522.42 2.528.688 3.99-.077-.532.97 3.482 1.053 2.626-.29 1.899-1.961 2.402-2.364 3.905-1.071 4.544.597 3.234 2.778.012 2.218-3.359 1.468-4.658.817-8.785.047-.72.05-2.915-.254-4.241zM59.638 74.032c4.018-.241 8.036-.483 12.103-.637.087-.05.137.036.224-.014-1.407-4.037-6.363-8.22-9.71-5.017 1.432-1.52 1.179-2.759.632-2.905.766-.673.303-1.676-.594-2.429.187.123 1.503.403 2.05.55 2.645.781 1.379.589 2.939 2.69 1.123 1.546 2.433 3.214 3.306 4.327-.287-.297 2.03 1.715 2.99 2.777l3.757-.09c1.682-1.088 2.79-2.767 1.631-4.176 1.397 1.619 7.273.997 9.435 1.943 1.107.516 1.917 1.318 2.676 2.034 3.585.01 7.083.068 10.618-.01.243-1.179.149-2.741-.301-3.52-.864-1.696-2.409-.573-3.109-1.786-.55-.952-1.703-.749-1.956-1.988-.227-.793 1.998-2.54 2.254-3.495.632-2.906-1.218-6.11-3.434-7.948-1.556-1.296-3.328-.965-5.394-2.544-.56-.37.425-1.862-.471-2.615-1.83-1.368-3.332-1.771-5.308-2.593.67-.04 4.398 1.617 4.545 1.071-.901-4.56-9.036-1.25-11.231-1.252-.36-.024-3.612-.456-3.798-.579-1.357-.949.226-2.209-2.38-2.321 2.937-6.314-4.751-3.03-6.072-7.117-.29-1.103 2.475-1.314 1.638-2.563-1.286-2.028-2.626-1.948-5.317-2.01-.815-4.61 4.277-.392 4.842-4.413.29-1.899-1.797-5.313-4.162-4.41 0 0-3.044 4.53-2.834 4.292-1.182 1.953-1.663-3.08-1.925 2.266-.096.633 1.604 3.578 2.077 3.998.673.766 3.105.978 3.455 1.584.65 1.126-.149 2.742.265 3.658.726 1.659.52 2.702 2.523 3.97 3.445 2.168 2.551-.78 5.155 4.53.563 1.175 4.82 7.147 4.54 8.463-2.415.817-4.994-1.85-6.257-1.237-1.782.914.391 4.278-2.247 5.108-1.759.554-2.716-2.704-4.602-2.77-3.584-.01-2.174 1.833-2.517 2.839-.11.41-1.332 1.693-1.762 2.749-.306.87-1.644 3.952-1.69 4.671-.466 4.195.83 5.64 3.416 6.919z" fill="#515151"/><path d="M74.467 3.116c-.729.537-1.095 1.903-2.388 1.264-1.305 2.139.108 4.787-1.803 7.276-1.455 1.88-2.845 1.873-3.52 3.303-1.366 2.636.401 6.696-2.51 7.453-2.119.53-2.74-2.344-5.128-1.08-.866.5-3.19 5.074-2.726 6.077.163.483 3.765 1.52 4.544 1.07 1.126-.65 1.312-3.528 1.778-4.72 3.415.915 3.162 2.677 3.113 5.592.58-.796 1.21-1.506 1.702-2.252-3.955-2.451 3.502-7.334 5.448-7.765-.904-2.365-2.676-2.034-2.17-5.56.275-2.121 1.624-2.785 4.016-3.242-2.31-3.4.748-4.704-.356-7.416z" fill="#4B4B4B"/><path d="M86.57 10.678c-1.703-.749-.577-1.399-1.66-2.275-9.011 1.392 4.172 12.026 1.66 2.275" fill="#626262"/><path d="M73.012 35.595c-1.506-1.208-5.15-.72-3.304 1.677 1.446 1.705 4.058.429 3.304-1.677" fill="#515151"/><path d="M77.805 31.096c-.357.783-.193 1.266.526 1.313.63-.71.43-1.056-.526-1.313" fill="#E1E1E1"/><path d="M189.156-1.438c.35.606.65 1.126.403 1.5-.81-.804-2.992-.583-3.93.19-2.226 1.747-.46-.196-.737 1.926-.505 3.525 3.894 8.144 7.029 7.374 3.531-.884 4.855-7.191 6.45-11.23-3.039.138-6.127.19-9.215.24zM323.052 54.278c-.93-5.813-1.689-11.726-1.728-17.593-.05-3.088.222-6.017.594-8.772-2.016-1.492-1.166-11.22-1.656-12.669-2.783-.819-.63-2.292-1.477-2.958-1.607-1.382-1.96.207-3.698-.405-.826 1.17-1.856 1.187-2.902.174.676-1.43.905-2.832.502-4.331-.234-2.405-1.95-3.377-2.12-5.473-4.261 1.42-7.176 4.373-10.126 7.463-2.033-2.522-1.74-3.615-3.966-4.87-.05-.086-2.546-.609-2.769-.595-.223.013-3.011.584-2.292.63-4.54-.265-8.072.619-8.57-5.444-2.938.31-3.785-.355-3.975-1.285l-6.956.552c-2.275 1.66-4.576 2.873-8.088 2.591.713 1.436 1.15 1.992.101 3.175-1.537-2.461-3.519-1.894-5.311-3.4-.524-.506-1.047-1.012-1.62-1.605-.446.027-.806.004-1.253.03.664 1.35-.545 2.856-1.771 3.333-.396.113-1.113-2.129-1.87-2.039-1.562.094-1.658.727-3.13 1.577-.953.55-3.517 4.109-4.2 3.926-.355-4.414-5.148.085-7.406-.228-2.842-.322-9.59-6.01-9.351-7.995-.187-.124-.323-.16-.41-.11-.943-.033-1.555 1.706-2.598 1.5.273.073-2.076-.996-2.203-1.615-.223.013-.446.026-.583-.01-2.278.853-3.1 2.83-3.323 5.844-1.889-.872-3.998-.925-5.75-1.76-2.386-.932-2.397-3.35-5.195-2.197-.2-.347.206-1.043.526-1.69-1.562.094-3.088.051-4.65.145 1.17 3.828 1.532 9.854 3.334 10.777 2.96 1.524 1.629-1.98 3.078-2.47 1.932-.654 2.868.769 5.61.918 3.015.222 5.263-1.884 7.829-2.442 3.011-.584 4.357.949 6.99 1.507 1.589.353 3.394-.92 4.567.712.687.99-2.071 2.812-1.058 4.768.977 2.091 3.596 2.427 5.641 2.17 1.29-.167 6.212-3.24 6.195-4.27-.624 7.52 10.702 2.136 5.447.435 4.041-.601 7.228 4.718 11.238 2.865.174-.1.55-2.05 1.02-2.436.642-.487 2.164-1.25 2.907-1.563 3.687-2.014 3.571-.215 2.684-4.552.227.793 5.075 3.19 5.571 3.25 2.309.399 2.472.882 4.447-1.298 3.096 1.562.419 7.726 1.36 9.954-.841-2.055-3.39 4.729-3.237 5.795.354 4.414 2.606 3.114 5.192 4.392 2.549 1.416 3.343 4.19 6.433 1.944 1.2-.923 3.126-8.386-.738-7.08.599-1.962.486-2.358-.557-2.564 5.082-3.397.015-4.974.664-6.85.526-1.69 0 0 .949-1.356a23.81 23.81 0 0 0 3.498.059c.233-.597.503-1.33.686-2.013-1.185 4.148 6.784 5.552 8.66 6.2 1.553.49 2.686 1.452 4.325 1.892.683.183 3.142.841 3.785.355 1.233 1.135 2.982 1.165 4.092 2.487.486.643.823 1.026 1.073 1.459-.533.077-1.5.404-1.55.317-.623-.68-2.419-2.99-2.692-3.064-2.222-.45-4.444 2.103-5.48 3.51-3.083 3.859-1.358 1.246-1.3 5.947-.325-6.163-6.271 6.738-5.49 9.29 2.93 9.277 7.497-4.214 9.45-3.032 4.292 2.834.892-3.055 2.364-3.905.296-.286-.179 4.491-.129 4.578 1.054 2.624.767 2.328 3.816 1.607-5.031 9.487 5.628 4.95 7.125 9.743.717 2.242-2.637 3.832-1.866 6.967.834 3.444 1.47 1.345 3.935 3.616-.013-.223.06-.496.047-.72-.61-.456-.65-1.125-.69-1.795z" fill="#575757"/><path d="M315.361 26.156c.013.223.113.397.127.62-.014-.223-.114-.397-.127-.62z" fill="#575757"/><path d="M279.537 25.708c.05.087-1.19-2.661-1.576-3.131 1.668-1.31-.541-4.537 2.307-5.604-.047.72.197 2.541 1.046 1.012.406-.696-1.08-3.071-1.047-4.014.108-3.412 2.996-6.81-2.025-9.108 2.33 5.237-6.61.352-7.12.07-.373-.247-2.22-2.645-3.195-1.735-1.852 1.992 1.85 3.204 1.803 3.923-.07 1.08-3.867.501-4.847.605 1.81 2.535-.48.97-1.775 2.526-.333.423-.759 2.286-1.018 2.436-.966.326-3.202-.346-4.122-.739-1.939-.959-3.412-3.11-5.867-2.963-2.542.197-3.264 2.347-.09 2.246-1.487 5.823-5.644-2.977-7.083-3.07.77 3.135-6.311 6.069-8.687 4.554-3.173-2.095-.284-2.492-.874-4.114-1.194-3.468.056-1.303-3.14-3.038-4.028-2.177-7.4-1.616-11.623-.332-1.5.403-3.022 1.167-4.547 1.124.086-.05-6.184-1.51-4.772-1.864-1.759.553-1.434 3.715-3.033 3.945-.843.14-2.371-5.906-3.792-10.166-2.418.01-4.787.108-7.292.169-.306.87-.663 1.652-.859 2.112-1.092 2.709.012 5.42-4.243 5.452.478 4.227-.935 1.58-2.401 1.04-3.565-1.175-3.642-1.708-4.653-5.859-1.362.44-3.953 3.553-6.168 4.716-1.04.6-3.384 3.34-4.687 3.283-2.928-.272.557-.436-2.916-3.05-1.642-1.246-1.38-.59-3.465-1.002l-4.914-.512c-2.092.977-.666.847-1.761 2.75.676-1.43-1.724-2.585-3.2-2.541 1.846-.604-.93-2.812-2.11-3.055-1.812-.339-2.418.011-2.824.707.016-1.972-2.47-3.077-5.164-.944-1.929 1.46-2.494 5.481-3.383 6.34-.593.574-1.686-2.72-2.405.235-.17.906.378 4.054.674 3.768-2.271 2.466-4.161-1.408-6.526-.505-2.799 1.154-1.761 5.751.155 7.07l-.173.1c-1.259 1.42-.163 2.518-2.018 3.705-1.509.986-4.947.431-6.839 1.754-2.065 1.424-2.97 4.256-5.258 5.692-2.116 1.337-2.006.927-3.728 1.344-1.722.417-3.698-.405-5.776.795-1.3.75.467 1.809-.04 2.332-.506.523-3.148.547-3.08 1.663-.55-.952-2.262 1.883-2.345 2.74-.42.473-.696 2.595-1.065 3.155-.457.61-5.35 1.934-3.607 3.352.66.543 6.396-.921 7.299-1.558 2.534-1.81 3.146-6.55 6.777-7.261 2.838-.484 4.375 1.977 7.366-.442.766-.674.549-2.05 1.228-2.673.976-.91 2.758-1.823 3.684-2.82.926-.996 1.388-2.995 2.6-3.695 1.176-.563 1.22.913 2.373.71 4.697-.865 4.593-1.845 7.563-6.1.247-.373 5.115-7.34 4.979-7.377.546.146-.19 2.072 1.633 1.828.893-.053 3.458-.61 4.4-.578.87.307 1.79.7 2.623 1.142.942.033 1.772-.33 2.488-1.09.496.06 3.835.442 4.231.328 1.959-.207 3.714-1.566 5.623-1.86 2.528-.42 4.108.515 6.59.814 1.08.07 7.339-.889 5.276-1.66.62-.128 4.534-1.348 2.085-2.59 2.822 1.488 1.55-.317 2.462-1.537-.465 4.195-1.428 5.328 3.46 5.393-1.303-.056 2.051-1.647 2.62-1.86 1.55-.317 2.203 1.615 3.999.925 3.367-1.367 3.822-7.98 8.866-6.043 2.796 1.042 1.584 4.744 2.757 6.376 1.76 2.448-.612 1.739 2.763 1.984.713 1.436-1.977 7.377 1.414 5.65 1.522-.763 2.004-3.928 3.55-5.052.816-.586 1.909-.293 2.342-.543.78-.45 1.838-2.216 2.53-2.616 1.993-1.15 1.716-2.03 5.054-1.648 1.216.106 2.142-.89 3.138.036 1.657 1.468-1.71 5.837 1.592 6.356 1.18.243 1.415-2.55 2.567-2.753 3.805-.81 3.91 3.17 6.405 3.693 1.999.462 4.91-3.297 6.735-2.734 3.652 1.125.235 5.407 5.375 3.71 2.105-.754 2.437-4.18 6.125-3.19 2.783.818 3.86 3.083 7.148 3.378 1.352.143 5.59-.918 7.139-1.235 1.462-.267 4.722-3.42 6.465-2 1.32 1.085.174 2.901-.118 3.994.236.21.765 7.525-.239 4.987.314.743-.342 1.006.294 1.909 1.114 2.128 8.43 1.6 7.849-.606-.887-1.335-3.152-.258-3.962-1.061z" fill="#4A4A4A"/><path d="M180.488 1.95c-.467-1.81-1.153-2.798-1.85-3.205-.67.04-1.252.03-1.922.07-.94.774-1.055 2.573 1.746 2.226-1.618 1.396-.538 4.467-1.77 6.334-3.632-2.291-2.767-5.793-5.346-8.46-.447.026-.807.003-1.253.03-.283.51-.516 1.106-.799 1.616-.163-.483-.6-1.04-1.087-1.682-7.875.159-15.714.181-23.603.117-.297.287-.73.537-1.35.664-1.325.303-2.021-.103-2.458-.66a116.14 116.14 0 0 1-5.47-.074l-.147.546c-.166 1.713-.565 4.021-.658 5.46-.308 3.066-4.943 12.439-9.246 7.186-.175 2.296 3.214 5.766-.937 6.777-.986-1.509-.431-4.947-3.106-3.98-2.415.817-.559 2.632-1.298 3.751-.16.324-1.382 1.607-1.309 1.333.69-1.206-3.16 3.326-2.654 2.803.363.83.317 1.55-.09 2.246-.41-.11-.856-.083-1.266-.193-2.367 3.099-4.719 4.226-2.975 8.646-.793.227-8.918 2.954-4.73 4.809.444-.833 1.073-1.543 1.852-1.993.697.406-.029 1.749 1.297 1.445-.52-2.701 1.661-2.922 2.847-4.068.89-.86.959-1.94 3.437-2.447 1.413-.353 2.08 1.802 3.392 1.275 2.625-1.053 2.041-4.065 4.653-2.34-.184-2.319 1.07-2.35 2.241-3.719 2.308-2.602 2.828-2.902 6.309-3.873.396-.113 1.63 1.022 1.716.972 1.299-.75 1.465-2.462 2.131-3.309 1.049-1.183 2.554-2.975 3.613-4.741-1.256-.776-3.29 1.9-4.953 1.82.749-1.702-.405-4.5.175-5.297.702-.983 5.034 2.52 6 2.194 4.93-1.461-1.137-4.77 2.117-6.534-.146.546-.02 1.166.454 1.586 1.532-1.347 2.31-7.8 5.17-8.644 6.243-1.988-1.04 5.797 1.765 6.256 2.222.449 1.75-8.17 4.127-3.653 1.385-.8 1.755-1.36 2.582.473-3.181 1.49-1.446 1.296-.45 2.222-1.046-1.013 3.812.801 3.006.805.806-.004-.822 1.976-.14 2.159 1.79.699.966-3.329 1.795-3.692.83-.363 3.429 1.138 4.335 1.308.633.096 2.475-1.313 3.244-1.18 2 .462 1.134 3.964 3.11 4.786 2.026.909 5.816-3.127 7.981-4.377.606-.35 5.467-.731 3.643-3.49-.936-1.421-2.695-.868-3.87-.304z" fill="#3A3A3A"/><path d="M94.889 43.287c.694 2.602.764 4.524 2.584 6.476-5.233 3.137 1.042 8.405 2.71 7.095.16-.323-.38-1.859-.666-2.155 14.132 1.078-1.654-14.865-4.628-11.416" fill="#696969"/><path d="M124.294 6.219c-2.8-4.85-7.113-1.32-3.974 1.717 1.42 1.258 4.358.948 3.974-1.717z" fill="#575757"/><path d="M96.236 47.821c.37-.56.776-1.256 1.146-1.816-.956-.256-1.753-.835-2.253-1.702-.899 1.443-1.115 3.07-.128 4.578.636.903-7.637-1.827-7.983-1.627-.78.45 4.459 4.123 5.142 4.306 5.45 1.241 3.964-1.134 4.076-3.739" fill="#5A5A5A"/><path d="M110.428 14.802c-8.63 3.25 6.136 7.427 0 0" fill="#424242"/><path d="M102.285 44.098c2.252-1.3 7.295-2.364 4.726-5.615-1.812 2.662-1.912 2.49-4.533 4.349-.73.537-3.315-.742-3.285.51.19.93 2.913 2.245 3.092.756" fill="#575757"/><path d="M89.54 48.223c.38 1.859 4.212 1.495 4.521 1.431 2.229-.94.393-.92.566-4.021-2.215 4.165-1.402 2.772-5.087 2.59" fill="#585858"/><path d="M117.065 6.697c-1.444 7.3 6.65.318 0 0" fill="#575757"/><path d="M81.523 44.538c3.212-.238 1.695-3.865.26-3.152-.52.3-.286 2.705-.26 3.152" fill="#515151"/><path d="M104.024 22.31c-2.079 1.2.28 1.685.344 1.995.226.793 2.34-3.545-.344-1.995" fill="#424242"/><path d="M289.684.682c-.506.523-1.063.96-1.619 1.396 1.62 1.606 3.175-.1 1.619-1.396" fill="#575757"/><path d="M99.54 43.143c-.714-1.436-4.698-2.138-4.651.144 1.419-1.742 4.361 1.755 4.65-.144" fill="#5A5A5A"/><path d="M108.455 3.585c1.187 1.855 2.631-2.443.28-1.316-.11.41-.17.906-.28 1.316" fill="#EAEAEA"/><path d="M89.54 48.223l2.746.955c-.35-.606-3.046-1.475-2.746-.955" fill="#515151"/><path d="M99.093 62.569c.717 2.242.88 2.725 2.683 3.647.323.16 3.968-.328 4.924-.072 1.23.33 3.218 1.375 4.265 2.388.946.839 1.763 3.254 2.96 4.526 1.03-.017 2.145-.084 3.175-.1.589-1.38-.365-3.832.141-4.355.853-.723 3.956 2.45 3.033 4.253 1.613-.007 3.175-.1 4.788-.108.11-.41.17-.906.166-1.712-.148-2.456 1.072-1.543-.934-3.618-2.343-2.458-.743.313-3.342-1.188-.51-.283-4.569-3.713-6.108-3.98-3.575-.591-4.32 1.918-8.295.633-2.422-.796-1.986-.24-3.796-2.774-.486-.643.316-1.453-.07-1.922-2.02-2.298-11.422-5.184-3.461-8.395-.97-.479-1.903-1.095-2.626-1.948-.052 2.11-1.848 2.8-1.908 3.296-.432 3.251-.73.536 1.807 4.73 1.877 3.65 1.327 2.698 2.598 6.699z" fill="#626262"/><path d="M36.97 38.968c-1.801-6.119-5.375-3.71-8.96-6.72-1.32-1.085-1.247-1.358-1.884-2.261-.7-1.213 3.194-4.269-1.017-2.762-2.675.967-5.145 6.089-7.51 6.992-.88.277-3.215-.568-4.194-.465-2.096.17-2.162 2.056-4.894 1.324-.683-.183.016-1.972-.53-2.118-4.335-1.308-1.766-1.06-5.814.931-1.349.663-2.511 1.45-3.673 2.237-.442 3.834-1.02 7.632-1.6 11.43l.652 4.128c1.165-2.982-1.661-5.277 3.47-6.39-.817.586-.763 1.479.063 3.31-6.27-1.46-.38 6.34-2.096 8.37-.21.237-.506.523-.766.673.104.98.12 2.009.224 2.988 2.435-1.983 5.343-3.546 7.204-6.122.124-.186 2.268-3.272 2.624-4.055.724.853 1.333 1.309 1.766 1.059.99-.687.442-3.835.855-5.92.303 1.325 2.593 2.89 3.449 2.973 3.834.442 1.678-1.892 4.766-1.943 2.779.012 3.72 2.24 6.5.057.73-.536.053-2.108.272-2.928.61-2.545 2.535-1.81-.144-4.65 1.626.215 1.582-1.26 2.608-2.084 1.516.626-.363 2.173.584 3.012 1.456 1.122 2.216 1.838 2.639 2.171-.2-.346-.314-.743.866-.5-.41-.11 4.6-.231 4.427-.131 1.892-1.324.593-.574.113-2.606z" fill="#777"/><path d="M-1.487 34.96c-.133.77-.18 1.489-.312 2.258 2.378-.68 6.262-3.153 6.761-5.289 2.799 1.848 1.744 4.42 4.449 4.706 1.762.253 4.187-1.147 4.713-2.836 2.54 1.998 1.866 1.232 4.258.774-2.392.458 4.92-3.879 2.845-1.873 1.655-1.533 5.681-5.359 2.776-5.99-1.316-.28-16.75 4.589-13.926-2.122-4.412-1.84-2.294 5.828-3.196 6.464-1.2.924-4.391-.005-6.347 1.009.014.223-.785 1.839-2.02 2.899z" fill="#6A6A6A"/><path d="M7.725 25.715c2.212-1.97 8.302.98 11.44 1.016 1.836-.02 5.737-1.464 7.563-.902 1.006.343 1.87 2.038 2.503 2.135.992.12 1.845-.604 2.701-.52 3.648.318 4.564-.096 6.895-3.058.753-.896 4.697-3.866.142-4.354-2.482-.3-1.484 3.628-4.32 1.917-.373-.247-2.173-3.364-2.037-3.328-1.149 1.01-1.355 2.053-.518 3.302-2.113-.86-3.302-.519-4.698-2.138-.203 1.85-4.357 2.054-6.07 1.888.633.096-4.28-.415-3.501-.865-1.3.75 2.266 1.925-2.951 3.09-1.016.24-1.433-1.483-1.88-1.456-1.922.07-4.606 1.62-5.269 3.273" fill="#5E5E5E"/><path d="M40.63 22.307c-.863 1.306.595 8.431 1.964 9.604 4.614-.009.59-9.579.423-10.868 5.969 6.138 12.004-9.009 5.314-9.996 1.914-4.685 8.11 2.246 10.172 3.018.733.27 7.583.934 6.776-2.064-.14-.843-6.131-3.62-7.351-4.532-.373-.246-3.859-3.084-4.305-3.057-1.64-.439-1.752 2.166-3.578 1.604.35.606 2.502-.867 1.839-2.216-.314-.743-2.47-3.078-2.843-3.324-.237-.21-.024-2.642-1.497-1.792-2.078 1.2-.501 4.331.755 5.107-1.209 1.506-.372 2.755-1.048 4.185-1.032 2.212-3.21 3.239-4.356 5.055-.283.51.517 1.895.197 2.542-.566 1.02-1.659.727-2.115 1.336-.123.187-.362 2.173-.152 1.936-.767.673-1.736.194-2.489 1.09 1.303.056 2.3.982 2.293 2.372" fill="#5A5A5A"/><path d="M22.09 14.997c.9 1.558 2.935-1.117 1.16-1.593-1.13-.157-1.5.403-1.16 1.593" fill="#C5C5C5"/><path d="M9.206-1.12c-.943-.033-1.836.02-2.692-.063-.69 1.206-.842 3.142.021 4.837.727 1.66 4.197-1.73 3.22-3.822-.113-.396-.313-.743-.55-.952z" fill="#4E4E4E"/><path d="M14.729 8.046c.46 3.198 2.928.272 4.581.935-.088-2.952-4.952-3.377-4.581-.935z" fill="#424242"/><path d="M2.653.93c-.82-.22-1.116.068-1.026.824.647.32.943.033 1.026-.823" fill="#4E4E4E"/><path d="M75.003 73.244c-.787-1.163-6.002-5.195-5.515-4.553-1.397-1.618-1.338-5.116-2.93-6.275-.697-.406-6.007-.804-6.277-.071-.293 1.092 2.236.672 2.13 1.888-.097.633-2.116 1.337-2.572 1.946 1.206.69 2.519.163 3.758-.09l-2.927 2.729c4.55-.318 2.63-2.443 6.5.057.696.407 2.442 2.632 3.665 4.35l.67-.04a23.81 23.81 0 0 0 3.498.059zM96.655 63.746c-1.145 4.817-1.512 3.182 4.166 5.215-1.01 1.853.187 3.125-.292 4.095l2.418-.011c6.227-.015 12.353-.204 18.617-.356.649-1.876-.651-4.127-2.614-4.726-2.695-.869-4.43 2.326-1.715 2.03-2.224 4.747-4.574.677-3.172-2.095-2.929-.273-3.255-1.239-5.058-2.16-.833-.444-2.636-1.366-3.405-1.499-.72-.046-3.518 1.107-3.705.984-2.349-1.069-1.193-3.468-1.847-5.4-1.094-3.294-2.323-3.624-5.412-6.574 2.243 5.286 3.223 5.182 2.019 10.497zM76.169 73.263c5.68-.161 11.324-.186 16.967-.212.01-.583-.067-1.116.08-1.662-.943-.033-1.936-.153-2.929-.272-1.156-.603-1.866-1.232-3.059-1.698-2.559-.832-7.003-1.73-9.745-1.88.637.903 1.137 1.77 1.773 2.672-2.242.717-2.284 2.243-3.087 3.052z" fill="#585858"/><path d="M12.781 63.672c-1.869.964 3.97 5.676 4.776 5.672 1.203-.117 1.622-.59 1.805-1.273.28 1.686 1.054 2.625 2.337 3.847.993.12 1.872-.157 2.551-.78.637.903 1.05 1.819 1.067 2.848.51.283 1.057.43 1.603.576-.137-.037-.31.063-.446.027 1.972.016 3.994.118 5.966.134-.236-.21-.026-.446 1.3-.75.62-.126 1.192.466 1.839.786.223-.013.446-.027.72.046.582.01 1.029-.017 1.612-.007 1.076-.736 1.451-2.685 2.95-3.089.414.916-.558 2.632.051 3.088.447-.027.807-.003 1.253-.03.173-.1.31-.064.57-.214-.087.05-.037.137-.037.137l9.525-.303c-.424-.333-1.607-1.382-2.776-2.208 1.562-.093 3.075-.274 3.385-.337 2.091-.977 3.087-3.053 3.522-5.498-.023.36.04.67.017 1.03 4.215-.702-.098-5.371 4.532-7.352-1.543-1.072-2.07-2.384.86-2.112 1.575.13 2.442 2.631 3.881 2.724 3.598.232 2.378-3.682 3.746-5.512 1.147 1.186 4.342 2.92 5.828 2.294 2.092-.977-.591-4.624-1.755-6.84-1.013-1.954-2.047-5.745-3.344-7.19-2.729-2.928-3.73.537-5.438-4.02l-1.372 1.023c.166-1.712.802-3.811-.098-5.37-.8-1.386-2.236-.672-2.436-1.019-.773-.939-.74-1.882-1.477-2.958-.736-1.075-.8-1.385-1.29-2.834-.277-.88-1.266-.193-1.48-.763-.213-.57.403-1.502.34-1.812-.577-1.4-.832-5.64-3.572-2.788-1.606 1.62.64 4.711 1.244 6.556 1.157 3.605 2.12 5.473 3.67 8.158-3.763 1.48.086 5.147 2.22 2.645-.545 2.855 2.988 7.974 5.956 5.914-3.351 2.397.29 1.103-.969 2.523 0 0-2.568 2.752-2.864 3.039-2.608 2.083-1.538 2.735-5.007.928-1.99-1.046-3.695-2.601-3.433-4.947.06-.496 5.022-5.901 2.477-6.51-2.629.247-5.798 7.158-8.735 2.271-.45-.779-.102-6.176.118-6.996.256-.956 3.203-4.851-.382-4.86-2.865.037-3.46 2.806-3.572 5.411-.173 3.102 1.947 5.573 2.294 8.375.09.756 1.204 2.885.228 3.794-1.815 1.857-2.809-1.265-4.531-.848-9.54 2.275 8.218 7.034 8.842 10.715-2.914 2.952-7.214-4.495-8.63-4.948-1.826-.562-2.396-.349-3.778 1.257-.926.997 2.106 2.248 2.17 2.558-2.545 2.393-3.013-2.418-4.209-3.69-1.296-1.445-3.295-1.908-4.492-3.18-.96-1.062-.697-3.408-1.767-4.06-.983-.703-1.905 1.1-2.625 1.053-2.482-.299-3.505-1.671-5.836 1.291-.543.66-2.794 4.962-2.827 5.905-.08 1.662 1.82 1.951 1.554 3.49-.094-1.562-4.898-2.483-6.284-1.683-2.684 1.55.964 1.868-1.011 4.048-.666.846-3.429-1.138-4.31 1.334-.523 2.495 2.698 1.675 3.974 1.284z" fill="#585858"/><path d="M51.776 74.414c.447-.027.98-.104 1.476-.044.353-1.589.771-5.064 2.645-2.22.736 1.076.776 1.746.393 2.083 1.03-.017 2.01-.12 3.039-.138-4.642-3.44-.685-6.186-2.356-10.88-1.621 3.592-1.268 5.005-4.322 7.114-2.708 1.91 3.005.806-3.044 1.527-1.736.194-3.542-1.535-5.264-1.118 1.792 1.506 4.298 1.445 6.447 2.167.956.256.823 1.026.986 1.509z" fill="#757575"/><path d="M73.953 60.225c-1.889 2.13-1.52 6.766 1.908 7.905.495-2.942-.581-5.207-1.908-7.905m13.142-12.438c.396-.113.706-.176 1.102-.29-.373-.246-7.493-3.179-5.93-.271.264.656 4.058.428 4.828.561m7.28 5.612c-1.655-1.469-3.435-2.751-5.387-3.933.613 1.262-.45 2.222-1.115 3.069 2.172.362 4.257.774 6.503.864M77.21 59.268c.983.702 2.57-1.947 1.898-2.713-.96-1.062-1.962 2.403-1.898 2.713" fill="#585858"/><path d="M63.494 26.31c-1.992 1.15 2.266 1.925 1.133.963-.15-.26.29-1.9-1.133-.963" fill="#C3C3C3"/><path d="M80.604 66.546c.264.656.724.852 1.293.639.766-.673-.703-2.019-1.293-.64m-24.518 3.533c.7 1.213 1.4 2.425 2.31 3.401-.094-1.562-.967-2.675-2.31-3.4m43.493 1.331c-.597-.233-.856-.083-.866.5.56.37.82.22.866-.5" fill="#585858"/><path d="M52.368-1.56c-1.835.02-3.584-.01-5.42.011.027.446.09.756.14.843.41.11.906.17 1.366.366-2.131 3.309 3.796 2.774 3.087 5.146-.147.546-4.405-.228-3.018 1.973 2.173 3.364 4.856-4.189 4.926-5.268-.037.136-.627-1.486-1.08-3.072z" fill="#5D5D5D"/><path d="M66.384-1.685c-4.391-.005-8.782-.01-13.21.12-.496-.06-1.029.018-1.525-.042-.05 2.915 1.05 4.82 3.091.755 1.546-1.123 6.088 2.144 6.684 2.377 3.305 1.325 5.86 1.35 1.971-2.986 1.27 1 3.163 2.678 4.136 3.963-2.462-1.465 1.762 8.452.992 8.319 3.835.441.954-8.75.454-9.615-.564-1.176-1.51-2.015-2.593-2.891z" fill="#757575"/><path d="M67.413-1.702c-.67.04-1.39-.006-2.059.034.797.58 1.593 1.159 2.18 1.975 1.41 1.842 2.1 3.637 2.68 5.842 1.075-3.738-.671-5.963-2.8-7.851z" fill="#5D5D5D"/><path d="M70.3 6.1c-.591 3.574-2.213 4.164-5.208 5.778-.433.25-.216 1.626-2.075 2.006-1.376.217-2.859-1.352-4.421-1.258.113.397.134 2.232.284 2.492.473.42 2.522.969 2.372.709 1.123 1.545 2.582.472.057 1.699-.916.413-1.67-1.692-3.384.337-1.765 1.943-.546 2.856.81 3.805-.61-.456 6.75.49 6.354.604 1.349-.663 1.308-4.335 1.747-5.974.732-2.732 5.498-7.677 3.465-10.199" fill="#5D5D5D"/><path d="M67.215 15.155c-3.184.684-.178 4.491-1.71 5.838-1.359 1.246-4.878-.648-6.787-.355-2.082.394-2.528.42-3.277 2.124-.037.136 1.807 4.73 1.547 4.88-.586-.816 1.378-5.414 2.12-5.728 2.216-1.163 5.022 2.297 6.544 1.534 1.14-.427 2.15-7.477 1.563-8.293" fill="#515151"/><path d="M68.336 18.896c-.337-.383-.796-.58-1.28-.416.214.57.674.766 1.28.416" fill="#424242"/><path d="M85.507 11.638c-1.913-3.514-2.857 1.65-2.684 1.55.173-.1 4.284 1.221 2.684-1.55" fill="#ABABAB"/><path d="M71.063 35.22c.04.67-.14 2.158 1.073 1.458.53-.883.143-1.352-1.073-1.458" fill="#DEDEDE"/><path d="M323.054 60.282c-1.106-.516-1.916-1.32-.497-3.062.237.21.387.47.573.593.01-.583.07-1.08.08-1.663-.96-1.062-2.45-1.241-2.793-3.237-.47-2.615 1.101-3.292 1.827-4.635-.153-1.066-.22-2.182-.424-3.334-1.546-1.879-5.237-.672-6.434-1.944-1.97-2.211 1.301-5.947.251-7.766-.55-.952-3.414 2.087-4.787.109.286.296.384-8.536-1.57-4.52 1.825.562 1.38 3.59-.27 3.734.206-4.045-6.191 5.076-7.12 5.266-5.577 1.141.248-13.77 1.614-13.403.683.183-.095 3.635 1.39 3.008 1.4-.577-1.07-3.654-.814-4.61.619-3.13 3.298-.288 3.307-3.873 1.726.39 2.029-1.287 3.095-1.44-.743.313 5.188 3.586 4.975 3.017.276.879-2.05 7.65.73 5.466-.086.05.662-4.654.712-4.567-.42-2.529-.443-2.169-2.536-4.194-1.047-1.012-4.71-4.556-5.902-5.022-1.516-.626.784 3.358.834 3.445-.223.013-3.255-1.239-2.909-1.439-.433.25-1.472.85-1.395 1.383-1.52-1.432-4.04-4.596-4.243-5.748-3.091 2.246-3.454 1.417-5.031-1.715-.464-1.002-1.932.654-.83-2.638-1.5.404-2.339 1.35-2.468 2.926-1.056-.43-2.086-.412-3.089.051-1.308 1.333-1.502-.403-1.865 1.77-.036.136 1.497 1.791 1.537 2.461 1.296 1.446.967 2.675-1.088 3.515-.73.537-1.272 1.197-1.492 2.016a9.83 9.83 0 0 0 1.636-.367c.036-.136-1.539 2.736-1.252 3.032.673.766 4.743-1.584 2.04 1.132 4.06 1.235-1.15 1.01-.933 2.386.154 1.066 1.72 1.778 1.513 2.821-.718 2.955-2.323 4.575-3.725 7.347-.922 1.803-1.945 3.432-2.1 4.562-.06.496-1.81.467-1.706 1.446.063.31.91.976 1.843 1.592-.36-.023-.67.04-1.19.34-.52.3-2.564 3.56-2.523 4.229-.003 2.195.117 1.202 1.842 1.592-.086.05 4.66-.728 4.734-1.001-2.025 2.092 1.687 2.72 2.803 2.654 1.426-.13 2.567-2.753 3.957-2.746 1.116-.067 3.912 3.976 5.484 3.3 3.008-1.39-1.64-3.442-1.237-4.944 1.111-3.875 5.77.594 7.346.724 1.44.092 3.958.255 5.476-1.315-.356.783 3.096 1.562 3.57 1.981 3.648 3.32 1.39 6.01 2.784 9.824 1.317 3.281 5.269 4.926 5.82 8.88.474 3.421-1.191 5.537-.524 7.692.533-.076 1.116-.067 1.562-.093-.668-5.157-.74-10.081-.588-15.018zm-38.333-15.396c.783.356 1.466.539 1.776.476-.83.363-1.303-.057-1.776-.476z" fill="#595959"/><path d="M279.792 49.348c1.282-1.78 2.9-3.176 3.736-4.928 1.293.639 2.426 1.601 3.682 2.377.672-2.235-3.13-3.62-4.695-4.333.995-2.075 2.184-2.416 3.33-4.232 1.342-2.275 1.897-5.714 4.835-6.025-.378-4.054-4.462-4.929-5.337-.844-.064-.31-3.053-3.087-2.73-2.927.187.123-7.036-.788-7.03-2.177.026-2.555 3.2-2.656.085-6.053.446-.027.943.033 1.39.006.721-2.15-2.517-2.358-3.643-1.708-.78.45-.895 2.249-1.201 3.119-1.408 4.161 1.925 8.934 4.24 10.946 4.26 3.776 1.963.599.622 5.876-.815 3.588 1.33 3.504 2.174 6.366.504 1.672-2.573 4.142.542 4.537" fill="#666"/><path d="M283.887 30.24c.773.94.773.94-.19 2.073 1.03-.017 2.06-.034 3.002 0-.523-.507-.513-1.09.08-1.663.632.096 1.142.379 1.579.935.48-.97.512-1.912.135-2.965-3.09 2.247-2.479-2.494-5.057-2.16-.95 1.356-.782 2.645.45 3.78M194.834 3.597c.47-.386.58-.796.193-1.266-.556.437-.666.847-.193 1.266" fill="#5A5A5A"/><path d="M222.654 19.983c3.236 2.404 3.838 1.248 7.763 2.446 4.471 1.344 4.598 1.964 9.532 1.31 3.508-.525 6.176-.102 9.738.266 1.08.07 4.358.948 5.6 1.5 1.703.75 4.925 2.931 4.498-1.21 1.972.016 7.272-2.004 8.738-1.465 0 0 1.464 5.736 3.002 3-.12.993.02 1.836-.012 2.779-.033.943.317 1.549-.05 2.915-.205 1.043-1.728 1.806-2.107 2.95-.576 1.602-.535 5.273-.304 6.872.537 3.731-1.092 2.709 2.007 5.077 2.302 1.788 2.745.955 3.785 3.356.477 1.226.971 3.482 1.534 4.657.877 1.92 3.58 4.4 5.716 4.9 1.862.425 4.916-1.685 6.396-.922-2.15-.723-.419 3.475 1.184 4.05.87.307 6.223-.821 8.072-.619 2.755.373 2.648-1.413 4.98 1.628 1.697 2.138 1.152 4.993 2.055 7.359.477 1.225 1.28 3.417 2.194 5.2 3.125-.188 6.336-.426 9.461-.613-1.236-1.942-1.624-5.414-2.874-7.579-1-1.732-1.873-2.844-2.75-4.763-.833-.443-1.666-.885-2.326-1.428-.153-1.066.053-2.11.396-3.115-.164-.483-.71-.63-1.157-.603 1.486-.627 2.052-1.646.27-3.735-.55-.952-1.184-1.049-1.9-.289-.912 1.22-1.805 1.273-2.815.124-2.119.53-1.363-2.561-2.648 1.414-1.593-1.16-3.762-3.717-5.97-.941.835-1.753-1.637-2.635-2.853-2.741-1.612.007-5.383 2.877-5.985 4.033-.308-2.132-5.848-4.13-6.579-6.594-1.096-1.1.203-1.85.136-2.965-.117-1.203-.867-2.502-.92-3.395-.402-3.694-2.218-4.84 2.545-7.59-.936-1.422-3.951-1.644-4.365-2.56-.003-.806.416-1.28 1.21-1.506-5.948-1.301-6.346-7.191-4.086-12.076.516-1.106 5.137-2.503.582-2.992-2.482-.299-5.825 3.71-8.677 3.97-.893.055-2.066-1.578-2.909-1.437-.98.103-1.655 1.533-2.534 1.81-3.408.697-3.799-.579-6.554-.951-2.345-.263-5.796 1.96-7.699.865-1.989-1.045-1.637-5.636-4.822-4.952-4.058-.429-1.868 3.965-1.787 5.304-1.483-1.569-7.29-2.027-9.426-2.526-1.912-.512-3.878-1.917-6-2.193-4.728-.388-4.894 1.324-1.285 3.975z" fill="#717171"/><path d="M102.285 44.098c-.783-.356-1.302-.056-1.572.677.821 6.223 17.319-4.803 19.064-5.58 4.097-1.904 6.569-4.023 9.892-6.866 3.115-2.606 6.026-3.363 9.277-5.933 6.291-4.903 11.145-6.896 18.73-8.158 1.686-.28 19.06-1.189 18.742-2.738-.14-.843-6.327-3.16-7.58-3.13-2.282.048-3.624 2.324-5.683 2.358-.943-.033-1.752-.836-2.509-.745-.806.003-2.422-.796-3.365-.829-.223.014-1.232 1.866-1.988 1.956-1.326.304-1.78-1.282-2.945-1.301-1.08-.07-2.375 1.486-3.714 1.567.406-.697.329-1.23-.194-1.736-.52.3-1.09.513-1.61.813l.59-1.379c-2.828-.099-3.674 2.237-5.312 4.8-.74 1.119-1.465 2.462-2.24 3.718.159-.323-2.635 4.638-2.461 4.538-2.808 1.737-3.229-.792-5.015-.685-2.008.12-2.957 1.477-4.143 2.624-3.347 3.202-4.482 7.437-9.006 8.201-2.305.407-2.089-1.218-4.75-.028-1.263.613-2.312 1.796-3.238 2.793-.985 1.492-5.534 7.814-8.97 5.063" fill="#696969"/><path d="M221.024 18.96c-1.607-4.383 1.358-4.248-4.318-3.28-1.686.28-3.931.192-5.477 1.315-.902.636-1.434 3.715-2.477 3.509-.497-.06.171-6.104-.056-6.897l-2.425 1.4c-.485-5.84-1.976-12.022-8.43-7.603-1.98 1.374-3.974 4.719-5.92 5.15.397-.114-6.58-1.398-6.393-1.274.35.606.614 1.262.964 1.868-.223.014-3.738-1.075-3.921-.392-.317 1.453 2.87 3.77 3.925 4.2 1.007.343 4.191-.341 5.207-.581 5.463-1.538 10.496-5.02 12.428 2.524.857 3.085-1.555 4.708 2.503 5.137 3.288.295 3.091-2.247 5.74-3.66 2.128-1.114 9.374-.563 8.65-1.415" fill="#737373"/><path d="M210.377 17.718c2.109.053 3.78-.451 5.54-1.005-2.552.78 3.298-.287 1.499-.403.583.01 1.782-.914 2.538-1.004.446-.027.49 1.45.353 1.413 2.842.322 3.889 1.334 5.901 2.02 1.69.526 3.102.172 4.841.785 1.33.502 2.896 1.215 4.412 1.84 6.697 2.6 2.744-2.046 5.978-5.645-1.116.067-3.824 1.977-4.01 1.854-1.81.467-2.496-.523-2.284-2.955-1.03.017-2.022-.102-3.015-.222-1.23-.33-1.62-1.605-2.845-1.128-1.226.476-.842 3.142-1.822 3.245-1.116.067-.375-6.25-.788-7.166-2.119.53-5.82 2.321-7.233-.327-1.705 1.446-2.737 3.659-3.92 5.611-1.792-1.505-5.443.372-5.145 3.087m31.148-2.049c2.546.609 1.817 4.147 3.547 5.343 2.562 1.638 3.025-.361 5.753-.435 2.865-.038 2.872 1.575 5.031 1.714 2.569.249 5.496-2.48 6.972-2.524 3.535-.078 5.414 1.377 8.878-.623 4.157-2.4 4.893-4.326.086-3.051-3.531.883-4.324 1.11-8.118 1.338-.67.04-2.462 1.537-2.598 1.5-2.916-.049-3.31-2.131-5.645-2.977-.733-.27-4.84-.784-5.584-.47-1.052.376-1.178 2.758-1.525 2.958-4.72 1.224-.26.15-2.872-1.575-.153-1.066-.553-1.759-1.486-2.375-.903.637-1.536.54-2.123-.276.027.447-.17.907-.316 1.453" fill="#6A6A6A"/><path d="M182.806 9.964c-1.38-.589-2.285-.758-3.085.858.497.06.857.083 1.353.142-1.012 1.047-2.252 1.3-3.544.661.09.756.576 1.4 1.273 1.805-.297.287-4.228.478-4.141.428.195 4.738 11.066-2.232 8.144-3.894" fill="#787878"/><path d="M182.806 9.964c-.535 2.273-3.04 2.333-3.293 4.096.05.086 6.533 2.117 5.754 2.567-1.436.713-1.086-9.881-1.086-9.881-1.366-.366-1.795.69-1.375 3.218m-3.923 4.806c-.136-.037-5.81-1.264-5.31-.398 1.726.389 6.604 4.039 5.31.398" fill="#A2A2A2"/><path d="M283.887 30.24c-.03-1.252-.421-2.528-.588-3.817-1.286.973-1.318 4.918.588 3.818" fill="#575757"/><path d="M273.049 8.67c-.6-1.04-1.203.117-1.462.267-1.226.476 2.762 1.984 1.462-.267" fill="#C5C5C5"/><path d="M173.573 14.372c1.099-1.097.18-1.49-2.636-1.365.03 1.252 1.866 1.232 2.636 1.365" fill="#787878"/><path d="M264.222 12.38c.443-.833.243-1.18-.464-1.002-.37.56-.306.87.464 1.002m13.158-3.209c.583.01 1.08.07 1.662.08-.56-.37-1.142-.38-1.662-.08" fill="#575757"/><path d="M235.086 6.916c-.833-.443-1.266-.193-1.299.75.697.406 1.13.156 1.3-.75" fill="#E2E2E2"/><path d="M166.61 2.11c-1.167-.019-3.625 2.324-1.826 2.44.866-.5 1.532-1.347 1.825-2.44zm-46.213 25.758c-.627-1.486-.554-1.759.545-2.855-.996-.926-4.48 2.24-.545 2.855zm-4.258-.775c-.753.896-.253 1.762-.596 2.769.57-.214 1.09-.514 1.746-.777l-1.15-1.992zM182.71 2.399c-.51-.283-.82-.22-.916.413.51.283.77.133.916-.413z" fill="#5A5A5A"/><path d="M108.625 44.48c-2.172-.363-3.79 1.033-6.1.634-1.13-.156-4.338-2.114-5.804-2.653.567 1.982 4.509 4.21 6.335 4.772-1.539 2.735 2.56 3.833 1.371 7.175-5.616-7.727-4.991 7.155-2.121 2.726-.456.61 1.3 5.253 1.538 5.463 2.252 1.702 6.066.308 8.212.224 1.339-.08 4.48.762 5.443-.371 3.307-3.873-2.48-2.495-2.962-2.332-2.838.484-9.227 3.018-8.423-2.988.395-3.116 3.393-3.923 3.252-7.767-.023.36-1.14-5.577-.74-4.884" fill="#6D6D6D"/><path d="M99.134 55.04l2.378-.68c-1.046-1.013-2.349-1.07-3.821-.22.387.47.896.753 1.443.9" fill="#787878"/><path d="M89.97 50.169c.454 1.585 5.352 4.069 4.358.948-1.832.826-2.849-1.935-4.357-.948" fill="#696969"/><path d="M124.954 67.96c.867 2.502-1.239 3.256-1.691 4.672 3.62-.128 7.206-.119 10.79-.11.36.023.72.046 1.166.02.782-2.646 2.839-.484 1.855-4.189-.48-2.032-2.333-3.04-3.58-4.4-1.096-1.098-5.571-3.25-3.663-6.545.602-1.156 3.95-1.357 5.263-1.884 3.504-1.33 4.343-2.276 5.375-4.489-.32.647.806-3.005.87-2.695-.041-.67-.379-4.055-1.075-4.46-2.14-1.306-1.669 1.31-2.471 2.119.21-.237-2.405 3.236-2.281 3.049-1.16 1.593-2.358 2.516-3.457 3.612-2.458 2.343-5.169 6.448-8.113 8.148-.953.55-9.042.14-5.512 4.453 1.66 2.275 5.28-.855 6.524 2.7z" fill="#6D6D6D"/><path d="M114.274 62.464c.3.52-9.018-.22-10.024-.563-1.2-2.079-1.105-5.713-3.455-1.585 2.149.722 2.379 2.321 4.082 3.07 3.455 1.585 6.053.085 9.397-.922zm10.034 8.179c3.596-5.771-2.663-4.813-5.865-5.159 1.85 3.205 1.28.416 4.421 1.258-.562 1.826.294 1.909 1.82 1.952.013.223-.44 1.639-.376 1.949zM102.013 58.227c-.433.25 4.337-3.89.359-2.979-1.016.24-.872 1.89-2.011 2.316.46.197 1.056.43 1.652.663m15.957 6.838c.046-.72.366-1.366.922-1.803-.487-.643-4.208-.688-4.618-.798 1.22.912 2.44 1.825 3.696 2.6" fill="#696969"/><path d="M111.79 64.36c-.32.647-.17.907.5.866.506-.523.356-.783-.5-.866" fill="#585858"/><path d="M-1.56 74.031c4.227-.477 8.494-.286 12.479.416 2.728-.074 5.543-.198 8.322-.186.226-2.209 2.728-11.274-.793-10.973.23 1.599-.815 3.588.747 3.494-.456.61-.962 1.133-1.468 1.656-1.29-2.834-2.653-2.394-5.142-4.306l1.859-.38c-.914-1.782-4.374 1.024-4.495-.985-.287-3.298 8.412.57 4.083-5.128 2.748-1.24 2.809 1.265 5.83.098-.06.496-.172 3.101 1.24 2.748 2.205-.58-.874-4.114-1.447-4.707 2.238-1.523 4.433-12.721 7.264-6.619a6.897 6.897 0 0 1 3.18-1.49c.095 4.564 3.53 4.313 6.073 7.118.287.296 1.744 4.42 2.29 4.566 2.013.686 4.274-1.197 3.52-3.302-1.262.613-3.265-.656-2.002-1.269 3.094-1.44 2.599 1.502 4.665 3.08.983.703 6.804 4.386 8.27 1.923 1.305-2.14-5.02-4.492-5.766-4.985-.04-.67-.167-1.29-.207-1.96-1.476.045-2.755-.371-3.888-1.334-.983-.702-2.369.098-3.242-1.015 2.897-3.982 6.914 3.976 7.951-2.628.519-3.301-3.105-12.179-6.867-12.894 1.49.18 3.192.929 4.155-.204 2.677-3.163-1.267-3.195-2.36-3.487-.117-1.203-.556-7.763-2.888-7.802-2.692-.062-.176 2.296-.618 3.129.196-.46-1.991 4.151-1.808 3.468-1.162 3.789-.931 5.388 2.568 8.448 1.42 1.259 2.858 1.352 4.132 3.157.836 1.249-.606 3.352 1.407 4.037-3.015-.222-6.545-4.535-7.924-5.124-1.38-.59-6.41.698-6.41.698-1.902-1.095-1.187-4.857-2.38-5.323-.41-.11-4.99 1.957-5.186 2.417-.616.933 3.259 2.045 2.733 3.734-2.869-.769-1.522 3.765-2.238 4.525-2.298 2.02-4.904-1.095-7.415.355.692-.4-.952 3.552-.829 3.365-.602 1.156-4.2 3.926-1.414 5.55-2.19-1.39-1.327-2.697-4.325-1.89-2.205.58-3.776 4.259-5.308 5.605-.593.573-2.465.73-2.885 1.204C.853 62.014.848 63.403.108 64.523c-.16.323-.752.896-1.382 1.606a60.345 60.345 0 0 1-.015 4.974c-.156 1.13-.189 2.072-.272 2.928z" fill="#636363"/><path d="M-1.705 49.981c1.995-.343 2.482.3 4.2-.924-1.66-2.275-1.636-2.634-.121-5.01-2.969-.942-4.474.85-5.483 2.703-.073.273-.06.497-.133.77.624 3.681 1.025 7.375 1.34 11.12 3.204-1.85.301-4.678 2.513-6.647-.064-.31-2.85-1.935-2.316-2.012z" fill="#7E7E7E"/><path d="M2.066 61.314c-.23 1.403 9.146-7.359 10.266-6.62-1.665 2.116 2.999 2.195 3.438.556-2.965-.136-1.077-2.266.055-4.305 1.465-2.462 1.568-4.484 5.343-3.546-4.086-3.877-3.308.87-6.063.498-1.986-.24-5.255-1.7-2.597-3.697-3.562-3.37-2.74 5.854-3.579 6.8-.56-3.37-2.347-6.265-5.782-6.014 1.05 1.819 4.252 2.164 4.003 4.733-.12.993-1.46 1.073-1.729 1.806-.52.3-.989.687-1.322 1.11-.99.686-.726 1.343.617 2.068-.653 1.07-4.523 3.766-4.683 4.09-.742 3.315 1.207.689 2.033 2.52z" fill="#696969"/><path d="M37.66 40.764c2.049.549 2.92 3.857 5.64 2.17 3.192-2.073-2.992-3.584-4.225-4.72-2.603-2.307-2.967-6.138-6.016-8.42-.56-.369-7.824-4.95-7.867-3.425 1.304 3.058-1.361 3.442 1.305 6.06 1.433 1.482 3.725.851 5.54 1.997 2.19 1.392 3.63 4.486 5.623 6.338" fill="#929292"/><path d="M21.445 40.08c-.038-5.867-3.622-2.874-6.583-2.204-2.032.48-5.784-.818-7.55 1.125-5.43 5.792 12.93 1.195 14.133 1.078z" fill="#7E7E7E"/><path d="M2.163 60.68c-1.647-2.05-2.773-1.4-3.935-.614.184 2.318.281 4.687.292 7.106.31-.064.533-.077.706-.177 1.682-1.087 1.795-3.692 2.644-5.221.333-.424.056-1.303.293-1.093z" fill="#727272"/><path d="M-.248 42.905c1.995-.344 3.511.282 2.977-2.643-1.699.057-2.761 1.017-2.977 2.643" fill="#6A6A6A"/><path d="M20.974 45.663c1.2 2.079 1.809-.467 2.329-.767.173-.1-4.379-2.784-2.329.767" fill="#A8A8A8"/><path d="M1.585 56.28c.483-.163.916-.413 1.112-.873-.783-.356-1.166-.02-1.112.873" fill="#696969"/><path d="M4.082 40.405c.51.283.683.183.73-.537-.374-.246-.634-.096-.73.537" fill="#6A6A6A"/><path d="M12.24 28.535c1.706 1.556 2.579-.333 4.414-.354 1.836-.02 2.682.645 4.455.315 1.066-.154 3.49-1.554 4.68-1.894-1.76-2.448-5.847-1.127-8.576-1.053-.72-.047-4.864-.425-5.037-.325-.037.137.064 3.311.064 3.311z" fill="#777"/><path d="M12.24 28.535c4.114-.874-.857-3.084-2.05-3.55-.383.336-1.166-.02-1.185 1.146.823 1.026 1.856 1.815 3.235 2.404" fill="#929292"/><path d="M19.727 30.102c-.734-.27-1.44-.093-2.033.48.61.457 1.603.576 2.033-.48" fill="#777"/><path d="M25.202 25.786c1.2 2.079 6.008 3.806 7.9 5.485 2.367 2.098 2.378 4.516 4.247 6.555 1.783 2.088 4.708 1.554 6.454 3.779-3.75 1.703-2.308-.4-5.733-.731.318 4.55 6.564 3.369 8.067 6.773 2.515-3.645-5.342-7.654-4.05-10.016-5.09 1.784-4.003-4.733-3.704-7.215.866-.5 1.459-1.073 2.138-1.696.07-1.08-.294-1.91-.967-2.675-.207-1.96.859-2.113-.66-3.545-1.223 1.283-1.635 3.369-3.467 4.196-.98.103-1.403-.23-1.593-1.16-1.55.318-2.762 1.018-3.76 2.287-1.274-1.805-2.068-4.58-4.872-2.037" fill="#757575"/><path d="M10.19 24.985c.897.752 1.89.872 2.855.545-.846-.666-1.889-.872-2.855-.545" fill="#6A6A6A"/><path d="M40.63 22.307c1.535-.54-.855-2.279-1.61-2.189.919.393 1.282 1.222 1.61 2.189" fill="#5C5C5C"/><path d="M13.295 25.963c.71.63 1.43.676 2.196.003-.67.04-1.476.044-2.196-.003" fill="#6A6A6A"/><path d="M65.292 12.224c3.054-2.11 5.54-4.006 2.843-7.876-2.06-2.968-2.723-1.315-5.878-2.38 2.738-3.66-12.93-4.197-8.18 4.03 1 1.732 4.055 2.624 4.988 3.24-.797-.58 6.677 3.766 6.227 2.986" fill="#3E3E3E"/><path d="M55.241 22.415c4.297-1.557-.344-1.995-1.094-3.294-.05-.087-1.876-.65-2.299-.982-.996-.926 1.758-3.556-1.384-4.398-1.734 3.196 1.205 5.887-3.206 7.048-1.412.353-5.464-1.465-5.893-.408-.48.97 2.133 2.694 2.596 3.697.1.173-.686 2.012-.559 2.632 1.278 5.613 2.197 3.004 5.573 6.251-1.779 1.72-2.943 7.704-2.003 9.932.904 2.365 3.59 3.817 5.678 2.034 1.618-1.397-.132-4.428-.362-6.027-.397-2.888.115-4.8-1.312-7.672-.413-.916-4.909-4.902-4.835-5.175.016-1.973 2.068-.617 2.068-.617 1.253-.03 1.722-.417 1.532-1.347-.423-.333-.81-.802-.936-1.422-.353 1.59 6.88 1.917 6.436-.252z" fill="#4E4E4E"/><path d="M50.55 13.691c1.424 2.066-.008 3.585.979 5.094.55.953 5.777 2.207 6.547 2.34-.537-.73-.44-1.363.152-1.936-.4-.693-8.892-2.602-5.039-6.328 2.371-2.293 5 5.659 5.259 5.509 2.737-3.66-.602-7.043-5.037-8.524-1.552-.49-6.114-2.59-6.232 1.405-.216 1.625 2.508.745 3.372 2.44" fill="#4B4B4B"/><path d="M46.656 13.746c-1.01-1.149-5.056 3.843-1.104 5.487 6.66 2.737 3.789-7.037 1.104-5.487m6.46-8.81c.213-2.433 2.438-4.179 3.957-5.749-4.605-.574-3.264 5.348-3.956 5.748" fill="#5C5C5C"/><path d="M46.23 32.006c-.6-1.04-1.46-1.928-2.454-2.048-.425 1.862 1.497 1.792 2.453 2.048z" fill="#585858"/><path d="M65.292 12.224c-.57.214-1.669 1.31-.612 1.74 1.056.429.949-1.357.612-1.74" fill="#767676"/><path d="M41.176 25.455c-.02 1.166-.149 2.741 1.39 3.007.74-1.12-.89-2.141-1.39-3.007" fill="#5E5E5E"/><path d="M40.875 18.932c.696.406 1.229.33 1.735-.194-.946-.84-.893.053-1.735.194z" fill="#5C5C5C"/><path d="M44.453 31.53c-.163-.483-.377-1.052-.59-1.622-.283.51-.703.983-1.072 1.543.496.06 1.08.07 1.662.08z" fill="#5E5E5E"/><path d="M41.576 26.147c.4.693 1.137 1.77.917 2.589.863-1.307.203-1.85-.917-2.589m13.64-17.574c-.37.56-.22.82.277.88.42-.474.27-.734-.276-.88" fill="#5C5C5C"/><path d="M6.89-.13c-2.77 1.6 1.424 2.065 1.274 1.805C7.927 1.465 9.229-1.48 6.89-.13" fill="silver"/><path d="M36.335 74.669c2.692.062 5.334.038 8.062-.036.037-.137.16-.323.196-.46-.253-1.24-2.668-.422-3.238-.209-.194-1.735 2.041-4.065-1.823-2.758-1.053.377-1.761 2.75-2.158 2.863-2.155.667-2.626-1.948-4.348-1.531-1.19.34-1.545 1.123-1.355 2.052 1.526.043 3.051.086 4.664.079z" fill="#494949"/><path d="M19.96 74.308c.247-.374.37-.56.334-.424l.25.433c3.051.086 6.24.208 9.378.244.086-.05.036-.137.123-.187-1.426.13-2.222-.449-3.648-.318 1.392-2.19-1.347-1.532-.328-3.968-1.502-.403-3.714 1.567-4.77 1.138.17-.907.009-3.585-1.533-1.656-1 1.27-.396 3.115-1.058 4.768.31-.063.806-.004 1.253-.03z" fill="#626262"/><path d="M56.79 41.497c-1.039 3.602-3.823 4.979-3.026 8.56.938 4.424 1.537 2.461 3.216 3.57-.373-.246 2.472.882 1.666.886 2.519.162 2.582.472 4.73-1.807 1.013-1.047.809-2.2 1.498-3.406.197-.46 1.972.016 2.406-.234-2.093-2.024 1.265-2.808.028-4.75-3.117 4.801-5.69-2.257-5.245-5.286-.77-.133-5.873 1.428-5.273 2.467" fill="#707070"/><path d="M49.355 23.62c-.76 2.285-2.486-1.106-3.695.4-1.875 2.353.134 2.233.934 3.618 1.45 2.512 4.396 3.813 5.056 7.358.42 2.528-.738 4.121.512 6.286 2.65 4.59 6.406-1.504 6.018-4.976-.193-1.735-2-3.464-2.64-5.173-1.18-3.244-1.008-6.346-2.931-9.277-.84.947-1.965 1.597-3.254 1.764" fill="#4B4B4B"/><path d="M46.23 32.006c-2.023-.103-.45 2.222-2.792 2.766-1.24.254-3.438-.555-4.618-.798l1.587 2.548c2.708-1.91 3.082 1.338 4.369 3.367 1.072-1.543.904-5.834 1.453-7.883" fill="#5E5E5E"/><path d="M57.302 39.585c-1.419 1.743-3.124 3.19-4.346 4.472 1.909-.294 4.53-2.153 4.346-4.472M54.803 27.056c-.75 1.703-.532 3.078.737 4.077-.044-1.475-.21-2.765-.737-4.077" fill="#515151"/><path d="M57.84 35.117c.264.656.687.99 1.406 1.036.476-1.776-.76-.716-1.406-1.036z" fill="#707070"/><path d="M55.241 22.415c.353-1.59-1.662-.08-1.395 1.383.27-.733.589-1.38 1.395-1.383" fill="#515151"/><path d="M58.917 37.382c-.196.46-.17.906.304 1.326.866-.5.789-1.033-.304-1.326" fill="#707070"/><path d="M56.64 33.039c-.143 1.352.42 2.528 1.454 3.317-.394-2.082-.054-.892-1.454-3.317" fill="#515151"/><path d="M57.516 31.956c-.56-.37-.783-.356-.793.227.473.42.647.32.793-.227" fill="#707070"/><path d="M57.047 74.142c.529-.883.325-2.035-1.067-2.848-2.226-1.255-3.532.884-3.174 3.103 1.476-.044 2.901-.174 4.24-.255z" fill="#C6C6C6"/><path d="M64.411-1.701c-.806.003-1.525-.043-2.332-.04.54 1.536 2.52 3.165 3.33 3.967.796.58 2.672 1.229 3.269 1.462-.914-1.782-2.474-3.884-4.267-5.39z" fill="#A0A0A0"/><path d="M58.361 18.42c-.097-2.369-3.068-9.314-6.265-5.852-3.37 3.563 5.24 9.677 6.265 5.852" fill="#424242"/><path d="M59.776 15.87c-.339 1.813 1.997 2.658 3.253 3.434.453-1.416.992-2.882 1.444-4.298-1.302-.056-2.408-.572-3.478-1.225.017 1.03-.39 1.726-1.219 2.09" fill="#767676"/><path d="M84.608 13.08c2.375-1.486-2.752-2.567-1.452-.315l1.452.316" fill="#F8F8F8"/><path d="M323.034 69.646c-.017-1.03-.084-2.145-.1-3.175-.995-3.12-4.567-5.908-4.304-8.254-2.779-.012-1.101-4.906-2.192-7.395-.713-1.435-1.873-2.844-2.956-3.72-.373-.246-3.692-1.795-4.052-1.818.44 1.363-2.238 1.523-3.52 3.303-1.274-4.807-13.42-5.646-7.255 3.034-1.676-.303-5.371-2.904-6.43-4.14-1.237 1.06.416 1.723-2.162 2.057-1.066.154.653 1.932-1.606 1.62-2.035-.326-1.22-.913-2.096-2.831-1.412.353-6.32 1.454-6.693 1.208-2.73 2.27 5.942 5.691 5.33 7.43.523.507 13.566-9.102 7.839-.022.98-.104 1.472-.85 2.265-1.077.656-.263 1.276-.39 1.932-.653 1.445-1.297 2.215-1.164 2.445.435 1.663.08 2.783 3.82 2.125-1.92 1.643 1.246 3.703 4.214 5.45 1.242 4.186 1.048-1.07 4.544-1.51 3.182.13 1.425 1.456 1.122 2.608.918.607 2.652-1.69 4.672 2.404 4.963-1.615 2.203 1.644 4.248 2.58 5.67 1.337 2.115 1.867 4.234 2.707 6.289l3.349-.201c1.116-.067 2.095-.17 3.211-.238-.15-.26-.25-.433-.263-.656-.208-1.959.591-3.575.894-5.25z" fill="#666"/><path d="M294.826 38.59c-2.444 2.565-5.591-5.086-5.876.62.037-.136 1.627 3.219 1.863 3.428 1.437 2.289 2.589-.917 3.313 2.938 1.282-1.78.482-3.165-.345-4.997 2.155-.667 1.513 2.82 3.719 2.24l1.63-4.174c-1.722.417-3.472-2.615-4.688-2.72-2.518-.163-1.182 1.952.384 2.664" fill="#575757"/><path d="M293.586 24.64c1.044 3.209.597 3.235 3.753 4.3-1.047-1.012.312-2.258-.138-3.038-.3-.52-2.653-2.394-3.615-1.261" fill="#666"/><path d="M296.08 30.36c-1.156-.603-4.787 3.11-5.043 4.066-.878 3.279 5.699-4.33 5.043-4.066" fill="#575757"/><path d="M292.67 28.056c.837-1.753-.83-2.638-1.512.18-.449 2.222 3.67 2.155 1.513-.18m10.305 13.45c1.443.898 5.53-.422 3.514-1.914-1.426.13-2.601.693-3.514 1.913" fill="#666"/><path d="M304.937 16.702c-.802.81.21 2.765 1.327 2.698 2.232-.134-1.7-2.945-1.327-2.698z" fill="#575757"/><path d="M297.869 19.859c1.286 2.028 1.682-1.087 1.682-1.087s-2.969-.942-1.682 1.087" fill="#D3D3D3"/><path d="M316.914 49.046c.866-.5 1.782-.913 2.648-1.413-.946-.84-3.408.697-2.648 1.413" fill="#666"/><path d="M288.997 10.893s-.175 2.296.85 1.472c.493-.746.193-1.266-.85-1.472m2.056 10.36c-.493.747-.33 1.23.44 1.363.666-.847.553-1.243-.44-1.363m-.679 23.025c-.493.746-.316 1.452.38 1.858.493-.746.316-1.452-.38-1.858m9.27-15.745c.293-1.092.28-1.316-1.027-2.178.277.88.194 1.736 1.027 2.178m14.326-8.386l-1.763-.253c.477 1.226 1.024 1.372 1.763.253m-28.124 21.087c-.147.546-.033.943.513 1.09.496.06.69-1.207-.513-1.09" fill="#575757"/><path d="M302.767 44.743c.357-.783-.64-1.709-.773-.939.2.347.487.643.773.94" fill="#666"/><path d="M297.414 34.67c-.47.387-.58.797-.193 1.267.11-.41.083-.857.193-1.266m-13.238 4.871c-.32.647-.07 1.08.7 1.213.183-.683-.067-1.116-.7-1.213m22.796-3.115c-.146.546.004.806.537.729.196-.46.046-.72-.537-.73M292.89 13.035c-1.042-.206-.416 1.28 0 0m26.366 32.467c-.437-.556-.846-.666-1.353-.143.474.42.92.393 1.353.143" fill="#575757"/><path d="M283.194 30.64c-.277-.879-.554-1.758-.917-2.587a13.948 13.948 0 0 0-.469 3.388c.62-.127 1.053-.377 1.386-.8" fill="#5A5A5A"/><path d="M279.329 40.147c-.27.733-.02 1.166.663 1.349.916-.414.753-.897-.663-1.35" fill="#717171"/><path d="M286.413 35.017c.02-1.166-.267-1.462-.86-.889-.146.546.19.93.86.89" fill="#575757"/><path d="M267.562 41.167c.74 1.882-.122 3.188 1.215 5.303 1.186 1.855 3.826 4.026 4.912 5.709 1.087 1.682 2.227 4.256 3.823 6.222 2.757 3.373 6.145 3.842 10.233 5.523 2.113.859 9.962 3.255 11.285 2.145-1.225 3.479-.241 7.183 1.459 10.128 1.526.042 2.965.135 4.49.178 1.476-.044 2.816-.124 4.291-.168-.25-.433-.45-.78-.736-1.076-2.173-3.364-2.224-6.452-3.828-10.03-.563-1.175-1.003-2.538-2.173-3.364-2.153-1.528-2.965-.135-4.845-1.59-.216 1.625-2.255.493-4.04.6-.67.04-2.616.47-2.752.434-3.562-.368-1.02-.566-.474-3.42-1.65.143-.81 2.198-1.803-.923-7.48 5.243-10.825-1.949-13.482-8.151.387.47.91.975 1.297 1.445.98-5.3-5.222-2.643-6.908-5.365 1.925-2.266.4-7.506 1.622-11.79.11-.41 2.961-.67 1.678-1.893-.186-.123-2.861.844-3.48.97-1.327.304-1.037-1.595-2.72-.508-1.508.986-1.554 4.707-1.187 6.343.404 1.5 1.86 2.621 2.123 3.278z" fill="#868686"/><path d="M269.196 45.997c-1.42-1.26-.627-4.488-.361-6.027-2.729.074-3.182-1.511-2.614-4.726.945-5.164 2.908-1.564 6.222-3.824-1.183-1.049-.713-1.435-.084-2.145.526-1.69-3.267-6.659-5.659-6.201-2.565.557-5.019 3.706-8.057 3.843-1.922.071-1.126.65-2.902.175-.41-.11-.986-1.51-1.72-1.779-.732-.27-.723-.853-1.542-1.072-.733-.27-3.285.51-4.364.441-2.915-.049-4.515.181-7.28.392-2.145.084-9.897.057-9.917 1.223.095 4.564 10.088.873 12.333.962 1.03-.017 5.744.148 6.714.627 2.535 1.192 2.546 3.61 5.538 4.193 1.59.352 3.254-1.764 4.56-.901 1.716.972.664 1.349 1.45 2.511-.773-.939 1.504 3.405 1.44 3.095.931 2.811 1.072 6.656 3.165 8.68.633.097 3.699 3.408 3.078.533" fill="#8D8D8D"/><path d="M253.398 24.634c.294 1.909 2.874 4.576 4.946 4.765-2.382-.125 5.42-3.013 3.983-2.3 1.956-1.013 3.444-3.835 6.436-3.253 0 0 4.72 6.974 3.028.445-.096.633-.416 1.28-.935 1.58-.98.103-1.904-4.097-2.017-4.494-2.414 3.819-8.072.62-10.47 2.466-1.496 1.21 3.658-.265.06 2.505-4.641-3.44-8.836-3.905-14.74-3.73-3.397.114-5.44 1.178-8.231.942-1.763-.253-2.436-1.019-4.262-1.581-2.832-.905-4.69-.525-6.776-.937-1.18-.243-5.338-3.847-6.537-2.923-2.225 1.746.16 2.678 1.617 3.8-1.033-.789 6.75 3.493 4.865 3.427 1.439.093.635-2.1 2.361-1.71 1.726.39 3.255 1.238 4.895 1.678 2.682.645 4.89.87 7.592.35 2.479-.507 4.374-1.024 6.83-1.171.569-.214 7.355.14 7.355.14" fill="#818181"/><path d="M272.95 30.897c1.225-.477.252-1.762-.608-2.651-.922 1.802.13 1.425.607 2.651z" fill="#8D8D8D"/><path d="M291.91 54.938c-.27.733-.07 1.08.6 1.039.406-.696.206-1.043-.6-1.04" fill="#868686"/><path d="M275.317 16.598c-.393.92-.143 1.352.663 1.349.407-.697.157-1.13-.663-1.35" fill="#D8D8D8"/><path d="M108.625 44.48c-3.937 1.58-.309 3.064-.375 4.95-.055 4.304-.822 1.976-2.643 5.221-3.027 5.558 2.161 9.144 7.764 5.448 1.4 2.425 3.998.925 4.347-1.47.349-2.396-4.103-4.907-4.204-8.082-.08-1.339 2.852-11.46 5.704-8.72.947.84-3.466 4.196-1.864 4.771 1.193.466 7.552-3.32 8.974-4.257 2.808-1.736 5.689-3.746 8.05-5.456 1.286-.973 5.556-2.977 6.346-4.01 1.665-2.116 2.51-4.451.59-6.576.276-2.123 12.455-5.228 14.834-5.908 3.654-1.071 7.025-1.632 10.906-1.91 1.65-.143 3.412.11 5.184-.221 2.032-.48 4.12-2.264 6.116-2.607-.204-1.153-27.445 1.065-27.817 3.82-4.148-1.185-7.062 1.768-10.09 4.324-2.261 1.883-3.497 2.943-6.022 4.17-1.349.663-2.455.147-3.79 1.034-3.105 2.023-4.726 5.615-8.09 7.788-2.288 1.436-5.263 1.884-7.638 3.37-2.708 1.91-3.26 3.153-6.282 4.32" fill="#787878"/><path d="M237.29 25.735c-4.553-.488-10.059-5.624-12.806-1.382-1.1-1.905-2.146-2.918-3.13-3.62.237.21-2.058.034-2.058.034-.87-.306-1.16-1.41-2.39-1.739-5.04-1.13-4.68 1.894-7.797 3.694-1.126.65-2.519-.162-4.24.255.98-5.3.12-9.192-5.255-9.9-3.115-.395-4.297 1.558-7.172 2.178.224-.013-7.292.169-5.55 1.588 1.88 1.455 6.78 1.743 8.926 1.66 1.03-.018 1.66-.728 2.789-.571 3.215.568 1.052-.377 2.529 2.58 1.163 2.216.305 4.328 2.84 5.52 4.252 2.164 3.691-1.207 6.08-2.47 2.734-1.464 4.853-1.994 7.981-1.376 1.95.376 3.746 2.688 4.788 2.894 2.186.586 4.655.661 7.187 1.047 1.812.34 5.56.831 7.279-.392" fill="#868686"/><path d="M178.883 14.77c-.22.82-1.967 3.792-1.954 4.015-.13 1.576.923 1.199 1.213 2.301.63 2.292 1.705 6.753 2.62 3.338.27-.733 11.826 9.684 12.87 9.89 1.589.353 3.89-.86 3.96-1.94.043-1.526-5.492-4.912-5.192-4.393.983.703 1.89-4.325 1.594-4.038 1.482-1.433-.463-1.003 1.882-.74-.72-.047 3.636 3.097 3.636 3.097 1.32 1.086 2.184 5.783 4.772 4.866-.083.856-2.09 3.978 2.657 3.2.67-.04 3.06-3.499 2.72-4.688-.98-2.898-3.119-1.201-4.762-2.447-2.202-1.615-4.393-9.01-6.675-8.963-1.598 3.232-7.92-1.317-9.23 5.214-.857-.083-5.745-3.15-5.689-4.453.52-.3 3.932-.19 3.751-1.703-.027-.447-2.606-3.114-3.19-3.124.197-.46-1.403 4.967-2.19 3.805-.85-1.472-.98-2.898-.491-4.45-.98.103-1.759.553-2.302 1.213" fill="#B2B2B2"/><path d="M198.337 18.665c1.68 1.108 2.27 5.732 3.84 7.251 1.77 1.865 2.54 1.998 4.762 2.447.906.17 1.62 1.605 2.585 1.279-.396.113 2.947-3.896 3.034-3.946-.277-.88-.837-1.249-1.766-1.059 2.386.932 5.353-1.127 8.322-.186 2.149.723 3.992 2.315 6.018 3.223.92.393 11.595 5.084 11.63 1.946.037-.137-7.87-4.232-8.503-4.329-1.402-.23-3.58.798-4.45.492-.137-.037-3.3-2.715-3.76-2.911-.969-.48-2.708-1.092-3.788-1.161-4.577-.129-6.764 4.483-10.4 4.387-5.073-.188-2.797-7.045-4.706-9.753-4.217 2.896-8.272.273-12.873.504-4.24.254-.073.273.99 2.315-1.722.417-7.39-2.2-6.992.688.267 1.463 5.661 4.006 6.894 5.142 1.398-3.578 1.275-3.392 4.643-4.759.916-.413 4.09-.514 4.52-1.57" fill="#A1A1A1"/><path d="M253.303 17.068c1.124 4.547 4.214-.701 0 0" fill="#717171"/><path d="M181.048 13.52c-2.111 2.143-.501 4.33-.117 6.996.639-1.293 3.31-3.066 3.316-4.455-.093-1.563-1.417-3.455-3.199-2.541" fill="#EAEAEA"/><path d="M178.28 15.926c-3.67.041-40.155 7.249-38.624 11.1 1.443 3.9 5.976-.449 6.596-.576 1.152-.203 1.983 2.435 3.568 1.981.57-.213 2.624-4.055 3.527-4.691 4.217-2.897 9.983-3.109 15.104-3.64 1.202-.117 12.016-.587 9.83-4.174" fill="#919191"/><path d="M112.878 49.645c.35 3.608 2.481 8.498 4.044 11.406 1.464 2.734-1.841 1.41 1.883 2.261-2.545-.609 4.334-1.694 3.282-1.317 3.404-1.504 3.693-3.403 6.297-6.292.124-.186 1.956-1.013 2.302-1.213.953-.55 3.408-.698 4-1.27.247-.374-.863-1.696-.69-1.796.593-.573 2.335-2.156 2.618-2.666.616-.933 1.705-4.448 2.77-4.602.032 4.254 4.16-7.597-1.842-1.592-2.828 2.903-3.013 5.781-6.528 7.695-1.782.913-.946-.84-3.257.957-.174.1.467 1.809.147 2.455-2.064 4.425-3.577 4.605-6.752 1.705-.71-.63.339-1.813-.954-2.452-1.243-.553-3.171.907-4.377.218.173-.1-3.08-6.535-2.943-3.497" fill="#585858"/><path d="M105.492 51.253c.633.096.93-.19.94-.773-.077-.533-1.216-.106-.94.773" fill="#787878"/><path d="M138.252 43.194c3.986-4.496 1.346 1.532 1.943 4.766 1.041 5.404 4.913 5.709 8.916 2.243 1.063-.96 1.179-2.759 3.197-3.463 1.932-.653 4.621 1.605 6.273-.734.666-.847.971-4.718 1.474-6.048 1.937-5.044 1.679-1.892 4.813-2.663 2.912-.757 4.635 1.828 2.214-4.165-1.217-3.108-3.21-4.96-6.721-5.242-1.08-.07-2.075 2.007-3.577 1.604-1.503-.403-2.02-2.298-3.523-2.7-3.328-.966-2.138 1.696-4.197 1.73-1.03.017-1.51-2.015-2.812-2.072-1.303-.056-1.682 1.087-2.772 1.6-.52.3-1.206-.689-1.835.02-.58.797-.559 2.633-.769 2.87-1.012 1.046-1.668 1.31-3.834 2.56-.606.35-5.075 5.008-4.839 5.218.674.766 3.905-.638 4.974.015 2.313 1.205-1.434 3.715 1.075 4.46" fill="#555"/><path d="M129.75 64.268c1.396 1.619 6.9.75 7.104 4.905.03 1.253-1.392 2.19-2.404 3.236 2.642-.025 5.333.038 7.939.15-.05-.086-.1-.173-.064-.31-.05-.086 4.28-2.586 4.76-3.556 1.451-2.685 1.053-8.575-.224-11.187-.99-2.315-5.778-5.208-5.925-7.664-.104-.979-.604-1.845-1.277-2.611-.973 1.716.3 3.521-.302 4.677-.653 1.07-4.763 2.75-6.026 3.364-2.438 1.177-3.284.51-4.03 3.02-.905 2.831 1.53 3.85.449 5.976z" fill="#757575"/><path d="M8.628 66.879c-2.06-2.968-1.365 2.635-2.021 2.899 2.429 2.408 2.97-4.256 5.919-2.148.226-2.208-2.39-1.738-3.779-1.744.35.606.327.966-.12.993m6.04 5.058c-.75-1.299.821-1.976 1.637-2.562-1.44-3.095-6.715 1.568-7.664 2.924 2.401-1.04 4.7-.058 6.026-.362" fill="#585858"/><path d="M.489 66.382c1.932-.654-1.007-3.345.908-5.028-2.679.16-2.667 5.581-.908 5.028z" fill="#696969"/><path d="M13.793 59.624c.186.124-3.692-1.794-3.352-.605.367 1.636 2.462 1.465 3.352.605M1.5 70.532c.596.233.92.393 1.429.676-.363-.83-.637-.903-1.43-.676M8.395 59.276c-.296.287-.592.574-.752.897.683.183.98-.104.752-.897" fill="#585858"/><path d="M21.39 44.384c-.343 1.006-.006 1.389.887 1.335.53-.883.193-1.266-.887-1.335" fill="#EEE"/><path d="M20.628 26.464c-.356.783-.156 1.13.55.953.456-.61.22-.82-.55-.953" fill="#C2C2C2"/><path d="M49.268 23.67c.27-.733.453-1.416.722-2.15-1.376.218-2.858 1.65-.722 2.15M52.3 44.32c-.327-.965-.96-1.062-1.813-.339.497.06 1.18.243 1.813.34" fill="#4B4B4B"/><path d="M266.344 65.657c2.59 2.084 5.391 1.737 5.36 5.682-1.703 2.252-1.78 1.72-.153 4.937a312.04 312.04 0 0 1 6.76-.092c-.063-.31-.213-.57-.363-.83-1.424-2.065-2.725.88-4.058-.428-.76-.716 3.229-18.608-5.024-11.302-.214-.57 3.387-2.533 4.056-2.573 2.506-.061 4.01 3.343 5.366 4.292 4.578 3.13 9.662 2.735 14.09 5.606 1.63 1.022 2.78 3.014 3.93 5.006a90.04 90.04 0 0 1 4.8.115c-1.326-2.698-1.092-8.492-4.447-9.903-1.33-.503-3.321.647-4.687.281-1.813-.34-1.68-1.109-3.296-1.908-3.642-1.708-7.33-2.696-10.849-4.59-2.225-1.256-3.329-3.967-5.141-4.306.906.17-2.632 2.442-2.718 2.492-1.09.514-3.025.361-4.374 1.025-1.176.563-2.2-.81-3.071 1.08-.603 1.156 3.396 5.083 3.82 5.416z" fill="#A4A4A4"/><path d="M273.42 55.913c.785 6.36 8.288 5.954 13.076 8.848 2.14 1.305 3.929 2.004 6.337 2.576 1.043.207 2.516-.643 3.522-.3 1.552.489.924 4.2 3.562 3.37.913-1.22-.228-3.795.658-5.46-.783-.357-2.902.173-3.858-.083-1.073-1.459-2.302-1.788-3.565-1.175-.68.623-1.436.714-2.269.27-2.745-.954-5.74-2.343-8.263-3.311-1.193-.466-2.099-.636-3.118-1.202-5.248-3.09-4.575-10.523-10.219-13.5-1.688 2.477 2.355 7.879 4.138 9.967" fill="#979797"/><path d="M274.909 53.091c-.486 2.359.841 5.057 3.16 4.873-.53-2.119-1.59-3.354-3.16-4.873" fill="#8D8D8D"/><path d="M272.813 30.86c-.798-3.58-4.738-2.806-3.921-.391.54 1.535 3.158 1.871 3.92.392" fill="#BFBFBF"/><path d="M269.196 45.997c.477 1.226 3.22 4.376 4.103 4.906.153-1.936-2.327-4.43-4.103-4.906M273.549 51.336l1.47 1.345c1.022-1.63.499-2.135-1.47-1.345" fill="#8D8D8D"/><path d="M276.557 49.946c-.487-.643-.923-1.2-1.46-1.929.067 1.116.367 1.636 1.46 1.929zm-7.937-13.547c.803-.81.776-1.256-.03-1.253-.47.387-.443.833.03 1.253z" fill="#717171"/><path d="M207.46 25.868c2.993.582 8.966-.673 12.99.698.684.183 2.483.3 3.266.656-.754-2.106 4.15-1.011 4.374-1.024 2.955.718 5.917 3.05 9.355 3.605 3.029.445 5.334.038 8.48 1.686 1.292.64 7.227 4.718 8.566 4.638 1.563-.094 2.988-3.226 4.477-3.046 2.705.285.29 1.102 1.44 3.094.3.52 1.906 1.902 2.02 2.298.19.93.177 3.708.34 4.191 0 0 4.284 6.418 5.316 4.206.06-.496-2.063-3.774-2.277-4.344-.853-2.278-1.164-5.216-1.671-7.695-3.355 1.59-.325-3.161-3.27-4.463-1.38-.59-2.648 1.413-3.964 1.134-2.905-.632-2.28-2.148-3.809-2.997-6.29-3.296-10.644-.436-16.66-.658-2.333-.039-2.496-.522-4.795-1.504-.783-.356-1.953-1.182-3.046-1.475-1.366-.366-3.458.61-4.277.391-1.826-.562-3.25-2.627-5.931-3.273-3.689-.988-7.41-1.033-9.514 2.722" fill="#979797"/><path d="M253.398 24.634c-1.546-1.879-11.687-.643-14.062.844 2.036.326 4.401-.578 6.46-.612 3.038-.138 4.571 1.518 7.602-.232" fill="#868686"/><path d="M268.707 25.148c-1.05-1.818-1.796.69-1.882.74-.483.164 3.118 1.202 1.882-.74" fill="#F6F6F6"/><path d="M138.252 43.194c-.188-3.125 2.97-4.256-2.43-5.41-5.178-1.168-8.432 3.597-12.156 5.747-1.558.9-6.282 1.318-7.335 1.695-1.349.664-7.275 4.2-2.064 4.425-.858 5.114 2.3 3.984 6.144 3.843-1.557 3.901 3.24 6.212 6.095 3.756 1.149-1.01 1.254-5.228 2.093-6.174 1.692-1.67 4.201-.925 6.513-2.72 1.075-.738 2.19-3.806 3.14-5.162z" fill="#4D4D4D"/><path d="M137.075 32.557c-.117-1.203-.63-2.292-1.49-3.182-.756.09-2.554 2.976-3.32 3.65-.087.05-7.958 4.016-4.756 4.362.993.12 2.411-1.623 3.774-2.063 4.284-1.78 1.896 2.484 5.792-2.767" fill="#939393"/><path d="M113.856 46.54c.78-.45 9.687-2.822 6.438-5.45-1.32-1.085-8.22 3.361-8.04 4.874.126.62 1.242.552 1.602.576" fill="#8B8B8B"/><path d="M212.198 25.673c-2.638.83-2.794 1.96-3.317 4.455-1.007 4.855-.358 2.979 2.011 5.883 1.21 1.495 1.38 3.59 4.222 3.913 3.662.542 4.087-4.322 1.82-6.247 2.505-3.062 5.396 5.545 6.476 5.615 2.209.226 3.197-3.463 1.354-5.054 2.914-2.953 5.524.967 4.432 3.676.123-.187-5.535 4.812-5.312 4.8-.464-1.004 1.398-3.58-.474-3.422-2.406.234-3.128 2.383-3.827 4.172-2.147 5.281 1.68 4.11 5.879 5.382 1.006.343 5.784 3.82 7.2 1.27 2.227-3.942-7.65-2.05-6.745-4.882 2.542-.197 1.803 3.924 3.958.256 1.009-1.853.182-3.685.182-3.685s11.925 6.856 5.076-2.007c-2.52-3.164-3.02-7.032-6.962-9.26-.697-.406-2.519-.162-3.488-.641-1.243-.553-2.803-2.655-4.146-3.38-1.802-.923-6.587-3.01-8.339-.844" fill="#909090"/><path d="M220.216 43.56c.312-5.26 5.523-2.034 1.863-7.772-.986-1.51-2.596-3.698-4.655-3.664-2.282.048-1.232 1.866-1.342 2.276-.243 1.18 3.322 2.354.974 4.288-2.261 1.883-3.018-1.029-4.225-1.718-1.816-1.146-3.975-4.287-3.973-6.482-2.384 2.07.055 3.895-3.92 2.61 1.145-1.816 1.885 8.265 1.985 8.438-.356.783-.353 1.59-.163 2.518.583.01 1.08.07 1.663.08.336.383 2.599 1.502 3.259 2.044 1.42 1.26 4.61 7.385 5.989 7.974 2.808-1.737-.277-.88 5.506-3.063.743-.314 3.844-.141 4.05-1.184.253-1.763-3.206-4.154-4.66-2.274-1.174-1.632-2.11-.053-2.16-.14-1.333-1.308.082-3.857-.19-3.93" fill="#A1A1A1"/><path d="M181.055 23.33c-.247.374-.58.797-.826 1.17-1.447-1.705.138-5.16-4.216-5.302-5.024-.102-1.862 2.576-.452 4.418.587.816 5.169 4.752 5.219 4.839.884 3.53-6.805 3.813-5.359 5.518.923 1.2 4.688-.28 6.423-.475 0 0 3.162-.324 2.515-.643 1.343.725.68 2.378 1.95 3.377 1.93 1.542 5.172 2.557 6.173-.908 1.45-5.687-8.615-9.922-11.427-11.993z" fill="#7E7E7E"/><path d="M204.415 32.592c1.722-.417 1.905-1.1 2.804-2.543-.35-.606-5.181-1.974-6.3-2.713-1.68-1.11-2.393-2.545-4.21-3.69-2.699-1.675-1.7-2.945-3.807.004-.37.56-.968 5.524-.395 6.117.197-.46.343-1.006.54-1.466 1.079.07.357 2.219 1.003 2.538 1.02.566 2.112.86 3.045 1.475 3.01 1.612 4.262 1.581 7.32.278" fill="#C4C4C4"/><path d="M173.265 20.438c2.648-1.413 6.96.255 5.166-4.252-5.586 4.726-14.19.224-19.282 4.204-2.867 2.233-.512 1.912 2.453 2.048 2.159.139 11.25.086 11.663-2" fill="#A2A2A2"/><path d="M208.375 38.85c-.965-4.87-5.543-8-10.25-6.553-5.896 1.788.996.926.695 5.603-.053 2.11-3.887 4.67.658 5.74 3.998.925 3.114-2.606 3.443-3.835.293-1.093-1.424-5.067.968-5.524 1.599-.23 2.457 5.856 4.486 4.57" fill="#939393"/><path d="M195.304 33.81c.023-.36.096-.632.033-.942-.333.423-.716.76-1.2.923-1.226-2.525-4.125-4.546-6.082-6.535 1.997 2.658 3.133 4.427 3.421 7.725.12 2.009-2.515.644-1.028 3.019 3.696 5.602 8.114-2.145 4.856-4.19" fill="#A1A1A1"/><path d="M184.418 18.156c-1.119 2.262 4.652 2.857 5.527 1.774 2.035-2.676-4.741-3.613-5.527-1.774" fill="#848484"/><path d="M198.337 18.665c-4.981-1.628-.661 4.654.29 1.102-.11.41-.223.014-.29-1.102" fill="#C4C4C4"/><path d="M196.29 32.318c1.465.539 3.231 1.598 4.877.648-1.093-.293-3.752-1.298-4.878-.648" fill="#A1A1A1"/><path d="M180.968 23.38c.397-.112.88-.276 1.413-.353-.04-.67-.377-1.052-1.01-1.149-.706.177-.156 1.13-.403 1.503" fill="#7E7E7E"/><path d="M201.167 32.966c1.13.156 2.245.089 3.448-.028-.514-1.09-2.929-.272-3.448.028" fill="#A1A1A1"/><path d="M212.198 25.673c8.915-.76 13.11 2.708 19.089 8.263 1.233 1.135 1.077 2.265 2.643 2.977.596.233 1.901-1.906 2.834-1.29 2.34 1.652 3.087 5.146 6.382 7.054 1.157.603 3.092.755 4.125 1.544 1.593 1.16 1.734 5.004 4.18 5.44 3.575.591 2.783-4.38 5.579-3.337 2.062.772.686 9.188 5.668 13.817 1.522-.763 1.622-.59 2.212 1.032.497.06 3.997-2.077 4.43-2.327 2.302-1.213 4.322 1.085 4.214-3.702-.03-1.253-2.108-5.25-3.017-6.226-.287-.296-1.4-2.425-3.353-3.607-1.356-.949-2.922-1.661-6.003.002 3.873-4.892-1.386-10.4-1.588-5.55 3.648-10.882-3.459-2.39-7.184-3.242-4.68-1.108-7.617-5.995-13.028-6.566-5.41-.571-10.934-1.539-16.129-3.736-2.572-1.055-12.855-6.665-13.805-.112.766-.673 1.695-.863 2.751-.434" fill="#ADADAD"/><path d="M233.91 29.88c3.323 2.355 2.433.213 5.402 1.155 2.968.941 2.882.991 5.22 2.643.847.666 1.414 2.648 2.247 3.091 2.053 1.355 5.753-3.437 5.221 2.644 2.073.189 7.089-4.324 7.225-4.287 2.759 1.178-1.824 5.44-.354 6.786 1.609-.813.682-2.818 1.918-3.878 3.482 2.03-2.766 8.41-.964 9.332 1.48.762 3.33-4.232 4.874-.159 1.167 3.022-3.826 4.173-3.67 6.045.252 3.435 3.786.355 4.611-.814 1.949-2.626 1.749-2.973.222-6.017-.864-1.696-1.887-3.068-2.327-4.43.05.086.612-1.74.349-2.396-.327-.966-1.583-1.742-1.996-2.658-.84-2.055.201-4.85-2.864-5.16-1.08-.069-3.92 2.61-4.636 3.37-1.323-1.891-2.786-1.624-4.588-2.547-1.53-.849-3.373-2.44-4.889-3.066-3.815-1.608-7.096-.291-11 .346" fill="#A3A3A3"/><path d="M254.345 17.274c-.27.733-.07 1.08.637.903.32-.647.17-.906-.637-.903" fill="#DDD"/><path d="M173.265 20.438c-3.35 2.397-11.607.697-15.784 1.261-5.157.668-5.897 1.788-7.96 6.213-2.38-2.321-3.72-2.241-5.817.125.916-.413 1.695-.863 2.475-1.313 1.152-.204 1.762.252 2.052 1.355-.843.14 3.708-.178 2.205-.58.274.073 2.16.139 3.215.568 1.69.526 1.66 2.275 3.546 2.341 6.017.221 2.29-3.632 8.995.58 4.938 3.153 3.842 2.054 5.533-2.617 1.926.736 3.838 1.248 5.824 1.487-.98.104-3.5 2.137-2.564 3.56-.2-.347 6.206-1.852 7.558-1.709-.403-1.499-1.175-7.635-3.046-4.476-2.403-1.962-2.904-5.83-6.232-6.795" fill="#6F6F6F"/><path d="M134.196 48.768c-1.34.08-7.06-.427-5.597 2.308 2.532-2.616 2.78 3.014 5.597-2.308m-5.497 2.48c-1.051 3.38-2.411 1.624-2.193 6.002.38-1.143 3.75-4.706 2.193-6.001m9.553-8.055c-1.26 1.42-2.174 4.834-3.847 5.338 1.726.39 4.114-3.876 3.847-5.338" fill="#555"/><path d="M118.331 59.89c-.693.4-.839.947-.439 1.64.966-.327 1.112-.873.44-1.64" fill="#4D4D4D"/><path d="M139.657 41.228c-.197.46-.53.883-.813 1.392 1.343.726 1.846-.603.813-1.392" fill="#6D6D6D"/><path d="M233.64 69.412c-3.512-3.284-.848 4.53-.434 5.447.1.173.113.396.126.62 1.39.006 2.829.099 4.218.105.02-1.166-.42-2.529-.128-3.622-.192 1.267 1.683 1.916 1.924 2.932.063.31.076.533.003.806 2.109.052 4.354.142 6.463.194-.026-.446-.053-.893.02-1.166.352-4.59 3.625-7.52 2.675-12.167-.875-4.114-4.097-6.295-6.876-9.31-.96-1.062-3.354-6.608-5.098-2.83-.91 2.026.857 3.085 2.176 4.17 2.03 1.716 4.148 1.185 4.732 4.197.484 2.838-2.051 1.646.045 4.477 0 0 6.497 2.254 1.33 3.505-2.205.58-4.189-4.856-5.38-2.32-.204-1.153-1.862-8.625-5.266-4.12-1.122 1.456 2.997 4.39 1.135 6.966-1.902-1.096-.852-7.476-4.499-4.793-3.524 2.497 1.984 5.437 2.834 6.909zM186.741 74.78c-.833-.442-1.083-.875-.36-3.024.745-2.51 6.505-4.333 1.84-7.413-3.732-2.465-3.984 2.3-5.9 3.983-2.384 2.07-4.722 3.42-6.97 5.525-.21.237-.42.474-.543.66 3.994.119 7.939.15 11.933.27zM141.706 52.977c-.073.273 3.713 3.63 4.276 4.806 1.29 2.835 1.141 5.577.509 8.482-.243 1.18.48 2.032-.395 3.115-.963 1.133-3.035.944-3.738 1.927-.456.61-.702.983-.812 1.392 2.109.053 4.13.156 6.203.345-.267-1.462-.33-1.772 2.735-1.463 1.849.202 2.076.995 2.662 1.811 3.462.196 6.973.478 10.435.673-.1-.173-.2-.346-.387-.47-2.516-2.357-8.735-.73-10.845-3.784-.213-.57 2.95-3.09 3.443-3.836 1.492-2.016 4.253-6.034 3.509-8.723-.113-.396-5.386-6.128-6.392-6.47-1.652-.663-2.692-.063-4.068.154-1.822.244-4.387.8-6.469 1.195l-1.256-.776c-.16.323.937 1.422.59 1.622z" fill="#898989"/><path d="M155.975 73.491c-1.68-1.109-3.21-1.958-4.215-2.3-.147.546-.107 1.215-.016 1.972 1.402.23 2.792.235 4.23.328zM149.052 73.1c.12-.993.289-1.899.249-2.568-1.39-.007-2.765.21-4.078.737.04.67.29 1.103.59 1.622 1.167.02 2.246.09 3.239.21z" fill="#969696"/><path d="M160.937 37.486c-1.931 3.655-1.84 7.413-5.28 9.053-1.66.727-4.959-1.987-6.147 1.355-.649 1.876.873 1.112 1.297 1.445 1.033.79 6.82 2.414 8.76 3.372 3.504 1.672 5.486 1.105 9.58 1.397-.491 3.748-6.245 1.181-8.31 2.604-2.918 2.147-1.035 4.408-2.573 7.144-1.662 2.922-4.32 1.917-2.967 5.061.627 1.486 4.765 3.254 6.044 3.67 2.473.882 6.138 2.23 8.74 1.536 2.651-.607 4.736-3.197 7.074-4.547 4.553-2.513 10.16-5.403 11.573-10.954.463-1.999 1.122-4.458 1.065-6.157-.027-.446 1.408-1.16 1.241-2.449-.09-.756-4.116-5.129-5.008-5.075-.893.053-3.344 4.008-3.4 5.311-.146 3.548 2.922 1.662-.531 6.08-1.086 1.32-10.771 10.145-11.984 7.843-1.014-1.955 2.727-3.076 3.39-4.728 1.018-2.436-1.021-3.568-.995-6.123 2.149.722.734 3.27 3.532 2.117 2.451-.953 2.657-4.998 1.16-6.79-1.596-1.965-1.47-1.345-3.192-.928-4.46 1.074-.502 1.33.075 2.728 0 0-4.729-3.39-4.592-3.353-2.286-.759-5.8 1.155-6.92.415-1.629-1.022-1.062-10.24-1.632-10.027" fill="#5E5E5E"/><path d="M175.89 33.587c.337-2.619 4.244-2.45 3.081-4.665.2.346-7.736-2-8.47-2.27 1.424 13.266-6.6-3.232-9.863 2.116 4.404.228 6.79 4.162 6.772 8.33-2.502.867-4.778-3.477-6.463-.195 0 0 .46 3.198.36 3.025 1.51 2.015 3.576.592 4.865.425 3.148-.547 6.283-1.318 6.115-5.609 1.862.426 3.105.979 3.604-1.157z" fill="#5E5E5E"/><path d="M162.448 53.703c-.993-.12-2.949-2.108-3.559-2.564-1.206-.689-3.295-1.908-4.948-2.57-3.392-1.275-6.363-.021-7.065 3.963 1.676.303 2.722-1.686 4.62-1.397 2.086.412 2.34 1.652 3.473 2.614.287.296 5.203 6.811 3.9 6.755-2.065 1.423 4.82-4.053 1.019-2.436-.26.15 3.464-2 3.217-1.626.763-1.48 1.989-1.957-.657-2.739" fill="#727272"/><path d="M146.876 52.532c.383-.336.853-.723 1.323-1.11-2.972 1.254-5.134.309-7.213-1.493-.633 2.905 4.588 2.547 5.89 2.603m-5.641 6.029c.302-1.676 2.415-.817 2.718-2.493-.993-.12-2.023-.103-2.902.174-.07-1.922-1.723-2.585-2.372-.709-.576 1.603 2.927 8.471 3.96 9.26 1.88 1.456 2.703 2.482 3.241-1.986.535-5.274-1.86-2.621-4.645-4.246" fill="#6D6D6D"/><path d="M138.478 63.386c-1.287-2.029.482-3.165-1.66-5.277-.86-.89-6.102-2.367-6.6-.231-.463 2 5.939 7.887 8.26 5.508" fill="#898989"/><path d="M141.491 68.805c-.97-.48-1.626-.216-1.745.777.933.616 1.452.316 1.745-.777" fill="#6D6D6D"/><path d="M286.422 73.233c-.252 1.762-1.365 2.635-2.604 2.889 1.39.006 2.865-.038 4.254-.031 1-1.27 1.775-2.526 1.608-3.815-.474-3.422-4.282-3.417-6.298-4.909-1.378 2.412 3.426 3.334 3.04 5.866zM273.716 63.825c-2.171 2.64 2.732 8.931-1.689 10.675 1.383 1.395 4.135.961 5.118 1.664 1.836-.02 3.535-.078 5.37-.098a3.126 3.126 0 0 1-1.33-.503c-.559-.37-3.572-5.789-3.713-6.632-.217-1.375 1.085-4.32 1.249-3.838-.984-3.704-7.758-6.837-10.222-3.105-3.254 4.765 2.562 1.638 5.217 1.837z" fill="#979797"/><path d="M289.068 74.015c.226.793.217 1.376.12 2.009.223-.014.447-.027.806-.004 2.866-.038 5.78.012 8.56.024-3.038-5.06-12.3-10.104-14.052-7.938 2.912 2.245 3.595 2.428 4.566 5.909z" fill="#BFBFBF"/><path d="M280.09 74.464c.04.67-.157 1.13-.526 1.69 1.922-.071 3.758-.092 5.68-.162 1.235-1.06 2.408-2.43 2.467-2.926.15-2.742-6.249-7.824-8.83-8.296-6.317-.741-.44 9.838 1.208 9.694z" fill="#848484"/><path d="M268.467 68.934c.987 1.51.588 3.818 1.018 5.763.077.533.24 1.016.454 1.586.67-.04 1.253-.03 1.972.016-.45-.78-.936-1.422-.963-1.869-.238-3.211 1.219-2.089 1.281-4.78-.404-1.5-.72-3.049-1.124-4.548-4.73 4.809-7.235-6.33-8.99-4.97-3.178 2.296 5.666 7.813 6.352 8.802z" fill="#ADADAD"/><path d="M270.237 29c-2.078 1.2 1.237 1.941 1.237 1.941-.087.05.841-3.142-1.237-1.942" fill="#FAFAFA"/><path d="M233.37 36.543l-2.17-2.557c.54 1.535.77 3.134.691 4.797.464 1.002 1.297 1.445 2.276 1.342.823 1.025 2.143 2.111 3.066 3.31-1.801 2.08-6.348-4.995-9.075-1.92.21-.236.115 6.4-.422 5.671 2.16 3.14 11.171 1.749 11.937-1.926.558-2.632-3.994-8.317-6.303-8.717" fill="#A1A1A1"/><path d="M238.87 46.07c-1.536.54-4.387.8-5.636 1.637-.26.15-3.038 3.14-2.778 2.99-1.14.426-2.749-1.762-4.568-.712-2.857 1.65-.268 3.735.526 6.51-1.513.18-2.333-3.041-3.829-1.831-2.052 1.646 2.184 5.782 3.71 5.825 5.447.435-.539-6.733 1.386-8.999.223-.013 4.458 1.122 4.458 1.122-.137-.037 6.084 1.337 5.6 1.5 1.363-.44-1.313-2.475-.77-3.134.543-.66 2.671-1.774 2.658-1.997.063.31.815-3.588-.757-2.911" fill="#7B7B7B"/><path d="M223.806 39.178c-.769 2.87-2.197 5.195 1.207 3.691.57-.213 2.122-2.726 2.701-3.522 1.469-1.656 2.345.262 3.018-1.973.978-3.105-3.754-7.302-6.472-4.809-1.445 1.297.515 4.091-.454 6.613" fill="#818181"/><path d="M227.365 30.542c2.098-2.366-12.173-9.484-13.964-4.986 2.515-.644 13.448 6.092 13.964 4.986" fill="#B6B6B6"/><path d="M227.686 47.1c.903-.637-1.403-3.232-1.826-3.565-2.189 1.61-.698 4.791 1.826 3.564" fill="#818181"/><path d="M227.365 30.542c-1.59-.353-3.315-.742-4.918-1.318 2.316 2.012 5.84 2.517 8.503 4.329-.936-1.423-2.07-2.385-3.585-3.01" fill="#A1A1A1"/><path d="M220.216 43.56c-.196.46-.046.72.55.953.52-.3.716-.76.453-1.416-.31.063-.656.263-1.003.463" fill="#818181"/><path d="M195.304 33.81c-2.458 2.343 1.267 3.195.011 5.42-1.292 2.363-9.796-4.967-9.715-.626.537.73 4.789 2.894 5.299 3.177 1.02.566 3.715 1.435 4.524 2.237 2.94 2.691 4.044 8.404 8.246 10.482.136.036 2.192-.804 3.198-.461 1.006.343.84 2.055 2.17 2.558 6.323 2.353 2.648-1.414 1.611-3.009-.4-.693-2.13-4.89-1.314-5.477.086-.05 4.775 2.67 4.875 2.844 1.113 2.128-2.914 5.954 1.444 6.902 6.17 1.288.514-7.11-.522-8.705-1.823-2.758-4.364-7.757-7.914-5.707-.13-1.426 1.315-10.921-3.518-10.094-2.169.444-3.703 6.988-1.18 7.956-.863 1.307-3.178 2.297-4.251.838-1.31-1.669.662-1.653.669-3.042.125-2.382 1.743-6.78-3.633-5.292" fill="#7E7E7E"/><path d="M227.438 60.869c-1.557-1.296-4.242-2.748-4.732-4.197-.93-2.811 2.528-.42 2.158.14-.16.323 1.697 2.138 2.492-.284.796-2.423-3.48-4.227-1.418-6.456-1.202.117-2.295-.176-3.241-1.015-1.462 3.268-3.116-.396-3.707 3.179 0 0 2.843 6.326 3.23 6.795 0 0 4.103 4.906 3.456 4.587 3.642 1.707 4.73-1.808 1.762-2.75" fill="#8E8E8E"/><path d="M221.965 54.79c.193-1.266-2.133-2.694-2.783-3.82-1.186-1.855-1.177-5.44-4.758-4.643.49 1.45 3.96 9.26 4.67 9.89 1.543 1.072 3.132 1.425 2.871-1.427" fill="#DADADA"/><path d="M221.965 54.79c-2.487 4.092-2.345-.262-3.532-2.117-.7-1.213-3.22-4.377-3.263-5.853.433-.25 1.016-.24 1.562-.094a5.098 5.098 0 0 0-2.745-.955c-.16.323 3.52 7.898 4.034 8.987 1.604 3.578 5.622 6.338 3.944.032" fill="#B5B5B5"/><path d="M209.454 38.92c.787 1.162 2.244-2.913 2.081-3.396-.767-2.328-2.835 1.29-2.081 3.396" fill="#C2C2C2"/><path d="M175.89 33.587c-1.97 2.986-2.995-1.388-4.64-.438-1.212.7.774 3.94-1.428 5.327-1.941 1.237-2.832-.905-4.454-.315.834 3.445-4.75 2.973-2.685-1.452-2.523-.968-1.058 4.768-3.054 5.112 1.098 4.1 1.318 6.283 4.67 6.888 2.035.326 4.29-3.17 5.724 1.314.839-.946 5.09-1.784 5.053-1.647-1.654-3.665-4.958-1.988-8.003-3.463.696.407 7.963 2.793 8.979 2.553 4.98-1.374-3.746-5.69-5.286-5.955 2.265-1.077 5.381 2.32 7.366-.442 1.282-1.78-.644-2.515-.644-2.515s1.258-4.422-1.597-4.967" fill="#6F6F6F"/><path d="M185.997 38.49c2.858-1.65 12.351 4.994 9.27-1.541-.045 3.721-2.374 1.486-4.3.75-1.876-.648-2.968-.941-4.065-2.04-1.756-1.642.332-3.425-2.736-4.54 1.329.503-3.405 1.504-3.008 1.39-2.132.307-4.022-.565-4.507 1.794 1.939.959 3.698.405 5.824 1.487-.36-.023 3.706 5.02 3.522 2.7" fill="#9D9D9D"/><path d="M192.759 36.203c-.616.933-.49 1.553.294 1.91 1.862.425 1.525-2.96-.294-1.91" fill="#DEDEDE"/><path d="M198.627 19.767c-.773-.939-1.406-1.035-2.022-.102.5.866 1.22.912 2.022.102" fill="#F7F7F7"/><path d="M241.446 47.931c-.254-1.239-1.763-.252-1.846.604-.349 2.395-.121 6.19 3.24 6.212 3.139.036 0-3.002 2.998-3.809 1.189-.34 3.368 1.635 3.622 2.874.784 3.358-1.682 1.087-1.921 3.072-.11.41-.324 8.04 2.3 6.986.83-.364.261 2.851-.068 4.08-.11.41-3.61 5.549-2.377 6.684 3.14 3.038 5.135-8.506 5.394-11.658.657 2.738 5.434 11.412 6.257 12.438.286.296.436.556.723.852.137.037.223-.013.446-.027 3.275.073 6.637.095 9.862.08-.114-.396-.214-.569-.214-.569-.584-3.011-.645-5.517-2.454-8.051-1.324-1.892-3.36-2.218-4.176-4.633-.477-1.226.85-6.727 1.224-6.48-1.22-.913-1.169 2.176-3.498-.06-.997-.925-.974-1.285-1.45-2.51.576 1.398-.482-5.034-.455-4.588-.39-1.276-1.57-4.52-3.446-5.17-1.046 1.99-1.591 4.845-3.887 4.67-1.762-.253-2.246-3.092-3.142-3.844-1.233-1.136-2.176-1.169-3.483-2.031-2.475-1.689-4.272-4-6.315-5.938-2.006-2.075-1.567-3.714-5.497-.522 1.398 4.62 6.725 6.048 8.163 11.338z" fill="#BDBDBD"/><path d="M234.395 32.719c-1.897-2.485-5.662-4.006-2.592.11.823 1.026 3.722 3.047 2.592-.11" fill="#A1A1A1"/><path d="M165.33 74.094c3.598.232 7.233.328 10.73.387 1.889-2.13 4.117-3.07 6.032-4.753 2.212-1.97 4.292-8.367 7.182-2.76 1.414 2.647-6.615 4.742-5.274 7.663 4.304.056 8.608.111 12.999.116.137.037.36.023.446-.027.32-.646.503-1.329.363-2.172-.23-1.599-3.593-4.623-4.49-5.375 2.843.322 6.534 2.116 6.41-3.7-.021-1.836-2.384-3.128-2.118-4.667.619-3.129 6.283-1.318 5.895-4.79-1.403-3.23-4.346-6.728-6.812-8.999-.523-.506-1.287-2.028-1.996-2.658.81.803-4.762-2.447-3.756-2.104 0 0-2.71-4.094-2.905-.632-.116 1.799 2.53 2.581 2.796 4.043.454 1.586-1.128 2.846-.401 4.505-.627-1.486 4.428 2.87 4.005 2.537-2.072-.19-1.806-1.728-3.911-.975-1.76.554-1.895 3.519-2.248 5.108-.146.547.43 1.946.225 2.988-.17.907-1.758 3.556-2.301 4.215-1.592 1.843-4.09 3.516-5.945 4.703-3.834 2.56-7.554 5.516-12.178 6.107-3.025.361-14.397-4.736-14.856-1.93 2.576 1.86 5.75 1.76 8.15 2.915 1.44.093 2.655.2 3.958.255z" fill="#767676"/><path d="M230.424 74.04c.213.57.413.916.526 1.313.943.033 1.973.016 2.965.135.413-2.085.142-4.354-1.504-6.406-.387-.47-3.303-3.52-2.479.508-.663-1.35-3.016-3.224-3.851-1.472-1.205 2.313 3.83 4.833 4.343 5.922zM195.792 71.056c1.2 2.079.98 2.898.537 3.731.224-.013.447-.026.583.01.893-.053 1.75.03 2.692.063.307-.87.75-1.703.869-2.696.156-1.13-.9-1.559-.807-2.998.093-1.44.632-2.905.948-4.358.03 1.253 4.052 1.818 6.343 1.188-.133.77-.288 4.9.212 5.766.913 1.782 2.626 1.948 3.24 3.21 3.72.046 7.492.178 11.35.26-.464-1.002-.877-1.918-1.09-2.488-.49-1.449-.366-6.833-1.052-7.822-.437-.556-.774-.94-1.147-1.186.173-.1.383-.336.506-.523.37-.56-.098-5.37-.248-5.63-.973-1.285-2.665.384-3.761-.715-.91-.976.382-3.338-.328-3.968-.71-.629-2.019.704-2.815.125-.883-.53-.79-1.97-1.673-2.499-3.21-1.957 2.867 5.966 2.903 5.83-3.944-.032-4.405-3.23-7.657-3.663-.993-.12-8.2 5.197-8.26 5.693-.769 2.869 3.203 3.347 2.014 6.69-1.814 4.857-4.86.38-7.781 1.72.553 1.76 3.222 2.182 4.422 4.26zm21.193-6.693c-.823 1.976-.528 6.887-.738 7.123-1.966-1.405-3.034.944-3.599-3.233-.487-3.645 2.218-3.36 4.337-3.89zm-12.722-7.435c.62-.127.489-1.552 1.655-1.533-.31.064 7.63 3.216 7.867 3.426-2.281 3.049-2.939.31-4.557 1.707 0 0-.823 1.976-1.448 3.492-1.183-1.05-3.203-3.347-3.203-3.347-.983-.703-2.312-1.206-3.805-2.191 1.276-.39 4.283-1.78 3.49-1.554z" fill="#6D6D6D"/><path d="M256.357 76.157c-.075-2.728 1.68-7.09-1.002-7.735-3.265-.655-5.3 5.022-6.131 7.581 2.332.04 4.664.079 7.133.154zM247.475 75.974c-2.576-1.862 2.882-7.207 2.575-9.34-.167-1.288-2.314-7.208-3.307-7.327-1.344 4.47 1.037 1.595 1.46 4.93.438 3.558-1.933 5.85-2.551 8.979-.17.906-.203 1.849-.15 2.742.67-.04 1.34-.08 1.973.016z" fill="#989898"/><path d="M227.688 61.302c1.407 4.037.624 3.68 4.072 3.653-.587-.816-.727-1.659-.197-2.542 1.932-.654 3.326 6.162 3.9 6.755.839-.946 1.617-4.398 1.464-5.464-.23-1.6-2.1-.636-1.783-2.088.339-1.813 1.601-2.426 3.061-.498.537.73-.171 6.104 1.634 4.83.606-.35-.407-2.305.922-1.802 2.25.895-1.051 3.378 3.403 3.693.633.097 2.278-.853 2.648-1.413 1.838-2.216-.648-6.323-3.53-4.313-1.076-2.265 4.197-4.732-.788-7.166-4.015-1.954-3.69 1.207-3.257 3.959-2.326-1.429-4.768-1.058-6.67.848-1.542-1.072-.254-4.24-3.162-2.677-.383.336-.988 3.688-1.717 4.225" fill="#7B7B7B"/><path d="M227.688 61.302c1.459-1.074 3.614-1.74 2.514-3.646 2.692.063-.132 3.771 3.033 4.253 1.09-5.71 4.5-.404 6.875-1.89 2.722-1.687-3.622-2.875.298-5.484-3.528-1.312-5.964-2.33-8.856-2.74-1.129-.156-4.261-1.58-5.77-.594 1.164 2.215 1.94 3.96 2.088 6.416.303 1.326-1.739 2.39-.182 3.685" fill="#6F6F6F"/><path d="M236.867 75.4s-.036.137-.123.187c1.39.007 2.692.063 4.131.156.246-.374.32-.647.356-.783-.29-1.103-3.056-3.894-3.72-5.243-2.268.27-.164 4.714-.644 5.684z" fill="#A2A2A2"/><path d="M153.146 73.392c-1.246-1.359-2.63-2.754-3.845-2.86-.803.81-1.246 1.642-1.552 2.512 1.75.03 3.548.145 5.397.348z" fill="#A3A3A3"/><path d="M144.748 53.646c1.3 2.251 7.04 9.792 8.926 4.66 1.974-5.18-8.277-6.536-8.926-4.66" fill="#A4A4A4"/><path d="M153.359 70.96c4.507-1.794 1.08.07 4.294.638 1.59.353 6.064 2.504 7.287 1.22-2.136-.498-10.236-3.328-9.33-6.16.146-.546 3.417-1.28 3.956-2.746.197-.46-.584-3.012-.934-3.618-1.391 2.19-2.437 4.179-4.252 6.035-1.259 1.42-5.03 4.29-1.021 4.631" fill="#757575"/><path d="M246.78 59.17c.09.756.18 1.512.234 2.405 1.31 1.669 1.712.166 1.973 3.018 1.872-.157-1.784-5.09-1.331-6.506.905-2.832 4.004-.464 2.883-4.205-.503-1.673-2.806-3.46-4.811-2.534-3.528 1.69-.321 5.843 1.052 7.822" fill="#A5A5A5"/><path d="M230.06 65.012c-3.503 1.33-.92 4.804-.144 6.55 1.36-1.247.44-1.64.123-3.188.87.306 3.858 3.083 4.355 3.143 1.585-3.455-3.033-4.253-4.333-6.505" fill="#A6A6A6"/><path d="M245.307 57.018c.358-2.978 3.196-6.464 4.81-3.47 1.06-3.96-12.12-5.589-7.213 1.509M240.578 53.628c-.64-1.709-1.007-3.344-1.028-5.18-.712 1.566-1.071 4.545 1.028 5.18" fill="#ADADAD"/><path d="M233.759 65.417c1.27 1 .066-1.885-.12-2.009-.047.72-.007 1.39.12 2.01M235.244 61.789l-1.176.563c1.013 1.955 1.052-.377 1.176-.563" fill="#6F6F6F"/><path d="M190.465 50.23c1.232-1.866 1.56-6.097.46-8.003-3.05-5.283-4.55.318-8.856-2.739-1.78-1.282-2.49-4.913-4.908-4.902-5.544.198.454 4.587.84 5.057-2.044 3.259-6.516-1.087-9.27 1.542.453 1.586 6.937 3.616 8.316 4.205-2.027 4.288-.106 1.216.075 5.73.098 2.369-.908 2.026-2.177 4.029-.45-.78-1.904-4.098-3.13-3.62-1.398.576.942 5.23 1.515 5.822 3.062 2.504 6.833-.365 9.267-2.348-.866.5-1.545 1.123-1.938 2.043.054.892 8.243-6.723 2.75-6.438.668-3.042 2.958-1.476 1.577-5.067 1.9.289 4.319 3.28 5.479 4.689" fill="#666"/><path d="M181.456 57.625c.812-1.393 2.207-2.776 2.2-4.388-2.59 3.112-6.055 5.112-10.226 4.287.257 2.046-9.339 8.625-1.253 8.23 2.318-.184 7.76-6.56 9.279-8.129" fill="#787878"/><path d="M162.448 53.703c.5.866.587.816 1.556 1.296-.68.623-1.272 1.196-1.951 1.82 2.195.002 5.993.58 7.672-1.312 2.85-3.263-3.76-2.91-5.425-3.796-.586 2.185-.29 1.899-1.852 1.992m12.525-6.307c-.774-.94-10.17-5.214-10.232-2.522.04.67 8.889 1.796 10.272 3.192l-.04-.67m.14.843c-2.21-.226-3.785-.355-5.054 1.647 2.223.45 3.123 2.008 4.489 2.374 1.158-1.593-.694-2.601-1.814-3.34.406-.697 3.079.531 2.379-.681m-2.529 11.621c.953-.55 1.26-1.42.796-2.422-.22.82-.44 1.639-.796 2.422" fill="#666"/><path d="M163.171 54.556c-.5-.866-.896-.753-1.462.267.51.283 1.043.206 1.462-.267" fill="#BBB"/><path d="M289.994 76.02c.087-.05.087-.05 0 0 .093-1.44.1-2.828-1.047-4.014-.526 1.69-1.438 2.909-2.314 3.992 1.166.02 2.282-.048 3.361.022z" fill="#A4A4A4"/><path d="M271.192 76.253c-.751-4.301-3.275-11.273-6.05-10.48 2.73 2.928 4.073 6.656 5.293 10.57.224-.014.533-.077.757-.09z" fill="#B8B8B8"/><path d="M239.55 48.448c1.186-1.146 2.14 1.305 3.625.679.522-2.496-5.533-8.584-7.632-9.22 2.453 2.049 3.486 2.838 3.19 6.126.92.393.64 1.709.817 2.415" fill="#ADADAD"/><path d="M239.41 47.605c.297-.286.68-.623.976-.91-.473-.419-1.02-.565-1.653-.662.3.52.514 1.09.677 1.572" fill="#A1A1A1"/><path d="M209.011 50.953c1.597 1.965 1.29 2.835 3.86 3.084 2.878.186 3.804-.81 2.217-3.359-1.5-2.598-8.784-6.014-6.077.275" fill="#666"/><path d="M178.094 35.202c1.52 1.432 1.403 3.231 2.973 4.75 1.233 1.135 4.365 2.56 5.78 3.013.08-1.663-.21-2.765 1.722-3.419-.2-.346-4.411-1.84-4.971-2.21-.037.136-6.125-5.009-5.504-2.134" fill="#6F6F6F"/><path d="M218.325 56.084c-.07 1.08-.028 7.752.828 7.835 2.236.673 3.294-4.095 2.904-5.37-.604-1.846-2.39-1.74-3.55-3.148l-.182.683" fill="#979797"/><path d="M221.137 58.155c-1.747 5.974 10.855 14.402 8.75 6.957-.063-.31-3.885-3.53-4.272-4-1.196-1.272-3.116-3.397-4.478-2.957" fill="#CCC"/><path d="M225.092 60.606c.29 1.103.42 2.529 1.91 2.708-.737-1.076-.494-2.255-1.91-2.708" fill="#B5B5B5"/><path d="M178.094 35.202c4.3-.751 4.712 5.362 8.133 4.888-1.56-5.103-5.185-5.782-9.476-5.614.076.533.536.73 1.343.726" fill="#7E7E7E"/><path d="M250.253 75.986c.769-2.869 2.437-7.18 4.745-6.78 2.446.435.701 4.213.416 6.918.72.047 1.526.043 2.195.003-.39-1.276-.357-2.219 2.109.053.223-.014.36.023.583.01.087-.05.137.036.223-.014-2.306-2.594-4.72-6.975-5.25-9.093-.58-2.205-.736-9.275-3.793-4.97-1.035 1.407.868 5.504.293 7.106-.576 1.603-2.505 3.063-3.204 4.852-2.905-.632 1.774-5.527 1.77-6.334-.043-1.475-3.526 4.692-3.582 5.995a8.475 8.475 0 0 0 .034 2.059c.993.12 2.209.226 3.461.195z" fill="#A5A5A5"/><path d="M261.963 76.269c2.196.003 4.441.092 6.723.044-.796-.579-.674-3.767-.937-4.424-.917-2.588-.467-1.808-2.423-3.797-1.097-1.099-2.05-.549-2.996-1.388-1.183-1.049.182-3.685-2.51-3.747.72.046-3.147 3.549-3.037 3.14-.243 1.179.607 2.65.897 3.754.304 1.325 2.75 4.763 4.283 6.418zM257.28 54.956c-2.357-2.682-7.147-.378-4.897 3.52 1.327 2.697 9.472 1.805 4.896-3.52z" fill="#C8C8C8"/><path d="M260.084 63.613c2.472.882-.086 3.052.574 3.595 1.37 1.172 1.995-.344 3.661.542 4.575 2.323 1.388 5.203 4.367 8.563-.914-4.783-1.472-10.35-6.593-12.82-3.319-1.548-7.013 1.854-4.603 5.428-.37-2.442 1.075-3.738 2.594-5.308z" fill="#C6C6C6"/><path d="M249.457 67.208c.054.893-.006 1.39.53 2.119 1.187-1.147.895-5.251.665-6.85.05.086-.512-6.286-1.827-3.564-.602 1.156.215 6.573.632 8.295" fill="#C8C8C8"/><path d="M200.477 64.772c-1.905 1.1-1.91 5.49-2.386 7.266.99-.686.946.84.57 2.789 4.391.005 8.832.097 13.137.152-.244-1.822-3.646-2.514-4.103-4.906-.154-1.066 3.426-4.865-.274-3.075-.6-1.039 2.614-3.472 1.883-5.937 1.23.33 2.103 1.442 3.179.705-.087.05 2.654-2.802 2.631-2.443.04-2.332-5.418-2.183-6.897-2.946-.646-.32-1.423-2.065-2.056-2.161-2.11-.053-1.063.96-2.722 1.686-.742.314-5.336 2.157-4.56 3.903-.05-.087 4.628.215 4.765.252-.878 3.278.994 3.12 3.766 4.523-2.028 1.286-5.114-.858-6.933.192z" fill="#5D5D5D"/><path d="M190.677 47.798c-1.195 1.729 3.976 4.286 5.279 4.342.452-1.416-2.34-4.653-3.127-5.816-.68.624-1.459 1.074-2.152 1.474" fill="#7E7E7E"/><path d="M195.046 73.565c1.148-4.011-10.114-1.32 0 0" fill="#898989"/><path d="M188.655 58.895c-3.254 1.764 4.089 1.681 0 0" fill="#C4C4C4"/><path d="M178.944 70.276c-.523-.507-1.02-.567-1.576-.13.487.643.983.703 1.576.13m-4.743 1.583c-.097.634.103.98.686.99.32-.647.12-.993-.686-.99" fill="#5E5E5E"/><path d="M220.919 73.177c.04.67.08 1.34.207 1.959 3.858.082 7.852.2 11.76.37-.17-2.096-3.08-3.534-4.745-4.42 1.258-1.42-4.147-6.382-6.389-5.665-2.365.904-3.556 6.441-.833 7.756z" fill="#484848"/><path d="M218.134 63.353c-2.49-1.911-6.816 1.395-7.002 4.274-.13 1.576 2.348 6.265 4.236 4.136l.75 1.3c1.672-.505.586-2.187.445-3.03-1.452-.315-2.039-1.131-1.71-2.36-.376-1.054.043-1.527 1.086-1.32-.32.646 2.065-1.424 2.195-3z" fill="#5D5D5D"/><path d="M219.908 69.026c1.062-.96.438-4.64 1.924-5.267.786 1.162 4.449 4.706 6.18 3.706-2.719-3.51-7.035-8.986-7.035-8.986s-1.438 2.908-2.28 6.05c-.403 1.503-.875 4.085.445 5.17.496.06.743-.313.766-.673" fill="#A6A6A6"/><path d="M216.809 66.659c-.398-2.889-2.376-1.515-2.952.087-1.152 3.206 2.301 6.986 2.952-.087" fill="#434343"/><path d="M228.063 67.551c-2.942-.495-5.65-6.784-7.687-1.913.783.356 1.59.353 2.456-.147 1.28.416 2.089 1.218 2.652 2.394 1.38.59 1.636-.367 3.056.892.32-.646.156-1.13-.477-1.226m-8.155 1.475c-1.722.417-1.3-2.251-1.454-3.317-.422 2.668.585 6.013 1.762 8.451 1.109-1.68-.36-3.025-.308-5.134" fill="#979797"/><path d="M218.637 65.026c.822-1.976 1.018-5.438-.552-6.956-.602 1.156.018 4.03.012 5.42.163.483.327.966.54 1.536" fill="#7E7E7E"/><path d="M196.09 68.574c-.182.683-.032.943.587.816.234-.596.084-.856-.586-.816" fill="#5D5D5D"/><path d="M230.527 63.82l-.86-.89c-.54 1.466.587.816.86.89" fill="#6F6F6F"/><path d="M224.648 66.636c-2.3-3.983-5.141-1.304-4.654 2.34.53-.883 1.01-1.852 1.539-2.735 2.48 2.494.693-.4 3.115.395" fill="#717171"/></g></g><path fill="#5C29C7" fill-rule="nonzero" style="mix-blend-mode:color" d="M0 0h320v72H0z"/></g></svg>