<svg width="302" height="58" xmlns="http://www.w3.org/2000/svg" xmlns:xlink="http://www.w3.org/1999/xlink"><defs><path id="a" d="M0 0h302v58H0z"/></defs><g fill="none" fill-rule="evenodd"><path fill="#9E358C" fill-rule="nonzero" d="M0 0h302v58H0z"/><g opacity=".8"><mask id="b" fill="#fff"><use xlink:href="#a"/></mask><g mask="url(#b)" fill-rule="nonzero"><path d="M217.149 60.186c-1.1.3-.8 1-.5 1.7 12.7.3 25.3.3 38 .1.2-.6.3-1.2-.1-2.1-1.5-3.2-3.6.1-5.9-.8 2.3-5-1.4-2.7-3.6-4.6 0 0-.3-5-1.7-5.1.4-.9-1.9-3.8-2.4-4.3-4.6-4.1-2.4 1.4-8.1 1.4-3.7 0-6.2-5-10.2-3.5-1.5.6-4.7 6-4.4 7.7-1.1-2.7-8.5 3.2-8.5 3.9 0 .2 6.5 5.7 7.4 5.6zm25.6-10.5c-.2.1-.3.3-.5.6.2-.3 0-.6-.4-.8.3.1.6.2.9.2zM-3.051 14.486c-1.2 11.9.2 23.7-.2 35.7-.1 4.1-.5 8.2-1.1 12.2 20.6-1.9 41.2-3.5 61.8-3.6 4.7 0 9.2 1 13.2 2.8 20.6-1.1 41.2-.5 61.9-1-1.5-4.1-7-8.8-10.9-6.4.8-4.1 2.5-6.9-4-7.1-2-.1-9.5 3.6-8.3 6.5-3.3-3.9-3.7.6-7.8-.1-3.2-.6-3.7-4-7-5.9-3.7-2.1-5.1-1.5-8.4.9-.9.7.4 1.8-.8 2.5-.6.4-2 .7-3.2 1.1 5.8-2.5.6-6.5-2.7-8.7 1.1.2 2.1.2 2.3.1 2.9-1.6.9-4.1.5-6.3-.7-3.7-2-6-3.3-9.6-.7-1.8 2-3.5-.8-4.4-2-.6-3.6 2.8-4.5 3.2-1.1.5-4.7 1.7-6.6 1.4-.7-.1-2-.9-2.6-.9-.5 0-4.1.2-4.2.2-1.2-.3-2-1.6-3.5-1.8-2.1-.3-3.4 1.1-5.5-.3 1.3-1.8-.6-2.9-.5-4.6.1-.9 1.8-2.8 1.6-3.7.3 1.9 5.5 3.3 7.1 3.2 2.2-.2 4.1-.1 4.8-3 1.9-7.4-10.2-7.6-13.9-10.4-.6-.5-.6-2.9-1.5-3.2-2.7-.8-2.1.9-3.1.9.4 0-.9 2.3-1.4 2.4-1.1.2-1.1-1.1-1.5-1.1-1.4-.1-4.4-2.9-5.7-3.6-.7-.3-4.2-.2-4.1-.1-1-.9-1.4-2.7-1.8-4.4h-8c-1.8 1.2-3.4 1-4.9 0h-7.3c-4.3 0-8.5 0-12.8-.2.3 6-.5 11.7-1.3 17.3z" fill="#3A3A3A"/><path d="M200.949 61.386c5.7.2 11.3.4 17 .5-.2-.3-.3-.5-.6-.8.9.2 1.6-.2 1.9-1 .2-1.3-7.1-4.6-8.9-4.6.2-.8 6.7-4.3 7.1-4.2-2.5 3.2 2.6-2.5 3.2-3.4 2.1-3.2.8-4.6 5.5-3.5 2.7.6 1.4 2.4 2.4 2.9 1.5.7 2.1-.5 3.9-.1 5 1.2 2.6 1.8 6.6-3.5.8 2 2.1 3.7 3.9 5-1-.2-2-.3-3-.5 0 .1 1.3 3.9 1.4 4.2 3.8-4.8 1.8 1.9 2.2 2.1.6.3 5 1.7 5 1.8.4 1.7-3.2 1.2-1.6 3s4.5 2.3 5.9-.1c1.1.9 1.3 1.8 1.1 2.7 1.3 0 2.5-.1 3.8-.1-.1-.2-.2-.4-.2-.6-.1-.4 1.7-1.8 1.6-2.9 0 .3-.8-4.8-.3-4.1-1.1-1.7-5.3-3-7-3.9-2.3-1.2-4.8-.4-7.1-2.6-1.8-1.8-.9-6.8-4.5-7.4-3.6-.6-5.2 4.5-7.7 4.5-2.4 0-4.3-3.6-7.3-4-3.6-.5-4.7 1.8-6.6 2.6.2-.1-2.9 1.6-3.8 1.9-3.6 1.2-1.1-1.4-4 .2-.9.5-1.8 3.6-3.6 4.5-2.1 1.1-3.6-.5-5.4.3-1.7.7-2.4 2.6-3.9 3.4-1-.5-2.1-.6-3.2-.6-.4.6-.8 1.1-1.2 1.7-.9.1-.4 1.8-2.5 1.4-1.4-.3.8-3.2.2-3.6-1.8-1.1-2.3-2.4-4.8-.3-2.9 2.3.1 2.7-1 5.1.8-3.3-6.5-3.2-8.3-2.6-2.6.8-4.8 3.4-6.5 5.6l-.1.1c10.1.3 20.2.6 30.4.9zM36.449 2.386c2.9 1.7 4.4 3.3 6.3 4.1 2.4.9.8 1.5 3.9.8 1.6-.3-.3-3.3 1.4-3.4-1.6 0 6.1 5 5.7 4.7.2.2 3.5 3.2 2.4 2.8-.1 1.4.4 1.8 1.5 1.2 1-.3 2-.6 3-.8 5 3 3.5 6.3-.8 6.9-.2 0-4.3-.8-4.8-.9-1.7-.6-.5-2.2-1.6-2.5-.8-.2-3.5 3.3-3.8 4 .4-1.1 1.2 6.9.1 5 1.5 2.6 1.8 1.6 5.2 2.4 2.5.6 4.3 1.8 6.8 2.5.5-4 2.8-.1 5.4.4.5.1 2.9-1.2 3.6-1.3 1.8-.2 3 .4 5.2-.2-1.8-2.4.2-2.5 2.8-3.5-.9 6.6 5.5 12.2 3.4 18-2.4-1.2-4.3 1.5-3-2.4-5 .7-.6 9.1 1.8 4.4 3.3 3.2 3.5 6.3-1.7 8.4.8 1.9 6.7-.4 8.3-1.4 1.8-1.1-.9-5.4 5.4-3.7 4.5 1.2 4.4 6.6 7.8 7.3.9.2 4.3-2.2 5.6-2 1.5.3 2.4 2.7 3.3 2.7 2.9-.2 3.6-8.9 8.7-7.8 3.7.8 3 1 3.7 4.1.7 2.9-3.4 1.6-.4 4-.1-.1 3-2.1 3.7-2.1-.9 2.9 3.5 2.3 5.3 4.6-2.3 1.3-1.1 1.6.2 2.1h2.1c4.8-.1 9.6-.1 14.4-.2-.9-.5-1.6-.8-1.2-.2-2.7-3.5-1.5-6.6-5.6-8.7-1.8-.9-3.2 1.1-5.1-.9-1.1-1.1-.5-4.1-1.3-5.3-1.9-2.9-1.8.3-3.3-3.3-.6-1.5 2.2-8.6-1.9-8.9-1.2-.1-4.4 3.2-4.7 4.5-.9 3.4-1.1.6 1.9 3.6-1.1 2.8-3.8-1.1-3.8-1.1s-.2-3.3-.6-3.9c.5.7-3.4-2.5-2.4-2.4-1.9-.2-1.2 2.1-2.5 2.1s-3.3-4.1-5.8-2.9c-3.6 1.9 1.4 7.1-.3 7.7-1.3.5-1.4-3.4-2.3-4-2.8-2.1-4.6-.7-6.2.1-.8.4-3.8 6.1-4.8 6.3-3.6.8-5.1-3.5-5.4-6.6-.3-3.9 1.1-6.9.5-10.9-.2-.8 1.6-1.7 1.2-2.7-.4-1.2-2.4-1.6-3.2-2.7-1.9-2.9-1-3.8-4.2-6-4.3-2.9-3.8-.6-8.7 2 0-3.3-3.5-4-5-6-1.9-2.4-1.7-4-2.8-6.8-.6-1.4-2.3-4.2-3.7-5.5-2.9 0-5.9 0-8.8-.1-9.1-.1-18.3-.2-27.4-.2 1.3 2.7 3 6.2 3.2 6.4 1.2-.9 2.1-2.6 3.3-1.8z" fill="#424242"/><path d="M244.649 39.786c.3.7-1.5 1.7-1 2.9 1.1 2.5 2.4 3.7 3.8 5.8-.7-.3-3.5-4.2-4-3.7-1.8 5.2 8.5 6.6 10.7 7.8.3.2 3.5 2.6 3.5 2.8.8 1.7-1.6 2.1 1.1 3.8-1.5 1-2.2 1.9-2.3 2.7 2.2-.1 4.4-.1 6.6-.2-1.5-1.8-1.9-.3-1.6-6 .1-1.6-.7-10.2.3-11.3 3 .6 4.1 4.9 5.7 4.9 2.3.1 2.1-4.6 5.3-3.9 2.1.5 1.2 4.4 3.1 5.5 3.7 2.1 3.3-.6 4.3-1.5.3-.3 2.4-.9 3.4-1.8.8-.8 4-3.1 4.5-3.7 3.5-5 1.8-7.3-1.2-11.3-2.5-3.3-9.5-10.7-11.1-5.2-1.4 4.9 1.1 13.2 6.7 11.8-2.4.7-2.8 2.1-2.3 2.6-1.2.3-1.3 1.5-.8 2.8-.1-.2-1.3-1.3-1.7-1.8-2.3-2.3-1.1-1.4-1.5-4.4-.3-2.3-.6-4.8-.9-6.3.1.7-2.2-6-1.4-5.5-2.3-2.2-8.7-1.5-8.1 2-.5-2.5-6.9-5.3-8.5-7.6-1.6-2.3-1.5-5.3-3.1-7 .6.6-3-1.2-3.9-1.6-1.8-1-1.6-2.8-4.2-2.1-1.4.4-2.8 3.1-2.9 4.5-.2 2.3 2.1 2 2.1 3.6 0 1.4 1.2 1.8.9 3.2-.3.9-3.6 1.4-4.4 2.3-2.4 2.6-2.4 6.9-1.2 10.1.8 2.3 2.9 3.1 4.1 5.8z" fill="#515151"/><path d="M61.549 51.786c3.5 0 1.8-3 .3-3.9-1.5-.8-3.7 3.6-.3 3.9" fill="#6C6C6C"/><path d="M20.349 40.686c-5.3 1.1 3.6 4.4 0 0" fill="#B9B9B9"/><path d="M72.249 50.786c.1-4-3.3.5-2.1.3.4.1 2.1 2.6 2.1-.3" fill="#D4D4D4"/><path d="M.349 54.386c2.7.2.3-2.4.3-2.3 0-.2-3.2 2.1-.3 2.3" fill="#868686"/><path d="M47.549 44.486c.7-.5.8-.9 0-1.3-.7.4-.7.8 0 1.3" fill="#B6B6B6"/><path d="M38.049 30.386c-.5-.7-1-.7-1.4 0 .4.8.9.8 1.4 0" fill="#9F9F9F"/><path d="M115.649 22.686c-6.3-1.8-14.5 12.1-18.4 9.1-3.2-2.5 4.3-14.7 2.5-17.6-2.1-3.3-2.9 1.1-4.6.8-2.4-.5-2.5-2.4-5.2-4.2-3-2-6.5-1.1-9.4-2.2-3.4-1.2-3.8-3.5-6.2-5.7-1.4-1.3-4-1.1-4.2-3.4-.1-.6.7-1 1.6-1.5-3.7 0-7.5 0-11.2-.1 1.8.8 5.3.5 6.7 1.5 2.7 2 6.3 11.8 4.8 13.6.9 1.5 2.9-.6 4 .4-.3-.2 2.4 3.5.9 3 3.5 1.1 5.6-.5 7.9-3.7 1.4 2 3.5 3.3 4.9 5.1 1.8 2.4.5 4.8 4 5.3-.1.9-2.4 1.6-2.3 2.3.5 2.3 1.5 2.7 1.8 5.3.3 3.7-2.6 9.3 1.4 12.4 4 3.1 9.3-3.2 9.8-7.1.7.3 4.6 1.4 4.9 1.7 1.4 1.2-.8 3.7 2 4.4 3.8.9-.5-7 1.4-8.3.3 1.4 2.7 2.4 4.1 2.2 3.3-.4.4.5 1.9-1.5 2.3-3.4.6-10.7-3.1-11.8z" fill="#575757"/><path d="M219.349 36.786c-3.6.4-7.1 4.9-11.2 3.4-3.2-1.2-3.3-4.6-7.8-3.9-1.2.2-1.7 1.8-2.8 2-1.6.3-3.9.3-5.4.7-1.6.5-3.2 2.3-4.9 2.2-1.5-.1-.8-1.7-2-2.1-5.3-1.8-5.8-.9-11.3 1.7-.5.2-9.5 4.5-9.5 4.5-.5-.5 1.4-2-.6-2.8-1-.4-3.9-1.4-4.9-2-.7-.8-1.4-1.7-2-2.7-1-.6-2-.8-3.2-.4-.5-.3-3.7-2.7-4.1-2.9-2.1-.9-4.7-.6-6.9-1.4-2.8-1-3.9-2.9-6.2-4.7-1-.8-8-3.4-6.3-1.4-.7-.2-5.4-1.3-3.6 1.5-2-3.2-1.8-.6-3.4.2 3-4.1 4.5-4.6-.3-7.5 1.3.8-3.1.5-3.8.3-1.7-.6-1.2-3-3.6-3.3-4.2-.6-8.6 5.9-12.6.9-2.2-2.7 1.2-5.8.9-8.1-.4-3.6 1.6-1.5-1.7-3.6.2-1.9 6.4-6.4 1.8-6.6-2-.1-4.3 2.9-6.6 3.1-1.2.1-2.1-.8-2.7-.8-1.1 0-3.2 1.2-4.1 1.2-2.7 0-3 1.1-6.2-1.2-1.1-.8-2.7-.3-3.2-1.8-.4-1.1.6-2.1 1.5-3.2-4.1 0-8.1-.1-12.2-.1v.1c-.8 4.2-.9 1.3 1.4 4.9 2.9 4.5 6.6 6 11.7 7.2 1.8.4 3.8.6 5.3 1.6-.1 0 5.4 5.1 3.8 4.8 2.1.5 3.7-2.9 5.4-2.3 1.3.5-3.5 15.7-2.7 17.7 1.9 4.7 8.3-1.2 10.1-2.6 2.7-2.1 3.2-5.6 7.5-3.1 2-4.5 1.9-1 3.1.4 2.9 3.3 2.7 3.8 1.3 8.7 1.7.3 6.1-1.3 9.1-1.2 1.5 0 5.4-1.5 6.7-.6 2.8 2-.9.1 1.1 4.8.9 2.3 1.1 1.4 3 3.1 0 0 4.8 3.4 4.7 3.4 2.7.2 1.2-.5 3.5-1.7-1.6 1.1.2 3.7 1.7 4.5-2.3-.5-.7 3.4.3 4.3 1.6 1.4 2.4 1.4 3.2 1-1.2 2 .7 4.6 4.8 4 2.9-.3 5.8-4.1 7.1-4.4.9-.2.2 3.8 2.6 1.2.7-.8 2-4.4 1.5-4.2 3.8-1.2 3.4 3.9 6.3 4.4 3.5.5 5.1-4.9 4-7.2h.3c2.2-.7 1.7-2.4 4.3-2.6 2.2-.1 5.3 2.4 8 2.3 2.9-.2 5.6-2.6 8.7-2.7 2.9-.1 2.6.3 4.6.8 2 .6 3.6 2.6 6.3 2.6 1.8 0 .6-2.1 1.5-2.4.8-.2 3.5 1.3 4.2.2 0 1.3 3.4-.6 4-1.4.7-.2 2.2-2.3 2.9-2.6.9-.4 6.6 1.2 5.7-1.3-.1-1.1-6.9-3.1-8.1-2.9z" fill="#4A4A4A"/><path d="M122.849 37.186c-2.3 9 7.4 4.7 1.5 2.1 2.5-.5 3.2-4.2 5.5-5.4 2.6 4.8-1.2 8.1.9 13.1l2.7-1.8c-.3 2 .7 5.7 2.6 7 2.3 1.5 5.2-.4 7.1 1.4.9.8.3 5.6 1.6 7l.1.1c8.9-.1 17.9 0 26.8.1 2.6-3.1 12.2-9.2 13.4-1.5 1.6-2.3.2-7.8 5-6.4.1 2.1-2.5 5.3.8 5.9 3 .6 2.1-2.3 3.6-3 .4-.2 2.4-.8 2.1-.6-1.4.8 5.1-1.5 4.4-1.3.1-1 .6-1.8 1.5-2.2l1.2.9c4.3-1.8 7.3-1.5 8.1-7.1.9.2 10.8 2.2 7.6-2.1-.9.6-2 .9-3 .9-.4-.9 1-1.8-.5-2.3-1 3-3.5 2-5.3 2.5-1.4.3-2.1 1.4-4.9.5-1.7-.5-1.1-3.1-2.7-3.3-3.3-.5-4.4 2.9-6.2-.3-1.1 2.5-2.5 1.8-4.5 2.4-3.8 1.3-4.5 1.3-8.7.2-.5-.2-1-2-1.2-2-1.7 0-2.9 1.6-4.1 2.1-1.7.6-4.4 1.6-6.5 2.7.8 1.5 4.5 0 6.1 1.1-1.8 1.3-2.3 4.8-3.3 5.3-1.3.6-3.6-5.5-4.8-5.7-5.9-1.4-1.7 5.6-6 5.4.5-.5.7-1.2.5-1.9-2.4.5-6.9 6.6-10.3 5.8-7.5-1.7 4.4-5.3 1.9-7.4-2-1.8-6.6 7.4-6.3 1.3-1.9 0-2.6.3-2.4-2 4.1.3 2.3-.5 1.8-2 .5 1.7-3.5-3.1-2.6-2.6-.8-.5 2-1.5 1.4-2.1-1.5-1.8-2.9 2.8-4.1 2.7-1.1-.1-2.8-3.2-3.7-3.8-.6-.5-3.3-.1-4-.7-1.8-1.6 1.2-4.7-.4-6.8-1.5-2.1-7.8-.3-10.7-.2-.8 0-6-2.5-5.8 1.4.1 2 2.2 2.5 3.8 2.6z" fill="#3A3A3A"/><path d="M234.349 45.486c.8-3.1 1.8-5.1 1.2-8.1 7.2-.1 3.9-9.2 1.4-8.8-.3.2-.8 2.2-.6 2.6-13.7-9.6-7 16-2 14.3" fill="#696969"/><path d="M235.649 39.986c-.8.4-1.5.8-2.3 1.2.9.8 1.3 1.8 1.3 3 1.8-.9 3-2.5 2.9-4.5-.1-1.4 6.8 6.4 7.2 6.4 1.1 0-2.1-6.8-2.7-7.4-4.8-4.5-4.7-1.3-6.4 1.3" fill="#5A5A5A"/><path d="M227.349 40.286c-3.1 0-8.8-1.9-8.1 2.9 3.5-1.7 3.4-1.4 7.2-1.7 1.1-.1 3 2.7 3.6 1.4.4-1.1-1.7-4.1-2.7-2.6" fill="#575757"/><path d="M242.749 43.486c.7-2.2-3.4-4.1-3.8-4.1-2.8-.3-1 .8-3 3.8 4.9-3 3.2-2 6.8.3" fill="#585858"/><path d="M248.849 52.086c-3.4-1.7-4 3-2.1 3 .7 0 1.8-2.6 2.1-3" fill="#515151"/><path d="M125.449 42.886c.2-.5.4-.9.5-1.4-3.8-2.5-3.7 3.6-.5 1.4M229.549 42.886c-.1 1.8 3.5 5 4.8 2.6-2.4.9-3.3-4.4-4.8-2.6" fill="#5A5A5A"/><path d="M61.249 5.586c-1.4-1.1-5 .5-2.5 1.7.5-1.8 2.2-.6 2.5-1.7" fill="#424242"/><path d="M242.749 43.486l-2.3-2.6c.1.9 2.3 3.4 2.3 2.6" fill="#515151"/><path d="M99.849 51.986c.8-.5.9-.9.3-1.4-1 .4-1.1.8-.3 1.4" fill="#424242"/><path d="M34.649.386c1-.7 1-1.3-.1-1.8-.9.5-.9 1 .1 1.8" fill="#E4E4E4"/><path d="M235.749 15.286c-1.1-1.1-2.4-3.3-3-4.9-.6-1.8.5-6.3-1-7.6-3.5-3.2-4.2 3.6-5.3 3.8-1.4.2-2.7-5.4-.2-6.3 2.1-.8 4.5 2.7 7.7 1.4 1.4-.6 3-2.2 3.8-4h-16.7c-.3.3-.7.8-1.2 1.7-1.3 2.6-2 .9-1.2 4.3 1 3.9.9.2 2.7 3.2.3.6 2.5 6.5 3.9 7.7 3.3 2.7 5.6.6 8.9 4.2 2 2.2 1.9 1.5 2.3 5.1.1.9-1.1 1.4-1 2 .7 3.6 8.6 12-1.4 10.6.8 1.1 1.3 2.3 1.6 3.5 1.2-2.1 3.5-1.8 3.9-2.3 2.4-3.1 1-.2 1-5.9 0-5 0-3.7 1-8.5.6-2.7.7-3.3-.6-5.3-.4-.2-4.4-1.9-5.2-2.7z" fill="#626262"/><path d="M227.449 5.086c5.1-3.6 5.1 2 2 4.1 2.9 2 2.6 3.2 3.9 5.2.6.9 1.8 3 2.6 3.5.7.5 4.3 1 4.4 1.2 1.7 2.5-.8 4.2-1.3 6.6-.9 4 .2 5.1 1.6 9.9.6-6.8-.4-7.2 4-11.9 4-4.3 3.5-2.4-1.2-7.7 3-1.8.9-5.1 5-4.1 1.5.3 1.6 3.6 2 4 1.5 1.2 3.2-1.4 3.5 0-.3.8-.8 1.5-1.3 2.1 1 .6 1.9 1.3 2.9 2 .9 1.2 1.2 2.4 2.1 3.5 2.1 2.4 6.1 5.9 8.8 7.6-.1-1.3-.2-2.5-.2-3.8 3.6.9 4.1-2.4 6.3-.8-1.3-.9 2.9 9.3 2.7 8.2.4 2.5-1.7 6-.7 8.1.4.9 5.7 4.4 6.3 3.7.9-1-1.8-2-1.1-3.2.4-.6 3-.1 3.8-.5-.8-1.4-2.5-1.6-3.9-2.2 1.5-.4 3.1-.8 4.6-1.1-4.8-2.4-4.2.9-6.6-3.9-.6-1.3-1.7-8.3-1.1-9.4 2 1.9 5.1 3.5 7.3 5.4 1.8 1.6 4.8 4 7.1 4.4.9.1 3.3-.8 5.9-2.1-.8 1.8-.7 4.5-.7 5 0-.1.7 2.2 1.6 4.2-1.6-.8-3.3-1.6-3.7-1.6-2.8-.3-5 1.3-6.9 3.6.2-.3.4-.7.5-1.1-4.8-1.7-3.1 5.5-9 4.8.9 2 .8 3.6-2.1 1.7-1.5-1-.9-4.2-2.3-5.1-3.6-2.3-4.6 2.4-7.1 3.5-.5-1.8-2.7-5.6-4.6-5.8-2.7-.3-2.2 5.1-2.3 8-.1 2.6-1.3 7.1-.8 9.3.2.8.5 1.4.8 1.9 2.6-.1 5.3-.2 7.9-.3-.6-1.4-1.7-2.3-3.3-2.2 4.9-.4.4-1.2 2.4-2 0 0 4.2-1.4 4.8-1.4 3.9-.6 3.2-1.9 5.7 2 .6 1 1.2 2 1.4 3.1 3.6-.2 7.1-.3 10.7-.5-1.2-2.2-2.1-4.2-1.7-5.3 2.7-.7 3.8 2.3 4.5 5.2 4.2-.2 8.4-.4 12.6-.5-.3-3.4-.4-6.8-.5-10.1-.1-3.3 0-6.5.1-9.8-.5-.4-1.1-.7-1.4-.9-1.5-1.2-2.7-.5-3.7-2.1-.4-.6 1.5-4-.3-4.7-.1 0-.2 0-.3-.1 3.1-1.9 5.5-4.1 4.2-5.2-.5-.4-7.5 2.7-8.2 3-1 .4-3.4 1.7-4.9 2.2 2.2-1.1-2.3-9.2-2.3-11.7 0-1.7.9-3.7.9-5.4 0-1.1-.9-5.3-.9-5.2.4-1.7 5.6-4.9 2.2-7.5-2-1.6-4.2 2.3-5.3 2.7-1.2.4-4.8.2-5.7 1-1.5-5-4.9-1.4-8-.5.3-1.5-.5-4.4-.4-4.6.3-1.3 1-2.3 1.5-3.2-6.6 0-13.2-.1-19.9-.1h-16c-.6.4-4.1 4-4.1 4-2.7.4-3.6-2.8-5.2-2.8-4.2 0-5 4.9-2.8 7.3 2.5 1.9 6.1-.3 3.2-1.6z" fill="#585858"/><path d="M299.349 31.886c-4 1.8-6.4 4-11 2.3 3.7 7.1-2.4 7.3-3.6 13.3 3.8-2.7 4.3-4.4 8.6-4.7 3.8-.3-2.6-2.6 4 .3 1.9.8 2.7 3.6 4.7 4.2-.9-2.6-3.5-4-5.3-6-1.3-1.4 1.2-2.3-1-3.5-.8.3-4.3 6.1-4.6 1.2-.3-4.8 3.8-.8 4.6-1.2 0-1 3.4-6.2 3.6-5.9" fill="#757575"/><path d="M265.749 40.386c3.2-1 5.6-6 2.7-9.2-2.2 2.8-2.4 5.7-2.7 9.2m-20.7 5.1c-.5-.1-.9-.2-1.3-.3.2.5 5.8 7.6 5.9 3.8.1-.9-4-3-4.6-3.5m-4.2-10.1c.9 2.5 1.9 4.8 3.2 7.1.1-1.7 1.8-2 3-2.5-2-1.6-4-3.2-6.2-4.6m21 4.1c-.6-1.3-3.7.5-3.5 1.7.3 1.6 3.4-1.3 3.5-1.7M262.649 30.086c.1-.8-.3-1.2-1-1.4-1.1.3-.4 2.5 1 1.4m27.1 10.9c0-1.6 0-3.3-.3-4.9-.9 1.7-.6 3.3.3 4.9m-43.5-27c.5.6.8.6 1.1 0-.3-.7-.7-.7-1.1 0" fill="#585858"/><path d="M61.549 48.786c-2.3 0-.3 1.8-.3 2 0 .4 3-2.1.3-2" fill="#D5D5D5"/><path d="M93.649 37.786c.9-.5 1.8-.9 2.6-1.4-.5-2.4-2.4.4-2.6 1.4M109.149 26.986c-.7.1-1 .5-.9 1.2.8 0 1.1-.4.9-1.2" fill="#5A5A5A"/><path d="M227.349 40.286c.6.8 1.2.9 2 .2 2.9-6.8-20.5-5.3-22.7-5.6-5.3-.5-9 .3-14.2 1.1-4.7.8-8.1-.1-13 .6-9.3 1.2-15.4.5-23.9-2.7-1.8-.7-20.2-10-20.7-8.2-.3 1 4.5 6.9 5.9 7.7 2.3 1.4 5.1-.3 7.2 1 .9.6 1.4 1.9 2.1 2.3.8.4 2 2.2 2.9 2.8.2.1 2.4-1.1 3.2-.8 1.5.5 1.1 2.4 2.2 3 1.1.7 3.3-.1 4.7.6-.8.5-1.1 1.1-.9 1.8.7 0 1.4.1 2.1.1-.5.3-.9.7-1.4 1.1 2.8 1.8 5-.1 8.3-1.7 1.5-.8 3-1.7 4.4-2.5-.3.2 5.4-3.2 5.2-3.2 3.9-.2 2.9 2.7 4.7 3.6 2.2 1.1 3.9.2 5.7-.3 5.3-1.3 8.9-5 14-3.1 2.6 1 1.5 2.5 4.8 2.8 1.7.2 3.5-.5 5-1 2.2-.7 10.5-4.4 12.4.4" fill="#696969"/><path d="M119.749 15.886c-6.5-1.7-13.6-1.1-11.2-9.8 1-3.6 4.4-3.9.5-6.7-3.2-2.3-4.4.5-8 .3-1 0-2.7-.8-4.3-1.6h-5.7c-1.1 2.8-2.4 1.9 3 3.8 1.9.7 4.2 2.1 6.3 1.9 1.3-.1 3.6-2.9 4.6-2.1.4.3-3.8 6.1-4 7.1h3.3c-3 6.3-5 13.4 4.1 12.7 2.8-.2 6.8-2.5 9.1-1.8-.5-.2 5.9 5.3 5.7 5 0-.8.1-1.7.2-2.5.3.1 3.2 3.3 3.7 2.7 1.1-1.2-.7-5.6-1.5-6.6-1-.9-4.6-2.1-5.8-2.4z" fill="#737373"/><path d="M93.649.786c-.6-.4-2.3-.1-3.2-.5-.5-.2.4-1.8.5-1.7-.3-.2-.5-.4-.7-.6h-7.9c-1 1.8-2.3 3.7-2.4 4.3 2.5.8 7.3 1 7.2 4.6 2.6-.5 4.9-2.1 7.2-3.4 1 2.7 5.9 2.9 7.1-.1-2.1-1.3-4.1-1.8-6.2-2.2 3.2.7-3.5-1.6-1.6-.4z" fill="#6A6A6A"/><path d="M125.149 27.686c1.1 1.4 1.9 2.2 3.6.9-.5-.3-.9-.6-1.3-.9 1.7-.5 3 0 4.1 1.4.3-.9.2-1.7-.2-2.6.5-.1 4.6 2 4.5 2 2.5-4.9-12.6-4.3-10.7-.8" fill="#787878"/><path d="M125.149 27.686c1.9-2 4.5-.6 5.8-2.3 0-.1-5.4-6-4.4-6 1.8.2-4.7 10.8-4.7 10.8 1.1 1.2 2.2.3 3.3-2.5m6.8-2.6c.2.1 5.2 4.8 5.2 3.6-1.5-1.5-4.4-8.2-5.2-3.6" fill="#A2A2A2"/><path d="M137.149 28.686c-1.7.5-1.1 1.4 1.9 2.9.7-1.3-1.2-2.4-1.9-2.9" fill="#787878"/><path d="M70.149-.114c.6.9 1.2.9 1.7 0-.5-.7-1.1-.8-1.7 0" fill="#E2E2E2"/><path d="M137.049 45.186c1.1.8 5.1-.2 3.3-1.4-1.2 0-2.4.5-3.3 1.4zm62.3.9c-.3 1.8-.5 2.1-2.3 2.6.5 1.6 5.9.4 2.3-2.6zm3.8 3.4c1.3-.5 1.2-1.7 2.2-2.5-.8-.1-1.5-.1-2.2-.2v2.7zm-82.3-14.1c.4.6.8.7 1.1.1-.3-.5-.7-.5-1.1-.1z" fill="#5A5A5A"/><path d="M221.149 36.086c2 1.6 4.5 1.1 6.6 2.9 1.1.9 3.2 4.7 4.4 6.2.6-2.3-2.2-6.9-3.6-8.6 3.2-1.8-.4-5.4 2.8-8.1 1.2 11.2 9.3-4.4 3.8-1.5.8-.3 1.8-6.1 1.6-6.5-1.2-3.1-6-3.9-8.3-5.1-1.4-.7-4.1-3.4-5.8-2.8-5.7 2 1.1 4 1.7 4.2 3.2 1.2 11.2 2.3 6.8 8-2.3 2.9-5.7 2-7.9 6 .2-.5-2.1 6.2-2.1 5.3" fill="#6D6D6D"/><path d="M236.949 30.886c-.9-.3-1.9-.5-2.8-.8.5 1.6 1.8 2.4 3.8 2.5-.1-.6-.5-1.2-1-1.7" fill="#787878"/><path d="M243.449 41.286c.5-1.8-3.1-7.3-3.9-3.6 2.3.3 1.8 3.7 3.9 3.6" fill="#696969"/><path d="M218.249 2.586c.7-3.7 4.4-2.2 5.2-4.8-5.8 0-11.6 0-17.3.1.3 1.3.8 2.6 1.1 3.9.4 1.8 3.8 6.6-.1 8.9-1.4.8-4.9-.9-6.5-1.1-4.4-.7-5.7-.3-8.1 1.4.7-.5-2.6 2.6-2.4 2.3-.3.7-2 4.4-1.5 5.2 1.4 2.6 2.5-.4 3.8-.7-.3.1 4.3-1.8 4.1-1.8 2.1-.9 3.8-1.2 5.7-1.7 3.9-.9 9.1-3.5 13.1-3.6 1.3 0 9.3 5.2 8.3-1.3-.6-3.5-6.2-2.5-5.4-6.8z" fill="#6D6D6D"/><path d="M225.949 14.386c0-.7 9.1 5.5 9.9 6.5 0 2.8-2.2 6.5 2.6 3.7-1.8-2-1.1-3.8-2.4-5.6-2.6-3.6-6.1-3.6-10.1-4.6zm-5.5-14.2c-7.1 3.8-.1 6.5 2.9 8.7 0-4.3-1.1-1.2-3.8-3.9 1.6-1.6.8-2.1-.8-3.1.4-.2 1.6-1.3 1.7-1.7zM236.049 26.086c.6 0-6.7 1.4-2.1 2.8 1.1.3 2-1.4 3.4-1.1-.5-.6-.9-1.2-1.3-1.7m-12.3-16.5c-.5.7-1.1 1.1-2 1.3.1.9 3.8 3.2 4.2 3.6-.7-1.7-1.5-3.3-2.2-4.9" fill="#696969"/><path d="M229.549 13.986c.7-.4.7-.8 0-1.1-.8.1-.8.5 0 1.1" fill="#585858"/><path d="M294.349 60.286c0-.1-.1-.2-.1-.3-.6-1.3-4.3-8.5-7.3-6.8-2 1.1.8 5.3 2.3 7.4 1.7-.2 3.4-.2 5.1-.3z" fill="#636363"/><path d="M278.249 3.986c.2 1.7.6 3.2 2 4.2-.4-2.1.2-2.6 1.9-1.3 1.7 1.1 3 .7 3.8-1.2.8-.3 2-3.5 3.6-2.7 5.8 2.7-7.8 5.4-.7 8.1-1.2 1.4-1.9 9-1.7 11.3.3 3.6 3.6 5.2 3.6 8.6-1.2-.6-2.3-.5-3.2.3-.5 3.9 6.1-.5 7.1-.8.9-.3 1.7 1.3 2.6 1 2.2-.8 3.8-2.8 5.6-4.2-.3 1.2-1.8 3-3.4 4.4-.3 1.4-1.2 5.8-1 6 1.9 2.7 4.6 1.7 6.6 3.1.2-8.4.7-16.7 0-25.1-1-6.1-2.1-12.2-2.5-18.2h-3.4c-9.1 0-18.3 0-27.4-.1-.5 2.5-1 6.2-.8 6.9-1.5-.3-3-.6-4.5-1 1.7 4.9 9.1 2.7 11.8.7z" fill="#494949"/><path d="M267.149 61.586c.8 0 1.5-.1 2.3-.1 3.8-.2 7.6-.4 11.4-.5.6-2.8-.8-1.9-1.7-3.6.3.5-2-2.4-1.1-1.8-2.4-1.6-2.3-2-5.9-.9-1.7.5-2.2 1.8-3.5 2.6-.5.3-2-1.2-2.6-1.1 1 3.3-2.9 2.1-2.9 4.8 2.3-1.4 3.5-.8 4 .6z" fill="#707070"/><path d="M295.749 37.686c-1.5-3.6-7.5-1.9-5.2 2 1.6 2.9 4.7 1 5.2-2z" fill="#C6C6C6"/><path d="M221.149 36.086c5 .8 2.1-2.9 3.3-4.8 2.6-4.4 2-1.5 5.8-3.8 6.3-3.8 3.2-10.6-4.7-10.2 0-3.3-3.5-3.3-5.3-1.1-1.7 2.3 1.2 7.5-.5 10.7-.7 1.4-9.7 10.1-11 5.5-.4-1.5 6-2.3 4.7-3.8-.9-1.2-9.6-1-11.6-1-3.9.1-8 .5-11.4.8-1.9.2-7.5-.2-8.8.3-2.9 1.2-5.1 3.1-4.5 6.3-1.6 2-15.8-2-18.6-2.7-4.4-1.1-8.1-2.5-12.2-4.4-1.8-.9-3.4-2.2-5.4-2.8-2.3-.7-5.6-.1-7.7-1-.5 1.4 28.6 15 30.6 12.5 3.6 3.6 8.2 2.4 12.9 1.6 3.4-.6 5.3-1 8.6-.8 1.8.1 2.6 1.2 4.5 1.1 4.4-.3 8.1-3 12.9-3.2 3.2-.2 6.5 1.1 9.8 1.1 3.5.1 4.8-.9 8.6-.3" fill="#787878"/><path d="M116.949 11.186c-1-.6-2.1-.2-3.2-1.1-2.9-2.5-1.2-.2-1.1-4.1.2-3 2.2-4.5.3-7.4-.2-.2-.3-.4-.5-.6h-17l.2.2c4.5 4.1 5.9.8 10.1.8 1.6 0 2.5 1.7 4.5 2.3-4.1 4.8-5.5 9.3-.4 13.2 2.9 2.3 5.3 1 8.6 2-.3-.1 7.5 4.1 6.6 1.7-1-2.6-5.9-5.7-8.1-7z" fill="#868686"/><path d="M135.749 14.186c-.6.5-4.7-11.6-6.5-16.1h-5.9c.5 2 1.9 4.7 2.5 5.5-1-.3-4.1 3.5-3.7 3.4-2.4.6-.1 1.3-2.3-.4.7.5-1.9-5.3-1.9-5.3-.3-.7-.2-1.9-.1-3.1h-4.5c.6 3.5-.9 11 1.2 12.1 3.6-2.3 7.3 6 12.5.1.9.6 4 6.6 3.2 7.9-.7 0-4.1-2.1-4.8-.5-.2.5.8 4.6 1.4 5.1.3-.4 4.4-4.1 4.4-2.6 0 2-.7 3.5-2.1 4.8 1 .5 2 .5 2.9.1.7-.7 4.2-2.7 4.4-3 1-1.6-.2-1.8.2-3 .5-2.9 2.1-8-.9-5z" fill="#B2B2B2"/><path d="M120.049 10.786c-1.3-.2-4.5-2-5.6-1.2-1.1-2.1 1-7.1.4-9.6-.2-.7-.4-1.3-.6-1.8h-2.5c4.1 3.3-1.7 8.6-1.5 12.3 6-.5 8.6 4.6 13.4 7.1 4.5 2.3.2-.2.4-3 2 .6 6.3 6.6 7.5 3.4.6-1.6-3.5-7.4-4.1-9.3-3.4 2.7-3.2 2.6-7.4 2.1z" fill="#A1A1A1"/><path d="M129.049 24.986c3.4-1 3.1-4.1 4.2-7.1-1.4 1-5.2 1.2-6 2.6-.8 1.7-.6 4.4 1.8 4.5" fill="#EAEAEA"/><path d="M133.249 24.186c3.8 2.1 45.2 16.3 46 11.4.8-4.8-6.4-3.1-7.1-3.3-1.3-.5-.6-3.7-2.5-4.1-.7-.2-5 2.6-6.4 2.7-6 .5-12-2.7-17.5-5.1-1.3-.6-12.6-6.5-12.5-1.6" fill="#919191"/><path d="M219.849 28.386c1.7-3.9 2.4-10.2 2.6-14 .1-3.6 2.7-.4-.6-3.4 2.3 2.1-5.4-.8-4.2-.6-4.4-.5-5.7 1.3-10.2 2.7-.3.1-2.6-.1-3-.1-1.3 0-3.9-1.4-4.8-1.1-.5.2-.2 2.3-.3 2.3-.9.2-3.6.8-4.2 1.1-1.1.6-4.3 3.5-5.6 3.1 2.5-4.4-8.7 5.3.9 2.7 4.6-1.2 6.5-4.1 11.2-4 2.3.1.4 1.5 3.9.9.2 0 .6-2.1 1.3-2.6 4.7-3.3 6.3-2.6 7.9 2.3.4 1.1-1.4 1.7-.5 3 .9 1.3 3.7.9 4.5 2.4-.1 0-.5 8.4 1.1 5.3" fill="#585858"/><path d="M228.349 31.086c-.6-.5-1-.4-1.4.2-.2.5 1.1.8 1.4-.2" fill="#787878"/><path d="M190.149 19.886c-6.7 2.3-.5-2.3.8-6 2.1-6.1-1.7-8.7-7.8-7.5-1.7.3-2.8 2.1-5.3 1.7-2.4-.5-3.8-4.3-6.9-3-1.1.5-3.8 4.2-5.1 5.3-4.9 4-2.9.9-6.5-.1-3.4-.9-3.7-4.6-4.8 3-.6 3.9.3 7 3.8 9.3 1.1.8 3.3-.8 4.6.4 1.4 1.3.8 3.6 2 4.8 2.9 2.9 3.2-.5 5.3.7 1.1.6.3 2.9 1.7 3.8 1.3.8 2.3-.1 3.8 0 .7 0 .9 1.5 1.9 1.1 1.1-.4 2.1-2.4 2.4-2.5 1.7-.4 2.5-.3 5.4-.3.8 0 8.1-2.1 8-2.5-.2-1.2-4.3-1.6-5-2.9-1.4-2.6 3.8-2.9 1.7-5.3" fill="#555"/><path d="M206.749-2.214c-5.5 0-10.9 0-16.4.1-.3.9-.4 1.7-.5 2.3-.3 3 2.8 8.7 1.5 11.3-.5 1.1-.5 2.2-.2 3.4 2-1.2 1.7-3.7 3-4.5 1.2-.8 6.5 0 8.1.1 3.2.2 3.6 1.5 5.9-.7 2.4-2.3.6-4.8 3-6.3-.2-1.7-3.3-3.4-4.4-5.7z" fill="#757575"/><path d="M294.649 2.686c1.8.8 3.1-.6 4.3-.2 1.9.6 2.6.5 3.9 1.5.1.1.2.2.2.3-.3-2-.5-4.1-.6-6.1-.4-.2-.7-.3-1.1-.5h-4.1c-.5.2-1 .5-1.4.8-.2-.4-.4-.6-.6-.8h-1.6c-.6.4-1.2 1.1-1.6 1.9 2.8.4.6 2.2 2.6 3.1z" fill="#585858"/><path d="M292.849 36.786c-3.8-.1.1 3.3.2 3.5-.1-.4 3.9-3.4-.2-3.5" fill="#FAFAFA"/><path d="M190.149 19.886c-1.7 3.3-5.5 2.6-.7 6.9 4.6 4.2 10.7 1.4 15.8 1.3 2.2 0 7.1 2.4 8.4 2.6 1.7.2 9.8 0 4.7-3.3 3.9-4.7 0-5.4-4-7.5 3.9-3.1.3-8.3-4-7.4-1.8.4-4.4 4.6-5.8 5-2.7.7-4.9-1.5-8.3-1-1.3.2-4.3 2.7-6.1 3.4z" fill="#4D4D4D"/><path d="M185.049 31.486c-.6 1.4-.7 2.7-.3 4.2.8.3 4.4-1.6 5.5-1.8.1 0 10.5.6 7.4-1.6-.9-.7-3.4.2-5-.1-5.4-.8-.5-3.7-7.6-.7" fill="#939393"/><path d="M216.949 30.886c-1.1 0-11.5-2.9-9.8 1.8.8 1.9 10.3 1.4 11-.2.4-.7-.8-1.3-1.2-1.6" fill="#8B8B8B"/><path d="M140.049 4.286s-3.4-1.6-2.9-.9c-.9-1.5.8-2.8 0-4.5-.1-.3-.2-.5-.4-.8h-7.7c-1.9 5.3 4.3 13.6 5.7 17 .5-.2 1-.5 1.5-.7.4 2.6-3.2 5.2 1.2 7.9 5.1 3.1 3.4-1.5 3-4.2-.2-1.1-2.5-7.9-2.4-8 1.2-4.2 9.2.2 8.7-2.4-.1-1.9-4.8-2.6-6.7-3.4z" fill="#7E7E7E"/><path d="M125.949-.214c-.4-.6-.8-1.2-1.2-1.7h-8.7c.4.5.7.9.8 1.2 1 2.1 1 4 2.1 6.2 1.8 3.3 0 4 3.8 2.3.8-.3 4.2-5.1 4.1-6-.5.4-1 .8-1.4 1.2-1.1-.7.9-2.4.5-3.2z" fill="#C4C4C4"/><path d="M140.949 22.486c-3.5-.1-6.9-4.4-7.8 1.3 8.5-1.6 14.6 8.1 22.1 7 4.2-.6 1.7-1.7-1.4-3.5-1.9-1.2-11.2-6.6-12.9-4.8" fill="#A2A2A2"/><path d="M130.649-1.914h-3c.2 3 1.6 6.1 2.4 8.9-.4-3.5-.6-5.9.6-8.9z" fill="#A1A1A1"/><path d="M128.349 18.286c2.4-1.7-3.1-5.7-4.6-5-3.6 1.5 2.6 6.5 4.6 5" fill="#848484"/><path d="M114.449 9.586c4.1 4.5 3.5-4.3.3-1.3.4-.3.3.1-.3 1.3" fill="#C4C4C4"/><path d="M134.849 15.086c-.5-.2-1.1-.3-1.6-.4-.3.7-.2 1.3.3 1.7.9.2.9-1.1 1.3-1.3" fill="#7E7E7E"/><path d="M140.949 22.486c4.8-.5 12.2 6.2 16.8 8 5.7 2.3 7 1.7 11.8-1.7 1 3.8 2.4 4.4 6 3.3-1.1-.1-2.2-.1-3.3-.2-1.2-.5-1.7-1.4-1.3-2.6.9.3-3.8-2-2.6-.8-.2-.2-2.1-1.5-3-2.4-1.4-1.6-.3-3.3-2.3-4.5-6-3.8-4.5 2.4-8.9-5.9-3.2-6.2-2.7-4.4-7.1-.6-1.5-1.8-3.2-3.5-5.1-5 1 .5 4.8-.1 4.7-2.1 0 .5-7.4-1.8-8.7-2.7-.4 1.8-3.3 8.4.4 6.4 1.7 3.7-.1 7.9 2.6 10.8" fill="#6F6F6F"/><path d="M197.549 16.686c1.4.8 6.9 4.6 7.1 1-4.2 1.1-1.1-4.8-7.1-1m7.1.7c3.1-2.8 3.4-.3 5.8-4.8-1.2 1-6.6 2.5-5.8 4.8m-14.5 2.5c2.1-.7 5.1-3.6 7.1-3.2-1.5-1.3-6.5 1.7-7.1 3.2" fill="#555"/><path d="M220.249 14.686c.9 0 1.4-.5 1.5-1.5-1.2-.2-1.7.3-1.5 1.5" fill="#4D4D4D"/><path d="M187.549 21.186c.5-.3 1.1-.6 1.6-1-.8-1.5-2.2-.4-1.6 1" fill="#6D6D6D"/><path d="M191.349-2.114c-4.5 0-9 0-13.5.1.6 2.5 1.3 5.2 1.7 5.7 1.3 1.7 2.7 1.6 4.3 2.2 2 .8 4.9 1.7 7.3 2.6l.8 1.5c.5-.1 0-1.9.5-2 .2-.3-1.7-5.9-1.6-7.4.1-1 .2-1.9.5-2.7z" fill="#898989"/><path d="M180.849 6.286c-.5-1.4-5.3-6.2-6.8-8.4-4.4 0-8.8 0-13.2.1 2.1 1.7 6.2 1.9 6.8 3.1 1.2 2.2-4.8 11.3-4.1 11.4 4.1-2.6 6.2-6.5 10.7-6.1 2.2.2 3.9 5 7.1 2.2 1.7-1.5-.2-1.6-.5-2.3z" fill="#5E5E5E"/><path d="M146.149 7.586c-1.9 2.5-5.8 0-5.9 3 0-.4 6.7 6.6 7.2 7.3 6.3-14.4 4.9 7.2 11.3 3.6-4.4-2.8-4.5-8.3-2-12.5 3 .6 2.8 6.3 6.5 4 0 0 1.5-3.5 1.5-3.3-.3-2.9-3.3-2.7-4.7-3.3-3.5-1.4-7.2-2.3-9.5 2.2-1.7-1.6-2.7-2.8-4.4-1z" fill="#5E5E5E"/><path d="M181.349 3.986c-1.9-1.6-1.5-3.1-2-4.7 0-.1-.1-.6-.2-1.4h-6c.3.8.5 1.5.6 1.8.8 1.5 2.3 3.9 3.5 5.5 2.7 3.3 6.5 3.8 9.5.2-1.4-1.4-3.7.1-5.4-1.4z" fill="#727272"/><path d="M186.849 5.386c-.6.1-1.3.2-2 .3 3.7.4 5.4 2.7 6.5 5.8 2.4-2.5-3.2-5.2-4.5-6.1zM192.649-2.114c-.9 2.4 2 2 3.5 4.7-1.4 1.5-2.9-.6-4.2 1 .9.8 2 1.2 3.1 1.5-1 2 .2 3.6 2 2.2 1.1-.9 1.7-6.1 1.7-9.4-2-.1-4-.1-6.1 0z" fill="#6D6D6D"/><path d="M201.849-.714c.1 2.8-2.3 2.9-1.4 6.3.4 1.4 4.9 6 6.6 4.1 1.6-1.6-1.5-11.5-5.2-10.4" fill="#898989"/><path d="M166.749-1.014c-1-.9-2.9-.5-4.1-1.1H152.549c1.1 2.1 2.6 4.2 3.3 4.7-3-.3-4.1-5.5-7.7-3.9-2.4 1-.9 3-.9 3s-3.7 3.7-1.1 5.9c3.7-1.9 2.2 3.2 4.4 3.2 1.7 0 1.6-4.5 4.6-4.6 2.7-.2 2.3 2.6 4.4 3 1.1-4 6.6-.2 1.8 3.1 2 2.4 3.9-4.2 6.1-3.5 1.3-4.8 2.4-7.1-.7-9.8z" fill="#6F6F6F"/><path d="M140.749 1.386c.2.2-.1-1.7-.5-3.3h-4.4l.3.9c.8 2.7-2.4 3.3.1 6.3-1-1.2 3.7.3 3.9.3 2.4.9 3.7 2.9 5.6.8-1.4-2.2-3.5-2.7-5-5z" fill="#9D9D9D"/><path d="M114.849 8.286c.2 1.4.8 1.8 2 1.4-.1-1.3-.7-1.7-2-1.4" fill="#F7F7F7"/><path d="M181.949-2.114c-.5 4.1 6.3 8.9 7.7 7.6 0-1.5-.3-5-1.3-7.6h-6.4z" fill="#A4A4A4"/><path d="M154.349-2.014h-11c1 2.3-.3 6.4 2.1 7.7 5.8 3.1 2.3-4.9 2.2-5.7 4-2.1 6 5 10.4 3.9.3-1.2-1.6-3.8-3.4-5.9h-.3zM159.449-2.014h-1.8c2.3 3 5.5 6.4 6.5 4.7.1-.3-2.4-2.5-4.7-4.7z" fill="#666"/><path d="M144.549-1.914h-4.9c.4.5.7 1 .8 1.1 0 0 3.2 8.7 4.3 5.6-.6-2.4.6-4.1-.2-6.7z" fill="#6F6F6F"/><path d="M144.849 4.786c-3.1-1.2-2.9-4.2-3.4-6.7h-2.4c.2 4.1 3 6.3 6.7 8.3.2-.7-.1-1.2-.9-1.6z" fill="#7E7E7E"/></g></g><path fill="#9E358C" fill-rule="nonzero" style="mix-blend-mode:color" d="M0 0h302v58H0z"/></g></svg>