<svg width="198" height="113" xmlns="http://www.w3.org/2000/svg"><path d="M78.726 61.746c-.793.094-1.483.147-2.162.268-1.201.26-2.437.317-3.657.17a9.165 9.165 0 0 1-1.085-.351c-.557-.163-1.138-.28-1.676-.454-1.313-.412-2.056-1.38-2.443-2.645a.988.988 0 0 1 .254-.843.76.76 0 0 1 .839-.053c1.1.613 2.352.904 3.61.839.619-.038 1.248.087 1.867.049.952-.057 1.896-.193 2.845-.287 1.009-.102 2.021-.216 3.034-.284a.721.721 0 0 0 .641-.332c1.005-1.478 2.048-2.933 3.035-4.414a5.54 5.54 0 0 1 2.014-1.992.715.715 0 0 1 .546-.05c.507.242.942.612 1.26 1.074.204.302.033.612-.058.922-.09.31-.14.639-.22.96a3.016 3.016 0 0 1-.212.658c-.38.691-.759 1.368-1.119 2.056a2.19 2.19 0 0 0-.125.42h6.604c0 .237.159.264.402.267.443 0 .883.095 1.327.144l3.255.378a34.873 34.873 0 0 0-7.442.597l.379.125v.064c-.38.038-.759.06-1.108.121-.144.023-.273.151-.417.185-.31.076-.626.129-.94.178-.987.159-1.977.302-2.96.476a.564.564 0 0 0-.333.314c-.58 1.413-1.138 2.834-1.714 4.255-.478 1.198-.975 2.392-1.411 3.606a144.374 144.374 0 0 0-1.548 4.58 19.916 19.916 0 0 0-.569 2.098 13.619 13.619 0 0 0-.25 1.89c-.099 1.56-.175 3.12-.236 4.682a4.318 4.318 0 0 0 .588 2.622.644.644 0 0 0 .964.239 5.797 5.797 0 0 1 1.221-.59c.185-.031.373-.031.558 0a1.8 1.8 0 0 1-.034.605 2.71 2.71 0 0 1-1.085 1.133c-.751.488-1.627.75-2.523.756a3.219 3.219 0 0 1-2.09-.846 7.212 7.212 0 0 1-2.18-3.402c-.57-1.678-.532-3.424-.437-5.154.106-1.685.435-3.349.979-4.948.58-1.764 1.138-3.53 1.76-5.29.341-.987.72-1.962 1.138-2.922.193-.465.489-.888.728-1.338.073-.175.135-.354.186-.536zm24.42-36.047l2.147-.14c2.124-.136 4.244-.28 6.368-.412 1.4-.087 2.803-.11 4.196-.26 1.103-.121 2.188-.378 3.284-.594.41-.075.68.05.759.378.08.329-.121.54-.512.608-3.035.518-6.024 1.384-9.104 1.682-2.465.238-4.93.45-7.396.662a.341.341 0 0 0-.38.28c-1.898 6.064-3.795 12.127-5.689 18.189a2534.013 2534.013 0 0 1-3.338 10.506c-.102.325-.25.639-.38.96l-.128-.026c.102-.692.178-1.387.31-2.068.82-4.157 2.16-8.163 3.445-12.184 1.603-5.021 3.208-10.041 4.813-15.06.05-.151.088-.306.145-.507-.554.034-1.066.068-1.575.091-5.31.242-10.62.533-15.93.703-2.8.09-5.61 0-8.414-.057a21.43 21.43 0 0 1-4.984-.582c-.254-.068-.5-.158-.759-.226-1.035-.273-1.448-1.032-1.562-2.003-.114-.972.322-1.712 1.19-2.219.786-.457 1.518-1.04 2.296-1.474 2.61-1.417 5.393-2.437 8.178-3.45.632-.262 1.248-.56 1.847-.892 1.164-.578 2.36-1.104 3.474-1.769.918-.548 1.726-1.273 2.59-1.908 1.082-.802 1.602-2.03 2.345-3.08a29.718 29.718 0 0 1 3.611-4.437 13.552 13.552 0 0 1 4.09-2.593 37.59 37.59 0 0 1 4.293-1.667A36.443 36.443 0 0 1 110.41.756c2.16-.136 4.32-.262 6.482-.378 1.487-.076 2.902.34 4.317.692 1.5.353 2.957.873 4.343 1.549.078.04.153.085.224.136 1.084.782 2.177 1.546 3.243 2.35.424.322.777.738 1.18 1.093a25.117 25.117 0 0 0 2.142 1.867c.611.435 1.366.661 2.022 1.04a7.8 7.8 0 0 0 2.708.823c1.923.321 3.854.582 5.773.915 3.528.608 7.03 1.33 10.378 2.626a7.32 7.32 0 0 1 2.345 1.312c1.092.986 1.096 2.362 0 3.36a8.398 8.398 0 0 1-3.695 1.89c-1.138.283-2.302.456-3.455.683l-1.73.344c-.205.042-.425.076-.49-.193-.064-.268.137-.351.35-.378 2.715-.34 4.999-1.674 7.206-3.136.229-.153.443-.325.641-.514.312-.295.33-.54 0-.824-.349-.3-.73-.562-1.137-.779a26.728 26.728 0 0 0-5.125-1.89 68.796 68.796 0 0 0-10.784-2.048c-4.138-.487-8.291-.472-12.449-.465a89.462 89.462 0 0 0-8.997.416c-2.496.257-4.995.582-7.465 1.028-3.615.65-7.207 1.421-10.803 2.166-.804.166-1.589.446-2.385.646-2.276.567-4.552 1.07-6.828 1.685a109.423 109.423 0 0 0-11.262 3.659c-1.672.657-3.311 1.406-4.93 2.18a8.096 8.096 0 0 0-1.787 1.225 3.658 3.658 0 0 0-.812 1.179.728.728 0 0 0 .197.915c.046.037 0 .173 0 .377.474.087.99.205 1.517.273 2.24.244 4.497.32 6.748.226 4.469-.102 8.937-.211 13.401-.378 3.437-.14 6.87-.4 10.306-.59a.572.572 0 0 0 .615-.517c.356-1.232.758-2.456 1.138-3.685a.95.95 0 0 0 .038-.155c-.171-.204-.406-.378-.38-.495a.707.707 0 0 1 .38-.499.957.957 0 0 0 .572-.669c.085-.234.189-.462.311-.68.07-.104.15-.2.24-.287l.14.05-.163 1.13a.895.895 0 0 0 .2 0c3.623-.847 7.291-1.414 10.974-1.89 1.548-.208 3.107-.33 4.666-.446.732-.057.785.14.929.842.187.639.432 1.258.732 1.852.091.223.193.439.273.662.08.222.095.377.16.57 1 2.82 2.108 5.601 2.985 8.458 1.627 5.314 3.11 10.669 4.673 16.002a52.537 52.537 0 0 0 2.689 7.558c.212.45.455.888.69 1.327.296.551.186 1.077-.288 1.33a.887.887 0 0 1-1.248-.476c-.573-1.217-1.1-2.457-1.642-3.685 0-.034-.027-.072-.042-.106-.512-1.217-.842-2.494-1.229-3.749a118.995 118.995 0 0 1-1.108-3.843c-1.073-3.893-2.1-7.797-3.212-11.675-.88-3.065-1.848-6.107-2.803-9.15-.425-1.352-.91-2.69-1.373-4.032-.06-.2-.14-.392-.243-.574a.486.486 0 0 0-.326-.208 10.317 10.317 0 0 0-1.86-.03c-3.815.514-7.63 1.058-11.443 1.61-.717.106-1.422.276-2.132.434a.462.462 0 0 0-.3.257c-.432 1.5-.838 3.028-1.266 4.63zm80.656 43.779c.524-.057 1.051-.12 1.575-.174.523-.053 1.172-.057 1.74-.159a2.782 2.782 0 0 1 1.817.231l-.163.242c.952.446 1.518 1.236 1.984 2.23.892-.571 1.737-1.134 2.59-1.667.854-.533 1.75-1.134 2.656-1.648a8.231 8.231 0 0 1 1.415-.521c.064-.023.152.022.307.049-.11.17-.237.328-.38.472-1.049.9-2.103 1.792-3.163 2.676-.36.298-.758.552-1.119.846-.489.378-.91.907-1.456 1.187-1.214.624-1.612 1.735-2.01 2.891-.175.455-.374.9-.596 1.334-.38.843-.937 1.614-1.21 2.517-.14.314-.338.599-.584.84-.603.725-1.244 1.42-1.828 2.157-.721.911-1.446 1.83-2.69 2-.944.132-1.923.18-2.761-.42a3.222 3.222 0 0 1-.6-.737 2.708 2.708 0 0 1-.333-.533.704.704 0 0 1-.076-.495c.405-.834.852-1.648 1.339-2.438.415-.647.895-1.251 1.434-1.802a76.127 76.127 0 0 1 3.3-3.145c.55-.495 1.206-.869 1.786-1.33.2-.16.354-.372.444-.612.163-.457.258-.937.38-1.451a2.434 2.434 0 0 0-1.594.468 6.465 6.465 0 0 1-2.314.726c-.591.102-1.138.378-1.744.484-.452.069-.91.092-1.366.068a1.59 1.59 0 0 1-.607-.151c-.239-.106-.36 0-.455.185-.432.793-.888 1.572-1.274 2.384a12.137 12.137 0 0 1-2.625 3.848 8.81 8.81 0 0 0-.968 1.262c-.2.268-.534.472-.42.892 0 .034-.039.09-.069.125-.322.378-.633.793-.978 1.167a2.05 2.05 0 0 1-.888.756c-.38.133-.66.643-.994.972-.15.174-.33.32-.53.43-.661.302-1.34.561-2.034.775a2.45 2.45 0 0 1-1.851-.314 9.72 9.72 0 0 1-2.951-2.467 5.068 5.068 0 0 1-.975-2.567c-.045-.313-.076-.627-.117-.978a.725.725 0 0 0-.152.102c-1.002 1.205-2.018 2.4-2.985 3.628-.425.54-.713 1.186-1.138 1.723-.303.37-.674.68-1.093.91-.633.352-1.32.602-1.987.897a.38.38 0 0 1-.11.022 1.066 1.066 0 0 1-1.108-.722c-.08-.287-.2-.378-.482-.29-.31-.583-.599-1.134-.914-1.701a.972.972 0 0 1-.14-.756c.022-.251.03-.504.023-.756.035-.158.086-.313.151-.461.027-.08.088-.181.061-.242-.356-.733-.019-1.425.186-2.082.713-2.268 1.494-4.486 2.257-6.727.356-1.047.72-2.094 1.1-3.137.167-.45.38-.88.573-1.327.064-.146.095-.305.09-.465 0-.29-.242-.377-.466-.207a9.06 9.06 0 0 0-.903.839c-1.638 1.783-2.932 3.813-4.199 5.865-.713 1.156-1.479 2.268-2.222 3.424-.452.695-.88 1.406-1.362 2.082-.288.405-.338.356-.759.087-.125-.083-.38.038-.584.065l.023.102c-.068-.099-.114-.242-.209-.284-.38-.17-.307-.442-.22-.756.33-1.133.664-2.267.971-3.401.273-.998.524-2 .759-3 .227-.93.425-1.868.664-2.794.186-.725.432-1.436.618-2.161.133-.507.212-1.028.315-1.539l-.137-.068c-.148.212-.292.424-.444.632-1.414 1.965-2.765 3.98-4.267 5.876a22.873 22.873 0 0 0-2.23 3.753 16.874 16.874 0 0 0-1.536 3.685 4.387 4.387 0 0 0-.057.87c-.216.332-.417.634-.607.944-.19.31-.482.181-.71.083-.214-.1-.407-.24-.568-.412a.433.433 0 0 0-.592-.125c-.22.125-.35.05-.455-.18a2.769 2.769 0 0 1-.235-1.789c.151-.755.193-1.511.31-2.267.118-.756.255-1.512.38-2.268.155-.808.33-1.613.504-2.418.258-1.202.528-2.4.782-3.602a6.91 6.91 0 0 0 .064-.756c-.5.265-.94.45-1.335.71-1.365.908-2.708 1.849-4.066 2.763-.38.257-.793.458-1.172.71a.703.703 0 0 0-.277.379 40.057 40.057 0 0 1-1.688 5.835c-.262.688-.486 1.394-.717 2.094-.095.283-.163.57-.516.661a.378.378 0 0 0-.208.246c-.296.97-1.051 1.511-1.897 1.938-1.115.586-2.227.424-3.319-.083-.683-.317-1.37-.63-2.022-1.001a2.858 2.858 0 0 1-1.251-1.338c-.334-.756-.732-1.485-1.02-2.268a12.35 12.35 0 0 1-.38-1.72 1.59 1.59 0 0 0-.28.27c-.346.54-.676 1.091-1.021 1.632a2.687 2.687 0 0 1-.307.325c-.46.413-.867.88-1.214 1.39a16.44 16.44 0 0 1-1.043 1.55 6.736 6.736 0 0 1-2.276 2.237c-.513.303-1.009.635-1.483.994-.83.565-1.791.907-2.792.994-.338.069-.68.114-1.024.136-.584 0-1.168-.087-1.752-.136a6.743 6.743 0 0 1-2.55-.752 2.087 2.087 0 0 1-.553-.525 1.138 1.138 0 0 0-.615-.416 1.322 1.322 0 0 1-.925-.846c-.125-.378-.209-.756-.315-1.134-.152-.544-.338-1.081-.459-1.63-.167-.64-.37-1.27-.607-1.889-.239-.699-.144-1.511-.178-2.267a77.15 77.15 0 0 1-.08-2.332c-.011-.779-.026-1.67 0-2.502.037-.48.102-.956.194-1.429.11-.714.231-1.428.345-2.142a2.636 2.636 0 0 0 0-.322c-.63.378-1.23.658-1.78 1.032-1.137.756-2.252 1.591-3.39 2.374-.38.253-.759.442-1.138.687a.67.67 0 0 0-.262.36c-.319 1.239-.576 2.494-.933 3.722-.307 1.05-.717 2.067-1.081 3.099-.152.43-.28.87-.463 1.289a2.035 2.035 0 0 1-.402.476c-.083.09-.224.162-.246.264-.194.756-.759 1.244-1.37 1.644-.758.5-1.574.858-2.515.609a9.671 9.671 0 0 1-1.646-.533 23.922 23.922 0 0 1-2.196-1.217 1.563 1.563 0 0 1-.55-.6 26.92 26.92 0 0 1-1.221-2.605 5.65 5.65 0 0 1-.053-3.571 64.756 64.756 0 0 1 2.105-6.425A16.591 16.591 0 0 1 86.6 64.97a7.07 7.07 0 0 1 2.656-2.067c.67-.283 1.335-.378 1.998.057.287.174.586.327.896.457a2.8 2.8 0 0 1 1.297 1.421c.463.941 1.107 1.799 1.286 2.861.074.524.121 1.051.14 1.58.02.32 0 .646 0 1.05.319-.166.603-.294.865-.457a48.688 48.688 0 0 1 5.53-2.872.435.435 0 0 0 .216-.246c.156-.582.323-1.164.43-1.753.238-1.084.609-2.135 1.103-3.13.683-1.545 1.4-3.084 2.204-4.569.758-1.394 1.616-2.732 2.484-4.059.645-.982 1.362-1.923 2.09-2.85a6.13 6.13 0 0 1 .971-.838c.28-.235.565-.465.857-.684.286-.26.605-.48.949-.654.292-.101.612-.087.895.038.5.253.91.105 1.373-.068 1.237-.458 2.393-.378 3.414.567.267.242.562.452.88.623.536.294.924.8 1.066 1.395.272 1.011.422 2.052.447 3.099 0 .567.103 1.133.144 1.704.076 1.085-.254 2.101-.553 3.122-.133.446-.3.884-.433 1.334-.182.6-.686.96-1.058 1.417-.118.144-.285.25-.38.4-.458.654-1.137.632-1.813.583-.337-.027-.474-.223-.36-.537.187-.523.402-1.035.645-1.534.454-.961.777-1.978.96-3.024.14-.71.303-1.42.379-2.139.129-.876.187-1.76.174-2.645a3.977 3.977 0 0 0-.515-1.557c-.346-.673-1.09-.662-1.662-.19-.671.556-1.009 1.339-1.57 1.966-2.143 2.4-3.6 5.227-5.022 8.072-.289.575-.63 1.134-.888 1.709-.258.574-.5 1.28-.728 1.93-.334.965-.706 1.917-.964 2.9a46.922 46.922 0 0 0-.777 3.677c-.123.75-.196 1.507-.22 2.267.015.393.064.783.144 1.168.009.09.009.182 0 .272-.064.907-.254 1.807-.034 2.725.02.27.002.543-.053.809-.06.96.334 1.833.508 2.747.193 1.01 1.047 1.474 1.715 2.068.331.197.725.264 1.103.185a15.39 15.39 0 0 0 2.075-.476c1.472-.42 2.53-1.421 3.524-2.521.736-.813 1.49-1.61 2.245-2.404.668-.707 1.385-1.372 2.015-2.109a25.529 25.529 0 0 0 1.832-2.441c.194-.41.343-.84.443-1.281.346-.934.69-1.87 1.055-2.797a14.611 14.611 0 0 1 2.655-4.425 6.376 6.376 0 0 1 2.955-2.071 1.64 1.64 0 0 1 1.472.143c.276.168.566.314.864.439a2.704 2.704 0 0 1 1.35 1.322c.471.975 1.139 1.864 1.359 2.948.087.56.136 1.124.148 1.69.019.317 0 .638 0 1.043.599-.348 1.119-.677 1.661-.957 1.339-.695 2.69-1.368 4.04-2.044.352-.178.72-.318 1.073-.495a.484.484 0 0 0 .209-.269l1.517-5.007c.322-1.085 1.252-1.236 2.14-1.017a2.502 2.502 0 0 1 1.919 2.09 3.91 3.91 0 0 1-.114 1.678c-.38 1.49-.838 2.96-1.267 4.433-.065.223-.156.442-.235.662l.106.064c.134-.13.26-.268.38-.412 1.023-1.376 2.029-2.766 3.068-4.127a8.093 8.093 0 0 1 2.69-2.15c.246-.133.443-.034.682.094 1.476.79 1.233 2.143 1.138 3.424-.072.994-.228 1.984-.38 2.967-.079.495-.246.975-.379 1.462-.034.136-.053.276-.08.416l.198.159c.018-.112.054-.22.106-.321 1.013-1.342 1.984-2.714 3.061-4.003a29.537 29.537 0 0 1 2.223-2.154c.455-.442.922-.877 1.346-1.345.25-.295.615-.468 1.002-.476.37-.018.74-.06 1.104-.129a1.801 1.801 0 0 1 1.775.684c.459.79.88 1.606 1.278 2.43.319.658.14 1.304-.174 1.912-.547 1.055-1.165 2.072-1.654 3.152-.414.915-.683 1.89-1.017 2.846-.6 1.72-1.195 3.44-1.798 5.159a21.655 21.655 0 0 1-1.858 3.824 1.03 1.03 0 0 0-.091.2.813.813 0 0 0 .022.212c.38-.306.717-.551 1.017-.846.834-.82 1.684-1.633 2.47-2.502.716-.79 1.3-1.704 2.048-2.464.633-.643.709-1.436.88-2.215a20.06 20.06 0 0 1 1.247-3.964c.47-1.047.892-2.113 1.362-3.16a21.466 21.466 0 0 1 2.397-3.968c.918-1.236 1.798-2.502 2.743-3.715a5.557 5.557 0 0 1 1.733-1.564c.313-.182.607-.392.88-.628a.997.997 0 0 1 .964-.208c.246.082.512.082.758 0 .968-.43 1.802-.14 2.553.45.718.5 1.08 1.37.926 2.23-.273 1.255-.069 2.607-.786 3.78a64.79 64.79 0 0 0-1.08 1.813c-.236.412-.437.85-.672 1.262-.38.647-.759 1.274-1.138 1.92a24.443 24.443 0 0 1-2.613 3.617 170.702 170.702 0 0 1-3.475 4.074c-.307.348-.736.586-1.08.903a.88.88 0 0 0-.27.503c-.1.772-.154 1.55-.163 2.328.056.536.142 1.068.258 1.595.057.457.402.491.724.499.233-.003.46-.074.653-.204.591-.39 1.156-.818 1.691-1.282.55-.498 1.002-1.107 1.518-1.62 1.896-1.815 3.413-3.924 4.999-5.98.236-.34.454-.694.652-1.058l-.379-.166a3.181 3.181 0 0 1-1.498-1.436.863.863 0 0 1-.042-.56 6.724 6.724 0 0 1 2.177-3.473c1.218-1.134 2.507-2.161 3.793-3.182 1.005-.786 2.09-1.466 3.122-2.218a20.571 20.571 0 0 1 3.577-2.026.898.898 0 0 1 .838.023c.182.07.372.12.565.147.217.022.43.076.63.163.728.464 1.517.884 1.806 1.787a.599.599 0 0 1-.023.344c-.072.22-.194.427-.258.646a.682.682 0 0 1-.641.51 2.091 2.091 0 0 0-.892.307c-1.718 1.254-3.413 2.532-5.116 3.81-.706.528-1.4 1.076-2.098 1.617a.885.885 0 0 0-.129.155l.102.113zm-93.234-1.697a3.07 3.07 0 0 0-1.415 1.414c-.49.892-.932 1.81-1.324 2.75-.565 1.513-.997 3.07-1.517 4.589-.398 1.134-.186 2.207.137 3.288.129.43.318.48.625.143.486-.532.941-1.092 1.385-1.662.192-.217.328-.476.398-.756.118-.718.497-1.387.414-2.147.009-.186.055-.368.136-.537.535-1.617 1.085-3.23 1.172-4.95.02-.688-.011-1.384-.011-2.132zm-42.335 5.132a1.21 1.21 0 0 0-.679.873c-.16.813-.648 1.436-1.085 2.09a63.745 63.745 0 0 1-2.078 2.956 12.483 12.483 0 0 1-1.734 2.04 15.554 15.554 0 0 1-2.81 1.932c-.596.317-1.358.11-1.946-.238a5.807 5.807 0 0 1-2.363-2.415 3.013 3.013 0 0 1-.13-1.788c.126-.862.296-1.723.501-2.57.24-1.143.546-2.271.918-3.379.562-1.511 1.244-2.978 1.897-4.451.584-1.3 1.168-2.604 1.824-3.87.417-.917.956-1.773 1.605-2.544a1.901 1.901 0 0 1 2.36-.518c.259.2.446.479.534.794.157.396.253.814.284 1.24-.007.33-.08.657-.216.96a65.143 65.143 0 0 1-1.058 2.645c-.725 1.66-1.517 3.296-2.211 4.962-.664 1.565-1.271 3.156-1.897 4.74-.16.411-.262.846-.38 1.265-.141.482-.074 1 .187 1.429.185.348.333.378.625.094a18.154 18.154 0 0 0 3-3.65c1.548-2.37 2.918-4.838 4.222-7.343.338-.647.721-1.27 1.01-1.935.16-.45.275-.915.34-1.387.1-.484.175-.972.244-1.46.056-.404.09-.808.12-1.212a1.96 1.96 0 0 1 .66-1.251.928.928 0 0 1 1.237 0 4.533 4.533 0 0 1 1.996 3.239c.077 1.07.077 2.145 0 3.216 0 .933 0 1.89-.03 2.808a77.953 77.953 0 0 1-.3 4.104c-.091.9-.292 1.788-.46 2.793.312-.166.55-.302.79-.423.591-.303 1.183-.601 1.782-.892a2.318 2.318 0 0 0 1.203-1.599c.406-1.429.83-2.853 1.286-4.267.379-1.179.827-2.335 1.213-3.51.3-.908.562-1.83.82-2.752.051-.248.07-.502.057-.756a1.131 1.131 0 0 1 .325-.905c.239-.24.57-.36.907-.33 1.18-.023 1.977.653 2.656 1.473.679.82.671 1.784.402 2.767-.13.472-.232.948-.35 1.424l.107.065a2.97 2.97 0 0 0 .296-.272c.59-.8 1.27-1.53 2.025-2.177a6.742 6.742 0 0 1 2.655-1.134c.786-.17 1.552.208 2.223.669.186.125.357.272.546.378.956.605 1.298 1.534 1.404 2.592.092.574.138 1.154.136 1.735-.056.896-.212 1.788-.349 2.676-.11.756-.208 1.481-.379 2.203-.182.803-.427 1.59-.732 2.355a38.568 38.568 0 0 1-1.593 3.34c-.43.867-.953 1.684-1.559 2.438a7.523 7.523 0 0 1-1.828 1.364c-.391.19-.802.338-1.225.439a6.601 6.601 0 0 0-1.07-.457A4.253 4.253 0 0 1 62.1 82.13c-.573-.608-.588-1.712-.133-2.464a.862.862 0 0 1 .649-.378c.27.056.493.244.595.499.133.91.899 1.134 1.559 1.621.38-.756.759-1.489 1.085-2.233.444-1.025.88-2.06 1.24-3.115.213-.718.38-1.449.5-2.188.149-.722.304-1.447.403-2.177.19-1.379.52-2.75.425-4.157.001-.1-.01-.2-.03-.298-.258-.828-.71-.956-1.237-.28a43.928 43.928 0 0 0-3.232 4.46c-.758 1.296-1.638 2.54-2.439 3.82a6.73 6.73 0 0 0-.497 1.096c-.178.454-.352.915-.497 1.38-.223.714-.424 1.432-.63 2.15a41.518 41.518 0 0 1-1.755 5.318c-.258.585-.44 1.201-.683 1.791-.41.99-.861 1.965-1.252 2.963-.614 1.56-1.191 3.133-1.798 4.698-.14.377-.36.702-.497 1.07-.205.54-.356 1.103-.557 1.647a4.975 4.975 0 0 1-.342.65c-.076.14-.216.276-.227.42a1.602 1.602 0 0 1-.66 1.027.335.335 0 0 1-.33 0 4.911 4.911 0 0 1-.463-.71c-.16-.287-.38-.321-.592-.053-.12-.3-.191-.618-.212-.941.068-.658-.38-1.107-.554-1.663a3.722 3.722 0 0 1-.209-.926c.018-.237.078-.469.179-.684.273-.737.239-1.512.534-2.268.425-1.043.76-2.12 1.138-3.19.494-1.484.968-2.973 1.442-4.463.246-.755.478-1.545.713-2.32.39-1.295.775-2.591 1.157-3.889a1.239 1.239 0 0 0 0-.257l-.732.446a6.336 6.336 0 0 0-2.606 2.763 7.535 7.535 0 0 0-.33 1.511c-.209.987-.398 1.977-.634 2.96-.182.755-.508 1.511-.614 2.267a12.06 12.06 0 0 1-.857 2.85c-.198.487-.535.914-.74 1.402-.535 1.27-1.1 2.536-1.517 3.84-.823 2.509-2.348 4.622-3.767 6.802-.459.703-1.05 1.315-1.574 1.977a3.475 3.475 0 0 0-.38.593 10.23 10.23 0 0 1-2.116 2.623c-.447.442-.842.941-1.305 1.364-.544.521-1.133.994-1.76 1.414-.853.536-1.672 1.186-2.678 1.432-.86.208-1.74.352-2.617.476a4.347 4.347 0 0 1-1.403.03 3.327 3.327 0 0 1-1.992-1.349c-.405-.529-.724-1.133-1.08-1.685-.357-.552-.156-1.108-.035-1.652a9.4 9.4 0 0 1 .486-1.576c.283-.695.61-1.372.978-2.025a133.5 133.5 0 0 1 2.747-4.592 30.276 30.276 0 0 1 4.331-5.408 34.93 34.93 0 0 0 2.473-2.865 90.935 90.935 0 0 1 7.814-8.314 7.347 7.347 0 0 1 1.282-1.02c.378-.242.612-.654.626-1.1.125-.79.277-1.577.41-2.363.144-.85.277-1.7.41-2.55.132-.851.273-1.732.405-2.593.02-.253.053-.492.114-.832zm-2.606 13.67a1.743 1.743 0 0 0-.212.181c-.512.613-1.005 1.24-1.517 1.837a280.843 280.843 0 0 1-3.63 4.029c-.547.593-1.165 1.134-1.715 1.712-.216.23-.326.56-.52.812-1.255 1.63-2.567 3.216-3.762 4.887-.759 1.043-1.692 1.95-2.178 3.193-.43.95-.91 1.877-1.437 2.778-.15.283-.277.577-.38.88a72.92 72.92 0 0 0-.614 2.019.377.377 0 0 0 .023.26c.133.239.284.465.432.696a.693.693 0 0 0 .994.314 14.329 14.329 0 0 0 1.813-1.104c1.476-1.085 2.58-2.543 3.695-3.957a29.718 29.718 0 0 0 3.432-5.347c.493-1.002 1.108-1.943 1.62-2.937.421-.816.759-1.667 1.165-2.498 1.164-2.475 2.302-4.974 2.791-7.755zM28.54 66.893c.12-.047.235-.104.345-.17 1.063-.794 2.098-1.625 3.187-2.381a41.482 41.482 0 0 1 3.27-2.071 5.21 5.21 0 0 1 2.54-.835c.27-.035.532-.105.782-.208.425-.121.846-.265 1.278-.378a.63.63 0 0 1 .759.378c.205.42.14.96-.167 1.153-.668.447-1.362.854-2.079 1.22-.951.439-1.856.972-2.7 1.591-.979.737-2.033 1.368-3.035 2.098-.605.474-1.186.979-1.74 1.512a2.4 2.4 0 0 0-.293.423c-.284.412-.569.827-.86 1.24-.517.729-.995 1.488-1.567 2.169-.827.982-1.066 2.24-1.7 3.314-.72 1.225-1.377 2.487-2.07 3.73-.247.442-.52.873-.786 1.304a.727.727 0 0 1-1.07.325.803.803 0 0 0-.424-.098c-.668.12-1.002-.314-1.317-.756a2.642 2.642 0 0 1-.349-.646 1.944 1.944 0 0 1-.12-.756c.071-.794.189-1.584.291-2.374l-.174-.154c-.031.132-.081.26-.148.377-.311.401-.66.756-.956 1.18-.38.51-.698 1.05-1.05 1.572a5.758 5.758 0 0 1-.452.582c-.38.427-.869.79-1.138 1.277-.335.588-.715 1.15-1.138 1.678a6.689 6.689 0 0 1-1.855 1.935c-.66.4-1.286.854-1.923 1.289a5.753 5.753 0 0 1-2.883.964c-.627.098-1.262.14-1.896.124-1.165-.124-2.379-.276-3.342-.96-.603-.427-1.225-.854-1.787-1.334a2.124 2.124 0 0 1-.455-1.062c-.284-1.039-.52-2.093-.758-3.144a.931.931 0 0 0-.107-.276 3.768 3.768 0 0 1-.485-2.056c0-.688.019-1.372 0-2.06-.02-.687-.114-1.383-.133-2.074-.011-.522.014-1.043.076-1.561a38.24 38.24 0 0 1 .38-2.525c.155-.839.295-1.746.473-2.615.205-1.013.403-2.026.664-3.023.199-.748.445-1.483.736-2.2.433-1.073.873-2.15 1.392-3.186a44.318 44.318 0 0 1 2.223-4.07c1.104-1.723 2.34-3.36 3.52-5.034.223-.343.532-.623.895-.813.278-.167.534-.37.759-.604.315-.272.523-.707 1.001-.722.363-.032.728.004 1.077.106.281.131.607.131.888 0a3.272 3.272 0 0 1 1.642-.378 2.942 2.942 0 0 1 2.132.843c.247.245.533.45.846.604a2.414 2.414 0 0 1 1.225 1.931c.201 1.493.38 2.994.44 4.498a6.78 6.78 0 0 1-.292 1.999c-.227.83-.498 1.648-.812 2.449-.125.267-.299.509-.512.714-.349.378-.728.756-1.092 1.134-.22.238-.529.375-.854.378-1.361.068-1.225-.325-.758-1.338.313-.588.583-1.198.808-1.825.36-1.29.648-2.6.91-3.912.133-.661.148-1.35.216-2.026a4.145 4.145 0 0 0-.626-2.475c-.3-.537-1.05-.53-1.517-.144-.702.571-1.062 1.395-1.657 2.041a25.792 25.792 0 0 0-3.49 5.163 122.241 122.241 0 0 0-2.583 5.003c-.272.632-.502 1.28-.687 1.943-.345 1.04-.717 2.067-1.005 3.122-.228.842-.3 1.723-.52 2.566-.276 1.058-.208 2.139-.276 3.208 0 .272.136.552.132.832 0 .48-.102.956-.117 1.436 0 .404.038.812.053 1.22.013.231.013.462 0 .692-.095 1.266.3 2.442.675 3.617.04.116.105.221.19.31.204.22.443.408.633.639a2.159 2.159 0 0 0 2.181.755 8.987 8.987 0 0 0 2.606-.793 8.637 8.637 0 0 0 2.405-1.996c1.415-1.511 2.864-2.99 4.26-4.535.557-.612.993-1.33 1.517-1.973.433-.576.916-1.115 1.441-1.61.63-.551.869-1.266 1.104-2.006.372-1.172.75-2.342 1.138-3.511.326-1.017.626-2.049.997-3.05.346-.937.759-1.84 1.157-2.763.076-.181.137-.378.228-.54.198-.433.671-.67 1.138-.57a2.561 2.561 0 0 1 2.242 1.968c.216.798 0 1.61-.308 2.389-.307.778-.504 1.466-.758 2.207a1.823 1.823 0 0 0-.03.389zm100.647.937c-.084 0-.11-.03-.13-.022a1.933 1.933 0 0 0-.193.105 3.81 3.81 0 0 0-1.293 1.512 35.157 35.157 0 0 0-2.693 6.916 5.804 5.804 0 0 0 .068 3.401c.16.54.326.567.736.17.963-.933 1.745-1.98 1.972-3.344.034-.208.087-.408.125-.616.036-.382.1-.761.194-1.134.648-1.927 1.19-3.874 1.214-5.93.003-.359 0-.714 0-1.058zm40.965 3.78l.118.045c.083-.117.167-.234.246-.355.326-.5.641-1.01.979-1.512 1.229-1.795 2.496-3.568 3.68-5.39.479-.808.904-1.648 1.274-2.513a1.506 1.506 0 0 0 0-.548c-.41.125-.759.227-1.116.352-.075.026-.136.136-.178.223-.523.986-1.043 1.976-1.566 2.963-.418.79-.846 1.572-1.271 2.354-.224.412-.448.828-.675 1.236-.144.26-.323.503-.452.756-.326.669-.63 1.35-.94 2.026a2.604 2.604 0 0 0-.099.351v.011zm-105.27 31.31v-9.799l-3.387.03v-1.194h8.068v1.194l-3.327-.03v9.8h-1.354zm7.393-8.794c0 .786 0 1.777-.046 2.2h.03a3.109 3.109 0 0 1 2.728-1.569c2.207 0 2.883 1.493 2.883 3.58v4.584h-1.294v-4.082c0-1.742-.254-3.023-1.896-3.023-1.355 0-2.413.956-2.413 3.186v3.911h-1.293V91.05h1.293l.008 3.076zm8.777 5.072c.03 1.757 1.138 2.827 2.868 2.827a4.6 4.6 0 0 0 2.275-.582l.046 1.18c-.75.324-1.56.485-2.378.472-2.633 0-4.112-1.603-4.112-4.226 0-2.498 1.517-4.115 3.736-4.115 2.064 0 3.342 1.273 3.342 3.892 0 .14 0 .378-.03.548l-5.747.004zm4.506-.99c0-1.663-.834-2.464-2.113-2.464-1.278 0-2.237.88-2.363 2.464h4.476zm10.875-6.058a3.456 3.456 0 0 0-.759-.095c-.993 0-1.339.628-1.339 1.89v1.035h2.08v1.013h-2.08v6.924h-1.259v-6.924h-1.843v-1.02h1.843v-1.005c0-1.777.664-2.982 2.443-2.982.345-.005.69.037 1.024.125l-.11 1.039zm6.98 9.387a3.082 3.082 0 0 1-2.728 1.554c-2.223 0-2.902-1.493-2.902-3.58v-4.583h1.294v4.089c0 1.821.3 3.023 1.896 3.023 1.389 0 2.398-.975 2.398-3.186v-3.926h1.32v5.6c0 .847 0 1.712.08 2.389h-1.245a19.6 19.6 0 0 1-.064-1.383l-.05.003zm5.655-6.564h2.143v1.02h-2.143v3.957c0 1.274.284 2.041 1.388 2.041.294 0 .584-.065.85-.189l.045 1.02a3.939 3.939 0 0 1-1.164.19c-1.897 0-2.378-1.134-2.378-2.763v-4.256h-1.783v-1.02h1.783V93.12l1.259-.423v2.275zm9.41 6.564a3.082 3.082 0 0 1-2.727 1.554c-2.222 0-2.901-1.493-2.901-3.58v-4.583h1.293v4.089c0 1.821.3 3.023 1.897 3.023 1.388 0 2.397-.975 2.397-3.186v-3.926h1.293v5.6c0 .847 0 1.712.08 2.389h-1.237c-.03-.378-.064-.956-.064-1.383l-.03.003zm5.121-5.166a2.43 2.43 0 0 1 2.963-1.511v1.179a2.5 2.5 0 0 0-.759-.095c-1.373 0-2.208 1.21-2.208 3.126v3.862h-1.293v-5.616c0-.847 0-1.712-.08-2.388h1.26c.049.423.064 1.035.064 1.443h.053zm4.931 2.827c.03 1.757 1.138 2.827 2.868 2.827a4.603 4.603 0 0 0 2.276-.582l.05 1.18c-.75.324-1.562.485-2.38.472-2.632 0-4.11-1.603-4.11-4.226 0-2.498 1.516-4.115 3.735-4.115 2.064 0 3.342 1.273 3.342 3.892 0 .14 0 .378-.03.548l-5.75.004zm4.507-.99c0-1.663-.835-2.464-2.113-2.464-1.279 0-2.238.88-2.363 2.464h4.476zm8.132-4.913h-1.449v-1.459h1.449v1.459zm-.065 9.626h-1.293v-7.993h1.293v7.993zm1.958-1.384c.607.34 1.291.518 1.987.518.884 0 1.624-.423 1.624-1.24 0-.706-.44-1.02-1.734-1.602-1.293-.582-1.896-1.1-1.896-2.2 0-1.428 1.138-2.267 2.712-2.267a5.08 5.08 0 0 1 1.843.329l-.11 1.085a3.805 3.805 0 0 0-1.718-.378c-.804 0-1.464.378-1.464 1.133 0 .692.504 1.006 1.593 1.444 1.464.582 2.063 1.274 2.063 2.34 0 1.602-1.259 2.388-2.837 2.388a5.708 5.708 0 0 1-2.173-.378l.11-1.172zm11.595-7.41c0 .785 0 1.776-.045 2.199h.03a3.112 3.112 0 0 1 2.727-1.569c2.208 0 2.883 1.493 2.883 3.58v4.584h-1.293v-4.082c0-1.742-.25-3.023-1.897-3.023-1.354 0-2.412.956-2.412 3.186v3.911h-1.294V91.05h1.294l.007 3.076zm8.777 5.071c.03 1.757 1.138 2.827 2.868 2.827a4.603 4.603 0 0 0 2.276-.582l.05 1.18c-.75.324-1.562.485-2.38.472-2.631 0-4.11-1.603-4.11-4.226 0-2.498 1.516-4.115 3.735-4.115 2.064 0 3.342 1.273 3.342 3.892 0 .14 0 .378-.03.548l-5.75.004zm4.507-.99c0-1.663-.835-2.464-2.113-2.464s-2.238.88-2.363 2.464h4.476zm4.51-1.837a2.43 2.43 0 0 1 2.962-1.511v1.179a2.5 2.5 0 0 0-.759-.095c-1.373 0-2.207 1.21-2.207 3.126v3.862h-1.294v-5.616c0-.847 0-1.712-.08-2.388h1.26c.05.423.065 1.035.065 1.443h.053zm4.93 2.827c.031 1.757 1.139 2.827 2.868 2.827a4.603 4.603 0 0 0 2.276-.582l.05 1.18c-.75.324-1.561.485-2.379.472-2.632 0-4.112-1.603-4.112-4.226 0-2.498 1.518-4.115 3.737-4.115 2.063 0 3.341 1.273 3.341 3.892 0 .14 0 .378-.03.548l-5.75.004zm4.507-.99c0-1.663-.835-2.464-2.113-2.464s-2.238.88-2.363 2.464h4.476z" fill="#FFF" fill-rule="nonzero"/></svg>