<svg width="168" height="52" xmlns="http://www.w3.org/2000/svg"><path d="M28.242 20.486l1.725-.11c1.706-.112 3.411-.223 5.12-.318 1.125-.07 2.249-.089 3.373-.206.887-.095 1.76-.317 2.64-.472.322-.06.543.038.598.285.055.247-.096.431-.411.482-2.448.412-4.844 1.1-7.32 1.338-1.983.19-3.965.358-5.95.526a.276.276 0 0 0-.292.222c-1.525 4.824-3.057 9.65-4.597 14.48-.886 2.793-1.782 5.584-2.685 8.372-.084.26-.203.51-.302.764l-.103-.022c.083-.549.141-1.104.25-1.65.662-3.306 1.738-6.5 2.77-9.705l3.854-11.998c.039-.12.07-.244.116-.403-.447.026-.855.054-1.266.073-4.272.194-8.541.425-12.817.562-2.248.073-4.497 0-6.761-.048-1.342 0-2.679-.156-3.984-.463-.202-.054-.401-.127-.607-.18C.761 21.798.43 21.192.321 20.42a1.682 1.682 0 0 1 .964-1.77c.642-.364 1.204-.827 1.847-1.173 2.098-1.129 4.336-1.94 6.575-2.746a14.605 14.605 0 0 0 1.484-.71c.935-.463 1.899-.878 2.792-1.408.735-.437 1.388-1.014 2.081-1.522.87-.634 1.285-1.614 1.886-2.454a23.717 23.717 0 0 1 2.891-3.535c.97-.873 2.09-1.566 3.309-2.045 1.13-.514 2.29-.957 3.475-1.329A29.548 29.548 0 0 1 34.082.602C35.82.505 37.559.41 39.295.317c1.195-.06 2.332.27 3.473.552 1.205.282 2.375.695 3.488 1.233.063.032.123.068.18.108.87.634 1.75 1.233 2.608 1.874.34.257.643.586.948.872a20.143 20.143 0 0 0 1.725 1.484c.491.345 1.099.526 1.625.83.678.348 1.414.57 2.172.657 1.545.257 3.1.463 4.642.726 2.836.485 5.65 1.059 8.351 2.093a5.9 5.9 0 0 1 1.886 1.043c.416.323.658.816.658 1.338 0 .522-.242 1.015-.658 1.338a6.777 6.777 0 0 1-2.971 1.515c-.916.229-1.85.365-2.779.546l-1.39.273c-.165.031-.341.06-.393-.156-.051-.215.11-.279.283-.301 2.184-.273 4.018-1.335 5.808-2.499.184-.12.357-.257.517-.409.25-.234.266-.43 0-.656a5.031 5.031 0 0 0-.916-.634 21.62 21.62 0 0 0-4.12-1.51 55.78 55.78 0 0 0-8.674-1.63c-3.328-.386-6.669-.376-10.01-.37a72.613 72.613 0 0 0-7.233.317 81.151 81.151 0 0 0-6 .818c-2.892.517-5.783 1.132-8.674 1.725-.642.133-1.285.355-1.927.514-1.831.45-3.675.85-5.493 1.344a88.57 88.57 0 0 0-9.055 2.914c-1.356.539-2.676 1.144-3.98 1.76-.521.26-1.004.587-1.436.973a2.912 2.912 0 0 0-.643.951.575.575 0 0 0 .158.73c.035.028 0 .139 0 .288.379.07.796.162 1.217.216a36.53 36.53 0 0 0 5.426.18c3.591-.082 7.185-.168 10.774-.317 2.762-.11 5.525-.317 8.287-.469a.461.461 0 0 0 .492-.393c.285-.983.597-1.956.899-2.936.02-.067.032-.133.032-.124-.138-.162-.321-.288-.321-.396a.565.565 0 0 1 .292-.4.764.764 0 0 0 .463-.532c.068-.188.152-.369.25-.543.056-.082.121-.159.193-.228l.112.041-.115.898a.726.726 0 0 0 .16 0c2.91-.676 5.863-1.126 8.824-1.52 1.244-.164 2.5-.262 3.752-.354.588-.045.643.114.749.672.15.51.346 1.004.588 1.477.074.178.154.35.221.53.068.18.077.317.129.457.803 2.244 1.696 4.46 2.4 6.737 1.307 4.233 2.498 8.501 3.758 12.747a41.594 41.594 0 0 0 2.161 6.024c.17.358.367.707.556 1.056.238.44.151.856-.231 1.059a.718.718 0 0 1-.59.036.705.705 0 0 1-.412-.416c-.46-.97-.884-1.957-1.32-2.937 0-.028-.02-.057-.033-.082-.41-.97-.674-1.985-.986-2.987a109.857 109.857 0 0 1-.89-3.063c-.86-3.1-1.69-6.208-2.57-9.3-.706-2.441-1.483-4.863-2.248-7.292-.34-1.078-.732-2.144-1.105-3.212a2.163 2.163 0 0 0-.196-.457.392.392 0 0 0-.263-.165 8.373 8.373 0 0 0-1.494-.025c-3.068.409-6.135.843-9.2 1.268-.575.083-1.147.22-1.712.35a.371.371 0 0 0-.24.205c-.364 1.22-.685 2.438-1.032 3.713zm131.39 5.945c.321-.035.623-.073.935-.101.311-.029.694-.035 1.034-.092a1.664 1.664 0 0 1 1.076.136l-.096.143c.54.28.959.746 1.176 1.31.526-.337 1.03-.66 1.538-.977.508-.317 1.038-.666 1.574-.967.27-.131.55-.237.839-.317.038 0 .09 0 .183.028-.063.1-.135.193-.215.28-.621.528-1.247 1.056-1.876 1.585-.212.174-.447.317-.662.497-.264.26-.554.494-.864.698-.72.368-.964 1.02-1.192 1.7a8.018 8.018 0 0 1-.353.783c-.276.475-.516.97-.72 1.48-.082.186-.2.353-.347.495-.356.425-.739.834-1.085 1.268-.428.536-.858 1.075-1.607 1.177-.562.076-1.14.107-1.635-.248a1.908 1.908 0 0 1-.356-.431 1.582 1.582 0 0 1-.2-.317.41.41 0 0 1-.022-.317c.24-.49.505-.969.794-1.433a6.65 6.65 0 0 1 .85-1.06 53.422 53.422 0 0 1 1.957-1.848c.321-.292.713-.51 1.06-.783a.84.84 0 0 0 .264-.358c.096-.27.154-.552.23-.853a1.452 1.452 0 0 0-.944.276 3.858 3.858 0 0 1-1.371.428c-.35.06-.684.215-1.035.285a3.999 3.999 0 0 1-.809.041.951.951 0 0 1-.353-.085c-.142-.064-.212 0-.27.107-.257.467-.527.923-.755 1.402a7.132 7.132 0 0 1-1.606 2.254c-.213.23-.404.478-.572.742-.119.159-.321.28-.25.523 0 .02-.023.054-.04.073-.192.232-.375.466-.58.685a1.213 1.213 0 0 1-.527.441c-.235.076-.392.377-.588.57-.09.104-.2.19-.321.254-.391.178-.794.33-1.205.457-.376.086-.772.02-1.099-.184a5.765 5.765 0 0 1-1.75-1.449 2.96 2.96 0 0 1-.578-1.506c-.026-.184-.045-.368-.071-.577a.43.43 0 0 0-.09.06c-.594.71-1.195 1.411-1.77 2.13-.254.318-.424.698-.678 1.012-.177.218-.395.4-.642.536-.376.206-.784.355-1.18.526a.225.225 0 0 1-.063 0 .642.642 0 0 1-.643-.424c-.048-.168-.119-.235-.286-.172-.183-.342-.356-.675-.543-.998a.568.568 0 0 1-.083-.447 3.697 3.697 0 0 0 0-.438 1.42 1.42 0 0 1 .09-.27c0-.047.051-.107.035-.142-.212-.431 0-.837.113-1.224.424-1.325.886-2.635 1.336-3.95.212-.616.427-1.231.642-1.843.097-.266.232-.517.34-.78a.627.627 0 0 0 .055-.273c0-.171-.144-.231-.276-.123-.19.151-.369.315-.536.491a22.345 22.345 0 0 0-2.483 3.488c-.424.678-.877 1.341-1.317 2.01-.267.41-.524.828-.807 1.224-.173.238-.199.21-.44.05-.074-.047-.228.023-.347.039v.06c-.041-.057-.067-.143-.122-.165-.23-.098-.183-.26-.131-.437.196-.666.392-1.332.578-2.001.16-.587.321-1.173.456-1.763.135-.59.254-1.097.395-1.642.11-.429.257-.844.366-1.269.077-.298.126-.602.187-.903l-.08-.042-.264.371c-.838 1.154-1.638 2.34-2.528 3.453-.512.697-.955 1.44-1.324 2.22a9.864 9.864 0 0 0-.912 2.162c-.029.169-.04.34-.035.51-.129.197-.248.372-.36.556-.112.183-.286.104-.42.047a1.1 1.1 0 0 1-.322-.244.26.26 0 0 0-.35-.073c-.132.073-.206.029-.27-.108a1.61 1.61 0 0 1-.138-1.05c.09-.437.116-.89.183-1.334.068-.444.151-.885.235-1.326.083-.44.195-.95.298-1.42.154-.707.322-1.411.463-2.115.02-.144.033-.289.038-.434-.295.155-.559.263-.79.418-.81.533-1.606 1.085-2.412 1.624-.225.149-.472.27-.697.418a.412.412 0 0 0-.164.229 23.368 23.368 0 0 1-1.006 3.399c-.154.405-.285.818-.424 1.23-.057.168-.096.336-.32.39a.232.232 0 0 0-.123.146c-.194.517-.6.93-1.118 1.138a2.132 2.132 0 0 1-1.966-.048c-.404-.187-.812-.37-1.198-.586a1.686 1.686 0 0 1-.742-.787c-.199-.443-.433-.872-.604-1.325a7.212 7.212 0 0 1-.225-1.008.94.94 0 0 0-.167.158c-.205.317-.401.634-.607.952a1.594 1.594 0 0 1-.183.19 4.549 4.549 0 0 0-.72.818 9.65 9.65 0 0 1-.62.91 3.978 3.978 0 0 1-1.342 1.313 9.154 9.154 0 0 0-.88.583 3.495 3.495 0 0 1-1.654.583c-.2.04-.404.067-.608.08-.346 0-.693-.051-1.04-.08a4.024 4.024 0 0 1-1.52-.463 1.232 1.232 0 0 1-.32-.317.675.675 0 0 0-.364-.244.78.78 0 0 1-.55-.498c-.073-.218-.121-.447-.186-.669-.09-.317-.199-.634-.273-.95a10.3 10.3 0 0 0-.36-1.104 4.925 4.925 0 0 1-.105-1.338 48.767 48.767 0 0 1-.049-1.37c-.01-.457 0-.98 0-1.468.023-.281.061-.56.116-.837.068-.422.138-.84.203-1.268a1.53 1.53 0 0 0 0-.188c-.373.213-.73.387-1.057.606-.678.453-1.337.932-2.011 1.395-.215.15-.46.26-.678.403a.393.393 0 0 0-.154.21c-.19.728-.344 1.464-.556 2.187-.18.615-.427 1.214-.642 1.82-.09.254-.167.51-.273.758a1.2 1.2 0 0 1-.238.279c-.048.054-.132.095-.148.155a1.67 1.67 0 0 1-.813.951 1.82 1.82 0 0 1-1.49.359 5.77 5.77 0 0 1-.964-.317 14.234 14.234 0 0 1-1.304-.717.92.92 0 0 1-.321-.352 15.76 15.76 0 0 1-.726-1.531 3.301 3.301 0 0 1-.032-2.096c.35-1.279.767-2.538 1.25-3.773a9.725 9.725 0 0 1 1.606-2.769c.417-.524.957-.94 1.574-1.214.371-.202.825-.19 1.185.032a4 4 0 0 0 .53.27c.349.179.622.474.77.833.274.552.643 1.06.765 1.68.045.309.073.619.084.93v.618c.19-.098.356-.174.51-.27a28.97 28.97 0 0 1 3.28-1.686.258.258 0 0 0 .129-.146c.093-.343.192-.682.254-1.03a7.962 7.962 0 0 1 .642-1.837c.405-.906.829-1.81 1.307-2.685.447-.818.964-1.605 1.475-2.385.382-.577.806-1.131 1.24-1.674.173-.183.366-.348.575-.491.167-.136.32-.273.507-.403.17-.152.358-.281.562-.383a.735.735 0 0 1 .53.022.933.933 0 0 0 .813-.038 1.833 1.833 0 0 1 2.024.333c.157.143.332.266.52.367.322.17.556.468.643.818.162.594.251 1.205.266 1.82 0 .333.061.666.084 1.002a5.168 5.168 0 0 1-.321 1.833c-.078.263-.177.52-.257.783-.11.352-.408.565-.643.834-.07.086-.17.146-.231.235-.273.383-.675.37-1.076.342-.2 0-.28-.13-.212-.317.11-.307.238-.607.382-.9a6.91 6.91 0 0 0 .569-1.776c.083-.418.18-.834.23-1.268.077-.518.112-1.04.104-1.563a2.323 2.323 0 0 0-.322-.917c-.205-.396-.642-.39-.986-.11-.398.316-.6.786-.931 1.153-1.285 1.408-2.136 3.07-2.978 4.757-.17.336-.373.659-.527 1.001-.154.343-.257.742-.382 1.113-.2.565-.42 1.126-.572 1.703-.186.714-.321 1.436-.462 2.163-.074.443-.118.891-.132 1.34.008.23.036.46.083.686a.814.814 0 0 1 0 .161 5.059 5.059 0 0 0-.019 1.586c.012.159.001.319-.032.475-.035.565.2 1.078.302 1.614.116.593.623.866 1.018 1.215a.922.922 0 0 0 .643.11 9.198 9.198 0 0 0 1.23-.278c.874-.245 1.5-.838 2.088-1.481.437-.479.883-.951 1.33-1.414.395-.416.822-.806 1.195-1.24.39-.456.753-.935 1.085-1.433.116-.241.204-.495.264-.755.202-.548.408-1.097.623-1.642a8.568 8.568 0 0 1 1.584-2.6 3.78 3.78 0 0 1 1.754-1.218.975.975 0 0 1 .873.086c.165.098.337.184.514.257.353.155.637.43.8.776.28.574.681 1.094.806 1.732.051.328.08.66.087.992v.612c.353-.203.662-.396.986-.561.794-.41 1.606-.806 2.397-1.202.208-.105.427-.187.642-.292a.286.286 0 0 0 .125-.158c.302-.979.602-1.96.9-2.943.192-.634.742-.726 1.269-.596a1.476 1.476 0 0 1 1.14 1.227c.05.33.027.666-.068.986-.228.876-.494 1.738-.751 2.604-.039.133-.093.26-.138.39l.064.038a2.99 2.99 0 0 0 .228-.244c.607-.809 1.205-1.624 1.821-2.426a4.808 4.808 0 0 1 1.606-1.268c.148-.08.264-.02.405.057.877.463.733 1.268.675 2.01a21.406 21.406 0 0 1-.228 1.744c-.049.292-.148.574-.219.86-.02.078-.032.16-.045.243l.12.092c.01-.066.03-.13.06-.19.6-.79 1.176-1.585 1.815-2.35.416-.445.856-.868 1.317-1.268.27-.26.546-.513.797-.793a.804.804 0 0 1 .594-.279 4.85 4.85 0 0 0 .642-.076c.4-.075.81.081 1.054.403.273.466.52.951.758 1.427.155.368.117.788-.103 1.122-.32.634-.69 1.218-.963 1.852-.245.539-.405 1.113-.604 1.671-.357 1.011-.707 2.02-1.067 3.031a12.67 12.67 0 0 1-1.102 2.245.602.602 0 0 0-.054.117.473.473 0 0 0 0 .124c.218-.18.424-.317.6-.498.495-.482 1-.951 1.465-1.468.466-.517.771-1.002 1.215-1.446.375-.377.42-.843.523-1.3.165-.8.414-1.58.742-2.33.28-.615.53-1.243.806-1.855.387-.825.863-1.606 1.42-2.33.546-.727 1.067-1.472 1.626-2.185a3.284 3.284 0 0 1 1.028-.92 3.42 3.42 0 0 0 .52-.367.597.597 0 0 1 .572-.124c.144.047.299.047.443 0a1.398 1.398 0 0 1 1.513.263c.426.294.64.805.55 1.31-.161.735-.04 1.531-.467 2.22-.214.35-.428.705-.642 1.064-.141.245-.257.498-.398.742-.219.378-.453.749-.668 1.126-.45.753-.968 1.464-1.549 2.124a106.77 106.77 0 0 1-2.088 2.42c-.183.203-.437.342-.642.53a.515.515 0 0 0-.16.294c-.06.454-.092.912-.097 1.37.033.32.084.637.154.951.035.27.238.289.427.292a.707.707 0 0 0 .389-.118c.35-.23.685-.481 1.002-.754.321-.295.594-.65.912-.951a31.424 31.424 0 0 0 2.965-3.514c.14-.204.27-.416.386-.634l-.215-.098a1.878 1.878 0 0 1-.887-.843.504.504 0 0 1-.026-.318 3.944 3.944 0 0 1 1.285-2.041 41.569 41.569 0 0 1 2.249-1.868c.597-.46 1.24-.862 1.85-1.303a12.23 12.23 0 0 1 2.123-1.19.536.536 0 0 1 .498 0c.104.04.212.07.321.086.129.013.255.045.373.096.43.272.9.52 1.07 1.049.02.066.02.137 0 .203-.045.13-.116.25-.154.38a.404.404 0 0 1-.38.302c-.188.018-.369.079-.53.177a256.613 256.613 0 0 0-3.035 2.239c-.418.317-.829.634-1.243.951a.522.522 0 0 0-.077.092l.051.098zm-32.389-.97c-.048 0-.067-.016-.077 0-.04.019-.078.04-.116.063a2.243 2.243 0 0 0-.767.891 20.54 20.54 0 0 0-1.606 4.05 3.379 3.379 0 0 0 .041 2c.097.317.193.333.437.102a3.539 3.539 0 0 0 1.17-1.966c.019-.12.05-.241.073-.362.02-.224.058-.447.113-.666.425-1.117.668-2.295.72-3.487.015-.213.012-.422.012-.622v-.003zm24.291 2.22l.07.025c.049-.07.1-.136.145-.21.193-.294.38-.592.578-.88.73-1.057 1.478-2.097 2.182-3.172.284-.475.536-.969.754-1.477a.88.88 0 0 0 0-.317c-.24.073-.452.133-.661.206-.045.016-.08.082-.106.13-.321.58-.617 1.16-.929 1.74-.247.464-.5.923-.754 1.383-.132.241-.264.485-.402.726-.087.152-.193.295-.27.45-.193.394-.376.793-.559 1.193-.02.065-.036.132-.048.2v.002zm-72.295.767a.712.712 0 0 0-.401.513 3.428 3.428 0 0 1-.643 1.228c-.398.586-.803 1.17-1.233 1.737a7.343 7.343 0 0 1-1.028 1.199 9.23 9.23 0 0 1-1.667 1.135 1.234 1.234 0 0 1-1.153-.14 3.426 3.426 0 0 1-1.4-1.417c-.134-.334-.16-.7-.078-1.05.074-.507.174-1.011.296-1.509a17.23 17.23 0 0 1 .546-1.985c.32-.888.739-1.75 1.127-2.616.347-.764.694-1.531 1.083-2.273.25-.539.575-1.041.963-1.493.331-.422.917-.555 1.4-.317.157.116.27.28.322.466.094.233.152.479.17.729a1.443 1.443 0 0 1-.128.564c-.2.52-.405 1.04-.643 1.55-.43.977-.893 1.938-1.31 2.918-.395.92-.752 1.852-1.118 2.784-.093.24-.154.498-.234.745-.085.283-.046.588.109.84.109.203.196.213.372.057a10.693 10.693 0 0 0 1.78-2.143c.919-1.392 1.731-2.854 2.505-4.316.2-.38.428-.745.598-1.138a4.04 4.04 0 0 0 .202-.815c.058-.285.103-.57.145-.856.032-.238.054-.475.07-.713a1.15 1.15 0 0 1 .392-.736.555.555 0 0 1 .736 0 2.668 2.668 0 0 1 1.182 1.903c.046.633.046 1.269 0 1.902 0 .549 0 1.1-.016 1.649-.042.805-.093 1.61-.177 2.413-.054.53-.173 1.05-.273 1.639.187-.098.322-.178.47-.25.35-.178.703-.352 1.056-.524.372-.193.635-.543.713-.95.241-.841.492-1.678.762-2.506.224-.691.488-1.373.72-2.064.176-.533.32-1.075.484-1.617.03-.143.04-.289.032-.434a.651.651 0 0 1 .189-.536.67.67 0 0 1 .54-.19c.7 0 1.173.383 1.587.865.415.482.399 1.046.238 1.627-.077.276-.138.558-.206.837l.061.038c.063-.049.122-.102.177-.159.35-.466.754-.892 1.202-1.268a4.017 4.017 0 0 1 1.583-.672 1.75 1.75 0 0 1 1.317.393c.11.073.212.162.321.231.505.345.809.91.816 1.516.055.337.081.677.08 1.018-.035.526-.128 1.05-.205 1.585-.064.435-.125.869-.228 1.297a9.218 9.218 0 0 1-.434 1.382c-.282.67-.6 1.326-.944 1.963-.255.51-.565.99-.925 1.433-.318.32-.683.591-1.083.803a3.544 3.544 0 0 1-.726.256 3.934 3.934 0 0 0-.642-.27 2.523 2.523 0 0 1-1.227-.817 1.255 1.255 0 0 1-.08-1.446.512.512 0 0 1 .385-.228c.16.033.293.144.353.295.077.532.534.669.925.95.225-.453.453-.874.643-1.312.263-.602.523-1.208.735-1.83.127-.421.227-.85.3-1.284.086-.424.18-.85.237-1.268.112-.812.321-1.614.254-2.445a.767.767 0 0 0-.02-.174c-.15-.485-.42-.561-.732-.165a25.819 25.819 0 0 0-1.927 2.62c-.46.76-.964 1.493-1.446 2.244a3.936 3.936 0 0 0-.295.634c-.106.267-.21.536-.296.812-.132.418-.25.843-.372 1.268a24.23 24.23 0 0 1-1.041 3.123c-.151.343-.26.707-.405 1.053-.24.584-.51 1.154-.742 1.74-.366.917-.707 1.843-1.066 2.76-.084.215-.213.412-.296.634-.122.317-.212.634-.321.967a2.914 2.914 0 0 1-.203.38c-.045.083-.128.162-.135.247a.95.95 0 0 1-.391.603.201.201 0 0 1-.196 0 2.892 2.892 0 0 1-.277-.416c-.096-.168-.215-.187-.35-.031a1.794 1.794 0 0 1-.125-.555c.039-.387-.228-.634-.321-.977a2.17 2.17 0 0 1-.122-.545c.01-.14.046-.276.106-.403.164-.431.141-.897.32-1.325.251-.615.46-1.246.672-1.874.293-.872.575-1.747.855-2.622.144-.454.286-.91.424-1.364.231-.76.46-1.523.687-2.286a.72.72 0 0 0 0-.152l-.433.263c-.672.373-1.21.94-1.546 1.624a4.39 4.39 0 0 0-.196.884c-.122.58-.237 1.16-.375 1.738-.11.447-.302.881-.367 1.335a7.043 7.043 0 0 1-.507 1.674c-.116.285-.321.539-.437.824-.321.745-.642 1.49-.909 2.258-.488 1.474-1.39 2.714-2.249 3.992-.273.412-.623.773-.934 1.16a2.038 2.038 0 0 0-.219.349 6.02 6.02 0 0 1-1.256 1.541c-.266.26-.498.552-.774.802a7.724 7.724 0 0 1-1.044.831 5.568 5.568 0 0 1-1.587.84c-.51.124-1.03.206-1.551.28-.275.05-.556.054-.832.015a1.974 1.974 0 0 1-1.186-.786c-.24-.317-.43-.66-.642-.99-.212-.33-.093-.65-.02-.97.07-.316.166-.626.29-.926.168-.409.362-.807.581-1.192a77.31 77.31 0 0 1 1.629-2.698 17.817 17.817 0 0 1 2.57-3.17 20.573 20.573 0 0 0 1.455-1.678 53.63 53.63 0 0 1 4.632-4.89 4.35 4.35 0 0 1 .758-.599.794.794 0 0 0 .37-.634c.073-.463.163-.926.243-1.389.08-.463.164-.998.245-1.5.08-.5.16-1.014.24-1.525l.09-.532zm-1.545 8.015a1.031 1.031 0 0 0-.125.105c-.305.358-.597.73-.909 1.078-.71.793-1.426 1.585-2.152 2.365-.321.35-.69.66-1.018 1.006-.129.136-.193.317-.322.475-.745.951-1.522 1.903-2.232 2.873-.443.612-1.002 1.145-1.285 1.877-.253.56-.535 1.105-.845 1.636-.086.166-.157.34-.215.517-.129.393-.247.79-.366 1.186a.22.22 0 0 0 0 .152c.077.14.17.273.257.409a.416.416 0 0 0 .588.184 8.517 8.517 0 0 0 1.076-.634 11.994 11.994 0 0 0 2.19-2.324 17.439 17.439 0 0 0 2.037-3.13c.292-.59.642-1.141.964-1.725.25-.479.462-.98.69-1.468.7-1.465 1.369-2.933 1.667-4.582zM67.563 24.906c.071-.028.14-.062.206-.101.642-.466 1.243-.952 1.888-1.399a28.908 28.908 0 0 1 1.928-1.217c.45-.291.97-.46 1.506-.492.162-.024.32-.07.47-.136.253-.073.5-.155.757-.212a.374.374 0 0 1 .44.215.543.543 0 0 1-.1.679 12.16 12.16 0 0 1-1.23.716 9.292 9.292 0 0 0-1.606.936c-.581.43-1.207.805-1.789 1.233-.36.28-.705.58-1.034.894a1.407 1.407 0 0 0-.174.25c-.17.245-.337.489-.51.73-.322.428-.588.875-.929 1.268-.491.577-.642 1.316-1.008 1.947-.428.72-.816 1.462-1.227 2.191-.148.26-.322.514-.466.767a.435.435 0 0 1-.642.19.48.48 0 0 0-.251-.056c-.395.07-.594-.184-.78-.45a1.547 1.547 0 0 1-.21-.381 1.131 1.131 0 0 1-.07-.45c.045-.467.112-.93.173-1.396l-.103-.092a.824.824 0 0 1-.086.22c-.183.234-.392.453-.569.69-.218.299-.414.619-.623.923-.081.12-.17.234-.267.343a4.206 4.206 0 0 0-.665.748c-.196.345-.42.675-.668.986a3.945 3.945 0 0 1-1.098 1.135c-.392.235-.762.501-1.14.758a3.432 3.432 0 0 1-1.71.567 6.38 6.38 0 0 1-1.12.073c-.691-.073-1.41-.161-1.983-.564-.356-.25-.726-.501-1.06-.783a1.262 1.262 0 0 1-.298-.609 41.832 41.832 0 0 1-.46-1.845.544.544 0 0 0-.064-.162 2.196 2.196 0 0 1-.286-1.208v-1.208c0-.403-.067-.812-.08-1.218a6.46 6.46 0 0 1 .045-.916c.058-.495.132-.99.215-1.48.084-.492.177-1.028.28-1.539.122-.592.24-1.189.395-1.775.118-.439.263-.87.436-1.29.257-.635.518-1.269.826-1.871.397-.82.836-1.617 1.317-2.391.642-1.012 1.388-1.975 2.088-2.958.141-.205.335-.37.562-.476a2.2 2.2 0 0 0 .46-.355c.186-.159.32-.415.594-.425.216-.019.434.003.642.063.167.078.36.078.527 0 .296-.156.628-.234.964-.225.47-.008.922.172 1.256.498.146.144.316.264.5.355.42.234.692.659.727 1.132.119.875.215 1.76.26 2.641.002.398-.057.793-.174 1.174-.134.488-.295.968-.481 1.44a1.427 1.427 0 0 1-.302.418c-.21.228-.434.44-.643.662a.698.698 0 0 1-.507.213c-.807.041-.726-.19-.46-.787.186-.345.346-.703.479-1.071.212-.758.385-1.529.54-2.3.08-.39.086-.792.128-1.188a2.414 2.414 0 0 0-.372-1.455.602.602 0 0 0-.906-.086c-.418.336-.643.818-.983 1.198a15.143 15.143 0 0 0-2.069 3.032 63.74 63.74 0 0 0-1.532 2.939 8.93 8.93 0 0 0-.408 1.141c-.206.61-.427 1.215-.594 1.836-.135.495-.177 1.012-.322 1.51a9.706 9.706 0 0 0-.163 1.886c0 .159.08.317.077.488 0 .283-.061.562-.071.844-.01.282.022.479.032.716.008.136.008.271 0 .406a5.548 5.548 0 0 0 .398 2.125c.024.067.063.129.113.18.122.13.263.238.376.375.308.377.806.548 1.285.44a5.367 5.367 0 0 0 1.545-.466 5.128 5.128 0 0 0 1.452-1.157c.841-.888 1.699-1.757 2.524-2.654.322-.358.591-.78.9-1.16.257-.341.543-.66.854-.952.324-.325.547-.734.643-1.18.214-.688.435-1.376.665-2.063.192-.6.372-1.202.59-1.792.22-.59.457-1.081.688-1.623.045-.105.08-.216.135-.317a.603.603 0 0 1 .668-.333c.65.064 1.184.53 1.33 1.157.092.476.027.967-.183 1.405-.164.425-.299.862-.44 1.296.002.08.013.158.032.235zm29.768-3.028c-.47.057-.88.086-1.285.159a6.611 6.611 0 0 1-2.168.101 5.473 5.473 0 0 1-.643-.206c-.321-.095-.668-.165-.996-.266a2.164 2.164 0 0 1-1.448-1.548.578.578 0 0 1 .15-.494.448.448 0 0 1 .499-.032 4.01 4.01 0 0 0 2.142.495c.366-.023.739.05 1.105.028.562-.035 1.124-.114 1.687-.171.562-.057 1.198-.127 1.798-.168a.428.428 0 0 0 .373-.21c.597-.868 1.214-1.724 1.808-2.593.29-.486.701-.889 1.195-1.17.1-.051.215-.061.322-.029.3.143.558.362.745.635.122.177.02.361-.035.542-.055.18-.084.377-.132.564a1.766 1.766 0 0 1-.125.387c-.216.406-.444.802-.662 1.208-.033.08-.058.163-.074.247h3.916c0 .14.096.156.237.159.264 0 .524.054.787.085l1.928.222a20.87 20.87 0 0 0-4.414.352l.222.073v.038c-.219.023-.44.035-.643.073-.086 0-.16.089-.247.108-.183.044-.37.076-.556.105-.584.092-1.172.177-1.754.279a.32.32 0 0 0-.199.184c-.343.83-.68 1.664-1.015 2.498-.282.704-.578 1.405-.835 2.118a88.557 88.557 0 0 0-.915 2.692c-.13.405-.237.817-.322 1.234a7.93 7.93 0 0 0-.147 1.119c-.058.916-.103 1.836-.142 2.752a2.51 2.51 0 0 0 .347 1.541.386.386 0 0 0 .572.14 3.45 3.45 0 0 1 .726-.346c.106-.017.215-.017.321 0 .014.119.007.239-.02.355-.141.28-.365.514-.642.67-.444.289-.964.446-1.497.452a1.918 1.918 0 0 1-1.24-.497 4.233 4.233 0 0 1-1.284-1.992 7.907 7.907 0 0 1-.26-3.028c.063-.99.258-1.967.58-2.907.345-1.037.685-2.074 1.045-3.104.202-.58.427-1.151.668-1.719.116-.273.29-.523.43-.786.04-.114.072-.23.097-.349zm7.012 3.554c-.365.177-.66.47-.838.831-.29.525-.552 1.065-.784 1.617-.321.888-.591 1.801-.91 2.695a2.979 2.979 0 0 0 .081 1.931c.077.254.19.283.373.083.289-.317.559-.634.822-.977.114-.126.195-.277.238-.44.067-.422.292-.815.244-1.269a.813.813 0 0 1 .08-.317c.364-.934.599-1.912.697-2.907.016-.4-.003-.806-.003-1.247zM88.24 46.137V40.43l-1.988.019v-.688h4.738v.694l-1.953-.019v5.708l-.797-.007zm4.34-5.114c0 .457 0 1.034-.029 1.268h.02a1.83 1.83 0 0 1 1.605-.913c1.285 0 1.693.869 1.693 2.083v2.667h-.758v-2.372c0-1.015-.148-1.753-1.111-1.753-.797 0-1.417.558-1.417 1.855v2.273h-.758v-6.9h.758l-.003 1.792zm5.152 2.949c-.028.447.141.884.464 1.2.322.315.767.477 1.22.445a2.72 2.72 0 0 0 1.333-.339l.029.685c-.441.188-.918.281-1.398.273-1.545 0-2.415-.933-2.415-2.458 0-1.452.89-2.394 2.194-2.394 1.21 0 1.962.74 1.962 2.264 0 .083 0 .22-.019.317l-3.37.007zm2.647-.574c0-.967-.491-1.433-1.24-1.433-.748 0-1.314.51-1.387 1.433h2.627zm6.383-3.526a2.049 2.049 0 0 0-.453-.054c-.581 0-.787.365-.787 1.097v.603h1.22v.592h-1.22v4.027h-.739V42.11h-1.082v-.592h1.082v-.584c0-1.034.389-1.734 1.433-1.734.202-.003.405.021.6.073l-.054.599zm4.099 5.47a1.813 1.813 0 0 1-1.606.903c-1.305 0-1.703-.869-1.703-2.083v-2.667h.758v2.375c0 1.06.177 1.754 1.121 1.754.813 0 1.407-.568 1.407-1.855v-2.274h.758v3.26c0 .495 0 .995.045 1.389h-.732c-.02-.22-.039-.558-.039-.803h-.01zm3.321-3.824h1.26v.592h-1.26v2.302c0 .74.167 1.186.813 1.186.173 0 .344-.038.501-.11l.029.592c-.221.071-.452.108-.684.111-1.112 0-1.398-.634-1.398-1.607v-2.477h-1.047v-.593h1.047v-1.078l.74-.247v1.329zm5.522 3.823a1.813 1.813 0 0 1-1.606.904c-1.304 0-1.703-.869-1.703-2.083v-2.667h.758v2.375c0 1.06.177 1.754 1.122 1.754.812 0 1.407-.568 1.407-1.855v-2.274h.777v3.26c0 .495 0 .995.045 1.389h-.733c-.019-.22-.038-.558-.038-.803h-.029zm3.003-3.012a1.43 1.43 0 0 1 1.741-.884v.685a1.48 1.48 0 0 0-.433-.054c-.806 0-1.285.704-1.285 1.816v2.248h-.758v-3.262c0-.495 0-.996-.045-1.389h.739c.029.247.038.602.038.84h.003zm2.891 1.643c-.028.447.141.884.464 1.2.322.315.767.477 1.22.445.466.003.926-.114 1.333-.339l.029.685c-.441.188-.917.281-1.398.273-1.545 0-2.415-.933-2.415-2.458 0-1.452.89-2.394 2.194-2.394 1.21 0 1.962.74 1.962 2.264 0 .083 0 .22-.019.317l-3.37.007zm2.647-.574c0-.967-.491-1.433-1.24-1.433-.748 0-1.313.51-1.387 1.433h2.627zm4.783-2.86h-.85v-.86h.85v.86zm-.041 5.6h-.758v-4.649h.758v4.648zm1.15-.797a2.41 2.41 0 0 0 1.166.318c.517 0 .963-.248.963-.723 0-.413-.26-.593-1.018-.933-.758-.339-1.111-.634-1.111-1.268 0-.83.674-1.316 1.606-1.316a3.01 3.01 0 0 1 1.082.19l-.064.635a2.25 2.25 0 0 0-1.009-.229c-.472 0-.86.229-.86.666 0 .438.295.584.934.84.861.34 1.211.74 1.211 1.36 0 .933-.739 1.39-1.667 1.39-.44.008-.876-.07-1.285-.229l.052-.7zm6.81-4.318c0 .457 0 1.034-.03 1.268h.02a1.83 1.83 0 0 1 1.606-.913c1.285 0 1.693.869 1.693 2.083v2.667h-.758v-2.372c0-1.015-.148-1.753-1.112-1.753-.796 0-1.416.558-1.416 1.855v2.273h-.758v-6.9h.758l-.003 1.792zm5.152 2.949c-.028.447.14.884.463 1.2.323.315.767.477 1.22.445.467.003.926-.114 1.333-.339l.03.685c-.442.188-.918.281-1.398.273-1.545 0-2.416-.933-2.416-2.458 0-1.452.89-2.394 2.194-2.394 1.211 0 1.963.74 1.963 2.264 0 .083 0 .22-.02.317l-3.369.007zm2.647-.574c0-.967-.492-1.433-1.24-1.433-.749 0-1.314.51-1.388 1.433h2.628zm2.647-1.069a1.43 1.43 0 0 1 1.74-.884v.685a1.48 1.48 0 0 0-.433-.054c-.806 0-1.285.704-1.285 1.816v2.248h-.761v-3.262c0-.495 0-.996-.045-1.389h.739c.029.247.038.602.038.84h.007zm2.894 1.643c-.028.447.14.884.463 1.2.323.315.767.477 1.22.445.467.003.926-.114 1.333-.339l.03.685c-.442.188-.918.281-1.398.273-1.545 0-2.416-.933-2.416-2.458 0-1.452.89-2.394 2.194-2.394 1.211 0 1.963.74 1.963 2.264 0 .083 0 .22-.02.317l-3.369.007zm2.647-.574c0-.967-.492-1.433-1.24-1.433-.749 0-1.314.51-1.388 1.433h2.628z" fill="#FFF" fill-rule="nonzero"/></svg>