<svg width="134" height="23" viewBox="0 0 134 23" fill="none" xmlns="http://www.w3.org/2000/svg">
<path fill-rule="evenodd" clip-rule="evenodd" d="M44.981 5.58179C43.9712 3.83325 42.4897 2.48828 40.6714 1.47949C38.8535 0.470703 36.7661 0 34.4766 0C32.187 0 30.0996 0.470703 28.2817 1.47949C26.4634 2.48828 25.0493 3.83325 23.9722 5.58179C22.9619 7.33032 22.4233 9.28076 22.4233 11.4329C22.4233 13.5847 22.8945 15.6023 23.9722 17.3508C24.9819 19.1667 26.4634 20.5117 28.2817 21.5205C30.0996 22.5293 32.187 23 34.4766 23C36.7661 23 38.8535 22.5293 40.6714 21.5205C42.4897 20.5117 43.9038 19.0994 44.981 17.3508C45.9912 15.6023 46.5298 13.6521 46.5298 11.4329C46.5298 9.28076 46.0586 7.33032 44.981 5.58179ZM29.8979 8.40649C30.4365 7.53223 31.1099 6.79248 31.918 6.25439C32.2734 6.01782 32.6416 5.83325 33.0288 5.7063C33.2412 5.63672 33.459 5.58447 33.6836 5.55054C33.9805 5.50586 34.2891 5.49316 34.6113 5.51465C35.5542 5.51465 36.4292 5.78369 37.2373 6.32153C38.0454 6.85962 38.6514 7.53223 39.123 8.47363C39.5942 9.3479 39.7964 10.3567 39.7964 11.5C39.7964 12.6433 39.5942 13.6521 39.123 14.5935C38.7188 15.4678 38.0454 16.2075 37.2373 16.7456C36.4292 17.2837 35.5542 17.5527 34.6113 17.5527C33.6685 17.5527 32.7261 17.2837 31.918 16.7456C31.5454 16.5166 31.2095 16.2512 30.9102 15.9495C30.8604 15.8992 30.8115 15.8479 30.7637 15.7954C30.6357 15.6558 30.5151 15.509 30.4019 15.3552C30.2139 15.0989 30.0459 14.8225 29.8979 14.5264C29.4263 13.5847 29.1572 12.5759 29.1572 11.4329C29.1572 10.3567 29.4263 9.3479 29.8979 8.40649ZM19.5278 0.403564H0V5.64917H6.39697V22.5293H13.0635V5.64917H19.5278V0.403564ZM67.5435 1.81592C69.3613 2.75732 70.7754 4.03516 71.7183 5.71655C72.728 7.39771 73.1997 9.3479 73.1997 11.5C73.1997 13.7195 72.6606 15.6023 71.6509 17.2837C70.6406 18.9651 69.2266 20.2427 67.4087 21.1843C65.5903 22.1257 63.4355 22.5293 61.0791 22.5293H51.5171V0.403564H61.2808C63.6377 0.403564 65.7251 0.874268 67.5435 1.81592ZM65.1191 15.8042C66.062 14.728 66.5332 13.3159 66.5332 11.5674C66.5332 9.81885 66.062 8.33936 65.0518 7.26318C64.0415 6.18726 62.7622 5.64917 61.2134 5.64917H58.1836V17.4854H61.4829C62.9644 17.4182 64.1763 16.8801 65.1191 15.8042ZM92.4526 19.0322L93.7319 22.5967V22.5293H100.802L91.6445 0.403564H84.8438L75.4165 22.5967H82.1504L83.4971 19.0322H92.4526ZM90.7021 14.1902H85.3149L88.0757 6.927L90.7021 14.1902ZM123.63 0.403564L115.684 15.5352V22.5293H109.085V15.6697L100.938 0.403564H107.537L112.385 9.41528L117.098 0.403564H123.63ZM134 3.90063C134 2.89185 133.663 2.01758 132.922 1.27783C132.182 0.538086 131.306 0.201904 130.296 0.201904C129.819 0.201904 129.373 0.276855 128.956 0.433594C128.49 0.609131 128.061 0.887207 127.67 1.27783C126.93 2.01758 126.593 2.89185 126.593 3.90063C126.593 4.90942 126.93 5.78369 127.67 6.52344C128.411 7.26343 129.286 7.59961 130.296 7.59961C131.306 7.59961 132.182 7.26343 132.922 6.52344C133.663 5.78369 134 4.90942 134 3.90063ZM128.478 3.90063C128.478 3.42993 128.68 3.02637 129.017 2.69019C129.354 2.354 129.758 2.1521 130.296 2.1521C130.768 2.1521 131.239 2.354 131.576 2.69019C131.913 3.02637 132.114 3.42993 132.114 3.90063C132.114 4.37158 131.913 4.7749 131.576 5.11133C131.239 5.44751 130.835 5.64917 130.296 5.64917C129.758 5.64917 129.354 5.44751 129.017 5.11133C128.766 4.86035 128.589 4.57202 128.516 4.24634C128.491 4.1355 128.478 4.02026 128.478 3.90063Z" fill="black"/>
</svg>
