<svg width="161" height="108" viewBox="0 0 161 108" version="1.1" xmlns="http://www.w3.org/2000/svg" xmlns:xlink="http://www.w3.org/1999/xlink">
<g id="Canvas" fill="none">
<g id="meteo">
<g id="Group">
<g id="Vector">
<path d="M 4.50975 -3.83852e-06C 2.02323 -3.83852e-06 2.13659e-06 2.00544 2.13659e-06 4.46846C 2.13659e-06 6.93311 2.02323 8.93855 4.50975 8.93855C 6.99626 8.93855 9.0195 6.93311 9.0195 4.46846C 9.0195 2.00544 6.99626 -3.83852e-06 4.50975 -3.83852e-06ZM 4.50975 5.54194C 3.91191 5.54194 3.4273 5.06105 3.4273 4.46901C 3.4273 3.8786 3.91246 3.3977 4.50975 3.3977C 5.10704 3.3977 5.5922 3.8786 5.5922 4.46901C 5.5922 5.06105 5.10649 5.54194 4.50975 5.54194Z" transform="translate(50.085 84.2791)" fill="#3C2B8A"/>
</g>
<g id="Vector_2">
<path d="M 1.35046 2.67717C 2.0963 2.67717 2.70092 2.07787 2.70092 1.33859C 2.70092 0.599306 2.0963 2.64726e-06 1.35046 2.64726e-06C 0.604623 2.64726e-06 3.07135e-06 0.599306 3.07135e-06 1.33859C 3.07135e-06 2.07787 0.604623 2.67717 1.35046 2.67717Z" transform="translate(46.2471 88.5518)" fill="#3C2B8A"/>
</g>
<g id="Vector_3">
<path d="M 3.4701 3.43837C -1.1567 8.0234 -1.1567 15.4857 3.4701 20.0701C 5.78268 22.3629 8.82163 23.5085 11.8606 23.5085C 14.8979 23.5085 17.9363 22.3629 20.2494 20.0701C 24.873 15.4857 24.873 8.0234 20.2494 3.43837C 15.6226 -1.14612 8.09417 -1.14612 3.4701 3.43837ZM 10.1015 19.9178C 10.4456 19.5773 10.9034 19.3567 11.4208 19.3567C 11.9897 19.3567 12.4819 19.6229 12.8293 20.0214C 11.9191 20.1249 11.0002 20.1065 10.1015 19.9178ZM 20.1439 13.2959C 19.4005 13.2986 18.7978 13.896 18.7978 14.6339C 18.7978 15.0427 18.993 15.3957 19.2846 15.6407C 18.9001 16.365 18.4401 17.0595 17.8269 17.6678C 17.3259 18.1639 16.7663 18.5592 16.1838 18.904C 15.3131 17.1485 13.5009 15.959 11.4208 15.959C 9.52175 15.959 7.836 16.9435 6.89302 18.4762C 6.54898 18.2263 6.20439 17.9758 5.89426 17.6678C 2.6037 14.4068 2.6037 9.10066 5.89426 5.84013C 7.53899 4.20931 9.69897 3.39499 11.8611 3.39499C 14.0211 3.39499 16.1816 4.20931 17.8269 5.84013C 19.8671 7.864 20.6356 10.6746 20.1439 13.2959Z" transform="translate(41.0312 78.7925)" fill="#3C2B8A"/>
</g>
<g id="Vector_4">
<path d="M 92.6839 17.3045C 91.9892 16.6642 90.9068 16.7043 90.2625 17.3891L 27.1593 84.57C 24.629 87.3383 21.1618 88.9159 17.3938 89.0086C 13.6033 89.0433 10.0824 87.6966 7.4187 85.0563C 4.75333 82.4138 3.33722 78.9023 3.4313 75.1674C 3.52483 71.4335 5.11432 67.9951 7.92738 65.4725L 75.6863 2.94055C 76.3793 2.30189 76.4176 1.22733 75.7716 0.540414C 75.1289 -0.1465 74.041 -0.182828 73.3502 0.455834L 5.60987 62.971C 2.11201 66.1074 0.122691 70.4083 0.00563992 75.0822C -0.113599 79.7562 1.66022 84.152 4.99563 87.4575C 8.22657 90.6606 12.4885 92.4091 17.0404 92.4091C 17.1859 92.4091 17.3314 92.4074 17.4785 92.4036C 22.1945 92.2876 26.5336 90.3152 29.683 86.8671L 92.7697 19.7041C 93.4152 19.0177 93.3769 17.9426 92.6839 17.3045Z" transform="translate(35.2832 15.5911)" fill="#3C2B8A"/>
</g>
<g id="Vector_5">
<path d="M 0.483789 63.2437C 0.820174 63.5874 1.26704 63.7598 1.71337 63.7598C 2.14383 63.7598 2.57375 63.6004 2.90685 63.28L 65.6594 2.9178C 66.3387 2.2645 66.3551 1.18939 65.696 0.516031C 65.0369 -0.158956 63.9507 -0.172502 63.2724 0.479714L 0.520428 60.8419C -0.158906 61.4952 -0.175307 62.5703 0.483789 63.2437Z" transform="translate(56.1162 13.2676)" fill="#3C2B8A"/>
</g>
<g id="Vector_6">
<path d="M 0.501711 69.034C 0.836456 69.3653 1.27512 69.5317 1.71324 69.5317C 2.15191 69.5317 2.59058 69.3653 2.92533 69.034L 69.6445 2.89946C 70.3139 2.23585 70.3139 1.1613 69.6445 0.497701C 68.975 -0.165901 67.8909 -0.165901 67.2214 0.497701L 0.501711 66.6323C -0.16723 67.2959 -0.16723 68.371 0.501711 69.034Z" transform="translate(63.0312 10.8547)" fill="#3C2B8A"/>
</g>
<g id="Vector_7">
<path d="M 61.3681 0.516069L 0.484001 62.6994C -0.175642 63.3728 -0.158693 64.4479 0.520641 65.1012C 0.853197 65.4216 1.28366 65.581 1.71413 65.581C 2.16045 65.581 2.60732 65.4086 2.9437 65.0648L 63.8278 2.88149C 64.4869 2.20813 64.4705 1.13304 63.7911 0.479736C 63.1124 -0.174107 62.0272 -0.157291 61.3681 0.516069Z" transform="translate(66.4189 21.6594)" fill="#3C2B8A"/>
</g>
<g id="Vector_8">
<path d="M 54.4392 20.0611C 37.9557 9.92334 20.3149 3.18215 2.00901 0.0246194C 1.06002 -0.133149 0.188152 0.483829 0.0257024 1.40604C -0.136747 2.3315 0.48788 3.21087 1.41991 3.37189C 19.2954 6.45352 36.5243 13.0402 52.6325 22.9471C 52.9137 23.1195 53.2265 23.2029 53.5339 23.2029C 54.1077 23.2029 54.6667 22.9172 54.9916 22.4C 55.4899 21.602 55.2421 20.5556 54.4392 20.0611Z" transform="translate(105.751 63.8496)" fill="#3C2B8A"/>
</g>
<g id="Vector_9">
<path d="M 45.2943 1.27848C 45.0613 0.370905 44.1347 -0.181009 43.2087 0.0542875C 17.7167 6.51139 1.46795 16.7354 0.788066 17.1664C -0.00831875 17.6744 -0.239135 18.724 0.271186 19.5134C 0.599367 20.0192 1.15125 20.2947 1.71572 20.2947C 2.03187 20.2947 2.35349 20.2079 2.63955 20.0258C 2.80145 19.9233 19.1372 9.65753 44.0592 3.3441C 44.9743 3.11314 45.5279 2.18713 45.2943 1.27848Z" transform="translate(0 66.7576)" fill="#3C2B8A"/>
</g>
<g id="Vector_10">
<path d="M 1.71419 7.6016L 4.24228 7.6016L 4.24228 10.108C 4.24228 11.0465 5.00858 11.8066 5.95593 11.8066C 6.90328 11.8066 7.66958 11.047 7.66958 10.108L 7.66958 7.6016L 10.1977 7.6016C 11.145 7.6016 11.9113 6.84258 11.9113 5.90302C 11.9113 4.96455 11.1456 4.20443 10.1977 4.20443L 7.66958 4.20443L 7.66958 1.69858C 7.66958 0.760109 6.90328 5.6916e-06 5.95593 5.6916e-06C 5.00858 5.6916e-06 4.24228 0.759566 4.24228 1.69858L 4.24228 4.20443L 1.71419 4.20443C 0.766843 4.20443 -7.07746e-06 4.964 -7.07746e-06 5.90302C -7.07746e-06 6.84258 0.766296 7.6016 1.71419 7.6016Z" transform="translate(141.765 4.90308)" fill="#3C2B8A"/>
</g>
<g id="Vector_11">
<path d="M 0.50253 8.84679C 0.836728 9.17859 1.27539 9.34451 1.71406 9.34451C 2.15273 9.34451 2.5914 9.17859 2.92559 8.84679L 4.71418 7.07448L 6.50222 8.84679C 6.83696 9.17859 7.27508 9.34451 7.71375 9.34451C 8.15242 9.34451 8.59108 9.17859 8.92528 8.84679C 9.59477 8.18319 9.59477 7.10863 8.92528 6.44503L 7.13724 4.67218L 8.92528 2.89986C 9.59477 2.23626 9.59477 1.16171 8.92528 0.498107C 8.25579 -0.166037 7.17171 -0.166037 6.50222 0.498107L 4.71418 2.27043L 2.92559 0.498107C 2.25611 -0.166037 1.17202 -0.166037 0.50253 0.498107C -0.167505 1.16171 -0.167505 2.23626 0.50253 2.89986L 2.29057 4.67218L 0.50253 6.44503C -0.167505 7.10863 -0.167505 8.18373 0.50253 8.84679Z" transform="translate(6.55176 19.8533)" fill="#3C2B8A"/>
</g>
<g id="Vector_12">
<path d="M 1.74045 3.4503C 2.70168 3.4503 3.48091 2.67792 3.48091 1.72515C 3.48091 0.772378 2.70168 0 1.74045 0C 0.779227 0 -3.73904e-06 0.772378 -3.73904e-06 1.72515C -3.73904e-06 2.67792 0.779227 3.4503 1.74045 3.4503Z" transform="translate(87.4648 4.87671)" fill="#3C2B8A"/>
</g>
<g id="Vector_13">
<path d="M 1.74046 3.45029C 2.70168 3.45029 3.4809 2.67791 3.4809 1.72514C 3.4809 0.772369 2.70168 8.07413e-06 1.74046 8.07413e-06C 0.779235 8.07413e-06 4.27319e-06 0.772369 4.27319e-06 1.72514C 4.27319e-06 2.67791 0.779235 3.45029 1.74046 3.45029Z" transform="translate(59.4404 32.6846)" fill="#3C2B8A"/>
</g>
<g id="Vector_14">
<path d="M 1.74045 3.4503C 2.70168 3.4503 3.48091 2.67792 3.48091 1.72515C 3.48091 0.772378 2.70168 0 1.74045 0C 0.779226 0 3.6055e-06 0.772378 3.6055e-06 1.72515C 3.6055e-06 2.67792 0.779226 3.4503 1.74045 3.4503Z" transform="translate(22.6738 49.114)" fill="#3C2B8A"/>
</g>
<g id="Vector_15">
<path d="M 1.74045 3.45029C 2.70167 3.45029 3.4809 2.67792 3.4809 1.72515C 3.4809 0.772381 2.70167 2.91198e-06 1.74045 2.91198e-06C 0.779224 2.91198e-06 -6.67685e-06 0.772381 -6.67685e-06 1.72515C -6.67685e-06 2.67792 0.779224 3.45029 1.74045 3.45029Z" transform="translate(145.979 57.3169)" fill="#3C2B8A"/>
</g>
<g id="Vector_16">
<path d="M 1.74046 3.45029C 2.70168 3.45029 3.4809 2.67791 3.4809 1.72514C 3.4809 0.77237 2.70168 -7.8094e-06 1.74046 -7.8094e-06C 0.77923 -7.8094e-06 0 0.77237 0 1.72514C 0 2.67791 0.77923 3.45029 1.74046 3.45029Z" transform="translate(19.1924 1.42627)" fill="#3C2B8A"/>
</g>
<g id="Vector_17">
<path d="M 9.57631 18.9869C 14.8578 18.9869 19.1537 14.7277 19.1537 9.49265C 19.1537 4.25757 14.8578 2.25017e-06 9.57631 2.25017e-06C 4.29534 2.25017e-06 -4.00611e-06 4.25811 -4.00611e-06 9.49265C -4.00611e-06 14.7272 4.29479 18.9869 9.57631 18.9869ZM 9.57631 3.39716C 12.967 3.39716 15.7259 6.13235 15.7259 9.49265C 15.7259 12.8546 12.967 15.5898 9.57631 15.5898C 6.18621 15.5898 3.42676 12.8546 3.42676 9.49265C 3.42621 6.13235 6.18566 3.39716 9.57631 3.39716Z" transform="translate(42.2637 0)" fill="#3C2B8A"/>
</g>
</g>
</g>
</g>
</svg>

