<svg width="72" height="110" viewBox="0 0 72 110" version="1.1" xmlns="http://www.w3.org/2000/svg" xmlns:xlink="http://www.w3.org/1999/xlink">
<g id="Canvas" fill="none">
<g id="nlo">
<g id="Group">
<g id="Vector">
<path d="M 4.69984 9.4465C 7.291 9.4465 9.3997 7.32748 9.3997 4.72388C 9.3997 2.11902 7.29141 -6.15636e-06 4.69984 -6.15636e-06C 2.10827 -6.15636e-06 7.10793e-07 2.11902 7.10793e-07 4.72388C 7.10793e-07 6.09608 0.592685 7.39808 1.62665 8.29704C 2.47886 9.03757 3.5698 9.4465 4.69984 9.4465ZM 4.69984 2.63302C 5.85442 2.63302 6.79356 3.57023 6.79356 4.72388C 6.79356 5.87585 5.85442 6.81348 4.69984 6.81348C 4.19409 6.81348 3.70581 6.63193 3.32691 6.30159C 2.86898 5.90317 2.60612 5.32866 2.60612 4.72388C 2.60612 3.57023 3.54526 2.63302 4.69984 2.63302Z" transform="translate(30.9365 6.6521)" fill="#EEEEEE"/>
</g>
<g id="Vector_2">
<path d="M 48.8044 31.5693C 50.0542 30.5779 51.1306 29.2775 51.9412 27.5473C 51.9475 27.5343 51.9458 27.5204 51.9512 27.5069C 63.1635 25.8704 72 22.4548 72 17.4468C 72 10.5464 56.2439 7.8835 49.9627 7.09675C 46.793 2.80155 41.7226 5.43812e-06 36 5.43812e-06C 30.2778 5.43812e-06 25.2078 2.80112 22.0377 7.09632C 16.2037 7.82298 -1.32005e-06 10.4741 -1.32005e-06 17.4468C -1.32005e-06 22.4603 8.85526 25.8775 20.0842 27.5116C 20.8191 29.0712 21.7715 30.298 22.8924 31.2566L 0.587273 96.882C -0.13143 98.9947 0.410924 101.286 1.9677 102.717C 6.70789 107.073 20.3849 110 36 110C 51.6035 110 65.2771 107.076 70.024 102.724C 71.5924 101.286 72.131 98.985 71.3957 96.8606L 48.8044 31.5693ZM 36.0004 2.63386C 44.1499 2.63386 50.7796 9.27923 50.7796 17.4473C 50.7047 18.4193 45.5873 20.6977 36.0004 20.6977C 26.4136 20.6977 21.2961 18.4193 21.2217 17.4473C 21.2213 9.2788 27.851 2.63386 36.0004 2.63386ZM 2.60613 17.4473C 2.60613 14.9353 8.67767 11.6819 20.3092 9.98613C 19.2349 12.2518 18.6156 14.7756 18.6156 17.4473C 18.6156 21.4899 27.6272 23.3311 36.0004 23.3311C 44.3736 23.3311 53.3853 21.4899 53.3853 17.4473C 53.3853 14.7781 52.7672 12.2569 51.6946 9.99285C 63.2071 11.6845 69.3947 14.9844 69.3947 17.4473C 69.3947 21.0129 56.6906 25.9847 36.0004 25.9847C 15.3103 25.9847 2.60613 21.0129 2.60613 17.4473ZM 36.0004 28.6181C 40.2644 28.6181 44.5932 28.3828 48.7021 27.9238C 46.276 31.2633 41.9759 31.99 36.0171 31.99C 30.0878 31.99 25.7918 31.2608 23.3458 27.9289C 27.44 28.3845 31.7518 28.6181 36.0004 28.6181ZM 68.2734 100.775C 64.039 104.657 50.7675 107.367 36.0004 107.367C 21.2229 107.367 7.94939 104.654 3.72161 100.769C 2.94718 100.058 2.67808 98.8388 3.05241 97.7381L 25.1454 32.7377C 28.2561 34.3053 32.117 34.623 36.0171 34.623C 39.5864 34.623 43.3775 34.4255 46.5268 32.9629L 68.9368 97.7301C 69.3194 98.8358 69.0528 100.06 68.2734 100.775Z" fill="#EEEEEE"/>
</g>
<g id="Vector_3">
<path d="M 1.30306 10.7527C 2.02259 10.7527 2.60612 10.1639 2.60612 9.43599L 2.60612 1.31672C 2.60612 0.588801 2.02259 -1.33388e-06 1.30306 -1.33388e-06C 0.583525 -1.33388e-06 -2.53855e-06 0.58838 -2.53855e-06 1.31672L -2.53855e-06 9.43599C -2.53855e-06 10.1639 0.583525 10.7527 1.30306 10.7527Z" transform="translate(34.333 40.2183)" fill="#EEEEEE"/>
</g>
<g id="Vector_4">
<path d="M 1.30306 1.33388e-06C 0.583525 1.33388e-06 -2.53855e-06 0.588803 -2.53855e-06 1.31672L -2.53855e-06 9.67428C -2.53855e-06 10.4018 0.583525 10.991 1.30306 10.991C 2.02259 10.991 2.60612 10.4022 2.60612 9.67428L 2.60612 1.31672C 2.60612 0.589224 2.02259 1.33388e-06 1.30306 1.33388e-06Z" transform="translate(34.333 73.281)" fill="#EEEEEE"/>
</g>
<g id="Vector_5">
<path d="M 1.30306 4.20684e-06C 0.583525 4.20684e-06 -2.53855e-06 0.588806 -2.53855e-06 1.31672L -2.53855e-06 5.485C -2.53855e-06 6.21291 0.583525 6.80171 1.30306 6.80171C 2.02259 6.80171 2.60612 6.21333 2.60612 5.485L 2.60612 1.31672C 2.60612 0.588806 2.02259 4.20684e-06 1.30306 4.20684e-06Z" transform="translate(34.333 92.0073)" fill="#EEEEEE"/>
</g>
<g id="Vector_6">
<path d="M 18.4129 6.30227C 17.7973 5.56679 16.8099 5.26335 15.892 5.53065L 11.7121 6.75196L 10.063 5.85006L 10.1004 5.83828C 11.136 5.50921 11.9591 4.6901 12.3018 3.6474L 12.9286 1.73263C 13.1549 1.04212 12.7839 0.296132 12.1009 0.0687634C 11.418 -0.164068 10.6806 0.214181 10.4548 0.904271L 9.82838 2.81778C 9.74894 3.05944 9.55845 3.24981 9.31846 3.32546L 6.87123 4.10423L 6.26482 3.77263C 6.28936 3.40027 6.25732 3.0233 6.14877 2.65472C 5.90962 1.84191 5.37184 1.17366 4.63442 0.76978C 3.11134 -0.0606813 1.20395 0.514256 0.380437 2.0491C -0.0188417 2.7934 -0.107428 3.6516 0.131723 4.46399C 0.370875 5.2768 0.908654 5.94504 1.64482 6.34766C 2.11065 6.60319 2.62098 6.73305 3.13588 6.73305C 3.437 6.73305 3.73896 6.6885 4.0351 6.59983C 4.39944 6.48971 4.72884 6.3111 5.02372 6.08709L 5.33233 6.25604C 5.31278 6.83602 5.32693 7.68623 5.40096 8.99119C 5.44422 9.75608 5.74658 10.4941 6.25275 11.0686L 8.33691 13.4373C 8.59394 13.7302 8.95164 13.8798 9.31099 13.8798C 9.61876 13.8798 9.92778 13.7701 10.1761 13.5465C 10.7139 13.0632 10.7621 12.2311 10.2838 11.6885L 8.19965 9.319C 8.0807 9.18409 8.01249 9.01934 8.00292 8.84156C 7.97755 8.39439 7.96174 8.02161 7.95051 7.68833L 10.8104 9.25301L 13.6673 11.7927C 13.7879 11.8995 13.8524 12.0604 13.8391 12.2248L 13.5708 15.4966C 13.5117 16.2207 14.0454 16.857 14.762 16.9175C 14.799 16.9205 14.8352 16.9218 14.8705 16.9218C 15.5418 16.9218 16.112 16.401 16.1678 15.713L 16.436 12.4421C 16.5171 11.4523 16.1258 10.4684 15.3871 9.81407L 14.2063 8.76466L 16.4993 8.09474L 19.4323 11.6061C 19.6897 11.9146 20.0587 12.0739 20.4288 12.0739C 20.7262 12.0739 21.0248 11.9726 21.269 11.7642C 21.8184 11.2951 21.8883 10.4642 21.4241 9.90906L 18.4129 6.30227ZM 3.29269 4.07523C 3.21574 4.09835 3.05852 4.1265 2.88675 4.03152C 2.71788 3.94032 2.653 3.79282 2.63012 3.71254C 2.60642 3.63311 2.58022 3.47382 2.67214 3.30361C 2.7678 3.12373 2.95205 3.02076 3.14171 3.02076C 3.22738 3.02076 3.3139 3.04262 3.39458 3.08633C 3.56344 3.17753 3.6275 3.32504 3.6512 3.40532C 3.6745 3.48475 3.70028 3.64361 3.61003 3.81424C 3.61003 3.81508 3.60961 3.81509 3.60919 3.81551L 3.60877 3.81677C 3.51727 3.98656 3.37171 4.05212 3.29269 4.07523Z" transform="translate(25.6431 54.6768)" fill="#EEEEEE"/>
</g>
</g>
</g>
</g>
</svg>

