<svg width="302" height="58" xmlns="http://www.w3.org/2000/svg" xmlns:xlink="http://www.w3.org/1999/xlink"><defs><path id="a" d="M0 0h302v58H0z"/></defs><g fill="none" fill-rule="evenodd"><path fill="#2E9B0E" fill-rule="nonzero" d="M0 0h302v58H0z"/><g opacity=".8"><mask id="b" fill="#fff"><use xlink:href="#a"/></mask><g mask="url(#b)" fill-rule="nonzero"><path d="M279.587 57.903c1.75-.03 3.498-.06 5.334-.039l4.837.022c-.233-.597-.602-1.156-1.035-1.406.26.15-4.557-1.708-3.7-1.79-1.527.042-3.743 1.88-5.436 3.213z" fill="#424242"/><path d="M6.212-3.398C6.662-1.175 7.67.677 8.616 2.84c.552 1.242 3.156 7.133 3.812 7.397.656.263 1.985-.24 3.465-1.002-.25.433-.5.866-.664 1.35-.467 1.808.14 2.158.173 3.1-.116-1.798 3.41 2.894 1.728 1.807-1.422-.937.254-1.24-2.511-1.45-2.096-.17-7.646-1.758-9.205.344-2.297 3.177 1.864 4.77 4.615 5.205-.35.606-.85 1.472-.617 2.068.183.683 3.598 2.77 4.03 3.02 2.016 1.51 2.468 2.926 5.41 2.43 1.676-.302 6.331-3.965 3.833-5.639 1.532 1.347 3.105-.978 2.65-1.588 1.628 1.98-.188 3.125 4.093 2.71 4.777-.475 3.884-.528 2.29-4.567 5.161-3.14 1.796-2.311.148-5.457.414-.916 9.69 2.016 10.62 2.206 4.92.878 6.36.785 4.44-5.29 1.795.691 1.648 11.345 7.12 5.267 2.357-2.681-4.395-7.387 2.644-5.98 2.789.571 4.265 8.814 6.87 8.701 2.519-.162 3.5-3.06 5.968-3.136 2.382-.126 4.77 1.138 7.026 1.631 2.082.394 2.748 1.24 4.747.778a8.083 8.083 0 0 0 1.55-2.684 7.708 7.708 0 0 1 3.717.76c1.44-.093 6.033 1.751 7.38.22 1.483-1.57 1.387-5.204 1.718-6.976.69-4.797.975-7.29-.21-11.437.572 2.408 4.397 1.384 4.704-.749-31.296.407-62.628.677-93.948.723zm15.639 8.914c.373-.247.61-.457.846-.666.423-.333-1.598-3.232-.195-3.462 2.582-.472 1.608 3.815 3.03 4.752-.853-.723-2.279-.854-3.681-.624z" fill="#4C4C4C"/><path d="M9.747-3.32c.05-.087.05-.087 0 0C5.133-3.328.655-3.373-3.96-3.38c.033.943.153 1.936.1 2.828-.382 16.061 2.201 31.987 1.956 48.011-.045 4.478-.14 9.042-.32 13.556 1.296-1.446 2.642-2.978 3.725-3.854 1.979 1.374 1.192 2.536 4.28 2.587 2.196-.003 3.362-.022 4.515-2.82.64-1.71 1.583-9.94-1.732-9.199 3.451-.778 3.726 4.345 6.592 1.381.91-.975 1.041-5.403 1.348-7.535.273 2.928 10.12 3.071 11.437-.21.427-1.139-1.666-7.313-2.992-7.616 2.559-.832.618-5.07 3.846-5.862-1 1.732-2.402 10.16 1.191 5.537 2.96 3.672 3.999 7.274 7.303.752 1.063-2.042 1.558.9 1.203-2.885-.193-1.266-1.35-5.86-3.193-4.269 1.473-2.151.06-2.505.49-4.45 2.792 2.766 1.3 8.948 5.011 11.322 0 0 5.867.038 6.053-.085 2.613-1.725.972-6.483-1.615-10.401.929.19 2.355.32 2.874.62.917.414 1.33-.502 2.21-.226.482.164 1.81 2.663 2.034 2.676 3.771-.132 6.178-2.9 5.14-6.501.615.933 5.54 9.203 6.554 4.246 1.718 4.225 2.76-1.178 5.705-2.48 2.112-.859 1.578 2.066 4.104.291-.323.16 1.707-4.557 2.003-4.27.753.896-.174 2.902 1.632 4.175 2.707 1.91 8.062.036 7.67-3.886.952.55 1.992 1.15 2.894 1.787-1.246 1.359-4.358.948-4.392 3.007.023 3.361 3.738 1.927 5.71 1.91 1.886-.065 2.998.808 4.618-.797 1.72-1.779.568-4.984-.179-4.491 1.21-1.496 4.227-7.721 4.344-8.924.975-7.289-2.368-3.099-5.546-2.394 1.136 1.233.909 2.026-.78 2.552.792.227 4.256 2.227 1.684 3.282-2.199.809-2.011-2.316-4.48.761-1.196-1.729-2.805-2.542-5.2-2.193-4.345.725-1.677 3.304-3.49 3.643-2.445.436-8.408-3.237-9.557-4.247-.284 2.492-2.455-.148-3.457-.611.012 2.779-1.777 3.478-3.916 4.783-1.063-.96-.96-1.94.087-2.952-.58-.796-1.222-1.283-2.152-1.473.457.61-4.623-3.593-3.397-3.116-2.005-.927-3.597-2.77-5.457-.148-1.91 2.707 1.212 3.701 1.112 3.874-3.117 6.4-3.578-1.603-4.663-2.923-4.48-5.242-2.153 1.529-2.39 4.74-2.62.336-3.745-.314-3.328-2.036-4.602 2.77-9.916-4.225-13.915-.298 1.422.937 2.757 1.823 4.18 2.76-2.09 4.22-2.625-1.054-2.72 3.51.063-.31.74 1.12 1.315 2.723-2.078-1.2-3.268-1.54-3.852 1.47-6.628-4.519-.706-.176-1.32-4.11-1.207.689-9.917 3.974-4.743 3.612-1.343 3.728-3.083 4.34-6.167 3.483-1.413-.353 1.78-4.284-2.262-1.883-.762-1.48-2.408-2.43-3.88-3.28 2.193-2.197 1.695.864 4.181-.241-1.478-2.24-1.745-.777-1.794-3.692-2.253 1.702-4.564-.095-5.624 1.14-3.368-1.366 2.036-3.327 2.533-3.386 1.912-.513 4.424.937 7.07.155.862 1.306.248 2.569 1.77 3.332 2.39-1.738-.238-4.987-2.533-4.811.593-2.429 2.776-5.21 5.335-6.042.87-.306 6.04.139 5.94.312.473-.42-1.993-6.347-3.083-6.86-3.64-1.294-1.929 1.541-2.952 2.913-.05.087 1.309 1.333 1.159 1.593-1.06 1.236-2.66 1.006-3.829 1.831-2.949 2.108-5.128 4.083-6.586.008.807-2.998-3.353-4.592-3.712-7.57-.419-3.475.956-.256 2.006-2.075zm34.07 22.788c.457.61.18 1.49.176 2.296-1.665-2.116-3.493-3.75-4.733-4.003 2.12-2.471 3.472.388 4.557 1.707zM32.74 22.656c.44 1.64.272 2.929-1.596 1.965.696-.406 1.233-1.135 1.596-1.965zM11.24 6.895c-1.702.749-1.043 3.208-.577 4.4-.59-1.379-7.253-9.037-6.967-9.333C5.118-.103 9.081 7.034 11.24 6.895z" fill="#3F3F3F"/><path d="M243.237 48.463c1.892 1.323 2.782-.819 4.168-.019 1.212.7 2.159-.14 3.221.82.63.71-.587 3.818-.208 4.961.44 1.64 1.662 2.923 3.034 3.946 9.415-.107 18.793-.35 28.158-.371.646-.32 3.865-1.695 4.038-1.595 1.872.158 1.019 2.436 3.84.948-.013.223.06.496.097.633 3.895.054 7.826.246 11.757.437a3.1 3.1 0 0 0-.826-1.17c-1.719-1.223-2.048-2.453-4.863-2.577-4.874-.158-2.106 2.248-7.882-1.548-1.336-.887-9.183-4.494-9.636-5.91 2.02-2.298 6.294-1.1 7.094-2.486 1.236-1.942-2.934-4.119-.728-6.54 1.483-1.569 4.41 1.16 6.313.065 3.669-2.154 1.13-3.158.851-4.474-.11-.41.42-2.528.141-3.844-.292-1.093-.684-5.014-.954-5.747-2.58-5.531-5.422-5.21-10.386-4.611-4.108.515-14.017 2.877-10.053 7.013 3.543 3.662 11.981 5.647 13.569.097-.594 2.429.418 3.475 1.015 3.242-.34 1.19.649 1.876 2.111 2.143-.223-.013-1.776.476-2.409.572-3.141.842-1.762.253-4.56-.9-2.142-.89-4.457-1.881-5.906-2.371.656.263-6.296-1.095-5.463-1.538-3.055.892-5.65 6.785-2.318 8.015-2.415-.817-8.04 3.326-10.832 3.561-2.792.236-5.34-1.35-7.612-.815.82-.22-2.54 1.998-3.336 2.577-1.766 1.06-3.225-.014-3.918 2.588-.367 1.635 1.184 4.148 2.483 4.898z" fill="#515151"/><path d="M101.723-4.027c-.807-.003-1.613-.007-2.332.04.086.05.173.1.21.236 1.938 2.043-2.46.659-4.515-.181l-.67-.04c3.054 5.111-1.07 6.656.853 11.923 1.743-1.418 3.631.711 4.964-.598 1.993-1.852.08-1.34.398-2.888-.077.533-1.595-4.038-1.581-4.262-.184-.683 3.312-2.937 2.673-4.23z" fill="#595959"/><path d="M121.757 1.074c1.206-.69.786-1.163-.596-2.77-1.975-2.179-3.968-.327-5.007-.927.347.2.747-.493 1.173-1.632-5.693.062-11.387.123-16.994.234.393.92.75 1.703.56 2.633-.368 1.635-2.51.745-2.753 2.567-.167 1.29 3.25 5.572 2.963 5.868-.823 1.026-1.796-.69-2.829.099-3.191.928-1.475 8.155 1.5 8.602 1.066.154 5.029-3.91 5.229-4.256.15-.26.19-.93.143-1.649.653 1.07 1.629 1.98 2.545 2.393 3.614 1.74 3.938-1.421 5.75-1.76 4.458-1.122 4.765-.252 7.784-4.282.9-1.559 3.823-6.222.532-5.12zm-16.68 4.688c.064-.31.214-.57.387-.47-.186.124-.286.297-.386.47zM183.71 10.168c-1.523-.763-3.118-1.8-3.985.702-.49 1.449 3.103 5.025 3.979 6.108 1.172 1.37 2.061 2.23 2.86 3.845.48.97.745 5.51 2.557 5.172-2.976 2.554.684 8.015 3.205 10.048 1.113.874-1.044 3.208.192 4.268 2.558 2.17 4.052-1.818 5.614-1.724 3.11 3.413-6.713.628-4.552 5.686 1.141 2.622 4.572 3.679 7.014 4.05 5.194.804 4.088 1.32 3.03-3.448 2.899-2.02.59 6.577.248 5.57 1.668 4.312 7.334 4.697 10.342 6.087 2.835 1.29 2.908 1.564 2.954 2.283 2.246-.089 4.441-.091 6.637-.094-1.04-.6-1.879-1.547-1.725-2.613.357-2.218 4.588-2.547 5.062-5.968.311-2.938-2.392-8.656-5.934-7.121-2.25.895-3.43 7.141-4.95 8.573-1.233 1.136-2.15 3.724-3.985.702-1.661-2.922 2.077-3.997 2.424-6.799-.04.67-1.306-7.336-1.11-6.876-1.635-3.369-1.005-2.66-5.357-.322-1.692-1.67 1.18-3.244-.302-4.677-2.234-2.33-2.892.409-5.127 1.08.05-3.087-1.985-13.962-4.882-6.744.054-.892-2.707-4.911-2.707-4.911.573-.593 3.79 4.036 3.879-1.918.017-1.03-3.953-6.554-4.696-6.868-2.501-.866-2.049.55-3.855 2.278 2.02-2.298 2.304-4.79.629-7.489-1.182-1.953-4.094-2.71-5.536-4.812-1.232-1.866 3.96-3.257-1.157-4.595 2.911.757 2.146-2.918 2.44-4.826-1.75.029-3.362.022-5.11.051-.5.866-.814 1.61-.978 2.092-1.297 4.447-2.976 5.556-.909 9.175.53.883 2.195 2.999 3.79 4.035z" fill="#626262"/><path d="M227.626 58.502l12.913-.166c.36-.023.806.004 1.166-.02l.273-.072c2.496-.523 2.336-.846 4.341.081 2.692-.062 5.47-.075 8.112-.05-2.078-1.2-1.978-1.374-4.87-3.967-2.037-1.87-2.507-2.256-4.889-2.13-.36.023-3.882 2.724-4.975 3.017-1.503.402-4.058.428-5.743.148-1.86-.38-5.206-3.583-7.082-2.934-3.925 1.198.215 4.627.754 6.093z" fill="#626262"/><path d="M-2.107 59.811c-.027.447-.053.893-.03 1.253 5.034.481 10.19 1.15 15.274 1.544.04-.67.204-1.153.59-1.622 1.297-1.446 3.908-.169 5.538-1.191 5.708-3.287-1.095-4.905 1.405-9.235 3.272.734 1.575 2.873 5.463 1.538 3.565-1.175 1.733-2.002 3.26-5.046.15-.26 6.832-7.834.589-6.82-2.892.41-.457 2.392-2.633 3.56-3.16 1.872-6.087-.857-9.122 1.2-1.283 1.223-1.774 2.672-1.384 4.398-.577 1.399-1.82 1.951-3.629 1.484-.736 1.076-6.54.728-1.367 3.368a10.3 10.3 0 0 1-3.33-1.23c.315 1.452.631 2.905.86 4.308-1.672-.504-2.468.075-2.265 1.924a5.664 5.664 0 0 0-4.401-.577c2.02-5.3-1.802-2.08-4.818 1.144z" fill="#4C4A4A"/><path d="M10.009 52.026c3.002.001 6.3.289 8.53-1.773.659-.543-1.14-3.428 1.447-4.707 2.262-1.118 2.438 1.177 4.487.628 3.055-.892 3.962-4.063 5.615-4.726 2.795-1.041.195 3.462 4.237 1.061 3.396-2.08 2.032-7.718 7.648-7.247 3.522.301 3.12 3.996 6.196 1.268 1.133-.962.501-3.867 1.511-5.016 1.397-1.62 3.822-.22 5.122-2.47 1.449.49.601 4.157 2.414 3.818 1.179-.243 1.846-2.398 3.102-3.174 2.872-1.575 7.228-4.718 10.48-5.15 3.97-.479 7.228 3.48 8.846 4.876 1.247-1.359 2.263-1.118 3.062.498.866.5.912 1.22.276 2.122.972 1.716.772 2.062 1.311 3.528 1.078 2.932.509 2.719 3.217 4.629 3.733 2.733 6.475 2.584 8.233-2.06 1.493-3.987-1.624-5.787-1.42-9.941-.094 1.562 4.823-16.153-.52-11.5-1.3 2.25 2.315 3.991.345 6.203-1.246 1.358-5.437 1.017-6.143.84-6.046-1.527-.004.807 1.277-2.611.79-1.969-2.374-4.488-4.73-4.809-.42 2.529-.968 5.677-4.279 5.612-4.118-.068-2.778-2.989-3.56-5.634-2.972 1.748-3.758 2.91-3.773 6.135-1.362-.44-2.115-1.337-2.43-2.79-2.45 1.243-4.493 3.18-5.15 5.92 1.426.13-4.266-5.812-2.265-1.078-1.749.03-5.734-7.467-7.48-5.242-.724.852 1.437 2.908.737 4.12-.75 1.3-3.022 1.836-3.908 3.171 1.776-3.477-7.398-4.386-8.028-5.096-1.541-1.93 1.358-3.95-2.63-5.445-1.399-.577-6.14.035-4.825 2.757 3.562-.368 12.68 10.438 9.277 14.132.05-.087-5.074.188-5.976-.448-2.065-1.424-3.555-9.443-3.581-11.998-5.571 3.25 1.134 7.236.789 12.233-3.771.132-1.48 3.764-3.243 4.017-3.265.655-3.037-3.14-5.185-5.419.07 1.08-.417 1.723-1.423 2.065-2.379-.68 2.217-4.84 2.59-5.086-1.988-4.958-5.922 3.856-6.714 3.63-.354 1.412-.298 2.714.118 3.994.25-.433.464-1.003.627-1.486 2.925.534 2.19 6.807.597 7.966-3.845 2.86-8.428-1.402-9.21-4.048-1.133.963-2.872 9.774-1.996 10.857-1.543 1.072-4.713-2.836-7.258-2.228-2.36.486 3.4 2.31 3.227 2.21-.413.916-.603 1.846.409 2.892" fill="#606060"/><path d="M93.754 16.776c-.882 5.726 14.269 10.085 13.486-.759 2.355.32 6.406 1.505 3.68-4.573-.27-.733-5.23-.94-5.18-1.027.043-1.476 1.547-4.88.657-5.74-1.309-1.333-2.984-1.03-3.775.938 2.352 1.127 1.329 2.499 1.022 4.631-.167 1.29-1.654 3.664-4.723 4.78-3.728 1.657-2.367-3.1-5.167 1.75" fill="#6B6B6B"/><path d="M11.476 6.685c-.84-.946-8.762-10.024-9.393-4.73C1.672 5.066 7.69 7.04 9.197 8.833c.542.66 1.33 7.696 2.924 3.536.476-1.226-1.585-3.455-.645-5.684z" fill="#797979"/><path d="M33.066 21.69c-1.01 1.15-2.403 1.962-3.905 2.364.18 1.49 2.954 2.283 3.733 2.733.764-1.522.748-3.494.172-5.097" fill="#4C4C4C"/><path d="M9.729 53.712c-.161 2.678 3.354 1.59 2.865.037-.207-1.043-2.465-.73-2.865-.037" fill="#717171"/><path d="M55.747 8.805c-4.083-2.127.918 5.61 0 0" fill="#B5B5B5"/><path d="M35.82 27.321c-.403-1.502-3.193.929-1.72 1.779.942-.033 1.516-.626 1.72-1.779m58.516-7.553c-.033-.943-.703-.983-1.959-.207-.24 1.016.08 1.662 1.132 2.039.263-.656.527-1.313.827-1.832" fill="#4C4C4C"/><path d="M245.854 1.13c2.306.407 4.36-3.95 5.096-5.026-.047-.72.044-1.475.257-2.045-3.635.095-7.306.054-10.94.15 2.397 1.846 4.125 6.654 5.587 6.921z" fill="#585858"/><path d="M185.484 1.494c-5.777 2.207 2.024 5.094 3.466 7.197 1.369 1.83 4.399 6.58-.379 7.056.489 4.554 3.775-.938 4.222-.912 1.995.344 4.739 5.392 6.194 7.272-1.203-.117-1.726.389-1.62 1.605-1.612-.007-1.265-2.809-3.164-2.52.989 3.689 3.08 4.665 2.22 8.556 3.001.001 2.817-5.879 5.6-1.5.813 1.392-2.13 4.89-.438 6.56 2.567 2.752 2.143-2.112 5.09-1.219 1.19.34.312 5.26.468 6.39 1.623.59 4.019-2.76 5.535-3.386.796 2.422-2.003 1.269-1.217 3.108.59 1.38 2.221 2.552 2.178 4.028-.032 4.255-2.753 2.568-3.093 3.757-.72 3.048 1.37 7.027 4.285 6.978 3.002 0 2.03-1.715 2.703-2.481 1.06-1.236 2.223-3.451 3.483-5.033 1.833-2.175.421-5.53 4.261-1.581-.296-.287 1.364 5.637 1.364 5.637-1.003 2.538-4.225 1.718-5.025 3.103-.95 1.646-.683 3.185.192 4.268 2.332-.04 4.751-.028 7.133-.154.477-1.226-.176-2.296-1.769-1.137-.567-6.217 4.283-3.417 4.551.318 3.182-1.511 4.071-.651 6.453-.777 1.08-.07 3.499-.06 4.332-.502.783-.356 3.016-3.224 3.239-3.21 3.015-.223 3.237 2.792 5.066 4.425.383.337.679.624 1.112.874 1.39-.007 2.828-.1 4.304-.056-2.151-1.473-2.94-2.506-4.262-6.617-1.724-5.615-.328-4.232-7.268-2.811-.06-3.498-3.967-3.33-1.051-6.38 1.01-1.15 3.918.414 4.464.268 1.79-.7.388-3.472 1.75-3.031.543.66.9 1.442 1.169 2.175 1.02-.566 2.076-.995 3.182-1.511 1.49-.18 2.678.16 4.08-.069 3.13-.618 8.16-2.332 10.983-3.82-1.176-.564-2.265-1.078-3.391-1.728 2.58-2.667-.029-4.75 2.457-5.856-1.43.676 9.504 2.139 8.451 1.762 2.365.904 4.347 4.472 6.665 4.656.98.104 6.66-2.736 6.355-3.606-.417-1.279-2.633.56-3.322-.647-.32-.646 1.414-2.648 1.467-3.54-1.612-.008-2.635 1.364-3.855 2.277.404-1.5.857-3.085 1.347-4.534-4.478 2.957-1.32 4.087-6.677 3.766-1.426-.13-8.038-2.678-8.69-3.748 2.645-.782 5.58-2.666 8.326-3.622 2.285-.758 5.864-2.157 7.36-3.948.537-.73.957-3.258 1.132-6.16 1.158 1.593 3.547 2.856 3.98 3.106-.087-.05 2.255.494 4.437.715-1.493.985-3.036 2.058-3.236 2.404-1.66 2.275-1.374 4.98-.332 7.776a3.697 3.697 0 0 0-.703-.984c-3.872 3.307 3.214 5.435-.343 10.195 2.182.22 3.518 1.107.423 2.668-1.616.8-4.088-1.32-5.567-.558-3.792 1.968-.222 5.184-.519 7.899-1.809-.467-6.2-.462-7.323 1.084-1.61 2.188 3.317 4.455 5.778 5.992 2.202 1.386 5.499 4.675 7.654 5.342 4.447 1.298 3.573-2.787 7.836.83l.826-1.833c.357.783.713 1.566 1.02 2.436 2.058.034 4.067.154 6.126.188-.326-2.035-.602-4.158-.878-6.28a2.672 2.672 0 0 0-3.309 2.131c-1.101-3.292-7.773-6.335-9.527-2.498 2.104-4.444-.84-.947-.532-3.079 0 0 .888-4.337 1.188-4.857 1.43-3.677-.046-3.72 4.582-3.936 2.741-.149 5.307.408 6.362 2.98.233.597-1.589 8.552 1.08 8.13-.887-6.863-1.688-13.677-2.216-20.563-1.152-.204-2.032-.48-2.451-.954.34-1.189 1.136-1.768 2.18-1.974-.01-.583-.02-1.166-.167-1.713-.308-6.067-.702-12.183-.91-18.423-.397-.114-.956.256-1.78 1.282-.07-1.08-.389-1.726-.908-2.026.71-.63 1.36-1.755 1.496-1.792.36-.023.72-.046 1.13-.156-.096-3.635-.055-7.306-.014-10.977-1.03-.017-2.109.052-3.225-.015-.33 1.773-2.505-.06-2.802 2.655-.284 2.491-.662 6.546 3.186 5.88-1.106.517-1.936 3.155-1.284 4.225-1.23.329-2.622 1.141-3.405 1.498-1.79.699-1.783 2.088-3.669 2.154-.72.046-2.714-3.3-4.22-2.09-.05.086-.1.173-.237.21-.095-3.635-.8-6.814-2.403-6.238-.596.233-1.412 7.845-1.502 8.602-.154 1.066-.228 3.794-.545 5.343.148-2.455-9.117-2.608-11.282-3.858-1.472-.85-2.754-2.63-4.227-3.48-.952-.55-5.04-1.87-4.953-1.82-1.272-1.196-1.444-7.3-5.395-5.655-2.386.932-.108 4.787-.312 5.94-.254 1.239-2.227 4.257-1.984 5.436-5.08-1.2-3.662 3.544-4.433 6.678-1.149-1.01-4.06-1.767-4.184-1.953-2.544-2.393-2.08-6.397-6.235-3.6-.61.456-1.988 6.242-2.86 7.355-1.834 2.175-3.344 4.19-5.213 6.228-.589-4.381-4.089 1.681-5.168 1.75-.29-1.898-1.761-2.748-1.914-4.684-.08-1.662 1.577-3.131 1.424-5.067-.13-1.576-2.271-2.466-2.447-4.761-.112-2.606 3.346-4.996 3.194-6.932-.471-5.584-3.295-1.094-5.399-4.85-.087-.05.707-2.824.878-4.92 2.171 2.64 5.428 6.599 5.711 7.108.566 1.02 1.177 5.761 2.68 5.358-2.016 1.492-6.24 3.21-3.823 6.222 2.91 3.76 7.95-5.57 9.63-6.68 1.12-.739 7.189 1.149 8.67-2.615 2.947-7.305-8.825-1.516-9.827-4.98-.036-.137 2.623-4.144 2.887-4.8.69-1.796-3.391-1.727-.952-3.552-16.548.261-33.045.436-49.68.647-.326.966-.676 1.572-.826 1.832.387-.47-1.044 3.208-1.027 2.178-.05.087-2.209.226-2.459.66 1.09.513 2.079 1.2 2.831 2.096zM230.547 9.844l.15-.26-.15.26z" fill="#585858"/><path d="M286.01 8.379c-.441 4.364.264 7.542-3.508 10.676 7.998.346 5.122 5.729 9.718 9.768-.439-4.641-1.66-5.924.23-9.798 1.64-3.44-3.552.952 2.26-3.314 1.642-1.246 4.467-.538 5.987-1.97-2.702-.521-5.215 1.03-7.847 1.59-1.862.425-1.391-2.19-3.53-.885-.14.843 3.132 6.774-1.261 4.584-4.307-2.14 1.207-3.69 1.26-4.584-.866-.5-3.67-6.044-3.31-6.067" fill="#757575"/><path d="M276.57 41.727c.735-3.271-2.395-7.85-6.616-6.938 1.324 3.305 3.736 4.928 6.617 6.938zM273.842 44.655c-1.426-.13-1.417 3.454-.278 3.88 1.535.541.574-3.594.278-3.88zM266.1 39.262c-.642-.487-1.188-.34-1.712.166-.29 1.103 1.966 1.596 1.713-.166m22.99-18.02c-1.386-.8-2.858-1.65-4.394-2.19 1.022 1.63 2.558 2.17 4.394 2.19m-45.133 24.173c.77-.133.92-.393.55-.953-.756-.09-.956.256-.55.953" fill="#585858"/><path d="M240.539 58.336c2.059.034 4.168-.018 6.276-.07-.939-.774-1.841-1.41-2.015-1.51-1.599-.231-3.165.481-4.57 1.517.086.05.172.1.309.063z" fill="#6D6D6D"/><path d="M101.958-1.235c.34-1.19-.152-1.936-1.342-2.276-.976 2.092-2.396 3.351-3.25 5.63.67.04 4.179-2.438 4.592-3.354zM98.274 7.146c1.71.64 2.339 1.35 4.214.7-.868-2.695-2.238-1.522-4.214-.7z" fill="#595959"/><path d="M98.563.846c-.337.383-.723.853-1.06 1.236.247.373 2.462 1.536 2.615.47-.17-.906-.626-1.516-1.555-1.706" fill="#6B6B6B"/><path d="M182.666 32.775c.267-1.462-1.112-.873-2.092-.976 3.319-1.548-.099-2.829 1.038-4.597 1.136-1.77 3.078-.533 4.195-3.467.98-2.898.601-4.041-.827-6.367-.124-.187-1.629-1.98-2.012-2.316-1.235-1.06-3.421-.474-4.27-2.004-.726-1.342 1.327-2.698 1.18-3.244-.878-3.278-1.461-3.269-3.26-6.154-1.638-2.563-3.01-.584-.96-4.135 1.5-2.598 5.45-1.24 4.795-4.506-1.303.056-2.556.026-3.858.082-.36.023-.67-.04-1.03-.017.124.187.21.237.333.423-.173-.1-.433-.25-.556-.436-2.915.049-5.693.061-8.608.11a7.347 7.347 0 0 0-.227.793c-3.058-1.304-3.203 3.347-5.448 3.436-.993.12-.946-2.162-1.875-2.352-.533-.077-2.482.299-2.915.049-.73-.537-1.41-1.16-2.089-1.783-5.916.048-11.97.133-17.886.18 1.235 1.06 2.334 2.157 3.72 2.957 1.559.9 4.95 2.627 6.759 3.094.402 1.502 1.318 1.916 2.834 1.29 1.243-.553 2.436-1.019 3.665-1.348 1.513.18 2.275 1.66 4.257 2.227 2.998.807 2.205.58 5.247-.089.77-.133 4.048-1.011 5.105-1.44 1.789-.7 1.55-2.685 3.202-3.348-.054 3.895-11.524 11.36-1.363 13.762 1.325.304 4.41 1.16 4.866 1.77-.246-.372 3.034 3.946 3.12 3.996.74 1.12 2.062 2.23 2.018 3.705.02 1.166-2.773 4.404-3.573 5.79-1.763 3.254-2.542-.198-1.38 3.59-.11-.41 2.777 2.99 2.864 3.04.803.81 1.215 2.895 2.204 3.582 2.498 1.673 8.27-1.923 5.831-3.1 7.702 3.06 3.768-10.526-3.004-2.197zM140.344 7.879c1.823-2.758-2.646-7.417-4.178-8.763-.976-.91-4.037-1.407-4.353-2.86-.074-.273.026-.446.04-.67-4.168.02-8.386.124-12.553.143.616.933 1.282 1.78 1.665 2.116 1.742 1.583 4.533 1.347 6.175 3.104 2.148 2.28.606 3.351 1.597 6.233-.733.27-2.774-.793-3.324.16-.25.432-.028 3.447.841 3.141-2.458.659.057 1.303-2.729 2.928 3.345-1.995-2.85-3.263-3.47-3.39-2.379-.68-6.56-.438-8.353 1.067l-.846.666c-.837 1.25-1.067 2.848-1.99 4.047-1.113-.873-2.125-1.92-3.138-2.966-.867 2.502-.49 4.45-1.668 6.89 1.202 3.118-3.624.678-4.68 1.107-3.592 1.621-2.833.905-4.19 4.856-1.144 3.381-1.267 3.194-.858 6.086.193 1.266 2.048 2.453 2.028 4.289-.054.892-1.98 1.628-1.104 2.711-.077.533.033.943.33 1.23 4.054.377 4.153-7.995 4.766-9.257.35-.606 3.95-6.842 5.353-7.071 1.555 1.706 2.3 4.215 5.583 2.53 1.48-.762 6.964-4.062 10.24-7.136-2.883 3.994 10.532 5.157 10.741-2.805.193 1.266.936 1.58 2.302 1.214-.441 4.364 1.684 6.283 6.422 3.476 3.669-2.154 1.846-2.398 1.967-4.407.017-1.029-1.929-1.46-2.062-2.229-.01-.583 1.017-2.761 1.144-3.381.064-.31 4.221-.912 2.11-3.054-.866-.5-3.194-1.267-3.808-.005z" fill="#6F6F6F"/><path d="M190.16 57.194c2.482 2.703 5.771-.594 9.012 1.392.123.187.296.287.42.474 6.463-.195 13.012-.34 19.562-.484.004-.806-.353-1.59-1.565-2.29-2.425-1.4-6.646-.488-8.725-1.688-1.299-.75-2.93-1.923-4.14-3.429-1.245-1.643-2.101-1.56-3.08-1.663 1.115.067-3.2 2.54-3.013 2.417-.903-.636-1.955-1.013-3.158-1.13-.923 1.199-.493-.747-1.108-4.681-.289-1.9-1.371-4.025-1.624-5.788-.083-.856-.636-10.297-3.42-6.477l-.522.506c-2.494 5.72-.042 6.673 1.175 11.764.45 2.222-1.542 9.271.187 11.077z" fill="#6D6D6D"/><path d="M126.145-1.127c-1.126-.65-2.205-.58-3.245-1.18-.52-.3-1.185-1.147-1.851-1.993l-5.917.048c-.104.98-.17 2.095-.497 3.061 1.242-.552 2.349-1.068 3.541-1.535.06.497.034.943.093 1.44.337-.383.624-.68.91-.976.932 2.386 2.498 1.673 2.564 3.559 2.025 2.093-1.178 5.44-2.81 7.268-2.373.709-3.02 1.029-4.511-.987-1.443.899-2.193 2.198-2.337 3.847 2.592.11 4.618-.798 7.27-.191 5.353 1.128 1.032 2.212 2.304 3.409 1.099 1.096 1.243-.553 2.099-.636 2.978-.359.26-2.852 4.269-3.194-1.226-.476-1.842-1.41-1.898-2.712 2.085-.412 3.238-.209 3.72-.045-.246-.374-.602-1.157-.595-2.77-.201-4.85.368-4.636-3.11-6.413zM152.345-4.707c2.411 1.623 4.96 3.21 6.279 2.124.803.81 1.282 1.78 1.302 2.946a12.867 12.867 0 0 0 5.277-1.341c-.932-2.386-.059-3.498 2.563-1.638.436-.557.08-1.34-.14-2.16-5.06-.034-10.17.018-15.281.07zM179.783-5.031c.06.496.033.943-.167 1.29-.977 2.09-3.325.158-4.758 1.64 2.51 4.452 5.47-.075 7.034-2.983-.72.047-1.39.006-2.109.053z" fill="#6B6B6B"/><path d="M193.15 43.216c-1.863 3.428.732 2.732.708 5.374-.06 2.506-1.797 5.313-2.355 7.878 2.983-1.165 3.193-3.93 5.452-4.242 2.396-.35 3.331 1.23 4.93 1.46.787-1.162-1.018-2.435.301-3.52 2.046.257 4.766 4.945 6.115 5.608.83.364 10.134-.153 10.554.32-2.828.1-5.517-.645-8.005-1.735-1.399-.577-2.898-.98-3.897-2.25-2.295-2.826-.466-1.193-1.138-3.428-.723-2.15 1.953-4.184-1.91-5.491-4.694-1.67-.046 4.477-.032 4.254-.507 2.479-4.2-.924-4.374-1.024-1.69.526-2.829.099-3.318-1.454.257-2.045-.695-2.595-3.03-1.75M181.76-3.658c-3.242 4.017-11.323-.187-6.358 7.414.53.883 3.35 2.396 3.497 2.943 1.051 3.378-1.817 4.147-.646 8.518 2.909-1.438 4.417 2.55 6.33 2.038-.583-2.992-.826-4.172-3.997-5.079 1.21-4.497 6.226 3.017 7.933-1.54-.377 1.053-8.953-6.093-9.126-6.193.084-2.145 3.37-4.636 2.367-8.1m1.101 36.892c1.516-.626 3.192-.928 4.019-2.76 2.717 5.494 3.916-4.783 5.472-6.078-.552-1.243-1.695-.864-3.328.965.29-1.103-.066-1.886-.932-2.386-2.608-2.083 1.617-3.8-3.113-5.608 1.274 3.392.034 6.14-1.466 8.738-.533-.077-1.102-.29-1.585-.453-1.263-.614-1.923-.071-1.857 1.815-.573.592 1.479 2.239.656 3.265-.433-.25-.903-.637-1.336-.887.18 1.49 2.031 3.482 3.47 3.39" fill="#686868"/><path d="M189.905 33.837c3.864 1.307.915 3.415 1.454 4.881.343 1.006 1.352 2.86 1.841 4.412 1.917-4.32 2.688.744 5.037-.325 3.406-1.498 2.027-3.91.093-6.76-.274.074-4.233 6.332-5.052 3.55-.183-.683.978-5.093 1.628-6.22-.666-.846-6.266-2.347-5.001.462" fill="#686868"/><path d="M240.539 58.336c.943-.033 1.886-.066 2.778-.012.733-.27 1.193-.466 1.466-.54.26.15.52.3.73.537 1.252.03 2.419.011 3.721-.045.014-.223-.01-.583.054-.893-2.632.559-3.841-.947-6.05-.721-1.849.202-3.142.841-4.311 1.667a6.376 6.376 0 0 0 1.612.007z" fill="#696969"/><path d="M108.83 1.463c-.739-1.12-1.235-1.06-1.525.042.029 1.75 4.05 1.184 4.993 1.151-.253-1.762-1.898-2.712-3.468-1.193" fill="#595959"/><path d="M118.401 2.485c1.226.477 2.369.097 3.429-1.138-1.672-.504-2.815-.124-3.429 1.138z" fill="#6B6B6B"/><path d="M207.967 47.152c-.64 1.71-.147 2.456 1.442 2.103-.493-.747-1.035-1.406-1.442-2.103M208.155 44.027c-.387.47-.327.966.093 1.44-.06-.497-.12-.993-.093-1.44" fill="#585858"/><path d="M115.889 4.037c-2.782.818 2.225 1.746 0 0" fill="#595959"/><path d="M13.807 62.648c3.435.251 6.87.502 10.354.666 1.023-1.372 2.356-2.68 4.509-4.21 1.593-1.158 2.88-3.187 5.038-3.326 1.936-.152 2.144 3.086 4.977 2.18 4.248-1.357.052-9.091.29-12.302 1.566-.713 2.744 2.046 4 1.27.187-.123-.397-5.31-.397-5.31-.813-1.393-3.401-2.31-3.401-2.31-.443-.833 10.35 1.472 5.771-3.596-4.42-4.746-8.434 5.407-10.656 5.856-1.673 2.498-.707 2.825 1.095 4.905-2.253 1.701-6.373-.562-6.008 3.806-.027.446.133.77.206 1.042-2.345.263-4.308.862-3.855 2.278-.676-1.43-4.168.019-4.978.821-1.383 1.396 2.298 2.02.106 4.218-1.57 1.519-5.307-.408-6.923.39-1.207.69-1.72 1.78-1.937 3.155.606.35 1.226.477 1.809.467zm21.608-11.427c-.36.024-.856.083-1.352.143.46-.196.906-.17 1.352-.143z" fill="#7B7B7B"/><path d="M29.258 63.486c-.096-.633-.106-1.216.13-1.426.724-.853 4.958-1.987 5.828-2.293.833-.443 8.42-2.183 4.778-3.477-3.282 1.685-4.267.192-5.756-2.63-1.89 3.874-11.275 5.73-13.339 9.503 2.765.211 5.494.285 8.359.323z" fill="#929292"/><path d="M27.413 51.682c.702.983 1.418 1.743 2.408 2.43.167-1.29.603-1.846 1.21-1.496-5.456-6.152 9.945-2.226 4.56-7.298.336-.383.71-.63 1.046-1.012-2.273.535-3.125-.188-2.508-2.257-.983.703-1.913.513-2.796 1.042-1.12.74.316 1.453-.27 2.269-.487.643-2.122.276-2.722 1.315-1.587 2.548 2.58 2.53-1.554 3.49-.227.794 1.499.404.626 1.517M20.745 56.03c2.88-6.188 6.195 4.27 5.242-4.479-2.895 1.216-3.795-.227-5.31-2.603-3.101.172-.585 6.013.068 7.083M19.255 59.212c2.032.48 3.758.09 5.227-1.255-1.561-3.095-4.38.589-5.227 1.255M34.192 41.74c3.021 1.167 5.097-8.028 9.28-6.074 2.922 1.34-1.403 3.231-.404 4.5 1.788 2.303 3.275-.072 5.107.755.743.314 2.267 3.272 2.49 3.286 4.648.95 1.394-3.814 3.554-6.955 1.323-1.892 3.996-3.12 5.788-4.626 2.453-2.048 3.613-3.457 6.408-4.499 6.647-2.513 8.105 1.562 13.378 4.03 4.84 2.216 2.885 1.203 5.295-2.371-1.922-.07-2.762-1.017-2.741-2.853-1.38.59-2.809 1.265-4.188 1.854.193-9.934-17.217-2.78-21.15 3.032-2.498-1.673.051-3.088-3.557-3.44 1.786.108-4.488 2.375-3.578 1.399-1.096 1.099-1.194 3.468-2.304 4.79-3.542 4.536-.2.346-4.627.215-5.63-.248-5.015 3.686-8.75 6.957" fill="#717171"/><path d="M95.872 39.707c-.84-.946-4.612 2.187-6.73 1.657-2.119-.53-3.44-4.642-4.616-5.205-4.204-.118-2.454 16.25 4.246 15.846 3.152-.26 8.776-12.6 7.1-12.298m-2.595-10.505c2.672-1.228 3.078-.532 2.31-3.4.906-.17 4.128-2.351 1.9-3.291-1.66-.727-3.14 3.037-5.042 4.132.852.723 1.072 1.543.832 2.56m1.929 9.658c2.527-4.777 1.884-5.263-2.12-8.73.64 1.293 2.033 8.68 2.12 8.73" fill="#6B6B6B"/><path d="M35.748 40.444c1.433-1.482 2.037-3.327 2.9-5.023-2.608.919-3.158 1.871-2.9 5.023" fill="#707070"/><path d="M83.834 32.757c.02 1.166-1.477 2.958.952 3.552.95-1.646.557-2.565-.952-3.552" fill="#6B6B6B"/><path d="M27.468 36.587c.929.19 1.352-.143 1.542-1.072.214-.57-1.389.006-1.542 1.072" fill="#595959"/><path d="M38.908 35.571c1.25.837 2.255.494 3.142-.842-1.203-.117-2.159.14-3.142.842" fill="#707070"/><path d="M50.492 24.708c-.523.506-.55.952.043 1.525-.01-.583-.07-1.079-.043-1.525zm2.275 1.66c-.423.332-.883.529-1.306.862 1.285.973 1.462.267 1.306-.863z" fill="#595959"/><path d="M95.12 16.41c-1.927 3.737 2.648 1.413 2.994 1.613-.26-.15-1.017-5.437-2.994-1.613" fill="#9B9B9B"/><path d="M11.591 53.286c-1.13.156-1.43.676-.937 1.422.993-.12 1.243-.553.937-1.422" fill="#E3E3E3"/><path d="M303.073 31.625l-.388-4.728c-2.346.263-4.545 1.071-4.516 2.82.08 1.663 2.572 1.947 4.904 1.908z" fill="#636363"/><path d="M219.964-3.426c1.299.75-.971 3.481-.805 5.194.245 3.375 1.988 1.956 3.18 4.492.71-.63 1.53-.85 2.372-.71.174.1-7.65 16.253-.67 14.163 1.704 4.448-3.147 4.65.037 8.335 3.886 4.669.173.1 5.5-1.327-.6 4.04 1.773.33 3.252-.433-1.293.64 2.28-2.148 2.33-2.234 1.76-2.448 3.026-5.643 5.642-8.174-.1.173-3.037-3.14.321-2.355-1.412-.354 5.805 5.545 6.908 5.836-1.01 1.149-2.02 2.298-3.116 3.397 4.883.74 6.678-6.768 6.296-10.106 1.572.677 3.071 1.08 4.637.368-2.018-.704-2.151-1.473-.176-2.296 1.803-.922 2.107-2.248.861-3.89.14-.843-2.03-3.483-.538-4.468 5.238-3.673.777 9.455 6.665 4.656.612 1.74 6.844 6.146 8.936 7.122 3.268 1.54 6.303-.517 9.248 1.183-1.12.739-1.583 1.741-1.34 2.92 3.127 2.384 2.616-5.532 2.857-6.548.19-.93 1.976-.822 2.166-1.752.407-2.305-.525-4.69-.838-6.95.89.86 1.698 3.06 2.11 5.145 1.063.96 4.424 3.94 4.697 3.866 4.145-.378 3.83-4.833 8.207-4.615-.673.766-.9 1.56-.694 2.602.963 1.133 2.932-1.078 3.419-1.721.086.05.036.136.123.186a98.367 98.367 0 0 1-.102-5.024c-1.079.07-.766-.673-2.975 2.555-.503-1.33 2.28-5.15 1.364-5.563-1.609-.814-2.17 2.558-3.408-.698-1.471-3.851 1.837-2.98 2.973-4.75 0 0 .164-.482.34-1.189-9.984-.106-19.968-.213-29.88-.046-6.276.071-12.553.143-18.743.264-.45.78-.936 1.422-1.236 1.942-.487.643-3.433 4.946-4.769 4.06-2.238-1.524-1.618-4.399-4.575-5.876-1.836-.02-3.722.046-5.557.025-.25.433-.464 1.003-.69 1.796-.064.31 1.314 2.722 1.16 3.788-.283 2.492-4.39.005-1.287 5.03 4.26-3.776 15.028 1.171 3.7 4.792-.87.306-1.369-1.83-3.244-1.18-1.057.43-.78 2.551-1.54 3.267-.81.803-5.283 5.15-6.112 4.786-1.013-1.047-1.119-2.263-.219-3.822 2.589.917 8.275-8.732 2.397-3.35-1.15-1.01-1.41-6.357-2.433-7.987-3.419 1.722-4.83-4.635-7.41-7.165-.224-.013-.583.01-.807-.003-.32 2.355-.69 4.797 1.466 2.462z" fill="#494949"/><path d="M292.938 54.179c.315-6.746 7.136-.96 8.424 2.208.647-.32 3.376-3.247 3.917-4.783-.074-.273-.06-.496-.084-.856-.256-.956-.289-1.899-.372-2.755-.226-2.209-.538-4.468-.814-6.59-.246-.373-.493-.747-.826-1.17-3.566-4.022-3.13-1.577-5.363-1.71.583-.01-3.078.532-2.109.052-2.585 1.279-2.882.992-3.73 4.66-.416 1.722.46 2.805.503 4.33.01.584-2.04 1.133-2.253 1.702 3.221.821.232 3.599 2.707 4.912z" fill="#707070"/><path d="M239.255 20.76c1.3.75 1.17-.826 1.406-1.035.86-.89-3.817-.588-1.406 1.035" fill="#B3B3B3"/><path d="M237.704 7.047c.333.424.616.933 1.158 1.593.227-.793-.175-2.295-1.158-1.593" fill="#494949"/><path d="M289.233 14.396c-3.868-.5-5.396 5.546-.868 5.504 3.311.064 3.216-3.57.868-5.504z" fill="#C6C6C6"/><path d="M135.02.302c3.31 3.066 3.7 4.791 4.707 9.646.517-1.896 1.747-2.225 3.429-1.139-.59 1.623-1.847 2.399-3.732 2.465.52.3 1.089.513 1.522.763-2.9 2.021.217 6.823 3.266 7.543-1.103-.29 10.447-.896 10.447-.896S151.245 8.4 151.508 7.743c.64-1.71-.032-3.945 1.497-4.794 3.332-1.771 1.325 3.305 2.188 4.612.985 1.492 4.237 1.06 5.432 2.79 1.282 1.78.4 2.309.462 5 .006 1.39-.917 2.589-1.307 3.865-.014.223.233.596.566 1.02-1.066-.154-2.582.472-3.352.605-5.364 1.29-2.703 2.48-3.66 5.738-.567 1.983-2.71 4.094-3.673 5.963-1.867 4.233-3.359 2.217.575 4.604 2.858 1.65 6.902 1.445 9.804 1.619 1.03.017 2.349-1.069 3.342-1.188.72-.047.772 2.062 1.392 2.189.223.013 4.404-.229 4.317-.279 1.25.837 1.11 1.68 1.962 2.403 1.951 1.82.201 4.85 3.427 1.863.05-.086 2.331 2.963 4.437 3.716-3.369 1.635-5.003 6.465.704 6.18.576 1.603-.364 3.832-.758 5.914.943-.033 1.972-.016 2.915-.05-1.232-1.865.853-2.278 2.243-2.284.806.004 1.595 1.037 2.471 2.12 1.526-.043 2.965-.136 4.44-.092-.292-1.093-1.154-2.4-1.187-3.342 0-3.002.764-4.524-.141-7.356-.27-.733-1.732-1-2.002-1.733-.612-1.74.584-3.012.058-4.7-3.282-9.517-6.826 1.023-10.283-2.59-1.05-1.182 2.61-3.92.518-4.896-.743-.314-1.13.156-1.516.625-.19-2.072-7.444-8.107-5.243-3.72-1.961-2.402-3.419 1.722-5.058 2.161-1.093.293-1.701-2.252-2.794-1.96-.547.147-3.2 2.541-3.423 2.528-2.182-.22-2.868.769-2.517-2.84.404-4.5 3.476-3.42 6.58-4.398 1.963-.6 2.7-1.675 4.686-1.914 3.611-.455 4.06 1.767 7.479.046 6.314-2.937-1.037-9.605-.85-9.729 2.132-10.893-1.355-2.052-6.482-3.973-8.198-3 5.311-11.598 4.179-13.638-1.305-2.139-9.6 5.428-11.759 5.567-1.439.093-3.654-1.07-5.19-1.61-3.467-1.195-3.494-.748-8.148-.087.2-.346-4.537-3.543-8.79-6.576-2.692.063-5.334.039-8.026.101.86 2.113 2.551 3.782 3.997 5.079z" fill="#7E7E7E"/><path d="M61.082 47.565c3.704.984 4.237 1.06 5.19 4.612.571 2.41-2.169 7.755-1.28 8.615.766.673 5.251-.894 6.051-2.28 1.45-2.511-.543-.66-.359-2.978.151-3.262-.1-8.026-.196-11.66.024-2.643 1.001-4.734 1.158-6.607-.013.224-.94-5.97-1.46-6.27.856-.083 4.765 4.945 4.925 5.269.522 2.495-1.09 2.488-1.097 4.1-.048 2.282-.465 7.006.03 9.948-1.864-4.771-2.058 8.165-1.881 7.459-.304 1.326-.051 3.088-1.32 4.087-1.88 1.455-3.288-2.706-5.098-.171.296.286.766.673 1.186 1.146 4.404-.228 8.722-.507 13.04-.785.776-1.746 1.316-3.281.66-3.545 2.279.854.59 1.38 3.085.857 4.358-.948 10.302-4.444 11.51-8.135.39-1.276 7.748-18.62 8.13-18.284-1.755-1.36-6.727 3.853-7.434 6.678.919 2.608-6.846 11.058-8.026 11.3-3.028.446-4.028-9.022-4.12-10.462-.675-7.432-1.31-9.531-7.906-13.108-2.734-1.464-8.797-1.962-11.5.52-2.94 2.69.535 5.273-1.608 7.385-5.619 5.531-9.435 10.141-1.68 12.309z" fill="#818181"/><path d="M175.399 15.763c-2.153 1.528 4.37 4.832 1.836 8.219-1.46 1.928-6.017.221-8.052.547-.41.11-2.069-.617-2.429-.594-.36.023-1.883 2.262-1.61 2.189-4.048 1.011-7.588-.456-8.483 5.494-.307 2.132-1.334 4.31 1.95 4.821 1.996.344 1.647-2.052 3.273-2.268 2.928-.272 1.716-.972 5.163 2.058a13.896 13.896 0 0 1 3.393-4.277c1.301 2.945 1.328 2.499 1.43-.676 1.385.8 1.85 1.993 1.124 3.652 3.842-2.054 1.655 1.533 4.857 1.187-.534 2.925-4.009 3.344.531 6.08 0 0 5.035-2.52 3.272-2.267 2.979-.359 3.14-3.037 5.35 1.934.945 2.162-1.43 3.677-.658 5.74.918 2.609 3.947 2.163 4.502 5.601.501-3.867 2.972-9.946-1.202-11.317 4.382-3.59-.167-9.911-5.748-7.245 3.204 1.85-.25 3.435-2.473 3.884-.4-2.309-1.602-2.426-2.92-4.342 1.123-1.545.657-2.738-1.449-3.492-.942.033-1.649-.143-2.528-.42.96-1.063 2.09-1.219 3.402-.692.23-1.599 1.103-2.711.974-4.287 1.912-.513 2.366-2.098 3.28-3.88-2.32-.184-2.749-1.24-1.599-3.232-1.699-.058-4.187-1.148-5.06-3.037" fill="#757575"/><path d="M98.082 36.48c3.178-.706 14.114-5.246 14.697-5.256 2.741-.15 3.208-1.958 5.494-2.717.733-.27 1.523-2.238 2.106-2.248 1.353-.143 3.278 2.123 4.517 2.377.93.19 1.087-1.682 1.57-1.519-.224-.013 2.911.757 2.638.83-.41.11 2.292.631 2.342.544-.497.06 1.51-2.015 2.193-2.198 4.224-1.717 6.21-1.957 9.796-4.967 1.556-1.296 2.989-2.778 4.545-4.073.61-.456 1.942 1.237 3.138-.036-.932-2.385-5.822-1.514-6.979-.911-1.293.639-.817 2.415-2.383 3.127-2.449 1.242-3.998.925-6.83 1.83-.352-1.589 2.523-3.97.891-5.143-.989-.687-1.642 1.245-2.682.645-.952-.55.361-3.025-1.811-2.662.361 5.174-7.41 12.234-10.02 4.954-5.517 2.357-3.277-2.123-7.846 1.59-1.32 1.085-1.124 4.547-3.136 5.232-1.69.526-2.329-.767-3.272-.734-.856.083 3.43-4.14-2.407-2.429-4.012 1.148-.694 2.602-2.25 3.897-1.133.963-3.66 2.737-4.34 5.116 3.298.287 1.156 2.399.029 4.75" fill="gray"/><path d="M133.223 2.613c-.399-2.309-1.612-.007-1.123 1.545.992 2.883 1.002 3.466 5.076 2.008-1.222-1.283-2.544-2.393-3.953-3.553z" fill="#6B6B6B"/><path d="M150.451-.027c-.11-.41-.17-.906-.39-1.725-.736 1.075-.776 1.745.39 1.725" fill="#7E7E7E"/><path d="M95.305 30.489c-.12-.993-.552-1.243-1.349-.664-.003.807.43 1.057 1.35.664" fill="#E6E6E6"/><path d="M182.862 33.235c-.21-.236-.42-.473-.716-.76-.723.853-.726 1.66-.184 2.32l.9-1.56z" fill="#757575"/><path d="M120.463 15.915c-.544 2.342 2.518-.163 0 0" fill="#6B6B6B"/><path d="M199.901 59.123c-.58-.796-1.159-1.593-1.765-1.943-2.475-1.313-1.486 2.375-2.871-1.427-3.919 2.588-4.462 1.928-4.403-2.773-.84 2.055-.925 4.2-.749 6.496 3.189-.122 6.513-.28 9.788-.353zM187.918 59.479c-.79-1.033-1.365-2.636-2.914-2.953-2.169-.443-5.091 1.218-4.802 3.117 2.555-.026 5.11-.052 7.716-.164z" fill="#757575"/><path d="M199.464 51.48c.773-.939.877-1.918.497-3.061-2.582.472-1.473 2.152-.497 3.061" fill="#6D6D6D"/><path d="M178.925 1.055c-1.386-.8-3.148-.547-4.071.652 1.512.18 2.865.037 4.07-.652" fill="#626262"/><path d="M44.75 63.654c-.284-.51-.813-1.393-1.352-2.859-.393-.92-2.117-6.533-3.31-6.067-.077.533-.103.979-.094 1.562.043 1.526-5.73 2.927-7.16 3.602-2.572 1.056-3.238.21-4.575 2.324-.25.433-.363.83-.39 1.276 5.593.112 11.187.224 16.88.162z" fill="#ADADAD"/><path d="M40.035 55.62c2.373-3.71 6.897-2.946 10.198-3.464 10.265-1.58 6.607-10.043 6.607-10.043s6.667-4.349 6.98-5.091c1.277-2.612-2.187-4.612.42-7.726-2.479-.507-6.345 4.19-7.841 5.98-1.683 1.916-2.34 1.653-3.293 4.104-.477 1.226 1.104 5.488-.982 5.9-2.172.362-5.788-6.575-9.183-4.494-2.649 1.588.908 5.028-.002 6.004-.86.889-2.768-2.407-4.4-.578-1.484 1.568.766 8.872 1.496 9.408" fill="#929292"/><path d="M38.525 46.435c1.766-1.059 4.74 2.39 5.577 1.141 1.073-1.459-1.939-2.043-1.339-3.082 1.864-3.427.351-3.608 4.895-1.677 1.659.726 3.414 2.086 4.15 4.012 2.582-.472 1.93-7.545 3.404-9.697 1.573-2.325 4.312-4.67 6.159-7.067-.683.183-6.481 4.225-7.241 4.941-2.68 2.841-.372 5.444-2.248 9.095-1.486-.627-1.312-3.529-3.527-4.692-1.262-.614-2.772 1.401-4.59.351-1.127-.65.93-2.811-.806-3.005-1.6-.23-4.945 1.764-4.532 3.85 2.683-3.647 3.803 3.812 3.636 5.102-2.128-1.114-2.821-1.514-4.7-.059.383.337.816.587 1.162.787z" fill="#818181"/><path d="M40.105 42.498s-3.494-.748-2.645.782c.666.846 2.782-.819 2.645-.782M30.944 52.566c11.029 5.097 3.441-9.56 0 0" fill="#717171"/><path d="M20.076 52.989c.98.103 1.823.244 2.802.347-.006-1.39-2.258-2.69-2.802-.347" fill="#7B7B7B"/><path d="M53.73 32.697l.9-1.558c-1.375-.217-1.675.302-.9 1.558" fill="#606060"/><path d="M43.221 39.1c-2.778.013.566 1.02 1.236 1.06-.433-.25-.853-.723-1.236-1.06" fill="#7B7B7B"/><path d="M88.784 46.584c.186-.123 2.173-3.364.747-3.494-1.476-.044-1.454 3.318-.747 3.494" fill="#606060"/><path d="M83.534 33.277c-1.333 1.309-.037 2.865.652 4.071 1.21-1.495.207-1.959-.652-4.071" fill="#717171"/><path d="M86.637 41.303c-.07-1.08-.553-1.243-1.486-.627-.14.843.43 1.057 1.486.627" fill="#606060"/><path d="M97.335 17.573c.153-1.066-.266-1.539-1.159-1.593-1.726.39-.028 3.448 1.159 1.593" fill="#F1F1F1"/><path d="M255.375-5.96c-.014.223.06.497.046.72-2.455-.147-2.143 2.111-.997 3.927 1.71-2.361 2.168.444 3.948-.838 1.593-1.159 1.03-2.985 1.977-3.824l.05-.086c-1.663.079-3.362.022-5.024.101z" fill="#585858"/><path d="M287.003 16.458c-1.986 3.24 2.908 1.563 3.131 1.577-.396-.114-.994-5.078-3.13-1.577" fill="#FAFAFA"/><path d="M156.179 59.052c-.213.57-.413.916-.7 1.213 3.275-.072 6.636-.095 9.911-.167l-.11-.41c1.376.217 1.687-2.721 2.343-2.458 1.832.827 2.002 1.733 1.712 2.836 3.274-.072 6.55-.144 9.738-.267.44-1.362 1.153-2.798.75-4.3-.279-1.316-2.37-2.293-3.06-3.5-.959-1.939.401-3.694-1.181-4.954-.383-.336-3.661.542-4.96-.208-2.302-1.213-2.174-4.835-3.706-6.181-2.162-2.056-10.444-2.912-9.222 1.373.22.82 6.389 2.534 7.164 3.79.85 1.53 1.469 1.656 1.748 2.972.22.82-2.443 5.633-2.4 7.159.023.36.046.72-.104.98-.147-.547-.143-1.353.024-2.642.154-1.066 1.757-4.644 1.61-5.19-.641-3.489-2.37-2.293-6.276.07-1.852 1.01-4.975 3.018-5.342 4.653-.53 2.119 2.324 4.575 2.06 5.231z" fill="#969696"/><path d="M150.906 14.785c2.668 2.58-.734 3.272 1.684 6.284 1.505 1.793 5.879 2.817 7.742-.61.22.82.303 1.675.523 2.495 1.079-.07 1.999-.463 2.882-.992-3.984-2.3-1.752-2.166-1.464-5.464.053-.893 1.714-6.17 1.714-6.17-.64-1.292-4.644-1.757-5.866-3.04-.296-.286-3.017-4.974-3.5-5.138-5.116-1.337-3.704 10.217-3.715 12.635" fill="#8D8D8D"/><path d="M157.857 41.546c5.702-4.676 7.466.269 10.773 4.141 1.715 2.03 2.88 2.01 4.426 3.133.897-.752 1.716-.972 2.646-.782a4.89 4.89 0 0 0 .791 3.229c.477-1.226 1.524-2.239 1.95-3.378.22.82.713 1.566 1.492 2.016 2.632-.559-.672-2.236 2.91-1.438.072.273-7.551-6.322-8.244-6.722-2.64 2.17.978 3.105-2.426 1.601.267-1.462.174-2.901-.328-4.23-.866-.5-1.796-.691-2.752-.435-3.008-1.39-3.482 2.031-4.267-2.81-4.025 1.372-5.317 2.01-8.739 1.537-.98-.104-8.198-3.001-8.655-.61-.547 3.149 8.334 5.967 10.423 4.748" fill="#8A8A8A"/><path d="M152.294 40.182c-9.235-1.406 1.52-12.633 1.86-16.824.288-3.298-1.14-5.624-4.365-5.638-2.282-.047-8.486 3.299-10.046 5.4-6.28 9.077 8.73-2.119 9.668-1.346 2.705 2.716-4.135 12.162-3.503 15.067.243 1.18 1.27 2.003 2.072 2.813 1.062.96 6.042 2.334 4.314.528" fill="#8E8E8E"/><path d="M150.906 14.785c-1.79-4.498 3.745-2.687.263-8.855-.418 4.724-6.697 2.6-.263 8.855" fill="gray"/><path d="M154.205 23.272c-1.577 3.13-5.543 8-5.024 11.302 4.322-4.087 2.02-5.3 7.351-7.534a37.163 37.163 0 0 1-2.327-3.768" fill="#8D8D8D"/><path d="M176.543 51.18c-3.27 4.463 2.991 2.42 2.833 7.293 2.685 1.55.539-6.732.539-6.732-1.51 2.015-1.89.872-3.372-.561" fill="#8A8A8A"/><path d="M166.07 4.719c1.2-2.078-2.041-1.063-2.128-1.113.347.2.915 3.415 2.129 1.113" fill="#D5D5D5"/><path d="M185.148 51.876c1.44-.093 2.013-.686 1.597-1.965-1.046-1.99-1.637 2.634-1.597 1.965" fill="#757575"/><path d="M151.342 17.23c-.067 1.117 1.209 1.507 1.945.431-.59-1.38-1.209-1.506-1.945-.43" fill="gray"/><path d="M175.915 36.268l-1.259-1.42c-.353 1.413-.267 1.463 1.26 1.42z" fill="#757575"/><path d="M88.282 61.652c1.37-1.172 2.453-2.048 3.013-2.417 1.156-.603 5.045-4.94 5.869-5.965 2.906-3.634 1.21-4.497 2.28-8.151.404-1.5 2.671-6.426 3.508-7.675 2.233-2.868 3.802-1.385 6.05-2.28 3.666-1.348 6.942-4.422 11.685-2.838 3.071 1.08 4 4.272 8.158 3.67 3.388-.468 5.264-1.117 7.89-3.065 2.016-1.492 8.27-4.925 4.467-8.737-3.26-3.153-8.73 2.119-10.578 2.322-1.626.216-1.86-.38-3.672-.042-1.812.34-1.88 1.456-3.801 1.385-2.282-.047-1.242-2.449-3.974-1.717-.374.247-4.669 3.886-5.302 3.983-2.222.449-4.24-3.256-8.228-1.748-3.988 1.507-4.536 4.655-5.93 8.47-1.657 4.47-4.623 7.607-5.624 12.34-.67 2.962.592 3.576-1.897 5.487-2.096-.17-3.748.492-5.5 1.328-1.507 1.209-2.963 2.33-4.47 3.54-.889-.86-1.541-1.93-1.82-3.246-.7 1.213-1.158 3.605-1.738 5.81 3.275-.072 6.463-.195 9.614-.454zM62.624 49.494c.449 2.223 1.148 4.012 1.41 6.357.276 2.123-1.783 2.089-1.234 4.138.28 1.316 1.306 2.139 2.332 2.962.72-.046 1.439-.093 2.245-.09-.556-.436-1.026-.822-1.186-1.146-1.338-3.082 5.526-18.171-5.625-15.256-1.1 1.905 1.902 1.906 2.058 3.035z" fill="#8E8E8E"/><path d="M67.96 62.852c.943-.033 1.8-.116 2.742-.15.87-.305 1.63-1.021 2.08-1.8 1.85-3.205-.975-6.914.22-10.382.515 1.107 1.295 1.557 2.474 1.314 0 0 .758-5.913.901-4.56-.19-2.073-2.19-3.806-2.494-5.482.983-.702 1.88-1.455 2.863-2.158.254-1.239-.04-2.332-.655-3.265-.536-2.272-2.834-4.292-3.593-6.577-1.862.426-3.102.172-4.804.921.772 2.063 3.947 2.163 4.02 5.438-.031 1.253-2.373.71-2.577 1.862-.193 1.735.542 3.661.485 5.36-.114 3.398-.958 6.26-.713 9.635.07 1.08 1.585 3.455 1.472 3.851-.467 1.81-3.31 2.131-4.682 4.11.652 1.07 1.382 1.606 2.261 1.883z" fill="#6D6D6D"/><path d="M61.424 51.573c-.22 2.182.753 9.095 2.268 11.47.72-.046 1.303-.055 2.023-.102l.2-.346c-3.38-4.146-.946-2.163-1.141-5.624-.182-3.685 1.147-4.187-.984-7.496-1.022-1.63-4.23-2.673-4.943-4.24-.889-.86-1.405-1.966-1.598-3.232.91-.975 1.56-2.101 2.21-3.227-3.06-6.5-3.93 8.008-3.93 8.008-1.448 4.706-4.126 4.546-9.063 4.697-1.271 4.001 12.1 1.443 14.958.092z" fill="#A6A6A6"/><path d="M119.3 26.329c1.819 1.05 2.647 4.415 5.413 1.624-2.088-1.783-3.11-3.413-5.413-1.624" fill="#8D8D8D"/><path d="M47.348 62.152c-.696.407-1.356.95-2.152 1.529 2.418.01 4.887-.065 7.27-.191.336-.383.55-.953.293-1.909-1.331-4.694-3.831-.364-5.41.571z" fill="#BABABA"/><path d="M48.048 60.94c.71-.63 5.382-5.322 3.993-5.316 1.922.07 1.888 2.13 3.087 3.053 1.163.786 3.472.387 4.361 1.247-.19.93-2.422.796-2.376 1.515-.027.447.106 1.216.153 1.936.223.013.496-.06.72-.046.942-.034 1.798-.117 2.691-.063.323-.16.633-.096 1.08-.07 1.302-.056 2.468-.075 3.771-.132-.73-.536-1.286-.973-1.742-1.583-2.91-3.758-.981-5.3-1.483-9.631-.239-1.986-2.46-4.539-1.252-.03-.41.109-2.858-1.65-2.298-2.02-.883.529-2.876 2.38-3.646 2.514-3.042.668-6.47-1.195-9.101-.636-.25.433.126 2.382-.288 3.298-.913 1.782-.53 2.119-.49 4.45.104 4.218-.802 4.388 2.82 1.514z" fill="#BABABA"/><path d="M43.223 63.697l4.168-.019c2.963-2.33 3.866-4.696 3.866-4.696l-1.272-1.196s-8.621-2.668-7.644 3.439c.41 2.892 1.96.207.882 2.472z" fill="#B5B5B5"/><path d="M41.34 57.76c1.892 1.323 2.7 3.522 4.67 4.312.016-1.03.2-3.348.563-4.177-.626 1.485.368-4.638.448-2.975-.13-1.576 2.172-.363-.013-2.779-2.604-2.889-2.339 1.652-2.952 2.914.6-1.039.717-2.242.424-3.334-3.559 2.564-4.904 1.094-3.14 6.039" fill="#C4C4C4"/><path d="M44.599 44.515c-.14.842.206 1.042.94.773.14-.843-.157-1.13-.94-.773" fill="#D7D7D7"/><path d="M40.667 47.325c-.306-.87-.653-1.07-1.226-.477-.004.807.343 1.007 1.226.477" fill="#D1D1D1"/><path d="M95.652 61.288c2.518-.162 5.074-.188 7.542-.264 15.172-.478 30.367-.596 45.562-.715.987-1.509 3.528-1.311 1.37-4.174-2.49-3.285-14.864-1.653-14.003 2.654-1.095-1.902-6.147 1.648-6.01 1.61-.765-3.674 3.699-3.406 4.936-5.348 1.1-1.905.322-8.358.243-10.02.02-1.837 2.043-4.94-1.534-6.544-2.179-1.027-7.01.34-8.989 1.969-3.299 2.714-1.928 6.739-3.205 9.35l.1-.173c.758-2.911-2.607-2.083-3.093-4.442-.582-2.992 2.54-5 1.621-7.608-1.897-5.714-3.417-1.28-5.58-.335-4.325 1.89-6.643 1.707-10.356 5.337-1.47 1.345-2.202 1.615-3.339 3.384-.45.779-1.04 2.401-1.403 3.23-.727 1.66-5.353 7.072-5.83 8.298-.73 2.465.296 3.288 1.968 3.791zm15.343-16.775c.69 1.206 9.443 7.645 10.656 5.343-.263.657-.837 1.25-1.533 1.656.137-.037-5.42-.012-5.42-.012-2.379-.68-5.47-2.927-3.703-6.987z" fill="#A9A9A9"/><path d="M101.714 45.39c1.073-1.46 2.489-1.912 4.068-2.848.6-1.04 3.153-3.26 3.792-1.968 5.012-2.88 7.278-4.805 10.465-1.925-3.332 1.771-3.307 7.328-.003 9.005 1.57-1.519.082 3.858 1.731 4.001 3.012-2.417.473-8.618 4.974-11.215 1.63-1.022 3.872-.305 6.197-1.734.8 1.616 1.148 4.012 3.17 3.91-1.623 2.41-3.354 9.61-1.592 12.358-2.013.686-6.61 2.65-5.123 5.472.447.027.807.004 1.253.03 1.553-.489 4.371-1.17 4.594-1.157.124.186-.04.67-.203 1.152 1.476.044 2.915-.049 4.39-.005 2.18-1.975 3.67-5.156 4.03-5.179 1.303-.056 1.842 1.41 2.512 1.45.583-.01 3.278-.878 4.244-.552 1.759.554 1.385 3.802 4.144 2.624 1.056-.43.254-4.241.89-5.144.687-.99 6.026-4.835 7.442-5.288 2.818-.682 4.22 2.09 4.457 1.88 5.47-3.076-3.937-4.582-4.32-4.918-3.474-2.583-.288-4.9-6.125-3.19-2.969.941-6.874 3.306-4.51 7.21-2.15.723-4.508 1.209-6.141 3.037.21-2.765 3.319-1.548 4.692-3.526 2.16-3.141-1.136-9.432-4.368-10.836-1.658-.727-2.688-.744-3.334-.424.113-.396.227-.793.067-1.116-.523-2.495-6.592-4.383-8.368-3.907-1.912.512-2.383 3.127-4.705 3.75-2.322.622-3.348-.201-5.517-.645-1.859-.38-7.138-4.237-9.27-1.542 1.873-2.845-4.349 1.53-4.809 1.727-.783.356-2.355-.32-3.188.122-1.58.936-.444 2.17-1.39 3.008-2.753 2.568-4.395 3.814-5.83 8.297-.49 1.45-4.873 8.04-4.553 8.687 5.671-3.423 2.717-5.706 6.237-10.602zm33.9 2.482c-.116-1.8 2.623-4.144 4.83-6.565-1.787 2.895-1.468 3.541-4.83 6.565z" fill="#A0A0A0"/><path d="M155.004 55.487c-.31-.063-1.596 1.965-2.193 2.198-.87.307-1.88-3.741-3.574-2.41-1.743 1.42 1.889 2.13.856 2.92-1.033.788-2.19 1.391-3.173 2.094l3.498-.06c2.11-.052 4.168-.018 6.19-.12.56-.37 1.157-.603 1.963-.6 1.013-1.955-3.341-1.813-3.567-4.022zM91.248 61.517c1.283-1.222 2.846-4.13 4.192-5.662 4.213-4.496 4.051-10.017 7.84-14.18.337-.383 2.27.27 2.37.097l1.45-2.511c1.432-1.482-1.096-1.903 1.676-3.304 1.819 1.05 2.898.98 5.007.927.75-1.299-1.479-2.239.337-3.384-.117 1.202.413 2.085 1.266 2.809 1.27-4.001 5.117-1.665 5.49 1.09 2.728.075 4.687.282 6.796.23 5.333-.039 4.068-2.848 7.374-4.173 2.86 3.846 6.753-1.297 5.795 4.963-.09.756-9.958 10.647-5.448 11.635 5.217 1.164 7.58-22.528 14.345-6.845.822 1.976 1.451 2.686.488 4.554-1.464 2.735-2.842.323-4.102 1.905-5.735 6.734 4.194 2.536 4.194 2.536s4.209-3.69 8.12-4.665c4.098-1.098 8.399-.347 8.399-.347s-6.435-6.255-4.949-5.628c-2.228-.94-1.156.603-3.981-.105-1.463-.267-2.902-.174-4.191-.34.843.14-4.89-2.131-4.16-1.595-5.147-3.086-1.511-6.183-.017-10.17 1.08-3.072.225-5.99 1.871-8.042-2.794-1.96-7.956 1.18-10.535 3.848-1.956 1.988-.564 4.177-2.854 5.742-.746.493-2.401-1.04-3.62-.128-3.423 2.528-3.3 5.716-8.54 4.192-6.69-2.014-4.24-6.258-12.44-3.255-1.552.489-2.17 2.557-3.262 2.85-2.559.832-4.224-1.284-7 .924-1.98 1.629-.44 1.363-1.79 3.7-.45.78-3.323 5.357-3.537 5.926-.48 2.032 1.452 2.686.585 5.188-.717 2.242-5.199 6.005-7.152 7.187-1.256.776-3.341 1.188-4.311 1.667-1.716.973-2.19 1.392-3.249 2.628 2.642.024 5.16-.138 7.543-.264z" fill="#9F9F9F"/><path d="M170.774 59.973c.873-1.112 1.696-2.138 1.08-3.071-4.8.115-3.33-1.23-7.353 2.336.246.373.32.647.393.92 1.935-.153 3.908-.169 5.88-.185z" fill="#898989"/><path d="M167.059 50.207c-.866-.5-1.359-1.246-1.342-2.275-.86.889-4.545 12.271-1.303 11.256.08-1.339 1.302-8.255 2.645-8.98m-4.543-1.93c-1.973.015-2.31.398-2.926 2.467.7-1.213 1.893-1.679 2.926-2.468" fill="#9F9F9F"/><path d="M158.644 17.983c1.013-1.956-2.571-1.947-2.182-.22.48.969 1.236 1.059 2.182.22" fill="#D8D8D8"/><path d="M154.66 4.482c1.15-1.992-1.818-1.05-1.905-1.1.26.15.606 3.352 1.906 1.1" fill="#D1D1D1"/><path d="M149.373 38.841c1.135 1.233 2.238 1.524 2.741-.149-.942.033-1.799.116-2.741.15" fill="#8D8D8D"/><path d="M92.91 61.437c.74-1.882 1.307-3.864 1.56-5.103-1.989 1.046-2.372 3.71-3.446 5.17.583-.01 1.303-.057 1.886-.067z" fill="#A0A0A0"/><path d="M121.831 28.945c-.196-.46-.48-.97-.626-1.516-1.516.626-.953 2.451.626 1.516" fill="#9F9F9F"/><path d="M128.726 32.002c.04-.67-.306-.87-.816-.587-.177.707.17.907.816.587" fill="#8D8D8D"/><path d="M49.996 63.566c2.692-.063 5.384-.125 7.99-.237.086.05.136-.037.223.013l.05-.087c.29-1.102 2.962-2.33 2.912-2.244-.861-4.308-2.761-1.017-5.1-2.367-1.595-1.037-3.282-6.514-5.798-4.156-1.333 1.308-.415 3.917.548 5.05 1.894 3.519.541 3.662-.825 4.028z" fill="#C4C4C4"/><path d="M44.43 51.807c-.2.347-2.94 5.693-.398 5.89 2.182.22 1.2-5.08.398-5.89" fill="#E3E3E3"/><path d="M102.971 61.01c.424-3.334 2.385-9.13.243-10.02-.723.852-3.036 5.06-3.92 5.589-1.256.776-3.93-.191-4.854 1.008-.873 1.112-.01 2.418.989 3.688 2.555-.026 5.074-.188 7.542-.264z" fill="#B6B6B6"/><path d="M92.823 61.387c.25-.433.82-.22 1.303-.056l1.08-.07c.1-.173.25-.432.19-.929-.043-1.526-2.242-.717-.992-2.882-.647.32-1.423 2.065-2.387 3.934.31.063.533.077.806.003z" fill="#A8A8A8"/><path d="M112.149 52.915c.83.363 9.368-.827 9.618-1.26-.02-1.166-4.406-4.968-5.742-5.855-2.065-1.423-3.914-1.22-5.255-3.496-1.204 2.884-1.716 9.17 1.379 10.611zM119.591 41.624c-1.41 1.842.029 4.75 1.424 6.133 1.724-2.584 1.001-4.733-1.424-6.133zM130.589 50.975c6.037-2.057-4.72-4.226 0 0" fill="#9F9F9F"/><path d="M120.712 49.083c.003-.806-.343-1.006-1.04-.6.047.72.393.92 1.04.6" fill="#E8E8E8"/><path d="M134.66 39.123c1.852 1.993 3.341 1.814 4.232-.328-.52-.3-3.928-.998-4.231.328m-3.927 18.402c-.833.443-1.01 1.15-.927 2.005 1.18-.243 1.493-.985.927-2.005m4.227.478c-.453-1.416-1.536-.54-1.709-.64.456.61 1.026.823 1.709.64" fill="#9F9F9F"/><path d="M108.863 36.007c-.853-.724-1.4-.577-1.776.475.816.587 1.362.44 1.776-.475m14.934 2.733c.77-.133.97-.48.7-1.213-.856.084-1.056.43-.7 1.213" fill="#A9A9A9"/><path d="M140.746 31.783c-.399-2.31-1.392-2.19-2.805.458.98.104 1.886-.066 2.805-.458" fill="#8D8D8D"/></g></g><path fill="#2E9B0E" fill-rule="nonzero" style="mix-blend-mode:color" d="M0 0h302v58H0z"/></g></svg>