<svg width="23" height="19" xmlns="http://www.w3.org/2000/svg"><g fill="none"><path d="M1 0a1 1 0 0 0-1 1v7.5a1 1 0 0 0 1 1h4.345c.552 0 1.008.45.921.996a6.354 6.354 0 0 1-5.27 5.26C.451 15.841 0 16.28 0 16.832V18c0 .552.45 1.006.998.948 4.78-.5 8.52-4.546 8.52-9.448V1a1 1 0 0 0-1-1H1zM14.483 0a1 1 0 0 0-1 1v7.5a1 1 0 0 0 1 1h4.345c.552 0 1.008.45.921.996a6.354 6.354 0 0 1-5.27 5.26c-.545.086-.996.525-.996 1.077V18c0 .552.449 1.006.998.948 4.78-.5 8.52-4.546 8.52-9.448V1a1 1 0 0 0-1-1h-7.518z" fill="#433099"/></g></svg>