<svg width="296" height="58" xmlns="http://www.w3.org/2000/svg" xmlns:xlink="http://www.w3.org/1999/xlink"><defs><path d="M140 0H0v58h296V0H172.9C162 .1 151 .2 140 0z" id="a"/></defs><g fill="none" fill-rule="evenodd"><path d="M140 0H0v58h296V0H172.9C162 .1 151 .2 140 0z" fill="#054CC7" fill-rule="nonzero"/><g opacity=".8"><mask id="b" fill="#fff"><use xlink:href="#a"/></mask><g mask="url(#b)" fill-rule="nonzero"><path d="M61.649-1.064c.6 2.3 3.3 4.6 4.7 5.9 3.2 3.1 3.7 4.3 8.7 1.5 3.4-1.9 1.4-2.3 5.4-2 1.8.1 2.7 2.2 4.8 1.2 3.1-1.4-.1-3.4.7-5.7 3.3 1.5 3.3.3 3.6-1.2l-27.9.3zM33.549 24.236c1.7-.6 4.6-6.9 4.3-8.2-.4-1.7-5-5.6-6.2-6-2.9-.8-3.5 1.3-5.8 1-1.3-.1-.8-1.8-1.2-1.9.2-.6.1-1.2-.3-1.5-.8-.9-1.9-.6-3.4.7-.8-.5-1.4-.7-2.2-1.3-1.2-.9-2.8-5.1-3.2-6.6-.4-1.3-.5-2.1-.3-2.6-.8-.1-1.5-.1-2.3-.2-5.1-.4-10.2-.2-15.3-.5-.6 0-1.1-.1-1.7-.1-1 14.9-.1 29.9-.8 44.7 0 1-.1 2-.2 3 3.7 4.9 4.3 0 6-3.3 2.1 3 .8 2.8 3.5 3.6-.5-.1 6.8-.9 6.3-.5 4.2-3.2-4-5.5-4.3-5.9 1.1-1.7 4.7-5.8 7.2-4.3 2.6 1.6-1.7 2.5.1 4.6 1.8 2.2 10.6.8 12.2.5 0 0 6.8-2.4 6.6-2.2 1.8-2.3-1.5-2-2.2-2.6-2.4-1.9-4.7-1.5-7-1.5-.6 0-7.5 2.2-5.4-1.6.6 3.2 3.1 1.9 4.5.9-1.2.8 3.2-1.7 2.4-1.3-.4.1.6-2.3 1.1-2.6 1.3-.8.5 2.1.6 2.1-.2.8.1 1.3 1 1.5.7-.3 1.3-.8 1.7-1.4 1.8 0 7.8-1.2 2.7-3.7 3.2 1.6 5.1-.6 1.6-2.8z" fill="#3A3A3A"/><path d="M94.449-1.264h-5.4c-.2.7-.4 1.2-.5 1.2-.8.2-1.1-.6-1.4-1.2h-1.8c-1.4 1.6-1.7 4 .4 5.3-1.6 2.1-3.3.8-5-.4-1 .5.4 4-2.3 3-3-1.2.8-2.3.7-3.3-3.3-.9-4.8 2.4-7.8 3.9-2 1-5.6-1.2-5.4 3.2.3 5.6 6.1 0 7.4-.2.3.5.6.9 1 1.4 1.3 1.6 2.7 1.7 4.2.3 1.8-.4 3.1-3 5.2-3.4.4-.1 1.8 1.6 2.8 1.6-.3 0 4.6-.7 3.9-.3 1.7-1 2.9-5 3.7-6.7.7-1.4.7-2.8 1.1-4.3-.1-.1-.5-.1-.8-.1z" fill="#424242"/><path d="M302.249 27.036c.4.4 1.3.3 2.2 0 .1-5.8.3-11.5.6-17.3-2.6-.4-6.1-.6-6.7 1.3 1.3-3.7-7.1-5.1-9-4.1 3.2-3.8.7-4.6-1.7-8.3h-28.9c-3.6 4.1 3.4 5.7 3.5 5.9 0 .1-2.7.8-2.2 1.5 1.8 2.4.6 1.8 3.6 3.7 3.4 2.1 5.5 2.8 7.6-1.3-2.6 5.2-3.6 7.5 1.1 11.9 1.9 1.8 12 6 9-1 1 1.7 4.9 2.6 5.6 1.2.7 3.3 3.1-.9 3.5-1.3-.1.2-.5 1.4-.3 1.7 1.4 1.8 5.9-1.6 7.2 1.7.6 1.4-1.9 3.7-1.8 5 .2 5.5 11.4 6.1 6.7-.6z" fill="#4C4C4C"/><path d="M306.249 56.436c-.5 1.4-1.1 2.9-2.7 3.4s-3.3-1.2-4.9-.8c-.8.2-3.3 1.6-4.1 2.9 0-.8.1-1.7.7-2.5 1.2-1.7 5.2-2.7 5.1-5.1-.1 5.2 2.8 1.5 5.5-.2-.4-2.5-.7-4.9-.9-7.5 0-.5-.1-1-.1-1.4-2.1.1-4.2-.3-4.6-1-3.8 4.4-2.7-1.9-.1-4.4.8-3.9 2.5-4.7 4.3-5.5 0-2.9 0-5.9.1-8.8-1.8 0-4-.5-4.4.1-.9 1.3 3.8 3.3 2.3 4.9-.8.9-3.7-.6-4.1-.9-2.1-1.6-1.2.6-1.6-2.6-.4-3 3.1-3.6.1-6.2-3.1-2.7-4.1.6-6.2-.6 1-1 1.1-2.1.3-3.2-2 .4-1.1 3.5-3.6 3.8.7-.8.7-1.6 0-2.3-1.2.3-1.6 1.1-1.3 2.4-.6-.9-4.7-3.3-6-2.9-1.8.6 2.7 7.2-4.9 4.2-1.6-.6-8.3-9.9-6.9-10.5-1 .4-1.7 3.9-2.4 4.9-1.4 2.1-3.6 3.1-4.8 5.6-1.5 2.9-1.9 9.5 3.6 5.8-8.5 5.2 7.5 6.5 4.4 12.2-1.2 2.1-7.6 1-8.7 1.7-4.5 3.2-1.4 9.9 4.1 7.8 2.2 1.6 2.3 9.4 3.8 11.4.5.7 2.1.1 2.9.5 2.1 1.2 1.3 4.2 4.3 1.3-.5.7-.5 1.5-.2 2.4 10.9 0 21.8-.3 32.7-.8-.7-2.7-1.3-5.4-1.7-8.1zm-11.7 8.5c-.1-.1-.1-.2-.2-.4.2-.3.2-.7.2-1.2.2.2.4.4.7.5-.4.2-.6.6-.7 1.1z" fill="#595959"/><path d="M216.649 39.736c1.1.5 3.6.7 6 .9-.4.9.3 1.5 1.3 1.9-6.8-1.7-.1 4.8 2 5.8 1.5.7 2.9.3 4.5 1.2 1.1.6 1.9 2.4 3.5 3.2-3.5 2.9-2.8.9-1.6 5.3.5 1.7 1.7 3.9 2.3 5.8.1.2.1.4.1.7 8.9.3 17.9.5 26.9.7 3.7.1 7.4.1 11.2.1-.4-.4-.8-.5-1.2-.1.7-3.3-8.1-2.6-10.6-3.7-1-.5-4.2-1.6-6.3-2.6 1.7-.6 3.8-3.2 2.3-4.8 3.7 2.6 4.3 1.9 3.6-1.9-.5-2.8-4.2-3.8-6.2-4.3-.2-.8 1.5-1.7.2-2.3 2.3 1 3.3-2.4 3.1-3.7-.3-1.8-4.1-5.6-4.5-2.1-1.7-4.7.9-7.6 4.6-7.9 1.3-.1 9.2 4.1 9.1 4.2.8-.8-4.7-5.6-5-6-1.3-2.5.2-4.4-.5-6.3-.3-.8 1.2-2 .2-2.7-2.7-.7-3.3 6.6-4.3 7.5.5-.4-5.9.5-6.2 1.1.1-.8 1.6-4.6 1.2-5.9-1.4-4.2-4-1.3-6.7-1.7-.5-.1-3.2-1.6-3.6-1.8-2-.7-2.8-1-3.2-1.1.1-.1-.1-.4-1-1.2-.9-.8-3-7.4-6.5-5.7.2-.1-1.1 5.7-1 6 .1 1.4 2.8 2.1 2.2 3.6-.4 1.3-4.5.7-5.7 2.3-1 1.5 3.2 9.2-2.5 8.5.7.1-8.7-6.8-3.7.7-.9-1.2-1.8-2.1-2.2.3-3.8-11.7-9.4 2.5-1.8 6zm10.7 1.2c.9.1 2.3-.7 2.8-.6 1.4.3 3 2.4 3.8 2.4-1 .1-3.1.5-2.8 2.1-.8-2.8-2.3-2.5-4.6-3.4-.2-.1-.5-.3-.8-.6.7 0 1.2 0 1.6.1z" fill="#676767"/><path d="M33.349 61.136c-.5-1.5-1.2-3.4-2.1-3.4-1.8 0-1.7 1.5-1.3 3.2 1.1.1 2.2.1 3.4.2z" fill="#5B5B5B"/><path d="M30.549 61.036c0-.5 0-1 .1-1.5.1-.6 10.2-11.2 4.6-10.5 2.5-.1 3.8-7.2 5.3-9.5.3-.4 2.9-3 2.8-3.2-.1-.2-.1-.4-.2-.5 3.3.4 4.2-5.4 2-8.3-.9-1.2.7-2-1.1-2.3-.7-.1-4.2 3.2-4 4-3.1-1.8-5.4 1.9-5.7 4.3-.5 3.9 3.5 2.2-.6 6.3-.5-2.1-4.2-2.3-5.8-1.5-3.9 2.1-.5 3.8-2.5 6.3-1.5 1.9-3.9.4-5.1 2.2-1.6 2.4-.7 8.3 3.1 7.5-4.4 1.3-2.8-3.4-5.8-4-2.7-.5-2.4 2.3-4.2 3.9-5.4 4.8-6 .3-11.3-.6-2.4-.4-5 .7-7.4 1.7 0 1.8.1 3.6.1 5.4 11.9-.9 23.8-.4 35.7.3zm11.3-25.7c-.4 0-.8-.1-1-.7.4.3.7.5 1 .7z" fill="#4E4E4E"/><path d="M40.649 16.536c-.9-1.4-4.5-7.5-5.8-7.6-1-.1-3 0-3.4 1.7-.9 3.5 3.6 2.6 4.9 4.4 2 3-1.6 8.3-4.6 7.9-.6 1.3 4.2 3.6 2.4 4.7-1.2.8-3-2.8-3.8-1.6-1.4 2.1 3.9 1.8 2.6 3.8-1.2 1.9-3.4-2.3-5 1.7-1.4-1 1.6-6.3-2.9-3.3-2.6 1.7-.9 1.9-1.2 4.3-1.3-1.2-2.8-1.7-4.6-1.5.7.7.8 1.5.3 2.2-1.2-.7-1.6-1.8-1.1-3.5-4.8 5.6 3.1 4.4 5.6 4.7 1.9.2 5.9.5 8 2-1.7 1.8-2.8 0-4.9.6-.6.5-1.2 1.2-1.5 1.9-.4 1.2-1.1 1.2-2.2-.1-.5.1-7.8.7-8.1.4-2.7-2 2.5-3.5-.6-5.7-1.8-1.2-10 2.7-10.4 4.7-.3 1.6 3.3 1.4 3.6 1.8 1.9 2.4.4-3.9 2.2 3.8-3.5-.4-4.7-1.6-6.9 1-.4-2.1-1.3-4.2-3.5-5 .3 2.5-2.3 9.3-2.3 4.6-1.2-.3-1.9-.7-2.3-1-.1 2.5-.3 5-.4 7.4.1 1.3.1 2.6.1 3.9v1.2c.6-.2 1-.4 1.3-.5 1.2-.6 4.1-1.7 5.4-1.6 4.4.5.7 2.5 4.5 3.5.8.3 4.3.3 4.9.1 2.5-.9 4.1-6.2 5.7-6.5 2.8-.6 1.9 6.4 6.9 4.1 3.6-1.7 0-2.5-.1-2.5-.6-1.1-1.5 1.8-2.8-2.3-1.1-3.7 1.2-3.7 4.1-2.7.4-2.5 3.4-2.6 3.4-2.6.1-.5-.5-2.8-.7-2.3 1-2.3-3.3-1.6.9-3.8 4.2-2.2 2.5 1.3 4.3 2.3.6.4 3.4-2.4 3.8-3.1.9-1.9-.4-.5.1-3.1.3-1.7-2.1-1-.6-3.6 1.3-2.4 3.5-1.9 5.8-1.9-.3-.4-.5-.8-.9-1.3 7.1.8 1.1-9.5-.2-11.6z" fill="#4B4B4B"/><path d="M27.149 6.736c-3.2-1.4-3.4.6-5.5-3.9-.2-.4-.8-3.2-1-4.6-1-.1-2-.1-3-.2-.1 3.7-.2 8 .9 9.3 1.6 1.8 2.2.1 4.1.8 2.7 1 5.6 2 8.9 2.4 3.3 0-3.5-3.4-4.4-3.8zM96.349-1.264c-.1 0-.1.1-.2.1 0 0 .1-.1.2-.1h-1.8c-1.1 2.5-1.8 5.5-2.4 6.6-.2.3-2.5 3.3-2.7 3.4-1.7.8-2.1-1.5-3.6 1-4.5-6.5-5.6 3-10.5 1.9-1.3-.3.1-3.1-1.6-3-2.7.1-3.4 1.4-4.9 4.1-5-1.8 2-4.4-1.6-7.2-1.7-1.3-6.2-1.3-6.6 1.6 0 0 2.7 5.5 2.6 5.2 1.2 2.3-4-.1 1.2 3.2.6.4 4.4.4 5.1.3 1.1-.3 2.7-2.5 3.5-2.5 1.5 0 2.6 1.7 3.7 1.8 2 .2 2.9 1 5.3-.2 4.1-2.2.6-2.9 7.3-2.5 1.5.1 9.8-.6 10.9.3-.6 2.8-4.7 3.9-4.7 5.5-.1 2.2 4.4 2 3.8 5.1-.4 2.1-4.2 1.2-5.3 3-2.1 3.5.5 3.1 1.4 4.1.3.3.9 2.3 1.7 3.2.7.8 3 3.9 3.6 4.3 4.8 3.4 7 1.7 10.8-1.2 3.1-2.4 10.3-9.1 5-10.6-4.7-1.4-12.7 1-11.3 6.4-.7-2.3-2.1-2.7-2.5-2.2-.3-1.2-1.4-1.2-2.7-.7.2-.1 1.3-1.3 1.7-1.7 2.2-2.2 1.4-1 4.3-1.4 2.2-.3 4.6-.5 6.1-.8-.7.1 5.7-2.1 5.2-1.3 2.1-2.2 1.4-8.4-1.9-7.8 2.4-.5 5-6.6 7.3-8.2 2.2-1.5 5.1-1.5 6.7-3-.6.6 1.1-2.9 1.5-3.8.5-.9 1.2-1.3 1.7-1.8-12.2-.3-24.2-1-36.3-1.1z" fill="#515151"/><path d="M68.949 7.136l-1.2-3c-3 1.6-4.3-1.9-4.6-5.2-2.2 0-4.4.1-6.6.1 2.2 1.9 5.6 2.8 4.8 5.5-.7 2.3-3.8 1.4-3.9 4.4 0 1.1 3.2 6 4.4 6.2.5.1 3.6-2.8 3.6-3.8 0-1.5-2.7-3.2-3.6-4.4 2.7-2.7 4.2-1.5 7.1.2zM18.749 6.236c-.2-.2-.4-4.5-.7-8.1l-4.5-.3c0 .3.9 4.1 1 4.2 1.8 3.9 4.3 11.4 9.3 6.1-2.5-1-3.7.1-5.1-1.9zM28.949 10.236c-1.5-1.1-3.2-1.8-5-2.2-.4 4.9 1.2 4.8 5 2.2" fill="#4B4B4B"/><path d="M79.249 3.336c-2 .8-3.6 4.6-.3 4.1 2.5-.2 2.8-3.5.3-4.1" fill="#515151"/><path d="M261.149 7.936c-.7-2.5 3.2-3.4.8-5.1-1.1 3.6-3.7-1.3-2-4.1-6.6 0-13.2 0-19.8.1-.4.6-.9 1.3-1.2 2.2-1.9 4.5.3 3.8 1 8.4.3 2-1.6 1.6-1.7 3.2.5.9 1 1.7 1.7 2.4-.3.9-.8 1.6-1.6 2.1 1.1 2.5 1 1.9 3.5 3.6 3.7.6 4.8 1.9 6.9-2.1 0 2.6 3.8-.1 4.9-1 1.4 2.6-1.4 6 3.2 6.3.7 0 7.7-3.7 6.2-5.1-.3 0-.6 0-.8.1 1.9-1.7 1.6-3.3-.5-5.1 2 1.3-.5-4.3-2.3-5.8 1.3 1 4.5 5.8 6.7 3.1.9-1-5.2-3.6-5-3.2zM304.949 10.536c0-1.2.1-2.5.1-3.7-.1.1-.2.1-.4.2-2.8.9-4.3-1.8-2.9-3.8.5-.7 1.9-1 3.4-1.3v-.1c-3.3-4.3-2.3-2.6-5.7-1.6-.4-.5-.6-1-.5-1.4h-12.7c.8 1.7 3.2 3.4 3.3 4.5.2 2.9-1.2 2-2.8 4.9 1.9 1.7 11.4-2.8 10.1 4.1.5.3 6.3-1.9 7.6-1.8h.5zM283.649 9.036c-1.5-1.4-.5-3 .2-4.7-5.3-2.9-4.7 3.3-9.2 2.5.3.3 7.1 4.6 6.5 4.7 1.8-.3 4-1.8 2.9-4-.1.5-.3 1-.4 1.5z" fill="#595959"/><path d="M265.949 10.836c-4 1.8-5.6-5-8.4-4 1 1.1 6.3 4.8 4.5 6.5-4.6-4.8.2 2 .2 2 .1 2.2-2.6 3.9-2.5 5.9.8-.7 1.7-1.3 2.7-1.6-1.2.8-1.5 1.7-.9 2.7 1.4-2.2 3.5-3.3 4.9-5.4-2.9-2.7-2.8-1.6-.4-4.5-1 1.3 6.2-3.7 3.9-2.8-1.3 1.1-2.1 2-4 1.2" fill="#626262"/><path d="M284.849 15.936c-.3-3.6-.4-3.1 1.3-5.5-4.3-1.2-2.5 5.6-1.3 5.5zM269.949 9.636c.9 1.2 1.9.4 2.9-2.2-1.4-1.2-2.5 1.5-2.9 2.2z" fill="#595959"/><path d="M239.449 12.736c.6-.5 1.2-.7 2.1-.5.3-3.1-2.6-5.6-2.7-8.6 0 .3 2.3-4.8 1.8-4.4.2-.1.4-.3.6-.4-6.2 0-12.4.1-18.6.2-.9 1.5-2.4 4.2-2.4 4.3-.3.8-.1 4.4.1 3.7-1.3 3.6-2.7 7-3 10.4-.1 1 2.6 2.3 2.1 3.1-.9 1.2-4 .6-4.8-.1-2.5-2.1.9-5.4-2.5-5.9-1-.1-4.6 4.2-5.9 3.1-1-.8-.4-8.1-.8-10-1-4.3-.2-6-3.7-8.1-.1 0-.1-.1-.2-.1l-13.3.3c.5 1.2 1.4 2.1 2.8 2.9 1.9 1 4.7.3 6.9 1.3 1.9.9-1.7 4.7 3.1 3.2-3.1.8.1 4 .5 5.6.4 1.8-1.2 2.4-.5 4.2 1.2 3 3.3 4.5 4 7.9.4 1.9.2 3.1.4 4.6.6 3.6.1 3.4 3.5 4.6 7.5 2.6 3.5-3.2 2.6-7.5 2.7.8 4.9 7.9 7.5 7.6-.5 0-.3-.4.8-1.3.8.8 1.2 1.7 1.4 2.8 1.5-1.5-1.7-4.6.4-5.3 4.3 7.3 10.1.6 7.9-4.9-1.1.9-1.7.9-2-.2.5-4 6.2.5 6.3-5.2-1-.4-1.8-1.1-2.3-2.1-.3-.8 0-1.2.8-1.2.3 1.5 0-3.6 0-3.9 2.6 1.5 3.9 3.8 4.8 4.8.4.4-1.4 1.3 0 2.3 1.7 1.2 3.1.9 5.1.8-4.3-3.4.7-5.6-2.8-8z" fill="#626262"/><path d="M198.249 57.536c-3.4 1.1-1.5 7.1 1.5 5.1-.3.3-.5.5-.6.8 11.9.3 23.8.7 35.7 1.1-.6-3.5-1.3-8.7-1-9.2-.6.3-1.3.5-1.9.7-2.9-2.6 5.9-2.1 3.6-4.8-.9-1.1-2.4 1-3.4-.5-1.7-2.7-2.8-2.1-6.2-3.5-1.3-.5-7.8-4.3-2.5-4.3 1.2 1-2.6 3.3 2.2-.3-2.5-.3-3-1.3-1.6-2.9.4 1.4 5 3.6 5 3.6 2.5.8 1.2 2.7 3.4.3 1.4-1.6 1.6-3.9-1-4.7-1.7-.5-3.1 2.1-4.7 1.9-1.1-4.1-7.8-1.8-11.5-2.1.1-1.9-3.7-7.5-1.4-9.9-.1-.8-3.5-5.4-4.4-3.8-2.2 3.5 8.2 6.3.5 9.4-.4.1-1.4-1.4-3-.6-2.4 1.2-.3-.6-2.1 2.1-2.3 3.4-1.8 11.8-4.9 14.1-1.7 1.3-5.3-1.1-6.2 2.8-.3 2.9 1.9 5.1 4.5 4.7z" fill="#747474"/><path d="M306.649 58.636c-.4-1.8-.7-3.6-.9-5.5-1.4.6-2.8 1.9-4.4 3.1-1.7-.8.3-4-2.9-2.1l1.3.5c-.6.6-1.4.7-2.3.4.4 1.1-4 4.9-4.7 6.9-.3.7.8 2.2 1.2 2.9.7 0 1.4 0 2.1-.1.2-.5.6-1.1 1.4-1.6-.7-.1-1.4-.3-2.1-.4 1.5-4 7.7-1.7 11-2l-1.1-1c.3-.2.8-.7 1.4-1.1zM253.649 42.036c.3-1.5.3-3.3 2.1-2.4-.6 1.6 2.9 3.9-.1 4.5-1.4.3-1.2.5-2.5-.9-.1 2.6.5 2.9-.8 5.3 1.5 1.4 3 1.4 4.4-.1.7.8-1.1 1.7 0 2.7.3.3 5.1 2 3.3 3.6-1.9 1.7-3.2-4.2-5 0 3 .6-.3 3.4-1.9 3.9 1.1 2.2 1.9.2 4 1.5.9.5 2.4 2.5 2.8 2.7 3.3 1.6 6.3 1.6 10.2.6.5.6.5 1.2.5 1.8h6.2c-.2-1.5.6-3.2-.9-4.2-3.2 5-3-2.1-7.1-.5-.4-2.8-.8-3.6-1.6-6.3.2.6-1.3-4.3-.9-3.9-3.1-3.1-3.1-.1-4.5-1.1-1.5-.9-3.2-1.7-2.8-4 .6-4.8 3-.5 5-1.3 1.1-.5 3.6-4.4 5.6-1.7 1.8-2.9 1.3-2 .5-4.2-1.3-3.8-.4-1.4-4.5-3.9 1.3 1.6-6.9 1.7-8.2 2.8.7-1.9 4.5-2.9 1.7-6.2.3.4-5 .1-4.3-.3-2.9 1.4-6 11.1-1.2 11.6zM260.349 27.336c.1 1.5.7 2.8 1.9 3.7.4-2.2 3-1.3 4.4-2.8-1.5-.8-.4-1.5-1.9-1.9-1.8-.5-1.5 3.3-4.4 1" fill="#626262"/><path d="M268.149 12.736c-2.1-1.9-6.1.2-4.4 2.9 1.9 3.1 5.5.7 4.4-2.9" fill="#A8A8A8"/><path d="M262.149 31.036c.6.5 1.2 1 1.9 1.6 0-1.2-.7-1.7-1.9-1.6M261.549 22.636c-.2.7-.4 1.4-.6 2.2.8-.6 1-1.3.6-2.2M256.349 23.536c-2.8-1.7-.6-4.5-2.6-7.5-.4.4-3.5 3.5-4.3 2.6.3-.6.6-1.1 1-1.7-2.5.4-4 2.6-4.7 4.8-.2-.5-.4-.9-.5-1.4-1.8.1-2.2 1-1.3 2.6 3.1-1 4.7-.9 7.5-.6.5.1 4.5 3.5 4.9 1.2" fill="#626262"/><path d="M259.049 30.736c-.9 1.8-.9 3.5-1.2 5.2-.2 1.2-4.1.5-1.7 2.8 0 0 9.1-3 9.3-3.4-2.3-1.6-4-3.4-6.4-4.6" fill="#595959"/><path d="M246.649 32.336c.6-.4.9-.9.8-1.7-1.8-.5-3.6-.4-5.4.4.6.6 1.3 1.2 2.1 1.7-7.3 5.6 11.4 2.6 2.5-.4m5.3-9.4c.2-.2-1.7 5-1.6 4.7-.1 1.3-1.8 4.7 1.5 3.4 2.2-.9 4-8.3.1-8.1m-6.7 33.5c4.3-1.9 1.6-1.1 4.1-3.8-1.2-.7-13.5 2.1-4.1 3.8" fill="#626262"/><path d="M243.249 48.936c.4-.9.6-1.6 1-2.4-5.2 1.2-1.9 8 1 5.2.9-.9-1.6-2.7-2-2.8" fill="#747474"/><path d="M239.449 42.636c-.3-2.1-1.2-2.1-2.6 0 6.1 5.9 5-3.7 2.6 0" fill="#626262"/><path d="M253.849 24.536c0 2.2.2 5.4 3.2 4.6 5.4-1.5.1-7.7-2-4.4.1 1.3 2.2.9 1.8 2.3-.4-.1-3.1-4-3-2.5" fill="#A6A6A6"/><path d="M231.949 33.736c-.1.5-4.9 1.7-2.5 3.4 2 1.3 6.6-2.5 2.5-3.4" fill="#626262"/><path d="M253.849 24.536c.8 0 1.2.2 1.2.6 1.6-1.3 2.7-1.1 4 .5.6-4.4-.6-1.1-2.8-2.2-.4-.2-4.8-1.4-4.9-1.2.8.9 1.6 1.6 2.5 2.3z" fill="#828282"/><path d="M261.249 31.336c-.3 1.2-.4 2.3.3 3.6.2-1.4 1-1.7 2.6-.8-1-.9-2-1.8-2.9-2.8m-14.2 9c2.7 2 3.8-3.2 0 0M256.649 23.536c1.9.4 2.5.4 3.7-1.2-1.5-.1-2.7.3-3.7 1.2M233.649 42.236c-.8-.5 2.5 2.6 2.1.6-.4-1-1.1-1.2-2.1-.6" fill="#626262"/><path d="M233.949 44.636c-.1.9 1.5 1.7 2 .6.6-1-1.8-.6-2-.6" fill="#747474"/><path d="M254.649 28.336c-.3-1-.5-2.1-.8-3.2-.8 1.7-.4 2.9.8 3.2z" fill="#828282"/><path d="M249.749 41.836c-1.1-.7 2.1 1.5 1.6.2-.3-1.2-.8-1.3-1.6-.2zm-8.9-5.7c.6-1.2-.5-1.8-.6-2.7-.4 1-.3 1.3.6 2.7zm-22.1-2c-.4.7.1 2.7.8 1.6.1-.7-.2-1.2-.8-1.6z" fill="#626262"/><path d="M245.549 46.736c-.7.6-.7 1.2 0 1.7.7-.6.7-1.1 0-1.7" fill="#747474"/><path d="M226.749 41.036c1.5.5 1.6-1.5.6-1.8-.4.5-.6 1.1-.6 1.8M252.549 52.536l-1.1.6c.4.6.8.4 1.1-.6m-1.6-26.2c.3-.7.1-1.3-.6-1.7-.4.7-.2 1.3.6 1.7m-19.5 18.4c-.7.4-.9.7-.5 1.5 1-.2 1.2-.7.5-1.5m-8.8-7.6c.4 0 .9.1 1.3.1-.3-1-.7-1-1.3-.1" fill="#626262"/><path d="M43.649 60.836c-.2.3-.2.6-.3.9 5.4.3 10.8.7 16.2.9 1.6-2.6 4.2-2.4 3.7-6.3-.1-1-2-1.3-2.7-1.9-2.1-2-.4-3.5-4.6-2.5 1.1-1.5-.4-2.3-.6-3.7 1.4-1.2 1.9 1.6 3.2 1.1 1.9-.7 3-1.1 3.6-1.3-.5 0-.9-.1 0-1.1-.3.4 2.3-4.6 2.4-4.4-.2-2.9-.2-1.3-2.5-1.8-7-1.7-6.6 3.2-11.6 5-1.8.6-2.1.5-3.3.5-1.6 0-2.3-5.5-3.2-.6-.6 3.2 3.1 8.5 2.6 11.4-.3 1-2.4 2.8-2.9 3.8z" fill="#777"/><path d="M45.149 61.936c-.1-.8-.4-1.5-.9-2 3.4-1.4 2.3-1.1 3.2-3.8-.9 2.6-1-7-.3-3.9-.6-2.5-2.1-8.5-4.3-6.2-1 1.1-4.9 19-10 12.4-1.2.9-1.4 1.8-1 2.6 4.5.3 8.9.6 13.3.9z" fill="#6A6A6A"/><path d="M32.549 61.136c.2-3.2 5.8-7.1 7.5-9.9 1-1.8 1.8-6.5 3.4-7.9.9-.8 3.1-.7 3.5-1.3.6-.9.4-2.1 1-2.9 2.4-3.4 2.5-4.5.9-8.5-.5-1.3-1.1-6.7-4.1-2.6-1.7 2.3 2.7 3.5-.6 5.3-.5.3-4.5.3-4.4.1.3 1.7 1.3 2.5 2.9 2.4-2 1.6-2.3 3-4.8 3.4 1.7 1.3-.4 5.4-1.6 7.1.4-.5-2.8 4-2.8 3 0 1.7 3.2-1.1 1.4 4.7-.3 1.1-2.3.6-2.5 1-.7 1.5-.8 4.4 0 6.1h.2z" fill="#5E5E5E"/><path d="M48.049 24.636c9.4-2.3-2.1-16.8-6.7-10.8-3.5-4.6 6.8-6.6 8.8-8.3.6-.5 3.3-4.3 3-6.4h-4.4c-2.1 1.2-4.5 2.8-5.5 3.2-.4.2-5.2 2.1-5.5 2.5-1.1 1.1.4 2.4.1 3.6.1-.9-.4-2.2-1.6-2.3-.9-.1-4.4.7-4.9.9-.3.1-2.6-1.4-2.6.5 0 2.7 4 2.9 5.5 2.1.8 2.1 2.5 1.9 3.5 3.4 1.6 2.2 1.4 5 2.5 7.2.3.6 2.2.6 2.6 1.3.7 1.2-.3 2.1.1 2.8.1.2 1.9 1.6 1.8 1.2.2 1.2-.8 1.8-.3 3.1.6-1.3 2-1.7 3.4-.9.8 1.6 8.6 4.2 10.6 3.5 2.6-4.6-9-6.1-10.4-6.6z" fill="#5A5A5A"/><path d="M30.249 41.636c2.1 0 .6-3.5-.9-2-.8 1-.4 1.6.9 2" fill="#C5C5C5"/><path d="M2.249 56.836c0-.1-2.1-2.9-2.4-1.7-.3 1.1 1.8 2.3 2.4 1.7" fill="#4B4B4B"/><path d="M10.349 50.536c2.1.3.7-5.1-1.9-5.4-5.8-.6-2.8 5.2 1.9 5.4" fill="#4E4E4E"/><path d="M22.749 41.036c-2.9-1.6-6.1 2.9-3.5 4 3.4 1.3 2-2.8 3.5-4m-10.1.8c2.2-1.7-1.6-2.7-2.1-1.4.3 1 1 1.5 2.1 1.4m4.1 4.9c0 .1-.5-3.5-1.3-2.8-1 .5.8 2.5 1.3 2.8m-17.8 3.5c.5.9 1.3 1.6 2.3 1.9-.1-1.4-.9-2-2.3-1.9m24.4-7.3c-.1 1.3 1.1.9 1.2.9-.2-.7-.6-1-1.2-.9" fill="#424242"/><path d="M5.449 52.836c-.7.6-.6 1.2.3 1.5.7-.5.6-1-.3-1.5" fill="#4E4E4E"/><path d="M62.749 17.936c4.2.9 6.6 1 10.1 1-.7 4.6 5 2.8 3.9-.7 2.5 2.2 9.5 1.6 9.1-2.5.4 4.7 1.2.4 1.9 2.3 0 0 1.3 4.1 1.4 4.6.6 3.8 1.8 3.1-1.9 5.5-2.2 1.4-4.7 2.2-6.7.5-.5-.4-2.9-8.2-4.9-6.2-1.2 2.7 3.7 9.7-2.7 9.9-1 0-6.1-3.4-6.8-4.1-.8-.8-3-5.8-4.9-2.4-1.6 2.8.8 4.9 3.3 6.6 3 1.9 6.5 1.3 9.4 2.5.8.3 3.5.4 3.9 1.9.8 2.8-2.8 2-3.4 3.9-3.2 10.6 11.5-4 15.5-2.6 1.2 4.6-8.5 4.5-9.7 5.6-1.6 1.5-1.7 2.2-.9 4.4.5 1.4 3.4-.8 3.7-.7.9 3.8-4 1.6-6 2-2.1.5-3.7 2.2-5.7 2.6-1.6.4-3.7-1.2-5-.6-1.3.5 0 2.5-.5 3.2-1.7 2.3-3.6 2.5-2 6.4.1.3.5 1 1 1.8 1.5 0 3.1.1 4.6.1 8.5.1 17.1.1 25.6.2.8-.7 2.4-.9 2.8-2.5.4-1.7-1.8-3.3-1.3-5.2 1.6.2 3.1 4 3.9-.1.6.9 1.2 1.2 1.7 1.2-.3.9-.3 2.2-.4 2.2-1.7 1.2-3.3 3-5 4.5 4.4 0 8.8.1 13.2.1-.9-2.2-2.6-5.7-5.4-3.3.7-.9.1-3.6-1-4.1.9-.8 1.6-2.2 2.1-2.8 1.1-1.4.4-2.6 2-3.5.6-.4 3.9 1.4 4.5-.3 0-.1 0-.2.1-.3 1.8 2.9 3.9 5.3 5 4 .4-.4-2.6-7.2-2.9-7.9-.4-1-1.7-3.3-2.1-4.7 1.1 2.1 8.8-2.2 11.3-2.2 1.6 0 3.6.9 5.2.9 1.1 0 5-.8 5-.8 1.6.4 4.7 5.3 7.2 2.1 1.6-1.9-2.2-4-2.6-5.1-.4-1.1-.2-4.6-.9-5.5 4.8-1.5 1.4-4.7.5-7.7 1.4.3 4.2-.4 4.4-.4 3.3.8 4.8 4.3 6.9 0 .3-.7-1.3-6.2-1.1-7.5.4-2.7.8-5.1 1.3-7.7 2.6 3.3 2.6-3.4 3.4-4 1.2 1.4 2.8 1.4 3.8 3 .9 1.3.1 3.4 1.2 4.9.9 1.3 3.1.9 4.3 2.8 1.3 2.1-.4 5.8.6 7.3 3.1 4.4 3.3-.6 6.8 1.4.1 0 .7 2.6 1.6 4.5-3-1.2-7.7-2.9-8.2-3.2-.9-.5-3.8-4.3-4.8-3.1 1-2.2 3.7-5.7.2-7.1-4.2-1.7-3.9 8.4-4.8 10.2-.6 1.1-6.5 2.5-6 6.4 1 7.5 8-3 10.6-.5.1.1-.2 4.7-.1 5.3.3 1.8 3.8-.3 2.5 2.6-2.2 4.9-9.2-2-11.1-1.3-2.1.8-1.7 5.3-1.8 6.6 1.1 1.7 1.2 3.5.5 5.3-.9 1-1.6 2.2-2.1 3.4 0 .3 1.1 4.5 1 4.3-1.2.4-1.4 1.1-.6 2.1.4 1.4 1.3 2.3 2.7 2.8.1.9-.7 2.1-1.9 3.3 6.2 0 12.3-.1 18.5-.1h9.3c0-1.6-.4-3.9.7-4.8 2.7-2.4 5.6 1.9 7.2-.3 2.2-3-1.9-3.2-3.3-4.1 1.4.8 2.6-1.1 3.9-1.3-2.6 1-.4 3.4 1.3 3.6 5.8.6 3.4-5.2 2.8-7.5-.5-2 .2-5.2-2.5-5.9.2-.1.4-.2.6-.4.6-.6.4-2.5-.2-3.6 1.2 1 2.7.6 2.8-.3 3.2 4 8.7-5.6 6.4-7.1 3.4.9 12.3 4.4 11.5-.1-.3-1 1-4.1 1-5-.1-2.2-3.4-5.6-4.4-8.8-.2-.6-1.3-6.4-1.2-7-.1.6-.6-3.2-.2-2.3 0-.1 1.7-1.2 1.7-1.8-1.2.3-2.3.3-3.5-.2 3.7-4.6-4.1-3.3-6.4-4.3-.9-.4-2.5-1.2-3.5-2.1-17.9.4-35.9.6-53.9.2-1.3 0-2.5-.1-3.8-.1-.3 1.4-3.5 1.5-3.8 1.9-1.2 1.4 1.3 3 0 3.4-.7-.3-1.4-.8-2.1-1.3-.6.9-1.3 1.8-1.9 2.7-1.2.8-2.3 1.1-3.4 2.1-2.3 2-5.6 5.9-7.3 8.5 1.2-.1 2.4-.1 3.6-.2-.9 3.4 2.3 3.9.8 6.1.8-1.2-8.9 2.7-7.9 2.6-2.4.4-5.8-1.6-7.8-.6-.8.4-4.2 5.5-3.6 6.1.9.9 1.9-1.8 3.1-1 .6.4.1 2.9.5 3.6 1.3-.8 1.6-2.4 2.1-3.8.4 1.5.7 3 1 4.4 2.3-4.6-.9-4 3.8-6.3 1.2-.6 7.9-1.6 9-1.1-1.8 1.9-3.4 4.9-5.2 7-1.5 1.8-3.9 4.7-4.2 6.9-.1.8.8 3.2 2 5.6-1.7-.8-4.4-.7-4.8-.6.1 0-2.1.6-4 1.5.8-1.5 1.5-3.2 1.5-3.6.3-2.6-1.3-4.8-3.4-6.6.3.2.7.4 1.1.5 1.7-4.6-5.3-3-4.6-8.6-1.9.9-3.5.7-1.6-2.1 1-1.5 4-.9 4.9-2.2 2.2-3.4-2.3-4.4-3.3-6.8 1.8-.5 5.4-2.6 5.6-4.4.3-2.6-4.9-2.1-7.6-2.2-2.5-.1-6.8-1.3-9-.8-4.4 1-1.6 4-7 3.1l.2 1.9c-1.6-1.1-3.2-3-5.3-3-1.8 0-1.9 1.8-2.4 1.8-1.4.2-2.3-.3-3.7-.3-1.5.1-1.8 0-3.5-.3-1-.2-.9 1.1-1.6 1-.6-.1-1.2-1.3-1.6-1.3-1.7-.3-6-2.4-4.7 1.9.4 2.2 4.7 1.7 6.8 2.2zm115.6 30.5c1.6-4.5-2.1-5.5 3.4-7.4.6-.2 1.1 1.2 1.8 1.7-1.3.1-.9 1.7-1.5 2 .8-.5-4.3 4.6-3.7 3.7zM157.649 20.736v0zM192.949 31.236h0z" fill="#585858"/><path d="M112.149 48.736c-1.7-3.8-3.8-6.1-2.2-10.6-6.8 3.5-7-2.3-12.8-3.4 2.6 3.6 4.2 4.1 4.5 8.3.3 3.7 2.5-2.5-.3 3.8-.8 1.8-3.5 2.6-4.1 4.5 2.5-.9 3.9-3.4 5.8-5.1 1.4-1.2 2.2 1.2 3.4-.9-.3-.8-5.8-4.1-1.2-4.4 4.6-.3.8 3.6 1.2 4.4 1-.1 6 3.2 5.7 3.4" fill="#757575"/><path d="M95.649-1.264c-1 1.2-1.4 2.2.2 2.3.4 0 1.2-1.1 1.9-2.3h-2.1zM112.749 19.036c-2.6-2.2-5.4-2.3-8.8-2.6 1 3.1 5.8 5.3 8.8 2.6zM104.849 12.736c1.3-.6-.5-3.6-1.6-3.4-1.6.3 1.2 3.3 1.6 3.4z" fill="#585858"/><path d="M64.749 7.536c0 2.6 3.2-1.1 1.6-.6-.3 0-1.7-1.4-1.6.6" fill="#C3C3C3"/><path d="M103.449 39.436c1.6 0 3.2 0 4.7-.3-1.6-.7-3.2-.5-4.7.3z" fill="#585858"/><path d="M34.749 3.336c.2.1-8.6-1.4-6.7-3.3.6-.5 1.5-.8 2.2-1.3-3.2-.1-6.3-.3-9.5-.5.2.4.3.8.4 1 .9 3.3.4 5.3 3.2 7.5-.7-.5 4.3 1.1 4.6 1.5.4-.4.7-.8 1.1-1.1 2 4 4.9-2.1 6.8-.1.5.5-2.7 4.2.3 4.1 4.5-.3-1.4-7.1-2.4-7.8z" fill="#5D5D5D"/><path d="M34.149-1.064c-1.8-.1-3.7-.1-5.5-.2-.8.1-1.6.1-2.2.9 3.1 4.2 11 7.7 6.8 1.1 0-.6.4-1.2.9-1.8z" fill="#757575"/><path d="M57.249-.964c-1.7 0-3.3 0-5 .1.2.4.3 1 0 1.9-.5 1.5-2.9 2.1-3.8 3.6.4.1 2.3 1.2 2.6 1.1.7-.2 2.3-1.9 2.1-1.9 2.1-.3 1.9-2.3 1.7.9-.1 1.1-2.6.6-1.6 3.5s2.5 2.2 4.2 1.4c-.8.3 4.3-6.4 4.2-5.9.1-1.6-2.9-3.4-4.4-4.7z" fill="#5D5D5D"/><path d="M22.949 6.236c1.3-1.5-1-5.1-1.9-6.9-1.3 2-.5 6.4 1.9 6.9" fill="#5A5A5A"/><path d="M22.949 6.236c1.2 1.8 3.8 1.1 5.6 2.2-1.4-2.6-2.5-2.2-5.6-2.2z" fill="#5A5A5A"/><path d="M58.649-.964h-2.8c.7 1.8 4.4 1.6 4.8 3.5.4 2.1-3.4 4.4-4.1 6.4-.8 2.2-1 2.7.3 4.4.1.1 3.5.6 5 .9-1.4-1-3.8-4.3-3.7-5 .1-2.8 5-3.6 5.2-5.6 0-.7-2.5-3.1-4.7-4.6z" fill="#515151"/><path d="M25.549 9.036c-.5.2-.7.5-.6 1 .8.1.9-.3.6-1" fill="#424242"/><path d="M77.849 5.136c.6.4 2.1 1.4 2.1-.2-.7-1-1.4-.9-2.1.2" fill="#DEDEDE"/><path d="M244.949 14.236c-.9-.9-1.4-.7-1.5.6l1.5-.6m6.7 1.6c.9-.1 1.3-.6 1.2-1.6-.8.3-1.2.8-1.2 1.6M247.549 16.336c-.9.5-1 .9-.3 1.2.6-.3.7-.7.3-1.2m3.5-4.6c-.3-.8-.8-.8-1.4-.1.7.7 1.2.8 1.4.1m-4.1-10.3l1.3-1.3c-1.1.1-1.1.1-1.3 1.3" fill="#626262"/><path d="M217.549 1.736c1.7-.2 1.9-1.4 2-2.7h-2c-1.6 0-3.1.1-4.7.1 0 .8.1 1.6-.5 2.3-.3-.6-.4-1.3-.4-2.3-2.8.1-5.5.1-8.3.2.5.2 1.1.5 1.8.9 2.6 1.3 2.7-.9 2.7 3 0 3.2-4.8 3.8-.9 6.9 4.3 3.4 7.1-2 2.6-3.4 1.4.1 2.8.3 4.3.3 0 0-1.4 4.8-1.3 5 .8 3 1.7 3.2 3.9 2.5 5.8-1.9.4-12.5.8-12.8z" fill="#6F6F6F"/><path d="M185.349 60.236c-3 1.6-.1 2.1 1 2.1-.1.4-.3.7-.6.8 5.1.1 10.2.2 15.2.3.4-.6.7-1.1.7-1-.4-1.6-3.9.8-4.4-.6.1-.9.6-1.5 1.5-1.9-.6-.3-1.1-.7-1.3-1.3.4-.9 3.6-.4 3.2-1.7-.7-2.1-8.2 1.4-5.2-4.8.7-1.4 3.9-.1 5-.6.2-.5.7-1.2 1.3-2.2.4-.5 1.5-4 1.8-4.9.3-1 3.9-10.3 3.8-11.2-1.5 0-1.2-.8-1.8-1.9-1.6.8-1.6 4.4-2.6 4.7-1.8.5-3.7-2.6-4.9-2.5-3 .1-7.1 4.3-7.1 7 0 5.4 6 3.5 4.2 7.2 0 .1-12.6 6.3-5.2 7.7-3.2 1.6-10.3-.2-4.6 4.8z" fill="#696969"/><path d="M217.749-.864c1.2 1.3.7 2.3-1.9 2.1-.2 1.2 2.2 1.9 2.4 3.5.3 2.1 1.6 5.3.4 7.4-1.8 3.1-4.6.4-5.7 1l.4-.4c.2-2.7 2.8-4.3 1.3-7.9-1.5 3.2-4.6-.7-6.6 2.6-.6-.2 4.8 1.9 3.3 2.6-1.7.8-4.8-.5-4.9-2.3-.1-2.2 2.7-1.8 3.2-3.6-5.4-3.1-4.4 6.1-4.4 7.8-.1 4.1-3.1 6.4 2.2 7.3.3-1-.6-4.3-.2-4.8-.1.2 1.9-3.1 1.7-2.1-.1.6-1.4 4.3-1.2 5.2 2.5.5 2.6-2.6 4.9-1.6-2.9 4.7 4.9 10 8.4 5.8.7-.9-3.5-3.8-2.3-6.3-.5-.1-.9-.3-1.3-.5 2.1-1.2 3.5-3.9 3.8-5.8 0 0 .1-3.7.4-3.1-.6-1-1.2 0-1.9-.2.1-.6 3.4-5.5 3.2-5.3.3-.3.9-1 1.6-1.6-2.2.1-4.5.1-6.8.2z" fill="#6B6B6B"/><path d="M206.449-.564s-.1 0-.1-.1c-4.1.1-8.2.2-12.4.3 2.9.1 8.8 1.1 8.9 1.1.8 1.9-.7 5.6 1.9 8 .8-4.9 9.5-5.4 1.7-9.3z" fill="#686868"/><path d="M230.849 43.036c2.6 0 .6-2.1.7-2.6.2-1.1-4.8 2.6-.7 2.6" fill="#B0B0B0"/><path d="M267.249 14.336c-.4-4.1-3.5.8-2.8.7.9 0 3 2.2 2.8-.7" fill="#EAEAEA"/><path d="M255.049 25.136c-1.1 6.8 7-.9 0 0" fill="#E7E7E7"/><path d="M51.449 31.736c-.3-.5 2.9 4.3 2.4 3.7 3 3.3 4.8 3.9 9.8 2.2 2.1-.7 3-2.1 5.4-2.3 1.7-.1 3 2.5 4.8.9-1.9 2.8-8.2 3.9-9.6 4.9-1.4 1-3 6.7-3 6.7-2.2 1.3-5.4-1.6-6.6-.7-.4.3-.9 6-.6 6.5.6 1.1 3.8-2 5.2-.5-2.3 2.3 2.9 3.6 3.1 4.8.4 2.2-1.4 3.3-2.7 4.8 2.3.1 4.5.2 6.8.2-2.4-3.4-5-6.9 0-6.5-.2-1.3-.1-2.7.3-4 4.5 2.5 6.3-1 10.4-1.9.5-.1 5.3.8 5.8.4 1.8-1.6 1.3-4.8-1.3-5.3-.1 1.6-2.5 2.8-2.3 1.3.4-3.9 2.9-1.7 5.6-2.9 1.2-.5 8.2-4.1 6.6-7-1.4-2.5-7.2 2.4-8.2 2.9-.7-.3-1.3-.6-2-.9-.8 1.4-1.9 2.5-3.5 3.1-1.2.6-1.3 2.3-2.8 2.6-2.3-5 7.8-4.5 1.9-9.2-2.9-2.3-13.7-3.8-16.6-.6 1-1.4 2.8-2.6 2.2-4.2-1.6-4.4-3.9-.5-4.8.4-1.3-.6-7.9-3.9-9.3-1.6-1.3 2.4 2.5 1.3 3 2.2z" fill="#636363"/><path d="M64.349 41.036c1.7-1.7 5.5-.7 5.3-4.3-.2-4.3-5.2.9-7 1.5-3.7 1.2-7.6-.5-11.6 1.1-.7.3-9.2 4.9-7.8 5.8 3.8.5 2.6 3.2 6.7 2.2 2.3-.6 3-3.2 5-4.3 2.5-1.5 6.4-1.1 9.4-2" fill="#929292"/><path d="M52.449 62.336c1-2.9 1.8-5.4 2-5.8-5.8-3.3-4.8 1.9-5.9 5.2 0 .1-.1.2-.1.4 1.3 0 2.6.1 4 .2z" fill="#7E7E7E"/><path d="M59.649 60.136c2.7 0 .5-2.1.6-2.7 0-.2-5.2 2.7-.6 2.7" fill="#A8A8A8"/><path d="M40.149 54.536c1-1.8 2.1-2.3 2.9-4.2.4-1.2.5-4.3.8-5.6-3.4.4-4.4 5.1-5.9 7.8-.4.7-3.2 4.5-3.2 4.8 0 0 3.2 1.6 3.2 1.7 2.5-.8 1.1-2.7 2.2-4.5z" fill="#777"/><path d="M37.849 59.036c1.5-4.5-3.5-.9-4.7 0 .1.6-.7 1.1.4 1.8 1.7-.3 3.1-.9 4.3-1.8" fill="#929292"/><path d="M43.649 52.536c-.7.6-.9 1.3-.7 2.2.9-.3 1.5-1.2.7-2.2" fill="#777"/><path d="M42.549 44.736c2.7 0 7.1-3.8 9.8-4.7 3.4-1.1 5.7.2 8.9-.4 3.1-.6 4.2-3.7 7.4-4.2-.5 4.7-1.7 2-4 5.2 4.6 2.2 7.1-4.6 11.2-4-2.1-4.5-10.5.9-12.1-1.7-1.1 6-6.9 1.2-9.1-.5 0-1.1-.2-2.1-.5-3.1-1-.6-2.1-.8-3.2-.6-2.1-.9-1.6-2-3.9-1.3.5 1.9 2.4 3.5 2.2 5.7-.4 1-1 1.3-2.1.9-.6 1.7-.6 3.3.1 5-2.4.4-5.5-.5-4.7 3.7" fill="#757575"/><path d="M33.249 59.036c1.2-.5 1.9-1.3 2.2-2.5-1.2.5-1.9 1.3-2.2 2.5" fill="#6A6A6A"/><path d="M47.849 27.636c.3-1.8-2.7-.4-3.1.3 1-.6 2-.5 3.1-.3" fill="#5C5C5C"/><path d="M36.049 56.536c1-.3 1.5-1 1.3-2.2-.5.7-.9 1.4-1.3 2.2" fill="#6A6A6A"/><path d="M50.449-.864c-5.3 0-10.5 0-15.7-.2-1 3-.4 6.4 4.7 6.3 2.2 0 4.9-2.5 6-3.1-.6.4 2.9-1.7 5-3z" fill="#3E3E3E"/><path d="M56.249 13.336c.9-5.1-2.2-.8-3.9-.8-.1 0-1.7 1.5-2.3 1.7-1.4.4-2.5-3.8-5.1-1.2 2.2 3.5 6.5 2.1 5.1 7.2-.4 1.6-4.5 4.5-3.8 5.5.7 1 3.9-.6 5.1-.4.3 0 1.6 1.8 2.3 2 6.2 1.9 4.2-.5 9.2-1.9.7 2.7 5.8 7.2 8.7 7.6 2.8.4 5.8-1.4 5.2-4.4-.4-2.4-4.4-2.4-6.1-3.1-3-1.2-4.7-2.8-8.3-3-1.1-.1-7.6 2-7.8 1.8-1.9-1.2.5-2.4.5-2.4.7-1.2.5-1.9-.5-2.3-.6.2-1.2.3-1.9.1 1.6 1.4 5.9-5.6 3.6-6.4z" fill="#4E4E4E"/><path d="M45.049 13.036c2.8-.2 3.5 2 5.5 1.9 1.3 0 5.5-4.4 6-5-1 .1-1.6-.3-1.8-1.3-.9 0-7.5 7.2-9 1.4-.9-3.6 8.4-1.7 8.4-2-2.1-4.8-7.2-3.4-11.2.1-1.4 1.2-6 4.5-2.2 6.9 1.5 1 2.2-2.1 4.3-2" fill="#4B4B4B"/><path d="M34.149-1.064c-1.7 2.9 1.2 4.7 2.8 5.8-1.4-1.6-1.8-3.8-2.4-5.8h-.4zM42.949 16.836c-1.7.3.9 7.2 4.8 4.2 6.4-5-4.8-7.6-4.8-4.2z" fill="#5C5C5C"/><path d="M60.649 27.636c-1.4 0-2.7.3-3.4 1.3 1.5 1.4 2.6-.5 3.4-1.3z" fill="#585858"/><path d="M51.249 28.836c1.1.7 2.6 1.7 3.7.3-.6-1.2-2.5-.3-3.7-.3" fill="#5E5E5E"/><path d="M44.749 25.436c.8-.4 1-1 .8-1.8-1.4.6-.4 1-.8 1.8z" fill="#5C5C5C"/><path d="M59.049 29.136c-.6-.1-1.3-.2-1.9-.3.3.6.6 1.2.9 1.9.4-.5.7-1 1-1.6z" fill="#5E5E5E"/><path d="M52.249 28.836c.9 0 2.4-.1 3.1.6-.8-1.5-1.8-1.2-3.1-.6m-9.5-23.3c.3.6.6.7 1 .2-.3-.6-.6-.6-1-.2" fill="#5C5C5C"/><path d="M6.849 48.036c0 3.6 2.8-.2 2.5-.2-.3 0-2.5-2.9-2.5.2" fill="silver"/><path d="M93.049 63.036h4.1c.5-.9 2.9-1.4 3.4-2.1 1.6-1.9 1.6.4 2.1-4.3 1 .9.6 5.3 1.5 5.3 1.7-.1.6-3.2 3.2-1.1 1.1.9 1.4 1.6 1.3 2.2 13.3.1 26.5.1 39.8.1.2-.2.3-.4.4-.5 1.9-4.2-.1-2.6-2.3-6.5 3.2-1 1.8-.9 1.9-3-.6-.7-1.3-1.3-2.1-1.8.4-.9.9-1.8 1.6-2.6 0-1.4.1-5.3.2-7 .1-.8.5-5.8 2-5.7 2.8.3 3.6 3.4 7.5 2.5 4-.9 4-1.8 3.4-4.4-.1-.3-2.4-1.7-2.8-2.6-.9-2.2 3.6-2.1-1.4-4.8-1.8 5.2-13.1 6.2-5.4-2.2.6-.6 2.1.9 3.2-.6.6-.8-.5-2.5-.3-3.4.3-1 1.9-6.9 2.7-7 1.3.4 2 1.4 2 3-2.6.5-2.7 11.2-.4 4 1.5.3 4.3 4.6 5.8 5.4 2.2-3.3 7.1 2.5 10.4 2.5-.4-2-1.5-5-2.2-1.7-1.4 0-.9-3.3-1.8-4.7-1.8-2.7-2.6-.7-4.8-2.2-.3.8-.9 1.4-1.7 1.8-.1 0-1.5-17.2-6.3-12.1-3.6-2.9.4-5.3-4-7-5.5-2.1-.1 0-3.9 3.7-1.5-3.6-1.6.6-2.5 1.9.8-1.2-.9 2.9-.9 3-.3 2.8.1 6.1-.8 9.5 0-.2 4.1 1.2.9 2.1 1.4-.4-7.5-1.8-8.5-1.5.3-1.4.6-2.9.9-4.3-4.4 1.7-2.3 8.8-.4 11.4-1.7.1-3 .6-4.1 1.9 2.1-.4 2.5.2 1.3 1.8-1 1.7-.6 2.8 1.2 3.6.3.8 3.3 1.9 2.6 3.4-2.6 5.6-5.2-7.5-7.8-.6-1.3-1.1-8.7-1.8-10.9-1.6-3.5.3-5 3.4-8.3 3.4.6-1.2.5-2.2-.3-3-3.8-.5.4 5.9.7 6.8.3.9-1.3 1.6-1 2.5.8 2.1 2.7 3.6 4 5.4-1.1-.3-2.9-1.8-4.2-3.2-1.4-.3-5.6-1.1-5.8-.9-3.3 2.3-.9 5.9-4.7 7.8.2-1 0-1.8-.7-2.5-1.3-.5-1.9 2.3-2.1 3.1-1.8-.8-2.9-4.3-3.8.2-.3 1.3 1.7 3.2 1.6 3.7-.3 2.3-2.6 1.6-3.5 2.9z" fill="#494949"/><path d="M173.149 63.136c3.8 0 7.7 0 11.5.1.1-1.1.8-2 2.7-2.4-1-1.3-2.3-2.2-3.8-2.8 1-3.5 4.2-.2 5.8.5.1-1.9.5-2 2.4-2-.4-4.1-4.5-2.2.3-6 1.7-1.3 5.3-1.6 6.5-3-1.4-2.9-5-3.2-5.7-6-.8-3.3-.3-1.5 1.7-4 1.2-1.4 1.6-2.7 3.4-2.9 4.7-.7 6.2 6.9 7.1-2.9-2.4 0-3.3 1.2-5.8.8-.6-.1-1.2-1.5-2-1.7-1.2-.3-7.2-1.7-5 2.1 3.8-2.7-.4 7-4 5.4.6-.3 1.1-.7 1.3-1.4-1.2-.9-2.6-1.2-4.2-.6-.3 1.4 2 .9 1.7 2.4-1.4-.3-2.6-.8-3.8-1.6.2 1.6 1 3.2 1.3 5-4.5-1.3-1.6-5.4-7.7-1 1.1 2 1.4 6.3-.1 7.8 3.7 4.1 6.9-5.2 6.7-5.1 2.6-1.1 2.8 3.9 3 4.5 0 0 1.6 4.5 1.5 4.8-1.6 3.4-7.9 1.9-2.7-.1-1.8-1.1-9.2-.8-8.1 1.7.5 1.1 7-1.4 4.7 3.2-7.5-6.1-7 1.5-8.7 5.2z" fill="#626262"/><path d="M75.849 22.636c3 3.1 2.7 6.6 6.7 7.8 4.9 1.6 3.3-.1 5.3-1.2-.5.3 2.3-1.9 1.8-1.1 1.6-2.3 1.9-2.2.9-5.7-.5-1.6-1.7-2.1-2.5-3.4-.3-.5 1.2-1.9 1.1-2.5-3.1.9-2-2.8-4.6-2.7 3 5.8-5.5 4.3-8.1 2.2-.6.8-2 6.7-.6 6.6" fill="#707070"/><path d="M54.049 19.836c1.8 2-2.5 1.8-1.7 3.8 1.2 3.1 2.3 1.1 4.1 1.1 3.3 0 6.3-2.2 10-.8 2.7 1 3.6 3 6.5 3.1 6 0 2.2-7.1-1.5-8.7-1.8-.8-4.6 0-6.5-.3-3.9-.7-6.8-2.6-10.8-2.3.5 1.3.5 2.7-.1 4.1" fill="#4B4B4B"/><path d="M60.649 27.636c-1.3 1.9 1.9 1.7 1.1 4.3-.4 1.4-2.5 3.1-3.4 4.1l3.4-.1c-.4-3.8 3.1-2.2 5.7-2.4-.9-1.9-5.2-4.2-6.8-5.9" fill="#5E5E5E"/><path d="M74.249 21.136c.9 2.4 1.4 4.9 1.9 6.8.8-2.1.4-5.7-1.9-6.8" fill="#515151"/><path d="M145.149 15.936c-1.4 0-.6 1.2-.6 1.5-.3 1.2 3.4-1.3.6-1.5" fill="#B3B3B3"/><path d="M60.649 16.436c1.2 1.7 2.7 2.2 4.4 1.6-1.5-.8-2.9-1.3-4.4-1.6" fill="#515151"/><path d="M70.249 18.036c.8.1 1.4-.1 1.8-.8-1.6-1.5-1.2.3-1.8.8z" fill="#707070"/><path d="M56.249 13.336c-1.3-1.2-1 1.6.6 2.2-.5-.6-1-1.3-.6-2.2" fill="#515151"/><path d="M152.949 26.636c-.5-.2-1-.4-1.7-.8.2.8 1.3 1.9 1.7.8" fill="#494949"/><path d="M73.049 18.236c.3.5.8.6 1.5.5-.1-1.2-.6-1.4-1.5-.5" fill="#707070"/><path d="M67.449 18.036c1.3.9 2.7 1 4 .4-2.1-.7-.8-.4-4-.4" fill="#515151"/><path d="M66.849 16.536c-.7.3-.8.6-.3.9.8-.2.8-.5.3-.9" fill="#707070"/><path d="M106.549 45.336c3.5-1.4 1.8-7.2-1.9-5-2.8 1.5-.9 4.4 1.9 5z" fill="#C6C6C6"/><path d="M33.849 1.836c-.1-.7-.2-1.5-.3-2.2-.6 0-1 .2-1.4.6.3.9.9 1.4 1.7 1.6" fill="#5D5D5D"/><path d="M54.049 8.036c-2.4-1.2-10.8-2.2-9.3 2.8 1.7 5.4 12.5.4 9.3-2.8" fill="#424242"/><path d="M52.449 5.336c1.6 1.4 3.8-.4 5.2-1.2-1.2-1.3-2.3-2.6-3.4-3.9-.8 1.2-1.9 2.1-3.2 2.7 1 .5 1.4 1.3 1.4 2.4" fill="#767676"/><path d="M211.149-.764c-.4 1.9-.6 3.4-.1 3.7 1 .6 2.2-1.4 3.5-3.8-1.2.1-2.3.1-3.4.1z" fill="#7E7E7E"/><path d="M202.449 44.036c-.9-1.1-1.1.6 0 0" fill="#626262"/><path d="M207.749 17.936c.2-.9 4.3-6.6 1.1-6.1-3.3.5-2 3.9-1.1 6.1M213.649 12.736c-.6-.1-1.3-.3-1.9-.4.4 1.4 1 1.5 1.9.4" fill="#6F6F6F"/><path d="M218.649 2.336c.5.6 1 .5 1.3-.2-.4-.5-.9-.4-1.3.2M204.749 3.436c1.6 0 2.9-1 3-2.5-1.2.5-2.2 1.3-3 2.5" fill="#626262"/><path d="M229.949 41.536c.6 1.1 1.3 1.2 1.8.2-.4-1.1-1-1.2-1.8-.2" fill="#F4F4F4"/><path d="M40.749 49.636c.5.8 1 .8 1.3 0-.4-.8-.9-.7-1.3 0" fill="#C2C2C2"/><path d="M54.049 19.936c-.6-.6-1.1-1.3-1.7-1.9-.5 1.5.1 3.7 1.7 1.9m22 8.8c-1.2-.2-1.6.4-1.4 1.6.5-.6.9-1.1 1.4-1.6" fill="#4B4B4B"/><path d="M144.149 45.336c2.1-1 .7-2.7-1-3.7-.3 2.8-2 .7-2.9 2.6-.8 1.8.6 3 .2 4.1-.6 1.8-.5 2.5-1.5 3.8-.8 1-3.4.8-4.9 3.2 3.7 5.9 14.9-4 10.1-10m2.9-18.8c.3.1 2.9.4 2.2-.8-.6-1.4-2.3-.3-2.2.8M179.449 45.936c1-.6.9-1.2-.3-1.7-.2.1-.4.3-.5.5.2.5.5.8.8 1.2m11.3-.3c-.4-.8-.9-1-1.5-.6-.3.1 1 1.4 1.5.6M188.349 49.536c.6-.5.6-1 0-1.4-.6.5-.6.9 0 1.4" fill="#585858"/><path d="M107.449 42.436c.1-3.7-3.2.1-3.3.1.3 0 3.2 3.9 3.3-.1" fill="#FAFAFA"/><path d="M207.449 13.336c.5.7.9.7 1.4.1-.3-.7-.8-.7-1.4-.1" fill="#DADADA"/></g></g><path d="M137.219 0H0v58h296V0H169.465C158.78.1 148 .2 137.219 0z" fill="#054CC7" fill-rule="nonzero" style="mix-blend-mode:color"/></g></svg>