<svg width="123" height="85" viewBox="0 0 123 85" version="1.1" xmlns="http://www.w3.org/2000/svg" xmlns:xlink="http://www.w3.org/1999/xlink">
<g id="Canvas" fill="none">
<g id="Group 154.1">
<g id="sprial2">
<g id="Group">
<g id="Vector">
<path d="M 4.64483 -6.58323e-06C 2.08443 -6.58323e-06 2.22012e-06 2.07629 2.22012e-06 4.62823C 2.22012e-06 7.18017 2.08399 9.25736 4.64483 9.25736C 7.20568 9.25736 9.28967 7.18017 9.28967 4.62823C 9.28967 2.07629 7.20612 -6.58323e-06 4.64483 -6.58323e-06ZM 4.64483 6.48749C 3.61615 6.48749 2.77953 5.65334 2.77953 4.62823C 2.77953 3.60312 3.61615 2.76987 4.64483 2.76987C 5.67352 2.76987 6.51013 3.60312 6.51013 4.62823C 6.51013 5.65334 5.67396 6.48749 4.64483 6.48749Z" transform="translate(38.6504 63.6045)" fill="#EEEEEE"/>
</g>
<g id="Vector_2">
<path d="M 3.55449 7.08293C 5.51427 7.08293 7.10809 5.49377 7.10809 3.5408C 7.10809 1.58784 5.51427 -3.23765e-06 3.55449 -3.23765e-06C 1.59471 -3.23765e-06 4.87343e-06 1.58784 4.87343e-06 3.5408C 4.87343e-06 5.49377 1.59471 7.08293 3.55449 7.08293ZM 3.55449 2.76988C 3.98123 2.76988 4.32856 3.11599 4.32856 3.5408C 4.32856 3.96694 3.98123 4.31306 3.55449 4.31306C 3.12687 4.31306 2.77954 3.96694 2.77954 3.5408C 2.77954 3.11599 3.12687 2.76988 3.55449 2.76988Z" transform="translate(115.892 31.2307)" fill="#EEEEEE"/>
</g>
<g id="Vector_3">
<path d="M 1.38933 6.19838L 3.44004 6.19838L 3.44004 8.24198C 3.44004 9.0076 4.06196 9.62691 4.82981 9.62691C 5.59766 9.62691 6.21958 9.0076 6.21958 8.24198L 6.21958 6.19838L 8.27029 6.19838C 9.0377 6.19838 9.66006 5.57908 9.66006 4.81345C 9.66006 4.04783 9.03815 3.42852 8.27029 3.42852L 6.21958 3.42852L 6.21958 1.38494C 6.21958 0.619313 5.59766 5.9357e-06 4.82981 5.9357e-06C 4.06196 5.9357e-06 3.44004 0.619313 3.44004 1.38494L 3.44004 3.42852L 1.38933 3.42852C 0.62236 3.42852 9.20536e-07 4.04783 9.20536e-07 4.81345C 9.20536e-07 5.57908 0.62236 6.19838 1.38933 6.19838Z" transform="translate(6.34473 2.32739)" fill="#EEEEEE"/>
</g>
<g id="Vector_4">
<path d="M 8.27073 3.42852L 6.22002 3.42852L 6.22002 1.38493C 6.22002 0.619747 5.59811 -1.72675e-06 4.83026 -1.72675e-06C 4.0624 -1.72675e-06 3.44049 0.619305 3.44049 1.38493L 3.44049 3.42852L 1.38977 3.42852C 0.622355 3.42852 0 4.04739 0 4.81346C 0 5.57864 0.621911 6.19839 1.38977 6.19839L 3.44049 6.19839L 3.44049 8.24197C 3.44049 9.00671 4.0624 9.62692 4.83026 9.62692C 5.59811 9.62692 6.22002 9.00715 6.22002 8.24197L 6.22002 6.19839L 8.27073 6.19839C 9.0377 6.19839 9.66051 5.57908 9.66051 4.81346C 9.66007 4.04783 9.0377 3.42852 8.27073 3.42852Z" transform="translate(104.922 72.3259)" fill="#EEEEEE"/>
</g>
<g id="Vector_5">
<path d="M 0.407209 7.21245C 0.678243 7.48298 1.03401 7.61825 1.38977 7.61825C 1.74553 7.61825 2.10085 7.48298 2.37232 7.21245L 3.82241 5.76739L 5.27296 7.21245C 5.54399 7.48298 5.89975 7.61825 6.25551 7.61825C 6.61127 7.61825 6.96703 7.48298 7.23806 7.21245C 7.78102 6.67139 7.78102 5.79524 7.23806 5.25417L 5.78796 3.80913L 7.23806 2.36407C 7.78102 1.823 7.78102 0.946423 7.23806 0.405799C 6.69511 -0.134825 5.81591 -0.135267 5.27296 0.405799L 3.82241 1.85086L 2.37232 0.405799C 1.82937 -0.135267 0.950164 -0.135267 0.407209 0.405799C -0.135745 0.946865 -0.135745 1.823 0.407209 2.36407L 1.85731 3.80913L 0.407209 5.25417C -0.135745 5.79524 -0.135745 6.67183 0.407209 7.21245Z" transform="translate(99.0493 0)" fill="#EEEEEE"/>
</g>
<g id="Vector_6">
<path d="M 7.23839 0.405806C 6.69544 -0.13526 5.81624 -0.13526 5.27329 0.405806L 3.82275 1.8513L 2.37266 0.405806C 1.8297 -0.13526 0.950059 -0.13526 0.407548 0.405806C -0.13585 0.947315 -0.13585 1.82345 0.407548 2.36407L 1.85764 3.80956L 0.407548 5.25505C -0.13585 5.79568 -0.13585 6.67183 0.407548 7.21334C 0.678582 7.48343 1.03434 7.61913 1.3901 7.61913C 1.74541 7.61913 2.10118 7.48343 2.37266 7.21334L 3.82275 5.76783L 5.27329 7.21334C 5.54432 7.48343 5.90008 7.61913 6.25584 7.61913C 6.6116 7.61913 6.96692 7.48343 7.23839 7.21334C 7.78135 6.67183 7.78135 5.79568 7.23839 5.25505L 5.78785 3.80956L 7.23839 2.36407C 7.7809 1.82345 7.7809 0.947315 7.23839 0.405806Z" transform="translate(8.91504 73.3296)" fill="#EEEEEE"/>
</g>
<g id="Vector_7">
<path d="M 1.4115 2.8132C 2.19106 2.8132 2.823 2.18344 2.823 1.4066C 2.823 0.629758 2.19106 0 1.4115 0C 0.631953 0 0 0.629758 0 1.4066C 0 2.18344 0.631953 2.8132 1.4115 2.8132Z" transform="translate(34.604 82.1868)" fill="#EEEEEE"/>
</g>
<g id="Vector_8">
<path d="M 1.41151 2.81319C 2.19106 2.81319 2.823 2.18344 2.823 1.4066C 2.823 0.629755 2.19106 -2.26636e-06 1.41151 -2.26636e-06C 0.631958 -2.26636e-06 3.24895e-06 0.629755 3.24895e-06 1.4066C 3.24895e-06 2.18344 0.631958 2.81319 1.41151 2.81319Z" transform="translate(101.459 38.2463)" fill="#EEEEEE"/>
</g>
<g id="Vector_9">
<path d="M 1.41151 2.81319C 2.19106 2.81319 2.82301 2.18343 2.82301 1.40659C 2.82301 0.629752 2.19106 -4.74856e-06 1.41151 -4.74856e-06C 0.631954 -4.74856e-06 0 0.629752 0 1.40659C 0 2.18343 0.631954 2.81319 1.41151 2.81319Z" transform="translate(43.2949 2.4021)" fill="#EEEEEE"/>
</g>
<g id="Vector_10">
<path d="M 32.0148 52.3473C 13.9815 47.54 2.77909 38.7357 2.77909 29.3701C 2.77909 14.7021 29.0667 2.76987 61.3773 2.76987C 62.1448 2.76987 62.7671 2.15057 62.7671 1.38494C 62.7671 0.619314 62.1452 -6.58323e-06 61.3773 -6.58323e-06C 26.9605 -6.58323e-06 -3.0865e-06 12.9003 -3.0865e-06 29.3696C -3.0865e-06 40.2078 11.6997 49.7975 31.2971 55.0217C 31.4173 55.0539 31.5379 55.069 31.6568 55.069C 32.2712 55.069 32.8328 54.6605 32.9982 54.0425C 33.1965 53.3039 32.756 52.5449 32.0148 52.3473Z" transform="translate(0 12.7136)" fill="#EEEEEE"/>
</g>
<g id="Vector_11">
<path d="M 67.1632 2.69804e-06C 66.3958 2.69804e-06 65.7734 0.619309 65.7734 1.38494C 65.7734 16.053 39.4858 27.9856 7.17429 27.9856C 5.27174 27.9856 3.34611 27.9431 1.45064 27.8596C 0.736021 27.8313 0.0360368 28.4184 0.00143673 29.1822C -0.0331633 29.9461 0.56169 30.5928 1.32821 30.6268C 3.2636 30.7117 5.23093 30.7555 7.17429 30.7555C 41.592 30.7555 68.5525 17.8547 68.5525 1.38538C 68.553 0.619313 67.9306 2.69804e-06 67.1632 2.69804e-06Z" transform="translate(54.2021 40.6995)" fill="#EEEEEE"/>
</g>
<g id="Vector_12">
<path d="M 1.03046 2.72316C 10.8817 5.35069 18.8255 9.19562 24.0031 13.8455C 24.2693 14.0833 24.6015 14.2014 24.9329 14.2014C 25.3126 14.2014 25.6914 14.0471 25.9655 13.743C 26.4797 13.1749 26.434 12.2997 25.864 11.7873C 20.3626 6.84702 12.0235 2.78858 1.74907 0.0487737C 1.00428 -0.1528 0.244859 0.289246 0.0479053 1.02791C -0.151267 1.76701 0.288773 2.526 1.03046 2.72316Z" transform="translate(89.7095 16.3835)" fill="#EEEEEE"/>
</g>
<g id="Vector_13">
<path d="M 0.0138409 21.277C -0.27538 15.7213 3.97643 10.3566 11.9854 6.16954C 20.2512 1.8498 30.2389 -0.490255 41.0163 0.086531C 41.8063 0.128807 42.3626 0.869813 42.2019 1.64438C 42.067 2.29397 41.4683 2.73913 40.8062 2.69813C 30.4195 2.05503 21.2792 4.44145 13.2763 8.6229C 6.38557 12.2256 2.56315 16.7844 2.78983 21.1337C 3.01561 25.4817 7.29138 29.6241 14.5192 32.4966C 34.4923 40.4326 66.2325 38.7935 85.2754 28.8382C 85.9545 28.4854 86.7938 28.7449 87.1513 29.4212C 87.5075 30.0984 87.2454 30.9357 86.5658 31.2915C 75.2862 37.1893 59.6869 40.262 44.5441 40.262C 33.2884 40.262 22.2856 38.5645 13.4892 35.0688C 5.08851 31.7296 0.302618 26.8313 0.0138409 21.277Z" transform="translate(17.9951 21.8157)" fill="#EEEEEE"/>
<path d="M 58.8915 20.678C 63.1207 18.4669 65.47 15.7186 65.3356 13.1384C 65.2238 10.9935 63.3937 8.91094 60.2304 7.25633C 59.5201 6.88481 59.2082 6.01288 59.5805 5.303C 59.9188 4.65805 60.7031 4.38253 61.3517 4.71389C 65.5649 6.86665 67.9427 9.75579 68.1111 12.9948C 68.3068 16.7557 65.4913 20.3544 60.182 23.1309C 51.9445 27.4382 38.2092 28.1486 29.5649 24.7134C 28.853 24.431 28.5052 23.6247 28.7895 22.9147C 29.073 22.2048 29.8808 21.8556 30.5949 22.1411C 38.5822 25.3137 51.2782 24.6608 58.8915 20.678Z" transform="translate(17.9951 21.8157)" fill="#EEEEEE"/>
</g>
</g>
</g>
</g>
</g>
</svg>

