<svg width="122" height="118" viewBox="0 0 122 118" version="1.1" xmlns="http://www.w3.org/2000/svg" xmlns:xlink="http://www.w3.org/1999/xlink">
<g id="Canvas" fill="none">
<g id="ship">
<g id="Group">
<g id="Vector">
<path d="M 64.5188 66.6655C 64.3217 65.3201 63.6445 64.0921 62.6113 63.2079L 48.1596 50.813C 46.6496 49.5168 45.7355 47.7144 45.5851 45.7362L 43.4151 17.0592C 43.2344 14.6663 42.5842 12.3698 41.4829 10.2334L 37.8785 3.23453C 36.8514 1.23916 34.8126 3.62446e-06 32.559 3.62446e-06C 30.3054 3.62446e-06 28.2675 1.23916 27.2395 3.23453L 23.6342 10.2334C 22.5342 12.3707 21.8836 14.6677 21.7028 17.0592L 19.5328 45.7362C 19.3829 47.7149 18.4693 49.5168 16.9593 50.813L 2.50762 63.2064C 1.47212 64.0935 0.794854 65.3215 0.599151 66.6655L 0.0606245 70.3603C -0.382159 73.3888 1.64539 76.1826 4.67622 76.7171L 21.2666 77.3977L 21.0036 78.8294C 20.6496 80.7528 21.524 82.7231 23.1783 83.7317C 25.2031 84.9662 28.0102 84.9681 31.5562 84.9454L 32.5585 84.9435L 33.5609 84.9454C 33.8887 84.9463 34.2106 84.9481 34.5249 84.9481C 37.6225 84.9481 40.1022 84.8516 41.9387 83.7317C 43.5926 82.7226 44.466 80.7523 44.1134 78.8294L 43.8486 77.3879L 60.2428 76.7393L 60.4408 76.7175C 63.4707 76.1831 65.4978 73.3907 65.0564 70.3607L 64.5188 66.6655ZM 40.4081 81.2538C 39.0938 82.056 36.5333 82.0518 33.5711 82.0384L 32.5595 82.037L 31.5478 82.0384C 28.58 82.0527 26.0251 82.0555 24.7103 81.2538C 24.0774 80.8678 23.7449 80.1038 23.8831 79.3517L 27.2773 60.8817C 27.743 58.3407 29.9653 56.4971 32.5595 56.4971C 35.154 56.4971 37.3759 58.3412 37.8416 60.8817L 41.2353 79.3517C 41.374 80.1038 41.041 80.8678 40.4081 81.2538ZM 60.0167 73.8388L 43.3194 74.5004L 40.7211 60.3598C 40.0008 56.4382 36.5683 53.5905 32.5595 53.5905C 28.5506 53.5905 25.1181 56.4382 24.3978 60.3598L 21.7977 74.5115L 5.1022 73.8393C 3.68463 73.5424 2.74815 72.2155 2.95787 70.7778L 3.4964 67.0831C 3.59074 66.4317 3.91864 65.8365 4.41981 65.4083L 18.8729 53.0134C 20.9728 51.212 22.2437 48.7054 22.4516 45.9547L 24.6216 17.2782C 24.7738 15.2726 25.318 13.3478 26.24 11.5565L 29.8458 4.55765C 30.3787 3.52448 31.3932 2.90699 32.5599 2.90699C 33.7267 2.90699 34.7411 3.52448 35.2745 4.55765L 38.8789 11.5565C 39.8019 13.3478 40.346 15.2726 40.4983 17.2782L 42.6683 45.9547C 42.8761 48.7054 44.147 51.212 46.2479 53.0134L 60.7005 65.4101C 61.2003 65.8369 61.5277 66.4317 61.6234 67.0831L 62.162 70.7778C 62.3708 72.2151 61.4333 73.5424 60.0167 73.8388Z" transform="translate(28.4492 4.69458)" fill="#EEEEEE"/>
</g>
<g id="Vector_2">
<path d="M 1.46334 -1.2006e-05C 0.655769 -1.2006e-05 2.28062e-06 0.649954 2.28062e-06 1.45348L 2.28062e-06 12.9915C 2.28062e-06 13.7945 0.655301 14.445 1.46334 14.445C 2.27137 14.445 2.92667 13.795 2.92667 12.9915L 2.92667 1.45348C 2.92667 0.649954 2.27137 -1.2006e-05 1.46334 -1.2006e-05Z" transform="translate(53.748 98.2825)" fill="#EEEEEE"/>
</g>
<g id="Vector_3">
<path d="M 1.46333 1.40448e-05C 0.655301 1.40448e-05 1.36837e-06 0.64998 1.36837e-06 1.45351L 1.36837e-06 21.7459C 1.36837e-06 22.5489 0.654834 23.1994 1.46333 23.1994C 2.2709 23.1994 2.92667 22.5494 2.92667 21.7459L 2.92667 1.45351C 2.92667 0.64998 2.2709 1.40448e-05 1.46333 1.40448e-05Z" transform="translate(59.4463 94.8008)" fill="#EEEEEE"/>
</g>
<g id="Vector_4">
<path d="M 1.46333 -1.2006e-05C 0.6553 -1.2006e-05 4.56124e-07 0.649954 4.56124e-07 1.45348L 4.56124e-07 8.41709C 4.56124e-07 9.22016 0.654833 9.87059 1.46333 9.87059C 2.2709 9.87059 2.92667 9.22062 2.92667 8.41709L 2.92667 1.45348C 2.92667 0.649954 2.27137 -1.2006e-05 1.46333 -1.2006e-05Z" transform="translate(65.1426 98.2825)" fill="#EEEEEE"/>
</g>
<g id="Vector_5">
<path d="M 15.6553 7.77362C 15.6553 3.48736 12.1434 -4.98364e-06 7.82718 -4.98364e-06C 3.51144 -4.98364e-06 -3.42093e-06 3.48736 -3.42093e-06 7.77362C -3.42093e-06 12.0613 3.51144 15.5491 7.82718 15.5491C 12.1439 15.5486 15.6553 12.0613 15.6553 7.77362ZM 7.82718 12.6421C 5.12517 12.6421 2.92668 10.4575 2.92668 7.77362C 2.92668 5.08978 5.12517 2.90698 7.82718 2.90698C 10.5301 2.90698 12.7286 5.08978 12.7286 7.77362C 12.7286 10.4575 10.5306 12.6421 7.82718 12.6421Z" fill="#EEEEEE"/>
</g>
<g id="Vector_6">
<path d="M 5.50725 8.6081e-06C 2.47082 8.6081e-06 9.12249e-07 2.45372 9.12249e-07 5.4702C 9.12249e-07 8.48622 2.47082 10.94 5.50725 10.94C 8.54368 10.94 11.0136 8.48622 11.0136 5.4702C 11.0136 2.45372 8.54368 8.6081e-06 5.50725 8.6081e-06ZM 5.50725 8.03343C 4.08408 8.03343 2.92667 6.88382 2.92667 5.47068C 2.92667 4.05662 4.08455 2.90745 5.50725 2.90745C 6.92995 2.90745 8.08689 4.05708 8.08689 5.47068C 8.08689 6.88382 6.92995 8.03343 5.50725 8.03343Z" transform="translate(110.986 37.9402)" fill="#EEEEEE"/>
</g>
<g id="Vector_7">
<path d="M 7.62168 5.51475L 6.09435 3.99817L 7.62168 2.4811C 8.19337 1.91325 8.19337 0.993744 7.62168 0.425893C 7.04952 -0.141959 6.12377 -0.141959 5.55254 0.425893L 4.02522 1.94248L 2.49836 0.425893C 1.92667 -0.141959 1.00046 -0.141959 0.428767 0.425893C -0.142929 0.993744 -0.142929 1.91325 0.428767 2.4811L 1.9561 3.99817L 0.428767 5.51475C -0.142929 6.0826 -0.142929 7.00211 0.428767 7.56996C 0.714615 7.85389 1.0892 7.99587 1.46333 7.99587C 1.83792 7.99587 2.21251 7.85389 2.49836 7.56996L 4.02522 6.05338L 5.55254 7.56996C 5.83792 7.85389 6.21251 7.99587 6.5871 7.99587C 6.96123 7.99587 7.33583 7.85389 7.62168 7.56996C 8.19337 7.00211 8.19337 6.08214 7.62168 5.51475Z" transform="translate(88.0771 25.4934)" fill="#EEEEEE"/>
</g>
<g id="Vector_8">
<path d="M 6.58711 7.99633C 6.96123 7.99633 7.33582 7.85389 7.62167 7.57043C 8.19337 7.00258 8.19337 6.08308 7.62167 5.51476L 6.09435 3.99815L 7.62167 2.48157C 8.19337 1.91325 8.19337 0.993729 7.62167 0.425877C 7.04997 -0.141975 6.12424 -0.141975 5.55208 0.425877L 4.02523 1.94294L 2.4979 0.425877C 1.9262 -0.141975 1.00047 -0.141975 0.428772 0.425877C -0.142924 0.993729 -0.142924 1.91325 0.428772 2.48157L 1.95609 3.99815L 0.428772 5.51476C -0.142924 6.08308 -0.142924 7.00258 0.428772 7.57043C 0.71462 7.85389 1.08921 7.99633 1.46333 7.99633C 1.83792 7.99633 2.21251 7.85389 2.4979 7.57043L 4.02523 6.05336L 5.55208 7.57043C 5.83792 7.85389 6.21252 7.99633 6.58711 7.99633Z" transform="translate(22.3535 42.2429)" fill="#EEEEEE"/>
</g>
<g id="Vector_9">
<path d="M 8.70855 3.59779L 6.54928 3.59779L 6.54928 1.4535C 6.54928 0.650433 5.89445 3.39793e-06 5.08595 3.39793e-06C 4.27745 3.39793e-06 3.6226 0.649969 3.6226 1.4535L 3.6226 3.59779L 1.46334 3.59779C 0.655769 3.59779 2.50868e-06 4.24776 2.50868e-06 5.05129C 2.50868e-06 5.85482 0.655302 6.50478 1.46334 6.50478L 3.6226 6.50478L 3.6226 8.64953C 3.6226 9.45259 4.27745 10.103 5.08595 10.103C 5.89445 10.103 6.54928 9.45306 6.54928 8.64953L 6.54928 6.50478L 8.70855 6.50478C 9.51611 6.50478 10.1719 5.85528 10.1719 5.05129C 10.1719 4.24822 9.51658 3.59779 8.70855 3.59779Z" transform="translate(11.6592 105.246)" fill="#EEEEEE"/>
</g>
<g id="Vector_10">
<path d="M 1.48622 2.95245C 2.30704 2.95245 2.97245 2.29152 2.97245 1.47622C 2.97245 0.660922 2.30704 -1.10999e-05 1.48622 -1.10999e-05C 0.665406 -1.10999e-05 0 0.660922 0 1.47622C 0 2.29152 0.665406 2.95245 1.48622 2.95245Z" transform="translate(2.7002 81.7791)" fill="#EEEEEE"/>
</g>
<g id="Vector_11">
<path d="M 1.48622 2.95246C 2.30704 2.95246 2.97245 2.29152 2.97245 1.47623C 2.97245 0.660927 2.30704 -6.79587e-06 1.48622 -6.79587e-06C 0.665406 -6.79587e-06 0 0.660927 0 1.47623C 0 2.29152 0.665406 2.95246 1.48622 2.95246Z" transform="translate(107.157 61.5964)" fill="#EEEEEE"/>
</g>
<g id="Vector_12">
<path d="M 1.48622 2.95245C 2.30704 2.95245 2.97245 2.29152 2.97245 1.47622C 2.97245 0.660921 2.30704 -1.24591e-05 1.48622 -1.24591e-05C 0.665404 -1.24591e-05 -2.62272e-06 0.660921 -2.62272e-06 1.47622C -2.62272e-06 2.29152 0.665404 2.95245 1.48622 2.95245Z" transform="translate(87.5684 4.67236)" fill="#EEEEEE"/>
</g>
<g id="Vector_13">
<path d="M 1.48623 2.95245C 2.30704 2.95245 2.97244 2.29152 2.97244 1.47622C 2.97244 0.660923 2.30704 -1.01938e-05 1.48623 -1.01938e-05C 0.66541 -1.01938e-05 2.96481e-06 0.660923 2.96481e-06 1.47622C 2.96481e-06 2.29152 0.66541 2.95245 1.48623 2.95245Z" transform="translate(33.916 12.6194)" fill="#EEEEEE"/>
</g>
<g id="Vector_14">
<path d="M 1.48622 2.95245C 2.30704 2.95245 2.97245 2.29152 2.97245 1.47622C 2.97245 0.660917 2.30704 1.2006e-05 1.48622 1.2006e-05C 0.665406 1.2006e-05 0 0.660917 0 1.47622C 0 2.29152 0.665406 2.95245 1.48622 2.95245Z" transform="translate(2.7002 32.6377)" fill="#EEEEEE"/>
</g>
<g id="Vector_15">
<path d="M 1.48622 2.95246C 2.30704 2.95246 2.97244 2.29153 2.97244 1.47623C 2.97244 0.660933 2.30704 0 1.48622 0C 0.665401 0 -6.38574e-06 0.660933 -6.38574e-06 1.47623C -6.38574e-06 2.29153 0.665401 2.95246 1.48622 2.95246Z" transform="translate(117.564 0.172607)" fill="#EEEEEE"/>
</g>
<g id="Vector_16">
<path d="M 15.2524 0.4591C 12.1734 -0.412627 8.93804 -0.0335993 6.14636 1.5164C 3.35234 3.065 1.33271 5.60272 0.459754 8.65956C -0.413203 11.7164 -0.0348724 14.9291 1.52515 17.7039C 3.71524 21.6023 7.80026 23.8013 12.0053 23.8013C 13.9796 23.8013 15.9805 23.3161 17.8231 22.294C 23.5905 19.0961 25.6639 11.8347 22.4443 6.10607C 20.8843 3.33176 18.3299 1.3248 15.2524 0.4591ZM 16.3967 19.7568C 14.2855 20.9273 11.8442 21.2145 9.51488 20.5557C 7.18933 19.9015 5.25938 18.3854 4.08003 16.288C 3.81099 15.8087 3.59381 15.3105 3.41866 14.802L 10.8297 10.6934C 11.5354 10.3014 11.7886 9.41716 11.3939 8.71616C 10.9997 8.0147 10.1095 7.76462 9.40324 8.15525L 2.93992 11.7391C 2.9558 10.9755 3.05995 10.2086 3.27527 9.45425C 3.93477 7.14341 5.46117 5.22599 7.57233 4.05457C 8.93992 3.2965 10.4462 2.91051 11.9712 2.91051C 12.7998 2.91051 13.634 3.02418 14.4532 3.25568C 16.7802 3.91122 18.7096 5.42594 19.889 7.52338C 20.2033 8.08288 20.4481 8.66234 20.6316 9.25154C 20.5401 9.28076 20.4448 9.2905 20.357 9.33875L 11.9399 14.0054C 11.2342 14.3975 10.981 15.2817 11.3757 15.9827C 11.6433 16.4596 12.1417 16.7278 12.6545 16.7278C 12.896 16.7278 13.1403 16.6684 13.3659 16.5436L 21.0151 12.3023C 20.8769 15.31 19.2328 18.1836 16.3967 19.7568Z" transform="translate(95.1729 93.5994)" fill="#EEEEEE"/>
</g>
</g>
</g>
</g>
</svg>

