<svg width="296" height="58" xmlns="http://www.w3.org/2000/svg" xmlns:xlink="http://www.w3.org/1999/xlink"><defs><path id="a" d="M0 0h296v58H0z"/></defs><g fill="none" fill-rule="evenodd"><path fill="#5C29C7" fill-rule="nonzero" d="M0 0h296v58H0z"/><g opacity=".8"><mask id="b" fill="#fff"><use xlink:href="#a"/></mask><g mask="url(#b)" fill-rule="nonzero"><path d="M47.08 5.36c1.9-.7 5-7.4 4.6-8.9 0-.1-.1-.3-.2-.5-18.4.4-36.9 1.3-55.2 2.5-.2 1.1-.5 2.3-.9 3.4-1.4 4.1-2.5 8.3-3.2 12.6-.4 4.7-.6 9.4-.6 14 1.3 1.8 3.7 3.8 5.4 3.9 1.8 0 6-4 7-6.9.3.5.7 1.2 1.3 2.1 4.2 5.7 4.8.2 6.6-3.4 2.2 3.2.8 3 3.7 3.9-.5-.2 7.4-1 6.8-.5 4.5-3.4-4.3-5.9-4.6-6.4 1.2-1.8 5.1-6.3 7.8-4.6 2.8 1.8-1.9 2.7.2 5 2 2.3 11.5.9 13.2.5 0 0 7.3-2.6 7.2-2.4 1.9-2.5-1.6-2.2-2.4-2.8-2.6-2.1-5-1.6-7.6-1.6-.6 0-8.1 2.3-5.8-1.7.6 3.4 3.4 2.1 4.9 1-1.2.9 3.5-1.8 2.6-1.4-.4.2.6-2.5 1.2-2.8 1.4-.9.5 2.3.7 2.3-.2.9.2 1.4 1.1 1.6.8-.3 1.4-.8 1.9-1.5 2 0 8.4-1.3 2.9-4 3.1 1.4 5.2-1 1.4-3.4zm-43 18.3c-.2-.5-.6-.8-1.4-1 .8-.1 1.9.3 2.7.1-.5.5-1 .7-1.3.9z" fill="#3A3A3A"/><path d="M303.98 45.86c1.6.9 1.6 2.8 2.6 2.7-.3-3.6-.6-7.3-.8-10.9-.5-9.8-.7-20.3.5-30.4-.3-1.4-.6-2.9-.8-4.3-.2-1-.3-1.9-.4-2.9-.3-.4-.6-.7-.8-1.1-2.3-.1-4.7-.3-7-.4-1.4 1.5-3.1 2.6-4.2 4.8-1.6 3.1-2.1 10.3 3.9 6.3-9.2 5.6 8.1 7 4.7 13.2-1.2 2.3-8.3 1.1-9.4 1.8-4.8 3.4-1.5 10.7 4.4 8.4 2.3 1.7 2.5 10.1 4.1 12.3.6.7 2.3 0 3.2.5z" fill="#595959"/><path d="M306.68 52.06c0-.2 0-.3.1-.5-.8-1.6-1.7-2.8-2.4-1.9.8-3.6-8.7-2.8-11.4-4-1.1-.5-4.6-1.7-6.8-2.8 1.8-.7 4.1-3.5 2.5-5.1 4 2.8 4.6 2 3.9-2.1-.5-3-4.5-4.1-6.7-4.6-.2-.9 1.6-1.9.2-2.5 2.5 1.1 3.5-2.6 3.3-4-.3-1.9-4.5-6-4.8-2.3-1.8-5 1-8.2 5-8.5 1.4-.1 10 4.4 9.9 4.5.9-.9-5.1-6-5.4-6.5-1.4-2.7.2-4.8-.5-6.9-.3-.8 1.2-2.1.2-2.9-2.9-.8-3.5 7.1-4.6 8.1.5-.4-6.3.5-6.7 1.1.1-.8 1.8-5 1.3-6.4-1.5-4.5-4.3-1.4-7.2-1.8-.5-.1-3.5-1.7-3.9-1.9-2.1-.8-3-1.1-3.4-1.1.1-.1-.1-.4-1.1-1.3-.2-.1-.4-.5-.6-.9h-7.4c-.1.6-.2 1.1-.2 1.2.1 1.5 3 2.2 2.4 3.9-.4 1.4-4.9.8-6.1 2.5-1.1 1.6 3.5 9.9-2.7 9.2.8.1-9.4-7.4-4 .7-.9-1.3-1.9-2.3-2.3.3-4.2-12.6-10.2 2.8-2 6.6 1.2.6 3.9.8 6.4.9-.4 1 .3 1.6 1.4 2-7.3-1.8-.1 5.2 2.2 6.3 1.6.8 3.1.4 4.9 1.3 1.2.6 2.1 2.6 3.7 3.4-3.8 3.2-3.1 1-1.7 5.8.5 1.8 1.9 4.2 2.5 6.3.5 1.8-1.8 5.5 1.8 5.1-3.9 5.8 9.8 4 10.9 5-5.8-.5 3.3 5.6 3.9 4.3 0 .3-.2.5-.3.8 1.8-.1 3.5-.1 5.3-.2 6.3-.3 12.5-.6 18.8-1 .3-3.2 1-6.6 1.6-10.1zm-45.9-24.4c-.9-3.1-2.5-2.7-5-3.7-.2-.1-.5-.4-.8-.7.7 0 1.2.1 1.6.1.9.1 2.5-.8 3.1-.7 1.6.4 3.2 2.6 4.1 2.6-1.1.2-3.3.7-3 2.4z" fill="#676767"/><path d="M46.68 60.16c0 .1-.1.2-.1.4 1.5 0 3-.1 4.5-.1v-2.2c0-1.5-1.2-3-1.2-4.4 0-1.4 3.1-1.9 2.7-4-.8-3.4-10-3.9-4.4 1-.2 1.1-3 1-3 1.7-.2 2.3 2.2 5.5 1.5 7.6z" fill="#646464"/><path d="M41.98 60.66c2.1 0 4.1-.1 6.2-.1.2-1.8-1.6-2.7-1.3-4.8.8-5.3 3.4-2.9.5-8.9-.6-1.2-1.4-5-2.7-5-3.5 0-.5 5.2-.7 7.2-.3 2.3-2.2 3.9-2.7 6.4-.6 2.2 2.1 2.6.7 5.2z" fill="#5B5B5B"/><path d="M-.02 46.76c-1.3.9 2.1 9.8 2.2 10.6 0 1.7-3.2 1.3-3.4 3 0 .3.1.6.4 1 14.8-.1 29.6-.4 44.3-.7 1.7-2.7.1-.4.1-3.1 0-.9-1.6-2-1.6-3.4 0-1.3 2.2-1.6 2.4-2.2.6-2.8-1.2-5.8-.5-8.3.2-.6 11-12.1 5-11.3 2.7-.1 4.1-7.8 5.8-10.3.3-.4 3.1-3.2 3-3.5-.1-.2-.2-.4-.2-.5 3.5.4 4.6-5.8 2.2-9-1-1.3.7-2.2-1.2-2.5-.8-.2-4.5 3.5-4.4 4.4-3.4-1.9-5.8 2-6.2 4.6-.5 4.2 3.7 2.3-.7 6.8-.5-2.3-4.6-2.5-6.3-1.6-4.2 2.3-.6 4.1-2.7 6.8-1.6 2.1-4.2.4-5.5 2.4-1.7 2.6-.7 9 3.4 8.1-4.7 1.4-3-3.7-6.2-4.3-3-.5-2.6 2.5-4.5 4.2-5.9 5.2-6.4.4-12.2-.7-3.2-.6-6.6 1.3-9.8 2.6-2.3.9-6.5 2.1-5.9 5.5.3 1 1.4 1.2 2.5 1.4zm56.1-29.4c-.4 0-.8-.1-1.1-.7.4.3.7.5 1.1.7zm-53.9 30.6c-.4-.4-.8-.7-1.1-.9.5.2.9.5 1.1.9z" fill="#4E4E4E"/><path d="M54.78-2.94c-.2-.2-.4-.6-.7-1.1-1.2 0-2.4 0-3.6.1 1.3 3.3-2.2 8.3-5.3 7.9-.7 1.4 4.5 3.9 2.6 5.1-1.3.8-3.3-3-4.1-1.7-1.5 2.3 4.2 2 2.8 4.1-1.2 2.1-3.7-2.5-5.4 1.8-1.5-1.1 1.8-6.8-3.1-3.5-2.8 1.8-.9 2.1-1.3 4.6-1.4-1.3-3.1-1.9-5-1.6.7.8.9 1.6.4 2.4-1.3-.7-1.7-2-1.2-3.7-5.1 6 3.3 4.8 6.1 5.1 2.1.2 6.4.5 8.7 2.2-1.9 1.9-3.1 0-5.3.7-.7.6-1.2 1.3-1.6 2.1-.4 1.3-1.2 1.3-2.4-.1-.5.2-8.4.7-8.7.5-2.9-2.2 2.7-3.8-.7-6.2-1.9-1.3-10.8 2.9-11.3 5.1-.4 1.7 3.5 1.6 3.9 1.9 2 2.6.5-4.2 2.4 4.1-3.7-.4-5.1-1.7-7.4 1.1-.5-2.3-1.4-4.5-3.8-5.5.3 2.7-2.5 10.1-2.5 5-6.5-1.8-.2-3.2.3-6.8.4-2.5-7.1 2-7.9 2.1 3.3 1.8 1.9 6.6-.7 7.9-3.9 1.9-.4-.5-2.8-1-2.9-.6-4.5-.7-5.4-.2 0 9.9.6 19.8 1.1 29.7 0 .8.1 1.5.1 2.2h7.8c-.4-.7-.7-1.1-.7-1.2 7.4-5.3-2.1-5.7.8-12.6.2.5 2.8 3.5 3.7 1.8 1.4-3-6-3.4-5.9-5.4.2-2 6.4-4 8.1-4.8 1.3-.6 4.5-1.9 5.8-1.7 4.8.5.7 2.7 4.8 3.8.9.3 4.6.3 5.3.1 2.7-.9 4.4-6.7 6.2-7.1 3-.7 2.1 6.9 7.5 4.4 3.9-1.8 0-2.7-.1-2.7-.7-1.2-1.6 1.9-3-2.5-1.2-4 1.2-4 4.5-2.9.4-2.7 3.7-2.8 3.7-2.8.2-.5-.5-3-.7-2.5 1.1-2.5-3.5-1.7 1-4.1 4.6-2.4 2.7 1.4 4.6 2.5.7.4 3.7-2.6 4.1-3.4 1-2.1-.4-.6.1-3.4.4-1.8-2.3-1.1-.7-3.9 1.4-2.6 3.8-2 6.3-2-.3-.5-.5-.8-.9-1.4 7.4.9.9-10.2-.5-12.5z" fill="#4B4B4B"/><path d="M135.48-2.84c.6-.1 1.2-.6 1.8-1.2l-20-.3c-1.5 1.3-3.3 2.1-3.3 3.2-.1 2.4 4.8 2.2 4.1 5.5-.5 2.2-4.5 1.2-5.7 3.2-2.2 3.8.6 3.4 1.5 4.4.3.4 1 2.5 1.9 3.5.8.9 3.2 4.2 3.9 4.6 5.1 3.7 7.6 1.8 11.7-1.2 3.4-2.6 11.1-9.8 5.4-11.5-5.1-1.5-13.7 1.1-12.2 6.9-.7-2.5-2.2-2.9-2.7-2.4-.3-1.3-1.6-1.3-3-.8.2-.1 1.4-1.4 1.8-1.8 2.4-2.4 1.5-1.1 4.6-1.5 2.3-.3 5-.6 6.6-.9-.7.1 6.2-2.3 5.7-1.4 2.3-2.3 1.5-9-2.1-8.3z" fill="#515151"/><path d="M294.18-.14c.5-.5.9-.9 1.1-1.4-9-.5-17.9-.6-26.9-.6 1.2 2.7 1.1 2.1 3.8 3.9 4 .7 5.1 2.1 7.5-2.3 0 2.8 4.1-.1 5.3-1.1 1.5 2.8-1.5 6.5 3.5 6.8.8 0 8.3-4 6.7-5.5-.5 0-.8.1-1 .2z" fill="#595959"/><path d="M295.88-1.54c-.8 0-1.6-.1-2.5-.1-.8 1.3-2 2.6-1.8 3.9.9-.8 1.8-1.4 2.9-1.8-1.3.9-1.6 1.8-.9 2.9 1.3-2 3.1-3.2 4.5-4.8-.7 0-1.4-.1-2.2-.1zM270.68-2.24h-4.4c.2.2.3.4.5.6.4.5-1.5 1.4 0 2.5 1.8 1.3 3.4 1 5.5.8-1.7-1.4-1.8-2.7-1.6-3.9zM260.68-1.24c-.1-.4-.1-.7 0-.9-3.8 0-7.7.1-11.5.1h-3.6v.2c-.1 1.1 2.8 2.5 2.2 3.4-.9 1.3-4.3.7-5.2-.1-1.3-1-1.2-2.3-1-3.5h-5.9c-.9.6-1.7.9-2.2.5-.1-.1-.2-.3-.3-.5-1.7 0-3.5 0-5.2-.1 1.3 3.2 3.5 4.8 4.2 8.4.4 2 .2 3.4.5 5 .6 3.9.1 3.7 3.8 5 8.1 2.8 3.8-3.5 2.8-8.1 2.9.9 5.3 8.6 8.1 8.2-.5 0-.3-.5.9-1.4.9.9 1.3 1.9 1.5 3.1 1.6-1.6-1.8-5 .4-5.8 4.7 7.9 10.9.7 8.5-5.3-1.2 1-1.9 1-2.2-.2.5-4.3 6.7.6 6.8-5.6-1.2-.6-2-1.3-2.6-2.4z" fill="#626262"/><path d="M221.08 63.26l-.1-.1c-1.5-3-2.7-3.4 2.5-3.5 4-.1 8.3 3.6 12.3 2.8 4.6-.9 2.3-4 6.2-6.5.2-.1 9.6.4 10.9-1.1.7 4 6 3.4 8.3 3-1.7 4.2 6.5 3.5 8 6.1l12.2-.3c0-1.6.2-1.7-5.1-3.9 1.3-.6 1.9-.5 3-1.6-3.1-1.8-5.6-.7-8.5-1.5-5.4-1.6-1.2-2-3.6-4.8-.7 0-1.2.2-1.7.7-.5-1.1-2.2-12.5-1.8-13.3-.7.3-1.4.5-2.1.8-3.2-2.8 6.4-2.2 3.9-5.2-1-1.2-2.6 1.1-3.7-.6-1.8-2.9-3-2.2-6.7-3.8-1.4-.6-8.5-4.6-2.7-4.6 1.3 1.1-2.8 3.6 2.4-.3-2.7-.3-3.3-1.4-1.8-3.2.5 1.6 5.4 3.9 5.4 3.9 2.7.8 1.3 2.9 3.7.4 1.6-1.7 1.8-4.2-1.1-5.1-1.8-.6-3.4 2.2-5 2.1-1.2-4.4-8.4-2-12.4-2.3.2-2.1-4-8.1-1.5-10.7-.1-.9-3.8-5.8-4.8-4.1-2.3 3.7 8.8 6.8.6 10.1-.4.2-1.6-1.5-3.3-.7-2.6 1.2-.3-.6-2.2 2.3-2.5 3.7-1.9 12.7-5.3 15.2-1.8 1.4-5.7-1.2-6.7 3-.7 3 1.8 5.4 4.5 5-3.7 1.2-1.7 7.7 1.7 5.5-2.1 1.9.1 3.7-3 5.8-.7.4-2.5-.2-3.7.4-1.6.9-2.3 2.7-3.5 3.4.4-.5.7-1.1.8-1.8-1.4-1.5-6 3.2-7.2 3.8-2.1 0 .4-3-3-1.1-1.3.8-.5 3.5-1 5.1 5.2.3 10.1.5 15.1.7z" fill="#747474"/><path d="M304.38 52.96c-.4-1.8.1-2.5 1.4-2.1 1.3 1.1.1 2.1.5 3.7.1-.8.3-1.6.4-2.4 0-.3.1-.7.1-1-.1-1.4-.2-2.7-.3-4.1-1.2-.7-2.2-3.4-5-2.4-.4-3-.8-3.9-1.7-6.8.2.6-1.4-4.6-.9-4.2-3.4-3.3-3.3-.2-4.9-1.2-1.6-1-3.4-1.8-3.1-4.3.7-5.2 3.3-.5 5.4-1.4 1.2-.5 3.9-4.8 6-1.8 2-3.2 1.4-2.1.6-4.6-1.4-4.1-.5-1.5-4.8-4.2 1.4 1.7-7.4 1.8-8.8 3 .8-2.1 4.9-3.1 1.8-6.7.4.4-5.5.1-4.6-.4-3.2 1.6-6.6 12-1.4 12.6.4-1.6.3-3.6 2.3-2.6-.6 1.7 3.1 4.2-.1 4.9-1.5.4-1.3.6-2.7-1-.1 2.8.6 3.1-.8 5.8 1.6 1.5 3.2 1.5 4.8-.1.8.9-1.2 1.8 0 2.9.4.3 5.5 2.2 3.6 3.9-2.1 1.8-3.4-4.5-5.5 0 3.2.7-.3 3.6-2.1 4.2 1.2 2.4 2 .2 4.3 1.6 1 .6 2.6 2.7 3 2.9 3.5 1.8 6.8 1.8 11.1.7 1.1 1.5-.1 2.9 1.4 5.1zM292.28 8.76c.1 1.6.7 3 2 4 .5-2.4 3.3-1.4 4.8-3-1.6-.8-.4-1.6-2-2.1-2-.5-1.7 3.6-4.8 1.1M294.28 12.76c.7.5 1.3 1.1 2 1.7-.1-1.2-.7-1.8-2-1.7M293.58 3.76c-.2.8-.5 1.6-.7 2.3.9-.6 1.1-1.4.7-2.3M285.78-1.94c-.7 0-1.4 0-2.1-.1-1.2 1-2.7 2.1-3.2 1.5.3-.5.6-1 .9-1.6h-.8c-2.1.8-3.4 2.8-4.1 4.9-.2-.5-.4-1-.5-1.5-1.9.2-2.4 1.1-1.4 2.8 3.4-1.1 5.1-1 8.1-.7.7.1 5 3.8 5.3 1.3-2.7-1.5-1.4-3.9-2.2-6.6z" fill="#626262"/><path d="M290.88 12.46c-1 1.9-.9 3.8-1.2 5.7-.2 1.2-4.4.5-1.8 3 0 0 9.9-3.2 10.1-3.6-2.7-1.9-4.5-3.7-7.1-5.1" fill="#595959"/><path d="M277.48 14.26c.7-.4 1-1 .9-1.8-2-.6-3.9-.5-5.8.4.7.7 1.4 1.3 2.3 1.8-8.1 6 12.2 2.8 2.6-.4m5.7-10.2c.2-.2-1.8 5.4-1.8 5.1-.2 1.4-1.9 5.1 1.6 3.7 2.5-1 4.5-9 .2-8.8m-7.2 36.2c4.6-2 1.7-1.2 4.4-4.1-1.3-.7-14.6 2.2-4.4 4.1" fill="#626262"/><path d="M273.78 32.16c.4-.9.7-1.7 1.1-2.6-5.7 1.3-2 8.7 1.1 5.6.9-1-1.7-2.9-2.2-3" fill="#747474"/><path d="M269.68 25.36c-.3-2.3-1.2-2.3-2.8 0 6.5 6.3 5.4-4.1 2.8 0" fill="#626262"/><path d="M285.28 5.76c0 2.3.2 5.8 3.4 5 5.9-1.6.1-8.3-2.2-4.7.1 1.4 2.4.9 1.9 2.5-.3-.2-3.2-4.4-3.1-2.8" fill="#A6A6A6"/><path d="M261.48 15.76c-.2.6-5.3 1.9-2.7 3.6 2.2 1.5 7.2-2.7 2.7-3.6" fill="#626262"/><path d="M273.18 45.36c-4.2-.9-2.9 3.2-.8 4.6.2-1.5.5-3 .8-4.6" fill="#747474"/><path d="M285.28 5.76c.9 0 1.3.2 1.3.7 1.7-1.4 2.9-1.2 4.4.6.6-4.8-.7-1.2-3-2.3-.5-.2-5.1-1.5-5.3-1.3.7.8 1.6 1.6 2.6 2.3z" fill="#828282"/><path d="M285.88 46.86c-1.9-1.6-3.3-3.6-4.8-.5 2.4-.8 3.1 2.1 4.8.5M293.28 13.16c-.3 1.2-.5 2.5.3 3.9.2-1.6 1.1-1.8 2.8-.9-1.1-1-2.1-2-3.1-3m-15.3 9.7c2.9 2.1 4-3.4 0 0M288.18 4.76c2.1.4 2.7.4 4-1.3-1.5-.2-2.9.2-4 1.3M263.38 24.86c-.9-.5 2.7 2.8 2.3.7-.5-1.1-1.2-1.3-2.3-.7" fill="#626262"/><path d="M263.78 27.56c-.1 1 1.6 1.8 2.1.7.6-1.2-1.9-.8-2.1-.7" fill="#747474"/><path d="M286.18 9.86c-.3-1.1-.6-2.3-.9-3.4-.9 1.7-.5 3.1.9 3.4z" fill="#828282"/><path d="M280.88 24.46c-1.2-.8 2.3 1.6 1.8.2-.5-1.3-1-1.4-1.8-.2zm-9.7-6.2c.7-1.3-.6-1.9-.7-2.9-.4 1.1-.3 1.5.7 2.9zm-23.9-2.1c-.4.7.1 2.9.9 1.7 0-.7-.3-1.3-.9-1.7z" fill="#626262"/><path d="M276.18 29.76c-.7.7-.7 1.2 0 1.8.8-.6.8-1.2 0-1.8" fill="#747474"/><path d="M255.98 23.56c1.6.5 1.7-1.6.7-1.9-.5.5-.7 1.2-.7 1.9M283.78 36.06l-1.2.7c.5.6.9.4 1.2-.7m-1.7-28.3c.3-.8.1-1.4-.6-1.8-.4.7-.2 1.3.6 1.8m-21.1 19.8c-.8.4-1 .8-.6 1.6 1.2-.2 1.4-.7.6-1.6m-9.5-8.2c.5 0 .9.1 1.4.2-.2-1.1-.7-1.2-1.4-.2" fill="#626262"/><path d="M51.28 57.06c-.1 1.2 0 2.3 0 3.4 7.7-.2 15.5-.3 23.3-.5 0-.1.1-.2.1-.3-.1-1.5-3.8-2.8-5.7-4.5 1.6.5 4.7-1 5.3-1.8 2.8-3.7-1-2.9.9-6.2 1.7-2.9 4.7-2.6 4.1-6.9-.2-1.1-2.2-1.4-3-2.1-2.3-2.1-.4-3.8-5-2.7 1.2-1.6-.4-2.5-.6-4 1.6-1.2 2.1 1.7 3.5 1.2 2.1-.8 3.3-1.2 3.9-1.4-.5.1-1-.1 0-1.2-.4.4 2.5-5 2.6-4.8-.2-3.2-.2-1.4-2.7-2-7.6-1.9-7.2 3.4-12.6 5.4-1.9.7-2.3.5-3.5.6-1.7 0-2.5-6-3.5-.6-.6 3.5 3.4 9.2 2.8 12.3-.2 1.1-2.5 3.1-3 4.2-1.1 2.4.8 3.5-1.6 6-.7.7-2.1-1.2-2.6-.7-4.2 3.6-2.4 1-2.7 6.6z" fill="#777"/><path d="M51.38 49.76c.3 1.8-2.7 4.6-2.8 7.3 0 .6.9 1.9 1.4 3.4.9 0 1.9 0 2.8-.1.1-2.9-.4-6.3-1.8-7.7 3.6-1.8 5.8.8 7.8-1.9 1.3-1.8 1.4-5.2-.1-6.8 3.7-1.5 2.5-1.2 3.4-4.1-.9 2.8-1.1-7.6-.3-4.2-.6-2.7-2.3-9.2-4.6-6.7-1.1 1.2-5.3 20.5-10.8 13.4-4.6 3.7 4.8 6.1 5 7.4z" fill="#6A6A6A"/><path d="M46.08 46.06c-.7-3.6 6.1-8.2 8-11.5 1.1-1.9 1.9-7 3.6-8.5 1-.9 3.3-.7 3.8-1.4.7-.9.5-2.3 1.1-3.2 2.6-3.7 2.7-4.8.9-9.2-.5-1.4-1.2-7.3-4.5-2.8-1.8 2.5 2.9 3.8-.7 5.7-.5.3-4.9.3-4.7.1.3 1.8 1.4 2.7 3.2 2.6-2.1 1.8-2.5 3.2-5.2 3.7 1.9 1.4-.5 5.8-1.8 7.6.4-.6-3 4.3-3.1 3.2 0 1.9 3.5-1.2 1.5 5-.4 1.2-2.5.7-2.7 1.1-.8 2.1-.7 5.9.6 7.6" fill="#5E5E5E"/><path d="M62.78 5.86c5.5-1.4 4.4-6.6 1.4-10.1-3.7.1-7.5.1-11.2.2.5 1.7.7 3.4 1.5 4.9.4.7 2.3.7 2.8 1.4.8 1.2-.3 2.3.1 3.1.1.2 2 1.7 2 1.3.2 1.2-.9 1.9-.4 3.4.7-1.4 2.2-1.8 3.7-1 .9 1.7 9.3 4.5 11.4 3.8 2.7-4.8-9.8-6.5-11.3-7z" fill="#5A5A5A"/><path d="M43.48 24.26c2.3 0 .6-3.8-1-2.2-.8 1.1-.4 1.8 1 2.2" fill="#C5C5C5"/><path d="M13.18 40.66c0-.2-2.3-3.2-2.6-1.8-.2 1.2 2 2.5 2.6 1.8" fill="#4B4B4B"/><path d="M242.38 63.86c0-.5 0-1-.2-1.7 1.8 1 5.1 1 6.7 1.2.8.1 1.3.3 1.9.5 6.5.1 12.9 0 19.4-.1.1-.3.1-.6.2-.9-2.1-.4-5.4-1.8-6.6-3.2-1.4-1.6-1.9-.1-.9-3.2-2.9-.5-3.7 1-5.9.1s-3.8-4.4-6.1-3.4c1.9 3.2-8 1.1-8.9 1.4-6.8 2.1-1.1 9-11.3 6.2-5.1-1.4-15.4-5.6-10.9 2.4 7.4.3 15 .6 22.6.7z" fill="#828282"/><path d="M21.98 33.86c2.3.3.8-5.5-2.1-5.8-6.2-.7-3 5.6 2.1 5.8" fill="#4E4E4E"/><path d="M35.38 23.56c-3.1-1.8-6.5 3.2-3.7 4.3 3.6 1.4 2.1-2.9 3.7-4.3m-10.9.9c2.4-1.9-1.8-2.9-2.3-1.6.4 1.2 1.1 1.7 2.3 1.6m4.4 5.3c0 .1-.5-3.7-1.4-3.1-1 .6.9 2.8 1.4 3.1m-19.2 3.7c.6 1 1.4 1.7 2.5 2.1-.1-1.4-1-2.1-2.5-2.1m26.3-7.8c-.2 1.4 1.2.9 1.2 1 0-.8-.5-1.1-1.2-1" fill="#424242"/><path d="M16.68 36.36c-.7.7-.7 1.2.3 1.6.8-.6.6-1.1-.3-1.6" fill="#4E4E4E"/><path d="M78.68-1.34c4.6 1 7.1 1.1 10.9 1.1-.8 5 5.5 3.1 4.2-.8 2.7 2.3 10.3 1.7 9.9-2.7.4 5.1 1.3.4 2 2.5 0 0 1.4 4.4 1.5 5 .6 4.1 2 3.4-2.1 5.9-2.4 1.5-5 2.4-7.3.6-.5-.4-3.2-8.9-5.3-6.7-1.3 2.9 4 10.5-3 10.7-1.1 0-6.5-3.7-7.3-4.4-.9-.9-3.2-6.3-5.3-2.6-1.7 3.1.9 5.3 3.6 7.1 3.2 2 7.1 1.4 10.2 2.7.9.4 3.7.4 4.2 2 .9 3-3 2.2-3.6 4.2-3.5 11.5 12.4-4.4 16.7-2.8 1.3 5-9.2 4.8-10.5 6.1-1.7 1.6-1.8 2.3-1 4.8.5 1.6 3.7-.8 4-.7 1 4.1-4.4 1.7-6.4 2.2-2.3.5-4 2.4-6.1 2.8-1.8.4-4-1.3-5.4-.7-1.4.6 0 2.7-.5 3.4-1.9 2.5-3.9 2.7-2.2 6.9.4.9 3.6 6 4.6 6.7 1.7 1.1 3.2-.7 4.6.5-1.7-.8-5.6 3.7-5.6 5.6 0 1.1.2 1.6.6 1.8 4-.1 7.9-.1 11.9-.2 2.6 0 5.2 0 7.8-.1.7-.9.9-2 .7-3.1 1.3-.2 2.5 0 3.7.6.6-.4 1.1-.9 1.5-1.4-.9 1.2-.2 2.6 1.1 3.9 20 0 39.9.5 59.8 1.4 1.5-1.3 3-2.6 5-3.9 2.7-1.9 9.1-3.5 9.1-7 2.1.9 3 2.1 5.3 2.2-1.3 0 6.3-2.7 5.2-2.1 1.8-.8 2.3.7 4.1-.9 1.1-1-.4-5.5 1.2-6.9 3-2.6 6 2.1 7.8-.4 2.3-3.3-2.1-3.5-3.5-4.4 1.6.9 2.8-1.2 4.2-1.4-2.8 1.1-.4 3.7 1.4 3.9 6.2.7 3.6-5.6 3-8.1-.5-2.2.2-5.6-2.7-6.4.2-.1.4-.2.6-.5.6-.6.4-2.7-.2-3.8 1.3 1.1 2.9.7 3-.3 3.4 4.4 9.4-6.1 6.9-7.7 3.6 1 13.2 4.7 12.4-.1-.3-1.1 1.1-4.4 1.1-5.5-.1-2.3-3.6-6.1-4.8-9.6 0-.1 0-.2-.1-.3-11.6-.2-23.2-.4-34.7-.7-2.8-.1-5.6-.1-8.4-.2-.1 1.7-.4 3.4.2 4.3 3.3 4.8 3.5-.7 7.3 1.5.1 0 .8 2.9 1.8 4.9-3.3-1.3-8.3-3.1-8.9-3.4-1-.6-4.1-4.6-5.1-3.4.5-1.1 1.4-2.6 1.8-3.9-1.8 0-3.7-.1-5.5-.1-.7 2.8-.9 6.4-1.4 7.4-.7 1.2-7 2.7-6.5 6.9 1.1 8.1 8.7-3.2 11.4-.6.1.1-.2 5.1-.1 5.8.4 2 4.1-.3 2.7 2.8-2.4 5.3-9.9-2.2-12-1.4-2.3.8-1.9 5.8-1.9 7.1 1.2 1.9 1.3 3.8.5 5.7-.9 1.1-1.7 2.3-2.3 3.7 0 .3 1.2 4.9 1.1 4.6-1.3.4-1.5 1.2-.7 2.3.5 1.5 1.4 2.5 2.9 3 .2 2.8-6.7 7.8-9.8 8.9-1.2.5-6.6 1.8-7.6.9-1.4-1.3 2.7-3.5 1.1-6.3-4.2-7.5-6.7 5.9-7.4 6.8-3.4 4.6-12.7.9-14.1 5.1.4-1 .5-2 .3-3.1-1.2-.7-2.5-1.1-3.9-1-.7-.9-1.4-2.5-1.9-4-.6-1.8 2.3-1.2 1.1-3.9-1-2.4-2.8-6.3-5.9-3.7.7-1 .1-3.8-1.1-4.5 1-.9 1.7-2.4 2.2-3.1 1.2-1.5.5-2.8 2.1-3.8.7-.4 4.2 1.6 4.9-.4 0-.1 0-.2.1-.3 2 3.2 4.2 5.7 5.4 4.3.4-.5-2.8-7.8-3.2-8.5-.4-1-1.8-3.6-2.3-5.1 1.1 2.3 9.6-2.4 12.2-2.4 1.8 0 3.9.9 5.6 1 1.2 0 5.5-.9 5.4-.9 1.7.4 5.1 5.8 7.8 2.3 1.7-2.1-2.4-4.4-2.8-5.5-.4-1.2-.2-5-1-6 5.2-1.6 1.5-5 .5-8.3 1.6.3 4.6-.5 4.8-.4 3.5.9 5.2 4.6 7.5 0 .2-.5-.6-3.6-1-5.8-12.1-.3-24.3-.5-36.4-.7-.5.7-1 1.3-1.3 1.9 1.3-.1 2.6-.2 3.9-.2-.9 3.7 2.5 4.2.9 6.5.9-1.3-9.6 3-8.5 2.8-2.6.4-6.2-1.8-8.4-.7-.9.4-4.5 5.9-3.9 6.6 1 1 2.1-1.9 3.4-1.1.7.4.1 3.1.5 3.9 1.4-.9 1.7-2.6 2.3-4.1.4 1.6.8 3.2 1.1 4.8 2.5-5-.9-4.3 4.1-6.9 1.3-.7 8.6-1.7 9.7-1.2-2 2-3.6 5.3-5.6 7.6-1.6 1.9-4.2 5-4.5 7.4-.1.9.8 3.5 2.2 6.1-1.8-.8-4.7-.7-5.2-.7.1 0-2.3.7-4.3 1.6.9-1.7 1.6-3.5 1.7-3.8.3-2.9-1.4-5.2-3.7-7.1.4.2.7.4 1.2.6 1.8-5-5.7-3.2-5-9.3-2.1.9-3.7.8-1.8-2.2 1.1-1.6 4.3-.9 5.3-2.4 2.4-3.7-2.5-4.8-3.6-7.3 1.3-.4 3.5-1.6 4.9-2.9-8.1-.1-16.1-.1-24.2-.1l.1.5c-.2-.2-.5-.3-.7-.5-8 0-16 0-24 .1v.2c.8 2.9 5.4 2.4 7.7 2.9zm124.9 32.9c1.7-4.9-2.3-6 3.6-8 .6-.2 1.2 1.2 2 1.8-1.4.1-1 1.8-1.6 2.1.9-.4-4.6 5.1-4 4.1zm-90.6 16.4c.4-1.2 2.9-1.2 3.4-3.2.4-1.9-1.9-3.5-1.4-5.7 1.8.2 3.4 4.3 4.2-.2.6 1 1.2 1.3 1.8 1.3-.3.9-.3 2.3-.4 2.4-2 1.4-3.8 3.6-5.9 5.2.6-.4-3.2 4.7-1.7.2zM181.18 1.76v0zM219.38 13.06h0z" fill="#585858"/><path d="M132.08 31.96c-1.8-4.1-4.1-6.6-2.3-11.5-7.4 3.8-7.6-2.5-13.8-3.7 2.8 3.9 4.6 4.4 4.9 9 .4 4 2.7-2.7-.3 4.1-.9 2-3.8 2.8-4.4 4.9 2.7-1 4.2-3.7 6.2-5.5 1.5-1.3 2.4 1.2 3.6-1-.3-.8-6.3-4.5-1.3-4.8 5-.4.8 3.9 1.3 4.8 1-.1 6.4 3.5 6.1 3.7" fill="#757575"/><path d="M132.68-.14c-2.8-2.3-5.9-2.5-9.5-2.8 1.1 3.3 6.3 5.7 9.5 2.8zM122.68 21.96c1.7 0 3.4 0 5.1-.4-1.8-.8-3.5-.5-5.1.4z" fill="#585858"/><path d="M207.48 62.66c.3-1.6 0-3.6.6-5.1 3 6.2 4.2-1.1 8.3-2.2-.7 1-1.1 2.1-1.1 3.4 1.1.2 2.2-2.5 3-2.9.7-.4 1.7-1.9 2.7-2.3.6-.2 1.9.7 2.1.6 4.2-2.2 2.5-1.1 4-4.5.1-.2 1.9-3 1.9-2.9-.4-1.7-4.2.9-4.8-.7.2-.9.7-1.6 1.6-2-.7-.3-1.2-.7-1.4-1.4.5-.9 3.9-.4 3.5-1.8-.7-2.3-8.8 1.5-5.6-5.1.7-1.6 4.2-.1 5.4-.7.3-.5.7-1.3 1.4-2.4.4-.6 1.6-4.3 1.9-5.3.4-1.1 4.2-11.2 4.1-12.1-1.6 0-1.3-.8-1.9-2.1-1.7.9-1.7 4.7-2.8 5-1.9.6-4-2.8-5.3-2.7-3.3.2-7.7 4.6-7.7 7.5 0 5.8 6.4 3.8 4.6 7.8 0 .1-13.6 6.8-5.7 8.3-3.5 1.9-11.2-.1-5 5.3-3.2 1.7-.1 2.2 1.1 2.3-.4 1.8-3 .6-3.2 1.7-.1.6-.4 3.9.2 3 .5-.7-1.6 2.5-1.5 2.1-.3.5-3.3 4-3.2 3.9-3.5 2.6-3 .4-7.2.5-.9 0-3.4-1.7-4.2-.9-1 1-.2 3.1.8 4.9 4.5.4 8.9.6 13.4.8z" fill="#696969"/><path d="M240.18-2.14c-1 4.6 6.3 8.9 9.7 4.8.6-.7-2-2.7-2.6-4.8-2.3.1-4.7.1-7.1 0z" fill="#6B6B6B"/><path d="M260.38 25.76c2.8 0 .7-2.3.8-2.8.1-1.2-5.2 2.8-.8 2.8" fill="#B0B0B0"/><path d="M291.78 43.16c1.2.6.9-1.2 0 0" fill="#676767"/><path d="M286.58 6.46c-1.2 7.4 7.6-1 0 0" fill="#E7E7E7"/><path d="M271.68 47.66c.8-.4.9-.9.2-1.4-1 .3-1.1.9-.2 1.4" fill="#C9C9C9"/><path d="M96.38 59.56c.1-.1.2-.2.3-.4.1.1.1.3.2.4h2.9c-2.9-2.3-6.2-4.2-7.3-1.8 1.1.4 2.1 1.4 2.8 1.8h1.1zM66.48 13.56c-.3-.5 3.2 4.6 2.6 4 3.3 3.6 5.2 4.2 10.6 2.4 2.2-.7 3.2-2.2 5.9-2.5 1.9-.2 3.2 2.7 5.1 1-2.1 3-8.8 4.2-10.3 5.3-1.5 1.1-3.2 7.2-3.2 7.2-2.4 1.4-5.8-1.7-7.1-.7-.4.3-.9 6.5-.7 7 .7 1.2 4.1-2.2 5.7-.6-2.5 2.5 3.1 3.9 3.4 5.2.7 3.6-4.2 4.5-4.2 8.1 0-.9 3.2 3.2 3 2.9.9 1.3 1.6 6.8 5 5-2.4 1.2-3.4.2-4.2 2.1 3.3-.1 6.5-.1 9.8-.2-.2-.7-1.2-1-3.8-.7.4-3.7 3.1-2.3 3.7-6.1.5.3 3.2 2 3.6.3.7-2.7-4.9-1.6-5.9-1.3-.2-3.4-10.8-12.4-2.5-11.7-.2-1.4-.1-2.9.3-4.3 4.9 2.7 6.8-1.1 11.2-2.1.5-.1 5.7.9 6.3.4 2-1.8 1.4-5.2-1.4-5.8-.1 1.7-2.7 3.1-2.5 1.4.4-4.2 3.2-1.9 6.1-3.1 1.3-.6 8.8-4.5 7.1-7.6-1.5-2.7-7.8 2.6-8.8 3.1-.7-.3-1.4-.6-2.2-.9-.9 1.6-2.1 2.7-3.7 3.4-1.3.7-1.4 2.5-3 2.8-2.5-5.5 8.4-4.8 2.1-10-3.1-2.5-14.8-4.2-17.9-.6 1.1-1.5 3-2.9 2.4-4.6-1.7-4.8-4.2-.6-5.2.4-1.4-.6-8.6-4.2-10.1-1.7-1.8 2.8 2.2 1.5 2.8 2.5z" fill="#636363"/><path d="M73.38 59.96c2 0 3.9-.1 5.9-.1 0-.5.1-.8.3-.9.2.5.4.7.7.9h.9c1.1-.6 2.1-3.2 1.1-4.2-1.9 3-3-.2-4.5-2.7-1.8-3-3.8-4.4-.5-7.9-6.6 1.9-1.1 4.1-3.2 6.8-1.4 1.9-5 4.5-5.5.5-5.2 1.6 3.1 5.8 4.8 7.6z" fill="#696969"/><path d="M80.38 23.56c1.8-1.8 5.9-.8 5.7-4.6-.2-4.6-5.7 1-7.6 1.6-4 1.3-8.3-.6-12.6 1.2-.7.3-10 5.3-8.4 6.2 4.1.5 2.8 3.5 7.2 2.4 2.5-.6 3.2-3.5 5.5-4.7 2.8-1.5 7-1.1 10.2-2.1" fill="#929292"/><path d="M69.58 40.36c-6.3-3.6-5.2 2.1-6.4 5.7-.8 2.5-4.4 5.6-3.5 8.7 3 9.2 9.4-13 9.9-14.4z" fill="#7E7E7E"/><path d="M75.28 44.26c2.9 0 .6-2.3.7-2.9 0-.3-5.6 2.9-.7 2.9" fill="#A8A8A8"/><path d="M59.38 58.96c.6-.3.6-.7-.1-1.1-.5.2-.5.6.1 1.1" fill="#6A6A6A"/><path d="M54.18 38.16c1.1-1.9 2.3-2.5 3.1-4.5.5-1.2.5-4.7.9-6.1-3.7.4-4.8 5.5-6.4 8.5-.4.8-3.5 4.9-3.5 5.2l3.5 1.8c2.8-.9 1.3-3 2.4-4.9z" fill="#777"/><path d="M51.78 43.06c1.6-4.8-3.7-.9-5 0 .2.6-.8 1.2.5 1.9 1.6-.2 3.1-.9 4.5-1.9" fill="#929292"/><path d="M57.98 36.06c-.8.7-1 1.4-.7 2.4 1-.4 1.6-1.3.7-2.4" fill="#777"/><path d="M56.88 27.56c2.9 0 7.7-4.1 10.6-5 3.7-1.2 6.2.2 9.6-.4 3.4-.7 4.5-4 8-4.5-.5 5-1.9 2.1-4.3 5.6 5 2.4 7.6-5 12.1-4.4-2.3-4.9-11.3 1-13.1-1.8-1.2 6.4-7.4 1.3-9.9-.5 0-1.2-.2-2.3-.5-3.4-1.1-.7-2.2-.9-3.5-.7-2.2-.9-1.7-2.2-4.2-1.4.6 2 2.6 3.7 2.4 6.2-.4 1.1-1.1 1.4-2.2.9-.7 1.8-.6 3.6.1 5.4-2.7.4-6.1-.5-5.1 4" fill="#757575"/><path d="M46.78 43.06c1.3-.5 2.1-1.4 2.3-2.7-1.2.5-2 1.4-2.3 2.7" fill="#6A6A6A"/><path d="M62.58 9.06c.4-1.9-2.9-.5-3.4.4 1.1-.7 2.2-.6 3.4-.4" fill="#5C5C5C"/><path d="M49.78 40.36c1.1-.4 1.6-1.1 1.4-2.3-.5.7-.9 1.5-1.4 2.3" fill="#6A6A6A"/><path d="M87.38 6.76c-3.3-1.3-5.1-3.1-8.9-3.3-1.2-.1-8.2 2.1-8.5 2-2.1-1.2.6-2.6.6-2.6.7-1.3.6-2.1-.5-2.5-.4.1-.7.2-1.1.2 1.2-.6 2.9-3.1 3.3-4.9-3.3 0-6.6.1-9.9.1 1.9 1.1 3.6 1.6 2.6 5.2-.5 1.8-4.8 4.9-4.1 6 .8 1.1 4.2-.7 5.5-.5.3 0 1.8 1.9 2.5 2.2 6.7 2.1 4.5-.5 10-2.1.8 2.9 6.3 7.8 9.4 8.2 3 .4 6.2-1.5 5.7-4.8-.5-2.5-4.8-2.5-6.6-3.2z" fill="#4E4E4E"/><path d="M60.58-4.14h-1.7c-1 .2-1.7.7-1.7 1.6-1.9.3 1 7.8 5.1 4.5 4.5-3.4 1.3-5.8-1.7-6.1z" fill="#5C5C5C"/><path d="M76.38 9.06c-1.5 0-2.9.3-3.7 1.4 1.6 1.6 2.8-.5 3.7-1.4z" fill="#585858"/><path d="M66.28 10.46c1.2.7 2.8 1.9 4 .4-.7-1.4-2.8-.4-4-.4" fill="#5E5E5E"/><path d="M59.18 6.76c.8-.4 1.1-1.1.9-1.9-1.5.5-.5 1-.9 1.9z" fill="#5C5C5C"/><path d="M74.68 10.76c-.7-.1-1.4-.2-2-.4.4.7.7 1.3 1 2 .3-.5.6-1 1-1.6z" fill="#5E5E5E"/><path d="M67.28 10.46c1 0 2.6-.1 3.4.7-.9-1.7-2-1.4-3.4-.7z" fill="#5C5C5C"/><path d="M18.18 31.16c0 3.9 3.1-.2 2.7-.2-.3 0-2.7-3.1-2.7.2" fill="silver"/><path d="M117.08 49.16c-3.8-2.1 1.6-2.9 2.5-3.9 1.7-2.1 1.8.4 2.2-4.6 1.1 1 .7 5.8 1.6 5.7 1.9-.1.7-3.4 3.5-1.2 3.4 2.7-.1 3.6-.2 5.8 0 0 1.4 5.7 1.2 5.4 1.7 1.6 7.9-.2 4.5 3.3h1.8c.3-.4.6-.7 1-.7.4-.1 2.7.5 2.8.5 1.8-.5 5.9-1.2 8.2-2.7 4.1-2.6 1.4-4.5 3.6-7.4 2.7-3.7 6.5.3 4.8 1.5-.2.1-2.5-.5-2.5-.5-.2 8.1 10.3 5.1 14.7 1.8.6-.5 4.6-4.4 5-5.2 2-4.6-.1-2.8-2.5-7 3.5-1.1 1.9-1 2-3.2-.7-.7-1.4-1.4-2.3-1.9.4-1 1-1.9 1.7-2.8 0-1.6.1-5.8.2-7.6.1-.9.5-6.3 2.1-6.1 3.1.3 3.9 3.7 8.1 2.7 4.4-1 4.4-2 3.6-4.7-.1-.3-2.6-1.8-3-2.8-1-2.4 3.9-2.3-1.5-5.2-1.9 5.6-14.2 6.7-5.8-2.4.7-.7 2.2 1 3.5-.7.7-.9-.6-2.7-.3-3.7.2-.6.8-2.8 1.5-4.7-3.3-.1-6.5-.1-9.8-.2-.1 1.7-.2 3.4-.7 5.1 0-.2 4.4 1.2.9 2.3 1.5-.4-8.1-1.9-9.2-1.6.3-1.5.7-3.1 1-4.7-4.8 1.8-2.5 9.5-.4 12.3-1.8.2-3.3.6-4.4 2.1 2.2-.4 2.7.2 1.4 1.9-1.1 1.8-.7 3.1 1.2 3.9.4.9 3.6 2 2.8 3.7-2.8 6-5.6-8.1-8.4-.7-1.4-1.2-9.4-1.9-11.8-1.7-3.7.3-5.4 3.7-8.9 3.7.6-1.3.5-2.4-.4-3.3-4.1-.5.5 6.4.8 7.4.3.9-1.4 1.7-1.1 2.7.8 2.3 2.9 3.9 4.3 5.8-1.2-.4-3.1-1.9-4.5-3.5-1.5-.3-6-1.2-6.3-1-3.5 2.5-1 6.4-5 8.4.2-1.1 0-1.9-.7-2.7-1.4-.5-2.1 2.5-2.2 3.4-1.9-.9-3.1-4.6-4.1.2-.3 1.4 1.8 3.5 1.7 4-.6 2.7-3.7 1.6-4.3 3.7-.8 3.4 4.8 3.9 6.1 1.1z" fill="#494949"/><path d="M197.58 8.26c-1.6 0-.9-3.6-2-5.1-2-2.9-2.8-.7-5.2-2.4-.4.9-.9 1.6-1.8 1.9-.1 0-.3-2.7-.9-5.7-1.7 0-3.3-.1-5-.1v.4c-2.8.5-2.9 12.1-.4 4.3 1.6.3 4.6 5 6.3 5.9 2.3-3.6 7.6 2.7 11.3 2.7-.3-2.2-1.5-5.4-2.3-1.9z" fill="#494949"/><path d="M189.78 61.76l6.3.3c-1.2-1.6-2.4-3.6-2-4.1 0 0 11 2.8 10.9 2.8 1.5-1.4.4-3.5 1.9-5.1.8-.9 4-1.1 4.1-1.3 1.3-2.7-3.5-7.9 2.3-9.4a9.32 9.32 0 0 0-4.1-3c1.1-3.8 4.5-.2 6.3.5.2-2 .5-2.1 2.6-2.2-.4-4.5-4.9-2.4.3-6.4 1.9-1.4 5.7-1.7 7.1-3.2-1.5-3.1-5.4-3.4-6.1-6.5-.9-3.6-.3-1.6 1.9-4.3 1.3-1.6 1.7-2.9 3.7-3.2 5-.7 6.7 7.4 7.7-3.2-2.6 0-3.5 1.2-6.3.9-.6-.1-1.3-1.6-2.2-1.9-1.3-.3-7.8-1.8-5.5 2.2 4.1-3-.4 7.5-4.4 5.8.7-.3 1.2-.7 1.4-1.5-1.2-1-2.8-1.2-4.5-.7-.3 1.5 2.2 1 1.8 2.6-1.5-.4-2.8-.9-4.1-1.7.2 1.7 1.1 3.5 1.4 5.4-4.8-1.4-1.8-5.8-8.3-1.1 1.2 2.1 1.5 6.8-.2 8.4 4 4.4 7.5-5.6 7.2-5.5 2.8-1.2 3 4.2 3.3 4.9 0 0 1.7 4.9 1.6 5.2-1.7 3.7-8.5 2.1-2.9-.1-1.9-1.2-9.9-.8-8.8 1.8.5 1.2 7.6-1.6 5.1 3.5-9.3-7.5-7 5-10.4 7.3.3-.2-5.9.5-5.5.5-3.7.2-3 1.5-7.6-1.9-.9 6.5-5.5 4.8-10.3 8.9-1.6 1.4-3.5 2.7-5.2 4.2 7.1.4 14.3.7 21.5 1.1zM112.28 59.46c-.8-2.4 0-6.2-1.1-7.1-.8 1.6-1.9 2-2.5 3.7-1.5-2.8-2.5.4-4.4-2.1-1.3 1.3-.7 4.5-1.6 5.6 3.2-.1 6.4-.1 9.6-.1z" fill="#626262"/><path d="M105.88-.04c-.3-.5 1.2-2.1 1.2-2.7-2 .6-2.4-.6-3-1.7h-1.5c1.3 4.7-6.7 3.1-9.3 1.1-.5.8-2 7.1-.5 7.1 3.2 3.4 3 7.1 7.2 8.5 5.3 1.7 3.6-.2 5.7-1.2-.5.3 2.5-2 1.9-1.2 1.7-2.5 2-2.4.9-6.2-.4-1.8-1.8-2.3-2.6-3.7z" fill="#707070"/><path d="M69.28.76c2 2.1-2.7 1.9-1.8 4.1 1.3 3.4 2.5 1.2 4.4 1.2 3.6 0 6.8-2.4 10.8-.9 2.9 1.1 3.9 3.3 7 3.3 6.5 0 2.3-7.7-1.6-9.4-1.9-.8-5 0-7.1-.4-4.2-.7-7.3-2.8-11.7-2.5.7 1.5.6 3 0 4.6" fill="#4B4B4B"/><path d="M76.38 9.06c-1.4 2.1 2.1 1.8 1.2 4.6-.5 1.5-2.7 3.3-3.7 4.4l3.6-.1c-.4-4.1 3.4-2.4 6.2-2.6-.9-1.9-5.6-4.4-7.3-6.3" fill="#5E5E5E"/><path d="M160.68 55.86l-2.6.9c.5 2.4 3.9 3 5.7 2.1 1.4-.7-.3-5.7-3.1-3" fill="#696969"/><path d="M91.08 2.06c1 2.6 1.5 5.3 2 7.4 1-2.3.5-6.2-2-7.4" fill="#515151"/><path d="M176.18 8.06c-.5-.2-1.1-.5-1.9-.9.3.9 1.4 2.1 1.9.9" fill="#494949"/><path d="M125.98 28.16c3.7-1.5 1.9-7.8-2.1-5.4-2.9 1.7-1 4.9 2.1 5.4z" fill="#C6C6C6"/><path d="M210.98 46.66c-.4.5-.7 1.1-1 1.7 2.5 3 4.9-3.2 1-1.7m4.4 5.6c-.2 0-2.7 1.3-1.8 2 1.5 1.3 1.9-1.5 1.8-2m11.9-29.5c-1.3.2-2 1-2.2 2.3 1.2-.4 1.9-1.1 2.2-2.3M224.08 47.56c-2.1 1.1-.3 1 0 0M217.58 46.36c-.4-.4-.7-.7-1.1-1 .4.4.8.7 1.1 1" fill="#747474"/><path d="M229.68 26.76c-1-1.1-1.2.7 0 0" fill="#626262"/><path d="M259.38 24.06c.7 1.2 1.4 1.2 2 .2-.4-1.1-1.1-1.2-2-.2" fill="#F4F4F4"/><path d="M74.28 42.96c.9.9 1.5.9 1.9-.1-.6-1-1.2-1-1.9.1" fill="#EEE"/><path d="M54.78 32.96c.6.8 1.1.8 1.4 0-.4-.9-.9-.9-1.4 0" fill="#C2C2C2"/><path d="M69.28.76l-1.8-2.1c-.6 1.7 0 4.1 1.8 2.1m23.7 9.5c-1.2-.2-1.8.4-1.5 1.7.5-.6 1-1.1 1.5-1.7" fill="#4B4B4B"/><path d="M166.68 28.26c2.3-1.1.8-3-1.1-4-.3 3-2.2.7-3.1 2.8-.9 1.9.6 3.2.2 4.5-.7 2-.5 2.7-1.6 4.1-.9 1.1-3.6.8-5.3 3.5 3.9 6.2 16-4.4 10.9-10.9m3.1-20.4c.3.2 3.1.4 2.4-.9-.7-1.4-2.5-.2-2.4.9" fill="#585858"/><path d="M186.98 61.66c-.2-.3-.4-.7-.6-1.3-.4.3-.9.5-1.3.8.7-2.3.2-4.3-1.7-5.9-2.9.4-3.5 3.5-2.7 6.1l6.3.3z" fill="#696969"/><path d="M206.58 53.06c1.4-1.8-.9-6.1-2-8.5-.9 1.2-5.2 2.4-5.2 3 0 1.9 5.6 3.9 7.2 5.5m-17.7 1.1c-4.7 8 4.3 3 0 0M204.78 28.96c1.1-.7.9-1.3-.3-1.8-.2.2-.4.4-.5.6.2.4.5.8.8 1.2m12.2-.4c-.4-.9-1-1.1-1.6-.7-.3.2 1.1 1.6 1.6.7M214.48 32.76c.7-.6.7-1.1 0-1.5-.7.6-.7 1 0 1.5" fill="#585858"/><path d="M203.08 57.16c-.5-.2-1.1-.4-2-.7.9 1 .9 1 2 .7m-2.7-2.2c.5.6.8.5 1-.4-.4-.4-.8-.3-1 .4" fill="#696969"/><path d="M160.68 55.86c-2 5.4 5.6-1.5 0 0" fill="#CBCBCB"/><path d="M126.98 25.16c.1-4-3.4.1-3.6.2.3-.1 3.5 4.1 3.6-.2" fill="#FAFAFA"/><path d="M211.68 46.86l-.9 1.2c.2.3.4.5.8.6 1.1-.6 1.2-1.2.1-1.8" fill="#CACACA"/></g></g><path fill="#5C29C7" fill-rule="nonzero" style="mix-blend-mode:color" d="M0 0h296v58H0z"/></g></svg>