<svg width="268" height="37" viewBox="0 0 268 37" fill="none" xmlns="http://www.w3.org/2000/svg">
<path d="M16.2725 18.7596C16.2725 20.2169 15.8717 21.3828 15.0968 22.2571C14.3219 23.1315 13.3066 23.5555 12.0774 23.5555C10.8216 23.5555 9.77952 23.105 8.9512 22.2306C8.12288 21.3563 7.69536 20.1904 7.69536 18.7596V3.73633H0V18.7596C0 21.0118 0.50768 22.946 1.49632 24.6153C2.48496 26.2846 3.90112 27.5829 5.71808 28.4837C7.53504 29.4111 9.64592 29.8615 12.0507 29.8615C14.4288 29.8615 16.513 29.4111 18.3299 28.4837C20.1202 27.5564 21.5096 26.2846 22.4715 24.6153C23.4334 22.946 23.9411 20.9853 23.9411 18.7596V3.73633H16.2725V18.7596Z" fill="white"/>
<path d="M52.8521 10.466C53.7873 9.88307 54.8294 9.59162 55.9783 9.59162C57.0471 9.59162 58.1159 9.90957 59.2382 10.519C60.3604 11.1284 61.3223 11.9763 62.1239 13.0626L66.5595 7.84287C65.2502 6.46507 63.647 5.35223 61.6964 4.50435C59.7458 3.68297 57.822 3.25903 55.8715 3.25903C53.2529 3.25903 50.8748 3.84195 48.7639 4.98128C46.653 6.12062 44.9964 7.71039 43.794 9.7241C42.5916 11.7378 41.9771 13.99 41.9771 16.4806C41.9771 19.0242 42.5649 21.3029 43.7406 23.3431C44.9162 25.3833 46.5462 26.9996 48.6303 28.1389C50.7145 29.3048 53.0391 29.8877 55.631 29.8877C57.5815 29.8877 59.5321 29.4372 61.5094 28.5364C63.4867 27.6355 65.17 26.4167 66.5862 24.9064L62.1507 20.2166C61.2689 21.1439 60.2535 21.8858 59.158 22.4158C58.0358 22.9457 56.9937 23.2106 56.0051 23.2106C54.8561 23.2106 53.814 22.9192 52.8788 22.3098C51.9436 21.7004 51.1955 20.9055 50.6611 19.8721C50.1267 18.8388 49.8595 17.6729 49.8595 16.3746C49.8595 15.0763 50.1267 13.9105 50.6611 12.8771C51.1687 11.8438 51.9169 11.0489 52.8521 10.466Z" fill="white"/>
<path d="M84.0348 10.4662C82.3514 9.61827 80.4009 9.19434 78.1831 9.19434C75.9386 9.19434 73.9881 9.61827 72.3047 10.4662C70.6214 11.314 69.3121 12.5064 68.4036 14.0431C67.4951 15.5799 67.0142 17.3816 67.0142 19.4219C67.0142 21.4356 67.4684 23.2373 68.4036 24.7741C69.3388 26.3109 70.6214 27.5032 72.3047 28.3511C73.9881 29.1989 75.9386 29.6229 78.1831 29.6229C80.4276 29.6229 82.3782 29.1989 84.0348 28.3511C85.7182 27.5032 87.0007 26.3109 87.9359 24.7741C88.8711 23.2373 89.3254 21.4356 89.3254 19.4219C89.3254 17.3816 88.8711 15.5799 87.9359 14.0431C87.0007 12.5064 85.7182 11.314 84.0348 10.4662ZM80.8017 22.7074C80.1337 23.5023 79.2519 23.9262 78.1831 23.9262C77.0876 23.9262 76.1791 23.5288 75.5378 22.7074C74.8966 21.886 74.5492 20.8261 74.5492 19.5013C74.5492 18.1765 74.8698 17.1167 75.5378 16.2953C76.2058 15.4739 77.0876 15.0765 78.1831 15.0765C79.2519 15.0765 80.1337 15.4739 80.8017 16.2953C81.4697 17.1167 81.7903 18.1765 81.7903 19.5013C81.7903 20.8261 81.443 21.9125 80.8017 22.7074Z" fill="white"/>
<path d="M123.046 10.1217C121.977 9.51229 120.721 9.19434 119.332 9.19434C117.782 9.19434 116.419 9.56528 115.27 10.3072C114.095 11.0491 113.186 12.1089 112.571 13.5132C112.037 12.1354 111.182 11.0756 110.033 10.3337C108.884 9.56528 107.521 9.19434 105.972 9.19434C104.609 9.19434 103.407 9.48579 102.364 10.0422C101.296 10.6251 100.441 11.4465 99.7459 12.5064V9.4593H92.291V29.3579H99.7459V19.5278C99.7459 18.3885 100.04 17.4611 100.601 16.7457C101.189 16.0303 101.937 15.6859 102.899 15.6594C103.727 15.6594 104.395 15.9509 104.903 16.5338C105.411 17.1167 105.651 17.9116 105.651 18.8654V29.3579H113.106V19.5278C113.106 18.3885 113.4 17.4611 113.961 16.7457C114.522 16.0303 115.297 15.6859 116.259 15.6594C117.087 15.6594 117.755 15.9509 118.263 16.5338C118.771 17.1167 119.011 17.9116 119.011 18.8654V29.3579H126.466V16.7457C126.466 15.2355 126.172 13.9107 125.584 12.7713C124.97 11.6055 124.115 10.7311 123.046 10.1217Z" fill="white"/>
<path d="M161.175 10.1217C160.106 9.51229 158.85 9.19434 157.461 9.19434C155.911 9.19434 154.548 9.56528 153.399 10.3072C152.224 11.0491 151.315 12.1089 150.701 13.5132C150.166 12.1354 149.311 11.0756 148.162 10.3337C147.013 9.56528 145.651 9.19434 144.101 9.19434C142.738 9.19434 141.536 9.48579 140.494 10.0422C139.425 10.6251 138.57 11.4465 137.875 12.5064V9.4593H130.394V29.3579H137.848V19.5278C137.848 18.3885 138.142 17.4611 138.703 16.7457C139.291 16.0303 140.039 15.6859 141.001 15.6594C141.83 15.6594 142.498 15.9509 143.005 16.5338C143.513 17.1167 143.754 17.9116 143.754 18.8654V29.3579H151.208V19.5278C151.208 18.3885 151.502 17.4611 152.063 16.7457C152.625 16.0303 153.399 15.6859 154.361 15.6594C155.19 15.6594 155.858 15.9509 156.365 16.5338C156.873 17.1167 157.114 17.9116 157.114 18.8654V29.3579H164.568V16.7457C164.568 15.2355 164.275 13.9107 163.687 12.7713C163.099 11.6055 162.244 10.7311 161.175 10.1217Z" fill="white"/>
<path d="M181.188 19.316C181.188 20.4554 180.921 21.3827 180.36 22.0981C179.799 22.8135 179.051 23.158 178.089 23.1845C177.287 23.1845 176.619 22.893 176.138 22.3366C175.657 21.7537 175.39 20.9853 175.39 20.0049V9.45947H167.935V22.0716C167.935 23.6084 168.229 24.9597 168.817 26.0991C169.405 27.2384 170.233 28.1393 171.302 28.7487C172.371 29.3581 173.6 29.676 175.016 29.676C176.352 29.676 177.528 29.3846 178.57 28.8282C179.612 28.2717 180.493 27.4504 181.161 26.3905V29.3581H188.643V9.45947H181.188V19.316Z" fill="white"/>
<path d="M210.741 10.1217C209.645 9.51229 208.389 9.19434 206.973 9.19434C205.584 9.19434 204.328 9.48579 203.259 10.0422C202.19 10.6251 201.309 11.4465 200.587 12.5593V9.4593H193.132V29.3579H200.587V19.5278C200.587 18.3885 200.881 17.4611 201.469 16.7457C202.057 16.0303 202.858 15.6859 203.874 15.6594C204.729 15.6594 205.424 15.9509 205.958 16.5338C206.492 17.1167 206.76 17.9116 206.76 18.8654V29.3579H214.214V16.7457C214.214 15.2355 213.92 13.9107 213.306 12.7713C212.691 11.6055 211.836 10.7311 210.741 10.1217Z" fill="white"/>
<path d="M221.829 0C220.707 0 219.772 0.34445 219.051 1.05985C218.329 1.77524 217.955 2.67611 217.955 3.81545C217.955 4.92829 218.329 5.85565 219.051 6.54455C219.772 7.25995 220.707 7.6044 221.829 7.6044C222.952 7.6044 223.887 7.25995 224.608 6.54455C225.33 5.82915 225.677 4.92829 225.677 3.81545C225.677 2.70261 225.33 1.77524 224.608 1.05985C223.887 0.34445 222.952 0 221.829 0Z" fill="white"/>
<path d="M225.596 9.45947H218.142V29.3581H225.596V9.45947Z" fill="white"/>
<path d="M242.484 23.3165C241.416 23.714 240.667 23.8995 240.186 23.8995C239.652 23.8995 239.225 23.7405 238.931 23.4225C238.637 23.1046 238.476 22.6276 238.476 21.9917V15.2087H243.42V10.4924H238.476V4.9812H231.075V10.4924H228.323V15.2087H231.075V23.1311C231.075 25.1448 231.716 26.761 232.999 27.9269C234.281 29.0927 235.991 29.6756 238.129 29.6756C239.171 29.6756 240.186 29.5696 241.202 29.3312C242.217 29.0927 243.099 28.8012 243.794 28.4038L242.484 23.3165Z" fill="white"/>
<path d="M259.585 9.45887L255.871 21.6471L251.488 9.45887H243.847L252.156 28.8011L251.782 29.49C251.355 30.3378 250.633 30.7618 249.618 30.7618C249.137 30.7618 248.683 30.6823 248.255 30.4968C247.828 30.3378 247.4 30.0464 246.919 29.6224L243.82 34.5507C244.835 35.3191 245.851 35.849 246.893 36.22C247.935 36.5644 249.057 36.7499 250.286 36.7499C252.29 36.7499 254 36.273 255.363 35.3456C256.752 34.4182 257.821 32.961 258.596 31.0002L267.013 9.43237H259.585V9.45887Z" fill="white"/>
<path d="M33.8272 3.44434C32.0637 3.44434 30.5407 4.08024 29.2848 5.32556C28.029 6.57088 27.3877 8.08116 27.3877 9.82991C27.3877 11.5787 28.029 13.0889 29.2848 14.3343C30.5407 15.5796 32.0637 16.2155 33.8272 16.2155C35.6175 16.2155 37.1672 15.5796 38.4498 14.3343C39.7323 13.0889 40.3736 11.5787 40.3736 9.82991C40.3736 8.08116 39.7323 6.57088 38.4498 5.32556C37.1672 4.08024 35.6175 3.44434 33.8272 3.44434ZM36.0717 11.8966C35.4571 12.4795 34.6823 12.771 33.8272 12.771C32.9722 12.771 32.2507 12.4795 31.6629 11.8966C31.0483 11.3137 30.7544 10.6248 30.7544 9.82991C30.7544 9.03502 31.0483 8.34612 31.6629 7.76321C32.2775 7.18029 32.9989 6.88884 33.8272 6.88884C34.709 6.88884 35.4571 7.18029 36.0717 7.76321C36.6863 8.34612 37.0069 9.03502 37.0069 9.82991C37.0069 10.6248 36.713 11.3137 36.0717 11.8966Z" fill="white"/>
</svg>
