<svg width="250" height="162" xmlns="http://www.w3.org/2000/svg"><path d="M69.95 162c-.018-.115-.066-.235-.05-.346.204-1.436.391-2.875.635-4.304.18-1.055.436-2.097.66-3.144.207-.962.396-1.929.63-2.884.295-1.203.628-2.397.942-3.595.263-1.003.518-2.009.785-3.011.148-.556.314-1.107.47-1.661.1-.36.19-.722.296-1.08.503-1.69 1.011-3.378 1.515-5.067.16-.537.303-1.079.473-1.612.25-.787.524-1.566.773-2.353.164-.516.293-1.043.452-1.562.273-.895.558-1.787.838-2.68.162-.518.316-1.039.485-1.555.263-.8.542-1.596.8-2.398.166-.516.303-1.04.462-1.557.235-.764.478-1.526.72-2.288.189-.598.38-1.196.574-1.792.262-.804.532-1.606.792-2.412.157-.484.293-.975.452-1.458.276-.84.566-1.676.842-2.517.17-.515.319-1.037.486-1.554.25-.771.513-1.54.762-2.311.167-.516.317-1.038.479-1.556.249-.796.5-1.591.753-2.385.185-.582.373-1.163.566-1.743.26-.785.532-1.566.79-2.353.163-.498.301-1.006.464-1.505.262-.806.54-1.607.802-2.414.169-.515.32-1.036.482-1.553.315-1.004.63-2.006.948-3.008.32-1.005.649-2.006.966-3.011.352-1.115.702-2.23 1.044-3.348.306-1.002.591-2.01.903-3.01.26-.83.552-1.647.814-2.475.174-.548.32-1.106.48-1.66l.256-.89c-.484-.13-.907-.061-1.323-.039-1.142.061-2.29.086-3.422.229-1.071.135-2.143.133-3.214.192-.936.05-1.871.114-2.807.177-1.753.117-3.506.245-5.26.353-1.602.1-3.205.19-4.809.265-2.012.096-4.031.112-6.038.277-2.061.17-4.126.179-6.188.282-1.671.084-3.344.124-5.017.175-2.406.073-4.814.103-7.218.214-5.55.256-11.1.127-16.65.15-2.238.01-4.477 0-6.714-.05-2.064-.047-4.128-.156-6.191-.245-.887-.038-1.773-.087-2.66-.141-1.055-.065-2.116-.097-3.165-.223a97.232 97.232 0 0 1-4.603-.673 25.063 25.063 0 0 1-2.784-.62c-1.495-.432-3.003-.85-4.286-1.798-.799-.59-1.352-1.33-1.481-2.343a.9.9 0 0 0-.087-.29c-.626-1.223-.654-2.54-.487-3.845.188-1.474.982-2.648 2.157-3.545.454-.346.936-.676 1.45-.922.724-.349 1.35-.823 1.943-1.345.82-.722 1.73-1.313 2.67-1.85a82.216 82.216 0 0 1 4.247-2.274c1.608-.796 3.243-1.539 4.885-2.265 1.515-.67 3.052-1.295 4.584-1.927 1.06-.437 2.13-.852 3.196-1.276 1.215-.483 2.427-.973 3.647-1.444.458-.177.936-.3 1.401-.459.67-.229 1.337-.464 2.004-.703.478-.171.956-.346 1.429-.532.739-.289 1.472-.562 2.118-1.072.482-.38 1.102-.584 1.661-.866 1.404-.708 2.806-1.419 4.212-2.12.742-.37 1.498-.714 2.24-1.087 1.344-.676 2.675-1.38 4.025-2.043 2.028-.997 3.684-2.518 5.478-3.844a25.79 25.79 0 0 0 1.616-1.299c.802-.699 1.567-1.44 2.374-2.133.47-.402.848-.862 1.17-1.384.774-1.253 1.537-2.513 2.354-3.738.852-1.28 1.762-2.52 2.645-3.779.594-.844 1.171-1.7 1.78-2.532.66-.9 1.31-1.812 2.033-2.66a238.567 238.567 0 0 1 4.437-5.035c1.467-1.624 3.215-2.904 5.085-4.026.843-.506 1.672-1.036 2.503-1.563 1.115-.707 2.288-1.304 3.485-1.858.694-.32 1.382-.657 2.086-.952.996-.418 2.011-.792 3.007-1.21.925-.388 1.833-.813 2.752-1.212.838-.364 1.677-.728 2.525-1.066 1.266-.505 2.58-.86 3.898-1.193 1.186-.3 2.388-.535 3.58-.81.743-.172 1.478-.375 2.221-.545.746-.17 1.496-.315 2.244-.476.579-.125 1.155-.265 1.735-.384.417-.086.838-.157 1.26-.221.623-.095 1.25-.171 1.873-.267.704-.109 1.406-.231 2.109-.349.067-.01.132-.034.2-.041.864-.095 1.729-.185 2.592-.28.795-.089 1.589-.183 2.383-.274.22-.025.441-.054.663-.068 1.379-.092 2.76-.159 4.138-.277.914-.078 1.82-.242 2.733-.339.526-.055 1.058-.048 1.586-.076 2.044-.11 4.087-.246 6.131-.325 1.45-.056 2.904-.051 4.356-.046 1.194.005 2.39.022 3.583.087 1.243.068 2.472.273 3.688.54.777.17 1.545.384 2.321.556.762.169 1.535.29 2.294.469.943.222 1.886.452 2.812.736.922.282 1.816.654 2.734.951.563.183 1.158.268 1.72.453.77.253 1.567.41 2.3.803 1 .537 2.02 1.065 3.086 1.437 1.41.493 2.447 1.485 3.582 2.359.268.206.543.404.822.594 1.145.78 2.258 1.616 3.45 2.318 1.059.624 1.935 1.469 2.923 2.174.553.395.993.911 1.486 1.37 1.205 1.12 2.285 2.362 3.474 3.495.721.687 1.51 1.304 2.278 1.941.52.433 1.067.834 1.585 1.27.774.649 1.601 1.17 2.591 1.461.64.189 1.23.549 1.835.848.573.285 1.134.593 1.703.886.722.372 1.435.768 2.175 1.102.52.234 1.071.408 1.621.564.882.25 1.818.247 2.689.577.36.136.762.172 1.149.226.895.128 1.768.339 2.625.626.306.102.63.16.95.202.896.118 1.794.216 2.691.325.93.113 1.86.23 2.79.345.05.006.101.016.152.023.958.14 1.916.284 2.875.414.708.097 1.42.168 2.128.264.538.072 1.073.163 1.61.25.721.118 1.443.233 2.163.36.452.08.898.19 1.35.273 1.206.226 2.418.428 3.62.67 1.13.227 2.252.5 3.38.741.464.1.936.166 1.403.255.382.074.764.151 1.141.243 1.486.361 2.971.728 4.456 1.094.824.204 1.652.395 2.47.623.829.231 1.646.508 2.472.752.585.173 1.179.314 1.764.487.506.149 1.01.31 1.507.487 1.103.392 2.189.837 3.305 1.188 1.317.413 2.561.994 3.801 1.576 1.146.538 2.27 1.142 3.29 1.902 1.056.787 1.986 1.727 2.561 2.916.404.834.64 1.735.603 2.718a6.321 6.321 0 0 1-.805 2.87c-.426.77-1.045 1.41-1.7 2.007-1.61 1.467-3.464 2.548-5.423 3.464-1.025.48-2.055.951-3.14 1.284-.812.249-1.628.489-2.447.718-.752.21-1.507.41-2.265.598-.411.101-.83.178-1.248.245-.605.098-1.214.17-1.82.265-.672.106-1.34.228-2.011.338-.503.083-1.009.147-1.51.24-.918.173-1.834.363-2.751.544-.536.105-1.073.205-1.608.314-.3.06-.597.137-.897.197-.3.059-.604.137-.895-.032-.39-.226-.522-.5-.448-.934.071-.423.414-.573.755-.662.443-.116.904-.159 1.356-.242.383-.071.764-.159 1.147-.232.769-.147 1.547-.257 2.306-.443.924-.227 1.842-.48 2.717-.876 1.23-.557 2.49-1.05 3.708-1.634 1.756-.841 3.49-1.729 5.14-2.768 1.419-.893 2.854-1.76 4.263-2.667.883-.568 1.727-1.194 2.393-2.026.29-.362.364-.966.08-1.325-.334-.422-.674-.87-1.102-1.183a23.695 23.695 0 0 0-2.438-1.558c-1.39-.779-2.85-1.417-4.348-1.968-1.113-.41-2.213-.853-3.33-1.251a136.883 136.883 0 0 0-3.755-1.272 87.278 87.278 0 0 0-3.401-1.038c-1.143-.32-2.3-.585-3.45-.882-1.054-.272-2.102-.567-3.158-.83-.725-.18-1.459-.32-2.188-.478-.846-.183-1.692-.37-2.539-.546-.847-.176-1.695-.343-2.544-.51-.868-.171-1.736-.343-2.605-.505-.537-.1-1.076-.187-1.615-.275-.723-.117-1.447-.224-2.17-.343-1.09-.18-2.179-.373-3.27-.546-.538-.086-1.08-.146-1.62-.208-.796-.09-1.594-.161-2.389-.26-.792-.097-1.582-.218-2.373-.33-.067-.009-.133-.028-.201-.034-.985-.085-1.97-.161-2.955-.254-.9-.085-1.796-.204-2.696-.278-1.735-.141-3.48-.195-5.207-.407-2.143-.263-4.298-.172-6.442-.336-1.173-.09-2.356-.077-3.534-.077-7.312.002-14.624-.002-21.935.03-2.133.01-4.269.095-6.4.217-2.674.152-5.345.377-8.018.57-1.447.104-2.895.193-4.34.318-.915.08-1.826.213-2.739.322-.034.004-.067.012-.101.015-1 .094-2 .174-2.998.284-.81.09-1.618.215-2.427.324-.05.006-.101.015-.152.021-.829.094-1.66.172-2.485.285-1.248.172-2.493.365-3.738.555-1.03.157-2.057.326-3.086.48-.657.1-1.318.174-1.974.275-.267.042-.525.14-.792.186-.87.149-1.744.28-2.615.43-.3.05-.591.15-.89.202-.872.15-1.746.28-2.617.43-.267.046-.525.144-.792.191-.905.16-1.814.296-2.718.462-.804.148-1.603.328-2.406.486-.616.122-1.236.225-1.852.35-.546.112-1.087.248-1.633.363-.414.087-.834.152-1.25.236-1.448.292-2.9.571-4.342.888-1.13.248-2.25.552-3.377.815-.71.166-1.43.296-2.143.451-.812.177-1.621.363-2.431.547-.744.168-1.493.317-2.23.513-1.215.323-2.422.677-3.632 1.017-.587.165-1.171.343-1.763.488-.775.188-1.555.353-2.334.521-.217.047-.436.09-.657.103-1.062.062-2.072.371-3.086.659-.504.143-.99.352-1.49.51-.21.065-.436.1-.655.104-.674.011-1.305.216-1.942.395-.327.092-.658.164-.988.246-.92.228-1.844.445-2.76.687-1.149.304-2.29.631-3.436.945-1.195.328-2.395.642-3.588.98-1.071.304-2.136.634-3.205.947-1.077.315-2.157.622-3.235.935-.585.17-1.172.337-1.754.518-.775.24-1.544.497-2.318.74-1.052.331-2.106.656-3.158.984-1.086.338-2.176.665-3.258 1.017-1.156.375-2.305.776-3.458 1.162-1.4.47-2.804.928-4.2 1.408-1.152.396-2.298.805-3.438 1.23a292.94 292.94 0 0 0-4.228 1.618c-1.325.518-2.649 1.042-3.965 1.584-1.534.632-3.077 1.247-4.582 1.941-1.75.807-3.468 1.682-5.191 2.546-.576.289-1.163.58-1.676.964-1.487 1.112-3.103 2.067-4.34 3.492-.704.812-1.197 1.724-1.423 2.78-.136.633.078 1.216.247 1.802.04.14.221.245.35.352.114.095.246.17.406.28l-.468.496c.098.094.18.23.299.277.3.117.613.209.927.286 1.193.292 2.396.51 3.624.609 1.12.09 2.236.238 3.354.36.102.012.204.021.306.024 2.611.081 5.223.212 7.834.23 4.202.028 8.405-.005 12.607-.04 1.98-.016 3.96-.102 5.942-.143 1.349-.029 2.699-.02 4.048-.055 1.672-.043 3.343-.119 5.015-.172 2.8-.088 5.6-.16 8.398-.258 1.808-.063 3.615-.156 5.422-.244 2.712-.132 5.423-.263 8.134-.412 1.994-.11 3.986-.25 5.98-.37.443-.026.888-.016 1.332-.039 1.585-.08 3.17-.165 4.755-.254.97-.055 1.948-.065 2.908-.194 1.258-.17 2.52-.15 3.78-.225.936-.056 1.871-.112 2.806-.183 1.48-.112 2.958-.234 4.436-.36.492-.042.49-.068.643-.564.308-1.003.64-1.998.946-3.001.247-.81.46-1.63.709-2.438.256-.83.545-1.648.807-2.475.17-.534.316-1.074.474-1.61.18-.618.365-1.233.542-1.851.056-.193.09-.392.142-.623-.212-.053-.403-.066-.56-.145-.746-.375-.989-.974-.389-1.802.34-.469.868-.706 1.394-.89.377-.133.553-.353.7-.72.407-1.02.878-2.013 1.333-3.013a.983.983 0 0 1 .267-.361c.109-.085.3-.184.392-.14.127.059.272.243.274.377.008.371-.042.746-.094 1.116-.045.317-.125.63-.188.945-.055.274-.107.55-.176.9.24-.02.406-.018.563-.053a497.26 497.26 0 0 0 3.534-.8c.792-.182 1.579-.392 2.375-.554.899-.184 1.806-.326 2.708-.491.922-.169 1.841-.35 2.763-.513.723-.13 1.45-.234 2.173-.363 1.055-.187 2.106-.396 3.162-.576 1.04-.176 2.086-.322 3.127-.492.637-.104 1.27-.235 1.906-.344.453-.078.908-.144 1.364-.207.659-.091 1.32-.17 1.978-.264.708-.102 1.414-.222 2.123-.325.844-.123 1.691-.23 2.536-.355.757-.113 1.511-.246 2.268-.361.522-.08 1.045-.15 1.57-.211.827-.098 1.656-.186 2.485-.279l2.893-.327c.05-.006.1-.02.151-.023 2.11-.142 4.214-.366 6.336-.282.747.03 1.587.676 1.637 1.577.007.119.031.24.021.357-.086 1.017.285 1.934.633 2.85.221.584.54 1.131.746 1.718.223.636.66 1.103 1.09 1.58.313.345.508.717.462 1.194-.075.76.228 1.43.504 2.107.269.66.545 1.317.808 1.979.544 1.368 1.097 2.733 1.617 4.11.395 1.05.739 2.118 1.115 3.175.34.956.701 1.906 1.037 2.864.302.863.576 1.735.871 2.6.335.98.69 1.955 1.019 2.938.263.786.498 1.581.751 2.37.14.436.295.866.436 1.301.35 1.083.693 2.168 1.042 3.252.317.983.648 1.96.952 2.947.264.858.493 1.727.749 2.588.232.782.484 1.558.716 2.34.276.927.533 1.86.81 2.786.259.86.547 1.71.796 2.572.377 1.307.726 2.623 1.098 3.931.33 1.158.685 2.308 1.008 3.467.254.914.465 1.84.714 2.755.214.788.461 1.566.68 2.352.284 1.014.543 2.035.832 3.048.246.861.53 1.711.777 2.572.173.605.3 1.222.466 1.829.22.804.457 1.603.688 2.404.194.668.389 1.335.586 2.002.268.91.543 1.816.805 2.727.156.539.284 1.085.441 1.623.281.962.578 1.92.862 2.882.154.521.293 1.047.445 1.569.171.584.35 1.165.525 1.748.189.632.367 1.267.566 1.896.309.971.63 1.94.95 2.908.164.498.343.992.508 1.49.164.497.311 1 .48 1.496.27.8.534 1.604.833 2.394.608 1.603 1.24 3.197 1.86 4.796a47.978 47.978 0 0 0 2.357 5.176c.364.686.736 1.367 1.112 2.047.346.626.525 1.276.47 2.008-.078 1.029-1.206 2.08-2.224 2.102-1.15.024-1.958-.477-2.5-1.434-.517-.914-1-1.847-1.463-2.789a74.721 74.721 0 0 1-1.491-3.213c-.344-.793-.62-1.615-.93-2.422-.383-.994-.752-1.994-1.165-2.976-.147-.352-.387-.671-.62-.98-.22-.292-.36-.563-.18-.935.058-.12.038-.305-.007-.44-.302-.9-.631-1.79-.93-2.69-.177-.53-.312-1.074-.474-1.61-.143-.47-.302-.934-.448-1.402-.284-.909-.564-1.818-.845-2.728-.34-1.1-.693-2.196-1.014-3.302-.255-.878-.464-1.77-.703-2.653-.151-.558-.326-1.11-.476-1.668-.283-1.05-.55-2.106-.833-3.157-.137-.507-.306-1.005-.443-1.512-.274-1.014-.531-2.033-.803-3.047-.22-.82-.455-1.637-.675-2.457-.286-1.065-.556-2.135-.845-3.199-.315-1.16-.658-2.313-.964-3.476-.329-1.25-.615-2.511-.947-3.76-.24-.9-.53-1.786-.783-2.682-.166-.588-.302-1.184-.462-1.773-.277-1.014-.565-2.025-.843-3.039-.15-.542-.287-1.088-.436-1.63-.18-.655-.369-1.308-.553-1.962-.248-.88-.488-1.763-.744-2.642-.247-.845-.513-1.685-.762-2.53-.178-.604-.333-1.216-.511-1.82-.327-1.107-.672-2.208-.994-3.316-.322-1.106-.613-2.22-.94-3.323-.243-.816-.528-1.62-.784-2.43-.174-.55-.329-1.105-.496-1.656-.3-.986-.602-1.973-.904-2.958-.314-1.023-.625-2.047-.947-3.067-.286-.904-.593-1.802-.88-2.706-.163-.516-.296-1.042-.462-1.558-.253-.789-.523-1.573-.787-2.358-.32-.95-.639-1.901-.965-2.85-.198-.574-.414-1.143-.614-1.716-.308-.88-.605-1.763-.913-2.642-.264-.754-.55-1.5-.803-2.258-.278-.836-.531-1.68-.787-2.522-.07-.227-.107-.467-.47-.3 0-.23-.002-.38 0-.53.007-.634-.366-1.061-1.008-1.12-.287-.026-.578-.004-.907-.004-.062-.324-.292-.377-.594-.352-1.428.118-2.856.222-4.284.332l-.051.005c-1.103.095-2.207.174-3.308.29-.83.087-1.654.226-2.482.333-1.354.174-2.71.334-4.063.513-.879.116-1.754.258-2.632.384a82.62 82.62 0 0 1-1.569.213c-.727.091-1.456.167-2.182.263-.624.082-1.245.18-1.866.278-.622.1-1.24.212-1.862.314-.771.128-1.543.253-2.316.375-.505.08-1.01.153-1.516.23-1.501.227-3.004.444-4.503.687-1.159.188-2.312.41-3.468.617-.92.164-1.841.316-2.757.496-.799.158-1.59.353-2.387.524-.465.1-.93.197-1.4.268-.308.046-.49.19-.566.491-.275 1.084-.548 2.169-.839 3.248-.256.953-.541 1.898-.803 2.849-.167.605-.31 1.216-.473 1.822-.181.669-.38 1.333-.56 2.002-.18.67-.34 1.345-.52 2.015-.097.36-.218.713-.322 1.07-.032.11-.045.226-.07.356.085.033.147.08.206.077.8-.034 1.6-.07 2.4-.113.494-.026.987-.06 1.481-.098 1.719-.129 3.437-.262 5.156-.39.426-.03.853-.04 1.279-.067 1.192-.077 2.384-.16 3.577-.235 1.328-.085 2.656-.167 3.985-.246 1.243-.073 2.487-.139 3.731-.208 1.21-.067 2.42-.122 3.63-.204 1.496-.102 2.99-.228 4.486-.34.29-.021.58-.019.87-.032 1.756-.083 3.514-.147 5.267-.262.624-.041 1.238-.208 1.857-.318.369-.066.738-.129 1.107-.2 1.255-.24 2.51-.48 3.765-.725.967-.189 1.94-.353 2.898-.584 1.056-.255 1.983.619 1.882 1.5-.064.558-.373.938-.864 1.165-.228.106-.485.16-.735.208-1.273.244-2.55.471-3.822.719-.95.184-1.895.4-2.845.587-.867.17-1.74.309-2.605.482-.749.15-1.491.33-2.237.495-.399.089-.797.18-1.196.263-1.118.233-2.236.46-3.352.696-.582.124-1.159.268-1.739.396-.382.084-.764.17-1.15.227-.656.098-1.315.174-1.972.26l-2.023.267c-.388.05-.778.095-1.165.153-.772.115-1.542.236-2.313.355-.05.008-.101.018-.152.023-.744.084-1.489.163-2.232.25-.864.103-1.726.22-2.59.318-.458.052-.918.077-1.378.11-1.225.087-2.453.157-3.677.26-1.205.1-2.408.234-3.612.347-.254.024-.512.019-.768.034-1.6.094-3.202.186-4.803.289-.543.035-1.084.106-1.627.146-.239.018-.375.132-.438.353-.135.472-.267.943-.406 1.414-.36 1.22-.726 2.44-1.084 3.662-.162.553-.3 1.112-.464 1.663-.248.828-.516 1.649-.766 2.475-.167.552-.31 1.11-.478 1.662-.267.88-.544 1.754-.816 2.632-.16.517-.315 1.036-.477 1.553-.267.857-.54 1.712-.805 2.57-.16.519-.301 1.045-.47 1.562-.267.825-.555 1.643-.825 2.467-.169.513-.315 1.035-.479 1.55-.255.804-.52 1.604-.772 2.409-.168.534-.31 1.076-.48 1.61-.262.828-.54 1.652-.808 2.478-.169.516-.33 1.034-.501 1.549-.266.8-.541 1.598-.804 2.4-.158.483-.293.973-.448 1.457-.27.842-.55 1.68-.819 2.522-.17.533-.321 1.073-.492 1.606-.257.806-.53 1.608-.787 2.414-.164.518-.303 1.044-.47 1.56-.264.809-.547 1.61-.814 2.418-.17.515-.322 1.036-.487 1.553-.263.82-.535 1.638-.795 2.46-.159.5-.296 1.008-.453 1.51-.275.876-.56 1.75-.837 2.626-.164.517-.312 1.04-.48 1.555-.259.803-.537 1.6-.792 2.403-.165.516-.296 1.043-.456 1.56-.271.88-.554 1.754-.83 2.63-.163.518-.322 1.036-.483 1.555-.164.531-.327 1.063-.494 1.594-.247.79-.497 1.578-.747 2.367-.251.795-.505 1.589-.755 2.384-.194.615-.379 1.232-.577 1.846-.26.803-.535 1.6-.79 2.404-.164.518-.293 1.045-.457 1.562-.272.858-.568 1.708-.838 2.567-.172.548-.302 1.11-.48 1.657-.233.722-.491 1.435-.744 2.15-.152.43-.308.859-.476 1.282-.093.236-.216.46-.325.689h-.513z" fill="#000" fill-rule="evenodd"/></svg>