<?xml version="1.0" standalone="no"?>
<!DOCTYPE svg PUBLIC "-//W3C//DTD SVG 1.1//EN" "http://www.w3.org/Graphics/SVG/1.1/DTD/svg11.dtd" >
<svg xmlns="http://www.w3.org/2000/svg" xmlns:xlink="http://www.w3.org/1999/xlink" version="1.1">
<metadata>
Created by FontForge 20170910 at Wed Jan 13 16:29:41 2010
 By jimmywarting
Copyright (c) 2010 Linotype Corp., www.linotype.com. All rights reserved. This font software may not be reproduced, modified, disclosed or transferred without the express written approval of Linotype Corp. Frutiger is a trademark of Linotype Corp. registered in the U.S. Patent and Trademark Office and may be registered in certain other jurisdictions in the name of Linotype Corp. or its licensee Linotype GmbH. This typeface is original artwork of Adrian Frutiger and Linotype Design Studio. The design may be protected in certain jurisdictions.
</metadata>
<defs>
<font id="FrutigerNeueLTW1G-Black" horiz-adv-x="500" >
  <font-face 
    font-family="Frutiger Neue LT W1G Medium"
    font-weight="750"
    font-stretch="normal"
    units-per-em="1000"
    panose-1="2 11 10 3 4 3 4 2 2 3"
    ascent="760"
    descent="-240"
    x-height="520"
    cap-height="698"
    bbox="-175 -237 1308 948"
    underline-thickness="50"
    underline-position="-100"
    stemh="123"
    stemv="182"
    unicode-range="U+000D-FB04"
  />
<missing-glyph horiz-adv-x="512" 
d="M278 117h-56v67h56v-67zM271 234h-46l-2 17c0 37 4 64 13 81s24 37 46 59c43 41 50 58 50 83c0 48 -35 85 -76 85s-74 -27 -82 -95l-50 8c9 95 63 137 135 137c71 0 124 -52 124 -131c0 -43 -12 -73 -63 -120c-25 -22 -39 -39 -43 -52s-6 -37 -6 -72zM50 50h412v617h-412
v-617zM0 718h512v-718h-512v718z" />
    <glyph glyph-name="napostrophe" unicode="&#x22;n" horiz-adv-x="667" 
d="M227 430h2c38 58 109 103 183 103c127 0 201 -78 201 -221v-312h-180v247c0 96 -19 142 -83 142c-47 0 -74 -22 -90 -53s-20 -73 -20 -113v-223h-181v351c0 44 -1 99 -5 169h169c2 -22 4 -63 4 -90zM95 756l-68 -177h-90l19 177h139z" />
    <glyph glyph-name="IJ" unicode="IJ" horiz-adv-x="734" 
d="M249 698v-698h-189v698h189zM679 698v-453c0 -157 -74 -258 -244 -258c-38 0 -79 4 -121 15v146c25 -6 52 -9 70 -9c70 0 107 29 107 114v445h188z" />
    <glyph glyph-name="fi" unicode="fi" horiz-adv-x="768" 
d="M431 750l-10 -121c-14 4 -29 6 -47 6c-49 0 -71 -32 -71 -87v-28h127v-123h-127v-397h-182v397h-105v123h105v38c0 136 67 202 213 202c35 0 74 -4 97 -10zM681 730v-134h-181v134h181zM681 520v-520h-181v520h181z" />
    <glyph glyph-name="fl" unicode="fl" horiz-adv-x="768" 
d="M431 750l-10 -121c-14 4 -29 6 -47 6c-49 0 -71 -32 -71 -87v-28h127v-123h-127v-397h-182v397h-105v123h105v38c0 136 67 202 213 202c35 0 74 -4 97 -10zM681 756v-756h-181v756h181z" />
    <glyph glyph-name="ij" unicode="ij" horiz-adv-x="658" 
d="M258 730v-134h-181v134h181zM258 520v-520h-181v520h181zM585 730v-133h-182v133h182zM585 520v-501c0 -129 -32 -241 -195 -241c-29 0 -57 2 -89 8l5 123c12 -2 18 -3 26 -3c54 0 71 27 71 113v501h182z" />
    <glyph glyph-name="f_f_l" unicode="ffl" horiz-adv-x="1119" 
d="M1059 756v-756h-181v756h181zM810 750l-10 -121c-14 4 -29 6 -47 6c-49 0 -71 -32 -71 -87v-28h127v-123h-127v-397h-182v397h-197v-397h-182v397h-105v123h105v38c0 136 67 202 213 202c35 0 74 -4 97 -10l-10 -121c-14 4 -29 6 -47 6c-49 0 -71 -32 -71 -87v-28h197v38
c0 136 67 202 213 202c35 0 74 -4 97 -10z" />
    <glyph glyph-name="f_f_i" unicode="ffi" horiz-adv-x="1119" 
d="M1059 730v-134h-181v134h181zM1059 520v-520h-181v520h181zM810 750l-10 -121c-14 4 -29 6 -47 6c-49 0 -71 -32 -71 -87v-28h127v-123h-127v-397h-182v397h-197v-397h-182v397h-105v123h105v38c0 136 67 202 213 202c35 0 74 -4 97 -10l-10 -121c-14 4 -29 6 -47 6
c-49 0 -71 -32 -71 -87v-28h197v38c0 136 67 202 213 202c35 0 74 -4 97 -10z" />
    <glyph glyph-name="f_f" unicode="ff" horiz-adv-x="823" 
d="M810 750l-10 -121c-14 4 -29 6 -47 6c-49 0 -71 -32 -71 -87v-28h127v-123h-127v-397h-182v397h-197v-397h-182v397h-105v123h105v38c0 136 67 202 213 202c35 0 74 -4 97 -10l-10 -121c-14 4 -29 6 -47 6c-49 0 -71 -32 -71 -87v-28h197v38c0 136 67 202 213 202
c35 0 74 -4 97 -10z" />
    <glyph glyph-name=".notdef" horiz-adv-x="512" 
d="M278 117h-56v67h56v-67zM271 234h-46l-2 17c0 37 4 64 13 81s24 37 46 59c43 41 50 58 50 83c0 48 -35 85 -76 85s-74 -27 -82 -95l-50 8c9 95 63 137 135 137c71 0 124 -52 124 -131c0 -43 -12 -73 -63 -120c-25 -22 -39 -39 -43 -52s-6 -37 -6 -72zM50 50h412v617h-412
v-617zM0 718h512v-718h-512v718z" />
    <glyph glyph-name=".null" 
 />
    <glyph glyph-name="CR" unicode="&#xd;" horiz-adv-x="0" 
 />
    <glyph glyph-name="space" unicode=" " horiz-adv-x="260" 
 />
    <glyph glyph-name="exclam" unicode="!" horiz-adv-x="342" 
d="M265 699l-25 -470h-135l-25 470h185zM255 155v-155h-166v155h166z" />
    <glyph glyph-name="quotedbl" unicode="&#x22;" horiz-adv-x="534" 
d="M213 390h-92l-28 308h147zM413 390h-92l-28 308h148z" />
    <glyph glyph-name="numbersign" unicode="#" horiz-adv-x="612" 
d="M202 0h-143l33 169h-78v121h100l22 116h-78v120h100l32 172h141l-32 -172h84l32 172h143l-34 -172h78v-120h-100l-22 -116h78v-121h-100l-31 -169h-142l32 169h-84zM339 290l22 116h-84l-22 -116h84z" />
    <glyph glyph-name="dollar" unicode="$" horiz-adv-x="612" 
d="M524 680l-16 -127c-61 21 -121 29 -169 30v-155c162 -45 228 -102 228 -211c0 -126 -90 -203 -236 -219v-91h-60v87h-5c-76 0 -144 10 -211 30l18 134c68 -25 142 -38 198 -38v168l-35 10c-142 40 -190 100 -190 198c0 127 98 193 233 206v87h60v-84
c67 -1 125 -8 185 -25zM402 198c0 33 -17 52 -71 71v-145c46 9 71 36 71 74zM209 514c0 -27 10 -49 70 -68v134c-43 -7 -70 -32 -70 -66z" />
    <glyph glyph-name="percent" unicode="%" horiz-adv-x="956" 
d="M240 427c31 0 56 30 56 101c0 68 -24 94 -56 94s-56 -26 -56 -94c0 -71 25 -101 56 -101zM240 335c-110 0 -181 76 -181 193c0 124 72 188 181 188s181 -64 181 -188c0 -117 -71 -193 -181 -193zM651 736h103l-452 -757h-103zM716 78c31 0 56 30 56 101
c0 68 -24 94 -56 94s-56 -26 -56 -94c0 -71 25 -101 56 -101zM716 -14c-110 0 -181 76 -181 193c0 124 72 188 181 188s181 -64 181 -188c0 -117 -71 -193 -181 -193z" />
    <glyph glyph-name="ampersand" unicode="&#x26;" horiz-adv-x="778" 
d="M587 385h162c-6 -84 -48 -178 -105 -240l138 -145h-206l-53 54c-57 -46 -137 -65 -227 -65c-157 0 -263 75 -263 203c0 106 62 155 159 197c-57 54 -82 99 -82 154c0 118 110 168 244 168c119 0 218 -57 218 -172c0 -89 -47 -135 -152 -178l124 -119c29 37 42 91 43 143z
M338 439c57 24 83 55 83 93c0 40 -30 63 -75 63c-40 0 -73 -23 -73 -60c0 -27 15 -55 65 -96zM431 146l-150 152c-56 -20 -73 -53 -73 -91c0 -57 55 -91 114 -91c42 0 81 8 109 30z" />
    <glyph glyph-name="quotesingle" unicode="'" horiz-adv-x="333" 
d="M210 390h-87l-30 308h147z" />
    <glyph glyph-name="parenleft" unicode="(" horiz-adv-x="389" 
d="M55 310c0 156 51 299 160 450h145c-94 -166 -138 -302 -138 -450c0 -150 44 -284 138 -450h-145c-109 151 -160 294 -160 450z" />
    <glyph glyph-name="parenright" unicode=")" horiz-adv-x="389" 
d="M334 310c0 -156 -51 -299 -160 -450h-145c94 166 138 300 138 450c0 148 -44 284 -138 450h145c109 -151 160 -294 160 -450z" />
    <glyph glyph-name="asterisk" unicode="*" horiz-adv-x="611" 
d="M370 750l-25 -150l131 66l37 -116l-143 -25l102 -103l-102 -72l-65 131l-72 -131l-99 72l106 103l-144 25l38 116l134 -66l-24 150h126z" />
    <glyph glyph-name="plus" unicode="+" horiz-adv-x="612" 
d="M232 0v197h-196v146h196v197h148v-197h196v-146h-196v-197h-148z" />
    <glyph glyph-name="comma" unicode="," horiz-adv-x="280" 
d="M256 158l-100 -269h-137l66 269h171z" />
    <glyph glyph-name="hyphen" unicode="-" horiz-adv-x="333" 
d="M303 347v-133h-273v133h273z" />
    <glyph glyph-name="period" unicode="." horiz-adv-x="280" 
d="M225 170v-170h-170v170h170z" />
    <glyph glyph-name="slash" unicode="/" horiz-adv-x="515" 
d="M70 0l245 698h130l-244 -698h-131z" />
    <glyph glyph-name="zero" unicode="0" horiz-adv-x="612" 
d="M314 714c178 0 266 -114 266 -354c0 -259 -86 -375 -271 -375c-186 0 -278 112 -278 349c0 270 85 380 283 380zM306 589c-62 0 -96 -75 -96 -229c0 -168 34 -250 96 -250c60 0 95 82 95 237c0 165 -32 242 -95 242z" />
    <glyph glyph-name="one" unicode="1" horiz-adv-x="612" 
d="M447 698v-698h-184v330c0 59 2 157 4 194h-2c-17 -16 -60 -51 -98 -78l-36 -26l-82 122l234 156h164z" />
    <glyph glyph-name="two" unicode="2" horiz-adv-x="612" 
d="M73 526l-17 143c58 26 145 42 227 42c125 0 253 -56 253 -209c0 -88 -33 -165 -155 -271c-61 -53 -95 -76 -124 -96v-2c65 2 138 3 205 3h88v-136h-505v132c213 162 301 251 301 348c0 69 -50 91 -110 91c-53 0 -107 -14 -163 -45z" />
    <glyph glyph-name="three" unicode="3" horiz-adv-x="612" 
d="M203 294c-9 0 -28 -1 -41 -2v128c12 -1 26 -2 41 -2c105 0 158 20 158 78c0 51 -44 82 -123 82c-59 0 -125 -14 -163 -33l-13 136c63 22 143 30 210 30c168 0 268 -70 268 -182c0 -95 -56 -146 -154 -163v-2c105 -16 166 -77 166 -168c0 -133 -142 -209 -320 -209
c-61 0 -123 6 -187 24l8 145c58 -21 115 -32 169 -32c86 0 147 23 147 86c0 66 -65 84 -166 84z" />
    <glyph glyph-name="four" unicode="4" horiz-adv-x="612" 
d="M498 698v-435h97v-129h-97v-134h-171v134h-317v141l286 423h202zM332 263v41c0 59 1 166 5 251h-2c-37 -68 -101 -170 -119 -198l-62 -94h178z" />
    <glyph glyph-name="five" unicode="5" horiz-adv-x="612" 
d="M524 698v-129h-287l-2 -117c30 5 44 6 73 6c142 0 245 -79 245 -213c0 -155 -121 -258 -311 -258c-58 0 -118 6 -179 21l9 144c48 -17 104 -26 150 -26c95 0 151 36 151 108s-62 101 -161 101c-44 0 -89 -7 -134 -19l4 382h442z" />
    <glyph glyph-name="six" unicode="6" horiz-adv-x="612" 
d="M538 691l-18 -137c-44 17 -89 26 -135 26c-115 0 -177 -65 -180 -188h2c34 42 101 70 162 70c134 0 219 -87 219 -225c0 -145 -93 -250 -268 -250c-184 0 -289 122 -289 337c0 244 124 387 347 387c63 0 110 -7 160 -20zM316 337c-53 0 -103 -47 -103 -106
c0 -65 44 -116 101 -116c69 0 100 54 100 112c0 67 -31 110 -98 110z" />
    <glyph glyph-name="seven" unicode="7" horiz-adv-x="612" 
d="M554 698v-145l-250 -553h-199l265 561h-336v137h520z" />
    <glyph glyph-name="eight" unicode="8" horiz-adv-x="612" 
d="M442 373c106 -41 143 -90 143 -180c0 -131 -119 -206 -280 -206c-163 0 -278 75 -278 197c0 81 48 140 147 177c-99 38 -129 91 -129 166c0 114 109 184 263 184c146 0 255 -62 255 -170c0 -76 -31 -125 -121 -168zM314 417c57 23 81 57 81 99c0 51 -36 77 -91 77
c-54 0 -93 -29 -93 -75c0 -51 37 -78 103 -101zM296 305c-57 -22 -90 -53 -90 -106c0 -56 42 -91 102 -91c59 0 101 37 101 88c0 53 -28 83 -113 109z" />
    <glyph glyph-name="nine" unicode="9" horiz-adv-x="612" 
d="M61 12l17 138c43 -19 97 -31 143 -31c133 0 182 78 185 201h-2c-38 -50 -95 -76 -158 -76c-124 0 -217 75 -217 221c0 145 105 246 272 246c184 0 279 -122 279 -337c0 -252 -128 -387 -347 -387c-64 0 -126 10 -172 25zM301 371c53 0 97 43 97 102c0 65 -38 116 -95 116
c-69 0 -96 -56 -96 -114c0 -67 37 -104 94 -104z" />
    <glyph glyph-name="colon" unicode=":" horiz-adv-x="306" 
d="M238 170v-170h-170v170h170zM238 520v-170h-170v170h170z" />
    <glyph glyph-name="semicolon" unicode=";" horiz-adv-x="306" 
d="M238 520v-170h-170v170h170zM257 158l-100 -269h-138l66 269h172z" />
    <glyph glyph-name="less" unicode="&#x3c;" horiz-adv-x="612" 
d="M576 401l-229 -82c-44 -16 -127 -39 -163 -47v-2c36 -9 119 -34 163 -50l229 -81v-156l-540 212v151l540 211v-156z" />
    <glyph glyph-name="equal" unicode="=" horiz-adv-x="612" 
d="M36 317v146h540v-146h-540zM36 77v146h540v-146h-540z" />
    <glyph glyph-name="greater" unicode="&#x3e;" horiz-adv-x="612" 
d="M265 319l-229 82v156l540 -211v-151l-540 -212v156l229 81c44 16 127 41 163 50v2c-36 8 -119 31 -163 47z" />
    <glyph glyph-name="question" unicode="?" horiz-adv-x="520" 
d="M53 550l-6 133c64 19 131 28 199 28c157 0 253 -53 253 -176c0 -68 -36 -116 -117 -185c-63 -53 -72 -75 -72 -114v-8h-140v8c0 63 15 101 68 153s81 84 81 121c0 55 -42 73 -116 73c-47 0 -96 -10 -150 -33zM323 155v-155h-166v155h166z" />
    <glyph glyph-name="at" unicode="@" horiz-adv-x="1000" 
d="M777 31l32 -98c-81 -39 -178 -61 -286 -61c-268 0 -442 142 -442 405c0 264 202 432 449 432c233 0 392 -113 392 -335c0 -160 -105 -294 -244 -294c-60 0 -108 32 -111 90h-2c-26 -54 -74 -90 -138 -90c-94 0 -149 75 -149 176c0 142 94 269 213 269
c60 0 97 -30 109 -64l12 46h135l-54 -200c-16 -59 -17 -76 -17 -93c0 -18 8 -30 28 -30c57 0 108 80 108 194c0 147 -106 246 -271 246c-192 0 -343 -135 -343 -346c0 -213 145 -304 332 -304c95 0 174 17 247 57zM531 430c-52 0 -102 -103 -102 -188c0 -30 13 -60 39 -60
c18 0 37 10 54 41c21 39 45 134 45 165c0 17 -7 42 -36 42z" />
    <glyph glyph-name="A" unicode="A" horiz-adv-x="769" 
d="M495 698l270 -698h-204l-52 149h-262l-55 -149h-188l266 698h225zM466 280l-29 94c-16 53 -46 153 -55 190h-2c-9 -37 -40 -137 -58 -190l-32 -94h176z" />
    <glyph glyph-name="B" unicode="B" horiz-adv-x="666" 
d="M60 698h267c158 0 277 -39 277 -178c0 -74 -43 -138 -144 -158v-2c107 -16 165 -78 165 -168c0 -149 -154 -192 -299 -192h-266v698zM244 572v-159h32c99 0 144 22 144 82c0 68 -68 77 -135 77h-41zM244 293v-164h28c114 0 164 25 164 88c0 57 -51 76 -155 76h-37z" />
    <glyph glyph-name="C" unicode="C" horiz-adv-x="657" 
d="M619 689l-13 -145c-46 19 -94 27 -144 27c-134 0 -230 -71 -230 -216c0 -137 92 -224 241 -224c51 0 95 8 142 26l12 -148c-51 -14 -112 -22 -171 -22c-252 0 -418 118 -418 364c0 233 169 360 414 360c67 0 120 -7 167 -22z" />
    <glyph glyph-name="D" unicode="D" horiz-adv-x="763" 
d="M60 698h252c236 0 417 -94 417 -352c0 -244 -186 -346 -417 -346h-252v698zM251 560v-425h31c145 0 254 52 254 212c0 168 -109 213 -254 213h-31z" />
    <glyph glyph-name="E" unicode="E" horiz-adv-x="598" 
d="M60 698h480v-134h-295v-144h277v-134h-277v-151h305v-135h-490v698z" />
    <glyph glyph-name="F" unicode="F" horiz-adv-x="553" 
d="M60 698h455v-135h-267v-153h256v-135h-256v-275h-188v698z" />
    <glyph glyph-name="G" unicode="G" horiz-adv-x="744" 
d="M670 680l-15 -147c-63 30 -125 39 -190 39c-142 0 -233 -90 -233 -224c0 -136 76 -222 208 -222c28 0 48 2 72 6v139h-110v130h278v-385c-64 -18 -149 -29 -217 -29c-276 0 -425 124 -425 353c0 234 163 371 419 371c69 0 130 -6 213 -31z" />
    <glyph glyph-name="H" unicode="H" horiz-adv-x="747" 
d="M687 698v-698h-190v290h-247v-290h-190v698h190v-266h247v266h190z" />
    <glyph glyph-name="I" unicode="I" horiz-adv-x="309" 
d="M249 698v-698h-189v698h189z" />
    <glyph glyph-name="J" unicode="J" horiz-adv-x="435" 
d="M380 698v-453c0 -157 -74 -258 -244 -258c-38 0 -79 4 -121 15v146c25 -6 52 -9 70 -9c70 0 107 29 107 114v445h188z" />
    <glyph glyph-name="K" unicode="K" horiz-adv-x="700" 
d="M248 323v-323h-188v698h188v-294h2c11 18 79 117 109 158l99 136h215l-256 -323l283 -375h-234l-104 151c-26 38 -80 120 -112 172h-2z" />
    <glyph glyph-name="L" unicode="L" horiz-adv-x="552" 
d="M250 698v-557h283v-141h-473v698h190z" />
    <glyph glyph-name="M" unicode="M" horiz-adv-x="995" 
d="M362 698l65 -218c25 -84 50 -177 73 -265h2c24 88 51 181 77 265l67 218h289v-698h-181v220c0 104 2 240 4 347h-2c-24 -88 -68 -230 -91 -299l-90 -268h-166l-91 270c-11 32 -71 227 -91 297h-2c2 -107 4 -243 4 -347v-220h-169v698h302z" />
    <glyph glyph-name="N" unicode="N" horiz-adv-x="765" 
d="M538 480v218h167v-698h-234l-123 233c-44 84 -107 219 -126 265h-2c3 -43 5 -206 5 -266v-232h-165v698h237l127 -250c26 -50 98 -202 118 -251h2c-3 52 -6 203 -6 283z" />
    <glyph glyph-name="O" unicode="O" horiz-adv-x="788" 
d="M401 711c207 0 349 -136 349 -360c0 -233 -141 -364 -362 -364c-212 0 -350 133 -350 365c0 229 142 359 363 359zM390 573c-96 0 -158 -83 -158 -228c0 -138 66 -221 162 -221c97 0 161 81 161 220c0 148 -63 229 -165 229z" />
    <glyph glyph-name="P" unicode="P" horiz-adv-x="616" 
d="M60 698h240c169 0 302 -47 302 -223c0 -181 -153 -228 -302 -228h-50v-247h-190v698zM250 566v-185h40c60 0 124 18 124 93c0 72 -64 92 -124 92h-40z" />
    <glyph glyph-name="Q" unicode="Q" horiz-adv-x="788" 
d="M401 711c207 0 349 -136 349 -360c0 -158 -65 -269 -175 -324l160 -160h-207l-109 121c-10 -1 -21 -1 -31 -1c-212 0 -350 133 -350 365c0 229 142 359 363 359zM390 573c-96 0 -158 -83 -158 -228c0 -138 66 -221 162 -221c97 0 161 81 161 220c0 148 -63 229 -165 229z
" />
    <glyph glyph-name="R" unicode="R" horiz-adv-x="664" 
d="M60 698h239c177 0 321 -28 321 -182c0 -90 -50 -148 -155 -167v-2c52 -11 81 -36 102 -90l98 -257h-196l-57 173c-25 75 -49 96 -119 96h-42v-269h-191v698zM251 565v-165h33c99 0 149 25 149 86c0 63 -50 79 -149 79h-33z" />
    <glyph glyph-name="S" unicode="S" horiz-adv-x="585" 
d="M516 688l-11 -145c-60 23 -112 31 -160 31c-63 0 -110 -20 -110 -62c0 -35 23 -50 118 -86c124 -47 193 -105 193 -213c0 -142 -110 -226 -290 -226c-75 0 -145 10 -211 30l15 153c66 -29 137 -43 187 -43c66 0 109 23 109 69c0 38 -33 59 -127 94
c-110 41 -186 99 -186 205c0 143 126 216 285 216c69 0 132 -6 188 -23z" />
    <glyph glyph-name="T" unicode="T" horiz-adv-x="574" 
d="M564 698v-140l-184 3v-561h-190v561l-180 -3v140h554z" />
    <glyph glyph-name="U" unicode="U" horiz-adv-x="722" 
d="M662 698v-421c0 -217 -128 -290 -303 -290c-196 0 -299 92 -299 290v421h188v-439c0 -89 29 -136 112 -136c73 0 117 47 117 136v439h185z" />
    <glyph glyph-name="V" unicode="V" horiz-adv-x="709" 
d="M200 698l117 -390c10 -32 34 -125 41 -158h2c7 33 32 126 41 158l114 390h189l-237 -698h-232l-231 698h196z" />
    <glyph glyph-name="W" unicode="W" horiz-adv-x="1044" 
d="M628 0l-83 419c-7 35 -18 103 -23 148h-2c-4 -45 -14 -114 -20 -148l-76 -419h-246l-163 698h194l68 -356c4 -24 25 -140 31 -194h2c6 54 25 170 29 194l62 356h249l70 -356c5 -24 25 -143 31 -194h2c6 50 26 167 31 194l64 356h184l-158 -698h-246z" />
    <glyph glyph-name="X" unicode="X" horiz-adv-x="712" 
d="M27 698h218l51 -93c26 -48 53 -100 70 -139c18 39 47 99 68 138l51 94h203l-204 -329l224 -369h-224l-59 110c-24 43 -57 110 -69 140c-14 -30 -50 -95 -75 -140l-62 -110h-215l229 359z" />
    <glyph glyph-name="Y" unicode="Y" horiz-adv-x="701" 
d="M3 698h220l70 -141c23 -47 51 -110 66 -147h2c15 36 43 100 65 147l66 141h206l-250 -443v-255h-190v260z" />
    <glyph glyph-name="Z" unicode="Z" horiz-adv-x="611" 
d="M573 551c-200 -255 -304 -384 -332 -414h338v-137h-548v152c170 219 305 387 326 411h-317v135h533v-147z" />
    <glyph glyph-name="bracketleft" unicode="[" horiz-adv-x="389" 
d="M355 760v-112h-115v-677h115v-111h-263v900h263z" />
    <glyph glyph-name="backslash" unicode="\" horiz-adv-x="515" 
d="M200 698l245 -698h-131l-244 698h130z" />
    <glyph glyph-name="bracketright" unicode="]" horiz-adv-x="389" 
d="M34 -140v112h115v677h-115v111h263v-900h-263z" />
    <glyph glyph-name="asciicircum" unicode="^" horiz-adv-x="612" 
d="M268 432l-57 -171h-157l176 438h151l176 -438h-158l-58 171c-11 32 -31 105 -36 130h-2c-6 -25 -25 -99 -35 -130z" />
    <glyph glyph-name="underscore" unicode="_" 
d="M0 -78h500v-50h-500v50z" />
    <glyph glyph-name="grave" unicode="`" 
d="M269 579l-156 177h173l77 -177h-94z" />
    <glyph glyph-name="a" unicode="a" horiz-adv-x="605" 
d="M384 233c-11 1 -25 2 -37 2c-92 0 -144 -21 -144 -71c0 -43 30 -60 73 -60c66 0 108 48 108 129zM398 86h-2c-33 -57 -95 -96 -177 -96c-106 0 -186 66 -186 164c0 118 101 175 274 175c21 0 50 -2 75 -4c0 66 -43 90 -111 90c-56 0 -122 -16 -171 -41l-5 124
c56 25 141 35 204 35c173 0 252 -76 252 -219c0 -27 -2 -82 -2 -126c0 -79 4 -145 8 -188h-158c-2 8 -3 26 -3 41c0 11 0 26 2 45z" />
    <glyph glyph-name="b" unicode="b" horiz-adv-x="668" 
d="M233 78h-2c0 -26 -2 -58 -4 -78h-172c4 43 5 100 5 154v602h182v-156c0 -50 -1 -109 -3 -156h2c41 58 96 89 172 89c133 0 222 -107 222 -268c0 -166 -94 -278 -233 -278c-79 0 -135 32 -169 91zM346 399c-67 0 -112 -56 -112 -137c0 -86 43 -140 112 -140
c65 0 106 54 106 142c0 83 -41 135 -106 135z" />
    <glyph glyph-name="c" unicode="c" horiz-adv-x="486" 
d="M453 509l-12 -130c-32 13 -64 18 -95 18c-76 0 -129 -46 -129 -136c0 -89 51 -135 133 -135c30 0 60 4 94 19l6 -134c-48 -15 -83 -20 -129 -20c-176 0 -288 103 -288 272c0 161 117 265 284 265c54 0 96 -4 136 -19z" />
    <glyph glyph-name="d" unicode="d" horiz-adv-x="670" 
d="M320 399c-63 0 -104 -54 -104 -136c0 -83 44 -141 108 -141c66 0 111 56 111 139c0 84 -45 138 -115 138zM445 93h-2c-36 -72 -96 -106 -177 -106c-141 0 -233 110 -233 278c0 159 97 268 233 268c79 0 130 -33 163 -89h2c-2 49 -3 106 -3 156v156h182v-602
c0 -54 1 -111 5 -154h-168c-1 22 -2 57 -2 93z" />
    <glyph glyph-name="e" unicode="e" horiz-adv-x="604" 
d="M570 210h-361c6 -57 58 -100 153 -100c53 0 106 11 159 38l5 -126c-45 -22 -111 -35 -184 -35c-184 0 -308 101 -308 274c0 162 115 272 286 272c157 0 252 -91 252 -281c0 -8 -1 -35 -2 -42zM209 315h201c0 69 -35 101 -94 101c-54 0 -98 -36 -107 -101z" />
    <glyph glyph-name="f" unicode="f" horiz-adv-x="444" 
d="M431 750l-10 -121c-14 4 -29 6 -47 6c-49 0 -71 -32 -71 -87v-28h127v-123h-127v-397h-182v397h-105v123h105v38c0 136 67 202 213 202c35 0 74 -4 97 -10z" />
    <glyph glyph-name="g" unicode="g" horiz-adv-x="668" 
d="M439 450h2c-2 32 -2 44 -2 70h172v-467c0 -195 -124 -275 -312 -275c-70 0 -146 10 -213 34l11 141c64 -32 126 -47 184 -47c90 0 157 29 157 143c0 10 0 26 2 46h-2c-39 -60 -99 -92 -174 -92c-139 0 -231 104 -231 265c0 158 101 265 236 265c81 0 130 -29 170 -83z
M319 399c-60 0 -104 -55 -104 -130s43 -132 107 -132c63 0 112 57 112 130c0 77 -48 132 -115 132z" />
    <glyph glyph-name="h" unicode="h" horiz-adv-x="666" 
d="M235 433h2c38 58 100 100 174 100c127 0 201 -78 201 -221v-312h-180v247c0 96 -19 142 -83 142c-47 0 -74 -22 -90 -53s-20 -73 -20 -113v-223h-179v756h178v-156c0 -50 -1 -114 -3 -167z" />
    <glyph glyph-name="i" unicode="i" horiz-adv-x="301" 
d="M241 730v-134h-181v134h181zM241 520v-520h-181v520h181z" />
    <glyph glyph-name="j" unicode="j" horiz-adv-x="301" 
d="M244 730v-133h-182v133h182zM244 520v-501c0 -129 -32 -241 -195 -241c-29 0 -57 2 -89 8l5 123c12 -2 18 -3 26 -3c54 0 71 27 71 113v501h182z" />
    <glyph glyph-name="k" unicode="k" horiz-adv-x="617" 
d="M396 0l-75 120c-23 37 -57 93 -77 130h-2v-250h-182v756h182v-446h2c19 30 54 78 80 111l77 99h204l-193 -235l207 -285h-223z" />
    <glyph glyph-name="l" unicode="l" horiz-adv-x="301" 
d="M241 756v-756h-181v756h181z" />
    <glyph glyph-name="m" unicode="m" horiz-adv-x="1000" 
d="M593 0h-180v247c0 96 -19 142 -73 142c-37 0 -59 -16 -76 -42c-20 -31 -24 -81 -24 -124v-223h-181v351c0 44 -1 99 -5 169h166c2 -21 3 -63 3 -90h2c40 67 99 103 173 103c87 0 143 -35 174 -108c40 69 112 108 186 108c121 0 188 -78 188 -221v-312h-180v247
c0 96 -19 142 -72 142c-36 0 -59 -15 -74 -38c-22 -33 -27 -83 -27 -128v-223z" />
    <glyph glyph-name="n" unicode="n" horiz-adv-x="667" 
d="M227 430h2c38 58 109 103 183 103c127 0 201 -78 201 -221v-312h-180v247c0 96 -19 142 -83 142c-47 0 -74 -22 -90 -53s-20 -73 -20 -113v-223h-181v351c0 44 -1 99 -5 169h169c2 -22 4 -63 4 -90z" />
    <glyph glyph-name="o" unicode="o" horiz-adv-x="668" 
d="M337 533c181 0 298 -107 298 -274c0 -166 -119 -272 -301 -272c-181 0 -300 107 -300 270c0 171 115 276 303 276zM334 410c-66 0 -115 -63 -115 -148c0 -91 48 -152 116 -152s115 60 115 148c0 91 -47 152 -116 152z" />
    <glyph glyph-name="p" unicode="p" horiz-adv-x="668" 
d="M346 399c-67 0 -112 -56 -112 -138c0 -85 43 -139 111 -139c66 0 106 53 106 144c0 82 -41 133 -105 133zM232 438h2c49 65 96 95 177 95c136 0 224 -105 224 -268c0 -165 -94 -278 -233 -278c-75 0 -129 28 -162 84h-2c2 -20 3 -91 3 -121v-162h-182v571
c0 54 -1 118 -5 161h174c2 -21 4 -56 4 -82z" />
    <glyph glyph-name="q" unicode="q" horiz-adv-x="670" 
d="M319 399c-62 0 -103 -54 -103 -136c0 -86 43 -142 107 -142c68 0 112 54 112 137c0 85 -46 141 -116 141zM610 442v-654h-181v162c0 30 2 107 3 129h-3c-35 -58 -86 -92 -163 -92c-142 0 -233 109 -233 277c0 162 93 269 232 269c82 0 131 -32 169 -95h2c0 23 3 56 6 82
h171c-2 -22 -3 -51 -3 -78z" />
    <glyph glyph-name="r" unicode="r" horiz-adv-x="441" 
d="M218 406h2c25 81 72 127 154 127c20 0 42 -2 57 -7l-6 -151c-19 6 -39 9 -59 9c-93 0 -129 -61 -129 -199v-185h-182v365c0 55 -1 112 -5 155h163c2 -20 5 -84 5 -114z" />
    <glyph glyph-name="s" unicode="s" 
d="M440 506l-14 -125c-52 24 -97 35 -144 35c-46 0 -72 -16 -72 -43c0 -24 13 -33 95 -51c86 -19 167 -45 167 -160c0 -112 -94 -175 -241 -175c-53 0 -126 9 -187 28l8 130c62 -27 124 -38 173 -38c42 0 73 11 73 42c0 26 -13 35 -99 55c-112 26 -160 68 -160 157
c0 105 85 172 231 172c67 0 122 -7 170 -27z" />
    <glyph glyph-name="t" unicode="t" horiz-adv-x="440" 
d="M13 397v123h104v118l171 56v-174h125v-123h-125v-204c0 -40 10 -79 70 -79c19 0 39 2 56 6l6 -117c-35 -7 -79 -11 -110 -11c-139 0 -201 59 -201 188v217h-96z" />
    <glyph glyph-name="u" unicode="u" horiz-adv-x="667" 
d="M439 91h-2c-39 -67 -112 -104 -195 -104c-113 0 -188 78 -188 196v337h181v-285c0 -69 25 -100 81 -100c61 0 105 57 105 137v248h184v-367c0 -54 0 -110 5 -153h-167c-2 21 -4 57 -4 91z" />
    <glyph glyph-name="v" unicode="v" horiz-adv-x="611" 
d="M203 520l73 -250c10 -32 26 -96 33 -132h2c8 36 26 102 35 132l73 250h185l-193 -520h-212l-190 520h194z" />
    <glyph glyph-name="w" unicode="w" horiz-adv-x="960" 
d="M392 0h-226l-152 520h189l59 -259c7 -32 18 -90 24 -125h2c6 35 21 96 28 124l64 260h217l61 -259c8 -32 21 -90 27 -125h2c6 35 17 95 24 124l57 260h182l-154 -520h-227l-60 267c-8 36 -18 86 -24 121h-2c-7 -35 -16 -85 -25 -121z" />
    <glyph glyph-name="x" unicode="x" horiz-adv-x="611" 
d="M313 357h2c8 18 31 62 42 82l43 81h193l-168 -256l177 -264h-206l-32 56c-19 34 -46 84 -63 119h-2c-17 -35 -45 -85 -65 -119l-32 -56h-196l179 266l-165 254h206l44 -81c12 -21 35 -64 43 -82z" />
    <glyph glyph-name="y" unicode="y" horiz-adv-x="611" 
d="M419 520h186l-208 -546c-54 -142 -135 -196 -254 -196c-36 0 -67 4 -99 12l12 136c28 -8 46 -10 67 -10c42 0 74 22 85 70l-199 534h194l75 -251c10 -32 25 -94 32 -129h2c8 35 25 101 34 129z" />
    <glyph glyph-name="z" unicode="z" horiz-adv-x="508" 
d="M473 384c-155 -171 -219 -233 -243 -255h249v-129h-448v139c146 154 228 239 246 254h-242v127h438v-136z" />
    <glyph glyph-name="braceleft" unicode="{" horiz-adv-x="389" 
d="M16 267v85c74 17 100 50 100 136v51c0 154 70 210 245 221v-91c-71 -7 -97 -48 -97 -140v-36c0 -124 -41 -172 -140 -182v-2c99 -14 140 -61 140 -181v-37c0 -93 26 -133 97 -140v-91c-175 11 -245 66 -245 221v51c0 86 -26 120 -100 135z" />
    <glyph glyph-name="bar" unicode="|" horiz-adv-x="256" 
d="M60 -214v1000h136v-1000h-136z" />
    <glyph glyph-name="braceright" unicode="}" horiz-adv-x="389" 
d="M373 351v-85c-74 -16 -100 -49 -100 -135v-50c0 -154 -69 -210 -245 -221v91c71 7 97 48 97 140v36c0 124 41 171 140 181v2c-99 14 -140 62 -140 182v37c0 93 -26 133 -97 140v91c176 -11 245 -66 245 -221v-52c0 -86 26 -120 100 -136z" />
    <glyph glyph-name="asciitilde" unicode="~" horiz-adv-x="612" 
d="M565 363v-165c-31 -38 -82 -65 -135 -65c-111 0 -163 88 -259 88c-55 0 -97 -38 -124 -79v165c31 38 82 65 135 65c111 0 163 -88 259 -88c55 0 97 38 124 79z" />
    <glyph glyph-name="uni00A0" unicode="&#xa0;" horiz-adv-x="260" 
 />
    <glyph glyph-name="Agrave" unicode="&#xc0;" horiz-adv-x="769" 
d="M495 698l270 -698h-204l-52 149h-262l-55 -149h-188l266 698h225zM466 280l-29 94c-16 53 -46 153 -55 190h-2c-9 -37 -40 -137 -58 -190l-32 -94h176zM174 908h178l86 -158h-99z" />
    <glyph glyph-name="Aacute" unicode="&#xc1;" horiz-adv-x="769" 
d="M495 698l270 -698h-204l-52 149h-262l-55 -149h-188l266 698h225zM466 280l-29 94c-16 53 -46 153 -55 190h-2c-9 -37 -40 -137 -58 -190l-32 -94h176zM598 908l-163 -158h-100l85 158h178z" />
    <glyph glyph-name="Acircumflex" unicode="&#xc2;" horiz-adv-x="769" 
d="M495 698l270 -698h-204l-52 149h-262l-55 -149h-188l266 698h225zM466 280l-29 94c-16 53 -46 153 -55 190h-2c-9 -37 -40 -137 -58 -190l-32 -94h176zM552 750h-102l-70 75l-64 -75h-100l117 157h112z" />
    <glyph glyph-name="Atilde" unicode="&#xc3;" horiz-adv-x="769" 
d="M495 698l270 -698h-204l-52 149h-262l-55 -149h-188l266 698h225zM466 280l-29 94c-16 53 -46 153 -55 190h-2c-9 -37 -40 -137 -58 -190l-32 -94h176zM511 903h59c-7 -87 -45 -140 -111 -140c-17 0 -36 4 -78 20c-51 20 -64 23 -75 23c-28 0 -42 -13 -50 -49h-60
c9 80 52 136 114 136c25 0 45 -6 95 -27c33 -14 44 -18 63 -18c23 0 39 18 43 55z" />
    <glyph glyph-name="Adieresis" unicode="&#xc4;" horiz-adv-x="769" 
d="M495 698l270 -698h-204l-52 149h-262l-55 -149h-188l266 698h225zM466 280l-29 94c-16 53 -46 153 -55 190h-2c-9 -37 -40 -137 -58 -190l-32 -94h176zM341 909v-133h-138v133h138zM565 909v-133h-139v133h139z" />
    <glyph glyph-name="Amacron" unicode="&#x100;" horiz-adv-x="769" 
d="M495 698l270 -698h-204l-52 149h-262l-55 -149h-188l266 698h225zM466 280l-29 94c-16 53 -46 153 -55 190h-2c-9 -37 -40 -137 -58 -190l-32 -94h176zM538 875v-75h-308v75h308z" />
    <glyph glyph-name="Abreve" unicode="&#x102;" horiz-adv-x="769" 
d="M495 698l270 -698h-204l-52 149h-262l-55 -149h-188l266 698h225zM466 280l-29 94c-16 53 -46 153 -55 190h-2c-9 -37 -40 -137 -58 -190l-32 -94h176zM474 905h87c-5 -81 -72 -161 -182 -161c-121 0 -168 80 -173 161h87c3 -53 35 -81 88 -81c55 0 89 29 93 81z" />
    <glyph glyph-name="Aring" unicode="&#xc5;" horiz-adv-x="769" 
d="M495 698l270 -698h-204l-52 149h-262l-55 -149h-188l266 698h225zM466 280l-29 94c-16 53 -46 153 -55 190h-2c-9 -37 -40 -137 -58 -190l-32 -94h176zM383 778c30 0 53 25 53 56c0 28 -24 53 -53 53s-53 -25 -53 -53c0 -31 23 -56 53 -56zM383 726
c-61 0 -107 47 -107 108c0 59 45 106 107 106s107 -47 107 -106c0 -61 -46 -108 -107 -108z" />
    <glyph glyph-name="Aogonek" unicode="&#x104;" horiz-adv-x="769" 
d="M495 698l270 -698h-115c-61 -61 -72 -88 -72 -112c0 -25 18 -36 45 -36c14 0 35 2 56 8l11 -68c-29 -8 -54 -12 -85 -12c-57 0 -126 15 -126 91c0 43 22 78 82 129l-52 149h-262l-55 -149h-188l266 698h225zM466 280l-29 94c-16 53 -46 153 -55 190h-2
c-9 -37 -40 -137 -58 -190l-32 -94h176z" />
    <glyph glyph-name="AE" unicode="&#xc6;" horiz-adv-x="966" 
d="M918 135v-135h-413l-16 145h-247l-67 -145h-193l354 698h572v-134h-287l17 -144h252v-134h-236l17 -151h247zM476 277l-18 159c-5 47 -9 97 -14 159h-2c-14 -37 -49 -117 -68 -159l-73 -159h175z" />
    <glyph glyph-name="Cacute" unicode="&#x106;" horiz-adv-x="657" 
d="M619 689l-13 -145c-46 19 -94 27 -144 27c-134 0 -230 -71 -230 -216c0 -137 92 -224 241 -224c51 0 95 8 142 26l12 -148c-51 -14 -112 -22 -171 -22c-252 0 -418 118 -418 364c0 233 169 360 414 360c67 0 120 -7 167 -22zM641 908l-163 -158h-100l85 158h178z" />
    <glyph glyph-name="Ccircumflex" unicode="&#x108;" horiz-adv-x="657" 
d="M619 689l-13 -145c-46 19 -94 27 -144 27c-134 0 -230 -71 -230 -216c0 -137 92 -224 241 -224c51 0 95 8 142 26l12 -148c-51 -14 -112 -22 -171 -22c-252 0 -418 118 -418 364c0 233 169 360 414 360c67 0 120 -7 167 -22zM592 750h-102l-70 75l-64 -75h-100l117 157
h112z" />
    <glyph glyph-name="Ccaron" unicode="&#x10c;" horiz-adv-x="657" 
d="M619 689l-13 -145c-46 19 -94 27 -144 27c-134 0 -230 -71 -230 -216c0 -137 92 -224 241 -224c51 0 95 8 142 26l12 -148c-51 -14 -112 -22 -171 -22c-252 0 -418 118 -418 364c0 233 169 360 414 360c67 0 120 -7 167 -22zM268 908h102l70 -75l64 75h100l-117 -157
h-112z" />
    <glyph glyph-name="Cdotaccent" unicode="&#x10a;" horiz-adv-x="657" 
d="M619 689l-13 -145c-46 19 -94 27 -144 27c-134 0 -230 -71 -230 -216c0 -137 92 -224 241 -224c51 0 95 8 142 26l12 -148c-51 -14 -112 -22 -171 -22c-252 0 -418 118 -418 364c0 233 169 360 414 360c67 0 120 -7 167 -22zM510 922v-156h-174v156h174z" />
    <glyph glyph-name="Ccedilla" unicode="&#xc7;" horiz-adv-x="657" 
d="M619 689l-13 -145c-46 19 -94 27 -144 27c-134 0 -230 -71 -230 -216c0 -137 92 -224 241 -224c51 0 95 8 142 26l12 -148c-51 -14 -112 -22 -171 -22c-15 0 -28 1 -42 2l-8 -48c8 1 14 1 20 1c51 0 105 -18 105 -73c0 -67 -58 -99 -134 -99c-28 0 -51 3 -73 7l6 52
c19 -3 40 -5 54 -5c33 0 60 7 60 34c0 20 -21 30 -54 30c-17 0 -32 -1 -52 -5l10 110c-190 30 -310 149 -310 358c0 233 169 360 414 360c67 0 120 -7 167 -22z" />
    <glyph glyph-name="Dcaron" unicode="&#x10e;" horiz-adv-x="763" 
d="M60 698h252c236 0 417 -94 417 -352c0 -244 -186 -346 -417 -346h-252v698zM251 560v-425h31c145 0 254 52 254 212c0 168 -109 213 -254 213h-31zM173 908h102l70 -75l64 75h100l-117 -157h-112z" />
    <glyph glyph-name="Dcroat" unicode="&#x110;" horiz-adv-x="763" 
d="M60 698h252c236 0 417 -94 417 -352c0 -244 -186 -346 -417 -346h-252v321h-51v86h51v291zM251 560v-153h144v-86h-144v-186h31c145 0 254 52 254 212c0 168 -109 213 -254 213h-31z" />
    <glyph glyph-name="Eth" unicode="&#xd0;" horiz-adv-x="763" 
d="M60 698h252c236 0 417 -94 417 -352c0 -244 -186 -346 -417 -346h-252v321h-51v86h51v291zM251 560v-153h144v-86h-144v-186h31c145 0 254 52 254 212c0 168 -109 213 -254 213h-31z" />
    <glyph glyph-name="Egrave" unicode="&#xc8;" horiz-adv-x="598" 
d="M60 698h480v-134h-295v-144h277v-134h-277v-151h305v-135h-490v698zM107 908h178l86 -158h-99z" />
    <glyph glyph-name="Eacute" unicode="&#xc9;" horiz-adv-x="598" 
d="M60 698h480v-134h-295v-144h277v-134h-277v-151h305v-135h-490v698zM526 908l-163 -158h-100l85 158h178z" />
    <glyph glyph-name="Ecircumflex" unicode="&#xca;" horiz-adv-x="598" 
d="M60 698h480v-134h-295v-144h277v-134h-277v-151h305v-135h-490v698zM472 750h-102l-70 75l-64 -75h-100l117 157h112z" />
    <glyph glyph-name="Ecaron" unicode="&#x11a;" horiz-adv-x="598" 
d="M60 698h480v-134h-295v-144h277v-134h-277v-151h305v-135h-490v698zM136 908h102l70 -75l64 75h100l-117 -157h-112z" />
    <glyph glyph-name="Edieresis" unicode="&#xcb;" horiz-adv-x="598" 
d="M60 698h480v-134h-295v-144h277v-134h-277v-151h305v-135h-490v698zM261 909v-133h-138v133h138zM485 909v-133h-139v133h139z" />
    <glyph glyph-name="Emacron" unicode="&#x112;" horiz-adv-x="598" 
d="M60 698h480v-134h-295v-144h277v-134h-277v-151h305v-135h-490v698zM458 875v-75h-308v75h308z" />
    <glyph glyph-name="Ebreve" unicode="&#x114;" horiz-adv-x="598" 
d="M60 698h480v-134h-295v-144h277v-134h-277v-151h305v-135h-490v698zM394 905h87c-5 -81 -72 -161 -182 -161c-121 0 -168 80 -173 161h87c3 -53 35 -81 88 -81c55 0 89 29 93 81z" />
    <glyph glyph-name="Edotaccent" unicode="&#x116;" horiz-adv-x="598" 
d="M60 698h480v-134h-295v-144h277v-134h-277v-151h305v-135h-490v698zM391 922v-156h-174v156h174z" />
    <glyph glyph-name="Eogonek" unicode="&#x118;" horiz-adv-x="598" 
d="M60 698h480v-134h-295v-144h277v-134h-277v-151h305v-135h-29c-61 -61 -72 -88 -72 -112c0 -25 18 -36 45 -36c14 0 35 2 56 8l11 -68c-29 -8 -54 -12 -85 -12c-57 0 -126 15 -126 91c0 44 22 78 82 129h-372v698z" />
    <glyph glyph-name="Gcircumflex" unicode="&#x11c;" horiz-adv-x="744" 
d="M670 680l-15 -147c-63 30 -125 39 -190 39c-142 0 -233 -90 -233 -224c0 -136 76 -222 208 -222c28 0 48 2 72 6v139h-110v130h278v-385c-64 -18 -149 -29 -217 -29c-276 0 -425 124 -425 353c0 234 163 371 419 371c69 0 130 -6 213 -31zM597 750h-102l-70 75l-64 -75
h-100l117 157h112z" />
    <glyph glyph-name="Gbreve" unicode="&#x11e;" horiz-adv-x="744" 
d="M670 680l-15 -147c-63 30 -125 39 -190 39c-142 0 -233 -90 -233 -224c0 -136 76 -222 208 -222c28 0 48 2 72 6v139h-110v130h278v-385c-64 -18 -149 -29 -217 -29c-276 0 -425 124 -425 353c0 234 163 371 419 371c69 0 130 -6 213 -31zM525 905h87
c-5 -81 -72 -161 -182 -161c-121 0 -168 80 -173 161h87c3 -53 35 -81 88 -81c55 0 89 29 93 81z" />
    <glyph glyph-name="Gdotaccent" unicode="&#x120;" horiz-adv-x="744" 
d="M670 680l-15 -147c-63 30 -125 39 -190 39c-142 0 -233 -90 -233 -224c0 -136 76 -222 208 -222c28 0 48 2 72 6v139h-110v130h278v-385c-64 -18 -149 -29 -217 -29c-276 0 -425 124 -425 353c0 234 163 371 419 371c69 0 130 -6 213 -31zM518 922v-156h-174v156h174z
" />
    <glyph glyph-name="Gcommaaccent" unicode="&#x122;" horiz-adv-x="744" 
d="M670 680l-15 -147c-63 30 -125 39 -190 39c-142 0 -233 -90 -233 -224c0 -136 76 -222 208 -222c28 0 48 2 72 6v139h-110v130h278v-385c-64 -18 -149 -29 -217 -29c-276 0 -425 124 -425 353c0 234 163 371 419 371c69 0 130 -6 213 -31zM526 -62l-135 -175h-94l58 175
h171z" />
    <glyph glyph-name="Hcircumflex" unicode="&#x124;" horiz-adv-x="747" 
d="M687 698v-698h-190v290h-247v-290h-190v698h190v-266h247v266h190zM546 750h-102l-70 75l-64 -75h-100l117 157h112z" />
    <glyph glyph-name="Hbar" unicode="&#x126;" horiz-adv-x="755" 
d="M691 698v-85h55v-86h-55v-527h-190v282h-247v-282h-190v527h-55v86h55v85h190v-85h247v85h190zM254 424h247v103h-247v-103z" />
    <glyph glyph-name="Igrave" unicode="&#xcc;" horiz-adv-x="309" 
d="M249 698v-698h-189v698h189zM-51 908h178l86 -158h-99z" />
    <glyph glyph-name="Iacute" unicode="&#xcd;" horiz-adv-x="309" 
d="M249 698v-698h-189v698h189zM370 908l-163 -158h-100l85 158h178z" />
    <glyph glyph-name="Icircumflex" unicode="&#xce;" horiz-adv-x="309" 
d="M249 698v-698h-189v698h189zM323 750h-102l-70 75l-64 -75h-100l117 157h112z" />
    <glyph glyph-name="Itilde" unicode="&#x128;" horiz-adv-x="309" 
d="M249 698v-698h-189v698h189zM282 903h59c-7 -87 -45 -140 -111 -140c-17 0 -36 4 -78 20c-51 20 -64 23 -75 23c-28 0 -42 -13 -50 -49h-60c9 80 52 136 114 136c25 0 45 -6 95 -27c33 -14 44 -18 63 -18c23 0 39 18 43 55z" />
    <glyph glyph-name="Idieresis" unicode="&#xcf;" horiz-adv-x="309" 
d="M249 698v-698h-189v698h189zM112 909v-133h-138v133h138zM336 909v-133h-139v133h139z" />
    <glyph glyph-name="Imacron" unicode="&#x12a;" horiz-adv-x="309" 
d="M249 698v-698h-189v698h189zM309 875v-75h-308v75h308z" />
    <glyph glyph-name="Idotaccent" unicode="&#x130;" horiz-adv-x="309" 
d="M249 698v-698h-189v698h189zM242 922v-156h-174v156h174z" />
    <glyph glyph-name="Ibreve" unicode="&#x12c;" horiz-adv-x="309" 
d="M249 698v-698h-189v698h189zM245 905h87c-5 -81 -72 -161 -182 -161c-121 0 -168 80 -173 161h87c3 -53 35 -81 88 -81c55 0 89 29 93 81z" />
    <glyph glyph-name="Iogonek" unicode="&#x12e;" horiz-adv-x="309" 
d="M249 698v-698h-31c-61 -61 -72 -88 -72 -112c0 -25 18 -36 45 -36c14 0 35 2 56 8l11 -68c-29 -8 -54 -12 -85 -12c-57 0 -126 15 -126 91c0 44 22 78 82 129h-69v698h189z" />
    <glyph glyph-name="Jcircumflex" unicode="&#x134;" horiz-adv-x="435" 
d="M380 698v-453c0 -157 -74 -258 -244 -258c-38 0 -79 4 -121 15v146c25 -6 52 -9 70 -9c70 0 107 29 107 114v445h188zM449 750h-102l-70 75l-64 -75h-100l117 157h112z" />
    <glyph glyph-name="Kcommaaccent" unicode="&#x136;" horiz-adv-x="700" 
d="M248 323v-323h-188v698h188v-294h2c11 18 79 117 109 158l99 136h215l-256 -323l283 -375h-234l-104 151c-26 38 -80 120 -112 172h-2zM445 -62l-135 -175h-94l58 175h171z" />
    <glyph glyph-name="Lacute" unicode="&#x139;" horiz-adv-x="552" 
d="M250 698v-557h283v-141h-473v698h190zM374 908l-163 -158h-100l85 158h178z" />
    <glyph glyph-name="Lcaron" unicode="&#x13d;" horiz-adv-x="552" 
d="M250 698v-557h283v-141h-473v698h190zM473 756l-68 -177h-90l19 177h139z" />
    <glyph glyph-name="Lcommaaccent" unicode="&#x13b;" horiz-adv-x="552" 
d="M250 698v-557h283v-141h-473v698h190zM390 -62l-135 -175h-94l58 175h171z" />
    <glyph glyph-name="Lslash" unicode="&#x141;" horiz-adv-x="552" 
d="M360 466l-110 -57v-268h283v-141h-473v319l-62 -31v95l62 31v284h190v-194l110 57v-95z" />
    <glyph glyph-name="Ldot" unicode="&#x13f;" horiz-adv-x="552" 
d="M250 698v-557h283v-141h-473v698h190zM519 481v-156h-174v156h174z" />
    <glyph glyph-name="Nacute" unicode="&#x143;" horiz-adv-x="765" 
d="M538 480v218h167v-698h-234l-123 233c-44 84 -107 219 -126 265h-2c3 -43 5 -206 5 -266v-232h-165v698h237l127 -250c26 -50 98 -202 118 -251h2c-3 52 -6 203 -6 283zM589 908l-163 -158h-100l85 158h178z" />
    <glyph glyph-name="Ncaron" unicode="&#x147;" horiz-adv-x="765" 
d="M538 480v218h167v-698h-234l-123 233c-44 84 -107 219 -126 265h-2c3 -43 5 -206 5 -266v-232h-165v698h237l127 -250c26 -50 98 -202 118 -251h2c-3 52 -6 203 -6 283zM214 908h102l70 -75l64 75h100l-117 -157h-112z" />
    <glyph glyph-name="Ntilde" unicode="&#xd1;" horiz-adv-x="765" 
d="M538 480v218h167v-698h-234l-123 233c-44 84 -107 219 -126 265h-2c3 -43 5 -206 5 -266v-232h-165v698h237l127 -250c26 -50 98 -202 118 -251h2c-3 52 -6 203 -6 283zM509 903h59c-7 -87 -45 -140 -111 -140c-17 0 -36 4 -78 20c-51 20 -64 23 -75 23
c-28 0 -42 -13 -50 -49h-60c9 80 52 136 114 136c25 0 45 -6 95 -27c33 -14 44 -18 63 -18c23 0 39 18 43 55z" />
    <glyph glyph-name="Ncommaaccent" unicode="&#x145;" horiz-adv-x="765" 
d="M538 480v218h167v-698h-234l-123 233c-44 84 -107 219 -126 265h-2c3 -43 5 -206 5 -266v-232h-165v698h237l127 -250c26 -50 98 -202 118 -251h2c-3 52 -6 203 -6 283zM478 -62l-135 -175h-94l58 175h171z" />
    <glyph glyph-name="Eng" unicode="&#x14a;" horiz-adv-x="765" 
d="M538 480v218h167v-686c0 -142 -69 -232 -219 -232c-39 0 -70 4 -111 15v139c21 -6 46 -10 63 -10c54 0 89 17 96 76h-63l-123 233c-44 84 -107 219 -126 265h-2c3 -43 5 -206 5 -266v-232h-165v698h237l127 -250c26 -50 98 -202 118 -251h2c-3 52 -6 203 -6 283z" />
    <glyph glyph-name="Ograve" unicode="&#xd2;" horiz-adv-x="788" 
d="M401 711c207 0 349 -136 349 -360c0 -233 -141 -364 -362 -364c-212 0 -350 133 -350 365c0 229 142 359 363 359zM390 573c-96 0 -158 -83 -158 -228c0 -138 66 -221 162 -221c97 0 161 81 161 220c0 148 -63 229 -165 229zM193 908h178l86 -158h-99z" />
    <glyph glyph-name="Oacute" unicode="&#xd3;" horiz-adv-x="788" 
d="M401 711c207 0 349 -136 349 -360c0 -233 -141 -364 -362 -364c-212 0 -350 133 -350 365c0 229 142 359 363 359zM390 573c-96 0 -158 -83 -158 -228c0 -138 66 -221 162 -221c97 0 161 81 161 220c0 148 -63 229 -165 229zM595 908l-163 -158h-100l85 158h178z" />
    <glyph glyph-name="Ocircumflex" unicode="&#xd4;" horiz-adv-x="788" 
d="M401 711c207 0 349 -136 349 -360c0 -233 -141 -364 -362 -364c-212 0 -350 133 -350 365c0 229 142 359 363 359zM390 573c-96 0 -158 -83 -158 -228c0 -138 66 -221 162 -221c97 0 161 81 161 220c0 148 -63 229 -165 229zM562 750h-102l-70 75l-64 -75h-100l117 157
h112z" />
    <glyph glyph-name="Otilde" unicode="&#xd5;" horiz-adv-x="788" 
d="M401 711c207 0 349 -136 349 -360c0 -233 -141 -364 -362 -364c-212 0 -350 133 -350 365c0 229 142 359 363 359zM390 573c-96 0 -158 -83 -158 -228c0 -138 66 -221 162 -221c97 0 161 81 161 220c0 148 -63 229 -165 229zM527 903h59c-7 -87 -45 -140 -111 -140
c-17 0 -36 4 -78 20c-51 20 -64 23 -75 23c-28 0 -42 -13 -50 -49h-60c9 80 52 136 114 136c25 0 45 -6 95 -27c33 -14 44 -18 63 -18c23 0 39 18 43 55z" />
    <glyph glyph-name="Odieresis" unicode="&#xd6;" horiz-adv-x="788" 
d="M401 711c207 0 349 -136 349 -360c0 -233 -141 -364 -362 -364c-212 0 -350 133 -350 365c0 229 142 359 363 359zM390 573c-96 0 -158 -83 -158 -228c0 -138 66 -221 162 -221c97 0 161 81 161 220c0 148 -63 229 -165 229zM351 909v-133h-138v133h138zM575 909v-133
h-139v133h139z" />
    <glyph glyph-name="Omacron" unicode="&#x14c;" horiz-adv-x="788" 
d="M401 711c207 0 349 -136 349 -360c0 -233 -141 -364 -362 -364c-212 0 -350 133 -350 365c0 229 142 359 363 359zM390 573c-96 0 -158 -83 -158 -228c0 -138 66 -221 162 -221c97 0 161 81 161 220c0 148 -63 229 -165 229zM548 875v-75h-308v75h308z" />
    <glyph glyph-name="Obreve" unicode="&#x14e;" horiz-adv-x="788" 
d="M401 711c207 0 349 -136 349 -360c0 -233 -141 -364 -362 -364c-212 0 -350 133 -350 365c0 229 142 359 363 359zM390 573c-96 0 -158 -83 -158 -228c0 -138 66 -221 162 -221c97 0 161 81 161 220c0 148 -63 229 -165 229zM484 905h87c-5 -81 -72 -161 -182 -161
c-121 0 -168 80 -173 161h87c3 -53 35 -81 88 -81c55 0 89 29 93 81z" />
    <glyph glyph-name="Ohungarumlaut" unicode="&#x150;" horiz-adv-x="788" 
d="M401 711c207 0 349 -136 349 -360c0 -233 -141 -364 -362 -364c-212 0 -350 133 -350 365c0 229 142 359 363 359zM390 573c-96 0 -158 -83 -158 -228c0 -138 66 -221 162 -221c97 0 161 81 161 220c0 148 -63 229 -165 229zM711 900l-158 -150h-97l83 150h172zM490 900
l-159 -150h-93l74 150h178z" />
    <glyph glyph-name="Oslash" unicode="&#xd8;" horiz-adv-x="788" 
d="M401 711c69 0 131 -16 183 -44l53 67l68 -53l-53 -66c62 -62 98 -152 98 -264c0 -233 -141 -364 -362 -364c-76 0 -142 19 -196 51l-56 -71l-67 53l57 72c-57 62 -88 148 -88 260c0 229 142 359 363 359zM555 344c0 49 -6 93 -20 127l-244 -306c27 -29 63 -41 103 -41
c97 0 161 81 161 220zM390 573c-96 0 -158 -83 -158 -228c0 -39 5 -76 15 -105l238 299c-25 23 -58 34 -95 34z" />
    <glyph glyph-name="OE" unicode="&#x152;" horiz-adv-x="978" 
d="M405 705c62 0 88 -7 151 -7h364v-134h-265v-144h247v-134h-247v-151h275v-135h-375c-47 0 -77 -7 -151 -7c-219 0 -366 131 -366 352c0 249 155 360 367 360zM476 566c-19 4 -42 7 -64 7c-124 0 -179 -94 -179 -229c0 -125 61 -216 179 -216c27 0 54 4 64 7v431z" />
    <glyph glyph-name="Racute" unicode="&#x154;" horiz-adv-x="664" 
d="M60 698h239c177 0 321 -28 321 -182c0 -90 -50 -148 -155 -167v-2c52 -11 81 -36 102 -90l98 -257h-196l-57 173c-25 75 -49 96 -119 96h-42v-269h-191v698zM251 565v-165h33c99 0 149 25 149 86c0 63 -50 79 -149 79h-33zM506 908l-163 -158h-100l85 158h178z" />
    <glyph glyph-name="Rcaron" unicode="&#x158;" horiz-adv-x="664" 
d="M60 698h239c177 0 321 -28 321 -182c0 -90 -50 -148 -155 -167v-2c52 -11 81 -36 102 -90l98 -257h-196l-57 173c-25 75 -49 96 -119 96h-42v-269h-191v698zM251 565v-165h33c99 0 149 25 149 86c0 63 -50 79 -149 79h-33zM150 908h102l70 -75l64 75h100l-117 -157h-112z
" />
    <glyph glyph-name="Rcommaaccent" unicode="&#x156;" horiz-adv-x="664" 
d="M60 698h239c177 0 321 -28 321 -182c0 -90 -50 -148 -155 -167v-2c52 -11 81 -36 102 -90l98 -257h-196l-57 173c-25 75 -49 96 -119 96h-42v-269h-191v698zM251 565v-165h33c99 0 149 25 149 86c0 63 -50 79 -149 79h-33zM434 -62l-135 -175h-94l58 175h171z" />
    <glyph glyph-name="Sacute" unicode="&#x15a;" horiz-adv-x="585" 
d="M516 688l-11 -145c-60 23 -112 31 -160 31c-63 0 -110 -20 -110 -62c0 -35 23 -50 118 -86c124 -47 193 -105 193 -213c0 -142 -110 -226 -290 -226c-75 0 -145 10 -211 30l15 153c66 -29 137 -43 187 -43c66 0 109 23 109 69c0 38 -33 59 -127 94
c-110 41 -186 99 -186 205c0 143 126 216 285 216c69 0 132 -6 188 -23zM507 908l-163 -158h-100l85 158h178z" />
    <glyph glyph-name="Scircumflex" unicode="&#x15c;" horiz-adv-x="585" 
d="M516 688l-11 -145c-60 23 -112 31 -160 31c-63 0 -110 -20 -110 -62c0 -35 23 -50 118 -86c124 -47 193 -105 193 -213c0 -142 -110 -226 -290 -226c-75 0 -145 10 -211 30l15 153c66 -29 137 -43 187 -43c66 0 109 23 109 69c0 38 -33 59 -127 94
c-110 41 -186 99 -186 205c0 143 126 216 285 216c69 0 132 -6 188 -23zM471 750h-102l-70 75l-64 -75h-100l117 157h112z" />
    <glyph glyph-name="Scaron" unicode="&#x160;" horiz-adv-x="585" 
d="M516 688l-11 -145c-60 23 -112 31 -160 31c-63 0 -110 -20 -110 -62c0 -35 23 -50 118 -86c124 -47 193 -105 193 -213c0 -142 -110 -226 -290 -226c-75 0 -145 10 -211 30l15 153c66 -29 137 -43 187 -43c66 0 109 23 109 69c0 38 -33 59 -127 94
c-110 41 -186 99 -186 205c0 143 126 216 285 216c69 0 132 -6 188 -23zM139 908h102l70 -75l64 75h100l-117 -157h-112z" />
    <glyph glyph-name="Scedilla" unicode="&#x15e;" horiz-adv-x="585" 
d="M516 688l-11 -145c-60 23 -112 31 -160 31c-63 0 -110 -20 -110 -62c0 -35 23 -50 118 -86c124 -47 193 -105 193 -213c0 -132 -95 -213 -253 -224l-8 -48c8 1 14 1 20 1c51 0 105 -18 105 -73c0 -67 -58 -99 -134 -99c-28 0 -51 3 -73 7l6 52c19 -3 40 -5 54 -5
c33 0 60 7 60 34c0 20 -21 30 -54 30c-17 0 -32 -1 -52 -5l10 105c-64 2 -125 12 -182 29l15 153c66 -29 137 -43 187 -43c66 0 109 23 109 69c0 38 -33 59 -127 94c-110 41 -186 99 -186 205c0 143 126 216 285 216c69 0 132 -6 188 -23z" />
    <glyph glyph-name="Scommaaccent" unicode="&#x218;" horiz-adv-x="585" 
d="M516 688l-11 -145c-60 23 -112 31 -160 31c-63 0 -110 -20 -110 -62c0 -35 23 -50 118 -86c124 -47 193 -105 193 -213c0 -142 -110 -226 -290 -226c-75 0 -145 10 -211 30l15 153c66 -29 137 -43 187 -43c66 0 109 23 109 69c0 38 -33 59 -127 94
c-110 41 -186 99 -186 205c0 143 126 216 285 216c69 0 132 -6 188 -23zM395 -62l-135 -175h-94l58 175h171z" />
    <glyph glyph-name="Tcaron" unicode="&#x164;" horiz-adv-x="574" 
d="M564 698v-140l-184 3v-561h-190v561l-180 -3v140h554zM119 908h102l70 -75l64 75h100l-117 -157h-112z" />
    <glyph glyph-name="uni0162" unicode="&#x162;" horiz-adv-x="574" 
d="M564 698v-140l-184 3v-561h-190v561l-180 -3v140h554zM386 -62l-135 -175h-94l58 175h171z" />
    <glyph glyph-name="uni021A" unicode="&#x21a;" horiz-adv-x="574" 
d="M564 698v-140l-184 3v-561h-190v561l-180 -3v140h554zM386 -62l-135 -175h-94l58 175h171z" />
    <glyph glyph-name="Tbar" unicode="&#x166;" horiz-adv-x="574" 
d="M564 698v-140l-184 3v-103h99v-86h-99v-372h-190v372h-95v86h95v103l-180 -3v140h554z" />
    <glyph glyph-name="Thorn" unicode="&#xde;" horiz-adv-x="616" 
d="M60 698h185v-106h50c169 0 302 -47 302 -223c0 -181 -153 -228 -302 -228h-45v-141h-190v698zM245 460v-185h40c60 0 124 18 124 93c0 72 -64 92 -124 92h-40z" />
    <glyph glyph-name="Ugrave" unicode="&#xd9;" horiz-adv-x="722" 
d="M662 698v-421c0 -217 -128 -290 -303 -290c-196 0 -299 92 -299 290v421h188v-439c0 -89 29 -136 112 -136c73 0 117 47 117 136v439h185zM158 908h178l86 -158h-99z" />
    <glyph glyph-name="Uacute" unicode="&#xda;" horiz-adv-x="722" 
d="M662 698v-421c0 -217 -128 -290 -303 -290c-196 0 -299 92 -299 290v421h188v-439c0 -89 29 -136 112 -136c73 0 117 47 117 136v439h185zM581 908l-163 -158h-100l85 158h178z" />
    <glyph glyph-name="Ucircumflex" unicode="&#xdb;" horiz-adv-x="722" 
d="M662 698v-421c0 -217 -128 -290 -303 -290c-196 0 -299 92 -299 290v421h188v-439c0 -89 29 -136 112 -136c73 0 117 47 117 136v439h185zM529 750h-102l-70 75l-64 -75h-100l117 157h112z" />
    <glyph glyph-name="Utilde" unicode="&#x168;" horiz-adv-x="722" 
d="M662 698v-421c0 -217 -128 -290 -303 -290c-196 0 -299 92 -299 290v421h188v-439c0 -89 29 -136 112 -136c73 0 117 47 117 136v439h185zM500 903h59c-7 -87 -45 -140 -111 -140c-17 0 -36 4 -78 20c-51 20 -64 23 -75 23c-28 0 -42 -13 -50 -49h-60
c9 80 52 136 114 136c25 0 45 -6 95 -27c33 -14 44 -18 63 -18c23 0 39 18 43 55z" />
    <glyph glyph-name="Udieresis" unicode="&#xdc;" horiz-adv-x="722" 
d="M662 698v-421c0 -217 -128 -290 -303 -290c-196 0 -299 92 -299 290v421h188v-439c0 -89 29 -136 112 -136c73 0 117 47 117 136v439h185zM318 909v-133h-138v133h138zM542 909v-133h-139v133h139z" />
    <glyph glyph-name="Umacron" unicode="&#x16a;" horiz-adv-x="722" 
d="M662 698v-421c0 -217 -128 -290 -303 -290c-196 0 -299 92 -299 290v421h188v-439c0 -89 29 -136 112 -136c73 0 117 47 117 136v439h185zM517 875v-75h-308v75h308z" />
    <glyph glyph-name="Ubreve" unicode="&#x16c;" horiz-adv-x="722" 
d="M662 698v-421c0 -217 -128 -290 -303 -290c-196 0 -299 92 -299 290v421h188v-439c0 -89 29 -136 112 -136c73 0 117 47 117 136v439h185zM451 905h87c-5 -81 -72 -161 -182 -161c-121 0 -168 80 -173 161h87c3 -53 35 -81 88 -81c55 0 89 29 93 81z" />
    <glyph glyph-name="Uring" unicode="&#x16e;" horiz-adv-x="722" 
d="M662 698v-421c0 -217 -128 -290 -303 -290c-196 0 -299 92 -299 290v421h188v-439c0 -89 29 -136 112 -136c73 0 117 47 117 136v439h185zM360 778c30 0 53 25 53 56c0 28 -24 53 -53 53s-53 -25 -53 -53c0 -31 23 -56 53 -56zM360 726c-61 0 -107 47 -107 108
c0 59 45 106 107 106s107 -47 107 -106c0 -61 -46 -108 -107 -108z" />
    <glyph glyph-name="Uhungarumlaut" unicode="&#x170;" horiz-adv-x="722" 
d="M662 698v-421c0 -217 -128 -290 -303 -290c-196 0 -299 92 -299 290v421h188v-439c0 -89 29 -136 112 -136c73 0 117 47 117 136v439h185zM658 900l-158 -150h-97l83 150h172zM437 900l-159 -150h-93l74 150h178z" />
    <glyph glyph-name="Uogonek" unicode="&#x172;" horiz-adv-x="722" 
d="M662 698v-421c0 -187 -95 -267 -233 -285c-51 -53 -61 -81 -61 -104c0 -25 18 -36 45 -36c14 0 35 2 56 8l11 -68c-29 -8 -54 -12 -85 -12c-57 0 -126 15 -126 91c0 40 19 74 67 117c-181 7 -276 99 -276 289v421h188v-439c0 -89 29 -136 112 -136c73 0 117 47 117 136
v439h185z" />
    <glyph glyph-name="Wcircumflex" unicode="&#x174;" horiz-adv-x="1044" 
d="M628 0l-83 419c-7 35 -18 103 -23 148h-2c-4 -45 -14 -114 -20 -148l-76 -419h-246l-163 698h194l68 -356c4 -24 25 -140 31 -194h2c6 54 25 170 29 194l62 356h249l70 -356c5 -24 25 -143 31 -194h2c6 50 26 167 31 194l64 356h184l-158 -698h-246zM689 750h-102l-70 75
l-64 -75h-100l117 157h112z" />
    <glyph glyph-name="Wacute" unicode="&#x1e82;" horiz-adv-x="1044" 
d="M628 0l-83 419c-7 35 -18 103 -23 148h-2c-4 -45 -14 -114 -20 -148l-76 -419h-246l-163 698h194l68 -356c4 -24 25 -140 31 -194h2c6 54 25 170 29 194l62 356h249l70 -356c5 -24 25 -143 31 -194h2c6 50 26 167 31 194l64 356h184l-158 -698h-246zM722 908l-163 -158
h-100l85 158h178z" />
    <glyph glyph-name="Wdieresis" unicode="&#x1e84;" horiz-adv-x="1044" 
d="M628 0l-83 419c-7 35 -18 103 -23 148h-2c-4 -45 -14 -114 -20 -148l-76 -419h-246l-163 698h194l68 -356c4 -24 25 -140 31 -194h2c6 54 25 170 29 194l62 356h249l70 -356c5 -24 25 -143 31 -194h2c6 50 26 167 31 194l64 356h184l-158 -698h-246zM477 909v-133h-138
v133h138zM701 909v-133h-139v133h139z" />
    <glyph glyph-name="Wgrave" unicode="&#x1e80;" horiz-adv-x="1044" 
d="M628 0l-83 419c-7 35 -18 103 -23 148h-2c-4 -45 -14 -114 -20 -148l-76 -419h-246l-163 698h194l68 -356c4 -24 25 -140 31 -194h2c6 54 25 170 29 194l62 356h249l70 -356c5 -24 25 -143 31 -194h2c6 50 26 167 31 194l64 356h184l-158 -698h-246zM298 908h178l86 -158
h-99z" />
    <glyph glyph-name="Yacute" unicode="&#xdd;" horiz-adv-x="701" 
d="M3 698h220l70 -141c23 -47 51 -110 66 -147h2c15 36 43 100 65 147l66 141h206l-250 -443v-255h-190v260zM562 908l-163 -158h-100l85 158h178z" />
    <glyph glyph-name="Ycircumflex" unicode="&#x176;" horiz-adv-x="701" 
d="M3 698h220l70 -141c23 -47 51 -110 66 -147h2c15 36 43 100 65 147l66 141h206l-250 -443v-255h-190v260zM523 750h-102l-70 75l-64 -75h-100l117 157h112z" />
    <glyph glyph-name="Ydieresis" unicode="&#x178;" horiz-adv-x="701" 
d="M3 698h220l70 -141c23 -47 51 -110 66 -147h2c15 36 43 100 65 147l66 141h206l-250 -443v-255h-190v260zM313 909v-133h-138v133h138zM537 909v-133h-139v133h139z" />
    <glyph glyph-name="Ygrave" unicode="&#x1ef2;" horiz-adv-x="701" 
d="M3 698h220l70 -141c23 -47 51 -110 66 -147h2c15 36 43 100 65 147l66 141h206l-250 -443v-255h-190v260zM146 908h178l86 -158h-99z" />
    <glyph glyph-name="Zacute" unicode="&#x179;" horiz-adv-x="611" 
d="M573 551c-200 -255 -304 -384 -332 -414h338v-137h-548v152c170 219 305 387 326 411h-317v135h533v-147zM520 908l-163 -158h-100l85 158h178z" />
    <glyph glyph-name="Zcaron" unicode="&#x17d;" horiz-adv-x="611" 
d="M573 551c-200 -255 -304 -384 -332 -414h338v-137h-548v152c170 219 305 387 326 411h-317v135h533v-147zM148 908h102l70 -75l64 75h100l-117 -157h-112z" />
    <glyph glyph-name="Zdotaccent" unicode="&#x17b;" horiz-adv-x="611" 
d="M573 551c-200 -255 -304 -384 -332 -414h338v-137h-548v152c170 219 305 387 326 411h-317v135h533v-147zM392 922v-156h-174v156h174z" />
    <glyph glyph-name="agrave" unicode="&#xe0;" horiz-adv-x="605" 
d="M384 233c-11 1 -25 2 -37 2c-92 0 -144 -21 -144 -71c0 -43 30 -60 73 -60c66 0 108 48 108 129zM398 86h-2c-33 -57 -95 -96 -177 -96c-106 0 -186 66 -186 164c0 118 101 175 274 175c21 0 50 -2 75 -4c0 66 -43 90 -111 90c-56 0 -122 -16 -171 -41l-5 124
c56 25 141 35 204 35c173 0 252 -76 252 -219c0 -27 -2 -82 -2 -126c0 -79 4 -145 8 -188h-158c-2 8 -3 26 -3 41c0 11 0 26 2 45zM294 579l-156 177h173l77 -177h-94z" />
    <glyph glyph-name="aacute" unicode="&#xe1;" horiz-adv-x="605" 
d="M384 233c-11 1 -25 2 -37 2c-92 0 -144 -21 -144 -71c0 -43 30 -60 73 -60c66 0 108 48 108 129zM398 86h-2c-33 -57 -95 -96 -177 -96c-106 0 -186 66 -186 164c0 118 101 175 274 175c21 0 50 -2 75 -4c0 66 -43 90 -111 90c-56 0 -122 -16 -171 -41l-5 124
c56 25 141 35 204 35c173 0 252 -76 252 -219c0 -27 -2 -82 -2 -126c0 -79 4 -145 8 -188h-158c-2 8 -3 26 -3 41c0 11 0 26 2 45zM493 756l-156 -177h-94l77 177h173z" />
    <glyph glyph-name="acircumflex" unicode="&#xe2;" horiz-adv-x="605" 
d="M384 233c-11 1 -25 2 -37 2c-92 0 -144 -21 -144 -71c0 -43 30 -60 73 -60c66 0 108 48 108 129zM398 86h-2c-33 -57 -95 -96 -177 -96c-106 0 -186 66 -186 164c0 118 101 175 274 175c21 0 50 -2 75 -4c0 66 -43 90 -111 90c-56 0 -122 -16 -171 -41l-5 124
c56 25 141 35 204 35c173 0 252 -76 252 -219c0 -27 -2 -82 -2 -126c0 -79 4 -145 8 -188h-158c-2 8 -3 26 -3 41c0 11 0 26 2 45zM492 579h-102l-68 95l-65 -95h-100l116 177h112z" />
    <glyph glyph-name="atilde" unicode="&#xe3;" horiz-adv-x="605" 
d="M384 233c-11 1 -25 2 -37 2c-92 0 -144 -21 -144 -71c0 -43 30 -60 73 -60c66 0 108 48 108 129zM398 86h-2c-33 -57 -95 -96 -177 -96c-106 0 -186 66 -186 164c0 118 101 175 274 175c21 0 50 -2 75 -4c0 66 -43 90 -111 90c-56 0 -122 -16 -171 -41l-5 124
c56 25 141 35 204 35c173 0 252 -76 252 -219c0 -27 -2 -82 -2 -126c0 -79 4 -145 8 -188h-158c-2 8 -3 26 -3 41c0 11 0 26 2 45zM440 729h59c-7 -87 -45 -140 -111 -140c-17 0 -36 4 -78 20c-51 20 -64 23 -75 23c-28 0 -42 -13 -50 -49h-60c9 80 52 136 114 136
c25 0 45 -6 95 -27c33 -14 44 -18 63 -18c23 0 39 18 43 55z" />
    <glyph glyph-name="adieresis" unicode="&#xe4;" horiz-adv-x="605" 
d="M384 233c-11 1 -25 2 -37 2c-92 0 -144 -21 -144 -71c0 -43 30 -60 73 -60c66 0 108 48 108 129zM398 86h-2c-33 -57 -95 -96 -177 -96c-106 0 -186 66 -186 164c0 118 101 175 274 175c21 0 50 -2 75 -4c0 66 -43 90 -111 90c-56 0 -122 -16 -171 -41l-5 124
c56 25 141 35 204 35c173 0 252 -76 252 -219c0 -27 -2 -82 -2 -126c0 -79 4 -145 8 -188h-158c-2 8 -3 26 -3 41c0 11 0 26 2 45zM270 730v-134h-138v134h138zM494 730v-134h-139v134h139z" />
    <glyph glyph-name="amacron" unicode="&#x101;" horiz-adv-x="605" 
d="M384 233c-11 1 -25 2 -37 2c-92 0 -144 -21 -144 -71c0 -43 30 -60 73 -60c66 0 108 48 108 129zM398 86h-2c-33 -57 -95 -96 -177 -96c-106 0 -186 66 -186 164c0 118 101 175 274 175c21 0 50 -2 75 -4c0 66 -43 90 -111 90c-56 0 -122 -16 -171 -41l-5 124
c56 25 141 35 204 35c173 0 252 -76 252 -219c0 -27 -2 -82 -2 -126c0 -79 4 -145 8 -188h-158c-2 8 -3 26 -3 41c0 11 0 26 2 45zM465 704v-75h-308v75h308z" />
    <glyph glyph-name="abreve" unicode="&#x103;" horiz-adv-x="605" 
d="M384 233c-11 1 -25 2 -37 2c-92 0 -144 -21 -144 -71c0 -43 30 -60 73 -60c66 0 108 48 108 129zM398 86h-2c-33 -57 -95 -96 -177 -96c-106 0 -186 66 -186 164c0 118 101 175 274 175c21 0 50 -2 75 -4c0 66 -43 90 -111 90c-56 0 -122 -16 -171 -41l-5 124
c56 25 141 35 204 35c173 0 252 -76 252 -219c0 -27 -2 -82 -2 -126c0 -79 4 -145 8 -188h-158c-2 8 -3 26 -3 41c0 11 0 26 2 45zM401 756h87c-5 -81 -72 -169 -182 -169c-121 0 -168 88 -173 169h87c3 -53 35 -89 88 -89c55 0 89 37 93 89z" />
    <glyph glyph-name="aring" unicode="&#xe5;" horiz-adv-x="605" 
d="M384 233c-11 1 -25 2 -37 2c-92 0 -144 -21 -144 -71c0 -43 30 -60 73 -60c66 0 108 48 108 129zM398 86h-2c-33 -57 -95 -96 -177 -96c-106 0 -186 66 -186 164c0 118 101 175 274 175c21 0 50 -2 75 -4c0 66 -43 90 -111 90c-56 0 -122 -16 -171 -41l-5 124
c56 25 141 35 204 35c173 0 252 -76 252 -219c0 -27 -2 -82 -2 -126c0 -79 4 -145 8 -188h-158c-2 8 -3 26 -3 41c0 11 0 26 2 45zM306 607c30 0 53 25 53 56c0 28 -24 53 -53 53s-53 -25 -53 -53c0 -31 23 -56 53 -56zM306 555c-61 0 -107 47 -107 108c0 59 45 106 107 106
s107 -47 107 -106c0 -61 -46 -108 -107 -108z" />
    <glyph glyph-name="aogonek" unicode="&#x105;" horiz-adv-x="605" 
d="M398 86h-2c-33 -57 -95 -96 -177 -96c-106 0 -186 66 -186 164c0 118 101 175 274 175c21 0 50 -2 75 -4c0 66 -43 90 -111 90c-56 0 -122 -16 -171 -41l-5 124c56 25 141 35 204 35c173 0 252 -76 252 -219c0 -27 -2 -82 -2 -126c0 -79 4 -145 8 -188h-42
c-61 -61 -72 -88 -72 -112c0 -25 18 -36 45 -36c14 0 35 2 56 8l11 -68c-29 -8 -54 -12 -85 -12c-57 0 -126 15 -126 91c0 44 22 78 82 129h-27c-2 8 -3 26 -3 41c0 11 0 26 2 45zM384 233c-11 1 -25 2 -37 2c-92 0 -144 -21 -144 -71c0 -43 30 -60 73 -60
c66 0 108 48 108 129z" />
    <glyph glyph-name="ae" unicode="&#xe6;" horiz-adv-x="899" 
d="M865 210h-344c6 -61 67 -102 142 -102c60 0 100 12 151 36l5 -121c-44 -22 -100 -36 -171 -36c-96 0 -171 38 -210 105h-2c-35 -61 -96 -105 -197 -105c-103 0 -206 43 -206 167c0 111 98 172 266 172c21 0 49 -1 73 -3c0 66 -35 94 -111 94c-65 0 -115 -16 -163 -43
l-5 122c55 25 137 37 199 37c84 0 140 -25 169 -67c41 44 92 67 163 67c152 0 243 -96 243 -286c0 -8 -1 -30 -2 -37zM374 235c-12 2 -20 2 -32 2c-95 0 -144 -23 -144 -73c0 -40 28 -63 70 -63c70 0 106 52 106 134zM518 315h188c0 69 -29 103 -86 103
c-58 0 -95 -40 -102 -103z" />
    <glyph glyph-name="cacute" unicode="&#x107;" horiz-adv-x="486" 
d="M453 509l-12 -130c-32 13 -64 18 -95 18c-76 0 -129 -46 -129 -136c0 -89 51 -135 133 -135c30 0 60 4 94 19l6 -134c-48 -15 -83 -20 -129 -20c-176 0 -288 103 -288 272c0 161 117 265 284 265c54 0 96 -4 136 -19zM478 756l-156 -177h-94l77 177h173z" />
    <glyph glyph-name="ccircumflex" unicode="&#x109;" horiz-adv-x="486" 
d="M453 509l-12 -130c-32 13 -64 18 -95 18c-76 0 -129 -46 -129 -136c0 -89 51 -135 133 -135c30 0 60 4 94 19l6 -134c-48 -15 -83 -20 -129 -20c-176 0 -288 103 -288 272c0 161 117 265 284 265c54 0 96 -4 136 -19zM462 579h-102l-68 95l-65 -95h-100l116 177h112z" />
    <glyph glyph-name="ccaron" unicode="&#x10d;" horiz-adv-x="486" 
d="M453 509l-12 -130c-32 13 -64 18 -95 18c-76 0 -129 -46 -129 -136c0 -89 51 -135 133 -135c30 0 60 4 94 19l6 -134c-48 -15 -83 -20 -129 -20c-176 0 -288 103 -288 272c0 161 117 265 284 265c54 0 96 -4 136 -19zM128 756h102l68 -95l65 95h100l-116 -177h-112z" />
    <glyph glyph-name="cdotaccent" unicode="&#x10b;" horiz-adv-x="486" 
d="M453 509l-12 -130c-32 13 -64 18 -95 18c-76 0 -129 -46 -129 -136c0 -89 51 -135 133 -135c30 0 60 4 94 19l6 -134c-48 -15 -83 -20 -129 -20c-176 0 -288 103 -288 272c0 161 117 265 284 265c54 0 96 -4 136 -19zM382 741v-156h-174v156h174z" />
    <glyph glyph-name="ccedilla" unicode="&#xe7;" horiz-adv-x="486" 
d="M453 509l-12 -130c-32 13 -64 18 -95 18c-76 0 -129 -46 -129 -136c0 -89 51 -135 133 -135c30 0 60 4 94 19l6 -134c-48 -15 -83 -20 -129 -20h-7l-8 -50c8 1 14 1 20 1c51 0 105 -18 105 -73c0 -67 -58 -99 -134 -99c-28 0 -51 3 -73 7l6 52c19 -3 40 -5 54 -5
c33 0 60 7 60 34c0 20 -21 30 -54 30c-17 0 -32 -1 -52 -5l10 115c-133 24 -215 120 -215 265c0 161 117 265 284 265c54 0 96 -4 136 -19z" />
    <glyph glyph-name="dcaron" unicode="&#x10f;" horiz-adv-x="670" 
d="M320 399c-63 0 -104 -54 -104 -136c0 -83 44 -141 108 -141c66 0 111 56 111 139c0 84 -45 138 -115 138zM445 93h-2c-36 -72 -96 -106 -177 -106c-141 0 -233 110 -233 278c0 159 97 268 233 268c79 0 130 -33 163 -89h2c-2 49 -3 106 -3 156v156h182v-602
c0 -54 1 -111 5 -154h-168c-1 22 -2 57 -2 93zM815 756l-68 -177h-90l19 177h139z" />
    <glyph glyph-name="dcroat" unicode="&#x111;" horiz-adv-x="670" 
d="M445 93h-2c-36 -72 -96 -106 -177 -106c-141 0 -233 110 -233 278c0 159 97 268 233 268c79 0 130 -33 163 -89h2c-2 49 -3 106 -3 156v10h-118v71h118v75h182v-75h50v-71h-50v-456c0 -54 1 -111 5 -154h-168c-1 22 -2 57 -2 93zM320 399c-63 0 -104 -54 -104 -136
c0 -83 44 -141 108 -141c66 0 111 56 111 139c0 84 -45 138 -115 138z" />
    <glyph glyph-name="eth" unicode="&#xf0;" horiz-adv-x="657" 
d="M436 776l42 -53l-81 -40c157 -101 226 -233 226 -383c0 -214 -136 -312 -300 -312s-289 91 -289 254c0 155 107 256 236 256c45 0 106 -9 140 -37h2c-37 67 -87 105 -147 138l-109 -60l-47 49l89 49c-40 26 -47 27 -95 54l109 90c71 -31 108 -52 123 -61zM333 383
c-79 0 -120 -56 -120 -139c0 -89 65 -126 119 -126c50 0 113 40 113 135c0 87 -50 130 -112 130z" />
    <glyph glyph-name="egrave" unicode="&#xe8;" horiz-adv-x="604" 
d="M570 210h-361c6 -57 58 -100 153 -100c53 0 106 11 159 38l5 -126c-45 -22 -111 -35 -184 -35c-184 0 -308 101 -308 274c0 162 115 272 286 272c157 0 252 -91 252 -281c0 -8 -1 -35 -2 -42zM209 315h201c0 69 -35 101 -94 101c-54 0 -98 -36 -107 -101zM289 579
l-156 177h173l77 -177h-94z" />
    <glyph glyph-name="eacute" unicode="&#xe9;" horiz-adv-x="604" 
d="M570 210h-361c6 -57 58 -100 153 -100c53 0 106 11 159 38l5 -126c-45 -22 -111 -35 -184 -35c-184 0 -308 101 -308 274c0 162 115 272 286 272c157 0 252 -91 252 -281c0 -8 -1 -35 -2 -42zM209 315h201c0 69 -35 101 -94 101c-54 0 -98 -36 -107 -101zM500 756
l-156 -177h-94l77 177h173z" />
    <glyph glyph-name="ecircumflex" unicode="&#xea;" horiz-adv-x="604" 
d="M570 210h-361c6 -57 58 -100 153 -100c53 0 106 11 159 38l5 -126c-45 -22 -111 -35 -184 -35c-184 0 -308 101 -308 274c0 162 115 272 286 272c157 0 252 -91 252 -281c0 -8 -1 -35 -2 -42zM209 315h201c0 69 -35 101 -94 101c-54 0 -98 -36 -107 -101zM473 579h-102
l-68 95l-65 -95h-100l116 177h112z" />
    <glyph glyph-name="ecaron" unicode="&#x11b;" horiz-adv-x="604" 
d="M570 210h-361c6 -57 58 -100 153 -100c53 0 106 11 159 38l5 -126c-45 -22 -111 -35 -184 -35c-184 0 -308 101 -308 274c0 162 115 272 286 272c157 0 252 -91 252 -281c0 -8 -1 -35 -2 -42zM209 315h201c0 69 -35 101 -94 101c-54 0 -98 -36 -107 -101zM149 756h102
l68 -95l65 95h100l-116 -177h-112z" />
    <glyph glyph-name="edieresis" unicode="&#xeb;" horiz-adv-x="604" 
d="M570 210h-361c6 -57 58 -100 153 -100c53 0 106 11 159 38l5 -126c-45 -22 -111 -35 -184 -35c-184 0 -308 101 -308 274c0 162 115 272 286 272c157 0 252 -91 252 -281c0 -8 -1 -35 -2 -42zM209 315h201c0 69 -35 101 -94 101c-54 0 -98 -36 -107 -101zM266 730v-134
h-138v134h138zM490 730v-134h-139v134h139z" />
    <glyph glyph-name="emacron" unicode="&#x113;" horiz-adv-x="604" 
d="M570 210h-361c6 -57 58 -100 153 -100c53 0 106 11 159 38l5 -126c-45 -22 -111 -35 -184 -35c-184 0 -308 101 -308 274c0 162 115 272 286 272c157 0 252 -91 252 -281c0 -8 -1 -35 -2 -42zM209 315h201c0 69 -35 101 -94 101c-54 0 -98 -36 -107 -101zM471 704v-75
h-308v75h308z" />
    <glyph glyph-name="ebreve" unicode="&#x115;" horiz-adv-x="604" 
d="M570 210h-361c6 -57 58 -100 153 -100c53 0 106 11 159 38l5 -126c-45 -22 -111 -35 -184 -35c-184 0 -308 101 -308 274c0 162 115 272 286 272c157 0 252 -91 252 -281c0 -8 -1 -35 -2 -42zM209 315h201c0 69 -35 101 -94 101c-54 0 -98 -36 -107 -101zM407 756h87
c-5 -81 -72 -169 -182 -169c-121 0 -168 88 -173 169h87c3 -53 35 -89 88 -89c55 0 89 37 93 89z" />
    <glyph glyph-name="edotaccent" unicode="&#x117;" horiz-adv-x="604" 
d="M570 210h-361c6 -57 58 -100 153 -100c53 0 106 11 159 38l5 -126c-45 -22 -111 -35 -184 -35c-184 0 -308 101 -308 274c0 162 115 272 286 272c157 0 252 -91 252 -281c0 -8 -1 -35 -2 -42zM209 315h201c0 69 -35 101 -94 101c-54 0 -98 -36 -107 -101zM408 741v-156
h-174v156h174z" />
    <glyph glyph-name="eogonek" unicode="&#x119;" horiz-adv-x="604" 
d="M570 210h-361c6 -57 58 -100 153 -100c53 0 106 11 159 38l5 -123c-86 -45 -116 -105 -116 -137c0 -25 18 -36 45 -36c14 0 35 2 56 8l11 -68c-29 -8 -54 -12 -85 -12c-57 0 -126 15 -126 91c0 41 20 74 71 120l-8 -3c-10 -1 -21 -1 -32 -1c-184 0 -308 101 -308 274
c0 162 115 272 286 272c157 0 252 -91 252 -281c0 -8 -1 -35 -2 -42zM209 315h201c0 69 -35 101 -94 101c-54 0 -98 -36 -107 -101z" />
    <glyph glyph-name="gcircumflex" unicode="&#x11d;" horiz-adv-x="668" 
d="M439 450h2c-2 32 -2 44 -2 70h172v-467c0 -195 -124 -275 -312 -275c-70 0 -146 10 -213 34l11 141c64 -32 126 -47 184 -47c90 0 157 29 157 143c0 10 0 26 2 46h-2c-39 -60 -99 -92 -174 -92c-139 0 -231 104 -231 265c0 158 101 265 236 265c81 0 130 -29 170 -83z
M319 399c-60 0 -104 -55 -104 -130s43 -132 107 -132c63 0 112 57 112 130c0 77 -48 132 -115 132zM506 579h-102l-68 95l-65 -95h-100l116 177h112z" />
    <glyph glyph-name="gbreve" unicode="&#x11f;" horiz-adv-x="668" 
d="M439 450h2c-2 32 -2 44 -2 70h172v-467c0 -195 -124 -275 -312 -275c-70 0 -146 10 -213 34l11 141c64 -32 126 -47 184 -47c90 0 157 29 157 143c0 10 0 26 2 46h-2c-39 -60 -99 -92 -174 -92c-139 0 -231 104 -231 265c0 158 101 265 236 265c81 0 130 -29 170 -83z
M319 399c-60 0 -104 -55 -104 -130s43 -132 107 -132c63 0 112 57 112 130c0 77 -48 132 -115 132zM436 756h87c-5 -81 -72 -169 -182 -169c-121 0 -168 88 -173 169h87c3 -53 35 -89 88 -89c55 0 89 37 93 89z" />
    <glyph glyph-name="gdotaccent" unicode="&#x121;" horiz-adv-x="668" 
d="M439 450h2c-2 32 -2 44 -2 70h172v-467c0 -195 -124 -275 -312 -275c-70 0 -146 10 -213 34l11 141c64 -32 126 -47 184 -47c90 0 157 29 157 143c0 10 0 26 2 46h-2c-39 -60 -99 -92 -174 -92c-139 0 -231 104 -231 265c0 158 101 265 236 265c81 0 130 -29 170 -83z
M319 399c-60 0 -104 -55 -104 -130s43 -132 107 -132c63 0 112 57 112 130c0 77 -48 132 -115 132zM426 741v-156h-174v156h174z" />
    <glyph glyph-name="gcommaaccent" unicode="&#x123;" horiz-adv-x="668" 
d="M439 450h2c-2 32 -2 44 -2 70h172v-467c0 -195 -124 -275 -312 -275c-70 0 -146 10 -213 34l11 141c64 -32 126 -47 184 -47c90 0 157 29 157 143c0 10 0 26 2 46h-2c-39 -60 -99 -92 -174 -92c-139 0 -231 104 -231 265c0 158 101 265 236 265c81 0 130 -29 170 -83z
M319 399c-60 0 -104 -55 -104 -130s43 -132 107 -132c63 0 112 57 112 130c0 77 -48 132 -115 132zM249 579l133 177h94l-55 -177h-172z" />
    <glyph glyph-name="hcircumflex" unicode="&#x125;" horiz-adv-x="666" 
d="M235 433h2c38 58 100 100 174 100c127 0 201 -78 201 -221v-312h-180v247c0 96 -19 142 -83 142c-47 0 -74 -22 -90 -53s-20 -73 -20 -113v-223h-179v756h178v-156c0 -50 -1 -114 -3 -167zM487 790h-102l-70 75l-64 -75h-100l117 157h112z" />
    <glyph glyph-name="hbar" unicode="&#x127;" horiz-adv-x="666" 
d="M235 430h2c38 58 100 100 174 100c127 0 201 -78 201 -221v-309h-180v244c0 96 -19 142 -83 142c-47 0 -74 -22 -90 -53s-20 -73 -20 -113v-220h-179v610h-46v71h46v75h178v-75h126v-71h-126v-10c0 -50 -1 -117 -3 -170z" />
    <glyph glyph-name="dotlessi" unicode="&#x131;" horiz-adv-x="301" 
d="M241 520v-520h-181v520h181z" />
    <glyph glyph-name="igrave" unicode="&#xec;" horiz-adv-x="301" 
d="M241 520v-520h-181v520h181zM109 579l-156 177h173l77 -177h-94z" />
    <glyph glyph-name="iacute" unicode="&#xed;" horiz-adv-x="301" 
d="M241 520v-520h-181v520h181zM354 756l-156 -177h-94l77 177h173z" />
    <glyph glyph-name="icircumflex" unicode="&#xee;" horiz-adv-x="301" 
d="M241 520v-520h-181v520h181zM318 579h-102l-68 95l-65 -95h-100l116 177h112z" />
    <glyph glyph-name="itilde" unicode="&#x129;" horiz-adv-x="301" 
d="M241 520v-520h-181v520h181zM278 729h59c-7 -87 -45 -140 -111 -140c-17 0 -36 4 -78 20c-51 20 -64 23 -75 23c-28 0 -42 -13 -50 -49h-60c9 80 52 136 114 136c25 0 45 -6 95 -27c33 -14 44 -18 63 -18c23 0 39 18 43 55z" />
    <glyph glyph-name="idieresis" unicode="&#xef;" horiz-adv-x="301" 
d="M241 520v-520h-181v520h181zM107 730v-134h-138v134h138zM331 730v-134h-139v134h139z" />
    <glyph glyph-name="imacron" unicode="&#x12b;" horiz-adv-x="301" 
d="M241 520v-520h-181v520h181zM304 704v-75h-308v75h308z" />
    <glyph glyph-name="ibreve" unicode="&#x12d;" horiz-adv-x="301" 
d="M241 520v-520h-181v520h181zM241 756h87c-5 -81 -72 -169 -182 -169c-121 0 -168 88 -173 169h87c3 -53 35 -89 88 -89c55 0 89 37 93 89z" />
    <glyph glyph-name="iogonek" unicode="&#x12f;" horiz-adv-x="301" 
d="M241 520v-520h-35c-61 -61 -72 -88 -72 -112c0 -25 18 -36 45 -36c14 0 35 2 56 8l11 -68c-29 -8 -54 -12 -85 -12c-57 0 -126 15 -126 91c0 44 22 78 82 129h-57v520h181zM241 730v-134h-181v134h181z" />
    <glyph glyph-name="dotlessj" unicode="&#x237;" horiz-adv-x="301" 
d="M244 520v-501c0 -129 -32 -241 -195 -241c-29 0 -57 2 -89 8l5 123c12 -2 18 -3 26 -3c54 0 71 27 71 113v501h182z" />
    <glyph glyph-name="jcircumflex" unicode="&#x135;" horiz-adv-x="301" 
d="M244 520v-501c0 -129 -32 -241 -195 -241c-29 0 -57 2 -89 8l5 123c12 -2 18 -3 26 -3c54 0 71 27 71 113v501h182zM318 579h-102l-68 95l-65 -95h-100l116 177h112z" />
    <glyph glyph-name="kcommaaccent" unicode="&#x137;" horiz-adv-x="617" 
d="M396 0l-75 120c-23 37 -57 93 -77 130h-2v-250h-182v756h182v-446h2c19 30 54 78 80 111l77 99h204l-193 -235l207 -285h-223zM402 -62l-135 -175h-94l58 175h171z" />
    <glyph glyph-name="kgreenlandic" unicode="&#x138;" horiz-adv-x="617" 
d="M396 0l-75 120c-23 37 -57 93 -77 130h-2v-250h-182v520h182v-210h2c19 30 54 78 80 111l77 99h204l-193 -235l207 -285h-223z" />
    <glyph glyph-name="lacute" unicode="&#x13a;" horiz-adv-x="301" 
d="M241 756v-756h-181v756h181zM357 948l-163 -158h-100l85 158h178z" />
    <glyph glyph-name="lcaron" unicode="&#x13e;" horiz-adv-x="301" 
d="M241 756v-756h-181v756h181zM443 756l-68 -177h-90l19 177h139z" />
    <glyph glyph-name="lcommaaccent" unicode="&#x13c;" horiz-adv-x="301" 
d="M241 756v-756h-181v756h181zM253 -62l-135 -175h-94l58 175h171z" />
    <glyph glyph-name="lslash" unicode="&#x142;" horiz-adv-x="321" 
d="M251 756v-216l49 34v-85l-49 -34v-455h-181v347l-50 -34v85l50 34v324h181z" />
    <glyph glyph-name="ldot" unicode="&#x140;" horiz-adv-x="475" 
d="M241 756v-756h-181v756h181zM475 481v-156h-174v156h174z" />
    <glyph glyph-name="nacute" unicode="&#x144;" horiz-adv-x="667" 
d="M227 430h2c38 58 109 103 183 103c127 0 201 -78 201 -221v-312h-180v247c0 96 -19 142 -83 142c-47 0 -74 -22 -90 -53s-20 -73 -20 -113v-223h-181v351c0 44 -1 99 -5 169h169c2 -22 4 -63 4 -90zM510 756l-156 -177h-94l77 177h173z" />
    <glyph glyph-name="ncaron" unicode="&#x148;" horiz-adv-x="667" 
d="M227 430h2c38 58 109 103 183 103c127 0 201 -78 201 -221v-312h-180v247c0 96 -19 142 -83 142c-47 0 -74 -22 -90 -53s-20 -73 -20 -113v-223h-181v351c0 44 -1 99 -5 169h169c2 -22 4 -63 4 -90zM165 756h102l68 -95l65 95h100l-116 -177h-112z" />
    <glyph glyph-name="ntilde" unicode="&#xf1;" horiz-adv-x="667" 
d="M227 430h2c38 58 109 103 183 103c127 0 201 -78 201 -221v-312h-180v247c0 96 -19 142 -83 142c-47 0 -74 -22 -90 -53s-20 -73 -20 -113v-223h-181v351c0 44 -1 99 -5 169h169c2 -22 4 -63 4 -90zM466 729h59c-7 -87 -45 -140 -111 -140c-17 0 -36 4 -78 20
c-51 20 -64 23 -75 23c-28 0 -42 -13 -50 -49h-60c9 80 52 136 114 136c25 0 45 -6 95 -27c33 -14 44 -18 63 -18c23 0 39 18 43 55z" />
    <glyph glyph-name="ncommaaccent" unicode="&#x146;" horiz-adv-x="667" 
d="M227 430h2c38 58 109 103 183 103c127 0 201 -78 201 -221v-312h-180v247c0 96 -19 142 -83 142c-47 0 -74 -22 -90 -53s-20 -73 -20 -113v-223h-181v351c0 44 -1 99 -5 169h169c2 -22 4 -63 4 -90zM433 -62l-135 -175h-94l58 175h171z" />
    <glyph glyph-name="eng" unicode="&#x14b;" horiz-adv-x="667" 
d="M227 430h2c38 58 109 100 183 100c127 0 201 -78 201 -221v-290c0 -91 -6 -132 -32 -168c-32 -44 -87 -67 -153 -67c-29 0 -52 2 -97 10l5 115c12 -2 18 -3 26 -3c54 0 71 27 71 113v225c0 96 -19 142 -83 142c-47 0 -74 -22 -90 -53s-20 -73 -20 -113v-220h-181v351
c0 44 -1 99 -5 169h169c2 -22 4 -63 4 -90z" />
    <glyph glyph-name="ograve" unicode="&#xf2;" horiz-adv-x="668" 
d="M337 533c181 0 298 -107 298 -274c0 -166 -119 -272 -301 -272c-181 0 -300 107 -300 270c0 171 115 276 303 276zM334 410c-66 0 -115 -63 -115 -148c0 -91 48 -152 116 -152s115 60 115 148c0 91 -47 152 -116 152zM325 579l-156 177h173l77 -177h-94z" />
    <glyph glyph-name="oacute" unicode="&#xf3;" horiz-adv-x="668" 
d="M337 533c181 0 298 -107 298 -274c0 -166 -119 -272 -301 -272c-181 0 -300 107 -300 270c0 171 115 276 303 276zM334 410c-66 0 -115 -63 -115 -148c0 -91 48 -152 116 -152s115 60 115 148c0 91 -47 152 -116 152zM515 756l-156 -177h-94l77 177h173z" />
    <glyph glyph-name="ocircumflex" unicode="&#xf4;" horiz-adv-x="668" 
d="M337 533c181 0 298 -107 298 -274c0 -166 -119 -272 -301 -272c-181 0 -300 107 -300 270c0 171 115 276 303 276zM334 410c-66 0 -115 -63 -115 -148c0 -91 48 -152 116 -152s115 60 115 148c0 91 -47 152 -116 152zM501 579h-102l-68 95l-65 -95h-100l116 177h112z" />
    <glyph glyph-name="otilde" unicode="&#xf5;" horiz-adv-x="668" 
d="M337 533c181 0 298 -107 298 -274c0 -166 -119 -272 -301 -272c-181 0 -300 107 -300 270c0 171 115 276 303 276zM334 410c-66 0 -115 -63 -115 -148c0 -91 48 -152 116 -152s115 60 115 148c0 91 -47 152 -116 152zM473 729h59c-7 -87 -45 -140 -111 -140
c-17 0 -36 4 -78 20c-51 20 -64 23 -75 23c-28 0 -42 -13 -50 -49h-60c9 80 52 136 114 136c25 0 45 -6 95 -27c33 -14 44 -18 63 -18c23 0 39 18 43 55z" />
    <glyph glyph-name="odieresis" unicode="&#xf6;" horiz-adv-x="668" 
d="M337 533c181 0 298 -107 298 -274c0 -166 -119 -272 -301 -272c-181 0 -300 107 -300 270c0 171 115 276 303 276zM334 410c-66 0 -115 -63 -115 -148c0 -91 48 -152 116 -152s115 60 115 148c0 91 -47 152 -116 152zM291 730v-134h-138v134h138zM515 730v-134h-139v134
h139z" />
    <glyph glyph-name="omacron" unicode="&#x14d;" horiz-adv-x="668" 
d="M337 533c181 0 298 -107 298 -274c0 -166 -119 -272 -301 -272c-181 0 -300 107 -300 270c0 171 115 276 303 276zM334 410c-66 0 -115 -63 -115 -148c0 -91 48 -152 116 -152s115 60 115 148c0 91 -47 152 -116 152zM488 704v-75h-308v75h308z" />
    <glyph glyph-name="obreve" unicode="&#x14f;" horiz-adv-x="668" 
d="M337 533c181 0 298 -107 298 -274c0 -166 -119 -272 -301 -272c-181 0 -300 107 -300 270c0 171 115 276 303 276zM334 410c-66 0 -115 -63 -115 -148c0 -91 48 -152 116 -152s115 60 115 148c0 91 -47 152 -116 152zM424 756h87c-5 -81 -72 -169 -182 -169
c-121 0 -168 88 -173 169h87c3 -53 35 -89 88 -89c55 0 89 37 93 89z" />
    <glyph glyph-name="ohungarumlaut" unicode="&#x151;" horiz-adv-x="668" 
d="M337 533c181 0 298 -107 298 -274c0 -166 -119 -272 -301 -272c-181 0 -300 107 -300 270c0 171 115 276 303 276zM334 410c-66 0 -115 -63 -115 -148c0 -91 48 -152 116 -152s115 60 115 148c0 91 -47 152 -116 152zM641 756l-163 -177h-100l105 177h158zM408 756
l-143 -177h-96l79 177h160z" />
    <glyph glyph-name="oslash" unicode="&#xf8;" horiz-adv-x="668" 
d="M337 533c65 0 121 -14 167 -39l58 61l51 -48l-52 -55c47 -47 74 -114 74 -193c0 -166 -119 -274 -301 -274c-68 0 -127 15 -174 42l-59 -62l-51 47l55 58c-46 47 -71 111 -71 187c0 171 115 276 303 276zM450 258c0 24 -3 47 -10 66l-177 -187c19 -19 44 -29 72 -29
c68 0 115 62 115 150zM334 410c-66 0 -115 -63 -115 -148c0 -23 3 -44 8 -62l175 185c-19 16 -42 25 -68 25z" />
    <glyph glyph-name="oe" unicode="&#x153;" horiz-adv-x="963" 
d="M929 210h-346c6 -57 58 -102 142 -102c60 0 111 11 162 38l5 -123c-44 -22 -108 -36 -179 -36c-87 0 -161 26 -202 78c-37 -45 -109 -78 -195 -78c-176 0 -282 107 -282 270c0 171 102 276 285 276c89 0 154 -36 190 -84c37 49 94 84 182 84c153 0 240 -96 240 -286
c0 -8 -1 -30 -2 -37zM316 410c-64 0 -100 -63 -100 -148c0 -91 35 -152 101 -152c67 0 100 60 100 148c0 91 -33 152 -101 152zM580 315h199c0 69 -34 103 -91 103c-59 0 -101 -35 -108 -103z" />
    <glyph glyph-name="racute" unicode="&#x155;" horiz-adv-x="441" 
d="M218 406h2c25 81 72 127 154 127c20 0 42 -2 57 -7l-6 -151c-19 6 -39 9 -59 9c-93 0 -129 -61 -129 -199v-185h-182v365c0 55 -1 112 -5 155h163c2 -20 5 -84 5 -114zM400 756l-156 -177h-94l77 177h173z" />
    <glyph glyph-name="rcaron" unicode="&#x159;" horiz-adv-x="441" 
d="M218 406h2c25 81 72 127 154 127c20 0 42 -2 57 -7l-6 -151c-19 6 -39 9 -59 9c-93 0 -129 -61 -129 -199v-185h-182v365c0 55 -1 112 -5 155h163c2 -20 5 -84 5 -114zM52 756h102l68 -95l65 95h100l-116 -177h-112z" />
    <glyph glyph-name="rcommaaccent" unicode="&#x157;" horiz-adv-x="441" 
d="M218 406h2c25 81 72 127 154 127c20 0 42 -2 57 -7l-6 -151c-19 6 -39 9 -59 9c-93 0 -129 -61 -129 -199v-185h-182v365c0 55 -1 112 -5 155h163c2 -20 5 -84 5 -114zM240 -62l-135 -175h-94l58 175h171z" />
    <glyph glyph-name="sacute" unicode="&#x15b;" 
d="M440 506l-14 -125c-52 24 -97 35 -144 35c-46 0 -72 -16 -72 -43c0 -24 13 -33 95 -51c86 -19 167 -45 167 -160c0 -112 -94 -175 -241 -175c-53 0 -126 9 -187 28l8 130c62 -27 124 -38 173 -38c42 0 73 11 73 42c0 26 -13 35 -99 55c-112 26 -160 68 -160 157
c0 105 85 172 231 172c67 0 122 -7 170 -27zM427 756l-156 -177h-94l77 177h173z" />
    <glyph glyph-name="scircumflex" unicode="&#x15d;" 
d="M440 506l-14 -125c-52 24 -97 35 -144 35c-46 0 -72 -16 -72 -43c0 -24 13 -33 95 -51c86 -19 167 -45 167 -160c0 -112 -94 -175 -241 -175c-53 0 -126 9 -187 28l8 130c62 -27 124 -38 173 -38c42 0 73 11 73 42c0 26 -13 35 -99 55c-112 26 -160 68 -160 157
c0 105 85 172 231 172c67 0 122 -7 170 -27zM428 579h-102l-68 95l-65 -95h-100l116 177h112z" />
    <glyph glyph-name="scaron" unicode="&#x161;" 
d="M440 506l-14 -125c-52 24 -97 35 -144 35c-46 0 -72 -16 -72 -43c0 -24 13 -33 95 -51c86 -19 167 -45 167 -160c0 -112 -94 -175 -241 -175c-53 0 -126 9 -187 28l8 130c62 -27 124 -38 173 -38c42 0 73 11 73 42c0 26 -13 35 -99 55c-112 26 -160 68 -160 157
c0 105 85 172 231 172c67 0 122 -7 170 -27zM96 756h102l68 -95l65 95h100l-116 -177h-112z" />
    <glyph glyph-name="scedilla" unicode="&#x15f;" 
d="M440 506l-14 -125c-52 24 -97 35 -144 35c-46 0 -72 -16 -72 -43c0 -24 13 -33 95 -51c86 -19 167 -45 167 -160c0 -105 -83 -166 -214 -174l-8 -47c8 1 14 1 20 1c51 0 105 -18 105 -73c0 -67 -58 -99 -134 -99c-28 0 -51 3 -73 7l6 52c19 -3 40 -5 54 -5
c33 0 60 7 60 34c0 20 -21 30 -54 30c-17 0 -32 -1 -52 -5l10 106c-47 3 -101 11 -148 26l8 130c62 -27 124 -38 173 -38c42 0 73 11 73 42c0 26 -13 35 -99 55c-112 26 -160 68 -160 157c0 105 85 172 231 172c67 0 122 -7 170 -27z" />
    <glyph glyph-name="scommaaccent" unicode="&#x219;" 
d="M440 506l-14 -125c-52 24 -97 35 -144 35c-46 0 -72 -16 -72 -43c0 -24 13 -33 95 -51c86 -19 167 -45 167 -160c0 -112 -94 -175 -241 -175c-53 0 -126 9 -187 28l8 130c62 -27 124 -38 173 -38c42 0 73 11 73 42c0 26 -13 35 -99 55c-112 26 -160 68 -160 157
c0 105 85 172 231 172c67 0 122 -7 170 -27zM361 -62l-135 -175h-94l58 175h171z" />
    <glyph glyph-name="germandbls" unicode="&#xdf;" horiz-adv-x="658" 
d="M60 0v503c0 166 98 257 289 257c164 0 255 -72 255 -200c0 -82 -47 -142 -145 -160v-2c112 -11 171 -83 171 -189c0 -138 -93 -215 -259 -215c-25 0 -55 2 -85 7l6 127c17 -3 32 -5 50 -5c72 0 112 35 112 102c0 62 -43 98 -113 98c-8 0 -17 0 -30 -2v128h9
c68 0 111 36 111 98c0 58 -37 91 -89 91c-63 0 -103 -43 -103 -133v-505h-179z" />
    <glyph glyph-name="tcaron" unicode="&#x165;" horiz-adv-x="440" 
d="M13 397v123h104v118l171 56v-174h125v-123h-125v-204c0 -40 10 -79 70 -79c19 0 39 2 56 6l6 -117c-35 -7 -79 -11 -110 -11c-139 0 -201 59 -201 188v217h-96zM507 756l-68 -177h-90l19 177h139z" />
    <glyph glyph-name="uni0163" unicode="&#x163;" horiz-adv-x="440" 
d="M13 397v123h104v118l171 56v-174h125v-123h-125v-204c0 -40 10 -79 70 -79c19 0 39 2 56 6l6 -117c-35 -7 -79 -11 -110 -11c-139 0 -201 59 -201 188v217h-96zM342 -62l-135 -175h-94l58 175h171z" />
    <glyph glyph-name="uni021B" unicode="&#x21b;" horiz-adv-x="440" 
d="M13 397v123h104v118l171 56v-174h125v-123h-125v-204c0 -40 10 -79 70 -79c19 0 39 2 56 6l6 -117c-35 -7 -79 -11 -110 -11c-139 0 -201 59 -201 188v217h-96zM342 -62l-135 -175h-94l58 175h171z" />
    <glyph glyph-name="tbar" unicode="&#x167;" horiz-adv-x="440" 
d="M13 397v123h104v118l171 56v-174h125v-123h-125v-65h92v-71h-92v-68c0 -40 10 -79 70 -79c19 0 39 2 56 6l6 -117c-35 -7 -79 -11 -110 -11c-139 0 -201 59 -201 188v81h-79v71h79v65h-96z" />
    <glyph glyph-name="thorn" unicode="&#xfe;" horiz-adv-x="668" 
d="M346 399c-67 0 -112 -56 -112 -138c0 -85 43 -139 111 -139c66 0 106 53 106 144c0 82 -41 133 -105 133zM60 756h182v-156c0 -50 -1 -121 -3 -156h2c37 55 93 89 170 89c136 0 224 -105 224 -268c0 -165 -94 -278 -233 -278c-70 0 -127 25 -161 84h-2
c2 -20 3 -91 3 -121v-162h-182v968z" />
    <glyph glyph-name="ugrave" unicode="&#xf9;" horiz-adv-x="667" 
d="M439 91h-2c-39 -67 -112 -104 -195 -104c-113 0 -188 78 -188 196v337h181v-285c0 -69 25 -100 81 -100c61 0 105 57 105 137v248h184v-367c0 -54 0 -110 5 -153h-167c-2 21 -4 57 -4 91zM305 579l-156 177h173l77 -177h-94z" />
    <glyph glyph-name="uacute" unicode="&#xfa;" horiz-adv-x="667" 
d="M439 91h-2c-39 -67 -112 -104 -195 -104c-113 0 -188 78 -188 196v337h181v-285c0 -69 25 -100 81 -100c61 0 105 57 105 137v248h184v-367c0 -54 0 -110 5 -153h-167c-2 21 -4 57 -4 91zM514 756l-156 -177h-94l77 177h173z" />
    <glyph glyph-name="ucircumflex" unicode="&#xfb;" horiz-adv-x="667" 
d="M439 91h-2c-39 -67 -112 -104 -195 -104c-113 0 -188 78 -188 196v337h181v-285c0 -69 25 -100 81 -100c61 0 105 57 105 137v248h184v-367c0 -54 0 -110 5 -153h-167c-2 21 -4 57 -4 91zM501 579h-102l-68 95l-65 -95h-100l116 177h112z" />
    <glyph glyph-name="utilde" unicode="&#x169;" horiz-adv-x="667" 
d="M439 91h-2c-39 -67 -112 -104 -195 -104c-113 0 -188 78 -188 196v337h181v-285c0 -69 25 -100 81 -100c61 0 105 57 105 137v248h184v-367c0 -54 0 -110 5 -153h-167c-2 21 -4 57 -4 91zM461 729h59c-7 -87 -45 -140 -111 -140c-17 0 -36 4 -78 20c-51 20 -64 23 -75 23
c-28 0 -42 -13 -50 -49h-60c9 80 52 136 114 136c25 0 45 -6 95 -27c33 -14 44 -18 63 -18c23 0 39 18 43 55z" />
    <glyph glyph-name="udieresis" unicode="&#xfc;" horiz-adv-x="667" 
d="M439 91h-2c-39 -67 -112 -104 -195 -104c-113 0 -188 78 -188 196v337h181v-285c0 -69 25 -100 81 -100c61 0 105 57 105 137v248h184v-367c0 -54 0 -110 5 -153h-167c-2 21 -4 57 -4 91zM290 730v-134h-138v134h138zM514 730v-134h-139v134h139z" />
    <glyph glyph-name="umacron" unicode="&#x16b;" horiz-adv-x="667" 
d="M439 91h-2c-39 -67 -112 -104 -195 -104c-113 0 -188 78 -188 196v337h181v-285c0 -69 25 -100 81 -100c61 0 105 57 105 137v248h184v-367c0 -54 0 -110 5 -153h-167c-2 21 -4 57 -4 91zM487 704v-75h-308v75h308z" />
    <glyph glyph-name="ubreve" unicode="&#x16d;" horiz-adv-x="667" 
d="M439 91h-2c-39 -67 -112 -104 -195 -104c-113 0 -188 78 -188 196v337h181v-285c0 -69 25 -100 81 -100c61 0 105 57 105 137v248h184v-367c0 -54 0 -110 5 -153h-167c-2 21 -4 57 -4 91zM424 756h87c-5 -81 -72 -169 -182 -169c-121 0 -168 88 -173 169h87
c3 -53 35 -89 88 -89c55 0 89 37 93 89z" />
    <glyph glyph-name="uring" unicode="&#x16f;" horiz-adv-x="667" 
d="M439 91h-2c-39 -67 -112 -104 -195 -104c-113 0 -188 78 -188 196v337h181v-285c0 -69 25 -100 81 -100c61 0 105 57 105 137v248h184v-367c0 -54 0 -110 5 -153h-167c-2 21 -4 57 -4 91zM333 607c30 0 53 25 53 56c0 28 -24 53 -53 53s-53 -25 -53 -53
c0 -31 23 -56 53 -56zM333 555c-61 0 -107 47 -107 108c0 59 45 106 107 106s107 -47 107 -106c0 -61 -46 -108 -107 -108z" />
    <glyph glyph-name="uhungarumlaut" unicode="&#x171;" horiz-adv-x="667" 
d="M439 91h-2c-39 -67 -112 -104 -195 -104c-113 0 -188 78 -188 196v337h181v-285c0 -69 25 -100 81 -100c61 0 105 57 105 137v248h184v-367c0 -54 0 -110 5 -153h-167c-2 21 -4 57 -4 91zM621 756l-163 -177h-100l105 177h158zM388 756l-143 -177h-96l79 177h160z" />
    <glyph glyph-name="uogonek" unicode="&#x173;" horiz-adv-x="667" 
d="M439 91h-2c-39 -67 -112 -104 -195 -104c-113 0 -188 78 -188 196v337h181v-285c0 -69 25 -100 81 -100c61 0 105 57 105 137v248h184v-367c0 -54 0 -110 5 -153h-47c-61 -61 -72 -88 -72 -112c0 -25 18 -36 45 -36c14 0 35 2 56 8l11 -68c-29 -8 -54 -12 -85 -12
c-57 0 -126 15 -126 91c0 44 22 78 82 129h-31c-2 21 -4 57 -4 91z" />
    <glyph glyph-name="wcircumflex" unicode="&#x175;" horiz-adv-x="960" 
d="M392 0h-226l-152 520h189l59 -259c7 -32 18 -90 24 -125h2c6 35 21 96 28 124l64 260h217l61 -259c8 -32 21 -90 27 -125h2c6 35 17 95 24 124l57 260h182l-154 -520h-227l-60 267c-8 36 -18 86 -24 121h-2c-7 -35 -16 -85 -25 -121zM654 579h-102l-68 95l-65 -95h-100
l116 177h112z" />
    <glyph glyph-name="wacute" unicode="&#x1e83;" horiz-adv-x="960" 
d="M392 0h-226l-152 520h189l59 -259c7 -32 18 -90 24 -125h2c6 35 21 96 28 124l64 260h217l61 -259c8 -32 21 -90 27 -125h2c6 35 17 95 24 124l57 260h182l-154 -520h-227l-60 267c-8 36 -18 86 -24 121h-2c-7 -35 -16 -85 -25 -121zM699 756l-156 -177h-94l77 177h173z
" />
    <glyph glyph-name="wdieresis" unicode="&#x1e85;" horiz-adv-x="960" 
d="M392 0h-226l-152 520h189l59 -259c7 -32 18 -90 24 -125h2c6 35 21 96 28 124l64 260h217l61 -259c8 -32 21 -90 27 -125h2c6 35 17 95 24 124l57 260h182l-154 -520h-227l-60 267c-8 36 -18 86 -24 121h-2c-7 -35 -16 -85 -25 -121zM445 730v-134h-138v134h138zM669 730
v-134h-139v134h139z" />
    <glyph glyph-name="wgrave" unicode="&#x1e81;" horiz-adv-x="960" 
d="M392 0h-226l-152 520h189l59 -259c7 -32 18 -90 24 -125h2c6 35 21 96 28 124l64 260h217l61 -259c8 -32 21 -90 27 -125h2c6 35 17 95 24 124l57 260h182l-154 -520h-227l-60 267c-8 36 -18 86 -24 121h-2c-7 -35 -16 -85 -25 -121zM450 579l-156 177h173l77 -177h-94z
" />
    <glyph glyph-name="yacute" unicode="&#xfd;" horiz-adv-x="611" 
d="M419 520h186l-208 -546c-54 -142 -135 -196 -254 -196c-36 0 -67 4 -99 12l12 136c28 -8 46 -10 67 -10c42 0 74 22 85 70l-199 534h194l75 -251c10 -32 25 -94 32 -129h2c8 35 25 101 34 129zM495 756l-156 -177h-94l77 177h173z" />
    <glyph glyph-name="ycircumflex" unicode="&#x177;" horiz-adv-x="611" 
d="M419 520h186l-208 -546c-54 -142 -135 -196 -254 -196c-36 0 -67 4 -99 12l12 136c28 -8 46 -10 67 -10c42 0 74 22 85 70l-199 534h194l75 -251c10 -32 25 -94 32 -129h2c8 35 25 101 34 129zM480 579h-102l-68 95l-65 -95h-100l116 177h112z" />
    <glyph glyph-name="ydieresis" unicode="&#xff;" horiz-adv-x="611" 
d="M419 520h186l-208 -546c-54 -142 -135 -196 -254 -196c-36 0 -67 4 -99 12l12 136c28 -8 46 -10 67 -10c42 0 74 22 85 70l-199 534h194l75 -251c10 -32 25 -94 32 -129h2c8 35 25 101 34 129zM279 730v-134h-138v134h138zM503 730v-134h-139v134h139z" />
    <glyph glyph-name="ygrave" unicode="&#x1ef3;" horiz-adv-x="611" 
d="M419 520h186l-208 -546c-54 -142 -135 -196 -254 -196c-36 0 -67 4 -99 12l12 136c28 -8 46 -10 67 -10c42 0 74 22 85 70l-199 534h194l75 -251c10 -32 25 -94 32 -129h2c8 35 25 101 34 129zM275 579l-156 177h173l77 -177h-94z" />
    <glyph glyph-name="zacute" unicode="&#x17a;" horiz-adv-x="508" 
d="M473 384c-155 -171 -219 -233 -243 -255h249v-129h-448v139c146 154 228 239 246 254h-242v127h438v-136zM458 756l-156 -177h-94l77 177h173z" />
    <glyph glyph-name="zcaron" unicode="&#x17e;" horiz-adv-x="508" 
d="M473 384c-155 -171 -219 -233 -243 -255h249v-129h-448v139c146 154 228 239 246 254h-242v127h438v-136zM96 756h102l68 -95l65 95h100l-116 -177h-112z" />
    <glyph glyph-name="zdotaccent" unicode="&#x17c;" horiz-adv-x="508" 
d="M473 384c-155 -171 -219 -233 -243 -255h249v-129h-448v139c146 154 228 239 246 254h-242v127h438v-136zM346 741v-156h-174v156h174z" />
    <glyph glyph-name="f_i" unicode="&#xf001;" horiz-adv-x="768" 
d="M431 750l-10 -121c-14 4 -29 6 -47 6c-49 0 -71 -32 -71 -87v-28h127v-123h-127v-397h-182v397h-105v123h105v38c0 136 67 202 213 202c35 0 74 -4 97 -10zM681 730v-134h-181v134h181zM681 520v-520h-181v520h181z" />
    <glyph glyph-name="f_l" unicode="&#xf002;" horiz-adv-x="768" 
d="M431 750l-10 -121c-14 4 -29 6 -47 6c-49 0 -71 -32 -71 -87v-28h127v-123h-127v-397h-182v397h-105v123h105v38c0 136 67 202 213 202c35 0 74 -4 97 -10zM681 756v-756h-181v756h181z" />
    <glyph glyph-name="grave.cap" 
d="M105 908h178l86 -158h-99z" />
    <glyph glyph-name="acute" unicode="&#xb4;" 
d="M387 756l-156 -177h-94l77 177h173z" />
    <glyph glyph-name="acute.cap" 
d="M398 908l-163 -158h-100l85 158h178z" />
    <glyph glyph-name="circumflex" unicode="&#x2c6;" 
d="M418 579h-102l-68 95l-65 -95h-100l116 177h112z" />
    <glyph glyph-name="circumflex.cap" 
d="M414 750h-102l-70 75l-64 -75h-100l117 157h112z" />
    <glyph glyph-name="caron" unicode="&#x2c7;" 
d="M84 756h102l68 -95l65 95h100l-116 -177h-112z" />
    <glyph glyph-name="caron.cap" 
d="M78 908h102l70 -75l64 75h100l-117 -157h-112z" />
    <glyph glyph-name="caron.alt" 
d="M341 756l-68 -177h-90l19 177h139z" />
    <glyph glyph-name="tilde" unicode="&#x2dc;" 
d="M377 729h59c-7 -87 -45 -140 -111 -140c-17 0 -36 4 -78 20c-51 20 -64 23 -75 23c-28 0 -42 -13 -50 -49h-60c9 80 52 136 114 136c25 0 45 -6 95 -27c33 -14 44 -18 63 -18c23 0 39 18 43 55z" />
    <glyph glyph-name="tilde.cap" 
d="M376 903h59c-7 -87 -45 -140 -111 -140c-17 0 -36 4 -78 20c-51 20 -64 23 -75 23c-28 0 -42 -13 -50 -49h-60c9 80 52 136 114 136c25 0 45 -6 95 -27c33 -14 44 -18 63 -18c23 0 39 18 43 55z" />
    <glyph glyph-name="dieresis" unicode="&#xa8;" 
d="M207 730v-134h-138v134h138zM431 730v-134h-139v134h139z" />
    <glyph glyph-name="dieresis.cap" 
d="M207 909v-133h-138v133h138zM431 909v-133h-139v133h139z" />
    <glyph glyph-name="macron" unicode="&#xaf;" 
d="M406 704v-75h-308v75h308z" />
    <glyph glyph-name="macron.cap" 
d="M406 875v-75h-308v75h308z" />
    <glyph glyph-name="uni02C9" unicode="&#x2c9;" 
d="M406 704v-75h-308v75h308z" />
    <glyph glyph-name="breve" unicode="&#x2d8;" 
d="M344 756h87c-5 -81 -72 -169 -182 -169c-121 0 -168 88 -173 169h87c3 -53 35 -89 88 -89c55 0 89 37 93 89z" />
    <glyph glyph-name="breve.cap" 
d="M344 905h87c-5 -81 -72 -161 -182 -161c-121 0 -168 80 -173 161h87c3 -53 35 -81 88 -81c55 0 89 29 93 81z" />
    <glyph glyph-name="ring" unicode="&#x2da;" 
d="M255 607c30 0 53 25 53 56c0 28 -24 53 -53 53s-53 -25 -53 -53c0 -31 23 -56 53 -56zM255 555c-61 0 -107 47 -107 108c0 59 45 106 107 106s107 -47 107 -106c0 -61 -46 -108 -107 -108z" />
    <glyph glyph-name="ring.cap" 
d="M255 778c30 0 53 25 53 56c0 28 -24 53 -53 53s-53 -25 -53 -53c0 -31 23 -56 53 -56zM255 726c-61 0 -107 47 -107 108c0 59 45 106 107 106s107 -47 107 -106c0 -61 -46 -108 -107 -108z" />
    <glyph glyph-name="hungarumlaut" unicode="&#x2dd;" 
d="M512 756l-163 -177h-100l105 177h158zM279 756l-143 -177h-96l79 177h160z" />
    <glyph glyph-name="hungarumlaut.cap" 
d="M510 900l-158 -150h-97l83 150h172zM289 900l-159 -150h-93l74 150h178z" />
    <glyph glyph-name="dotaccent" unicode="&#x2d9;" 
d="M334 741v-156h-174v156h174z" />
    <glyph glyph-name="dotaccent.cap" 
d="M334 922v-156h-174v156h174z" />
    <glyph glyph-name="cedilla" unicode="&#xb8;" 
d="M241 9l-12 -68c8 1 14 1 20 1c51 0 105 -18 105 -73c0 -67 -58 -99 -134 -99c-28 0 -51 3 -73 7l6 52c19 -3 40 -5 54 -5c33 0 60 7 60 34c0 20 -21 30 -54 30c-17 0 -32 -1 -52 -5l12 126h68z" />
    <glyph glyph-name="ogonek" unicode="&#x2db;" 
d="M254 21h85c-80 -76 -94 -107 -94 -133c0 -25 18 -36 45 -36c14 0 35 2 56 8l11 -68c-29 -8 -54 -12 -85 -12c-57 0 -126 15 -126 91c0 49 29 87 108 150z" />
    <glyph glyph-name="commaaccent" 
d="M370 -62l-135 -175h-94l58 175h171z" />
    <glyph glyph-name="commaaccent.alt" 
d="M121 579l133 177h94l-55 -177h-172z" />
    <glyph glyph-name="ellipsis" unicode="&#x2026;" horiz-adv-x="1000" 
d="M251 159v-159h-170v159h170zM585 159v-159h-170v159h170zM917 159v-159h-170v159h170z" />
    <glyph glyph-name="uni00AD" unicode="&#xad;" horiz-adv-x="333" 
d="M303 347v-133h-273v133h273z" />
    <glyph glyph-name="exclamdown" unicode="&#xa1;" horiz-adv-x="342" 
d="M237 291l25 -470h-185l25 470h135zM252 520v-155h-166v155h166z" />
    <glyph glyph-name="questiondown" unicode="&#xbf;" horiz-adv-x="520" 
d="M467 -30l6 -133c-64 -19 -131 -28 -199 -28c-157 0 -253 53 -253 176c0 68 36 116 117 185c63 53 72 75 72 114v8h140v-8c0 -63 -15 -101 -68 -153s-81 -84 -81 -121c0 -55 42 -73 116 -73c47 0 96 10 150 33zM197 365v155h166v-155h-166z" />
    <glyph glyph-name="quoteleft" unicode="&#x2018;" horiz-adv-x="322" 
d="M277 734l-65 -255h-167l99 255h133z" />
    <glyph glyph-name="quoteright" unicode="&#x2019;" horiz-adv-x="322" 
d="M45 479l65 255h167l-99 -255h-133z" />
    <glyph glyph-name="quotedblleft" unicode="&#x201c;" horiz-adv-x="540" 
d="M495 734l-65 -255h-167l99 255h133zM277 734l-65 -255h-167l99 255h133z" />
    <glyph glyph-name="quotedblright" unicode="&#x201d;" horiz-adv-x="540" 
d="M45 479l65 255h167l-99 -255h-133zM263 479l65 255h167l-99 -255h-133z" />
    <glyph glyph-name="quotesinglbase" unicode="&#x201a;" horiz-adv-x="322" 
d="M45 -132l65 255h167l-99 -255h-133z" />
    <glyph glyph-name="quotedblbase" unicode="&#x201e;" horiz-adv-x="540" 
d="M45 -132l65 255h167l-99 -255h-133zM263 -132l65 255h167l-99 -255h-133z" />
    <glyph glyph-name="guilsinglleft" unicode="&#x2039;" horiz-adv-x="333" 
d="M299 466l-106 -204l106 -203h-148l-117 203l117 204h148z" />
    <glyph glyph-name="guilsinglright" unicode="&#x203a;" horiz-adv-x="333" 
d="M34 466h148l117 -203l-117 -204h-148l106 204z" />
    <glyph glyph-name="guillemotleft" unicode="&#xab;" horiz-adv-x="573" 
d="M539 466l-107 -204l107 -203h-149l-116 203l116 204h149zM299 466l-106 -204l106 -203h-148l-117 203l117 204h148z" />
    <glyph glyph-name="guillemotright" unicode="&#xbb;" horiz-adv-x="573" 
d="M34 59l106 204l-106 203h149l116 -203l-116 -204h-149zM274 59l106 204l-106 203h148l117 -203l-117 -204h-148z" />
    <glyph glyph-name="endash" unicode="&#x2013;" 
d="M500 347v-133h-500v133h500z" />
    <glyph glyph-name="emdash" unicode="&#x2014;" horiz-adv-x="1000" 
d="M880 347v-133h-760v133h760z" />
    <glyph glyph-name="bullet" unicode="&#x2022;" 
d="M252 521c93 0 171 -79 171 -173c0 -96 -78 -174 -173 -174c-97 0 -174 78 -174 175c0 96 78 172 176 172z" />
    <glyph glyph-name="periodcentered" unicode="&#xb7;" horiz-adv-x="280" 
d="M225 360v-159h-170v159h170z" />
    <glyph glyph-name="uni2219" unicode="&#x2219;" horiz-adv-x="280" 
d="M225 360v-159h-170v159h170z" />
    <glyph glyph-name="dagger" unicode="&#x2020;" horiz-adv-x="612" 
d="M385 698v-165h152v-114h-152v-419h-156v419h-155v114h155v165h156z" />
    <glyph glyph-name="daggerdbl" unicode="&#x2021;" horiz-adv-x="612" 
d="M385 698v-165h152v-114h-152v-133h152v-116h-152v-170h-156v170h-155v116h155v133h-155v114h155v165h156z" />
    <glyph glyph-name="section" unicode="&#xa7;" horiz-adv-x="612" 
d="M504 701l-19 -134c-38 16 -93 29 -148 29c-40 0 -83 -9 -83 -52c0 -35 41 -52 120 -80c139 -49 172 -98 172 -179c0 -53 -26 -103 -72 -132c39 -31 53 -71 53 -113c0 -126 -107 -187 -242 -187c-75 0 -150 14 -203 32l12 140c52 -22 132 -40 185 -40c43 0 77 12 77 47
c0 34 -24 46 -127 83c-123 44 -164 91 -164 175c0 51 26 102 78 132c-42 32 -59 68 -59 118c0 129 124 182 249 182c67 0 128 -9 171 -21zM290 344l-45 17c-19 -14 -27 -34 -27 -51c0 -39 32 -54 76 -71l77 -30c15 11 25 29 25 49c0 33 -19 53 -106 86z" />
    <glyph glyph-name="paragraph" unicode="&#xb6;" horiz-adv-x="720" 
d="M659 599h-58v-799h-121v799h-103v-799h-121v409c-127 12 -202 99 -202 233c0 155 106 256 271 256h334v-99z" />
    <glyph glyph-name="brokenbar" unicode="&#xa6;" horiz-adv-x="256" 
d="M60 386v400h136v-400h-136zM60 -214v400h136v-400h-136z" />
    <glyph glyph-name="copyright" unicode="&#xa9;" horiz-adv-x="900" 
d="M591 561l-8 -92c-36 19 -68 23 -100 23c-78 0 -130 -57 -130 -135c0 -83 56 -138 135 -138c29 0 63 2 100 23l6 -89c-36 -15 -76 -21 -107 -21c-137 0 -237 78 -237 225c0 130 101 220 233 220c33 0 70 -3 108 -16zM450 661c-175 0 -310 -141 -310 -311
c0 -172 135 -313 310 -313s310 141 310 315c0 168 -135 309 -310 309zM450 701c195 0 352 -154 352 -351c0 -196 -157 -353 -352 -353s-352 157 -352 355c0 195 157 349 352 349z" />
    <glyph glyph-name="registered" unicode="&#xae;" 
d="M226 582v-46h7c32 0 45 6 45 25c0 17 -13 21 -45 21h-7zM254 692c94 0 172 -80 172 -175c0 -99 -78 -177 -175 -177c-99 0 -177 79 -177 178c0 97 79 174 180 174zM248 663c-79 0 -145 -67 -145 -146c0 -82 66 -148 147 -148s147 66 147 149c0 80 -67 145 -149 145z
M174 416v209h69c49 0 89 -12 89 -61c0 -24 -13 -44 -39 -48v-2c12 -4 18 -12 22 -21l35 -77h-60l-27 64c-6 12 -10 17 -31 17h-6v-81h-52z" />
    <glyph glyph-name="trademark" unicode="&#x2122;" horiz-adv-x="994" 
d="M209 332v274h-102v76h299v-76h-101v-274h-96zM454 332v350h150l66 -234l73 234h138v-350h-88v276l-88 -276h-79l-86 276v-276h-86z" />
    <glyph glyph-name="currency" unicode="&#xa4;" horiz-adv-x="612" 
d="M34 187l71 71c-12 28 -18 58 -18 91c0 32 6 63 18 90l-71 72l110 110l71 -71c27 12 58 18 91 18s63 -7 90 -18l71 71l110 -110l-71 -71c12 -28 19 -59 19 -91c0 -33 -7 -64 -19 -91l71 -71l-110 -109l-71 70c-27 -12 -58 -18 -90 -18c-33 0 -64 6 -91 18l-71 -70z
M306 258c53 0 91 40 91 91s-38 91 -91 91s-91 -40 -91 -91s38 -91 91 -91z" />
    <glyph glyph-name="Euro" unicode="&#x20ac;" horiz-adv-x="612" 
d="M560 698l-20 -136c-30 7 -57 10 -85 10c-75 0 -139 -32 -169 -98h226l-13 -90h-229c-2 -8 -3 -19 -3 -30c0 -10 1 -21 3 -29h221l-13 -90h-191c29 -63 98 -101 182 -101c25 0 50 1 76 9l6 -142c-27 -5 -69 -8 -100 -8c-189 0 -312 106 -342 242h-75l11 90h51
c-1 9 -1 19 -1 29c0 11 0 19 1 30h-62l11 90h66c41 136 160 233 339 233c40 0 85 -3 110 -9z" />
    <glyph glyph-name="cent" unicode="&#xa2;" horiz-adv-x="612" 
d="M514 505l-12 -132c-24 11 -47 17 -72 20l-81 -262c18 -5 37 -7 59 -7c35 0 71 6 105 21l6 -132c-50 -16 -93 -22 -150 -22c-22 0 -43 2 -63 5l-38 -123h-65l42 136c-111 36 -174 126 -174 254c0 161 115 265 292 265c14 0 29 -1 44 -2l39 125h65l-42 -133
c17 -3 31 -8 45 -13zM255 259c0 -43 13 -75 38 -98l72 231c-66 -12 -110 -57 -110 -133z" />
    <glyph glyph-name="sterling" unicode="&#xa3;" horiz-adv-x="612" 
d="M546 697l-14 -142c-18 7 -50 14 -80 14c-76 0 -122 -43 -122 -129v-21h141v-103h-141v-182h204v-134h-471v134h82v182h-64v103h64v26c0 154 92 266 280 266c46 0 86 -5 121 -14z" />
    <glyph glyph-name="florin" unicode="&#x192;" horiz-adv-x="612" 
d="M513 316h-131l-64 -318c-32 -157 -107 -218 -236 -218c-34 0 -64 4 -100 13l19 121c13 -5 28 -9 44 -9c60 0 73 43 88 118l59 293h-104v103h124l16 77c32 157 107 218 236 218c34 0 64 -4 100 -13l-19 -121c-13 5 -28 9 -44 9c-60 0 -73 -43 -88 -118l-11 -52h111v-103z
" />
    <glyph glyph-name="yen" unicode="&#xa5;" horiz-adv-x="612" 
d="M187 698l58 -142c18 -45 51 -131 64 -165h2c14 37 47 121 65 165l60 142h174l-150 -294h98v-93h-145l-18 -32v-27h163v-93h-163v-159h-180v159h-162v93h162v27l-18 32h-144v93h104l-155 294h185z" />
    <glyph glyph-name="ordfeminine" unicode="&#xaa;" horiz-adv-x="491" 
d="M295 481c-10 1 -16 1 -25 1c-66 0 -92 -18 -92 -52c0 -28 16 -44 45 -44c31 0 54 18 64 44c6 16 8 32 8 51zM305 367h-1c-28 -40 -71 -69 -135 -69c-80 0 -131 46 -131 120c0 84 69 133 200 133c16 0 37 -1 56 -3c0 50 -24 67 -84 67c-43 0 -75 -6 -122 -28l-3 92
c40 18 100 28 156 28c139 0 190 -58 190 -166c0 -21 -2 -62 -2 -95c0 -60 3 -110 6 -142h-129c-1 6 -2 19 -2 31c0 8 0 17 1 32z" />
    <glyph glyph-name="ordmasculine" unicode="&#xba;" horiz-adv-x="511" 
d="M257 707c137 0 224 -78 224 -204c0 -125 -89 -205 -226 -205c-136 0 -225 80 -225 203c0 130 86 206 227 206zM255 610c-50 0 -78 -41 -78 -105c0 -68 28 -110 79 -110s78 41 78 107c0 69 -27 108 -79 108z" />
    <glyph glyph-name="fraction" unicode="&#x2044;" horiz-adv-x="140" 
d="M311 735l-382 -757h-104l383 757h103z" />
    <glyph glyph-name="uni2215" unicode="&#x2215;" horiz-adv-x="140" 
d="M311 735l-382 -757h-104l383 757h103z" />
    <glyph glyph-name="onequarter" unicode="&#xbc;" horiz-adv-x="900" 
d="M285 700v-419h-125v185c0 33 2 93 3 116h-2c-10 -8 -41 -32 -64 -47l-21 -15l-57 83l155 97h111zM691 735l-382 -757h-104l383 757h103zM831 419v-256h58v-88h-58v-75h-118v75h-187v97l172 247h133zM718 163v5c0 38 3 96 5 150h-3c-26 -48 -62 -105 -79 -129l-18 -26h95z
" />
    <glyph glyph-name="onehalf" unicode="&#xbd;" horiz-adv-x="900" 
d="M285 700v-419h-125v185c0 33 2 93 3 116h-2c-10 -8 -41 -32 -64 -47l-21 -15l-57 83l155 97h111zM691 735l-382 -757h-104l383 757h103zM566 306l-12 95c34 16 92 26 143 26c73 0 157 -31 157 -129c0 -53 -16 -98 -82 -156c-38 -33 -53 -41 -71 -51v-2c41 2 81 3 123 3
h38v-92h-313v84c123 89 176 141 176 199c0 38 -28 50 -61 50c-32 0 -67 -11 -98 -27z" />
    <glyph glyph-name="threequarters" unicode="&#xbe;" horiz-adv-x="900" 
d="M129 450c-9 0 -19 -1 -27 -2v88c11 -1 18 -1 27 -1c60 0 87 9 87 39c0 25 -24 44 -71 44c-38 0 -80 -11 -98 -20l-11 92c41 13 92 18 134 18c106 0 166 -42 166 -110c0 -57 -29 -87 -87 -97v-2c63 -11 96 -46 96 -98c0 -82 -94 -127 -204 -127c-36 0 -74 3 -112 14l5 97
c33 -13 69 -20 99 -20c52 0 85 11 85 44s-36 41 -89 41zM691 735l-382 -757h-104l383 757h103zM831 419v-256h58v-88h-58v-75h-118v75h-187v97l172 247h133zM718 163v5c0 38 3 96 5 150h-3c-26 -48 -62 -105 -79 -129l-18 -26h95z" />
    <glyph glyph-name="perthousand" unicode="&#x2030;" horiz-adv-x="1367" 
d="M240 427c31 0 56 30 56 101c0 68 -24 94 -56 94s-56 -26 -56 -94c0 -71 25 -101 56 -101zM240 335c-110 0 -181 76 -181 193c0 124 72 188 181 188s181 -64 181 -188c0 -117 -71 -193 -181 -193zM651 736h103l-452 -757h-103zM716 78c31 0 56 30 56 101
c0 68 -24 94 -56 94s-56 -26 -56 -94c0 -71 25 -101 56 -101zM716 -14c-110 0 -181 76 -181 193c0 124 72 188 181 188s181 -64 181 -188c0 -117 -71 -193 -181 -193zM1127 78c31 0 56 30 56 101c0 68 -24 94 -56 94s-56 -26 -56 -94c0 -71 25 -101 56 -101zM1127 -14
c-110 0 -181 76 -181 193c0 124 72 188 181 188s181 -64 181 -188c0 -117 -71 -193 -181 -193z" />
    <glyph glyph-name="minus" unicode="&#x2212;" horiz-adv-x="612" 
d="M576 197h-540v146h540v-146z" />
    <glyph glyph-name="plusminus" unicode="&#xb1;" horiz-adv-x="612" 
d="M232 139v145h-196v146h196v154h148v-154h196v-146h-196v-145h-148zM36 -43v146h540v-146h-540z" />
    <glyph glyph-name="multiply" unicode="&#xd7;" horiz-adv-x="612" 
d="M35 108l162 162l-162 162l110 110l162 -162l161 162l110 -110l-161 -162l161 -162l-110 -109l-161 161l-162 -161z" />
    <glyph glyph-name="divide" unicode="&#xf7;" horiz-adv-x="612" 
d="M36 197v146h540v-146h-540zM224 2v153h164v-153h-164zM224 386v153h164v-153h-164z" />
    <glyph glyph-name="notequal" unicode="&#x2260;" horiz-adv-x="612" 
d="M36 317v146h278l67 148h160l-67 -148h102v-146h-169l-42 -94h211v-146h-278l-67 -148h-160l67 148h-102v146h169l42 94h-211z" />
    <glyph glyph-name="approxequal" unicode="&#x2248;" horiz-adv-x="612" 
d="M565 500v-165c-31 -38 -82 -65 -135 -65c-111 0 -163 88 -259 88c-55 0 -97 -38 -124 -79v165c31 38 82 65 135 65c111 0 163 -88 259 -88c55 0 97 38 124 79zM565 244v-165c-31 -38 -82 -65 -135 -65c-111 0 -163 88 -259 88c-55 0 -97 -38 -124 -79v165
c31 38 82 65 135 65c111 0 163 -88 259 -88c55 0 97 38 124 79z" />
    <glyph glyph-name="lessequal" unicode="&#x2264;" horiz-adv-x="612" 
d="M574 438l-211 -43c-46 -9 -140 -27 -190 -33v-2c50 -7 144 -25 190 -36l211 -51v-150l-540 147v182l540 137v-151zM34 98h540v-146h-540v146z" />
    <glyph glyph-name="greaterequal" unicode="&#x2265;" horiz-adv-x="612" 
d="M249 395l-211 43v151l540 -137v-182l-540 -147v150l211 51c46 11 140 29 190 36v2c-50 6 -144 24 -190 33zM38 98h540v-146h-540v146z" />
    <glyph glyph-name="logicalnot" unicode="&#xac;" horiz-adv-x="612" 
d="M22 317v146h540v-386h-148v240h-392z" />
    <glyph glyph-name="Delta" unicode="&#x2206;" horiz-adv-x="738" 
d="M34 128l226 570h215l229 -570v-128h-670v128zM316 422l-102 -281h301l-101 281c-15 41 -37 107 -47 143h-2c-11 -36 -34 -102 -49 -143z" />
    <glyph glyph-name="Omega" unicode="&#x2126;" horiz-adv-x="800" 
d="M766 0h-328v141c68 66 112 150 112 254c0 105 -56 183 -152 183c-94 0 -149 -80 -149 -184s45 -187 113 -253v-141h-328v141h32c50 0 87 0 128 -4l1 2c-88 72 -140 157 -140 274c0 186 149 297 351 297c195 0 339 -117 339 -293c0 -117 -52 -207 -140 -278l1 -2
c41 4 78 4 128 4h32v-141z" />
    <glyph glyph-name="mu" unicode="&#xb5;" horiz-adv-x="688" 
d="M616 520v-326c0 -45 5 -62 33 -62c2 0 12 1 16 2l7 -135c-15 -3 -46 -5 -63 -5c-94 0 -140 38 -152 118h-2c-43 -82 -91 -124 -163 -124c-18 0 -37 5 -47 10l-3 -2c2 -27 5 -96 5 -148v-60h-182v732h181v-285c0 -66 23 -100 70 -100c80 0 116 100 116 180v205h184z" />
    <glyph glyph-name="degree" unicode="&#xb0;" horiz-adv-x="400" 
d="M202 714c97 0 170 -79 170 -173c0 -96 -73 -173 -172 -173c-100 0 -173 77 -173 174c0 96 74 172 175 172zM199 604c-35 0 -60 -30 -60 -63c0 -34 25 -63 60 -63c36 0 61 29 61 63s-25 63 -61 63z" />
    <glyph glyph-name="afii61289" unicode="&#x2113;" horiz-adv-x="504" 
d="M65 364c0 205 37 350 222 350c120 0 175 -63 175 -178c0 -149 -79 -272 -210 -352c14 -41 39 -57 84 -57c28 0 59 7 83 15l8 -132c-38 -10 -83 -16 -128 -16c-107 0 -169 38 -202 123c-22 -6 -44 -11 -67 -15v129c14 3 27 6 40 10c-3 36 -5 77 -5 123zM236 374v-47
c48 48 72 112 72 198c0 36 -8 64 -32 64c-37 0 -40 -72 -40 -215z" />
    <glyph glyph-name="estimated" unicode="&#x212e;" horiz-adv-x="853" 
d="M675 136h68c-69 -78 -162 -148 -330 -148c-197 0 -375 132 -375 356c0 214 186 366 399 366c255 0 380 -186 380 -360v-4h-613l-8 -10v-230c64 -58 141 -82 223 -82c116 0 199 48 256 112zM652 382l8 9v205c-70 65 -148 78 -223 78s-167 -17 -241 -87v-196l8 -9h448z" />
    <glyph glyph-name="infinity" unicode="&#x221e;" horiz-adv-x="954" 
d="M544 270c28 -69 61 -114 124 -114c58 0 86 48 86 104c0 57 -29 102 -93 102c-50 0 -89 -32 -117 -92zM457 131c-54 -97 -110 -137 -205 -137c-144 0 -214 109 -214 262c0 161 90 270 238 270c95 0 167 -34 221 -137c54 97 110 137 205 137c144 0 214 -109 214 -262
c0 -161 -90 -270 -238 -270c-95 0 -167 34 -221 137zM410 250c-28 69 -61 114 -124 114c-58 0 -86 -48 -86 -104c0 -57 29 -102 93 -102c50 0 89 32 117 92z" />
    <glyph glyph-name="partialdiff" unicode="&#x2202;" horiz-adv-x="644" 
d="M400 461c-57 104 -208 181 -309 230l109 90c216 -97 411 -224 411 -481c0 -214 -136 -312 -300 -312s-289 91 -289 254c0 155 107 256 236 256c45 0 106 -9 140 -37h2zM321 383c-79 0 -120 -56 -120 -139c0 -89 65 -126 119 -126c50 0 113 40 113 135
c0 87 -50 130 -112 130z" />
    <glyph glyph-name="integral" unicode="&#x222b;" horiz-adv-x="408" 
d="M273 548v-569c0 -136 -68 -199 -212 -199c-33 0 -56 3 -93 11l10 122c21 -6 30 -8 45 -8c44 0 66 29 66 84v569c0 136 69 199 215 199c35 0 59 -3 96 -11l-10 -122c-21 6 -32 8 -48 8c-46 0 -69 -29 -69 -84z" />
    <glyph glyph-name="radical" unicode="&#x221a;" horiz-adv-x="663" 
d="M253 288l65 -219c9 -32 32 -114 39 -150h2c6 42 19 117 26 155l128 692h162l-204 -978h-225l-112 354h-120v146h239z" />
    <glyph glyph-name="summation" unicode="&#x2211;" horiz-adv-x="717" 
d="M528 298l-160 -204c-46 -59 -109 -131 -143 -167l1 -1c40 2 135 3 205 3h259v-141h-643v139l290 356l-274 353v130h613v-131h-218c-52 0 -152 1 -192 2l-1 -1c34 -35 82 -91 117 -139z" />
    <glyph glyph-name="product" unicode="&#x220f;" horiz-adv-x="784" 
d="M724 766v-976h-185v841h-294v-841h-185v976h664z" />
    <glyph glyph-name="lozenge" unicode="&#x25ca;" horiz-adv-x="612" 
d="M553 349l-174 -349h-147l-174 349l174 350h147zM247 432l-36 -83l36 -82c13 -29 50 -125 56 -150h2c5 25 43 119 57 150l36 82l-36 83c-14 31 -52 125 -57 150h-2c-6 -25 -43 -121 -56 -150z" />
    <glyph glyph-name="uniF8FF" unicode="&#xf8ff;" horiz-adv-x="512" 
d="M278 117h-56v67h56v-67zM271 234h-46l-2 17c0 37 4 64 13 81s24 37 46 59c43 41 50 58 50 83c0 48 -35 85 -76 85s-74 -27 -82 -95l-50 8c9 95 63 137 135 137c71 0 124 -52 124 -131c0 -43 -12 -73 -63 -120c-25 -22 -39 -39 -43 -52s-6 -37 -6 -72zM50 50h412v617h-412
v-617zM0 718h512v-718h-512v718z" />
    <glyph glyph-name="uni03A9" unicode="&#x3a9;" horiz-adv-x="800" 
d="M766 0h-328v141c68 66 112 150 112 254c0 105 -56 183 -152 183c-94 0 -149 -80 -149 -184s45 -187 113 -253v-141h-328v141h32c50 0 87 0 128 -4l1 2c-88 72 -140 157 -140 274c0 186 149 297 351 297c195 0 339 -117 339 -293c0 -117 -52 -207 -140 -278l1 -2
c41 4 78 4 128 4h32v-141z" />
    <glyph glyph-name="uni03BC" unicode="&#x3bc;" horiz-adv-x="688" 
d="M616 520v-326c0 -45 5 -62 33 -62c2 0 12 1 16 2l7 -135c-15 -3 -46 -5 -63 -5c-94 0 -140 38 -152 118h-2c-43 -82 -91 -124 -163 -124c-18 0 -37 5 -47 10l-3 -2c2 -27 5 -96 5 -148v-60h-182v732h181v-285c0 -66 23 -100 70 -100c80 0 116 100 116 180v205h184z" />
    <glyph glyph-name="pi" unicode="&#x3c0;" horiz-adv-x="696" 
d="M575 396v-189c0 -66 10 -93 54 -93c11 0 22 1 35 4l8 -115c-25 -5 -59 -9 -94 -9c-122 0 -178 50 -178 172v230h-116l-30 -396h-193l59 396h-100v125h664v-125h-109z" />
    <glyph glyph-name="uni0394" unicode="&#x394;" horiz-adv-x="738" 
d="M34 128l226 570h215l229 -570v-128h-670v128zM316 422l-102 -281h301l-101 281c-15 41 -37 107 -47 143h-2c-11 -36 -34 -102 -49 -143z" />
    <glyph glyph-name="zero.denominator" horiz-adv-x="380" 
d="M195 428c112 0 167 -65 167 -209c0 -168 -57 -230 -170 -230c-111 0 -173 59 -173 206c0 170 53 233 176 233zM191 345c-33 0 -51 -42 -51 -127c0 -98 18 -145 51 -145c31 0 50 47 50 135c0 94 -18 137 -50 137z" />
    <glyph glyph-name="one.denominator" horiz-adv-x="380" 
d="M285 419v-419h-125v185c0 33 2 93 3 116h-2c-10 -8 -41 -32 -64 -47l-21 -15l-57 83l155 97h111z" />
    <glyph glyph-name="two.denominator" horiz-adv-x="380" 
d="M46 306l-12 95c34 16 92 26 143 26c73 0 157 -31 157 -129c0 -53 -16 -98 -82 -156c-38 -33 -53 -41 -71 -51v-2c41 2 81 3 123 3h38v-92h-313v84c123 89 176 141 176 199c0 38 -28 50 -61 50c-32 0 -67 -11 -98 -27z" />
    <glyph glyph-name="three.denominator" horiz-adv-x="380" 
d="M129 169c-9 0 -19 -1 -27 -2v88c11 -1 18 -1 27 -1c60 0 87 9 87 39c0 25 -24 44 -71 44c-38 0 -80 -11 -98 -20l-11 92c41 13 92 18 134 18c106 0 166 -42 166 -110c0 -57 -29 -87 -87 -97v-2c63 -11 96 -46 96 -98c0 -82 -94 -127 -204 -127c-36 0 -74 3 -112 14l5 97
c33 -13 69 -20 99 -20c52 0 85 11 85 44s-36 41 -89 41z" />
    <glyph glyph-name="four.denominator" horiz-adv-x="380" 
d="M311 419v-256h58v-88h-58v-75h-118v75h-187v97l172 247h133zM198 163v5c0 38 3 96 5 150h-3c-26 -48 -62 -105 -79 -129l-18 -26h95z" />
    <glyph glyph-name="five.denominator" horiz-adv-x="380" 
d="M323 419v-88h-169l-1 -54c13 2 26 3 44 3c90 0 147 -53 147 -134c0 -96 -73 -153 -192 -153c-38 0 -71 3 -109 12v98c25 -11 56 -17 93 -17c55 0 85 16 85 54c0 37 -31 56 -95 56c-25 0 -52 -4 -79 -9l1 232h275z" />
    <glyph glyph-name="six.denominator" horiz-adv-x="380" 
d="M336 413l-12 -92c-24 11 -54 16 -88 16c-63 0 -97 -32 -99 -96h1c21 23 54 37 95 37c84 0 135 -47 135 -139c0 -89 -65 -147 -175 -147c-115 0 -174 73 -174 202c0 154 80 233 210 233c43 0 82 -6 107 -14zM201 195c-27 0 -57 -26 -57 -56c0 -34 24 -62 55 -62
c40 0 53 30 53 60c0 37 -16 58 -51 58z" />
    <glyph glyph-name="seven.denominator" horiz-adv-x="380" 
d="M344 419v-99l-147 -320h-135l157 327h-202v92h327z" />
    <glyph glyph-name="eight.denominator" horiz-adv-x="380" 
d="M280 224c62 -25 81 -54 81 -108c0 -79 -71 -124 -173 -124c-101 0 -174 45 -174 118c0 49 29 84 88 105c-60 21 -77 54 -77 99c0 71 70 114 165 114c91 0 158 -39 158 -103c0 -46 -16 -75 -68 -101zM194 252c31 12 41 32 41 56c0 25 -17 40 -47 40c-31 0 -51 -18 -51 -40
c0 -28 19 -44 57 -56zM183 178c-27 -11 -46 -27 -46 -57c0 -28 22 -48 53 -48c32 0 53 21 53 48c0 26 -11 41 -60 57z" />
    <glyph glyph-name="nine.denominator" horiz-adv-x="380" 
d="M42 8l10 93c24 -11 57 -22 89 -22c81 0 106 42 108 105h-2c-19 -27 -49 -41 -92 -41c-75 0 -133 41 -133 136c0 89 66 148 178 148c116 0 168 -76 168 -203c0 -153 -82 -232 -218 -232c-43 0 -88 7 -108 16zM194 230c25 0 52 21 52 54c0 34 -20 59 -52 59
c-39 0 -52 -28 -52 -58c0 -37 22 -55 52 -55z" />
    <glyph glyph-name="zero.inferior" unicode="&#x2080;" horiz-adv-x="380" 
d="M195 273c112 0 167 -65 167 -209c0 -168 -57 -230 -170 -230c-111 0 -173 59 -173 206c0 170 53 233 176 233zM191 190c-33 0 -51 -42 -51 -127c0 -98 18 -145 51 -145c31 0 50 47 50 135c0 94 -18 137 -50 137z" />
    <glyph glyph-name="one.inferior" unicode="&#x2081;" horiz-adv-x="380" 
d="M285 264v-419h-125v185c0 33 2 93 3 116h-2c-10 -8 -41 -32 -64 -47l-21 -15l-57 83l155 97h111z" />
    <glyph glyph-name="two.inferior" unicode="&#x2082;" horiz-adv-x="380" 
d="M46 151l-12 95c34 16 92 26 143 26c73 0 157 -31 157 -129c0 -53 -16 -98 -82 -156c-38 -33 -53 -41 -71 -51v-2c41 2 81 3 123 3h38v-92h-313v84c123 89 176 141 176 199c0 38 -28 50 -61 50c-32 0 -67 -11 -98 -27z" />
    <glyph glyph-name="three.inferior" unicode="&#x2083;" horiz-adv-x="380" 
d="M129 14c-9 0 -19 -1 -27 -2v88c11 -1 18 -1 27 -1c60 0 87 9 87 39c0 25 -24 44 -71 44c-38 0 -80 -11 -98 -20l-11 92c41 13 92 18 134 18c106 0 166 -42 166 -110c0 -57 -29 -87 -87 -97v-2c63 -11 96 -46 96 -98c0 -82 -94 -127 -204 -127c-36 0 -74 3 -112 14l5 97
c33 -13 69 -20 99 -20c52 0 85 11 85 44s-36 41 -89 41z" />
    <glyph glyph-name="four.inferior" unicode="&#x2084;" horiz-adv-x="380" 
d="M311 264v-256h58v-88h-58v-75h-118v75h-187v97l172 247h133zM198 8v5c0 38 3 96 5 150h-3c-26 -48 -62 -105 -79 -129l-18 -26h95z" />
    <glyph glyph-name="five.inferior" unicode="&#x2085;" horiz-adv-x="380" 
d="M323 264v-88h-169l-1 -54c13 2 26 3 44 3c90 0 147 -53 147 -134c0 -96 -73 -153 -192 -153c-38 0 -71 3 -109 12v98c25 -11 56 -17 93 -17c55 0 85 16 85 54c0 37 -31 56 -95 56c-25 0 -52 -4 -79 -9l1 232h275z" />
    <glyph glyph-name="six.inferior" unicode="&#x2086;" horiz-adv-x="380" 
d="M336 258l-12 -92c-24 11 -54 16 -88 16c-63 0 -97 -32 -99 -96h1c21 23 54 37 95 37c84 0 135 -47 135 -139c0 -89 -65 -147 -175 -147c-115 0 -174 73 -174 202c0 154 80 233 210 233c43 0 82 -6 107 -14zM201 40c-27 0 -57 -26 -57 -56c0 -34 24 -62 55 -62
c40 0 53 30 53 60c0 37 -16 58 -51 58z" />
    <glyph glyph-name="seven.inferior" unicode="&#x2087;" horiz-adv-x="380" 
d="M344 264v-99l-147 -320h-135l157 327h-202v92h327z" />
    <glyph glyph-name="eight.inferior" unicode="&#x2088;" horiz-adv-x="380" 
d="M280 69c62 -25 81 -54 81 -108c0 -79 -71 -124 -173 -124c-101 0 -174 45 -174 118c0 49 29 84 88 105c-60 21 -77 54 -77 99c0 71 70 114 165 114c91 0 158 -39 158 -103c0 -46 -16 -75 -68 -101zM194 97c31 12 41 32 41 56c0 25 -17 40 -47 40c-31 0 -51 -18 -51 -40
c0 -28 19 -44 57 -56zM183 23c-27 -11 -46 -27 -46 -57c0 -28 22 -48 53 -48c32 0 53 21 53 48c0 26 -11 41 -60 57z" />
    <glyph glyph-name="nine.inferior" unicode="&#x2089;" horiz-adv-x="380" 
d="M42 -147l10 93c24 -11 57 -22 89 -22c81 0 106 42 108 105h-2c-19 -27 -49 -41 -92 -41c-75 0 -133 41 -133 136c0 89 66 148 178 148c116 0 168 -76 168 -203c0 -153 -82 -232 -218 -232c-43 0 -88 7 -108 16zM194 75c25 0 52 21 52 54c0 34 -20 59 -52 59
c-39 0 -52 -28 -52 -58c0 -37 22 -55 52 -55z" />
    <glyph glyph-name="zero.numerator" horiz-adv-x="380" 
d="M195 709c112 0 167 -65 167 -209c0 -168 -57 -230 -170 -230c-111 0 -173 59 -173 206c0 170 53 233 176 233zM191 626c-33 0 -51 -42 -51 -127c0 -98 18 -145 51 -145c31 0 50 47 50 135c0 94 -18 137 -50 137z" />
    <glyph glyph-name="one.numerator" horiz-adv-x="380" 
d="M285 700v-419h-125v185c0 33 2 93 3 116h-2c-10 -8 -41 -32 -64 -47l-21 -15l-57 83l155 97h111z" />
    <glyph glyph-name="two.numerator" horiz-adv-x="380" 
d="M46 587l-12 95c34 16 92 26 143 26c73 0 157 -31 157 -129c0 -53 -16 -98 -82 -156c-38 -33 -53 -41 -71 -51v-2c41 2 81 3 123 3h38v-92h-313v84c123 89 176 141 176 199c0 38 -28 50 -61 50c-32 0 -67 -11 -98 -27z" />
    <glyph glyph-name="three.numerator" horiz-adv-x="380" 
d="M129 450c-9 0 -19 -1 -27 -2v88c11 -1 18 -1 27 -1c60 0 87 9 87 39c0 25 -24 44 -71 44c-38 0 -80 -11 -98 -20l-11 92c41 13 92 18 134 18c106 0 166 -42 166 -110c0 -57 -29 -87 -87 -97v-2c63 -11 96 -46 96 -98c0 -82 -94 -127 -204 -127c-36 0 -74 3 -112 14l5 97
c33 -13 69 -20 99 -20c52 0 85 11 85 44s-36 41 -89 41z" />
    <glyph glyph-name="four.numerator" horiz-adv-x="380" 
d="M311 700v-256h58v-88h-58v-75h-118v75h-187v97l172 247h133zM198 444v5c0 38 3 96 5 150h-3c-26 -48 -62 -105 -79 -129l-18 -26h95z" />
    <glyph glyph-name="five.numerator" horiz-adv-x="380" 
d="M323 700v-88h-169l-1 -54c13 2 26 3 44 3c90 0 147 -53 147 -134c0 -96 -73 -153 -192 -153c-38 0 -71 3 -109 12v98c25 -11 56 -17 93 -17c55 0 85 16 85 54c0 37 -31 56 -95 56c-25 0 -52 -4 -79 -9l1 232h275z" />
    <glyph glyph-name="six.numerator" horiz-adv-x="380" 
d="M336 694l-12 -92c-24 11 -54 16 -88 16c-63 0 -97 -32 -99 -96h1c21 23 54 37 95 37c84 0 135 -47 135 -139c0 -89 -65 -147 -175 -147c-115 0 -174 73 -174 202c0 154 80 233 210 233c43 0 82 -6 107 -14zM201 476c-27 0 -57 -26 -57 -56c0 -34 24 -62 55 -62
c40 0 53 30 53 60c0 37 -16 58 -51 58z" />
    <glyph glyph-name="seven.numerator" horiz-adv-x="380" 
d="M344 700v-99l-147 -320h-135l157 327h-202v92h327z" />
    <glyph glyph-name="eight.numerator" horiz-adv-x="380" 
d="M280 505c62 -25 81 -54 81 -108c0 -79 -71 -124 -173 -124c-101 0 -174 45 -174 118c0 49 29 84 88 105c-60 21 -77 54 -77 99c0 71 70 114 165 114c91 0 158 -39 158 -103c0 -46 -16 -75 -68 -101zM194 533c31 12 41 32 41 56c0 25 -17 40 -47 40c-31 0 -51 -18 -51 -40
c0 -28 19 -44 57 -56zM183 459c-27 -11 -46 -27 -46 -57c0 -28 22 -48 53 -48c32 0 53 21 53 48c0 26 -11 41 -60 57z" />
    <glyph glyph-name="nine.numerator" horiz-adv-x="380" 
d="M42 289l10 93c24 -11 57 -22 89 -22c81 0 106 42 108 105h-2c-19 -27 -49 -41 -92 -41c-75 0 -133 41 -133 136c0 89 66 148 178 148c116 0 168 -76 168 -203c0 -153 -82 -232 -218 -232c-43 0 -88 7 -108 16zM194 511c25 0 52 21 52 54c0 34 -20 59 -52 59
c-39 0 -52 -28 -52 -58c0 -37 22 -55 52 -55z" />
    <glyph glyph-name="zero.superior" unicode="&#x2070;" horiz-adv-x="380" 
d="M195 856c112 0 167 -65 167 -209c0 -168 -57 -230 -170 -230c-111 0 -173 59 -173 206c0 170 53 233 176 233zM191 773c-33 0 -51 -42 -51 -127c0 -98 18 -145 51 -145c31 0 50 47 50 135c0 94 -18 137 -50 137z" />
    <glyph glyph-name="onesuperior" unicode="&#xb9;" horiz-adv-x="380" 
d="M285 847v-419h-125v185c0 33 2 93 3 116h-2c-10 -8 -41 -32 -64 -47l-21 -15l-57 83l155 97h111z" />
    <glyph glyph-name="twosuperior" unicode="&#xb2;" horiz-adv-x="380" 
d="M46 734l-12 95c34 16 92 26 143 26c73 0 157 -31 157 -129c0 -53 -16 -98 -82 -156c-38 -33 -53 -41 -71 -51v-2c41 2 81 3 123 3h38v-92h-313v84c123 89 176 141 176 199c0 38 -28 50 -61 50c-32 0 -67 -11 -98 -27z" />
    <glyph glyph-name="threesuperior" unicode="&#xb3;" horiz-adv-x="380" 
d="M129 597c-9 0 -19 -1 -27 -2v88c11 -1 18 -1 27 -1c60 0 87 9 87 39c0 25 -24 44 -71 44c-38 0 -80 -11 -98 -20l-11 92c41 13 92 18 134 18c106 0 166 -42 166 -110c0 -57 -29 -87 -87 -97v-2c63 -11 96 -46 96 -98c0 -82 -94 -127 -204 -127c-36 0 -74 3 -112 14l5 97
c33 -13 69 -20 99 -20c52 0 85 11 85 44s-36 41 -89 41z" />
    <glyph glyph-name="four.superior" unicode="&#x2074;" horiz-adv-x="380" 
d="M311 847v-256h58v-88h-58v-75h-118v75h-187v97l172 247h133zM198 591v5c0 38 3 96 5 150h-3c-26 -48 -62 -105 -79 -129l-18 -26h95z" />
    <glyph glyph-name="five.superior" unicode="&#x2075;" horiz-adv-x="380" 
d="M323 847v-88h-169l-1 -54c13 2 26 3 44 3c90 0 147 -53 147 -134c0 -96 -73 -153 -192 -153c-38 0 -71 3 -109 12v98c25 -11 56 -17 93 -17c55 0 85 16 85 54c0 37 -31 56 -95 56c-25 0 -52 -4 -79 -9l1 232h275z" />
    <glyph glyph-name="six.superior" unicode="&#x2076;" horiz-adv-x="380" 
d="M336 841l-12 -92c-24 11 -54 16 -88 16c-63 0 -97 -32 -99 -96h1c21 23 54 37 95 37c84 0 135 -47 135 -139c0 -89 -65 -147 -175 -147c-115 0 -174 73 -174 202c0 154 80 233 210 233c43 0 82 -6 107 -14zM201 623c-27 0 -57 -26 -57 -56c0 -34 24 -62 55 -62
c40 0 53 30 53 60c0 37 -16 58 -51 58z" />
    <glyph glyph-name="seven.superior" unicode="&#x2077;" horiz-adv-x="380" 
d="M344 847v-99l-147 -320h-135l157 327h-202v92h327z" />
    <glyph glyph-name="eight.superior" unicode="&#x2078;" horiz-adv-x="380" 
d="M280 652c62 -25 81 -54 81 -108c0 -79 -71 -124 -173 -124c-101 0 -174 45 -174 118c0 49 29 84 88 105c-60 21 -77 54 -77 99c0 71 70 114 165 114c91 0 158 -39 158 -103c0 -46 -16 -75 -68 -101zM194 680c31 12 41 32 41 56c0 25 -17 40 -47 40c-31 0 -51 -18 -51 -40
c0 -28 19 -44 57 -56zM183 606c-27 -11 -46 -27 -46 -57c0 -28 22 -48 53 -48c32 0 53 21 53 48c0 26 -11 41 -60 57z" />
    <glyph glyph-name="nine.superior" unicode="&#x2079;" horiz-adv-x="380" 
d="M42 436l10 93c24 -11 57 -22 89 -22c81 0 106 42 108 105h-2c-19 -27 -49 -41 -92 -41c-75 0 -133 41 -133 136c0 89 66 148 178 148c116 0 168 -76 168 -203c0 -153 -82 -232 -218 -232c-43 0 -88 7 -108 16zM194 658c25 0 52 21 52 54c0 34 -20 59 -52 59
c-39 0 -52 -28 -52 -58c0 -37 22 -55 52 -55z" />
    <glyph glyph-name="interrobang" unicode="&#x203d;" horiz-adv-x="540" 
d="M159 0v160h171v-160h-171zM351 502c0 50 -43 79 -132 79c-47 0 -108 -12 -164 -34l-7 133c66 21 133 31 201 31c148 0 264 -56 264 -181c0 -67 -26 -113 -95 -173c-85 -73 -99 -92 -99 -126v-9h-147l-31 289h145l-9 -135h2c7 18 19 32 40 55c26 28 32 42 32 71z" />
    <glyph glyph-name="afii61248" unicode="&#x2105;" horiz-adv-x="956" 
d="M651 736h103l-452 -757h-103zM716 78c31 0 56 30 56 101c0 68 -24 94 -56 94s-56 -26 -56 -94c0 -71 25 -101 56 -101zM716 -14c-110 0 -181 76 -181 193c0 124 72 188 181 188s181 -64 181 -188c0 -117 -71 -193 -181 -193zM342 702l-9 -97c-22 10 -43 13 -63 13
c-48 0 -86 -31 -86 -93c0 -60 37 -89 88 -89c20 0 40 3 63 13l5 -100c-30 -11 -54 -15 -89 -15c-118 0 -195 72 -195 192c0 116 79 190 192 190c38 0 66 -4 94 -14z" />
    <glyph glyph-name="published" unicode="&#x2117;" horiz-adv-x="900" 
d="M450 661c-175 0 -310 -141 -310 -311c0 -172 135 -313 310 -313s310 141 310 315c0 168 -135 309 -310 309zM450 701c195 0 352 -154 352 -351c0 -196 -157 -353 -352 -353s-352 157 -352 355c0 195 157 349 352 349zM321 137v422h131c102 0 183 -36 183 -141
c0 -106 -86 -140 -186 -140h-31v-141h-97zM418 486v-135h23c56 0 96 14 96 67c0 52 -37 68 -97 68h-22z" />
    <glyph glyph-name="uni0406" unicode="&#x406;" horiz-adv-x="309" 
d="M249 698v-698h-189v698h189z" />
    <glyph glyph-name="uni0456" unicode="&#x456;" horiz-adv-x="301" 
d="M241 730v-134h-181v134h181zM241 520v-520h-181v520h181z" />
    <glyph glyph-name="uni0408" unicode="&#x408;" horiz-adv-x="435" 
d="M380 698v-453c0 -157 -74 -258 -244 -258c-38 0 -79 4 -121 15v146c25 -6 52 -9 70 -9c70 0 107 29 107 114v445h188z" />
    <glyph glyph-name="uni0458" unicode="&#x458;" horiz-adv-x="301" 
d="M244 730v-133h-182v133h182zM244 520v-501c0 -129 -32 -241 -195 -241c-29 0 -57 2 -89 8l5 123c12 -2 18 -3 26 -3c54 0 71 27 71 113v501h182z" />
    <glyph glyph-name="uni0410" unicode="&#x410;" horiz-adv-x="769" 
d="M495 698l270 -698h-204l-52 149h-262l-55 -149h-188l266 698h225zM466 280l-29 94c-16 53 -46 153 -55 190h-2c-9 -37 -40 -137 -58 -190l-32 -94h176z" />
    <glyph glyph-name="uni0411" unicode="&#x411;" horiz-adv-x="663" 
d="M60 0v698h496v-134h-308v-142h98c163 0 276 -60 276 -212c0 -151 -109 -210 -274 -210h-288zM248 130h66c74 0 117 23 117 87c0 62 -48 83 -124 83h-59v-170z" />
    <glyph glyph-name="uni0412" unicode="&#x412;" horiz-adv-x="666" 
d="M60 698h267c158 0 277 -39 277 -178c0 -74 -43 -138 -144 -158v-2c107 -16 165 -78 165 -168c0 -149 -154 -192 -299 -192h-266v698zM244 572v-159h32c99 0 144 22 144 82c0 68 -68 77 -135 77h-41zM244 293v-164h28c114 0 164 25 164 88c0 57 -51 76 -155 76h-37z" />
    <glyph glyph-name="uni0413" unicode="&#x413;" horiz-adv-x="532" 
d="M60 0v698h462v-138h-272v-560h-190z" />
    <glyph glyph-name="uni0414" unicode="&#x414;" horiz-adv-x="770" 
d="M3 -154v294h58c56 80 86 199 86 330v228h545v-558h73v-294h-174v154h-414v-154h-174zM252 140h249v420h-179v-105c0 -124 -23 -237 -70 -315z" />
    <glyph glyph-name="uni0415" unicode="&#x415;" horiz-adv-x="598" 
d="M60 698h480v-134h-295v-144h277v-134h-277v-151h305v-135h-490v698z" />
    <glyph glyph-name="uni0416" unicode="&#x416;" horiz-adv-x="1075" 
d="M443 0v343h-2c-31 -57 -73 -131 -99 -170l-117 -173h-225l264 373l-239 325h213l99 -149c27 -40 76 -122 104 -168h2v317h188v-317h2c28 46 77 128 104 168l100 149h212l-239 -325l265 -373h-226l-116 173c-26 40 -68 113 -100 170h-2v-343h-188z" />
    <glyph glyph-name="uni0417" unicode="&#x417;" horiz-adv-x="602" 
d="M268 -12c-83 0 -174 12 -238 32l10 146c58 -29 131 -39 197 -39c56 0 125 11 125 85c0 79 -87 84 -144 84c-18 0 -48 0 -61 -2v124c6 -1 28 -2 40 -2c62 0 162 10 162 86c0 62 -71 73 -122 73c-56 0 -137 -12 -181 -32l-9 136c66 18 156 31 226 31
c156 0 275 -52 275 -190c0 -80 -53 -132 -134 -155v-2c87 -14 147 -80 147 -167c0 -148 -130 -208 -293 -208z" />
    <glyph glyph-name="uni0418" unicode="&#x418;" horiz-adv-x="759" 
d="M60 0v698h181v-235c0 -73 -5 -171 -8 -243h2l255 478h209v-698h-181v235c0 62 5 186 8 243h-2l-260 -478h-204z" />
    <glyph glyph-name="uni0419" unicode="&#x419;" horiz-adv-x="759" 
d="M376 749c-104 0 -160 65 -180 133l68 41c19 -38 48 -74 112 -74s94 38 114 74l69 -41c-22 -65 -82 -133 -183 -133zM60 0v698h181v-235c0 -73 -5 -171 -8 -243h2l255 478h209v-698h-181v235c0 62 5 186 8 243h-2l-260 -478h-204z" />
    <glyph glyph-name="uni041A" unicode="&#x41a;" horiz-adv-x="700" 
d="M248 323v-323h-188v698h188v-294h2c11 18 79 117 109 158l99 136h215l-256 -323l283 -375h-234l-104 151c-26 38 -80 120 -112 172h-2z" />
    <glyph glyph-name="uni041B" unicode="&#x41b;" horiz-adv-x="773" 
d="M123 -7c-47 0 -90 5 -121 14l6 137c14 -5 36 -7 53 -7c92 0 104 117 108 561h544v-698h-190v559h-176c-3 -353 -23 -566 -224 -566z" />
    <glyph glyph-name="uni041C" unicode="&#x41c;" horiz-adv-x="995" 
d="M362 698l65 -218c25 -84 50 -177 73 -265h2c24 88 51 181 77 265l67 218h289v-698h-181v220c0 104 2 240 4 347h-2c-24 -88 -68 -230 -91 -299l-90 -268h-166l-91 270c-11 32 -71 227 -91 297h-2c2 -107 4 -243 4 -347v-220h-169v698h302z" />
    <glyph glyph-name="uni041D" unicode="&#x41d;" horiz-adv-x="747" 
d="M687 698v-698h-190v290h-247v-290h-190v698h190v-266h247v266h190z" />
    <glyph glyph-name="uni041E" unicode="&#x41e;" horiz-adv-x="788" 
d="M401 711c207 0 349 -136 349 -360c0 -233 -141 -364 -362 -364c-212 0 -350 133 -350 365c0 229 142 359 363 359zM390 573c-96 0 -158 -83 -158 -228c0 -138 66 -221 162 -221c97 0 161 81 161 220c0 148 -63 229 -165 229z" />
    <glyph glyph-name="uni041F" unicode="&#x41f;" horiz-adv-x="741" 
d="M60 0v698h621v-698h-190v560h-241v-560h-190z" />
    <glyph glyph-name="uni0420" unicode="&#x420;" horiz-adv-x="616" 
d="M60 698h240c169 0 302 -47 302 -223c0 -181 -153 -228 -302 -228h-50v-247h-190v698zM250 566v-185h40c60 0 124 18 124 93c0 72 -64 92 -124 92h-40z" />
    <glyph glyph-name="uni0421" unicode="&#x421;" horiz-adv-x="657" 
d="M619 689l-13 -145c-46 19 -94 27 -144 27c-134 0 -230 -71 -230 -216c0 -137 92 -224 241 -224c51 0 95 8 142 26l12 -148c-51 -14 -112 -22 -171 -22c-252 0 -418 118 -418 364c0 233 169 360 414 360c67 0 120 -7 167 -22z" />
    <glyph glyph-name="uni0422" unicode="&#x422;" horiz-adv-x="574" 
d="M191 0v560h-181v138h554v-138h-182v-560h-191z" />
    <glyph glyph-name="uni0423" unicode="&#x423;" horiz-adv-x="725" 
d="M226 -10c-56 0 -109 7 -129 12l9 138c15 -4 44 -9 76 -9c48 0 61 19 86 63l-265 504h207l157 -349l156 349h200l-283 -545c-47 -90 -98 -163 -214 -163z" />
    <glyph glyph-name="uni0424" unicode="&#x424;" horiz-adv-x="943" 
d="M376 -13v78c-113 0 -186 25 -240 68c-65 50 -106 129 -106 230c0 98 39 172 105 221c54 39 127 61 241 61v65h191v-65c114 0 185 -23 239 -62c66 -48 107 -122 107 -220c0 -101 -40 -181 -106 -231c-55 -43 -127 -67 -240 -67v-78h-191zM379 192v326
c-106 0 -160 -59 -160 -155c0 -109 56 -168 160 -171zM563 192c105 3 160 62 160 171c0 96 -53 155 -160 155v-326z" />
    <glyph glyph-name="uni0425" unicode="&#x425;" horiz-adv-x="712" 
d="M27 698h218l51 -93c26 -48 53 -100 70 -139c18 39 47 99 68 138l51 94h203l-204 -329l224 -369h-224l-59 110c-24 43 -57 110 -69 140c-14 -30 -50 -95 -75 -140l-62 -110h-215l229 359z" />
    <glyph glyph-name="uni0426" unicode="&#x426;" horiz-adv-x="759" 
d="M580 -154v154h-520v698h190v-558h241v558h190v-558h73v-294h-174z" />
    <glyph glyph-name="uni0427" unicode="&#x427;" horiz-adv-x="690" 
d="M440 0v254c-22 -6 -100 -19 -153 -19c-146 0 -246 49 -246 251v212h188v-196c0 -84 28 -122 112 -122c39 0 81 9 99 14v304h190v-698h-190z" />
    <glyph glyph-name="uni0428" unicode="&#x428;" horiz-adv-x="1097" 
d="M60 0v698h190v-558h203v558h191v-558h202v558h191v-698h-977z" />
    <glyph glyph-name="uni0429" unicode="&#x429;" horiz-adv-x="1114" 
d="M936 -154v154h-876v698h190v-558h203v558h191v-558h202v558h191v-558h72v-294h-173z" />
    <glyph glyph-name="uni042A" unicode="&#x42a;" horiz-adv-x="761" 
d="M171 0v560h-159v138h350v-250h110c153 0 272 -68 272 -226c0 -159 -122 -222 -273 -222h-300zM359 134h78c70 0 121 21 121 97c0 65 -43 89 -126 89h-73v-186z" />
    <glyph glyph-name="uni042B" unicode="&#x42b;" horiz-adv-x="939" 
d="M60 0v698h190v-250h98c153 0 272 -68 272 -226c0 -159 -122 -222 -273 -222h-287zM248 134h65c70 0 121 21 121 97c0 65 -43 89 -126 89h-60v-186zM689 0v698h190v-698h-190z" />
    <glyph glyph-name="uni042C" unicode="&#x42c;" horiz-adv-x="650" 
d="M60 0v698h190v-250h111c153 0 272 -68 272 -226c0 -159 -122 -222 -274 -222h-299zM248 134h77c71 0 122 21 122 97c0 65 -44 89 -127 89h-72v-186z" />
    <glyph glyph-name="uni042D" unicode="&#x42d;" horiz-adv-x="657" 
d="M228 -10c-59 0 -152 11 -198 27l10 137c44 -16 106 -24 157 -24c127 0 205 65 224 166h-284v126h281c-20 94 -97 152 -224 152c-47 0 -104 -8 -148 -26l-9 139c50 14 127 23 197 23c225 0 385 -130 385 -351c0 -238 -165 -369 -391 -369z" />
    <glyph glyph-name="uni042E" unicode="&#x42e;" horiz-adv-x="1078" 
d="M692 -12c-189 0 -317 111 -338 303h-104v-291h-190v698h190v-269h107c27 171 154 282 336 282c217 0 347 -142 347 -361c0 -226 -128 -362 -348 -362zM696 127c93 0 149 72 149 217c0 143 -50 230 -150 230c-91 0 -151 -80 -151 -229c0 -132 56 -218 152 -218z" />
    <glyph glyph-name="uni042F" unicode="&#x42f;" horiz-adv-x="680" 
d="M6 0l187 269c-90 29 -147 99 -147 215c0 152 115 214 264 214h310v-698h-190v251h-51l-151 -251h-222zM358 379h75v188h-72c-71 0 -130 -19 -130 -96c0 -70 59 -92 127 -92z" />
    <glyph glyph-name="uni0430" unicode="&#x430;" horiz-adv-x="605" 
d="M384 233c-11 1 -25 2 -37 2c-92 0 -144 -21 -144 -71c0 -43 30 -60 73 -60c66 0 108 48 108 129zM398 86h-2c-33 -57 -95 -96 -177 -96c-106 0 -186 66 -186 164c0 118 101 175 274 175c21 0 50 -2 75 -4c0 66 -43 90 -111 90c-56 0 -122 -16 -171 -41l-5 124
c56 25 141 35 204 35c173 0 252 -76 252 -219c0 -27 -2 -82 -2 -126c0 -79 4 -145 8 -188h-158c-2 8 -3 26 -3 41c0 11 0 26 2 45z" />
    <glyph glyph-name="uni0431" unicode="&#x431;" horiz-adv-x="658" 
d="M338 -13c-194 0 -291 114 -291 314c0 176 24 313 122 387c58 44 135 56 232 60c64 2 145 4 192 15l-7 -142c-55 -12 -158 -14 -200 -15c-134 -3 -213 -39 -221 -192h2c29 57 103 106 191 106c169 0 265 -96 265 -264c0 -159 -102 -269 -285 -269zM338 110
c70 0 103 62 103 148c0 102 -36 151 -103 151c-75 0 -109 -67 -109 -149c0 -106 47 -150 109 -150z" />
    <glyph glyph-name="uni0432" unicode="&#x432;" horiz-adv-x="608" 
d="M59 0v520h307c94 0 193 -27 193 -128c0 -67 -41 -107 -106 -121v-1c68 -13 120 -53 120 -124c0 -126 -113 -146 -223 -146h-291zM237 104h68c69 0 92 18 92 59c0 38 -24 55 -92 55h-68v-114zM237 317h60c59 0 85 13 85 55c0 41 -31 51 -90 51h-55v-106z" />
    <glyph glyph-name="uni0433" unicode="&#x433;" horiz-adv-x="475" 
d="M59 0v520h406v-124h-224v-396h-182z" />
    <glyph glyph-name="uni0434" unicode="&#x434;" horiz-adv-x="644" 
d="M3 -131v258h44c36 57 55 141 55 248v145h479v-393h58v-258h-156v131h-324v-131h-156zM223 127h176v269h-134v-41c0 -83 -11 -168 -42 -228z" />
    <glyph glyph-name="uni0435" unicode="&#x435;" horiz-adv-x="604" 
d="M570 210h-361c6 -57 58 -100 153 -100c53 0 106 11 159 38l5 -126c-45 -22 -111 -35 -184 -35c-184 0 -308 101 -308 274c0 162 115 272 286 272c157 0 252 -91 252 -281c0 -8 -1 -35 -2 -42zM209 315h201c0 69 -35 101 -94 101c-54 0 -98 -36 -107 -101z" />
    <glyph glyph-name="uni0436" unicode="&#x436;" horiz-adv-x="895" 
d="M277 119l-70 -119h-210l185 274l-173 246h201l70 -116c23 -39 56 -96 74 -130h2v246h182v-246h2c19 34 52 91 75 130l70 116h200l-173 -246l185 -274h-209l-71 119c-22 38 -57 99 -77 140h-2v-259h-182v259h-2c-20 -41 -54 -102 -77 -140z" />
    <glyph glyph-name="uni0437" unicode="&#x437;" horiz-adv-x="520" 
d="M244 -12c-94 0 -165 14 -214 30l7 126c32 -13 93 -34 158 -34c64 0 108 19 108 56c0 47 -39 53 -106 53c-17 0 -39 0 -48 -1v102c13 -1 35 -1 45 -1c49 0 102 4 102 52c0 42 -48 46 -95 46c-63 0 -122 -21 -153 -33l-9 117c43 14 130 31 217 31c130 0 222 -30 222 -131
c0 -63 -46 -108 -114 -123v-2c72 -10 124 -51 124 -124c0 -109 -101 -164 -244 -164z" />
    <glyph glyph-name="uni0438" unicode="&#x438;" horiz-adv-x="673" 
d="M59 0v520h176v-126c0 -80 -4 -130 -8 -190h2l203 316h182v-520h-176v126c0 62 2 125 7 186h-2l-203 -312h-181z" />
    <glyph glyph-name="uni0439" unicode="&#x439;" horiz-adv-x="673" 
d="M336 579c-100 0 -153 65 -173 127l65 37c18 -35 46 -71 108 -71s91 38 110 71l65 -37c-20 -61 -76 -127 -175 -127zM59 0v520h176v-126c0 -80 -4 -130 -8 -190h2l203 316h182v-520h-176v126c0 62 2 125 7 186h-2l-203 -312h-181z" />
    <glyph glyph-name="uni043A" unicode="&#x43a;" horiz-adv-x="620" 
d="M408 0l-78 117c-25 37 -62 96 -85 134h-2v-251h-182v520h182v-235h2c21 32 56 85 81 121l79 114h205l-193 -242l207 -278h-216z" />
    <glyph glyph-name="uni043B" unicode="&#x43b;" horiz-adv-x="662" 
d="M106 -9c-30 0 -85 5 -104 11l6 128c7 -3 26 -4 37 -4c65 0 82 60 84 394h474v-520h-181v396h-125c-3 -224 -19 -405 -191 -405z" />
    <glyph glyph-name="uni043C" unicode="&#x43c;" horiz-adv-x="833" 
d="M59 0v520h256l105 -364l102 364h252v-520h-160v184c0 71 2 159 6 228h-2l-127 -412h-151l-124 412h-2c3 -72 6 -160 6 -233v-179h-161z" />
    <glyph glyph-name="uni043D" unicode="&#x43d;" horiz-adv-x="667" 
d="M59 0v520h181v-188h187v188h181v-520h-181v208h-187v-208h-181z" />
    <glyph glyph-name="uni043E" unicode="&#x43e;" horiz-adv-x="668" 
d="M337 533c181 0 298 -107 298 -274c0 -166 -119 -272 -301 -272c-181 0 -300 107 -300 270c0 171 115 276 303 276zM334 410c-66 0 -115 -63 -115 -148c0 -91 48 -152 116 -152s115 60 115 148c0 91 -47 152 -116 152z" />
    <glyph glyph-name="uni043F" unicode="&#x43f;" horiz-adv-x="662" 
d="M59 0v520h544v-520h-182v396h-180v-396h-182z" />
    <glyph glyph-name="uni0440" unicode="&#x440;" horiz-adv-x="668" 
d="M346 399c-67 0 -112 -56 -112 -138c0 -85 43 -139 111 -139c66 0 106 53 106 144c0 82 -41 133 -105 133zM232 438h2c49 65 96 95 177 95c136 0 224 -105 224 -268c0 -165 -94 -278 -233 -278c-75 0 -129 28 -162 84h-2c2 -20 3 -91 3 -121v-162h-182v571
c0 54 -1 118 -5 161h174c2 -21 4 -56 4 -82z" />
    <glyph glyph-name="uni0441" unicode="&#x441;" horiz-adv-x="486" 
d="M453 509l-12 -130c-32 13 -64 18 -95 18c-76 0 -129 -46 -129 -136c0 -89 51 -135 133 -135c30 0 60 4 94 19l6 -134c-48 -15 -83 -20 -129 -20c-176 0 -288 103 -288 272c0 161 117 265 284 265c54 0 96 -4 136 -19z" />
    <glyph glyph-name="uni0442" unicode="&#x442;" horiz-adv-x="518" 
d="M165 0v396h-158v124h501v-124h-161v-396h-182z" />
    <glyph glyph-name="uni0443" unicode="&#x443;" horiz-adv-x="611" 
d="M419 520h186l-208 -546c-54 -142 -135 -196 -254 -196c-36 0 -67 4 -99 12l12 136c28 -8 46 -10 67 -10c42 0 74 22 85 70l-199 534h194l75 -251c10 -32 25 -94 32 -129h2c8 35 26 101 34 129z" />
    <glyph glyph-name="uni0444" unicode="&#x444;" horiz-adv-x="910" 
d="M364 -212v255c-32 -37 -75 -54 -128 -54c-134 0 -197 122 -197 268c0 155 62 275 202 275c55 0 97 -21 123 -54v271h182v-271c25 33 68 54 123 54c140 0 202 -120 202 -275c0 -146 -63 -268 -198 -268c-52 0 -95 17 -127 54v-255h-182zM309 114c27 0 46 12 59 31v228
c-12 19 -30 31 -58 31c-70 0 -87 -73 -87 -144s16 -146 86 -146zM601 114c69 0 86 75 86 146s-17 144 -87 144c-28 0 -46 -12 -58 -31v-228c13 -19 31 -31 59 -31z" />
    <glyph glyph-name="uni0445" unicode="&#x445;" horiz-adv-x="611" 
d="M313 357h2c8 18 31 62 42 82l43 81h193l-168 -256l177 -264h-206l-32 56c-19 34 -46 84 -63 119h-2c-17 -35 -45 -85 -65 -119l-32 -56h-196l179 266l-165 254h206l44 -81c12 -21 35 -64 43 -82z" />
    <glyph glyph-name="uni0446" unicode="&#x446;" horiz-adv-x="666" 
d="M505 -131v131h-446v520h182v-393h180v393h182v-393h58v-258h-156z" />
    <glyph glyph-name="uni0447" unicode="&#x447;" horiz-adv-x="607" 
d="M366 0v187c-28 -10 -88 -22 -143 -22c-130 0 -181 65 -181 170v185h175v-157c0 -54 24 -76 75 -76c25 0 64 9 74 14v219h182v-520h-182z" />
    <glyph glyph-name="uni0448" unicode="&#x448;" horiz-adv-x="940" 
d="M59 0v520h182v-393h138v393h182v-393h138v393h182v-520h-822z" />
    <glyph glyph-name="uni0449" unicode="&#x449;" horiz-adv-x="944" 
d="M783 -131v131h-724v520h182v-393h138v393h182v-393h138v393h182v-393h58v-258h-156z" />
    <glyph glyph-name="uni044A" unicode="&#x44a;" horiz-adv-x="663" 
d="M140 0v396h-130v124h311v-173h113c122 0 212 -54 212 -174c0 -126 -93 -173 -218 -173h-288zM321 111h66c60 0 89 21 89 66c0 42 -29 62 -90 62h-65v-128z" />
    <glyph glyph-name="uni044B" unicode="&#x44b;" horiz-adv-x="845" 
d="M59 0v520h181v-173h103c122 0 212 -54 212 -175c0 -126 -93 -172 -218 -172h-278zM240 111h37c71 0 108 12 108 66c0 48 -35 61 -108 61h-37v-127zM605 0v520h181v-520h-181z" />
    <glyph glyph-name="uni044C" unicode="&#x44c;" horiz-adv-x="582" 
d="M59 0v520h181v-173h113c122 0 212 -54 212 -175c0 -145 -117 -172 -263 -172h-243zM240 111h66c59 0 89 20 89 66c0 42 -29 61 -89 61h-66v-127z" />
    <glyph glyph-name="uni044D" unicode="&#x44d;" horiz-adv-x="516" 
d="M195 -11c-65 0 -110 8 -163 25l6 126c37 -17 67 -25 111 -25c81 0 131 36 144 101h-178v104h176c-19 59 -56 91 -139 91c-42 0 -74 -9 -107 -25l-8 122c41 12 93 23 162 23c168 0 283 -101 283 -263c0 -169 -105 -279 -287 -279z" />
    <glyph glyph-name="uni044E" unicode="&#x44e;" horiz-adv-x="898" 
d="M583 -13c-144 0 -253 92 -274 222h-68v-209h-182v520h182v-189h71c28 126 138 202 274 202c165 0 278 -111 278 -274c0 -158 -115 -272 -281 -272zM584 110c65 0 94 69 94 150c0 96 -36 151 -94 151c-64 0 -96 -65 -96 -151c0 -88 37 -150 96 -150z" />
    <glyph glyph-name="uni044F" unicode="&#x44f;" horiz-adv-x="611" 
d="M11 0c47 63 95 125 141 189c-68 25 -111 78 -111 158c0 127 93 173 224 173h287v-520h-181v174h-44c-37 -59 -74 -116 -111 -174h-205zM305 280h68v131h-55c-65 0 -105 -12 -105 -67c0 -47 37 -64 92 -64z" />
    <glyph glyph-name="uni0490" unicode="&#x490;" horiz-adv-x="532" 
d="M60 0v698h312v122h150v-260h-272v-560h-190z" />
    <glyph glyph-name="uni0491" unicode="&#x491;" horiz-adv-x="475" 
d="M59 0v520h259v103h147v-227h-224v-396h-182z" />
    <glyph glyph-name="uni0403" unicode="&#x403;" horiz-adv-x="532" 
d="M448 908l-163 -158h-100l85 158h178zM60 0v698h462v-138h-272v-560h-190z" />
    <glyph glyph-name="uni0453" unicode="&#x453;" horiz-adv-x="475" 
d="M405 756l-156 -177h-94l77 177h173zM59 0v520h406v-124h-224v-396h-182z" />
    <glyph glyph-name="uni0405" unicode="&#x405;" horiz-adv-x="585" 
d="M516 688l-11 -145c-60 23 -112 31 -160 31c-63 0 -110 -20 -110 -62c0 -35 23 -50 118 -86c124 -47 193 -105 193 -213c0 -142 -110 -226 -290 -226c-75 0 -145 10 -211 30l15 153c66 -29 137 -43 187 -43c66 0 109 23 109 69c0 38 -33 59 -127 94
c-110 41 -186 99 -186 205c0 143 126 216 285 216c69 0 132 -6 188 -23z" />
    <glyph glyph-name="uni0455" unicode="&#x455;" 
d="M440 506l-14 -125c-52 24 -97 35 -144 35c-46 0 -72 -16 -72 -43c0 -24 13 -33 95 -51c86 -19 167 -45 167 -160c0 -112 -94 -175 -241 -175c-53 0 -126 9 -187 28l8 130c62 -27 124 -38 173 -38c42 0 73 11 73 42c0 26 -13 35 -99 55c-112 26 -160 68 -160 157
c0 105 85 172 231 172c67 0 122 -7 170 -27z" />
    <glyph glyph-name="uni040C" unicode="&#x40c;" horiz-adv-x="700" 
d="M529 908l-163 -158h-100l85 158h178zM248 323v-323h-188v698h188v-294h2c11 18 79 117 109 158l99 136h215l-256 -323l283 -375h-234l-104 151c-26 38 -80 120 -112 172h-2z" />
    <glyph glyph-name="uni045C" unicode="&#x45c;" horiz-adv-x="620" 
d="M476 756l-156 -177h-94l77 177h173zM408 0l-78 117c-25 37 -62 96 -85 134h-2v-251h-182v520h182v-235h2c21 32 56 85 81 121l79 114h205l-193 -242l207 -278h-216z" />
    <glyph glyph-name="uni0407" unicode="&#x407;" horiz-adv-x="309" 
d="M240 698v-698h-189v698h189zM112 909v-133h-138v133h138zM336 909v-133h-139v133h139z" />
    <glyph glyph-name="uni0457" unicode="&#x457;" horiz-adv-x="301" 
d="M108 730v-134h-138v134h138zM332 730v-134h-139v134h139zM239 520v-520h-181v520h181z" />
    <glyph glyph-name="uni040E" unicode="&#x40e;" horiz-adv-x="725" 
d="M365 749c-104 0 -160 65 -180 133l68 41c19 -38 48 -74 112 -74s94 38 114 74l69 -41c-22 -65 -82 -133 -183 -133zM226 -10c-56 0 -109 7 -129 12l9 138c15 -4 44 -9 76 -9c48 0 61 19 86 63l-265 504h207l157 -349l156 349h200l-283 -545c-47 -90 -98 -163 -214 -163z
" />
    <glyph glyph-name="uni045E" unicode="&#x45e;" horiz-adv-x="611" 
d="M310 579c-100 0 -153 65 -173 127l65 37c18 -35 46 -71 108 -71s91 38 110 71l65 -37c-20 -61 -76 -127 -175 -127zM419 520h186l-208 -546c-54 -142 -135 -196 -254 -196c-36 0 -67 4 -99 12l12 136c28 -8 46 -10 67 -10c42 0 74 22 85 70l-199 534h194l75 -251
c10 -32 25 -94 32 -129h2c8 35 26 101 34 129z" />
    <glyph glyph-name="uni040F" unicode="&#x40f;" horiz-adv-x="741" 
d="M285 -154v154h-225v698h190v-558h241v558h190v-698h-222v-154h-174z" />
    <glyph glyph-name="uni045F" unicode="&#x45f;" horiz-adv-x="662" 
d="M253 -131v131h-194v520h182v-393h180v393h182v-520h-193v-131h-157z" />
    <glyph glyph-name="uni0409" unicode="&#x409;" horiz-adv-x="1113" 
d="M124 -7c-48 0 -90 5 -122 14l6 138c14 -5 36 -8 53 -8c92 0 104 118 109 561h544v-250h110c153 0 272 -68 272 -226c0 -159 -122 -222 -273 -222h-300v560h-175c-3 -353 -23 -567 -224 -567zM714 134h75c70 0 121 21 121 97c0 65 -43 89 -126 89h-70v-186z" />
    <glyph glyph-name="uni0459" unicode="&#x459;" horiz-adv-x="945" 
d="M106 -9c-30 0 -85 5 -104 11l6 128c7 -3 26 -4 37 -4c65 0 82 60 84 394h474v-173h112c122 0 213 -54 213 -174c0 -126 -93 -173 -218 -173h-288v396h-125c-3 -224 -19 -405 -191 -405zM603 111h65c61 0 89 21 89 66c0 42 -28 62 -89 62h-65v-128z" />
    <glyph glyph-name="uni040A" unicode="&#x40a;" horiz-adv-x="1087" 
d="M60 0v698h190v-262h247v262h190v-262h111c153 0 272 -66 272 -217c0 -152 -122 -219 -274 -219h-299v297h-247v-297h-190zM687 133h75c71 0 122 20 122 91c0 61 -44 82 -127 82h-70v-173z" />
    <glyph glyph-name="uni045A" unicode="&#x45a;" horiz-adv-x="945" 
d="M59 0v520h181v-185h182v185h181v-185h115c121 0 210 -50 210 -168c0 -124 -91 -167 -216 -167h-290v211h-182v-211h-181zM603 109h68c60 0 87 18 87 62c0 42 -27 58 -88 58h-67v-120z" />
    <glyph glyph-name="uni0404" unicode="&#x404;" horiz-adv-x="657" 
d="M429 -10c-226 0 -391 131 -391 369c0 221 160 351 385 351c70 0 147 -9 197 -23l-9 -139c-44 18 -101 26 -148 26c-127 0 -204 -58 -224 -152h281v-126h-284c19 -101 97 -166 224 -166c51 0 113 8 157 24l10 -137c-46 -16 -139 -27 -198 -27z" />
    <glyph glyph-name="uni0454" unicode="&#x454;" horiz-adv-x="516" 
d="M321 -11c-182 0 -287 110 -287 279c0 162 115 263 283 263c69 0 121 -11 162 -23l-8 -122c-33 16 -65 25 -107 25c-83 0 -120 -32 -139 -91h176v-104h-178c13 -65 63 -101 144 -101c44 0 74 8 111 25l6 -126c-53 -17 -98 -25 -163 -25z" />
    <glyph glyph-name="uni2116" unicode="&#x2116;" horiz-adv-x="1150" 
d="M60 0v698h238l222 -526v526h166v-698h-244l-217 516v-516h-165zM779 99v98h312v-98h-312zM935 246c-107 0 -176 64 -176 185c0 120 70 180 176 180c105 0 176 -60 176 -180c0 -121 -70 -185 -176 -185zM935 337c29 0 53 26 53 95c0 65 -23 87 -53 87s-54 -22 -54 -87
c0 -69 24 -95 54 -95z" />
    <glyph glyph-name="uni040B" unicode="&#x40b;" horiz-adv-x="828" 
d="M191 0v560h-181v138h554v-138h-183v-152c22 6 103 19 156 19c147 0 246 -49 246 -251v-176h-188v160c0 84 -27 123 -111 123c-39 0 -85 -9 -103 -14v-269h-190z" />
    <glyph glyph-name="uni0402" unicode="&#x402;" horiz-adv-x="814" 
d="M572 -12c-51 0 -89 5 -136 17l6 128c17 -8 42 -12 68 -12c62 0 99 35 99 97c0 66 -46 100 -109 100s-119 -44 -119 -121v-197h-190v560h-181v138h554v-138h-183v-203c38 56 128 84 193 84c126 0 223 -79 223 -221c0 -135 -82 -232 -225 -232z" />
    <glyph glyph-name="uni045B" unicode="&#x45b;" horiz-adv-x="676" 
d="M60 0v560h-90v110h90v86h180v-86h180v-110h-180v-19c0 -37 -2 -72 -3 -112h2c37 56 99 91 173 91c127 0 200 -78 200 -220v-300h-180v240c0 103 -21 142 -82 142c-75 0 -109 -69 -109 -171v-211h-181z" />
    <glyph glyph-name="uni0452" unicode="&#x452;" horiz-adv-x="666" 
d="M412 -220c-35 0 -74 4 -110 13l6 121c17 -4 34 -6 50 -6c61 0 74 40 74 123v209c0 102 -20 142 -82 142c-75 0 -110 -69 -110 -171v-211h-180v560h-90v110h90v86h180v-86h180v-110h-180v-18c0 -37 -2 -73 -3 -113h2c37 56 99 91 173 91c127 0 200 -78 200 -220v-258
c0 -184 -49 -262 -200 -262z" />
    <glyph glyph-name="uni0401" unicode="&#x401;" horiz-adv-x="598" 
d="M60 698h480v-134h-295v-144h277v-134h-277v-151h305v-135h-490v698zM261 909v-133h-138v133h138zM485 909v-133h-139v133h139z" />
    <glyph glyph-name="uni0451" unicode="&#x451;" horiz-adv-x="604" 
d="M272 730v-134h-138v134h138zM496 730v-134h-139v134h139zM570 210h-361c6 -57 58 -100 153 -100c53 0 106 11 159 38l5 -126c-45 -22 -111 -35 -184 -35c-184 0 -308 101 -308 274c0 162 115 272 286 272c157 0 252 -91 252 -281c0 -8 -1 -35 -2 -42zM209 315h201
c0 69 -35 101 -94 101c-54 0 -98 -36 -107 -101z" />
    <glyph glyph-name="uni0400" unicode="&#x400;" horiz-adv-x="598" 
d="M60 698h480v-134h-295v-144h277v-134h-277v-151h305v-135h-490v698zM107 908h178l86 -158h-99z" />
    <glyph glyph-name="uni0450" unicode="&#x450;" horiz-adv-x="604" 
d="M570 210h-361c6 -57 58 -100 153 -100c53 0 106 11 159 38l5 -126c-45 -22 -111 -35 -184 -35c-184 0 -308 101 -308 274c0 162 115 272 286 272c157 0 252 -91 252 -281c0 -8 -1 -35 -2 -42zM209 315h201c0 69 -35 101 -94 101c-54 0 -98 -36 -107 -101zM289 579
l-156 177h173l77 -177h-94z" />
    <glyph glyph-name="uni040D" unicode="&#x40d;" horiz-adv-x="759" 
d="M60 0v698h181v-235c0 -73 -5 -171 -8 -243h2l255 478h209v-698h-181v235c0 62 5 186 8 243h-2l-260 -478h-204zM187 908h178l86 -158h-99z" />
    <glyph glyph-name="uni045D" unicode="&#x45d;" horiz-adv-x="673" 
d="M59 0v520h176v-126c0 -80 -4 -130 -8 -190h2l203 316h182v-520h-176v126c0 62 2 125 7 186h-2l-203 -312h-181zM327 579l-156 177h173l77 -177h-94z" />
    <glyph glyph-name="uni2010" unicode="&#x2010;" horiz-adv-x="333" 
d="M303 347v-133h-273v133h273z" />
    <glyph glyph-name="tonos" unicode="&#x384;" horiz-adv-x="604" 
d="M249 755l-89 -180h-83l9 180h163z" />
    <glyph glyph-name="dieresistonos" unicode="&#x385;" 
d="M542 728v-130h-133v130h133zM178 728v-130h-132v130h132zM379 755l-77 -185h-73l17 185h133z" />
    <glyph glyph-name="Alphatonos" unicode="&#x386;" horiz-adv-x="771" 
d="M497 698l270 -698h-204l-52 149h-262l-55 -149h-188l266 698h225zM468 280l-29 94c-16 53 -46 153 -55 190h-2c-9 -37 -40 -137 -58 -190l-32 -94h176zM172 698l-89 -181h-83l9 181h163z" />
    <glyph glyph-name="anoteleia" unicode="&#x387;" horiz-adv-x="306" 
d="M66 358v164h174v-164h-174z" />
    <glyph glyph-name="Epsilontonos" unicode="&#x388;" horiz-adv-x="770" 
d="M232 698h480v-134h-295v-144h277v-134h-277v-151h305v-135h-490v698zM172 698l-89 -181h-83l9 181h163z" />
    <glyph glyph-name="Etatonos" unicode="&#x389;" horiz-adv-x="919" 
d="M859 698v-698h-190v290h-247v-290h-190v698h190v-266h247v266h190zM172 698l-89 -181h-83l9 181h163z" />
    <glyph glyph-name="Iotatonos" unicode="&#x38a;" horiz-adv-x="481" 
d="M421 698v-698h-189v698h189zM172 698l-89 -181h-83l9 181h163z" />
    <glyph glyph-name="Omicrontonos" unicode="&#x38c;" horiz-adv-x="890" 
d="M503 711c207 0 349 -136 349 -360c0 -233 -141 -364 -362 -364c-212 0 -350 133 -350 365c0 229 142 359 363 359zM492 573c-96 0 -158 -83 -158 -228c0 -138 66 -221 162 -221c97 0 161 81 161 220c0 148 -63 229 -165 229zM172 698l-89 -181h-83l9 181h163z" />
    <glyph glyph-name="Upsilontonos" unicode="&#x38e;" horiz-adv-x="923" 
d="M225 698h220l70 -141c23 -47 51 -110 66 -147h2c15 36 43 100 65 147l66 141h206l-250 -443v-255h-190v260zM172 698l-89 -181h-83l9 181h163z" />
    <glyph glyph-name="Omegatonos" unicode="&#x38f;" horiz-adv-x="922" 
d="M888 0h-328v141c68 66 112 150 112 254c0 105 -56 183 -152 183c-94 0 -149 -80 -149 -184s45 -187 113 -253v-141h-328v141h32c50 0 87 0 128 -4l1 2c-88 72 -140 157 -140 274c0 186 149 297 351 297c195 0 339 -117 339 -293c0 -117 -52 -207 -140 -278l1 -2
c41 4 78 4 128 4h32v-141zM172 698l-89 -181h-83l9 181h163z" />
    <glyph glyph-name="iotadieresistonos" unicode="&#x390;" horiz-adv-x="374" 
d="M59 236v284h182v-280c0 -89 15 -119 75 -119c13 0 26 2 41 6l5 -125c-34 -8 -70 -11 -106 -11c-164 0 -197 110 -197 245zM432 728v-130h-133v130h133zM68 728v-130h-132v130h132zM269 755l-77 -185h-73l17 185h133z" />
    <glyph glyph-name="Alpha" unicode="&#x391;" horiz-adv-x="769" 
d="M495 698l270 -698h-204l-52 149h-262l-55 -149h-188l266 698h225zM466 280l-29 94c-16 53 -46 153 -55 190h-2c-9 -37 -40 -137 -58 -190l-32 -94h176z" />
    <glyph glyph-name="Beta" unicode="&#x392;" horiz-adv-x="666" 
d="M60 698h267c158 0 277 -39 277 -178c0 -74 -43 -138 -144 -158v-2c107 -16 165 -78 165 -168c0 -149 -154 -192 -299 -192h-266v698zM244 572v-159h32c99 0 144 22 144 82c0 68 -68 77 -135 77h-41zM244 293v-164h28c114 0 164 25 164 88c0 57 -51 76 -155 76h-37z" />
    <glyph glyph-name="Gamma" unicode="&#x393;" horiz-adv-x="588" 
d="M531 698v-141l-261 2v-559h-191l1 698h451z" />
    <glyph glyph-name="Epsilon" unicode="&#x395;" horiz-adv-x="598" 
d="M60 698h480v-134h-295v-144h277v-134h-277v-151h305v-135h-490v698z" />
    <glyph glyph-name="Zeta" unicode="&#x396;" horiz-adv-x="611" 
d="M573 551c-200 -255 -304 -384 -332 -414h338v-137h-548v152c170 219 305 387 326 411h-317v135h533v-147z" />
    <glyph glyph-name="Eta" unicode="&#x397;" horiz-adv-x="747" 
d="M687 698v-698h-190v290h-247v-290h-190v698h190v-266h247v266h190z" />
    <glyph glyph-name="Theta" unicode="&#x398;" horiz-adv-x="788" 
d="M280 290v142h230v-142h-230zM401 711c207 0 349 -136 349 -360c0 -233 -141 -364 -362 -364c-212 0 -350 133 -350 365c0 229 142 359 363 359zM390 573c-96 0 -158 -83 -158 -228c0 -138 66 -221 162 -221c97 0 161 81 161 220c0 148 -63 229 -165 229z" />
    <glyph glyph-name="Iota" unicode="&#x399;" horiz-adv-x="309" 
d="M249 698v-698h-189v698h189z" />
    <glyph glyph-name="Kappa" unicode="&#x39a;" horiz-adv-x="700" 
d="M248 323v-323h-188v698h188v-294h2c11 18 79 117 109 158l99 136h215l-256 -323l283 -375h-234l-104 151c-26 38 -80 120 -112 172h-2z" />
    <glyph glyph-name="Lambda" unicode="&#x39b;" horiz-adv-x="770" 
d="M563 0l-124 374c-18 53 -46 153 -55 190h-2c-9 -37 -40 -137 -58 -191l-130 -373h-190l268 698h226l268 -698h-203z" />
    <glyph glyph-name="Mu" unicode="&#x39c;" horiz-adv-x="995" 
d="M362 698l65 -218c25 -84 50 -177 73 -265h2c24 88 51 181 77 265l67 218h289v-698h-181v220c0 104 2 240 4 347h-2c-24 -88 -68 -230 -91 -299l-90 -268h-166l-91 270c-11 32 -71 227 -91 297h-2c2 -107 4 -243 4 -347v-220h-169v698h302z" />
    <glyph glyph-name="Nu" unicode="&#x39d;" horiz-adv-x="765" 
d="M538 480v218h167v-698h-234l-123 233c-44 84 -107 219 -126 265h-2c3 -43 5 -206 5 -266v-232h-165v698h237l127 -250c26 -50 98 -202 118 -251h2c-3 52 -6 203 -6 283z" />
    <glyph glyph-name="Xi" unicode="&#x39e;" horiz-adv-x="639" 
d="M35 137h565v-137h-565v137zM595 562h-554v136h554v-136zM519 305h-404v136h404v-136z" />
    <glyph glyph-name="Omicron" unicode="&#x39f;" horiz-adv-x="788" 
d="M401 711c207 0 349 -136 349 -360c0 -233 -141 -364 -362 -364c-212 0 -350 133 -350 365c0 229 142 359 363 359zM390 573c-96 0 -158 -83 -158 -228c0 -138 66 -221 162 -221c97 0 161 81 161 220c0 148 -63 229 -165 229z" />
    <glyph glyph-name="Pi" unicode="&#x3a0;" horiz-adv-x="764" 
d="M695 698v-698h-190v559h-247v-559h-190v698h627z" />
    <glyph glyph-name="Rho" unicode="&#x3a1;" horiz-adv-x="616" 
d="M60 698h240c169 0 302 -47 302 -223c0 -181 -153 -228 -302 -228h-50v-247h-190v698zM250 566v-185h40c60 0 124 18 124 93c0 72 -64 92 -124 92h-40z" />
    <glyph glyph-name="Sigma" unicode="&#x3a3;" horiz-adv-x="630" 
d="M586 563h-327c62 -55 142 -128 206 -195v-10c-44 -51 -144 -153 -213 -221h338v-137h-546v144c81 87 128 134 212 216c-69 62 -142 129 -212 197v141h542v-135z" />
    <glyph glyph-name="Tau" unicode="&#x3a4;" horiz-adv-x="574" 
d="M564 698v-140l-184 3v-561h-190v561l-180 -3v140h554z" />
    <glyph glyph-name="Upsilon" unicode="&#x3a5;" horiz-adv-x="701" 
d="M3 698h220l70 -141c23 -47 51 -110 66 -147h2c15 36 43 100 65 147l66 141h206l-250 -443v-255h-190v260z" />
    <glyph glyph-name="Phi" unicode="&#x3a6;" horiz-adv-x="857" 
d="M624 414c0 101 -46 136 -106 148v-302c66 14 106 63 106 154zM232 414c0 -95 52 -143 112 -154v306c-56 -10 -112 -51 -112 -152zM518 766v-65c166 -14 302 -102 302 -286c0 -163 -116 -270 -302 -289v-126h-174v126c-180 11 -309 116 -309 291s138 270 310 284v65h173z
" />
    <glyph glyph-name="Chi" unicode="&#x3a7;" horiz-adv-x="712" 
d="M27 698h218l51 -93c26 -48 53 -100 70 -139c18 39 47 99 68 138l51 94h203l-204 -329l224 -369h-224l-59 110c-24 43 -57 110 -69 140c-14 -30 -50 -95 -75 -140l-62 -110h-215l229 359z" />
    <glyph glyph-name="Psi" unicode="&#x3a8;" horiz-adv-x="786" 
d="M753 698v-211c0 -169 -92 -265 -269 -288v-199h-180v199c-200 23 -271 131 -271 288v211h190v-201c0 -88 24 -143 81 -151v352h180v-350c57 8 82 66 82 148v202h187z" />
    <glyph glyph-name="Iotadieresis" unicode="&#x3aa;" horiz-adv-x="309" 
d="M249 698v-698h-189v698h189zM112 909v-133h-138v133h138zM336 909v-133h-139v133h139z" />
    <glyph glyph-name="Upsilondieresis" unicode="&#x3ab;" horiz-adv-x="701" 
d="M3 698h220l70 -141c23 -47 51 -110 66 -147h2c15 36 43 100 65 147l66 141h206l-250 -443v-255h-190v260zM313 909v-133h-138v133h138zM537 909v-133h-139v133h139z" />
    <glyph glyph-name="alphatonos" unicode="&#x3ac;" horiz-adv-x="676" 
d="M322 400c-62 0 -104 -59 -104 -138s40 -140 105 -140s108 60 108 139c0 82 -45 139 -109 139zM605 426v-220c0 -68 12 -82 36 -82c4 0 10 1 14 2l6 -128c-19 -5 -47 -9 -71 -9c-76 0 -130 25 -148 104h-2c-31 -70 -94 -106 -170 -106c-146 0 -235 109 -235 273
c0 162 92 273 236 273c79 0 128 -37 155 -91h2c0 23 3 53 6 78h174c-2 -22 -3 -67 -3 -94zM407 755l-89 -180h-83l9 180h163z" />
    <glyph glyph-name="epsilontonos" unicode="&#x3ad;" horiz-adv-x="522" 
d="M313 211c-62 0 -93 -15 -93 -48c0 -35 43 -47 93 -47c56 0 111 10 167 33l7 -128c-55 -24 -113 -34 -187 -34c-122 0 -263 35 -263 162c0 74 41 109 101 129v2c-52 14 -86 49 -86 103c0 99 96 150 248 150c57 0 123 -10 182 -32l-5 -127c-60 25 -113 33 -157 33
c-58 0 -86 -13 -86 -43c0 -25 20 -41 79 -41c26 0 58 1 73 2v-117c-18 2 -46 3 -73 3zM419 755l-89 -180h-83l9 180h163z" />
    <glyph glyph-name="etatonos" unicode="&#x3ae;" horiz-adv-x="670" 
d="M227 430h2c38 58 109 103 183 103c127 0 201 -78 201 -221v-525h-180v460c0 96 -19 142 -83 142c-47 0 -74 -22 -90 -53s-20 -73 -20 -113v-223h-181v351c0 44 -1 99 -5 169h169c2 -22 4 -63 4 -90zM423 755l-89 -180h-83l9 180h163z" />
    <glyph glyph-name="iotatonos" unicode="&#x3af;" horiz-adv-x="374" 
d="M59 236v284h182v-280c0 -89 15 -119 75 -119c13 0 26 2 41 6l5 -125c-34 -8 -70 -11 -106 -11c-164 0 -197 110 -197 245zM279 755l-89 -180h-83l9 180h163z" />
    <glyph glyph-name="upsilondieresistonos" unicode="&#x3b0;" horiz-adv-x="635" 
d="M364 520h174c33 -97 47 -181 47 -265c0 -130 -75 -268 -269 -268c-188 0 -259 96 -259 228v305h182v-268c0 -93 29 -125 78 -125c67 0 90 56 90 132c0 59 -10 152 -43 261zM551 728v-130h-133v130h133zM187 728v-130h-132v130h132zM388 755l-77 -185h-73l17 185h133z" />
    <glyph glyph-name="alpha" unicode="&#x3b1;" horiz-adv-x="676" 
d="M322 400c-62 0 -104 -59 -104 -138s40 -140 105 -140s108 60 108 139c0 82 -45 139 -109 139zM605 426v-220c0 -68 12 -82 36 -82c4 0 10 1 14 2l6 -128c-19 -5 -47 -9 -71 -9c-76 0 -130 25 -148 104h-2c-31 -70 -94 -106 -170 -106c-146 0 -235 109 -235 273
c0 162 92 273 236 273c79 0 128 -37 155 -91h2c0 23 3 53 6 78h174c-2 -22 -3 -67 -3 -94z" />
    <glyph glyph-name="beta" unicode="&#x3b2;" horiz-adv-x="662" 
d="M243 -32v-178h-182v710c0 174 95 260 282 260c163 0 242 -75 242 -193c0 -75 -42 -136 -133 -152v-2c95 -11 174 -77 174 -196c0 -128 -83 -230 -233 -230c-71 0 -125 32 -151 79h-2c1 -21 3 -75 3 -98zM235 480v-206c0 -110 43 -153 110 -153c61 0 97 34 97 99
c0 72 -41 110 -116 110c-9 0 -18 0 -31 -1v125h16c64 0 101 26 101 94c0 47 -22 87 -78 87c-69 0 -99 -48 -99 -155z" />
    <glyph glyph-name="gamma" unicode="&#x3b3;" horiz-adv-x="591" 
d="M379 -139v-73h-179v73c0 146 -67 408 -197 659h186c45 -94 95 -293 103 -398h2c9 109 60 295 109 398h184c-60 -110 -111 -236 -150 -359c-40 -125 -58 -242 -58 -300z" />
    <glyph glyph-name="delta" unicode="&#x3b4;" horiz-adv-x="644" 
d="M127 611c0 88 78 149 204 149c70 0 130 -13 191 -36l-12 -129c-56 23 -118 34 -160 34c-29 0 -46 -8 -46 -29c0 -24 23 -38 83 -66c127 -61 222 -132 222 -274c0 -159 -103 -273 -288 -273c-190 0 -286 117 -286 259c0 138 98 206 188 233c-60 32 -96 73 -96 132z
M423 260c0 85 -52 138 -113 165c-42 -19 -91 -76 -91 -167c0 -86 43 -140 102 -140c64 0 102 57 102 142z" />
    <glyph glyph-name="epsilon" unicode="&#x3b5;" horiz-adv-x="522" 
d="M313 211c-62 0 -93 -15 -93 -48c0 -35 43 -47 93 -47c56 0 111 10 167 33l7 -128c-55 -24 -113 -34 -187 -34c-122 0 -263 35 -263 162c0 74 41 109 101 129v2c-52 14 -86 49 -86 103c0 99 96 150 248 150c57 0 123 -10 182 -32l-5 -127c-60 25 -113 33 -157 33
c-58 0 -86 -13 -86 -43c0 -25 20 -41 79 -41c26 0 58 1 73 2v-117c-18 2 -46 3 -73 3z" />
    <glyph glyph-name="zeta" unicode="&#x3b6;" horiz-adv-x="493" 
d="M311 631v2c-22 -1 -79 -2 -95 -2h-146v125h447v-136c-182 -114 -295 -212 -295 -337c0 -65 40 -99 113 -139c104 -57 144 -102 144 -182c0 -103 -83 -156 -195 -156c-26 0 -60 4 -90 12l3 121c20 -3 38 -5 51 -5c39 0 56 10 56 34c0 17 -12 30 -48 47
c-131 61 -218 123 -218 268c0 109 72 231 273 348z" />
    <glyph glyph-name="eta" unicode="&#x3b7;" horiz-adv-x="670" 
d="M227 430h2c38 58 109 103 183 103c127 0 201 -78 201 -221v-525h-180v460c0 96 -19 142 -83 142c-47 0 -74 -22 -90 -53s-20 -73 -20 -113v-223h-181v351c0 44 -1 99 -5 169h169c2 -22 4 -63 4 -90z" />
    <glyph glyph-name="theta" unicode="&#x3b8;" horiz-adv-x="650" 
d="M326 760c232 0 287 -211 287 -397c0 -166 -55 -376 -287 -376c-214 0 -290 189 -290 376c0 185 67 397 290 397zM326 110c79 0 100 99 105 207h-208c4 -110 29 -207 103 -207zM326 637c-72 0 -100 -95 -103 -211h207c-3 107 -29 211 -104 211z" />
    <glyph glyph-name="iota" unicode="&#x3b9;" horiz-adv-x="374" 
d="M59 236v284h182v-280c0 -89 15 -119 75 -119c13 0 26 2 41 6l5 -125c-34 -8 -70 -11 -106 -11c-164 0 -197 110 -197 245z" />
    <glyph glyph-name="kappa" unicode="&#x3ba;" horiz-adv-x="612" 
d="M398 0l-71 105c-24 36 -60 92 -82 129h-2v-234h-182v520h182v-228h2c21 32 55 81 78 114l80 114h204l-193 -247l207 -273h-223z" />
    <glyph glyph-name="lambda" unicode="&#x3bb;" horiz-adv-x="631" 
d="M403 69c-26 57 -63 173 -82 254h-2c-31 -94 -81 -227 -119 -323h-191l235 491l-13 37c-24 72 -52 99 -96 99c-22 0 -41 -3 -72 -12l-11 129c32 11 79 16 111 16c131 0 185 -56 226 -171l146 -403c17 -46 25 -64 58 -64c10 0 18 2 23 3l6 -126c-28 -6 -62 -9 -87 -9
c-69 0 -108 25 -132 79z" />
    <glyph glyph-name="nu" unicode="&#x3bd;" horiz-adv-x="593" 
d="M410 520h179c-41 -176 -124 -381 -210 -520h-178l-201 520h191l82 -263c10 -33 21 -75 28 -108h2c44 97 88 260 107 371z" />
    <glyph glyph-name="xi" unicode="&#x3be;" horiz-adv-x="513" 
d="M35 246c0 93 63 143 144 170v3c-75 22 -116 68 -116 139c0 135 124 202 278 202c68 0 117 -11 168 -31l-6 -133c-49 22 -103 31 -156 31c-64 0 -106 -28 -106 -71c0 -58 51 -77 152 -77h67v-127h-75c-91 0 -166 -16 -166 -93c0 -58 37 -82 110 -116
c131 -61 162 -105 162 -184c0 -105 -93 -151 -192 -151c-31 0 -60 2 -94 10l3 120c13 -2 33 -4 49 -4c36 0 59 8 59 33c0 19 -12 31 -58 51c-110 47 -223 93 -223 228z" />
    <glyph glyph-name="omicron" unicode="&#x3bf;" horiz-adv-x="668" 
d="M337 533c181 0 298 -107 298 -274c0 -166 -119 -272 -301 -272c-181 0 -300 107 -300 270c0 171 115 276 303 276zM334 410c-66 0 -115 -63 -115 -148c0 -91 48 -152 116 -152s115 60 115 148c0 91 -47 152 -116 152z" />
    <glyph glyph-name="rho" unicode="&#x3c1;" horiz-adv-x="658" 
d="M390 -13c-77 0 -126 40 -153 84h-2c2 -34 3 -72 3 -104v-179h-183v408c0 236 104 337 297 337c183 0 269 -114 269 -265c0 -156 -87 -281 -231 -281zM341 122c58 0 95 57 95 141c0 79 -35 135 -103 135c-53 0 -103 -50 -103 -134c0 -98 56 -142 111 -142z" />
    <glyph glyph-name="sigma1" unicode="&#x3c2;" horiz-adv-x="535" 
d="M505 366c-46 25 -102 37 -153 37c-76 0 -132 -39 -132 -115c0 -63 43 -100 113 -139c124 -70 158 -110 158 -188c0 -106 -92 -156 -191 -156c-28 0 -63 4 -95 13l3 121c18 -3 35 -4 45 -4c35 0 63 7 63 33c0 20 -8 33 -98 78c-81 40 -182 100 -182 239
c0 170 131 248 294 248c78 0 128 -12 185 -36z" />
    <glyph glyph-name="sigma" unicode="&#x3c3;" horiz-adv-x="654" 
d="M628 394c-44 3 -100 2 -146 9v-2c74 -27 119 -82 119 -163c0 -134 -95 -251 -284 -251c-182 0 -282 112 -282 272c0 172 114 261 315 261h278v-126zM347 399c-89 0 -126 -59 -126 -139s39 -142 100 -142c68 0 104 62 104 140c0 82 -30 128 -78 141z" />
    <glyph glyph-name="tau" unicode="&#x3c4;" horiz-adv-x="549" 
d="M12 520h511v-124h-181v-199c0 -59 16 -83 73 -83c19 0 36 2 53 6l6 -115c-36 -9 -75 -13 -110 -13c-139 0 -201 56 -201 190v214h-151v124z" />
    <glyph glyph-name="upsilon" unicode="&#x3c5;" horiz-adv-x="635" 
d="M364 520h174c33 -97 47 -181 47 -265c0 -130 -75 -268 -269 -268c-188 0 -259 96 -259 228v305h182v-268c0 -93 29 -125 78 -125c67 0 90 56 90 132c0 59 -10 152 -43 261z" />
    <glyph glyph-name="phi" unicode="&#x3c6;" horiz-adv-x="811" 
d="M589 263c0 85 -38 142 -103 145v-293c68 5 103 69 103 148zM222 259c0 -78 45 -138 103 -144v293c-56 -4 -103 -62 -103 -149zM325 662h161v-129c135 -5 289 -81 289 -271c0 -200 -156 -262 -289 -271v-203h-161v202c-129 8 -290 73 -290 273c0 185 155 264 290 270v129z
" />
    <glyph glyph-name="chi" unicode="&#x3c7;" horiz-adv-x="599" 
d="M311 267c12 39 33 98 43 123l49 130h192l-177 -355l195 -377h-210l-56 136c-13 30 -39 97 -48 126c-10 -29 -34 -94 -48 -126l-58 -136h-203l201 377l-184 355h211l50 -130c10 -25 31 -84 43 -123z" />
    <glyph glyph-name="psi" unicode="&#x3c8;" horiz-adv-x="800" 
d="M483 662v-548c74 9 97 74 97 149c0 65 -15 163 -41 257h173c33 -87 46 -186 46 -254c-1 -172 -93 -263 -275 -277v-201h-160v202c-160 13 -266 70 -266 244v286h182v-268c0 -94 34 -127 84 -137v547h160z" />
    <glyph glyph-name="omega" unicode="&#x3c9;" horiz-adv-x="847" 
d="M540 520h190c56 -74 76 -179 76 -256c0 -140 -60 -277 -233 -277c-72 0 -129 42 -150 111h-2c-24 -70 -72 -111 -153 -111c-170 0 -227 140 -227 275c0 78 20 184 76 258h193c-64 -74 -91 -188 -91 -262s16 -138 68 -138c30 0 55 26 55 91v175h164v-176
c0 -72 25 -90 53 -90c53 0 69 62 69 138c0 77 -30 190 -88 262z" />
    <glyph glyph-name="iotadieresis" unicode="&#x3ca;" horiz-adv-x="374" 
d="M59 236v284h182v-280c0 -89 15 -119 75 -119c13 0 26 2 41 6l5 -125c-34 -8 -70 -11 -106 -11c-164 0 -197 110 -197 245zM117 730v-134h-138v134h138zM341 730v-134h-139v134h139z" />
    <glyph glyph-name="upsilondieresis" unicode="&#x3cb;" horiz-adv-x="635" 
d="M364 520h174c33 -97 47 -181 47 -265c0 -130 -75 -268 -269 -268c-188 0 -259 96 -259 228v305h182v-268c0 -93 29 -125 78 -125c67 0 90 56 90 132c0 59 -10 152 -43 261zM257 730v-134h-138v134h138zM481 730v-134h-139v134h139z" />
    <glyph glyph-name="omicrontonos" unicode="&#x3cc;" horiz-adv-x="668" 
d="M337 533c181 0 298 -107 298 -274c0 -166 -119 -272 -301 -272c-181 0 -300 107 -300 270c0 171 115 276 303 276zM334 410c-66 0 -115 -63 -115 -148c0 -91 48 -152 116 -152s115 60 115 148c0 91 -47 152 -116 152zM459 755l-89 -180h-83l9 180h163z" />
    <glyph glyph-name="upsilontonos" unicode="&#x3cd;" horiz-adv-x="635" 
d="M364 520h174c33 -97 47 -181 47 -265c0 -130 -75 -268 -269 -268c-188 0 -259 96 -259 228v305h182v-268c0 -93 29 -125 78 -125c67 0 90 56 90 132c0 59 -10 152 -43 261zM429 755l-89 -180h-83l9 180h163z" />
    <glyph glyph-name="omegatonos" unicode="&#x3ce;" horiz-adv-x="847" 
d="M540 520h190c56 -74 76 -179 76 -256c0 -140 -60 -277 -233 -277c-72 0 -129 42 -150 111h-2c-24 -70 -72 -111 -153 -111c-170 0 -227 140 -227 275c0 78 20 184 76 258h193c-64 -74 -91 -188 -91 -262s16 -138 68 -138c30 0 55 26 55 91v175h164v-176
c0 -72 25 -90 53 -90c53 0 69 62 69 138c0 77 -30 190 -88 262zM549 755l-89 -180h-83l9 180h163z" />
    <glyph glyph-name="tonos.cap" horiz-adv-x="290" 
d="M230 698l-89 -181h-83l9 181h163z" />
    <glyph glyph-name="afii00208" unicode="&#x2015;" horiz-adv-x="1000" 
d="M880 347v-133h-760v133h760z" />
    <glyph glyph-name="uni037E" unicode="&#x37e;" horiz-adv-x="306" 
d="M238 520v-170h-170v170h170zM257 158l-100 -269h-138l66 269h172z" />
    <glyph glyph-name="uni0374" unicode="&#x374;" horiz-adv-x="322" 
d="M45 479l65 255h167l-99 -255h-133z" />
    <glyph glyph-name="uni0375" unicode="&#x375;" horiz-adv-x="322" 
d="M45 -132l65 255h167l-99 -255h-133z" />
    <glyph glyph-name="germandbls.alt01" horiz-adv-x="685" 
d="M433 507c5 16 6 30 6 49c0 44 -32 77 -88 77c-70 0 -112 -42 -112 -145v-488h-179v514c0 173 136 246 301 246c149 0 250 -71 250 -212c0 -37 -5 -79 -14 -113c-97 -3 -132 -21 -132 -50c0 -22 10 -33 71 -62c76 -36 121 -75 121 -160c0 -122 -102 -176 -225 -176
c-41 0 -87 5 -135 18l8 127c37 -14 75 -21 115 -21c46 0 72 16 72 47c0 28 -19 46 -80 75c-73 35 -106 65 -106 136c0 74 55 121 127 138z" />
    <glyph glyph-name="ampersand.alt01" horiz-adv-x="717" 
d="M408 425h294v-130h-82v-59c0 -186 -123 -249 -293 -249c-132 0 -279 50 -279 185c0 115 91 163 181 179v2c-93 17 -159 68 -159 155c0 138 147 200 283 200c56 0 105 -4 155 -20l-13 -129c-37 15 -81 21 -125 21c-69 0 -115 -29 -115 -78c0 -63 72 -77 153 -77zM462 295
h-74c-93 0 -159 -31 -159 -93c0 -56 50 -83 118 -83c78 0 115 37 115 121v55z" />
    <glyph glyph-name="Euro.prop" horiz-adv-x="621" 
d="M575 698l-20 -136c-30 7 -57 10 -85 10c-75 0 -139 -32 -169 -98h226l-13 -90h-229c-2 -8 -3 -19 -3 -30c0 -10 1 -21 3 -29h221l-13 -90h-191c29 -63 98 -101 182 -101c25 0 50 1 76 9l6 -142c-27 -5 -69 -8 -100 -8c-189 0 -312 106 -342 242h-75l11 90h51
c-1 9 -1 19 -1 29c0 11 0 19 1 30h-62l11 90h66c41 136 160 233 339 233c40 0 85 -3 110 -9z" />
    <glyph glyph-name="cent.prop" horiz-adv-x="555" 
d="M495 505l-12 -132c-24 11 -47 17 -72 20l-81 -262c18 -5 37 -7 59 -7c35 0 71 6 105 21l6 -132c-50 -16 -93 -22 -150 -22c-22 0 -43 2 -63 5l-38 -123h-65l42 136c-111 36 -174 126 -174 254c0 161 115 265 292 265c14 0 29 -1 44 -2l39 125h65l-42 -133
c17 -3 31 -8 45 -13zM236 259c0 -43 13 -75 38 -98l72 231c-66 -12 -110 -57 -110 -133z" />
    <glyph glyph-name="sterling.prop" horiz-adv-x="612" 
d="M546 697l-14 -142c-18 7 -50 14 -80 14c-76 0 -122 -43 -122 -129v-21h141v-103h-141v-182h204v-134h-471v134h82v182h-64v103h64v26c0 154 92 266 280 266c46 0 86 -5 121 -14z" />
    <glyph glyph-name="yen.prop" horiz-adv-x="632" 
d="M197 698l58 -142c18 -45 51 -131 64 -165h2c14 37 47 121 65 165l60 142h174l-150 -294h98v-93h-145l-18 -32v-27h163v-93h-163v-159h-180v159h-162v93h162v27l-18 32h-144v93h104l-155 294h185z" />
    <glyph glyph-name="dollar.prop" horiz-adv-x="612" 
d="M524 680l-16 -127c-61 21 -121 29 -169 30v-155c162 -45 228 -102 228 -211c0 -126 -90 -203 -236 -219v-91h-60v87h-5c-76 0 -144 10 -211 30l18 134c68 -25 142 -38 198 -38v168l-35 10c-142 40 -190 100 -190 198c0 127 98 193 233 206v87h60v-84
c67 -1 125 -8 185 -25zM402 198c0 33 -17 52 -71 71v-145c46 9 71 36 71 74zM209 514c0 -27 10 -49 70 -68v134c-43 -7 -70 -32 -70 -66z" />
    <glyph glyph-name="zero.prop" horiz-adv-x="637" 
d="M327 714c178 0 266 -114 266 -354c0 -259 -86 -375 -271 -375c-186 0 -278 112 -278 349c0 270 85 380 283 380zM319 589c-62 0 -96 -75 -96 -229c0 -168 34 -250 96 -250c60 0 95 82 95 237c0 165 -32 242 -95 242z" />
    <glyph glyph-name="one.prop" horiz-adv-x="527" 
d="M412 698v-698h-184v330c0 59 2 157 4 194h-2c-17 -16 -60 -51 -98 -78l-36 -26l-82 122l234 156h164z" />
    <glyph glyph-name="two.prop" horiz-adv-x="593" 
d="M70 526l-17 143c58 26 145 42 227 42c125 0 253 -56 253 -209c0 -88 -33 -165 -155 -271c-61 -53 -95 -76 -124 -96v-2c65 2 138 3 205 3h88v-136h-505v132c213 162 301 251 301 348c0 69 -50 91 -110 91c-53 0 -107 -14 -163 -45z" />
    <glyph glyph-name="three.prop" horiz-adv-x="586" 
d="M193 294c-9 0 -28 -1 -41 -2v128c12 -1 26 -2 41 -2c105 0 158 20 158 78c0 51 -44 82 -123 82c-59 0 -125 -14 -163 -33l-13 136c63 22 143 30 210 30c168 0 268 -70 268 -182c0 -95 -56 -146 -154 -163v-2c105 -16 166 -77 166 -168c0 -133 -142 -209 -320 -209
c-61 0 -123 6 -187 24l8 145c58 -21 115 -32 169 -32c86 0 147 23 147 86c0 66 -65 84 -166 84z" />
    <glyph glyph-name="four.prop" horiz-adv-x="631" 
d="M508 698v-435h97v-129h-97v-134h-171v134h-317v141l286 423h202zM342 263v41c0 59 1 166 5 251h-2c-37 -68 -101 -170 -119 -198l-62 -94h178z" />
    <glyph glyph-name="five.prop" horiz-adv-x="581" 
d="M508 698v-129h-287l-2 -117c30 5 44 6 73 6c142 0 245 -79 245 -213c0 -155 -121 -258 -311 -258c-58 0 -118 6 -179 21l9 144c48 -17 104 -26 150 -26c95 0 151 36 151 108s-62 101 -161 101c-44 0 -89 -7 -134 -19l4 382h442z" />
    <glyph glyph-name="six.prop" horiz-adv-x="623" 
d="M543 691l-18 -137c-44 17 -89 26 -135 26c-115 0 -177 -65 -180 -188h2c34 42 101 70 162 70c134 0 219 -87 219 -225c0 -145 -93 -250 -268 -250c-184 0 -289 122 -289 337c0 244 124 387 347 387c63 0 110 -7 160 -20zM321 337c-53 0 -103 -47 -103 -106
c0 -65 44 -116 101 -116c69 0 100 54 100 112c0 67 -31 110 -98 110z" />
    <glyph glyph-name="seven.prop" horiz-adv-x="585" 
d="M549 698v-145l-250 -553h-199l265 561h-336v137h520z" />
    <glyph glyph-name="eight.prop" horiz-adv-x="618" 
d="M445 373c106 -41 143 -90 143 -180c0 -131 -119 -206 -280 -206c-163 0 -278 75 -278 197c0 81 48 140 147 177c-99 38 -129 91 -129 166c0 114 109 184 263 184c146 0 255 -62 255 -170c0 -76 -31 -125 -121 -168zM317 417c57 23 81 57 81 99c0 51 -36 77 -91 77
c-54 0 -93 -29 -93 -75c0 -51 37 -78 103 -101zM299 305c-57 -22 -90 -53 -90 -106c0 -56 42 -91 102 -91c59 0 101 37 101 88c0 53 -28 83 -113 109z" />
    <glyph glyph-name="nine.prop" horiz-adv-x="617" 
d="M62 12l17 138c43 -19 97 -31 143 -31c133 0 182 78 185 201h-2c-38 -50 -95 -76 -158 -76c-124 0 -217 75 -217 221c0 145 105 246 272 246c184 0 279 -122 279 -337c0 -252 -128 -387 -347 -387c-64 0 -126 10 -172 25zM302 371c53 0 97 43 97 102c0 65 -38 116 -95 116
c-69 0 -96 -56 -96 -114c0 -67 37 -104 94 -104z" />
    <glyph glyph-name="onethird" unicode="&#x2153;" horiz-adv-x="900" 
d="M285 700v-419h-125v185c0 33 2 93 3 116h-2c-10 -8 -41 -32 -64 -47l-21 -15l-57 83l155 97h111zM691 735l-382 -757h-104l383 757h103zM649 169c-9 0 -19 -1 -27 -2v88c11 -1 18 -1 27 -1c60 0 87 9 87 39c0 25 -24 44 -71 44c-38 0 -80 -11 -98 -20l-11 92
c41 13 92 18 134 18c106 0 166 -42 166 -110c0 -57 -29 -87 -87 -97v-2c63 -11 96 -46 96 -98c0 -82 -94 -127 -204 -127c-36 0 -74 3 -112 14l5 97c33 -13 69 -20 99 -20c52 0 85 11 85 44s-36 41 -89 41z" />
    <glyph glyph-name="twothirds" unicode="&#x2154;" horiz-adv-x="900" 
d="M46 587l-12 95c34 16 92 26 143 26c73 0 157 -31 157 -129c0 -53 -16 -98 -82 -156c-38 -33 -53 -41 -71 -51v-2c41 2 81 3 123 3h38v-92h-313v84c123 89 176 141 176 199c0 38 -28 50 -61 50c-32 0 -67 -11 -98 -27zM691 735l-382 -757h-104l383 757h103zM649 169
c-9 0 -19 -1 -27 -2v88c11 -1 18 -1 27 -1c60 0 87 9 87 39c0 25 -24 44 -71 44c-38 0 -80 -11 -98 -20l-11 92c41 13 92 18 134 18c106 0 166 -42 166 -110c0 -57 -29 -87 -87 -97v-2c63 -11 96 -46 96 -98c0 -82 -94 -127 -204 -127c-36 0 -74 3 -112 14l5 97
c33 -13 69 -20 99 -20c52 0 85 11 85 44s-36 41 -89 41z" />
    <glyph glyph-name="oneeighth" unicode="&#x215b;" horiz-adv-x="900" 
d="M285 700v-419h-125v185c0 33 2 93 3 116h-2c-10 -8 -41 -32 -64 -47l-21 -15l-57 83l155 97h111zM691 735l-382 -757h-104l383 757h103zM800 224c62 -25 81 -54 81 -108c0 -79 -71 -124 -173 -124c-101 0 -174 45 -174 118c0 49 29 84 88 105c-60 21 -77 54 -77 99
c0 71 70 114 165 114c91 0 158 -39 158 -103c0 -46 -16 -75 -68 -101zM714 252c31 12 41 32 41 56c0 25 -17 40 -47 40c-31 0 -51 -18 -51 -40c0 -28 19 -44 57 -56zM703 178c-27 -11 -46 -27 -46 -57c0 -28 22 -48 53 -48c32 0 53 21 53 48c0 26 -11 41 -60 57z" />
    <glyph glyph-name="threeeighths" unicode="&#x215c;" horiz-adv-x="900" 
d="M129 450c-9 0 -19 -1 -27 -2v88c11 -1 18 -1 27 -1c60 0 87 9 87 39c0 25 -24 44 -71 44c-38 0 -80 -11 -98 -20l-11 92c41 13 92 18 134 18c106 0 166 -42 166 -110c0 -57 -29 -87 -87 -97v-2c63 -11 96 -46 96 -98c0 -82 -94 -127 -204 -127c-36 0 -74 3 -112 14l5 97
c33 -13 69 -20 99 -20c52 0 85 11 85 44s-36 41 -89 41zM691 735l-382 -757h-104l383 757h103zM800 224c62 -25 81 -54 81 -108c0 -79 -71 -124 -173 -124c-101 0 -174 45 -174 118c0 49 29 84 88 105c-60 21 -77 54 -77 99c0 71 70 114 165 114c91 0 158 -39 158 -103
c0 -46 -16 -75 -68 -101zM714 252c31 12 41 32 41 56c0 25 -17 40 -47 40c-31 0 -51 -18 -51 -40c0 -28 19 -44 57 -56zM703 178c-27 -11 -46 -27 -46 -57c0 -28 22 -48 53 -48c32 0 53 21 53 48c0 26 -11 41 -60 57z" />
    <glyph glyph-name="fiveeighths" unicode="&#x215d;" horiz-adv-x="900" 
d="M323 700v-88h-169l-1 -54c13 2 26 3 44 3c90 0 147 -53 147 -134c0 -96 -73 -153 -192 -153c-38 0 -71 3 -109 12v98c25 -11 56 -17 93 -17c55 0 85 16 85 54c0 37 -31 56 -95 56c-25 0 -52 -4 -79 -9l1 232h275zM691 735l-382 -757h-104l383 757h103zM800 224
c62 -25 81 -54 81 -108c0 -79 -71 -124 -173 -124c-101 0 -174 45 -174 118c0 49 29 84 88 105c-60 21 -77 54 -77 99c0 71 70 114 165 114c91 0 158 -39 158 -103c0 -46 -16 -75 -68 -101zM714 252c31 12 41 32 41 56c0 25 -17 40 -47 40c-31 0 -51 -18 -51 -40
c0 -28 19 -44 57 -56zM703 178c-27 -11 -46 -27 -46 -57c0 -28 22 -48 53 -48c32 0 53 21 53 48c0 26 -11 41 -60 57z" />
    <glyph glyph-name="seveneighths" unicode="&#x215e;" horiz-adv-x="900" 
d="M344 700v-99l-147 -320h-135l157 327h-202v92h327zM691 735l-382 -757h-104l383 757h103zM800 224c62 -25 81 -54 81 -108c0 -79 -71 -124 -173 -124c-101 0 -174 45 -174 118c0 49 29 84 88 105c-60 21 -77 54 -77 99c0 71 70 114 165 114c91 0 158 -39 158 -103
c0 -46 -16 -75 -68 -101zM714 252c31 12 41 32 41 56c0 25 -17 40 -47 40c-31 0 -51 -18 -51 -40c0 -28 19 -44 57 -56zM703 178c-27 -11 -46 -27 -46 -57c0 -28 22 -48 53 -48c32 0 53 21 53 48c0 26 -11 41 -60 57z" />
    <glyph glyph-name="arrowleft" unicode="&#x2190;" horiz-adv-x="750" 
d="M234 535h220l-186 -169l416 18v-169l-416 17l186 -166h-220l-234 234z" />
    <glyph glyph-name="arrowup" unicode="&#x2191;" horiz-adv-x="750" 
d="M141 188v220l235 234l234 -234v-220l-166 186l17 -416h-169l18 416z" />
    <glyph glyph-name="arrowright" unicode="&#x2192;" horiz-adv-x="750" 
d="M296 535h220l234 -235l-234 -234h-220l186 166l-416 -17v169l416 -18z" />
    <glyph glyph-name="arrowdown" unicode="&#x2193;" horiz-adv-x="750" 
d="M609 406v-220l-235 -234l-234 234v220l166 -186l-17 416h169l-18 -416z" />
    <glyph glyph-name="arrowboth" unicode="&#x2194;" horiz-adv-x="1098" 
d="M864 66h-220l180 163v2c-37 -2 -169 -6 -276 -6c-106 0 -227 4 -274 6v-2l180 -163h-220l-234 234l234 235h220l-180 -164v-2c47 2 168 6 274 6c107 0 239 -4 276 -6v2l-180 164h220l234 -235z" />
    <glyph glyph-name="arrowupdn" unicode="&#x2195;" horiz-adv-x="750" 
d="M140 15v220l163 -180h2c-2 37 -6 169 -6 276c0 106 4 227 6 274h-2l-163 -180v220l234 234l235 -234v-220l-164 180h-2c2 -47 6 -168 6 -274c0 -107 -4 -239 -6 -276h2l164 180v-220l-235 -234z" />
    <glyph glyph-name="arrowupleft" unicode="&#x2196;" horiz-adv-x="750" 
d="M445 572l155 -155l-251 12l307 -281l-119 -120l-282 306l14 -249l-156 156v331h332z" />
    <glyph glyph-name="arrowupright" unicode="&#x2197;" horiz-adv-x="750" 
d="M150 417l155 155h332v-331l-156 -156l14 249l-282 -306l-119 120l307 281z" />
    <glyph glyph-name="arrowdownright" unicode="&#x2198;" horiz-adv-x="750" 
d="M481 539l155 -155v-332h-331l-156 156l249 -14l-306 282l120 119l281 -307z" />
    <glyph glyph-name="arrowdownleft" unicode="&#x2199;" horiz-adv-x="750" 
d="M112 384l155 155l-12 -251l281 307l120 -119l-306 -282l249 14l-156 -156h-331v332z" />
    <glyph glyph-name="cyrBreve" 
d="M248 749c-104 0 -160 65 -180 133l68 41c19 -38 48 -74 112 -74s94 38 114 74l69 -41c-22 -65 -82 -133 -183 -133z" />
    <glyph glyph-name="cyrbreve" 
d="M249 579c-100 0 -153 65 -173 127l65 37c18 -35 46 -71 108 -71s91 38 110 71l65 -37c-20 -61 -76 -127 -175 -127z" />
    </font>
</defs>
</svg>
