<?xml version="1.0" standalone="no"?>
<!DOCTYPE svg PUBLIC "-//W3C//DTD SVG 1.1//EN" "http://www.w3.org/Graphics/SVG/1.1/DTD/svg11.dtd" >
<svg xmlns="http://www.w3.org/2000/svg">
<metadata>Generated by IcoMoon</metadata>
<defs>
<font id="crypto_icons" horiz-adv-x="1024">
<font-face units-per-em="1024" ascent="960" descent="-64" />
<missing-glyph horiz-adv-x="1024" />
<glyph unicode="&#x20;" horiz-adv-x="512" d="" />
<glyph unicode="&#xe900;" glyph-name="close" d="M512 574.529l316.325 316.325 126.529-126.529-316.325-316.325 316.325-316.325-126.529-126.529-316.325 316.325-316.325-316.325-126.529 126.529 316.325 316.325-316.325 316.325 126.529 126.529 316.325-316.325z" />
<glyph unicode="&#xe901;" glyph-name="fb" d="M585.79 0.684v447.369h132.333l17.536 154.165h-149.872l0.225 77.162c0 40.21 4.094 61.753 65.98 61.753h82.73v154.183h-132.353c-158.976 0-214.932-74.787-214.932-200.556v-92.56h-99.096v-154.165h99.096v-447.351h198.35z" />
<glyph unicode="&#xe902;" glyph-name="search" d="M935.35 24.651c-32.87-32.868-86.144-32.868-119.014 0l-148.51 148.51c-61.054-39.168-133.228-62.504-211.154-62.504-216.852 0-392.672 175.794-392.672 392.672s175.82 392.67 392.672 392.67c216.88 0 392.672-175.791 392.672-392.67 0-77.9-23.366-150.1-62.506-211.183l148.512-148.51c32.866-32.868 32.866-86.116 0-118.984zM456.672 783.809c-154.894 0-280.48-125.558-280.48-280.478s125.586-280.48 280.48-280.48c154.92 0 280.48 125.559 280.48 280.48s-125.559 280.478-280.48 280.478z" />
<glyph unicode="&#xe903;" glyph-name="tg" d="M811.175 129.244l130.73 615.386c6.376 25.508 3.188 44.639-9.565 57.394s-25.508 12.755-44.639 6.376l-768.435-296.532c-15.944-6.376-28.696-12.755-35.075-22.32s-6.376-15.944-3.188-22.32c3.188-6.376 12.755-12.755 28.696-15.944l197.689-60.583 455.959 286.968c12.755 9.565 22.32 9.565 28.696 6.376 3.188-3.188 3.188-6.376-3.188-12.755l-369.87-337.983-15.944-204.065c12.755 0 25.508 6.376 41.451 19.132l95.655 92.467 197.689-146.673c41.451-22.32 63.771-9.565 73.335 35.075z" />
<glyph unicode="&#xe904;" glyph-name="triangle" d="M177.257 833.747h669.499c69.295 0 125.471-56.174 125.471-125.471 0-24.066-6.921-47.623-19.938-67.865l-334.751-520.54c-37.481-58.283-115.113-75.147-173.396-37.664-15.107 9.714-27.951 22.561-37.664 37.664l-334.751 520.54c-37.481 58.283-20.618 135.915 37.664 173.396 20.242 13.017 43.801 19.938 67.865 19.938z" />
<glyph unicode="&#xe905;" glyph-name="tw" d="M498.423 629.7l2.037-33.588-33.948 4.113c-123.572 15.766-231.525 69.23-323.186 159.025l-44.812 44.555-11.543-32.901c-24.443-73.343-8.827-150.799 42.097-202.895 27.159-28.788 21.047-32.901-25.802-15.766-16.295 5.483-30.554 9.596-31.911 7.541-4.752-4.799 11.543-67.176 24.443-91.851 17.653-34.272 53.637-67.86 93.019-87.739l33.269-15.766-39.379-0.686c-38.021 0-39.379-0.686-35.305-15.080 13.58-44.555 67.217-91.851 126.966-112.414l42.097-14.396-36.663-21.934c-54.316-31.53-118.139-49.352-181.961-50.723-30.554-0.686-55.674-3.428-55.674-5.483 0-6.854 82.833-45.239 131.039-60.321 144.619-44.555 316.395-25.363 445.398 50.723 91.661 54.151 183.319 161.767 226.094 265.956 23.084 55.522 46.17 156.969 46.17 205.636 0 31.53 2.037 35.643 40.058 73.343 22.405 21.934 43.455 45.926 47.528 52.78 6.789 13.025 6.11 13.025-28.517 1.371-57.712-20.563-65.859-17.821-37.342 13.025 21.047 21.934 46.17 61.692 46.17 73.343 0 2.057-10.186-1.371-21.726-7.541-12.222-6.854-39.379-17.137-59.75-23.305l-36.663-11.654-33.269 22.621c-18.332 12.338-44.133 26.047-57.712 30.159-34.627 9.596-87.585 8.225-118.817-2.742-84.87-30.846-138.508-110.359-132.397-197.411z" />
<glyph unicode="&#xe906;" glyph-name="eye" d="M971.092 454.35c-0.288 1.209-0.115 2.505-0.576 3.686-0.173 0.49-0.605 0.749-0.778 1.209-0.288 0.691-0.23 1.469-0.605 2.131-83.513 159.855-265.312 274.384-457.104 274.384-191.821 0-373.591-114.355-457.162-274.182-0.374-0.662-0.317-1.44-0.605-2.131-0.202-0.461-0.605-0.72-0.778-1.209-0.461-1.181-0.288-2.477-0.576-3.686-0.518-2.16-1.008-4.233-1.008-6.451s0.518-4.262 1.008-6.451c0.288-1.209 0.115-2.505 0.576-3.686 0.173-0.49 0.605-0.749 0.778-1.209 0.288-0.691 0.23-1.469 0.605-2.131 83.542-159.855 265.341-274.384 457.162-274.384 191.792 0 373.591 114.355 457.104 274.182 0.403 0.662 0.346 1.44 0.605 2.131 0.173 0.461 0.605 0.72 0.778 1.209 0.461 1.181 0.288 2.477 0.576 3.686 0.49 2.189 1.008 4.262 1.008 6.451s-0.518 4.291-1.008 6.451zM512 217.864c-161.699 0-319.999 91.893-398.876 230.237 79.309 138.516 237.379 230.093 398.876 230.093 161.641 0 319.97-91.922 398.847-230.237-79.309-138.545-237.35-230.093-398.847-230.093zM512 563.118c7.948 0 14.341-6.422 14.341-14.399 0-7.919-6.422-14.37-14.341-14.37v-0.029c-47.631 0-86.364-38.733-86.364-86.306 0-7.948-6.451-14.399-14.37-14.399-7.948 0-14.399 6.451-14.399 14.399 0 63.499 51.461 114.96 114.96 115.075 0.058 0 0.115 0.029 0.173 0.029zM511.338 649.482c-111.36 0-201.583-90.252-201.583-201.583s90.252-201.583 201.583-201.583c111.303 0 201.583 90.28 201.583 201.583 0 111.36-90.28 201.583-201.583 201.583zM511.338 275.113c-95.291 0-172.786 77.494-172.786 172.786s77.494 172.786 172.786 172.786c95.291 0 172.786-77.494 172.786-172.786s-77.494-172.786-172.786-172.786z" />
<glyph unicode="&#xe907;" glyph-name="share-alt" d="M768 374.857c101.143 0 182.857-81.714 182.857-182.857s-81.714-182.857-182.857-182.857-182.857 81.714-182.857 182.857c0 6.286 0.571 13.143 1.143 19.429l-205.714 102.857c-32.571-30.286-76.571-49.143-124.571-49.143-101.143 0-182.857 81.714-182.857 182.857s81.714 182.857 182.857 182.857c48 0 92-18.857 124.571-49.143l205.714 102.857c-0.571 6.286-1.143 13.143-1.143 19.429 0 101.143 81.714 182.857 182.857 182.857s182.857-81.714 182.857-182.857-81.714-182.857-182.857-182.857c-48 0-92 18.857-124.571 49.143l-205.714-102.857c0.571-6.286 1.143-13.143 1.143-19.429s-0.571-13.143-1.143-19.429l205.714-102.857c32.571 30.286 76.571 49.143 124.571 49.143z" />
<glyph unicode="&#xe908;" glyph-name="crypto" d="M180.277 459.027c-13.485-8.503-24.652-16.726-32.693-23.863 2.743-2.431 5.915-5.049 9.479-7.797 19.696-15.182 47.869-31.776 80.645-46.897 81.707-37.696 177.981-60.822 274.295-60.822s192.588 23.129 274.295 60.822c32.776 15.121 60.952 31.716 80.645 46.897 3.564 2.745 6.736 5.363 9.479 7.797-8.041 7.14-19.209 15.36-32.693 23.863-32.285 20.359-73.471 39.824-118.833 55.366-42.281-41.893-123.159-66.396-212.892-66.396s-170.611 24.5-212.892 66.396c-45.362-15.542-86.548-35.006-118.833-55.366zM884.582 443.254c0.106 0.124 0.21 0.248 0.313 0.368 0.022 0.028-0.083-0.096-0.313-0.368zM346.759 577.429c14.426-26.923 83.252-52.417 165.244-52.417s150.818 25.497 165.244 52.417l14.872 27.751 30.151-9.063c128.613-38.659 238.961-108.251 238.961-160.953 0-80.853-242.065-192.529-449.231-192.529s-449.231 111.676-449.231 192.529c0 52.699 110.352 122.293 238.961 160.953l30.151 9.063 14.872-27.751zM512.003 448c-132.128 0-243.869 52.38-243.869 134.769 0 87.624 123.624 198.945 243.869 198.945s243.869-111.322 243.869-198.945c0-82.389-111.741-134.769-243.869-134.769zM512.003 525.009c94.71 0 166.857 33.819 166.857 57.757 0 14.361-18.417 45.436-47.41 71.542-34.977 31.495-77.619 50.391-119.448 50.391s-84.471-18.897-119.448-50.391c-28.992-26.105-47.41-57.181-47.41-71.542 0-23.937 72.147-57.757 166.857-57.757zM315.411 186.911c-9.511-19.021-32.64-26.73-51.661-17.219s-26.73 32.64-17.219 51.661l51.34 102.681c9.511 19.021 32.64 26.73 51.661 17.219s26.73-32.64 17.219-51.661l-51.34-102.681zM555.644 152.79c0-21.265-17.239-38.505-38.505-38.505s-38.505 17.239-38.505 38.505v102.681c0 21.265 17.239 38.505 38.505 38.505s38.505-17.239 38.505-38.505v-102.681zM708.595 186.911l-51.34 102.681c-9.511 19.021-1.802 42.151 17.219 51.661s42.151 1.802 51.661-17.219l51.34-102.681c9.511-19.021 1.802-42.151-17.219-51.661s-42.151-1.802-51.661 17.219z" />
<glyph unicode="&#xe909;" glyph-name="splash" d="M435.389 463.165l-196.6-313.724c-13.408-21.392-41.619-27.869-63.011-14.461s-27.869 41.619-14.461 63.011l245.481 391.728c20.063 32.019 68.103 27.252 81.489-8.082l76.214-201.243 205.243 364.326c12.391 21.998 40.27 29.782 62.268 17.391s29.782-40.27 17.391-62.268l-253.211-449.474c-19.032-33.788-68.843-30.019-82.58 6.248l-78.223 206.545zM208.945 715.768c13.232 21.501 41.391 28.202 62.892 14.969s28.202-41.391 14.969-62.892l-107.73-175.030c-13.232-21.501-41.391-28.202-62.892-14.969s-28.202 41.391-14.969 62.892l107.73 175.030zM844.264 408.464c12.623 21.862 40.582 29.352 62.449 16.729s29.352-40.582 16.729-62.449l-104.753-181.412c-12.623-21.862-40.582-29.352-62.449-16.729s-29.352 40.582-16.729 62.449l104.753 181.412z" />
<glyph unicode="&#xe90a;" glyph-name="say" d="M416.169-30.115c-30.801-25.669-77.562-3.768-77.562 36.329v141.866h-141.866c-60.936 0-110.338 49.402-110.338 110.338v504.413c0 60.936 49.402 110.338 110.338 110.338h630.518c60.936 0 110.338-49.402 110.338-110.338v-504.413c0-60.936-49.402-110.338-110.338-110.338h-197.254l-213.83-178.195zM582.608 231.691c8.499 7.084 19.213 10.959 30.273 10.959h214.373c8.703 0 15.761 7.057 15.761 15.761v504.413c0 8.703-7.057 15.761-15.761 15.761h-630.518c-8.703 0-15.761-7.057-15.761-15.761v-504.413c0-8.703 7.057-15.761 15.761-15.761h189.154c26.116 0 47.289-21.172 47.289-47.289v-88.191l149.423 124.52zM385.896 620.965c60.936 0 110.338-49.402 110.338-110.338s-49.402-110.338-110.338-110.338c-60.936 0-110.338 49.402-110.338 110.338s49.402 110.338 110.338 110.338zM638.106 620.965c60.936 0 110.338-49.402 110.338-110.338s-49.402-110.338-110.338-110.338c-60.936 0-110.338 49.402-110.338 110.338s49.402 110.338 110.338 110.338z" />
<glyph unicode="&#xe90b;" glyph-name="shark" d="M259.999 323.046c4.357 8.519 9.28 20.426 13.835 34.079 12.205 36.588 19.66 78.398 19.66 120.976 0 101.029-15.31 177.174-65.135 280.579-26.067 54.099-7.178 123.281 60.092 123.281 71.43 0 201.355-84.487 277.991-160.944 156.119-155.754 243.004-285.69 243.818-451.958 0.107-21.736-15.865-40.205-37.386-43.234-8.298-1.168-16.519-1.626-25.318-1.626-32.274 0-66.841 8.941-96.273 26.929-29.432-17.983-63.999-26.929-96.273-26.929s-66.841 8.941-96.273 26.929c-29.432-17.983-63.999-26.929-96.273-26.929-2.919 0-5.6-0.119-11.191-0.458-12.114-0.734-17.208-0.879-25.128-0.256-25.332 1.991-47.332 12.745-68.686 34.475-18.175 18.501-15.362 46.070 0.777 61.786 0.514 0.919 1.111 2.032 1.762 3.305zM309.202 791.041c53.851-113.341 71.185-201.279 71.185-312.94 0-58.528-12.248-121.658-31.113-167.438 5.316 0.3 8.84 0.423 13.192 0.423 22.853 0 49.392 9.249 65.281 25.423 17.030 17.332 44.958 17.332 61.988 0 15.884-16.169 42.429-25.423 65.281-25.423s49.392 9.249 65.281 25.423c17.030 17.332 44.958 17.332 61.988 0 9.7-9.875 23.378-17.169 37.758-21.355-16.193 115.991-90.98 220.641-214.97 344.343-52.695 52.567-145.214 115.258-195.866 131.543zM241.664 14.039c-56.998 0-120.018 18.786-163.7 56.823-18.094 15.758-19.991 43.203-4.234 61.298s43.203 19.991 61.298 4.234c26.021-22.658 68.975-35.462 106.636-35.462s80.62 12.804 106.636 35.462c16.355 14.241 40.709 14.241 57.064 0 26.021-22.658 68.975-35.462 106.636-35.462s80.62 12.804 106.636 35.462c16.355 14.241 40.709 14.241 57.064 0 26.021-22.658 68.975-35.462 106.636-35.462s80.62 12.804 106.636 35.462c18.094 15.758 45.54 13.861 61.298-4.234s13.861-45.54-4.234-61.298c-43.682-38.038-106.703-56.823-163.7-56.823-45.523 0-94.886 11.985-135.168 36.184-40.287-24.204-89.651-36.184-135.168-36.184s-94.886 11.985-135.168 36.184c-40.287-24.204-89.651-36.184-135.168-36.184z" />
<glyph unicode="&#xe90c;" glyph-name="rss" d="M189.546 246.406c-33.589 0-62.137-11.753-85.651-35.267s-35.267-52.062-35.267-85.651c0-33.589 11.753-62.137 35.267-85.651s52.062-35.267 85.651-35.267c33.589 0 62.137 11.753 85.651 35.267s35.267 52.062 35.267 85.651c0 33.589-11.753 62.137-35.267 85.651s-52.062 35.267-85.651 35.267zM112.083 568.86c-11.753 0.843-21.836-2.729-30.233-10.709-8.815-7.555-13.223-17.421-13.223-29.599v-85.017c0-10.493 3.464-19.524 10.392-27.079s15.642-11.753 26.135-12.596c96.144-9.24 178.331-47.971 246.561-116.194s106.961-150.417 116.194-246.561c0.843-10.493 5.041-19.207 12.596-26.135s16.586-10.392 27.079-10.392h85.017c12.178 0 22.045 4.408 29.599 13.223 7.137 7.137 10.709 16.168 10.709 27.079v3.147c-5.459 67.178-22.355 131.419-50.701 192.713s-66.444 115.668-114.307 163.114c-47.445 47.863-101.819 85.968-163.114 114.307s-125.535 45.242-192.713 50.701zM110.823 891.314c-11.336 0.843-21.202-2.938-29.599-11.336-8.397-7.555-12.596-17.212-12.596-28.973v-90.059c0-10.918 3.673-20.259 11.019-28.022s16.269-11.861 26.769-12.279c90.268-5.041 176.027-26.243 257.27-63.606s151.778-85.968 211.611-145.794c59.833-59.833 108.43-130.367 145.794-211.611s58.781-167.003 64.24-257.27c0.418-10.493 4.515-19.416 12.279-26.769s16.903-11.019 27.396-11.019h90.059c11.753 0 21.411 4.199 28.973 12.596 7.555 7.555 11.336 16.795 11.336 27.713v1.887c-5.459 110.001-30.651 215.284-75.576 315.843s-106.644 189.883-185.159 267.972c-78.096 78.514-167.42 140.234-267.972 185.159s-205.835 70.117-315.843 75.576z" />
<glyph unicode="&#xe90d;" glyph-name="star" d="M322.221 20.426c-37.692-24.15-87.819-13.171-111.969 24.521-12.206 19.048-15.894 42.333-10.171 64.225l57 218.063-174.286 142.917c-34.613 28.381-39.664 79.451-11.283 114.064 14.343 17.493 35.352 28.198 57.937 29.52l225.001 13.174 82.063 209.917c16.296 41.688 63.306 62.275 104.995 45.979 21.071-8.24 37.739-24.908 45.979-45.979l82.063-209.917 225.001-13.174c44.686-2.616 78.79-40.967 76.174-85.653-1.322-22.585-12.026-43.588-29.52-57.937l-174.286-142.917 57-218.063c11.323-43.309-14.613-87.594-57.922-98.911-21.892-5.723-45.17-2.035-64.225 10.171l-189.779 121.592-189.779-121.592zM485.76 240.72c15.991 10.242 36.482 10.242 52.473 0l181.097-116.031-54.39 208.088c-4.803 18.373 1.529 37.86 16.213 49.902l166.316 136.38-214.715 12.576c-18.961 1.112-35.535 13.155-42.446 30.841l-78.308 200.32-78.308-200.32c-6.912-17.686-23.492-29.729-42.446-30.841l-214.715-12.576 166.316-136.38c14.685-12.042 21.016-31.529 16.213-49.902l-54.39-208.088 181.097 116.031zM512.198 523.329c62.67 0 113.47-50.8 113.47-113.47s-50.8-113.47-113.47-113.47c-62.67 0-113.47 50.8-113.47 113.47s50.8 113.47 113.47 113.47z" />
<glyph unicode="&#xe90e;" glyph-name="ufo" d="M318.034 163.114c-0.065 0.404-0.232 0.828-0.175 1.214 0.718 5.051 1.374 10.108 2.236 15.138 0.638 3.709 1.537 7.377 2.327 11.055 0.727 3.386 1.392 6.784 2.22 10.146 1.036 4.232 2.211 8.428 3.319 12.645 0.928 3.531 1.827 7.063 2.763 10.591 0.522 1.953 1.106 3.896 1.65 5.846 0.354 1.263 0.671 2.538 1.045 3.798 1.774 5.944 3.563 11.882 5.336 17.826 0.564 1.886 1.067 3.794 1.664 5.668 0.881 2.763 1.846 5.505 2.726 8.274 0.573 1.816 1.032 3.671 1.588 5.494 0.967 3.146 1.969 6.286 2.953 9.429 0.572 1.822 1.114 3.656 1.708 5.466 0.925 2.819 1.911 5.612 2.819 8.434 0.582 1.813 1.065 3.656 1.626 5.475 0.829 2.686 1.682 5.365 2.534 8.045 0.667 2.104 1.341 4.208 2.024 6.302 0.925 2.829 1.873 5.65 2.792 8.482 0.551 1.706 1.032 3.433 1.588 5.131 0.976 2.956 1.996 5.896 2.968 8.85 0.597 1.813 1.121 3.649 1.712 5.464 0.882 2.713 1.806 5.416 2.683 8.131 0.588 1.815 1.116 3.649 1.686 5.472 0.878 2.801 1.757 5.594 2.653 8.392 0.653 2.046 1.312 4.092 1.992 6.128 0.92 2.762 1.876 5.509 2.781 8.274 0.573 1.755 1.065 3.54 1.635 5.294 0.925 2.834 1.902 5.655 2.828 8.49 0.591 1.813 1.125 3.647 1.697 5.463 1.107 3.531 2.214 7.054 3.339 10.582 1.125 3.533 2.285 7.054 3.404 10.591 1.243 3.923 2.469 7.844 3.677 11.775 1.080 3.52 2.085 7.072 3.184 10.591 0.914 2.917 1.944 5.79 2.868 8.701 0.611 1.929 1.125 3.892 1.686 5.837 0.288 1.009 0.582 2.015 0.905 3.128-1.706 0.457-3.197 0.217-4.664 0.139-4.023-0.214-8.068-0.302-12.060-0.807-3.769-0.475-7.548-0.469-11.324-0.671-3.297-0.179-6.591-0.404-9.885-0.625-6.179-0.412-12.351-0.858-18.535-1.243-5.645-0.353-11.292-0.662-16.942-0.929-7.092-0.335-14.203-0.391-21.274-0.976-7.262-0.597-14.539-0.629-21.805-0.994-5.888-0.295-11.784-0.438-17.675-0.617-8.478-0.256-16.963-0.362-25.429-0.751-19.553-0.905-39.115-0.447-58.667-0.531-7.882-0.030-15.77-0.001-23.649 0.177-7.275 0.166-14.541 0.549-21.815 0.861-3.123 0.134-6.244 0.306-9.369 0.496-3.72 0.226-7.455 0.34-11.153 0.78-5.425 0.648-10.829 1.462-16.218 2.368-3.297 0.555-6.594 1.255-9.805 2.182-5.267 1.519-10.582 2.991-15.102 6.324-2.819 2.077-4.766 4.677-5.22 8.238-0.044 0.353-0.148 0.709-0.306 1.018-2.202 4.303-2.3 8.935-1.715 13.524 0.662 5.187 3.46 9.31 7.597 12.466 1.6 1.22 3.297 2.38 5.107 3.244 2.555 1.223 4.757 2.893 6.852 4.733 2.89 2.537 6.097 4.615 9.411 6.502 4.911 2.797 9.893 5.493 14.962 7.998 5.668 2.801 11.428 5.415 17.212 7.969 5.339 2.358 10.753 4.555 16.155 6.778 3.736 1.537 7.505 2.997 11.259 4.486 4.279 1.699 8.55 3.422 12.85 5.080 1.617 0.62 3.297 1.056 4.938 1.617 2.36 0.807 4.715 1.635 7.059 2.469 1.686 0.602 3.371 1.218 5.033 1.872 2.603 1.018 5.187 1.982 7.466 3.769 1.697 1.337 3.883 2.055 5.852 3.048 4.944 2.487 9.885 4.991 14.841 7.455 2.614 1.303 5.278 2.51 7.89 3.821 4.739 2.377 9.425 4.854 14.185 7.19 7.143 3.502 12.982 8.855 19.303 13.52 1.956 1.445 3.858 2.968 5.692 4.569 2.824 2.463 5.517 5.069 8.363 7.499 1.654 1.416 2.988 3.030 4.125 4.87 2.727 4.404 5.416 8.837 8.294 13.146 3.006 4.499 6.211 8.864 9.324 13.291 2.089 2.968 4.125 5.977 6.273 8.906 2.323 3.166 4.612 6.373 7.161 9.351 5.116 5.984 10.348 11.873 15.631 17.713 5.167 5.71 11.33 10.211 17.918 14.161 2.968 1.78 5.888 3.644 8.817 5.496 3.932 2.487 8.060 4.588 12.28 6.536 2.445 1.128 4.87 2.309 7.352 3.353 3.511 1.471 7.081 2.785 10.593 4.253 3.256 1.365 6.46 2.861 9.698 4.262 2.95 1.279 5.908 2.561 8.895 3.748 4.461 1.775 9.093 3.021 13.737 4.199 4.178 1.056 8.411 1.884 12.612 2.852 2.617 0.602 5.21 1.316 7.828 1.916 2.626 0.602 5.272 1.107 7.905 1.675 2.042 0.442 4.071 0.929 6.113 1.35 1.471 0.302 2.95 0.553 4.439 0.78 2.197 0.335 4.404 0.602 6.6 0.938 2.478 0.382 4.953 0.816 7.428 1.223 0.237 0.039 0.466 0.119 0.709 0.148 3.044 0.335 6.091 0.648 9.133 0.985 2.801 0.309 5.594 0.644 8.396 0.961 0.78 0.088 1.555 0.19 2.335 0.242 4.859 0.323 9.725 0.555 14.577 0.972 3.22 0.275 6.413 0.853 9.633 1.193 1.852 0.193 3.727 0.166 5.585 0.267 7.2 0.386 14.399 0.866 21.601 1.145 5.109 0.199 10.231 0.184 15.345 0.161 4.209-0.016 8.425-0.077 12.627-0.306 4.378-0.239 8.71-0.956 12.992-1.895 2.739-0.602 5.445-1.351 8.176-1.958 2.683-0.591 5.407-1.018 8.078-1.65 3.323-0.782 6.647-1.588 9.907-2.585 3.247-0.994 6.399-2.3 9.635-3.346 1.983-0.643 4.083-0.943 6.062-1.592 2.713-0.888 5.521-1.439 8.104-2.828 3.52-1.889 7.115-3.745 10.876-5.051 4.966-1.733 8.621-5.22 12.621-8.294 0.942-0.727 1.911-1.421 2.899-2.089 4.036-2.745 7.956-5.683 12.158-8.149 3.736-2.196 6.82-5.167 10.301-7.648 1.944-1.388 3.497-3.203 5.236-4.814 4.247-3.938 8.051-8.312 12.241-12.293 2.543-2.416 5.318-4.588 8.027-6.828 1.836-1.519 3.76-2.932 5.585-4.466 2.73-2.285 5.641-4.116 9.131-5.14 2.254-0.662 4.337-1.926 6.469-2.983 2.015-1.003 3.994-2.082 5.997-3.11 2.545-1.312 5.059-2.703 7.668-3.876 1.828-0.822 3.772-1.439 5.71-1.982 3.108-0.878 6.404-0.867 9.475-2.029 1.27-0.478 2.683-0.605 4.045-0.798 3.155-0.451 6.226-1.19 9.253-2.202 1.074-0.362 2.22-0.561 3.349-0.709 3.155-0.415 6.32-0.76 9.479-1.145 3.279-0.395 6.553-0.807 9.829-1.213 0.18-0.021 0.357-0.059 0.536-0.086 3.38-0.488 6.754-0.997 10.13-1.457 2.496-0.34 5-0.591 7.498-0.928 1.895-0.255 3.783-0.573 5.674-0.882 2.543-0.415 5.089-0.816 7.623-1.267 1.591-0.279 3.166-0.662 4.757-0.959 4.25-0.791 8.514-1.499 12.755-2.356 3.985-0.8 7.935-1.757 11.906-2.608 1.635-0.353 3.297-0.582 4.944-0.896 1.346-0.258 2.692-0.531 4.021-0.852 5.237-1.27 10.468-2.561 15.701-3.849 2.905-0.718 5.82-1.383 8.701-2.188 2.926-0.816 5.799-1.788 8.71-2.65 2.062-0.611 4.152-1.106 6.215-1.715 1.786-0.524 3.558-1.092 5.309-1.715 3.885-1.381 7.713-2.947 11.647-4.181 4.639-1.457 9.024-3.496 13.393-5.543 4.036-1.893 7.997-4.018 11.588-6.689 3.727-2.767 7.003-6.075 9.027-10.258 1.422-2.932 2.258-6.104 2.122-9.556-0.139-3.666-1.121-6.995-2.834-10.090-1.499-2.712-3.68-4.959-5.992-7.060-5.671-5.158-12.2-8.962-19.105-12.182-3.609-1.686-7.241-3.344-11.063-4.515-2.861-0.878-5.739-1.72-8.621-2.525-2.65-0.742-5.309-1.448-7.98-2.104-1.448-0.358-2.926-0.629-4.395-0.863-2.131-0.344-4.279-0.595-6.413-0.929-2.365-0.368-4.724-0.8-7.086-1.19-1.771-0.291-3.555-0.514-5.318-0.847-3.235-0.608-6.463-1.272-9.695-1.911-1.887-0.368-3.778-0.727-5.668-1.104-1.056-0.213-2.104-0.484-3.161-0.693s-2.131-0.482-3.155 0.11c-1.374 0.798-1.837 1.757-1.579 3.282 0.255 1.487 1.457 2.015 2.662 2.327 1.561 0.404 3.184 0.558 4.775 0.852 1.35 0.249 2.692 0.555 4.041 0.816 2.712 0.519 5.454 0.905 8.126 1.559 3.255 0.798 6.491 1.686 9.57 3.081 4.337 1.96 8.778 3.689 13.066 5.748 6.184 2.959 12.293 6.086 18.111 9.737 5 3.137 10.057 6.193 15.021 9.38 3.11 2 6.086 4.199 8.431 7.128 1.022 1.275 1.282 3.395 0.279 4.662-1.181 1.487-2.377 3.057-3.885 4.161-2.739 2.006-5.632 3.825-8.593 5.481-4.902 2.739-10.040 4.984-15.316 6.923-3.923 1.44-7.8 3.002-11.736 4.401-4.386 1.561-8.799 3.039-13.232 4.475-3.974 1.285-7.962 2.534-11.983 3.652-4.027 1.125-8.107 2.058-12.155 3.104-3.715 0.956-7.407 1.996-11.13 2.917-2.552 0.632-5.14 1.128-7.709 1.685-2.979 0.644-5.959 1.301-8.944 1.92s-5.976 1.205-8.965 1.795c-3.057 0.602-6.114 1.205-9.178 1.775-1.893 0.353-3.791 0.66-5.692 0.967-2.548 0.415-5.098 0.789-7.644 1.205-3.84 0.632-7.68 1.312-11.523 1.921-1.893 0.297-3.802 0.513-5.71 0.73-2.802 0.315-5.612 0.564-8.416 0.914-2.792 0.344-5.575 0.769-8.362 1.163-0.237 0.030-0.47 0.101-0.709 0.119-3.469 0.297-6.943 0.567-10.413 0.896-3.168 0.297-6.324 0.718-9.497 0.976-6.115 0.497-12.265 0.685-18.349 1.43-7.552 0.924-15.138 0.605-22.696 1.181-4.134 0.315-8.303 0.273-12.449 0.273-25.761-0.003-51.523 0.008-77.287-0.109-7.517-0.030-15.040-0.335-22.545-0.76-9.422-0.535-18.836-1.326-28.254-2.009-5.098-0.368-10.197-0.68-15.289-1.119-3.226-0.279-6.435-0.749-9.653-1.134-0.119-0.012-0.237-0.039-0.358-0.050-3.52-0.33-7.045-0.613-10.562-1.003-2.859-0.315-5.701-0.751-8.55-1.134-0.181-0.021-0.358-0.059-0.54-0.077-2.919-0.331-5.846-0.604-8.757-1.003-4.395-0.602-8.781-1.285-13.17-1.951-3.629-0.549-7.244-1.145-10.873-1.686-2.316-0.348-4.644-0.611-6.956-0.967-0.938-0.148-1.846-0.493-2.792-0.653-3.068-0.522-6.146-0.985-9.211-1.508-1.056-0.184-2.085-0.532-3.137-0.715-3.068-0.524-6.146-0.985-9.22-1.508-0.938-0.162-1.85-0.505-2.792-0.671-3.189-0.561-6.389-1.041-9.576-1.626-2.834-0.522-5.65-1.154-8.481-1.711-2.172-0.428-4.359-0.789-6.527-1.232-1.925-0.391-3.83-0.871-5.752-1.275-1.463-0.306-2.941-0.535-4.406-0.83-5.103-1.027-10.217-2.011-15.298-3.125-3.985-0.872-7.924-1.944-11.897-2.867-2.505-0.582-5.039-1.039-7.555-1.588-2.859-0.62-5.71-1.279-8.565-1.921-2.623-0.591-5.261-1.116-7.858-1.805-4.281-1.134-8.532-2.38-12.799-3.577-2.071-0.582-4.125-1.205-6.211-1.715-2.73-0.662-5.481-1.243-8.223-1.833-0.76-0.166-1.537-0.315-2.309-0.362-3.745-0.217-7.306-1.303-10.876-2.318-1.775-0.502-3.484-1.24-5.254-1.795-0.733-0.231-1.537-0.356-2.308-0.368-2.374-0.039-4.596-0.76-6.843-1.388-1.154-0.326-2.318-0.576-3.478-0.866-3.244-0.802-6.497-1.561-9.725-2.416-4.045-1.070-8.069-2.22-12.102-3.324-4.213-1.154-8.438-2.258-12.641-3.451-3.776-1.067-7.526-2.229-11.292-3.333-3.798-1.107-7.597-2.187-11.401-3.291-2.062-0.597-4.125-1.187-6.184-1.822-2.73-0.847-5.445-1.748-8.167-2.603-3.709-1.163-7.419-2.307-11.126-3.46-3.826-1.19-7.666-2.339-11.478-3.573-4.075-1.321-8.125-2.73-12.187-4.092-4.934-1.65-9.879-3.264-14.802-4.952-4.054-1.392-8.096-2.832-12.111-4.326-4.98-1.855-9.941-3.76-14.894-5.692-4.668-1.822-9.333-3.662-13.974-5.57-5.405-2.22-10.838-4.386-16.144-6.828-6.164-2.834-12.22-5.917-18.292-8.953-2.028-1.017-4.101-2.042-5.908-3.392-5.238-3.914-10.932-7.268-15.289-12.28-2.481-2.852-4.218-6.057-5.018-9.773-0.475-2.229 0.274-4.279 0.867-6.34 0.142-0.493 0.78-0.861 1.232-1.236 0.404-0.336 0.867-0.602 1.431-0.985-0.545-0.573-1.009-1.074-1.65-1.746 0.344-0.335 0.638-0.816 1.056-0.976 1.059-0.415 2.16-0.733 3.268-1.005 4.203-1.027 8.443-1.795 12.772-2.14 3.947-0.315 7.877-0.84 11.817-1.27 0.362-0.039 0.718-0.073 1.083-0.086 9.202-0.286 18.4-0.746 27.604-0.807 14.805-0.101 29.616 0.018 44.419 0.139 6.979 0.059 13.956 0.362 20.936 0.502 4.752 0.101 9.511 0.069 14.264 0.19 5.891 0.152 11.784 0.417 17.673 0.602 9.862 0.31 19.729 0.564 29.587 0.907 6.371 0.222 12.734 0.549 19.103 0.858 9.553 0.466 19.107 0.924 28.657 1.448 7.030 0.386 14.046 0.878 21.072 1.302 1.561 0.092 3.128 0.059 4.691 0.139 5.585 0.283 11.171 0.582 16.758 0.896 3.417 0.19 6.858 0.226 10.244 0.68 4.428 0.591 8.879 0.531 13.318 0.791 3.297 0.196 6.591 0.393 9.885 0.644 5.214 0.395 10.422 0.822 15.63 1.27 1.734 0.148 1.733 0.237 2.267 1.982 1.087 3.526 2.258 7.030 3.333 10.553 0.867 2.846 1.617 5.731 2.496 8.579 0.905 2.917 1.92 5.797 2.843 8.705 0.595 1.873 1.113 3.777 1.668 5.664 0.638 2.169 1.285 4.334 1.911 6.508 0.194 0.68 0.315 1.374 0.499 2.193-0.747 0.184-1.421 0.226-1.973 0.508-2.632 1.32-3.484 3.426-1.368 6.337 1.196 1.65 3.057 2.482 4.911 3.134 1.325 0.466 1.944 1.237 2.464 2.53 1.439 3.582 3.095 7.081 4.695 10.6 0.217 0.474 0.54 0.956 0.941 1.27 0.382 0.297 1.056 0.644 1.377 0.493 0.451-0.208 0.959-0.858 0.967-1.328 0.021-1.303-0.15-2.623-0.335-3.925-0.157-1.116-0.442-2.215-0.662-3.324-0.19-0.967-0.377-1.935-0.62-3.169 0.849 0.077 1.43 0.068 1.982 0.188 4.152 0.92 8.303 1.862 12.449 2.813 2.792 0.641 5.562 1.379 8.369 1.953 3.166 0.644 6.362 1.145 9.543 1.725 3.244 0.591 6.487 1.227 9.734 1.805 2.546 0.453 5.107 0.822 7.653 1.274 3.718 0.658 7.419 1.392 11.143 2.024 3.662 0.62 7.348 1.134 11.016 1.733 2.245 0.368 4.475 0.822 6.716 1.209 1.597 0.273 3.202 0.505 4.806 0.727 2.318 0.322 4.653 0.591 6.968 0.929 2.496 0.362 4.983 0.78 7.481 1.145 2.979 0.433 5.959 0.807 8.935 1.252 2.665 0.395 5.326 0.867 7.989 1.27 1.837 0.279 3.68 0.523 5.528 0.742 2.917 0.344 5.838 0.653 8.757 0.982 3.395 0.38 6.796 0.767 10.192 1.154 0.18 0.021 0.356 0.068 0.536 0.079 7.428 0.499 14.844 1.288 22.322 0.994 2.632-0.104 5.594-2.376 5.77-5.543 0.021-0.421 0.11-0.84 0.077-1.261-0.306-3.573 1.003-6.802 2.229-10.027 0.78-2.051 1.902-3.974 2.632-6.039 0.789-2.234 2.322-3.876 3.84-5.553 1.098-1.214 1.79-2.525 1.626-4.201-0.264-2.672 0.807-5.031 1.775-7.41 0.947-2.318 1.921-4.635 2.849-6.96 1.92-4.813 3.867-9.612 5.692-14.459 1.392-3.689 2.603-7.446 3.932-11.161 1.196-3.365 2.469-6.704 3.656-10.072 1.065-3.030 2.028-6.101 3.068-9.14 1.181-3.451 2.429-6.876 3.59-10.337 0.929-2.763 1.757-5.561 2.65-8.336 0.493-1.531 1.036-3.043 1.537-4.573 1.232-3.808 2.445-7.624 3.671-11.434 1.116-3.46 2.285-6.894 3.353-10.366 0.929-3.017 1.738-6.073 2.641-9.101 0.816-2.751 1.706-5.481 2.525-8.232 0.971-3.26 1.876-6.538 2.855-9.796 0.908-3.021 1.926-6.015 2.801-9.051 1.332-4.597 2.561-9.222 3.867-13.824 1.163-4.074 2.415-8.116 3.549-12.191 0.896-3.213 1.641-6.469 2.514-9.692 0.751-2.771 1.626-5.505 2.398-8.273 0.998-3.567 1.911-7.16 2.931-10.72 0.867-3.030 1.87-6.020 2.739-9.051 0.611-2.125 1.056-4.297 1.644-6.431 0.775-2.828 1.609-5.641 2.427-8.452 0.68-2.349 1.368-4.695 2.062-7.041 0.946-3.199 1.913-6.389 2.839-9.594 0.549-1.893 1.003-3.816 1.555-5.709 0.994-3.386 2.033-6.754 3.036-10.137 0.545-1.832 1.031-3.68 1.57-5.514 0.602-2.051 1.232-4.101 1.846-6.15 0.662-2.22 1.294-4.457 2-6.665 1.089-3.416 2.218-6.825 3.344-10.227 0.581-1.753 1.211-3.49 1.795-5.244 0.579-1.748 1.098-3.516 1.686-5.256 0.955-2.819 1.884-5.642 2.937-8.421 2.14-5.641 4.369-11.242 6.549-16.865 2.416-6.226 5.167-12.304 8.307-18.203 1.284-2.412 2.594-4.81 3.918-7.199 1.22-2.202 1.846-4.487 1.65-7.063-0.273-3.62-4.25-7.315-7.831-7.395-4.054-0.086-6.903 1.677-8.808 5.042-1.822 3.212-3.524 6.493-5.154 9.805-1.833 3.727-3.6 7.493-5.256 11.303-1.211 2.789-2.187 5.674-3.282 8.514-1.35 3.496-2.65 7.016-4.101 10.468-0.522 1.237-1.368 2.365-2.187 3.446-0.78 1.027-1.27 1.982-0.638 3.291 0.203 0.418 0.136 1.074-0.025 1.546-1.065 3.166-2.22 6.293-3.282 9.458-0.622 1.864-1.096 3.778-1.668 5.662-0.502 1.65-1.065 3.287-1.579 4.938-1.003 3.195-1.987 6.395-2.979 9.594-1.196 3.867-2.445 7.722-3.573 11.615-0.896 3.090-1.635 6.226-2.478 9.333-0.531 1.962-1.148 3.905-1.677 5.864-0.994 3.698-1.935 7.408-2.932 11.105-0.482 1.786-1.079 3.54-1.561 5.318-0.967 3.567-1.873 7.146-2.829 10.713-0.774 2.886-1.608 5.757-2.38 8.639-1.006 3.745-1.953 7.508-2.976 11.25-1.107 4.083-2.318 8.135-3.395 12.226-1.163 4.396-2.169 8.834-3.339 13.226-0.84 3.166-1.864 6.282-2.759 9.431-0.582 2.067-1.065 4.161-1.628 6.235-0.976 3.567-1.991 7.124-2.968 10.689-0.526 1.911-1.009 3.826-1.537 5.735-0.638 2.3-1.298 4.597-1.944 6.902-0.873 3.096-1.721 6.202-2.623 9.291-0.867 2.974-1.81 5.926-2.683 8.897-0.629 2.127-1.172 4.279-1.804 6.404-1.154 3.896-2.366 7.766-3.502 11.66-1.134 3.885-2.16 7.805-3.314 11.686-0.853 2.87-1.855 5.692-2.761 8.55-0.611 1.931-1.158 3.882-1.748 5.819-1.056 3.469-2.119 6.941-3.185 10.406-1.107 3.598-2.2 7.199-3.336 10.787-1.009 3.184-2.089 6.338-3.096 9.519-0.576 1.815-1.045 3.662-1.629 5.481-0.896 2.772-1.841 5.532-2.772 8.294-1.125 3.344-2.249 6.686-3.4 10.021-0.7 2.021-1.457 4.021-2.164 6.039-1.083 3.095-2.131 6.199-3.215 9.291-0.929 2.651-1.942 5.276-2.83 7.944-0.979 2.938-1.873 5.908-2.772 8.867-0.246 0.798-0.375 1.644-1.658 1.059 0 0.807-0.003 1.336 0.001 1.864 0.021 2.229-1.285 3.73-3.55 3.936-1.009 0.092-2.037 0.012-3.193 0.012-0.217 1.14-1.027 1.327-2.095 1.239-5.030-0.415-10.063-0.782-15.093-1.169-0.059-0.003-0.119-0.012-0.18-0.017-3.885-0.335-7.775-0.613-11.655-1.018-2.926-0.306-5.828-0.798-8.748-1.172-4.769-0.611-9.547-1.176-14.315-1.804-3.096-0.409-6.184-0.907-9.274-1.351-1.837-0.264-3.68-0.522-5.528-0.75-2.561-0.319-5.131-0.582-7.686-0.92-2.196-0.288-4.388-0.631-6.576-0.98-2.188-0.353-4.369-0.742-6.558-1.104-2.721-0.451-5.439-0.889-8.158-1.321-1.775-0.279-3.561-0.54-5.341-0.807-5.289-0.801-10.585-1.561-15.868-2.416-4.083-0.662-8.146-1.442-12.22-2.169-3.238-0.576-6.487-1.107-9.716-1.745-2.815-0.555-5.603-1.243-8.41-1.837-1.638-0.353-3.282-0.695-4.938-0.943-1.083-0.166-1.724-0.667-1.994-1.733-0.967-3.813-1.926-7.624-2.953-11.421-0.905-3.353-1.911-6.674-2.832-10.021-0.588-2.127-1.092-4.279-1.665-6.404-0.638-2.356-1.341-4.686-1.973-7.042-0.638-2.356-1.2-4.733-1.835-7.087-0.34-1.266-0.766-2.505-1.134-3.765-0.11-0.386-0.157-0.793-0.246-1.252 0.297-0.118 0.513-0.279 0.723-0.273 2.819 0.118 5.641 0.246 8.456 0.395 1.739 0.092 3.481 0.214 5.22 0.344 6.057 0.453 12.111 0.92 18.167 1.37 1.499 0.11 3.006 0.143 4.508 0.237 4.201 0.27 8.401 0.558 12.603 0.822 4.677 0.297 9.36 0.588 14.042 0.863 4.386 0.256 8.766 0.491 13.147 0.733 4.261 0.237 8.527 0.427 12.79 0.718 5.272 0.362 10.535 0.807 15.808 1.196 1.018 0.077 2.042 0.068 3.068 0.116 6.186 0.291 12.378 0.517 18.559 0.92 2.196 0.148 4.361 0.732 6.538 1.116 1.299 0.23 2.603 0.451 3.899 0.7 4.419 0.845 8.846 1.697 13.266 2.554 3.409 0.662 6.843 1.243 10.217 2.051 3.718 0.896 6.983-2.178 6.627-5.276-0.226-1.962-1.312-3.297-3.043-4.097-0.807-0.371-1.712-0.564-2.593-0.733-4.484-0.858-8.982-1.654-13.464-2.525-3.353-0.65-6.678-1.409-10.027-2.064-3.052-0.602-6.128-1.087-9.176-1.697-2.641-0.531-5.256-1.159-7.882-1.739-1.401-0.312-2.81-0.629-4.214-0.92-3.938-0.822-7.877-1.617-11.808-2.451-2.049-0.434-4.083-0.944-6.126-1.392-1.345-0.296-2.692-0.597-4.053-0.798-2.309-0.344-4.635-0.611-6.95-0.914-2.377-0.309-4.754-0.629-7.129-0.938-1.368-0.179-2.739-0.335-4.102-0.54-2.721-0.404-5.434-0.831-8.149-1.252-0.177-0.029-0.356-0.062-0.536-0.083-2.623-0.293-5.247-0.573-7.864-0.882-3.043-0.362-6.079-0.772-9.124-1.116-1.612-0.184-3.235-0.273-4.854-0.386-4.32-0.306-8.643-0.555-12.959-0.914-4.244-0.353-8.481-0.822-12.725-1.223-0.896-0.086-1.804-0.065-2.704-0.118-5.641-0.335-11.283-0.653-16.925-1.018-1.916-0.119-3.822-0.371-5.735-0.514-0.84-0.064-1.321-0.462-1.546-1.243-0.475-1.659-0.938-3.315-1.43-4.971-1.27-4.297-2.561-8.588-3.818-12.882-0.569-1.944-1.056-3.914-1.635-5.85-0.874-2.908-1.817-5.798-2.697-8.701-0.589-1.941-1.096-3.905-1.686-5.846-0.938-3.095-1.92-6.169-2.875-9.253-0.564-1.822-1.11-3.647-1.677-5.463-0.938-3.015-1.902-6.024-2.837-9.035-0.564-1.828-1.061-3.678-1.65-5.496-0.945-2.899-1.961-5.775-2.911-8.677-0.591-1.807-1.107-3.639-1.686-5.454-0.898-2.828-1.835-5.641-2.721-8.472-0.591-1.88-1.092-3.786-1.686-5.662-0.927-2.917-1.902-5.808-2.852-8.718-0.591-1.813-1.163-3.638-1.764-5.445-0.937-2.819-1.911-5.621-2.833-8.44-0.555-1.699-1.035-3.422-1.579-5.128-0.947-2.959-1.935-5.908-2.885-8.87-0.602-1.873-1.131-3.773-1.733-5.65-0.908-2.834-1.867-5.659-2.772-8.49-0.582-1.822-1.067-3.671-1.659-5.487-0.929-2.843-1.926-5.668-2.861-8.505-0.602-1.813-1.134-3.647-1.719-5.463-0.927-2.886-1.884-5.761-2.801-8.65-0.558-1.76-1.043-3.549-1.597-5.309-0.968-3.086-1.974-6.155-2.95-9.238-0.573-1.822-1.098-3.656-1.686-5.472-0.914-2.822-1.893-5.621-2.794-8.451-0.58-1.815-1.043-3.669-1.608-5.487-0.956-3.090-1.953-6.164-2.926-9.252-0.573-1.822-1.134-3.643-1.701-5.463-0.581-1.87-1.154-3.742-1.739-5.609-0.872-2.776-1.748-5.552-2.632-8.325-0.887-2.794-1.781-5.585-2.665-8.383-0.68-2.16-1.332-4.334-2.033-6.493-0.914-2.825-1.884-5.632-2.781-8.457-0.576-1.822-1.035-3.671-1.612-5.494-0.956-3.015-2-6.006-2.95-9.024-0.611-1.926-1.065-3.905-1.686-5.829-0.822-2.538-1.733-5.048-2.624-7.564-0.537-1.508-1.083-3.017-1.677-4.508-0.33-0.83-0.76-1.617-1.147-2.427h-1.804z" />
<glyph unicode="&#xe90f;" glyph-name="flash" d="M390.845 870.189l-176.304-475.128c-5.368-14.467 2.008-30.546 16.475-35.914 3.111-1.154 6.402-1.745 9.72-1.745h141.757c15.431 0 27.94-12.509 27.94-27.94 0-2.538-0.346-5.063-1.027-7.508l-77.807-278.909c-4.147-14.863 4.541-30.273 19.404-34.42 10.288-2.87 21.313 0.378 28.404 8.366l387.643 436.778c10.243 11.54 9.19 29.2-2.35 39.443-5.113 4.537-11.71 7.042-18.545 7.042h-160.075c-15.431 0-27.94 12.509-27.94 27.94 0 6.402 2.198 12.61 6.228 17.583l240.618 297.107c9.711 11.992 7.864 29.584-4.128 39.297-4.975 4.028-11.182 6.228-17.583 6.228h-366.232c-11.681 0-22.131-7.268-26.195-18.22z" />
<glyph unicode="&#xe910;" glyph-name="crown" d="M831.509 227.822h-98.331c-30.496 0-55.219 24.722-55.219 55.219s24.722 55.219 55.219 55.219h110.39c0.066 0.88 0.131 1.76 0.197 2.64 4.445 60.647 5.874 118.109 4.3 172.374l-96.848-38.501c-38.21-15.19-81.778-0.048-102.332 35.563l-126.227 218.681-148.283-223.591c-21.653-32.65-63.219-45.664-99.626-31.191l-98.95 39.336c-1.399-49.847 0.265-107.443 5.045-172.669 0.064-0.882 0.131-1.762 0.195-2.64h110.39c30.496 0 55.219-24.722 55.219-55.219s-24.722-55.219-55.219-55.219h-98.866c1.916-13.987 3.987-27.697 6.209-41.131 6.615-39.982 41.19-69.308 81.717-69.308l462.864-0.002c40.397 0 74.902 29.141 81.661 68.969 2.343 13.809 4.51 27.632 6.498 41.469zM732.595 586.216l145.841 57.976c34.396 13.674 72.243-9.702 75.414-46.58 7.017-81.567 7.017-169.821 0.056-264.785-4.045-55.193-10.716-110.18-20.015-164.954-15.773-92.93-96.282-160.925-190.542-160.925l-462.864 0.002c-94.561 0-175.237 68.425-190.672 161.717-8.483 51.28-14.851 105.997-19.115 164.162-7.792 106.3-7.792 194.896 0.195 266.2 4.054 36.197 41.426 58.622 75.275 45.167l148.551-59.053 185.17 279.214c22.662 34.171 73.345 32.597 93.842-2.915l158.863-275.222zM512.302 338.259c30.496 0 55.219-24.722 55.219-55.219s-24.722-55.219-55.219-55.219c-30.496 0-55.219 24.722-55.219 55.219s24.722 55.219 55.219 55.219z" />
<glyph unicode="&#xe911;" glyph-name="feather" d="M696.075 330.869c3.202 3.585 6.423 7.257 9.67 11.008 130.214 150.472 184.563 308.103 124.415 383.534-61.88 77.596-148.015 82.823-251.584 33.174-18.044-8.651-35.848-18.365-53.444-29.063l-23.999-96.067c-6.867-27.488-34.717-44.205-62.204-37.338-19.994 4.997-34.289 21.092-37.958 40.078-27.166-24.169-54.001-50.375-80.652-78.265-44.090-46.137-65.882-131.536-62.22-256.259 34.035 38.422 63.335 69.699 87.957 93.878 60.359 59.276 140.554 129.48 240.732 210.802 21.997 17.858 54.305 14.501 72.163-7.497s14.501-54.305-7.497-72.163c-97.864-79.44-175.743-147.617-233.504-204.344-28.032-27.53-63.234-65.667-105.512-114.321 38.438-1.147 77.399-3.996 116.873-8.535 59.783-6.871 112.468 4.28 168.020 41.584l-22.136 3.094c-28.059 3.925-47.628 29.851-43.704 57.911s29.851 47.628 57.911 43.704l106.68-14.916zM163.488 191.153c-23.544 207.279 1.939 353.207 82.651 437.662 90.734 94.95 183.533 172.173 288.084 222.29 142.051 68.095 279.273 59.765 376.155-61.726 102.085-128.012 32.239-330.574-127.048-514.644-122.537-141.599-232.834-192.458-365.744-177.179-65.87 7.574-129.952 10.047-192.265 7.444-21.542-26.048-44.338-53.957-68.374-83.727-17.8-22.043-50.098-25.484-72.145-7.688s-25.484 50.098-7.688 72.145c30.751 38.088 59.539 73.224 86.369 105.419z" />
<glyph unicode="&#xe912;" glyph-name="futurama" d="M256.694 683.233c45.665 74.217 121.643 125.192 208.081 138.943v3.73c0 26.090 21.15 47.234 47.234 47.234s47.234-21.15 47.234-47.234v-3.73c86.438-13.751 162.416-64.718 208.081-138.943 95.368-9.589 169.821-90.094 169.821-187.995 0-76.655-45.64-142.645-111.229-172.277l9.928-148.962c5.207-78.093-53.877-145.622-131.97-150.829-3.137-0.21-6.282-0.309-9.423-0.309h-364.889c-78.267 0-141.715 63.449-141.715 141.715 0 3.146 0.105 6.294 0.309 9.423l9.928 148.962c-65.589 29.637-111.229 95.628-111.229 172.277 0 97.9 74.452 178.404 169.821 187.995zM291.669 306.283l-9.237-138.572c-0.069-1.047-0.105-2.089-0.105-3.139 0-26.090 21.15-47.234 47.234-47.234h364.889c1.049 0 2.097 0.030 3.139 0.105 26.030 1.737 45.727 24.245 43.991 50.275l-9.237 138.572h-440.676zM643.033 684.189c-36.021 29.866-82.010 47.234-131.024 47.234s-95.003-17.368-131.024-47.234h262.048zM370.294 259.046h283.427c26.090 0 47.234-21.15 47.234-47.234s-21.15-47.234-47.234-47.234h-283.427c-26.090 0-47.234 21.15-47.234 47.234s21.15 47.234 47.234 47.234zM275.818 589.713c-52.183 0-94.476-42.299-94.476-94.476s42.299-94.476 94.476-94.476h472.376c52.183 0 94.476 42.299 94.476 94.476s-42.299 94.476-94.476 94.476h-472.376zM653.724 561.368c39.13 0 70.856-31.724 70.856-70.856s-31.724-70.856-70.856-70.856c-39.13 0-70.856 31.724-70.856 70.856s31.724 70.856 70.856 70.856zM370.294 561.368c39.13 0 70.856-31.724 70.856-70.856s-31.724-70.856-70.856-70.856c-39.13 0-70.856 31.724-70.856 70.856s31.724 70.856 70.856 70.856z" />
<glyph unicode="&#xe913;" glyph-name="gone" d="M644.759 659.783c11.216 2.367 22.848 3.612 34.771 3.612 92.523 0 167.528-75.005 167.528-167.528 0-47.132-19.464-89.72-50.792-120.161l140.891-264.173c17.003-31.884-6.1-70.39-42.235-70.39h-765.848c-36.135 0-59.238 38.508-42.235 70.39l382.925 717.984c18.019 33.786 66.448 33.786 84.47 0l90.525-169.735zM560.7 613.961l-48.704 91.317-303.148-568.404h606.296l-103.728 194.493c-10.324-1.988-20.983-3.030-31.889-3.030-92.523 0-167.528 75.005-167.528 167.528 0 46.076 18.601 87.806 48.704 118.093zM679.527 567.665c-39.654 0-71.798-32.144-71.798-71.798s32.144-71.798 71.798-71.798c39.654 0 71.798 32.144 71.798 71.798s-32.144 71.798-71.798 71.798z" />
<glyph unicode="&#xe914;" glyph-name="heart" d="M700.256 847.908c133.934 0 242.043-110.425 242.043-246.078 0-6.24-0.228-12.459-0.687-18.644 0.46-6.426 0.687-13.032 0.687-19.812 0-217.162-260.628-515.282-430.299-515.282s-430.299 298.12-430.299 515.282c0 6.784 0.227 13.386 0.687 19.812-0.459 6.185-0.687 12.401-0.687 18.644 0 135.654 108.11 246.078 242.043 246.078 75.083 0 143.432-35.039 188.256-91.345 44.824 56.311 113.173 91.345 188.256 91.345zM499.969 609.874c-22.386 0.875-41.889 15.535-48.949 36.8-18.492 55.691-69.488 93.663-127.28 93.663-74.007 0-134.469-61.758-134.469-138.503 0-4.552 0.212-9.073 0.629-13.548l0.013-9.911c-0.425-4.663-0.646-9.661-0.646-14.998 0-160.726 215.922-407.707 322.725-407.707s322.725 246.982 322.725 407.707c0 5.336-0.221 10.335-0.646 14.998l0.013 9.911c0.422 4.475 0.629 8.996 0.629 13.548 0 76.745-60.462 138.503-134.469 138.503-57.788 0-108.788-37.968-127.28-93.663-7.060-21.266-26.559-35.926-48.949-36.8-4.121-0.161-8.125-0.241-12.031-0.241s-7.91 0.084-12.031 0.241zM285.017 559.524c0 29.706 24.082 53.787 53.787 53.787s53.787-24.082 53.787-53.787c0-1.146 0.052-2.274 0.159-3.388l0.022-9.771c-0.115-1.301-0.177-2.734-0.177-4.296 0-57.533 85.783-155.655 117.087-155.655 29.706 0 53.787-24.082 53.787-53.787s-24.082-53.787-53.787-53.787c-94.17 0-224.662 149.264-224.662 263.23 0 3.028 0.084 6.022 0.249 8.975-0.165 2.815-0.249 5.646-0.249 8.477z" />
<glyph unicode="&#xe915;" glyph-name="ico" d="M612.962 181.304c-17.496-12.119-39.212-18.458-62.248-16.37-7.739 0.701-15.319 0.701-24.413 0.216-4.786-0.309-10.012-0.603-14.299-0.603-62.122 0-116.202 13.236-159.996 38.598-17.195-23.406-44.917-38.598-76.187-38.598h-94.473c-52.176 0-94.473 42.297-94.473 94.473v377.893c0 52.176 42.297 94.473 94.473 94.473h94.473c32.073 0 60.412-15.981 77.49-40.417 43.899 26.256 97.711 40.417 158.694 40.417 4.835 0 9.229-0.241 14.247-0.667 2.482-0.211 5.014-0.458 8.829-0.841 2.117-0.207 3.711-0.352 4.953-0.446 26.512 5.582 52.663-0.689 73.187-14.986 26.351 10.996 55.726 16.94 87.729 16.94 145.698 0 236.183-121.876 236.183-283.421 0-165.44-89.004-283.421-236.183-283.421-32.091 0-61.556 5.855-87.986 16.754zM700.948 636.916c-86.333 0-141.71-75.474-141.71-188.948 0-118.678 56.914-188.948 141.71-188.948 87.872 0 141.71 70.27 141.71 188.948 0 113.472-54.608 188.948-141.71 188.948zM559.237 353.495c-22.907-3.694-37.915-6.333-47.237 0-58.216-6.333-96.527 30.612-94.473 94.473-2.054 74.946 37.836 102.919 94.473 94.473 5.371 8.444 24.33 5.278 47.237 0v94.473c-14.614-4.75-36.336 0-47.237 0-113.905 0-188.948-63.861-188.948-188.948 0-134.057 74.251-188.948 188.948-188.948 4.977 0 23.934 2.11 47.237 0v94.473zM181.344 259.022h94.473v377.893h-94.473v-377.893zM700.948 542.443c27.311 0 47.237-32.27 47.237-94.473 0-64.541-18.209-94.473-47.237-94.473-26.967 0-47.237 32.739-47.237 94.473 0 62.202 19.239 94.473 47.237 94.473z" />
<glyph unicode="&#xe916;" glyph-name="lamp" d="M559.24 440.927v-134.64h51.055c76.288 126.255 114.28 214.462 114.28 257.804 0 122.363-76.047 214.578-212.571 214.578s-212.571-92.215-212.571-214.578c0-43.34 37.993-131.546 114.28-257.804h51.055v134.64l-65.283 65.283c-18.449 18.449-18.449 48.358 0 66.804s48.358 18.449 66.804 0l45.716-45.716 45.716 45.716c18.449 18.449 48.358 18.449 66.804 0s18.449-48.358 0-66.804l-65.283-65.283zM348.749 231.63c-0.598 0.838-1.17 1.7-1.716 2.582-94.599 153.081-142.080 260.346-142.080 329.873 0 170.951 113.888 309.054 307.047 309.054s307.047-138.103 307.047-309.054c0-69.527-47.481-176.792-142.080-329.873-0.546-0.885-1.118-1.744-1.716-2.582 1.365-6.391 2.083-13.022 2.083-19.822v-47.239c0-78.267-63.449-141.715-141.715-141.715h-47.239c-78.267 0-141.715 63.449-141.715 141.715v47.239c0 6.8 0.718 13.43 2.083 19.822zM441.145 211.808v-47.239c0-26.090 21.15-47.239 47.239-47.239h47.239c26.090 0 47.239 21.15 47.239 47.239v47.239h-141.715z" />
<glyph unicode="&#xe917;" glyph-name="quote" d="M503.276 657.791c10.948 23.456 26.605 44.981 46.543 63.983 41.109 39.182 92.51 59.947 149.046 59.947 77.384 0 143.665-29.277 189.333-87.062 41.081-51.98 60.094-118.554 60.094-196.625 0-78.198-30.831-153.376-88.356-224.085-53.569-65.845-118.823-116.336-194.841-150.588-47.315-21.317-103.098-3.981-129.994 40.402l-28.321 46.732c-31.13 51.37-11.712 118.374 42.060 145.138 19.482 9.698 36.207 19.845 50.286 30.337-22.608 10.864-42.634 25.198-59.504 43.166-2.345 2.502-4.618 5.048-6.819 7.642-11.766-56.314-39.648-110.783-81.992-162.833-53.569-65.845-118.823-116.336-194.841-150.588-47.315-21.317-103.098-3.981-129.994 40.402l-28.321 46.732c-31.13 51.37-11.712 118.374 42.060 145.138 19.482 9.698 36.207 19.845 50.286 30.337-22.608 10.864-42.634 25.198-59.504 43.166-20.078 21.428-34.965 46.251-43.78 73.773-7.334 22.898-11.010 46.629-11.010 70.818 0 56.86 23.014 108.042 64.983 148.046 41.109 39.182 92.51 59.947 149.046 59.947 77.384 0 143.665-29.277 189.333-87.062 9.149-11.577 17.206-23.88 24.198-36.869zM178.397 573.731c0-13.602 2.037-26.768 6.114-39.493s11.051-24.353 20.919-34.885c10.3-10.97 23.816-19.526 40.548-25.672s38.402-9.216 65.006-9.216h36.043c-4.293-45.636-20.168-84.471-47.629-116.502s-65.437-60.115-113.923-84.252l28.321-46.732c61.361 27.645 113.816 68.234 157.368 121.768s65.328 106.631 65.328 159.287c0 56.607-12.659 100.926-37.973 132.958s-61.573 48.048-108.773 48.048c-30.036 0-56.104-10.532-78.202-31.592s-33.146-45.636-33.146-73.72zM587.517 573.731c0-13.602 2.037-26.768 6.114-39.493s11.051-24.353 20.919-34.885c10.3-10.97 23.816-19.526 40.548-25.672s38.402-9.216 65.006-9.216h36.043c-4.293-45.636-20.168-84.471-47.629-116.502s-65.437-60.115-113.923-84.252l28.321-46.732c61.361 27.645 113.816 68.234 157.368 121.768s65.328 106.631 65.328 159.287c0 56.607-12.659 100.926-37.973 132.958s-61.573 48.048-108.773 48.048c-30.036 0-56.104-10.532-78.202-31.592s-33.146-45.636-33.146-73.72z" />
<glyph unicode="&#xe918;" glyph-name="startwo" d="M120.583 399.939c-41.932 18.319-41.932 77.798 0 96.121l238.958 104.398 104.398 238.958c18.319 41.932 77.798 41.932 96.121 0l104.398-238.958 238.958-104.398c41.932-18.319 41.932-77.798 0-96.121l-238.958-104.398-104.398-238.958c-18.319-41.932-77.798-41.932-96.121 0l-104.398 238.958-238.958 104.398zM420.369 383.432c12.107-5.289 21.774-14.956 27.063-27.063l64.568-147.789 64.568 147.789c5.289 12.107 14.956 21.774 27.063 27.063l147.789 64.568-147.789 64.568c-12.107 5.289-21.774 14.956-27.063 27.063l-64.568 147.789-64.568-147.789c-5.289-12.107-14.956-21.774-27.063-27.063l-147.789-64.568 147.789-64.568zM787.719 266.114l25.388-86.685c4.071-13.9-3.897-28.466-17.797-32.536-4.812-1.411-9.928-1.411-14.744 0l-86.685 25.388 33.173 60.657 60.657 33.173zM330.114 172.281l-86.685-25.388c-13.9-4.071-28.466 3.897-32.536 17.797-1.411 4.812-1.411 9.928 0 14.744l25.388 86.685 60.657-33.173 33.173-60.657zM236.281 629.886l-25.388 86.685c-4.071 13.9 3.897 28.466 17.797 32.536 4.812 1.411 9.928 1.411 14.744 0l86.685-25.388-33.173-60.657-60.657-33.173zM693.886 723.719l86.685 25.388c13.9 4.071 28.466-3.897 32.536-17.797 1.411-4.812 1.411-9.928 0-14.744l-25.388-86.685-60.657 33.173-33.173 60.657z" />
<glyph unicode="&#xe919;" glyph-name="vial" d="M378.534 370.608c53.832 8.965 110.958-8.89 150.181-52.453 0.968-1.075 1.876-2.18 2.726-3.317 0.585-0.586 1.158-1.191 1.718-1.811 26.185-29.082 70.988-31.431 100.069-5.245 8.375 7.543 18.708 11.533 29.15 12.072l-89.955 269.861h-120.858l-73.035-219.107zM338.138 249.414l-44.027-132.078h435.78l-38.595 115.784c-67.901-56.331-168.769-49.471-228.342 16.691-0.968 1.075-1.876 2.18-2.726 3.317-0.585 0.586-1.158 1.191-1.718 1.811-26.185 29.082-70.988 31.431-100.069 5.245-5.991-5.394-12.982-8.971-20.3-10.77zM655.64 638.839l184.603-553.806c10.195-30.587-12.571-62.176-44.814-62.176h-566.858c-32.243 0-55.011 31.589-44.814 62.176l184.603 553.806-43.901 175.608c-7.453 29.814 15.095 58.695 45.826 58.695h283.428c30.731 0 53.28-28.881 45.826-58.695l-43.901-175.608zM430.786 778.667l23.62-94.476h115.187l23.62 94.476h-162.427z" />
<glyph unicode="&#xe91a;" glyph-name="dg" d="M230.166 696.678h82.894v-397.884h-215.52v281.832h132.625v116.049zM230.166 365.111v149.207h-49.736v-149.207h49.736zM346.215 580.63h82.894v-281.832h-82.894v281.832zM346.215 696.678h82.894v-82.894h-82.894v82.894zM462.267 580.63h215.52v-381.308h-215.52v66.313h132.625v33.158h-132.625v281.832zM594.892 365.111v149.207h-49.736v-149.207h49.736zM710.941 580.63h215.52v-381.308h-215.52v66.313h132.625v33.158h-132.625v281.832zM843.57 365.111v149.207h-49.736v-149.207h49.736z" />
<glyph unicode="&#xe91b;" glyph-name="en" d="M693.591 472.016c-11.976 0.419-23.502-0.336-34.249-2.072 3.021 24.518 13.102 54.608 48.813 53.346 39.533-1.364 45.070-38.879 45.21-64.286-16.671 7.457-37.3 12.213-59.78 13.013v0zM862.624 738.141c-6.607 35.518-27.644 53.023-46.657 59.906-20.514 7.442-62.119 15.157-114.391 21.344-42.053 4.968-91.478 4.576-121.334 3.654-3.586 24.641-20.801 47.153-40.062 54.944-51.317 20.737-130.619 15.729-150.97 10-16.176-4.536-34.084-13.84-44.053-28.176-6.686-9.579-11.011-21.845-11.042-38.981 0-9.696 0.267-32.553 0.515-52.847 0.247-20.37 0.512-38.578 0.512-38.702-0.012-18.133-14.645-32.888-32.788-32.914h-83.213c-17.746 0-31.314-2.992-41.666-7.719-10.375-4.729-17.72-11.109-23.307-18.649-11.113-14.977-13.044-33.461-13-52.328 0 0 0.165-15.411 3.864-45.25 3.074-23.085 28.009-184.354 51.693-233.401 9.18-19.081 15.298-27.032 33.344-35.444 40.2-17.275 132.014-36.502 175.051-42.008 42.956-5.519 69.919-17.118 85.983 16.703 0.055 0.083 3.223 8.414 7.568 20.636 13.949 42.44 15.893 80.089 15.893 107.341 0 2.769 4.048 2.895 4.048 0 0-19.235-3.658-87.315 47.56-105.576 20.22-7.201 62.164-13.616 104.786-18.634 38.536-4.449 66.503-19.675 66.503-118.939 0-60.394-12.63-68.671-78.683-68.671-53.541 0-73.951-1.391-73.951 41.314 0 34.515 34.001 30.899 59.2 30.899 11.253 0 3.087 8.41 3.087 29.702 0 21.181 13.196 33.429 0.711 33.738-87.138 2.406-138.41 0.099-138.41-109.315 0-99.33 37.864-117.772 161.536-117.772 96.968 0 131.15 3.186 171.188 127.912 7.926 24.625 27.088 99.764 38.685 225.925 7.329 79.77-6.913 320.541-18.215 381.311v0zM215.253 720.619h83.254c4.769 0 8.605 3.896 8.61 8.649 0 0.029-1.013 71.618-1.013 91.529v0.236c0 16.352 3.419 30.607 9.372 42.552l2.848 5.366c-0.319-0.055-0.638-0.209-0.957-0.528l-161.65-160.939c-0.318-0.263-0.514-0.599-0.609-0.946 3.348 1.658 7.914 3.934 8.564 4.215 14.075 6.38 31.149 9.873 51.579 9.873v0z" />
<glyph unicode="&#xe91c;" glyph-name="gp" d="M338.337 491.801h303.68c2.758-15.33 5.056-30.659 5.056-50.807 0-175.196-123.126-299.585-308.736-299.585-177.796 0-321.597 137.092-321.597 306.591s143.801 306.591 321.597 306.591c86.832 0 159.42-30.22 215.469-80.153l-87.291-80.153c-23.888 21.9-65.697 47.302-128.182 47.302-109.805 0-199.39-86.72-199.39-193.591s89.59-193.591 199.39-193.591c127.262 0 175.043 87.159 182.393 132.273h-182.393v105.115zM1007.261 491.801v-87.598h-90.049v-87.598h-90.049v87.598h-90.049v87.598h90.049v87.598h90.049v-87.598h90.049z" />
<glyph unicode="&#xe91d;" glyph-name="in" d="M268.761 596.603v-573.814h-190.979v573.814h190.979zM281.343 774.108c0-55.095-41.473-99.183-108.062-99.183h-1.222c-64.116 0-105.564 44.089-105.564 99.183 0 56.262 42.71 99.116 108.046 99.116s105.564-42.854 106.809-99.116zM957.513 351.795l-0.011-329.006h-190.976v306.988c0 77.111-27.638 129.723-96.768 129.723-52.765 0-84.192-35.469-97.99-69.735-5.050-12.278-6.287-29.383-6.287-46.535v-320.462h-191.004c0 0 2.514 519.97 0 573.814h191.004v-81.273c25.351 39.069 70.746 94.769 172.139 94.769 125.67 0 219.892-82.029 219.892-258.283z" />
<glyph unicode="&#xe91e;" glyph-name="inst" d="M512.046 880.947h-0.135c117.614 0 132.318-0.514 178.497-2.614 46.092-2.111 77.567-9.406 105.167-20.116 28.504-11.051 52.587-25.841 76.669-49.924 24.082-24.066 38.873-48.219 49.967-76.696 10.645-27.53 17.951-58.989 20.116-105.081 2.073-46.179 2.614-60.937 2.614-178.519s-0.541-132.302-2.614-178.481c-2.165-46.070-9.471-77.54-20.116-105.081-11.094-28.466-25.884-52.619-49.967-76.685-24.055-24.082-48.176-38.911-76.642-49.967-27.546-10.704-59.043-18.005-105.135-20.116-46.179-2.1-60.894-2.614-178.481-2.614-117.571 0-132.318 0.514-178.497 2.614-46.081 2.111-77.551 9.406-105.097 20.116-28.455 11.056-52.614 25.884-76.669 49.967-24.071 24.066-38.868 48.219-49.935 76.696-10.699 27.53-17.994 58.989-20.116 105.081-2.095 46.179-2.614 60.894-2.614 178.47s0.541 132.345 2.609 178.524c2.073 46.070 9.378 77.54 20.116 105.081 11.094 28.466 25.884 52.619 49.967 76.685 24.066 24.071 48.219 38.868 76.696 49.924 27.53 10.704 58.989 18.005 105.081 20.116 46.179 2.1 60.937 2.614 178.519 2.614zM476.477 772.609v0.097c-73.819-0.082-87.981-0.58-124.522-2.23-38.616-1.773-59.585-8.212-73.547-13.655-18.483-7.197-31.687-15.778-45.552-29.644s-22.46-27.071-29.642-45.555c-5.423-13.963-11.876-34.923-13.639-73.548-1.896-41.762-2.275-54.239-2.275-160.025s0.379-118.329 2.275-160.091c1.758-38.625 8.216-59.585 13.639-73.533 7.197-18.495 15.777-31.669 29.642-45.529s27.069-22.447 45.552-29.629c13.973-5.424 34.931-11.877 73.547-13.655 41.753-1.896 54.291-2.312 160.053-2.312 105.757 0 118.3 0.416 160.053 2.312 38.616 1.769 59.596 8.201 73.543 13.651 18.493 7.182 31.656 15.762 45.515 29.629 13.865 13.856 22.46 27.019 29.642 45.503 5.423 13.948 11.876 34.908 13.639 73.533 1.896 41.762 2.312 54.305 2.312 160.025s-0.416 118.262-2.312 160.025c-1.758 38.625-8.216 59.585-13.639 73.533-7.197 18.484-15.777 31.689-29.642 45.555-13.855 13.866-27.032 22.447-45.515 29.629-13.962 5.424-34.921 11.877-73.543 13.64-41.764 1.896-54.296 2.276-160.053 2.276-13.219 0-24.988 0.015-35.531 0zM743.145 731.040c-28.683 0-51.953-23.244-51.953-51.937 0-28.683 23.271-51.953 51.953-51.953s51.953 23.271 51.953 51.953c0 28.683-23.271 51.953-51.953 51.953v-0.016zM512.021 664.477c-119.557 0-216.486-96.936-216.486-216.489s96.929-216.446 216.486-216.446c119.557 0 216.455 96.888 216.455 216.446s-96.902 216.489-216.46 216.489h0.011zM512.005 556.241c59.773 0 108.235-48.459 108.235-108.235 0-59.773-48.462-108.235-108.235-108.235-59.777 0-108.235 48.462-108.235 108.235 0 59.777 48.459 108.235 108.235 108.235v0z" />
<glyph unicode="&#xe91f;" glyph-name="pint" d="M169.414 574.542c0 38.768 6.692 75.294 20.075 109.577s31.85 64.165 55.401 89.655c23.551 25.49 50.677 47.561 81.366 66.232s63.7 32.665 99.032 42c35.332 9.335 71.372 14 108.132 14 56.388 0 108.846-11.939 157.375-35.81s87.965-58.603 118.3-104.19c30.335-45.587 45.5-97.103 45.5-154.542 0-34.464-3.389-68.206-10.174-101.232s-17.486-64.794-32.117-95.31c-14.631-30.516-32.477-57.345-53.532-80.5s-46.928-41.639-77.617-55.464c-30.689-13.819-64.414-20.732-101.174-20.732-24.265 0-48.355 5.742-72.266 17.232s-41.037 27.284-51.391 47.387c-3.569-14-8.566-34.19-14.991-60.577s-10.615-43.439-12.582-51.155c-1.962-7.716-5.624-20.464-10.975-38.232s-9.994-30.516-13.917-38.232c-3.923-7.716-9.634-18.939-17.132-33.655s-15.705-28.629-24.625-41.732c-8.92-13.103-19.988-28.629-33.191-46.577l-7.492-2.69-4.817 5.387c-5.351 56.361-8.032 90.103-8.032 101.232 0 33.026 3.836 70.087 11.508 111.19s19.541 92.706 35.599 154.81c16.058 62.103 25.338 98.542 27.834 109.31-11.421 23.335-17.132 53.665-17.132 91 0 29.794 9.28 57.794 27.834 84s42.111 39.31 70.658 39.31c21.769 0 38.721-7.268 50.851-21.81s18.2-32.939 18.2-55.19c0-23.69-7.852-57.974-23.551-102.845s-23.551-78.439-23.551-100.69c0-22.613 8.032-41.371 24.091-56.268s35.506-22.345 58.349-22.345c19.628 0 37.828 4.49 54.6 13.464s30.782 21.181 42.024 36.613c11.242 15.439 21.235 32.49 29.975 51.155s15.525 38.5 20.342 59.5c4.817 21 8.386 40.923 10.708 59.768s3.482 36.706 3.482 53.577c0 62.103-19.541 110.474-58.616 145.113s-90.019 51.964-152.825 51.964c-71.372 0-130.969-23.242-178.791-69.732s-71.732-105.448-71.732-176.887c0-15.794 2.229-31.052 6.692-45.768s9.28-26.387 14.451-35c5.177-8.613 9.994-16.784 14.451-24.5s6.692-13.19 6.692-16.423c0-10.052-2.675-23.155-8.032-39.31s-11.955-24.232-19.808-24.232c-0.714 0-3.749 0.542-9.1 1.613-18.2 5.387-34.345 15.439-48.442 30.155s-24.979 31.681-32.651 50.887c-7.672 19.206-13.47 38.587-17.399 58.155s-5.891 38.681-5.891 57.345z" />
<glyph unicode="&#xe920;" glyph-name="rd" d="M628.619 58.583c46.091 10.811 79.46 22.4 112.23 38.974 101.999 51.59 165.854 137.236 165.854 222.45 0 25.759 0.552 26.96 22.025 47.745 17.043 16.496 23.707 27.156 29.473 47.109 6.862 23.768 6.885 27.722 0.285 50.438-18.524 63.727-84.79 92.437-144.092 62.429l-22.919-11.599-23.619 14.533c-45.428 27.949-126.219 55.328-178.312 60.416-14.271 1.398-32.267 3.483-39.988 4.645l-14.039 2.106 6.030 30.174c3.316 16.596 10.224 49.348 15.353 72.781s11.553 55.222 14.279 70.641c3.94 22.287 6.624 28.034 13.105 28.034 4.482 0 36.547-6.056 71.26-13.455s63.819-13.455 64.693-13.455c0.874 0 2.83-6.631 4.352-14.731 3.844-20.5 13.831-33.228 34.233-43.639 48.963-24.98 104.079 8.301 104.079 62.853 0 67.585-83.332 97.099-125.683 44.517-8.185-10.163-12.291-12.026-20.185-9.158-5.447 1.98-42.89 10.352-83.201 18.601-53.389 10.926-75.284 13.741-80.638 10.364-8.171-5.155-7.118-1.348-29.626-106.936-26.773-125.595-28.395-132.711-30.7-135.017-1.223-1.223-20.579-4.118-43.028-6.442-68.096-7.046-142.928-31.088-193.378-62.129l-23.328-14.354-22.907 11.415c-59.801 29.8-126.178 1.078-144.692-62.612-6.606-22.717-6.582-26.67 0.285-50.438 5.766-19.953 12.43-30.613 29.473-47.109 21.473-20.785 22.025-21.981 22.025-47.745 0-117.709 120.977-230.045 282.573-262.378 53.532-10.713 57.168-10.987 125.59-9.449 44.717 1.003 76.947 4.255 103.163 10.402zM439.982 144.070c-37.111 8.357-79.085 26.996-91.385 40.587-9.809 10.837-5.616 27.249 6.96 27.249 4.896 0 16.369-5.094 25.485-11.317 61.58-42.038 200.548-41.886 262.336 0.287 19.901 13.582 36.186 13.207 38.196-0.878 0.942-6.631-3.288-13.226-13.463-20.987-49.402-37.683-148.525-52.865-228.135-34.942v0zM326.795 310.731c-23.105 12.538-34.532 32.538-34.554 60.478-0.023 32.028 14.855 52.754 45.078 62.792 21.511 7.145 24.078 7.145 42.793-0.003 50.372-19.236 60.677-82.077 18.972-115.657-21.739-17.506-48.807-20.352-72.29-7.61zM639.832 308.664c-21.413 11.138-33.381 24.678-38.448 43.49-9.373 34.804 8.272 68.773 42.506 81.85 18.72 7.147 21.287 7.148 42.793 0.003 30.223-10.038 45.103-30.764 45.078-62.792-0.024-28.45-11.676-48.288-35.509-60.45-21.44-10.938-38.223-11.563-56.42-2.1z" />
<glyph unicode="&#xe921;" glyph-name="sk" d="M920.046 356.082c15.936-31.618 24.895-67.201 24.895-104.892 0-130.385-107.219-236.13-239.483-236.13-40.982 0-79.471 10.188-113.226 28.057-24.54-4.466-49.789-6.829-75.654-6.829-228.078 0-412.985 182.281-412.985 407.221 0 28.005 2.899 55.405 8.349 81.802-20.874 35.133-32.889 75.885-32.889 119.448 0 130.489 107.219 236.182 239.535 236.182 46.786 0 90.469-13.3 127.378-36.234 23.012 3.913 46.582 5.97 70.611 5.97 228.131 0 412.985-182.333 412.985-407.169 0-30.010-3.259-59.22-9.522-87.427zM728.418 248.878c19.143 26.749 28.915 57.312 28.915 90.838 0 28.057-5.653 52.144-16.802 71.77-11.149 19.471-26.777 35.732-46.53 48.433-19.445 12.499-43.172 23.136-70.716 31.768-27.137 8.58-57.836 16.561-91.283 23.585-26.423 6.022-45.664 10.689-57.121 13.853-11.201 3.014-22.402 7.33-33.243 12.694-10.487 5.221-18.789 11.34-24.593 18.468-5.601 6.627-8.296 14.406-8.296 23.637 0 15.155 8.401 27.953 25.609 39.046 17.871 11.594 41.998 17.414 71.529 17.414 31.919 0 55.088-5.221 68.985-15.656 14.303-10.741 26.777-25.948 37.060-45.217 8.906-15.057 16.953-25.596 24.691-32.373 8.25-7.226 20.264-10.943 35.538-10.943 16.802 0 31.105 5.872 42.411 17.518 11.254 11.49 16.953 24.744 16.953 39.293 0 15.109-4.381 30.713-12.933 46.422-8.453 15.558-21.996 30.466-40.168 44.514-18.022 13.905-40.929 25.141-68.171 33.474-27.085 8.332-59.515 12.545-96.372 12.545-46.176 0-86.902-6.321-121.168-18.82-34.771-12.597-61.758-31.169-80.186-54.904-18.632-23.891-28.049-51.642-28.049-82.356 0-32.269 9.011-59.721 26.731-81.653 17.464-21.528 41.336-38.746 70.972-51.141 28.915-12.193 65.319-22.888 108.235-31.918 31.512-6.523 56.97-12.798 75.753-18.52 17.969-5.618 32.784-13.651 44.090-23.989 10.69-9.934 15.936-22.583 15.936-38.596 0-20.376-9.981-37.041-30.6-50.841-21.025-14.152-49.028-21.378-83.19-21.378-24.796 0-45.002 3.613-59.974 10.539-14.867 6.978-26.521 15.858-34.673 26.501-8.401 10.891-16.343 24.842-23.675 41.403-6.565 15.109-14.71 26.899-24.232 34.88-9.929 8.281-22.199 12.447-36.352 12.447-17.307 0-31.82-5.273-43.12-15.806-11.405-10.591-17.208-23.539-17.208-38.395 0-23.937 8.86-48.68 26.423-73.574 17.359-24.796 40.221-44.768 67.968-59.519 38.844-20.324 88.587-30.616 147.892-30.616 49.435 0 92.81 7.577 129.005 22.433 36.654 14.953 64.86 36.032 83.951 62.735z" />
<glyph unicode="&#xe922;" glyph-name="sl" d="M713.68 603.545c17.206-53.022 35.555-109.582 52.792-162.706l77.774 25.317c40.546 13.194 84.094-9.031 97.271-49.634 13.171-40.613-9.008-84.226-49.564-97.42 0 0-30.444-9.903-77.773-25.306 15.755-48.551 25.968-80.035 26.079-80.378 13.074-40.3-11.904-83.875-52.874-95.688-39.283-11.322-80.201 9.996-93.909 47.935l-26.088 80.374c-52.956-17.233-109.449-35.612-162.515-52.884 15.755-48.551 25.968-80.035 26.078-80.377 13.074-40.304-11.904-83.885-52.874-95.688-39.283-11.326-80.201 9.992-93.909 47.925l-26.089 80.377c-48.51-15.785-79.969-26.022-80.318-26.132-40.238-13.096-83.754 11.92-95.551 52.953-11.307 39.339 9.982 80.32 47.867 94.041l80.295 26.134-52.821 162.755c-48.495-15.782-79.94-26.011-80.283-26.121-40.248-13.096-83.764 11.92-95.551 52.953-11.311 39.339 9.978 80.32 47.857 94.041l80.269 26.13-25.293 77.936c-13.181 40.613 9.008 84.226 49.564 97.42 40.546 13.194 84.094-9.031 97.275-49.634 0 0 9.898-30.508 25.281-77.931l162.47 52.885-25.288 77.908c-13.181 40.603 9.008 84.216 49.564 97.41 40.546 13.198 84.094-9.021 97.271-49.634 0 0 9.896-30.488 25.276-77.895l77.773 25.317c40.55 13.194 84.104-9.031 97.275-49.634 13.171-40.613-9.018-84.226-49.564-97.42 0 0-30.445-9.903-77.782-25.306zM566.861 555.772c-52.945-17.232-109.433-35.609-162.487-52.872 17.207-53.034 35.559-109.601 52.803-162.743l162.499 52.897-52.809 162.719z" />
<glyph unicode="&#xe923;" glyph-name="stm" d="M214.868 745.893c-36.087-30.265-73.334-67.519-88.467-112.917-17.46-53.548 6.983-108.261 30.265-155.987 23.282-48.892 48.891-96.618 71.007-146.676 17.46-39.576 41.903-86.141 36.087-130.377-4.655-31.432-15.132-61.697-20.954-93.129-4.655-20.954 15.132 0 22.115 5.822 40.742 34.921 84.978 74.502 101.272 128.050 8.149 26.771 3.494 51.22-5.822 76.83-9.311 24.444-19.788 47.726-30.265 72.174-22.115 48.892-45.397 97.784-68.679 146.676-9.311 17.46-18.626 36.087-26.771 54.714-8.149 19.788-12.805 40.743-13.966 62.858-1.161 17.46-1.161 33.759 1.161 51.22 1.161 12.805 4.655 24.444 5.822 37.249 1.161 6.983-4.655 9.311-12.805 3.494zM748.001 745.893c8.149 5.822 13.966 3.494 12.805-3.494-1.161-12.805-4.655-24.444-5.822-37.249-2.328-17.46-2.328-33.759-1.161-51.22 1.161-22.116 5.822-43.070 13.966-62.858 8.149-18.627 17.46-37.249 26.771-54.714 23.282-48.892 46.564-97.784 68.679-146.676 10.477-24.444 20.954-47.726 30.265-72.174 9.311-25.61 13.966-50.053 5.822-76.83-16.299-53.548-60.53-93.129-101.272-128.050-6.983-5.822-26.771-26.771-22.115-5.822 5.822 31.432 16.299 61.697 20.954 93.129 5.822 44.237-18.626 90.796-36.087 130.377-22.115 50.053-47.725 97.784-71.007 146.676-23.282 47.726-47.725 102.44-30.265 155.987 15.132 45.398 52.38 82.652 88.467 112.917zM473.285 834.361c10.477 8.15 17.46 6.983 13.966-5.822 0-13.966-4.655-26.771-5.822-40.743-2.328-20.954-3.494-43.070-2.328-64.025 1.161-27.938 5.822-55.875 16.299-82.652 6.983-19.788 18.626-38.415 27.937-58.203 27.937-55.875 54.708-111.751 80.317-168.792 13.966-30.265 27.937-60.531 40.742-91.962 11.638-26.771 25.609-54.714 27.937-83.813 4.655-71.008-50.053-131.544-97.783-176.942-17.46-17.46-37.248-34.921-57.041-50.053-4.655-3.494-9.311-6.983-10.477 1.161-1.161 10.477 5.822 24.444 8.149 34.921 10.477 36.087 23.282 76.83 20.954 115.245-2.328 31.432-15.132 62.858-26.771 90.796-32.593 79.157-76.828 152.493-110.582 230.489-17.46 40.743-33.759 82.652-45.397 124.555-9.311 34.921-6.983 69.847 10.477 103.601 24.443 47.726 68.679 88.468 109.421 122.228z" />
<glyph unicode="&#xe924;" glyph-name="tmblr" d="M616.312 29.093c-206.987 0-318.942 76.743-318.942 239.439v203.806h-84.795c-1.924 0-3.482 1.57-3.482 3.506v165.474c0 1.507 0.957 2.85 2.381 3.325l9.266 3.114c83.026 27.927 127.208 86.1 139.040 183.066 2.857 23.447 22.413 36.096 39.361 36.096h236.961c1.924 0 3.482-1.57 3.482-3.506v-187.844c0-1.936 1.559-3.506 3.482-3.506h135.117c1.924 0 3.482-1.57 3.482-3.506v-192.717c0-1.937-1.559-3.506-3.482-3.506h-135.701c-1.924 0-3.482-1.57-3.482-3.506v-188.381c0.127-7.761 0.928-14.043 2.268-19.177 0.395-1.52 1.808-2.524 3.368-2.524h115.342c1.493 0 2.824-0.958 3.299-2.383l51.629-154.027-5.47-7.249c-27.297-36.16-109.824-66.007-193.117-66.007zM791.023 87.088c0.981 0.965 1.285 2.42 0.851 3.733l-34.519 104.335c-0.63 1.908-2.667 2.864-4.507 2.146-19.726-7.684-41.328-12.159-60.191-12.159-46.812 0-70.952 25.779-71.751 76.638l-0.002 225.874c0 1.962 1.559 3.55 3.482 3.55h135.701c1.924 0 3.482 1.587 3.482 3.55v125.711c0 1.961-1.559 3.55-3.482 3.55h-135.116c-1.924 0-3.482 1.587-3.482 3.549v190.291c0 1.962-1.559 3.55-3.482 3.55h-108.549c-0.051 0-4.816-0.16-5.525-6.050-12.766-106.023-61.304-174.569-148.215-209.065-1.323-0.525-2.212-1.818-2.212-3.262v-108.267c0-1.962 1.559-3.55 3.482-3.55h81.318c1.924 0 3.482-1.587 3.482-3.549v-237.671c0-77.343 44.865-208.237 213.032-208.243h0.015c1.9 0 3.796 0.015 5.73 0.051 51.124 0.88 104.469 19.81 130.464 45.294z" />
<glyph unicode="&#xe925;" glyph-name="chevron-right" d="M469.146 728.781c21.402-20.89 230.502-240.384 230.502-240.384 11.418-11.213 17.152-25.805 17.152-40.397s-5.734-29.184-17.152-40.294c0 0-209.101-219.597-230.502-240.384-21.402-20.89-59.904-22.323-82.688 0-22.835 22.221-24.627 53.299 0 80.589l191.846 200.090-191.846 200.090c-24.627 27.29-22.835 58.419 0 80.691 22.784 22.323 61.286 20.941 82.688 0z" />
<glyph unicode="&#xe926;" glyph-name="chevron-left" d="M637.542 728.781c22.835-22.323 24.627-53.402 0-80.691l-191.846-200.090 191.846-200.090c24.627-27.29 22.835-58.419 0-80.589-22.784-22.323-61.286-20.89-82.688 0-21.402 20.787-230.502 240.384-230.502 240.384-11.418 11.11-17.152 25.702-17.152 40.294s5.734 29.184 17.152 40.397c0 0 209.101 219.494 230.502 240.384 21.402 20.941 59.904 22.323 82.688 0z" />
<glyph unicode="&#xe927;" glyph-name="filter" d="M81.814 786.987c7.893 15.787 19.733 23.68 35.52 23.68h789.333c15.787 0 27.627-7.893 35.52-23.68 7.893-11.84 3.947-27.627-3.947-39.467l-307.84-363.093v-244.693c0-15.787-7.893-27.627-23.68-35.52l-157.867-78.933c-3.947-3.947-7.893-3.947-15.787-3.947s-15.787 0-19.733 3.947c-11.84 7.893-19.733 19.733-19.733 35.52v323.627l-307.84 363.093c-7.893 11.84-11.84 27.627-3.947 39.467zM464.641 423.893c3.947-7.893 7.893-15.787 7.893-27.627v-272.32l78.933 39.467v232.853c0 7.893 3.947 19.733 7.893 23.68l260.48 311.787h-619.627l264.427-307.84z" />
<glyph unicode="&#xe928;" glyph-name="calendar" d="M845.511 781.511h-47.644v-95.289h-142.933v95.289h-285.867v-95.289h-142.933v95.289h-47.644c-52.456 0-95.289-42.88-95.289-95.289v-571.733c0-52.409 42.833-95.289 95.289-95.289h667.022c52.409 0 95.289 42.88 95.289 95.289v571.733c0 52.409-42.88 95.289-95.289 95.289zM845.511 114.489h-667.022v381.156h667.022v-381.156zM345.244 876.8h-95.289v-166.756h95.289v166.756zM774.044 876.8h-95.289v-166.756h95.289v166.756z" />
<glyph unicode="&#xea10;" glyph-name="check" d="M807.68 784l-403.2-403.2-188.16 188.16-134.4-134.4 322.56-322.56 537.6 537.6z" />
<glyph unicode="&#xea3a;" glyph-name="arrow-up" d="M877.254 557.254l-320 320c-24.992 24.994-65.514 24.994-90.508 0l-320-320c-24.994-24.994-24.994-65.516 0-90.51 24.994-24.996 65.516-24.996 90.51 0l210.744 210.746v-613.49c0-35.346 28.654-64 64-64s64 28.654 64 64v613.49l210.746-210.746c12.496-12.496 28.876-18.744 45.254-18.744s32.758 6.248 45.254 18.746c24.994 24.994 24.994 65.514 0 90.508z" />
<glyph unicode="&#xea3c;" glyph-name="arrow-right" d="M621.254 82.746l320 320c24.994 24.992 24.994 65.516 0 90.51l-320 320c-24.994 24.992-65.516 24.992-90.51 0-24.994-24.994-24.994-65.516 0-90.51l210.746-210.746h-613.49c-35.346 0-64-28.654-64-64s28.654-64 64-64h613.49l-210.746-210.746c-12.496-12.496-18.744-28.876-18.744-45.254s6.248-32.758 18.744-45.254c24.994-24.994 65.516-24.994 90.51 0z" />
<glyph unicode="&#xea3e;" glyph-name="arrow-down" d="M877.254 338.746l-320-320c-24.992-24.994-65.514-24.994-90.508 0l-320 320c-24.994 24.994-24.994 65.516 0 90.51 24.994 24.996 65.516 24.996 90.51 0l210.744-210.746v613.49c0 35.346 28.654 64 64 64s64-28.654 64-64v-613.49l210.746 210.746c12.496 12.496 28.876 18.744 45.254 18.744s32.758-6.248 45.254-18.746c24.994-24.994 24.994-65.514 0-90.508z" />
<glyph unicode="&#xea40;" glyph-name="arrow-left" d="M402.746 82.746l-320 320c-24.994 24.992-24.994 65.516 0 90.51l320 320c24.994 24.992 65.516 24.992 90.51 0 24.994-24.994 24.994-65.516 0-90.51l-210.746-210.746h613.49c35.346 0 64-28.654 64-64s-28.654-64-64-64h-613.49l210.746-210.746c12.496-12.496 18.744-28.876 18.744-45.254s-6.248-32.758-18.744-45.254c-24.994-24.994-65.516-24.994-90.51 0z" />
<glyph unicode="&#xea9d;" glyph-name="youtube" d="M1013.599 652.701c0 0-10 70.6-40.8 101.6-39 40.8-82.6 41.002-102.599 43.4-143.2 10.4-358.2 10.4-358.2 10.4h-0.398c0 0-215 0-358.2-10.4-20-2.4-63.6-2.6-102.599-43.4-30.8-31-40.6-101.6-40.6-101.6s-10.202-82.8-10.202-165.8v-77.6c0-82.8 10.202-165.8 10.202-165.8s10-70.6 40.6-101.6c39-40.8 90.198-39.4 113-43.8 82-7.8 348.199-10.202 348.199-10.202s215.2 0.398 358.4 10.6c20 2.4 63.6 2.6 102.599 43.4 30.8 31 40.8 101.6 40.8 101.6s10.202 82.8 10.202 165.8v77.6c-0.2 82.8-10.4 165.8-10.4 165.8zM405.999 315.099v287.8l276.6-144.4-276.6-143.4z" />
</font>
</defs>
</svg>
